<?xml version="1.0" encoding="UTF-8" standalone="no"?>
<svg
   xmlns:dc="http://purl.org/dc/elements/1.1/"
   xmlns:cc="http://creativecommons.org/ns#"
   xmlns:rdf="http://www.w3.org/1999/02/22-rdf-syntax-ns#"
   xmlns:svg="http://www.w3.org/2000/svg"
   xmlns="http://www.w3.org/2000/svg"
   viewBox="0 0 182.44972 49.134265"
   height="49.134266"
   width="182.44972"
   xml:space="preserve"
   id="svg2"
   version="1.1"><metadata
     id="metadata8"><rdf:RDF><cc:Work
         rdf:about=""><dc:format>image/svg+xml</dc:format><dc:type
           rdf:resource="http://purl.org/dc/dcmitype/StillImage" /><dc:title></dc:title></cc:Work></rdf:RDF></metadata><defs
     id="defs6" /><g
     transform="matrix(1.3333333,0,0,-1.3333333,-60.472932,109.60933)"
     id="g10"><g
       transform="scale(0.1)"
       id="g12"><path
         id="path14"
         style="fill:#7db43c;fill-opacity:1;fill-rule:nonzero;stroke:none"
         d="m 1370.33,544.734 h 50.5 c 9.17,0 16.61,7.442 16.61,16.621 v 201.731 h -32.59 v -62.598 c -4.27,4.492 -15,8.016 -27.35,8.016 -36.77,0 -58.53,-30.262 -58.53,-82.41 0,-54.953 27.85,-81.36 51.36,-81.36 z m 8.17,33.02 c -17.85,0 -26.56,25.359 -26.56,47.226 0,37.774 10.25,50.508 28.68,50.508 10.65,0 20.01,-4.66 24.23,-10.82 v -86.914 z m 335.42,87.363 c -10.9,22.696 -22.61,39.375 -51.2,39.375 h -32.39 c -9.17,0 -16.61,-7.433 -16.61,-16.613 V 544.734 h 32.58 v 126.758 h 16.42 c 9.76,0 12.94,-4.687 20.3,-19.402 z M 1292.53,544.734 v 110.567 c 0,28.594 -20.62,49.191 -49.21,49.191 h -53.72 c -9.16,0 -16.61,-7.433 -16.61,-16.613 V 544.734 h 32.62 v 126.758 h 37.71 c 9.18,0 16.62,-7.441 16.62,-16.621 V 544.734 Z M 597.934,595.02 c 0,12.226 2.437,30.644 56.164,15.339 v -32.605 h -40.403 c -9.293,0 -15.761,7.957 -15.761,17.266 z m -32.586,-0.43 c 0,-26.133 21.16,-49.856 47.285,-49.856 h 57.422 c 9.168,0 16.609,7.442 16.609,16.621 l 0.039,93.946 c 0,28.594 -20.625,49.191 -49.207,49.191 h -61.25 v -33 h 61.25 c 9.168,0 16.602,-7.441 16.602,-16.621 v -14.219 c -39.864,10.774 -88.75,8.391 -88.75,-46.062 z m 485.792,0.43 c 0,12.226 2.45,30.644 56.18,15.339 v -32.605 h -40.41 c -9.31,0 -15.77,7.957 -15.77,17.266 z m -32.6,-0.43 c 0,-26.133 21.18,-49.856 47.29,-49.856 h 57.43 c 9.17,0 16.62,7.442 16.62,16.621 l 0.03,93.946 c 0,28.594 -20.62,49.191 -49.2,49.191 h -61.25 v -33 h 61.25 c 9.18,0 16.61,-7.441 16.61,-16.621 v -14.219 c -39.86,10.774 -88.78,8.391 -88.78,-46.062 z m -43.927,173.816 c -10.586,0 -19.187,-8.593 -19.187,-19.168 0,-10.586 8.601,-19.172 19.187,-19.172 10.586,0 19.16,8.586 19.16,19.172 0,10.575 -8.574,19.168 -19.16,19.168 z m -73.25,-63.914 v -33 h 56.953 V 544.734 h 32.598 v 143.145 c 0,9.18 -7.461,16.613 -16.621,16.613 z m 22.051,-159.758 v 33.02 H 866.449 V 704.492 H 833.863 V 561.355 c 0,-9.179 7.442,-16.621 16.621,-16.621 z m -116.223,0 v 33.02 H 750.23 V 704.492 H 717.641 V 561.355 c 0,-9.179 7.441,-16.621 16.613,-16.621 z m 691.869,105.09 c 0,10.508 9.47,25.664 28.55,25.664 16.88,0 24.79,-10.84 24.79,-20.773 0,-15.32 -11.78,-17.774 -28.13,-17.774 -7.57,0 -17.45,1.028 -25.21,2.969 z m 21.44,-72.07 c -11.54,0 -20.89,9.988 -21.44,21.375 v 9.914 c 8.7,-2.09 17.82,-2.91 27.26,-2.91 36.39,0 60.16,13.672 60.16,48.222 0,26.688 -18.9,54.149 -57.96,54.149 -26.44,0 -62.46,-19.793 -62.09,-57.059 l 0.04,-51.23 c 0,-35.918 28.31,-55.481 54.03,-55.481 h 55.14 v 33.02 c 0,0 -54.97,0 -55.14,0 z m 301.42,180.254 V 517.625 c 0,-35.379 -28.68,-64.062 -64.06,-64.062 H 517.605 c -35.378,0 -64.058,28.683 -64.058,64.062 V 822.07 H 1757.86 c 35.38,0 64.06,-28.683 64.06,-64.062" /></g></g></svg>