<svg width="200" height="200" viewBox="0 0 200 200" fill="none" xmlns="http://www.w3.org/2000/svg">
<path d="M50.1458 105.703H42.9844L33.0687 123.526L23.153 105.815L23.0428 105.703H15.8814L29.5431 129.207L15 153.936H22.0512L33.0687 134.776L43.976 153.936H51.1374L36.3739 129.207L50.1458 105.703Z" fill="black"/>
<path d="M60.0614 105.703H53.8916V153.936H60.0614V105.703Z" fill="black"/>
<path d="M73.6132 105.703H67.3333V153.936H92.8939V148.143H73.6132V105.703Z" fill="black"/>
<path d="M103.25 105.703H97.0801V153.936H103.25V105.703Z" fill="black"/>
<path d="M139.939 141.794L116.361 105.815L116.251 105.703H110.522V153.936H116.802V117.733L140.379 153.824L140.49 153.936H146.108V105.703H139.939V141.794Z" fill="black"/>
<path d="M170.237 129.207L183.788 106.149L184.008 105.703H176.847L166.931 123.526L157.016 105.815L156.905 105.703H149.744L163.406 129.207L148.863 153.936H155.914L166.931 134.776L177.839 153.936H185L170.237 129.207Z" fill="black"/>
<path d="M27.4496 78.5237H42.6538L45.5183 85.43H55.4341L39.7892 49.7848H29.4328L15.2202 85.43H25.0258L27.4496 78.5237ZM29.8735 71.8403L34.611 59.253L39.7892 71.8403H29.8735Z" fill="black"/>
<path d="M77.5793 62.5948L66.5618 49.7848H58.6292V85.43H67.8839V63.9315L76.808 74.5136H78.4607L87.3848 63.9315V85.43H96.6395V49.7848H88.7069L77.5793 62.5948Z" fill="black"/>
<path d="M137.735 67.6073C137.735 56.691 130.133 49.6733 118.234 49.6733H102.699V85.3185H117.353C130.243 85.4299 137.735 78.9692 137.735 67.6073ZM128.26 67.6073C128.26 77.6325 119.777 78.4123 117.243 78.4123H111.844V56.691H117.132C124.184 56.691 128.26 60.7011 128.26 67.6073Z" fill="black"/>
<path d="M172.33 58.5847V76.6301L183.788 88.2147V47H143.133L154.592 58.5847H172.33Z" fill="black"/>
<path d="M143.133 71.8404V88.1035H159.329L171.118 76.1846H154.922V59.9215L143.133 71.8404Z" fill="black"/>
</svg>
