<?xml version="1.0" standalone="no"?>
<!DOCTYPE svg PUBLIC "-//W3C//DTD SVG 20010904//EN"
 "http://www.w3.org/TR/2001/REC-SVG-20010904/DTD/svg10.dtd">
<svg version="1.0" xmlns="http://www.w3.org/2000/svg"
 width="904.000000pt" height="210.000000pt" viewBox="0 0 904.000000 210.000000"
 preserveAspectRatio="xMidYMid meet">

<g transform="translate(0.000000,210.000000) scale(0.100000,-0.100000)"
fill="#000000" stroke="none">
<path d="M2430 1804 c-277 -35 -463 -70 -760 -144 -633 -159 -1166 -360 -1302
-492 -52 -50 -57 -71 -33 -119 99 -191 1277 -607 1940 -684 369 -43 484 -2
597 211 l42 81 46 -27 c101 -59 235 -83 345 -60 70 15 160 58 208 100 19 16
37 30 41 30 3 0 6 -25 6 -55 l0 -55 175 0 175 0 -2 513 -3 512 -175 0 -175 0
-3 -48 -3 -47 -37 29 c-90 73 -228 107 -360 91 -70 -9 -177 -44 -187 -61 -13
-20 -32 -7 -53 37 -30 62 -104 138 -159 165 -38 19 -66 23 -167 25 -67 1 -137
0 -156 -2z m146 -106 c-158 -162 -234 -374 -222 -623 12 -243 98 -454 251
-611 62 -63 61 -63 -75 -71 -361 -20 -1256 210 -1824 468 -211 96 -346 187
-346 233 0 28 96 98 214 155 493 240 1535 513 1982 520 l92 1 -72 -72z m837
-371 c91 -39 141 -117 142 -222 0 -126 -65 -211 -181 -235 -179 -37 -321 105
-284 284 23 114 114 186 233 186 32 0 72 -6 90 -13z"/>
<path d="M5575 1640 c-203 -28 -365 -178 -420 -390 -25 -95 -17 -261 18 -353
56 -152 165 -260 313 -311 143 -50 390 -20 471 56 l23 21 0 -58 c0 -108 -41
-184 -123 -228 -35 -18 -58 -22 -137 -22 -84 0 -102 3 -152 28 -31 15 -70 43
-87 63 l-31 34 -140 -70 c-77 -39 -140 -73 -140 -78 0 -4 13 -30 30 -58 56
-98 165 -172 310 -211 93 -25 340 -24 430 1 193 53 311 157 372 326 l23 65 0
580 0 580 -175 0 -175 0 -3 -42 c-2 -24 -5 -43 -8 -43 -3 0 -20 11 -37 24 -94
70 -233 103 -362 86z m268 -313 c91 -39 141 -117 142 -222 0 -126 -65 -211
-181 -235 -179 -37 -321 105 -284 284 23 114 114 186 233 186 32 0 72 -6 90
-13z"/>
<path d="M8230 1639 c-71 -14 -141 -54 -203 -116 l-57 -57 0 77 0 77 -175 0
-175 0 0 -515 0 -515 174 0 175 0 3 293 3 292 29 53 c43 77 98 107 192 107 55
-1 82 -6 121 -26 l51 -25 73 149 c82 165 83 152 -6 186 -62 23 -146 31 -205
20z"/>
<path d="M3982 1263 c4 -339 5 -362 26 -426 43 -129 143 -215 296 -254 98 -25
372 -25 464 0 177 48 269 137 307 299 11 49 15 138 15 401 l0 337 -174 0 -174
0 -4 -307 -3 -308 -27 -58 c-23 -48 -34 -61 -70 -77 -51 -23 -144 -26 -191 -6
-41 17 -83 65 -98 114 -7 23 -13 154 -16 340 l-5 302 -175 0 -174 0 3 -357z"/>
<path d="M6422 1263 c4 -339 5 -362 26 -426 43 -129 143 -215 296 -254 98 -25
372 -25 464 0 177 48 269 137 307 299 11 49 15 138 15 401 l0 337 -174 0 -174
0 -4 -307 -3 -308 -27 -58 c-23 -48 -34 -61 -70 -77 -51 -23 -144 -26 -191 -6
-41 17 -83 65 -98 114 -7 23 -13 154 -16 340 l-5 302 -175 0 -174 0 3 -357z"/>
</g>
</svg>
