<?xml version="1.0" encoding="UTF-8" standalone="no"?>
<svg xmlns:rdf="http://www.w3.org/1999/02/22-rdf-syntax-ns#" xmlns="http://www.w3.org/2000/svg" viewBox="0 0 299.99999 303.75043" width="84.667mm" version="1.1" xmlns:cc="http://creativecommons.org/ns#" height="85.725mm" xmlns:dc="http://purl.org/dc/elements/1.1/">
 <defs>
  <clipPath id="a" clipPathUnits="userSpaceOnUse">
   <path d="m0 0h339.98v340h-339.98v-340z"/>
  </clipPath>
 </defs>
 <g transform="translate(-196.04 -481.48)">
  <g transform="matrix(4.1707 0 0 -4.2193 195.74 785.27)">
   <g transform="scale(.21178 .21177)">
    <g clip-path="url(#a)">
     <path d="m57.032 340.05h226.63l2.94-0.06 2.86-0.24 2.85-0.36 2.79-0.49 2.74-0.64 2.7-0.76 2.63-0.89 2.57-1.02 2.51-1.13 2.44-1.25 2.38-1.38 2.3-1.47 2.21-1.57 2.14-1.7 2.07-1.79 1.95-1.87 1.89-1.97 1.77-2.04 1.7-2.15 1.57-2.23 1.46-2.3 1.36-2.38 1.26-2.44 1.15-2.51 0.99-2.57 0.9-2.63 0.76-2.7 0.64-2.74 0.49-2.79 0.36-2.82 0.23-2.89 0.07-2.92v-226.67l-0.07-2.911-0.23-2.869-0.36-2.848-0.49-2.783-0.64-2.742-0.76-2.698-0.9-2.614-0.99-2.571-1.15-2.529-1.26-2.423-1.36-2.38-1.46-2.295-1.57-2.231-1.7-2.125-1.77-2.061-1.89-1.976-1.95-1.87-2.07-1.785-2.14-1.679-2.21-1.5726-2.3-1.4662-2.38-1.36-2.44-1.2537-2.51-1.1476-2.57-0.9987-2.63-0.8925-2.7-0.765-2.74-0.6375-2.79-0.48876-2.85-0.36124-2.86-0.23377-2.94-0.063747h-226.63l-2.933 0.063747-2.868 0.23377-2.848 0.36124-2.784 0.48876-2.762 0.6375-2.678 0.765-2.635 0.8925-2.571 0.9987-2.529 1.1476-2.443 1.2537-2.359 1.36-2.316 1.4662-2.21 1.5726-2.147 1.679-2.061 1.785-1.955 1.87-1.891 1.976-1.764 2.061-1.679 2.125-1.593 2.231-1.4665 2.295-1.36 2.38-1.2538 2.423-1.1475 2.529-0.9987 2.571-0.8925 2.614-0.765 2.698-0.6375 2.742-0.48877 2.783-0.36125 2.848-0.23375 2.869-0.06375 2.911v226.67l0.06375 2.92 0.23375 2.89 0.36125 2.82 0.48877 2.79 0.6375 2.74 0.765 2.7 0.8925 2.63 0.9987 2.57 1.1475 2.51 1.2538 2.44 1.36 2.38 1.4665 2.3 1.593 2.23 1.679 2.15 1.764 2.04 1.891 1.97 1.955 1.87 2.061 1.79 2.147 1.7 2.21 1.57 2.316 1.47 2.359 1.38 2.443 1.25 2.529 1.13 2.571 1.02 2.635 0.89 2.678 0.76 2.762 0.64 2.784 0.49 2.848 0.36 2.868 0.24 2.933 0.06z" fill-rule="evenodd" fill="#1a5493"/>
     <path d="m28.663 56.723h26.435v113.35h-26.435v-113.35z" fill-rule="evenodd" fill="#fff212"/>
     <path d="m173.55 144.15h-1.51l-1.49-0.05-1.47-0.06-1.42-0.09-1.4-0.08-1.38-0.13-1.36-0.15-1.34-0.15-1.3-0.19-1.27-0.19-1.26-0.21-1.23-0.23-1.19-0.24-1.17-0.25-1.15-0.28-1.12-0.28-1.09-0.29-1.06-0.3-1.02-0.32-1-0.32-0.98-0.32-0.93-0.34-0.91-0.34-0.88-0.36-0.85-0.34-0.82-0.36-0.79-0.36-0.77-0.36-0.72-0.36-0.7-0.36-0.66-0.37-0.64-0.36 4.98-16.7 0.57 0.34 0.6 0.34 0.61 0.34 0.64 0.32 0.66 0.32 0.68 0.32 0.7 0.32 0.72 0.29 0.75 0.3 0.76 0.3 0.77 0.3 0.78 0.27 0.79 0.26 0.81 0.27 0.82 0.26 0.83 0.23 0.85 0.24 0.85 0.21 0.87 0.21 0.85 0.19 0.88 0.19 0.89 0.17 0.87 0.15 0.89 0.15 0.87 0.13 0.9 0.1 0.89 0.11 0.87 0.06 0.89 0.07 0.87 0.06 0.9 0.02h0.87l1.4-0.02 1.36-0.06 1.27-0.11 1.19-0.13 1.15-0.19 1.09-0.21 1.02-0.25 0.95-0.28 0.92-0.32 0.85-0.34 0.78-0.36 0.72-0.38 0.68-0.41 0.64-0.42 0.6-0.45 0.53-0.44 0.49-0.47 0.46-0.49 0.41-0.47 0.36-0.49 0.32-0.51 0.3-0.49 0.25-0.48 0.23-0.49 0.2-0.49 0.14-0.47 0.13-0.47 0.11-0.44 0.08-0.45 0.05-0.42 0.04-0.41v-0.38-0.91l-3.17-0.03-3.1-0.08-3.02-0.15-2.93-0.21-2.85-0.28-2.76-0.36-2.7-0.4-2.59-0.49-2.51-0.53-2.4-0.62-2.34-0.68-2.23-0.74-2.12-0.81-2.04-0.87-1.96-0.94-1.85-1-1.74-1.06-1.64-1.12-1.55-1.19-1.42-1.28-1.34-1.317-1.21-1.381-1.11-1.466-1.02-1.509-0.87-1.572-0.78-1.658-0.66-1.7-0.53-1.785-0.43-1.827-0.32-1.892-0.17-1.976-0.06-2.019 0.02-1.211 0.08-1.211 0.15-1.211 0.22-1.19 0.27-1.19 0.32-1.19 0.38-1.169 0.45-1.148 0.49-1.126 0.57-1.105 0.62-1.084 0.66-1.062 0.72-1.041 0.79-0.999 0.85-0.978 0.89-0.935 0.95-0.892 1-0.85 1.07-0.808 1.1-0.765 1.17-0.722 1.23-0.68 1.28-0.616 1.34-0.553 1.38-0.51 1.42-0.446 1.51-0.383 1.53-0.318 1.59-0.255 1.64-0.192 1.7-0.106 1.74-0.042 1.06 0.021 1.05 0.042 1.02 0.043 1.02 0.085 0.99 0.106 1 0.128 0.98 0.148 0.98 0.17 0.95 0.213 0.94 0.212 0.93 0.234 0.92 0.255 0.89 0.276 0.89 0.298 0.87 0.34 0.85 0.34 0.83 0.361 0.83 0.383 0.81 0.382 0.79 0.425 0.76 0.446 0.74 0.447 0.75 0.488 0.7 0.489 0.7 0.51 0.68 0.531 0.66 0.553 0.62 0.574 0.61 0.573 0.6 0.595 0.57 0.617 0.55 0.637h0.3l2.89-8.819h21.51v50.237l-0.03 1.91-0.1 1.87-0.15 1.85-0.21 1.83-0.28 1.8-0.36 1.77-0.4 1.72-0.49 1.68-0.58 1.65-0.61 1.6-0.73 1.55-0.78 1.51-0.87 1.46-0.94 1.41-1.04 1.36-1.1 1.29-1.19 1.24-1.3 1.16-1.38 1.11-1.47 1.04-1.55 0.98-1.66 0.89-1.74 0.83-1.85 0.74-1.93 0.68-2.06 0.58-2.15 0.51-2.25 0.42-2.36 0.32-2.47 0.23-2.57 0.15-2.67 0.05zm15.08-56.083v-0.51l-0.02-0.531-0.04-0.531-0.04-0.553-0.07-0.531-0.06-0.553-0.09-0.531-0.12-0.531-0.05-0.191-0.08-0.277-0.06-0.255-0.07-0.17-0.08-0.212-0.09-0.213-0.23-0.531-0.26-0.51-0.27-0.51-0.3-0.51-0.32-0.489-0.34-0.51-0.36-0.488-0.38-0.468-0.41-0.467-0.4-0.468-0.45-0.446-0.46-0.446-0.47-0.425-0.49-0.404-0.53-0.404-0.53-0.382-0.56-0.362-0.55-0.361-0.59-0.319-0.6-0.318-0.61-0.298-0.64-0.255-0.64-0.255-0.68-0.234-0.68-0.191-0.68-0.191-0.72-0.149-0.72-0.127-0.73-0.107-0.76-0.063-0.77-0.064h-0.76-0.68l-0.66 0.042-0.64 0.043-0.64 0.085-0.61 0.106-0.6 0.106-0.59 0.149-0.58 0.17-0.53 0.17-0.55 0.213-0.51 0.233-0.49 0.255-0.49 0.255-0.44 0.298-0.45 0.319-0.4 0.318-0.41 0.362-0.36 0.382-0.36 0.383-0.32 0.425-0.3 0.446-0.29 0.446-0.26 0.489-0.23 0.489-0.19 0.51-0.19 0.552-0.15 0.553-0.13 0.573-0.11 0.617-0.06 0.616-0.04 0.637-0.02 0.659 0.02 0.744 0.06 0.701 0.11 0.701 0.12 0.68 0.17 0.638 0.22 0.637 0.25 0.595 0.28 0.595 0.32 0.574 0.34 0.531 0.38 0.532 0.42 0.51 0.45 0.488 0.49 0.447 0.51 0.446 0.55 0.425 0.58 0.425 0.59 0.382 0.64 0.362 0.66 0.361 0.68 0.34 0.72 0.319 0.72 0.297 0.77 0.276 0.8 0.277 0.81 0.233 0.83 0.234 0.87 0.234 0.87 0.191 0.92 0.191 0.91 0.17 0.96 0.149 0.89 0.128 0.93 0.127 0.94 0.106 0.98 0.107 0.97 0.063 1.02 0.085 1.02 0.043 1.05 0.042 0.63 0.022 0.64 0.021 0.66 0.021h0.64 0.66 0.65 0.66 0.68v-9.01z" fill-rule="evenodd" fill="#fff212"/>
     <path d="m285.83 141.66v-49.789-0.744l-0.04-0.722-0.07-0.702-0.1-0.68-0.11-0.68-0.15-0.637-0.19-0.638-0.23-0.595-0.19-0.488-0.24-0.489-0.25-0.489-0.26-0.489-0.27-0.467-0.3-0.489-0.32-0.489-0.34-0.467-0.36-0.468-0.36-0.467-0.41-0.468-0.4-0.446-0.42-0.425-0.45-0.425-0.47-0.404-0.49-0.403-0.51-0.383-0.51-0.382-0.55-0.34-0.55-0.34-0.6-0.298-0.59-0.297-0.62-0.277-0.64-0.233-0.65-0.234-0.68-0.191-0.71-0.17-0.72-0.128-0.72-0.127-0.77-0.064-0.76-0.064h-0.81l-0.98 0.021-0.95 0.064-0.94 0.106-0.89 0.17-0.85 0.192-0.83 0.255-0.78 0.297-0.75 0.34-0.72 0.361-0.68 0.425-0.66 0.468-0.62 0.51-0.57 0.531-0.57 0.595-0.51 0.616-0.49 0.659-0.47 0.701-0.42 0.744-0.39 0.786-0.38 0.808-0.32 0.85-0.32 0.892-0.27 0.935-0.24 0.957-0.21 0.998-0.19 1.02-0.15 1.063-0.13 1.105-0.1 1.126-0.07 1.169-0.04 1.19-0.02 1.232v44.942h-25.8v-49.659-1.254l0.04-1.211 0.05-1.169 0.06-1.169 0.09-1.147 0.1-1.126 0.13-1.084 0.13-1.084 0.17-1.041 0.17-1.02 0.19-0.999 0.23-0.977 0.24-0.957 0.25-0.935 0.26-0.913 0.29-0.872 0.3-0.871 0.34-0.85 0.32-0.829 0.36-0.807 0.36-0.786 0.36-0.765 0.41-0.744 0.4-0.744 0.4-0.701 0.43-0.701 0.45-0.68 0.46-0.638 0.47-0.637 0.49-0.617 0.49-0.595 0.51-0.573 0.53-0.574 0.55-0.531 0.55-0.532 0.56-0.488 0.59-0.489 0.58-0.468 0.61-0.446 0.62-0.425 0.64-0.404 0.63-0.382 0.66-0.361 0.66-0.362 0.68-0.318 0.7-0.319 0.7-0.276 0.73-0.277 0.74-0.255 0.72-0.233 0.77-0.234 0.74-0.191 0.79-0.192 0.76-0.17 0.79-0.17 0.81-0.127 0.8-0.128 0.81-0.106 0.83-0.085 0.83-0.085 0.85-0.064 0.85-0.021 0.87-0.042h0.87 0.77l0.74 0.021 0.72 0.021 0.72 0.043 0.73 0.063 0.7 0.064 0.7 0.064 0.68 0.106 0.66 0.085 0.66 0.128 0.66 0.106 0.63 0.149 0.62 0.127 0.62 0.17 0.61 0.17 0.6 0.17 1.14 0.383 1.13 0.403 1.06 0.425 1.04 0.425 1 0.468 0.96 0.467 0.91 0.51 0.87 0.51 0.83 0.532 0.81 0.531 0.77 0.552 0.74 0.553 0.7 0.574 0.66 0.595 0.62 0.595 0.59 0.616 0.57 0.595 0.54 0.595 0.48 0.574 0.47 0.552 0.45 0.531 0.4 0.532 0.36 0.488 0.34 0.51 3.32-12.07h20.95v84.937h-26.18z" fill-rule="evenodd" fill="#fff212"/>
     <path d="m79.897 170.07v-28.37h-12.049v-19.36h12.049v-34.549l0.021-1.063 0.021-1.041 0.022-1.041 0.042-0.999 0.064-0.999 0.085-0.977 0.085-0.956 0.106-0.957 0.106-0.913 0.128-0.914 0.149-0.893 0.17-0.871 0.17-0.85 0.191-0.85 0.191-0.807 0.213-0.808 0.233-0.786 0.255-0.765 0.255-0.744 0.277-0.722 0.297-0.723 0.298-0.68 0.318-0.68 0.34-0.637 0.34-0.638 0.362-0.616 0.382-0.595 0.404-0.595 0.404-0.553 0.425-0.531 0.446-0.531 0.446-0.489 0.425-0.425 0.425-0.425 0.446-0.404 0.447-0.403 0.488-0.383 0.489-0.382 0.531-0.383 0.532-0.361 0.531-0.361 0.574-0.34 0.573-0.319 0.595-0.34 0.617-0.298 0.616-0.297 0.659-0.298 0.637-0.255 0.68-0.276 0.68-0.234 0.701-0.233 0.702-0.213 0.722-0.212 0.744-0.17 0.743-0.17 0.77-0.149 0.76-0.149 0.79-0.127 0.78-0.085 0.81-0.085 0.81-0.085 0.83-0.043 0.83-0.021 0.85-0.021 1.4 0.021 1.29 0.042 1.22 0.064 1.1 0.085 1.04 0.106 0.96 0.128 0.91 0.149 0.83 0.17 0.81 0.17 0.74 0.191 0.7 0.212 0.7 0.213 1.32 0.467 1.3 0.489v19.741l-0.34-0.127-0.45-0.128-0.53-0.127-0.66-0.106-0.74-0.107-0.83-0.063-0.89-0.064-0.96-0.021-0.85 0.021-0.79 0.042-0.76 0.085-0.72 0.128-0.68 0.149-0.64 0.17-0.62 0.212-0.57 0.255-0.53 0.276-0.51 0.298-0.49 0.361-0.43 0.361-0.42 0.404-0.38 0.425-0.36 0.468-0.32 0.51-0.3 0.51-0.28 0.573-0.25 0.574-0.24 0.616-0.19 0.659-0.19 0.659-0.15 0.722-0.15 0.723-0.1 0.765-0.11 0.807-0.08 0.808-0.07 0.85-0.04 0.892-0.04 0.893-0.02 0.935v0.956 30.108h16.4v19.36h-16.4v28.37h-25.673z" fill-rule="evenodd" fill="#fff212"/>
     <path d="m276.08 170.09-15.94-22.91h18.44l22.47 22.91h-24.97z" fill-rule="evenodd" fill="#fff212"/>
    </g>
   </g>
  </g>
 </g>
</svg>