<?xml version="1.0" encoding="UTF-8"?> <!-- Generator: Adobe Illustrator 23.0.4, SVG Export Plug-In . SVG Version: 6.00 Build 0) --> <svg xmlns:cc="http://creativecommons.org/ns#" xmlns:dc="http://purl.org/dc/elements/1.1/" xmlns:inkscape="http://www.inkscape.org/namespaces/inkscape" xmlns:rdf="http://www.w3.org/1999/02/22-rdf-syntax-ns#" xmlns:sodipodi="http://sodipodi.sourceforge.net/DTD/sodipodi-0.dtd" xmlns:svg="http://www.w3.org/2000/svg" xmlns="http://www.w3.org/2000/svg" xmlns:xlink="http://www.w3.org/1999/xlink" id="svg2" x="0px" y="0px" viewBox="0 0 400 245" style="enable-background:new 0 0 400 245;" xml:space="preserve"> <style type="text/css"> .st0{fill:#FFFFFF;stroke:#000000;stroke-width:9.4166;stroke-linejoin:round;} .st1{stroke:#000000;stroke-width:9.4164;stroke-linejoin:round;} .st2{fill:#FFFFFF;stroke:#FFFFFF;stroke-width:9.4164;stroke-linejoin:round;} .st3{fill:#FFFFFF;stroke:#000000;stroke-width:9.4164;stroke-linejoin:round;} .st4{stroke:#000000;stroke-width:5.7235;stroke-linejoin:round;} .st5{fill:#FFFFFF;stroke:#FFFFFF;stroke-width:0.886;stroke-linejoin:round;} .st6{stroke:#000000;stroke-width:2.173;stroke-linejoin:round;} .st7{fill:#FFA500;} .st8{fill:#FF00FF;fill-opacity:0;stroke:#000000;stroke-width:3.3995;} .st9{stroke:#FF0000;stroke-width:1.3259;stroke-opacity:0;} </style> <g> <path id="path4006" inkscape:connector-curvature="0" class="st0" d="M195,46.6c0,13.5-13.1,24.5-29.2,24.5 c-16.1,0-29.1-11-29.1-24.5c0-13.5,13-24.5,29.1-24.5S195,33.1,195,46.6C195,46.6,195,46.6,195,46.6z"></path> <path id="path4017" inkscape:connector-curvature="0" class="st1" d="M176.9,46.6c0,5.4-4.8,9.8-10.7,9.8c-5.9,0-10.8-4.4-10.8-9.8 c0,0,0,0,0,0c0-5.4,4.8-9.8,10.7-9.8C172.1,36.8,176.9,41.2,176.9,46.6C176.9,46.6,176.9,46.6,176.9,46.6z"></path> <path id="path4019" inkscape:connector-curvature="0" class="st2" d="M164.4,44.8c0,1.4-0.8,2.4-1.7,2.4c-1,0-1.7-1.1-1.7-2.4 s0.8-2.4,1.7-2.4C163.7,42.3,164.4,43.4,164.4,44.8z"></path> <path id="path4028" inkscape:connector-curvature="0" class="st3" d="M261,46.6c0,13.5-13.1,24.5-29.2,24.5 c-16.1,0-29.1-11-29.1-24.5c0-13.5,13-24.5,29.1-24.5C248,22.1,261,33.1,261,46.6C261,46.6,261,46.6,261,46.6z"></path> <path id="path4030" inkscape:connector-curvature="0" class="st1" d="M243,46.6c0,5.4-4.8,9.8-10.8,9.8c-5.9,0-10.8-4.4-10.8-9.8 s4.8-9.8,10.8-9.8C238.2,36.8,243,41.2,243,46.6z"></path> <path id="path4032" inkscape:connector-curvature="0" class="st2" d="M230.5,44.8c0,1.4-0.8,2.5-1.7,2.5c-1,0-1.7-1.1-1.7-2.4 c0,0,0,0,0,0c0-1.4,0.8-2.5,1.7-2.5C229.7,42.3,230.5,43.4,230.5,44.8C230.5,44.8,230.5,44.8,230.5,44.8z"></path> <path id="path4036" inkscape:connector-curvature="0" class="st4" d="M239,101.7c0,15.4-17.9,66.1-40.1,66.1s-40.1-50.7-40.1-66.1 s17.9-27.9,40.1-27.9S239,86.2,239,101.7z"></path> <path id="path4045" inkscape:connector-curvature="0" class="st5" d="M212.8,65.7l-13.3,0l-13.3,0l6.7,7l6.7,7l6.7-7L212.8,65.7z"></path> <path id="rect4049" inkscape:connector-curvature="0" class="st6" d="M224.6,19.5l62.4-16.6c4.4,21.8-41.8,21.2-63.1,21.2 L224.6,19.5z"></path> <path id="path4052" inkscape:connector-curvature="0" class="st6" d="M172.8,19.5L110.4,2.9c-4.4,21.8,41.8,21.2,63.1,21.2 L172.8,19.5z"></path> <path id="path4076" inkscape:connector-curvature="0" class="st7" d="M178.6,165.1c0,2.1-1.9,3.7-4.3,3.7c-2.3,0-4.2-1.7-4.2-3.7 c0-2.1,1.9-3.7,4.2-3.8S178.6,163.1,178.6,165.1C178.6,165.1,178.6,165.1,178.6,165.1z"></path> <path id="path4078" inkscape:connector-curvature="0" class="st7" d="M187.1,165.1c0,2.1-1.9,3.7-4.3,3.7c-2.3,0-4.2-1.7-4.2-3.7 c0-2.1,1.9-3.7,4.2-3.8C185.2,161.4,187.1,163.1,187.1,165.1C187.1,165.1,187.1,165.1,187.1,165.1z"></path> <path id="path4080" inkscape:connector-curvature="0" class="st7" d="M195.6,165.1c0,2.1-1.9,3.7-4.3,3.7c-2.3,0-4.2-1.7-4.2-3.7 c0-2.1,1.9-3.7,4.2-3.8S195.6,163.1,195.6,165.1C195.6,165.1,195.6,165.1,195.6,165.1z"></path> <path id="path4082" inkscape:connector-curvature="0" class="st7" d="M214.3,165.1c0,2.1-1.9,3.7-4.3,3.7c-2.3,0-4.2-1.7-4.2-3.7 c0-2.1,1.9-3.7,4.2-3.8C212.4,161.4,214.3,163.1,214.3,165.1C214.3,165.1,214.3,165.1,214.3,165.1z"></path> <path id="path4084" inkscape:connector-curvature="0" class="st7" d="M222.8,165.1c0,2.1-1.9,3.7-4.3,3.7c-2.3,0-4.2-1.7-4.2-3.7 c0-2.1,1.9-3.7,4.2-3.8S222.8,163.1,222.8,165.1C222.8,165.1,222.8,165.1,222.8,165.1z"></path> <path id="path4086" inkscape:connector-curvature="0" class="st7" d="M231.3,165.1c0,2.1-1.9,3.7-4.3,3.7c-2.3,0-4.2-1.7-4.2-3.7 c0-2.1,1.9-3.7,4.2-3.8S231.3,163.1,231.3,165.1C231.3,165.1,231.3,165.1,231.3,165.1z"></path> <path id="path3427" inkscape:connector-curvature="0" class="st7" d="M198.7,55c-2.2,3-3.6,6.8-6.3,9.6c-1.7,1.2-5.1-0.6-6.6,1.2 c4.1,5,8.8,9.9,13.5,14.2c2.8-1.5,4.7-4.6,7.1-6.7c2.2-2.5,4.9-4.8,6.7-7.5c-1.6-1.5-4.5-0.3-6.5-0.9c-3.4-1.1-4.4-5.3-6.2-8 C199.8,56.3,199.6,55,198.7,55z"></path> <path id="path3782" inkscape:connector-curvature="0" inkscape:export-filename="/tmp/ico.png" inkscape:export-xdpi="90" inkscape:export-ydpi="90" class="st8" d=" M162.2,75.4c-8.5-1-16.9-5-22.2-10.4c-8.7-9-10.1-21.2-3.8-31.8c1-1.7,3.3-4.4,5-6.1c1.8-1.7,3-3.1,2.6-3.1c-1.4,0-9-1.1-12.3-1.7 c-14.7-3-22.2-8.5-22.2-16.6c0-1.5,0.2-3,0.5-3.3c0.3-0.3,11.2,2.4,30.1,7.4c16.3,4.3,31.7,8.3,34.2,8.9c2.5,0.6,6.4,1.9,8.6,3 c7.2,3.5,14.2,11.6,15.6,18l0.4,1.7l1.1-2.9c2.2-5.9,5.6-10.5,11.1-14.4c3.7-2.6,7.4-4.2,13.9-5.7c2.8-0.7,18-4.7,33.8-8.9 c22.4-6,28.8-7.5,29.1-7c0.2,0.3,0.4,1.8,0.4,3.3c0,7.7-7.4,13.4-21.3,16.3c-3.8,0.8-11.4,1.9-13,1.9c-0.3,0,1.2,1.8,3.3,4 c4.4,4.5,6.6,8.4,7.8,13.9c2.4,11.2-4.1,23.3-15.5,29.2c-10.8,5.6-22.7,5.8-33.4,0.8c-5.5-2.6-5.4-2.4-3.8-4.5c0.7-1,1.2-1.9,1-2 c-0.2-0.2-1.9-0.4-3.8-0.6c-1.9-0.2-3.9-0.6-4.3-1c-1.2-1-4.7-7.1-5.6-9.8c-0.5-1.3-0.8-1.9-0.9-1.4c0,1.4-3.5,8.2-5.3,10.3 c-1.3,1.6-1.7,1.8-3.8,1.8c-3.9,0-4.7,0.7-2.8,2.7l1,1.1l-1.5,1c-2.3,1.6-8.1,4.1-11.5,5C171.3,75.2,164.9,75.7,162.2,75.4z M172.7,65.7c7.6-1.8,13.2-6,16-11.9c1.3-2.7,1.5-3.6,1.5-7.2c0-3.6-0.2-4.4-1.5-7.2c-3.8-7.7-12.6-12.5-22.9-12.5 c-10.2,0-19.1,4.8-22.9,12.5c-1.4,2.8-1.5,3.6-1.5,7.2c0,3.6,0.2,4.5,1.5,7.2c2.8,5.9,8.4,10.1,15.8,11.9 C163.6,66.8,167.7,66.8,172.7,65.7L172.7,65.7L172.7,65.7z M238.7,65.7c6.6-1.6,11.6-4.8,14.6-9.2c9.1-13.7-2.5-29.7-21.4-29.7 c-17.4,0-29.2,14-22.8,27.2c2.8,5.7,8.4,9.9,15.6,11.7C229.6,66.8,233.8,66.8,238.7,65.7L238.7,65.7L238.7,65.7z"></path> <g id="text3141" transform="matrix(0.67448804,0,0,0.67448804,-188.14143,0.79870488)"> <path id="path4328" inkscape:connector-curvature="0" class="st9" d="M380.4,244.6c-0.6,0-1.3,0-1.9,0.1c-0.6,0-1.3,0-1.9,0.1v32 h2.3c5.1,0,9.2-0.5,12.3-1.5c3.2-1,5.6-2.3,7.3-3.9s2.9-3.3,3.5-5.3c0.6-2,0.9-3.9,0.9-5.8c0-2.2-0.4-4.3-1.1-6.2 c-0.7-1.9-1.9-3.6-3.7-4.9c-1.7-1.4-4-2.5-6.9-3.3C388.3,245,384.7,244.6,380.4,244.6L380.4,244.6z M387.6,281.7 c-2.1,0-4.1,0.1-5.9,0.3c-1.8,0.2-3.5,0.4-5.1,0.7v35.4c0,0.4,0.2,0.7,0.6,1c0.8,0.3,1.6,0.5,2.6,0.7c1,0.1,2,0.2,3,0.3 s2,0.2,3.1,0.2c1,0,2,0.1,2.9,0.1c3.2,0,6.1-0.4,8.7-1.2c2.6-0.8,4.8-2,6.6-3.5c1.9-1.5,3.3-3.2,4.3-5.3c1-2.1,1.5-4.4,1.5-6.9 c0-2.4-0.4-5-1.3-7.5c-0.8-2.6-2.2-4.9-4-7c-1.8-2.1-4.1-3.9-6.9-5.2C394.7,282.4,391.4,281.7,387.6,281.7L387.6,281.7z M420.7,301.3c0,3.8-0.8,7.2-2.3,10.3c-1.5,3-3.6,5.6-6.3,7.7c-2.7,2.1-5.9,3.8-9.6,4.9c-3.7,1.2-7.9,1.7-12.3,1.7 c-1.3,0-2.9,0-4.9-0.1s-4-0.1-6.1-0.2c-2.1,0-4.3-0.1-6.5-0.2c-2.1-0.1-4.1-0.2-5.8-0.3c-1.7,0-3.1-0.1-4.2-0.1 c-1.1,0-1.6-0.1-1.6-0.1h-4.9v-2.9c3-0.6,5.4-1.3,7.1-2c1.7-0.8,2.6-1.4,2.6-2.1v-72.5c-1.7,0.2-3.4,0.5-5,0.7 c-1.6,0.2-3.2,0.5-4.7,0.7l-0.6-4.1c1.7-0.5,3.7-1,6-1.4c2.3-0.5,4.7-0.9,7.3-1.3c2.5-0.4,5.1-0.7,7.7-0.9 c2.6-0.3,5.1-0.4,7.5-0.4c4.4,0,8.5,0.4,12.1,1.3c3.6,0.8,6.7,2,9.1,3.5c2.5,1.6,4.5,3.4,5.8,5.7c1.4,2.2,2.1,4.7,2.1,7.5 c0,4.8-1.1,8.9-3.4,12.4c-2.3,3.4-5.4,5.9-9.3,7.4c2.8,0.5,5.5,1.5,7.9,3c2.4,1.5,4.6,3.3,6.3,5.5c1.8,2.1,3.2,4.6,4.3,7.3 C420.1,295.3,420.7,298.2,420.7,301.3L420.7,301.3z"></path> <path id="path4330" inkscape:connector-curvature="0" d="M454.2,240.9c0,1.2-0.2,2.4-0.6,3.5c-0.4,1.1-1,2.1-1.7,2.9 c-0.7,0.8-1.5,1.4-2.4,1.9c-0.9,0.5-2,0.7-3.1,0.7c-2,0-3.4-0.6-4.3-1.7c-0.8-1.1-1.3-2.7-1.3-4.7c0-1.2,0.2-2.4,0.6-3.5 c0.4-1.1,1-2.1,1.7-2.9c0.7-0.8,1.5-1.5,2.4-1.9c0.9-0.5,1.9-0.7,3-0.7C452.3,234.6,454.2,236.7,454.2,240.9L454.2,240.9z M432.8,325v-2.9c3-0.6,5.3-1.3,6.9-2c1.6-0.8,2.4-1.4,2.4-2.1v-37.8c0-2.3,0-4.1-0.1-5.5c-0.1-1.4-0.4-2.5-1-3.3 c-0.6-0.8-1.5-1.4-2.8-1.7c-1.2-0.4-3-0.6-5.4-0.9v-2.7c1.4-0.3,2.8-0.6,4.3-0.9c1.6-0.4,3.1-0.8,4.6-1.3c1.5-0.5,3-1,4.3-1.5 c1.4-0.5,2.6-1.1,3.8-1.6h2.3v57.1c0,0.5,0.7,1.2,2.2,2c1.5,0.8,3.9,1.4,7.1,2.1v2.9H432.8z"></path> <path id="path4332" inkscape:connector-curvature="0" d="M510.4,317.2c-2.2,1.6-4.3,3-6.5,4.3c-2.1,1.2-4.2,2.2-6.1,3.1 c-1.9,0.8-3.7,1.4-5.3,1.8c-1.6,0.4-3,0.7-4.2,0.7c-1.6,0-3-0.3-4.5-0.9c-1.4-0.6-2.6-1.5-3.7-2.8c-1.1-1.3-1.9-3.1-2.5-5.2 c-0.6-2.1-0.9-4.8-0.9-7.9v-41H468l-1.4-1.9l5.2-4.4h4.8v-16.4l7.9-6.9l2.1,1.7V263h21.8l1.9,1.9c-0.4,0.6-0.9,1.3-1.5,2 c-0.6,0.7-1.2,1.3-1.8,2c-0.6,0.6-1.2,1.2-1.9,1.7c-0.6,0.5-1.1,0.8-1.5,1c-1.1-0.5-2.7-1-4.9-1.5c-2.2-0.5-5.1-0.8-8.7-0.8h-3.5 v35.3c0,2.7,0.1,4.9,0.3,6.7c0.3,1.7,0.7,3.1,1.3,4.2c0.6,1,1.3,1.8,2.2,2.2c0.9,0.4,2.1,0.6,3.4,0.6c1.6,0,3.5-0.3,5.9-0.9 c2.4-0.6,5.3-1.8,8.7-3.5L510.4,317.2z"></path> <path id="path4334" inkscape:connector-curvature="0" d="M545.3,267.9c-2.3,0-4.4,0.4-6.3,1.3c-1.9,0.9-3.6,2.1-5.1,3.7 c-1.5,1.6-2.7,3.5-3.7,5.8c-1,2.3-1.7,4.8-2.1,7.5h28.5c1,0,1.7-0.2,2-0.5c0.4-0.4,0.5-1,0.5-1.9c0-0.8-0.1-1.8-0.2-2.9 s-0.4-2.2-0.8-3.4c-0.4-1.2-0.9-2.4-1.5-3.5c-0.6-1.2-1.4-2.2-2.5-3.1c-1-0.9-2.3-1.7-3.7-2.3 C548.9,268.2,547.2,267.9,545.3,267.9L545.3,267.9z M570,287.9c-0.8,0.9-1.9,1.7-3.2,2.5c-1.3,0.8-2.7,1.4-4.1,2h-35.1v0.2 c0,3.3,0.4,6.6,1.3,9.7c0.9,3.1,2.2,5.8,3.9,8.2c1.7,2.4,3.8,4.2,6.2,5.7c2.4,1.4,5.2,2.1,8.3,2.1c1.4,0,2.7-0.1,4-0.2 c1.3-0.2,2.8-0.6,4.3-1.1c1.5-0.6,3.2-1.5,5-2.7c1.9-1.2,4-2.8,6.5-4.9c0.6,0.3,1.1,0.8,1.5,1.3c0.4,0.6,0.8,1,1,1.4 c-3,3.2-5.6,5.9-7.9,7.9c-2.2,2-4.3,3.5-6.3,4.5c-2,1.1-3.9,1.8-5.9,2.1c-1.9,0.4-4,0.5-6.3,0.5c-3.4,0-6.7-0.7-9.8-2.2 c-3.1-1.5-5.8-3.5-8.1-6.2c-2.4-2.7-4.2-6-5.7-9.7c-1.4-3.8-2.1-8.1-2.1-12.8c0-3,0.3-5.9,1-8.8c0.7-2.9,1.6-5.6,2.9-8.2 c1.3-2.6,2.8-5,4.7-7.1c1.8-2.2,3.9-4.1,6.2-5.7c1-0.7,2.1-1.3,3.3-1.9c1.2-0.7,2.5-1.2,3.9-1.7c1.3-0.5,2.6-0.9,3.9-1.1 c1.3-0.3,2.6-0.5,3.8-0.5c2.9,0,5.5,0.4,7.7,1.2c2.3,0.8,4.2,1.9,5.9,3.3c1.7,1.3,3.1,2.9,4.3,4.7c1.2,1.8,2.1,3.7,2.8,5.7 c0.8,2,1.3,4,1.6,6.1C569.9,284,570,286,570,287.9L570,287.9z"></path> <path id="path4336" inkscape:connector-curvature="0" d="M626.9,263.4c0.4,0.3,0.6,1,0.5,2.3c0,1.3-0.2,2.8-0.5,4.5 c-0.3,1.7-0.7,3.4-1.3,5.2c-0.5,1.8-1.1,3.3-1.6,4.5h-2.9c-0.3-1.8-0.6-3.3-1.1-4.5c-0.5-1.2-1.1-2.2-1.7-2.9 c-0.6-0.8-1.3-1.3-2.1-1.6c-0.8-0.4-1.6-0.5-2.4-0.5c-1,0-2.1,0.4-3.5,1.3c-1.3,0.8-2.6,2.1-4,3.9c-1.4,1.7-2.8,4-4.1,6.7 c-1.3,2.7-2.5,6-3.6,9.7v26.2c0,0.7,0.8,1.4,2.5,2.1c1.7,0.7,4.6,1.4,8.8,2v2.9h-30.6v-2.9c2.9-0.7,5.2-1.3,6.9-1.9 c1.6-0.7,2.5-1.4,2.5-2.1v-38.8c0-1.5,0-2.7-0.1-3.7c-0.1-1-0.2-1.8-0.3-2.5c-0.1-0.6-0.3-1.1-0.5-1.5c-0.2-0.4-0.4-0.6-0.5-0.9 c-0.3-0.3-0.7-0.6-1.1-0.7c-0.4-0.2-0.8-0.4-1.5-0.5c-0.6-0.1-1.3-0.2-2.1-0.3c-0.8-0.1-1.9-0.2-3.1-0.3v-2.7 c2.9-0.8,5.7-1.5,8.5-2.3c2.8-0.8,5.3-1.8,7.5-3.1l2.3,2.3l0.9,15.1c1.2-2.4,2.5-4.7,3.9-6.9c1.4-2.1,2.9-4,4.5-5.5 c1.6-1.6,3.3-2.8,5-3.7c1.8-0.9,3.6-1.3,5.5-1.3c1.4,0,3,0.2,4.6,0.5C623.6,261.9,625.2,262.5,626.9,263.4L626.9,263.4z"></path> <path id="path4338" inkscape:connector-curvature="0" d="M675.7,285c0-2.4-0.4-4.6-1.2-6.7c-0.8-2.1-1.9-3.9-3.5-5.5 c-1.5-1.6-3.4-2.8-5.7-3.7c-2.3-0.9-4.9-1.4-7.9-1.4c-1.1,0-2.4,0.3-3.7,0.9c-1.3,0.5-2.6,1.4-3.8,2.5s-2.2,2.5-3,4.2 c-0.8,1.6-1.2,3.6-1.2,5.7c0,2.4,0.4,4.6,1.1,6.7c0.8,2.1,1.9,3.9,3.3,5.5c1.5,1.6,3.4,2.8,5.7,3.7c2.3,0.9,5,1.3,8.2,1.3 c1.3,0,2.6-0.3,4-0.9c1.4-0.6,2.7-1.4,3.8-2.5c1.2-1.1,2.1-2.5,2.8-4.1C675.4,289.2,675.7,287.2,675.7,285L675.7,285z M664.3,325.3c-1.7-0.2-3.2-0.4-4.7-0.6c-1.4-0.2-2.8-0.5-4-0.7c-3.2,1.7-5.7,3.3-7.6,4.7c-1.8,1.4-3.2,2.6-4.1,3.7 c-0.9,1.1-1.5,2.1-1.8,3c-0.2,0.9-0.3,1.7-0.3,2.4c0,1.9,0.6,3.6,1.9,5.3c1.2,1.7,2.9,3.2,5,4.4c2.1,1.2,4.5,2.2,7.3,2.9 c2.8,0.8,5.7,1.1,8.7,1.1c3,0,5.7-0.4,8.1-1.2c2.4-0.8,4.5-1.9,6.3-3.3c1.7-1.4,3.1-3.1,4-5.1c1-1.9,1.5-4,1.5-6.3 c0-1.2-0.3-2.4-0.9-3.5c-0.6-1-1.6-2-3.1-2.8c-1.5-0.8-3.6-1.6-6.2-2.3C671.6,326.3,668.3,325.8,664.3,325.3L664.3,325.3z M685.1,282.3c0,3.4-0.8,6.6-2.3,9.4c-1.5,2.8-3.5,5.2-6,7.3c-2.5,2-5.3,3.6-8.5,4.8c-3.2,1.1-6.4,1.7-9.6,1.7h-0.3 c-2.1,1.7-3.5,3.2-4.3,4.4c-0.8,1.2-1.2,1.9-1.2,2.1c0,0.5,0.2,1.1,0.7,1.6c0.5,0.5,1.4,1,2.6,1.5c1.3,0.4,3,0.9,5.3,1.4 c2.2,0.4,5.1,0.9,8.5,1.3c4.8,0.5,8.9,1.3,12,2.4c3.2,1.1,5.7,2.3,7.5,3.7c1.9,1.4,3.2,2.9,3.9,4.5c0.8,1.6,1.1,3.2,1.1,4.7 c0,2.4-0.5,4.8-1.4,6.9c-0.9,2.2-2.2,4.3-3.8,6.1c-1.6,1.9-3.5,3.6-5.7,5.1c-2.2,1.5-4.5,2.8-7,3.9c-2.5,1.1-5.1,1.9-7.7,2.5 c-2.7,0.6-5.3,0.9-7.9,0.9c-2.1,0-4.2-0.2-6.5-0.5c-2.2-0.3-4.4-0.7-6.6-1.3c-2.2-0.6-4.2-1.4-6.2-2.4c-1.9-0.9-3.6-2.1-5.1-3.5 c-1.5-1.3-2.6-2.9-3.5-4.6c-0.8-1.7-1.3-3.6-1.3-5.8c0-1.2,0.2-2.4,0.6-3.7c0.4-1.2,1.3-2.6,2.6-4.1s3.1-3,5.4-4.7 c2.3-1.7,5.4-3.6,9.2-5.6c-2.9-1-4.9-2.2-6-3.5c-1.1-1.3-1.7-2.6-1.7-3.9c0-0.4,0.1-0.8,0.3-1.4c0.2-0.6,0.7-1.4,1.3-2.2 c0.7-0.8,1.7-1.8,2.9-2.9c1.2-1.1,2.9-2.4,4.9-3.8c-2.3-0.6-4.3-1.5-6.2-2.7c-1.8-1.2-3.4-2.6-4.7-4.3c-1.3-1.7-2.3-3.6-3-5.7 c-0.7-2.1-1.1-4.4-1.1-6.9c0-3.2,0.7-6.3,2.2-9.2c1.5-2.9,3.4-5.5,5.8-7.6c2.4-2.2,5.1-3.9,8.2-5.1c3.1-1.3,6.2-1.9,9.5-1.9 c2.7,0,5.2,0.4,7.5,1.1c2.4,0.8,4.5,1.8,6.4,3.2c2.3-0.2,4.4-0.5,6.3-0.9c1.9-0.4,3.5-0.7,5-1.1c1.5-0.4,2.8-0.8,4-1.2 c1.2-0.4,2.2-0.8,3.1-1.1l1.3,2c-0.5,1.2-1,2.4-1.5,3.5c-0.5,1-1.2,2.1-2.3,3.2c-1.7,0.3-3.4,0.6-5,0.7c-1.6,0.2-3.4,0.3-5.5,0.4 c1.2,1.7,2,3.5,2.7,5.4C684.7,278.1,685.1,280.1,685.1,282.3L685.1,282.3z"></path> <path id="path4340" inkscape:connector-curvature="0" d="M722.5,240.9c0,1.2-0.2,2.4-0.6,3.5c-0.4,1.1-1,2.1-1.7,2.9 c-0.7,0.8-1.5,1.4-2.4,1.9c-0.9,0.5-2,0.7-3.1,0.7c-2,0-3.4-0.6-4.3-1.7c-0.8-1.1-1.3-2.7-1.3-4.7c0-1.2,0.2-2.4,0.6-3.5 c0.4-1.1,1-2.1,1.7-2.9c0.7-0.8,1.5-1.5,2.4-1.9c0.9-0.5,1.9-0.7,3-0.7C720.6,234.6,722.5,236.7,722.5,240.9L722.5,240.9z M701.1,325v-2.9c3-0.6,5.3-1.3,6.9-2c1.6-0.8,2.4-1.4,2.4-2.1v-37.8c0-2.3,0-4.1-0.1-5.5c-0.1-1.4-0.4-2.5-1-3.3 c-0.6-0.8-1.5-1.4-2.8-1.7c-1.2-0.4-3-0.6-5.4-0.9v-2.7c1.4-0.3,2.8-0.6,4.3-0.9c1.6-0.4,3.1-0.8,4.6-1.3c1.5-0.5,3-1,4.3-1.5 c1.4-0.5,2.6-1.1,3.8-1.6h2.3v57.1c0,0.5,0.7,1.2,2.2,2c1.5,0.8,3.9,1.4,7.1,2.1v2.9H701.1z"></path> <path id="path4342" inkscape:connector-curvature="0" d="M757,318.4c2.7,0,5.5-0.7,8.5-2c3-1.4,6.2-3.5,9.6-6.5v-17.4l-7.9,1.5 c-3,0.5-5.7,1.3-7.9,2.3c-2.2,1-4,2.2-5.4,3.6s-2.5,2.9-3.1,4.6c-0.7,1.6-1,3.4-1,5.2c0,1.8,0.3,3.2,0.8,4.3 c0.5,1.1,1.2,2,1.9,2.7c0.8,0.6,1.6,1,2.4,1.3C755.7,318.3,756.4,318.4,757,318.4L757,318.4z M795.3,319.6 c-3.8,2.6-6.9,4.5-9.4,5.7c-2.4,1.2-4.3,1.8-5.5,1.8c-1.5,0-2.7-1-3.7-3.1c-1-2-1.5-4.9-1.6-8.5c-2,2-4,3.7-6,5.2 c-2,1.5-4,2.7-5.9,3.6c-1.9,0.9-3.7,1.6-5.5,2.1c-1.7,0.4-3.2,0.7-4.7,0.7c-1.6,0-3.2-0.3-4.9-0.8c-1.7-0.5-3.2-1.4-4.6-2.5 c-1.3-1.2-2.4-2.6-3.3-4.5c-0.9-1.8-1.3-4-1.3-6.6c0-2.6,0.5-5.1,1.4-7.5c1-2.4,2.4-4.6,4.3-6.5c1.9-2,4.3-3.6,7.1-5.1 c2.8-1.5,6.1-2.6,9.8-3.3l13.7-2.7v-9.3c0-1.5-0.2-2.9-0.5-4.2c-0.4-1.3-1-2.5-1.8-3.4c-0.8-1-2-1.7-3.5-2.2 c-1.4-0.5-3.2-0.8-5.4-0.7c-1.4,0-2.8,0.3-4.2,0.7c-1.4,0.4-2.6,1.1-3.6,1.9c-1,0.8-1.8,1.8-2.4,2.9c-0.6,1.1-0.8,2.3-0.7,3.6 c0,0.4-0.4,0.9-1.4,1.4c-0.9,0.5-2.1,0.9-3.4,1.3c-1.3,0.4-2.6,0.7-3.9,0.9c-1.2,0.2-2.1,0.3-2.7,0.1l-0.9-2.6 c1-2.2,2.6-4.4,4.7-6.4c2.1-2,4.5-3.8,7.1-5.4c2.7-1.6,5.6-2.8,8.5-3.7c3-0.9,5.9-1.4,8.7-1.4c4.9,0,8.7,1.3,11.3,3.9 c2.7,2.5,4,6.1,4,10.7v37.6c0,1.9,0.2,3.2,0.7,4c0.5,0.8,1.1,1.2,1.9,1.2c0.6,0,1.4-0.1,2.4-0.3c1-0.2,2.4-0.7,4.1-1.5 L795.3,319.6z"></path> </g> </g> </svg> 