<?xml version="1.0" encoding="UTF-8" standalone="no"?>
<svg
   version="1.1"
   x="0px"
   y="0px"
   viewBox="0 0 358.64314 358.64306"
   xml:space="preserve"
   id="svg82"
   sodipodi:docname="bmw.svg"
   inkscape:version="1.1.1 (3bf5ae0d25, 2021-09-20)"
   width="358.64313"
   height="358.64307"
   xmlns:inkscape="http://www.inkscape.org/namespaces/inkscape"
   xmlns:sodipodi="http://sodipodi.sourceforge.net/DTD/sodipodi-0.dtd"
   xmlns="http://www.w3.org/2000/svg"
   xmlns:svg="http://www.w3.org/2000/svg"
   xmlns:rdf="http://www.w3.org/1999/02/22-rdf-syntax-ns#"
   xmlns:cc="http://creativecommons.org/ns#"
   xmlns:dc="http://purl.org/dc/elements/1.1/"><metadata
   id="metadata88"><rdf:RDF><cc:Work
       rdf:about=""><dc:format>image/svg+xml</dc:format><dc:type
         rdf:resource="http://purl.org/dc/dcmitype/StillImage" /></cc:Work></rdf:RDF></metadata><defs
   id="defs86">
					</defs><sodipodi:namedview
   pagecolor="#ffffff"
   bordercolor="#666666"
   borderopacity="1"
   objecttolerance="10"
   gridtolerance="10"
   guidetolerance="10"
   inkscape:pageopacity="0"
   inkscape:pageshadow="2"
   inkscape:window-width="3440"
   inkscape:window-height="1367"
   id="namedview84"
   showgrid="false"
   inkscape:zoom="0.52035019"
   inkscape:cx="-1081.9637"
   inkscape:cy="246.94908"
   inkscape:window-x="0"
   inkscape:window-y="0"
   inkscape:window-maximized="1"
   inkscape:current-layer="svg82"
   inkscape:document-rotation="0"
   inkscape:pagecheckerboard="0"
   fit-margin-top="0"
   fit-margin-left="0"
   fit-margin-right="0"
   fit-margin-bottom="0" />
<style
   type="text/css"
   id="style2">
	.st0{fill:#6F6F6F;}
</style>
<g
   inkscape:groupmode="layer"
   id="layer1"
   inkscape:label="CarIt"
   transform="translate(-783.51702)" /><g
   id="bmwlogo"
   transform="scale(1.0543444)">
			<g
   id="g1880">
				<path
   class="st0"
   d="M 170.07873,0 C 76.146851,0 0,76.146858 0,170.07872 c 0,93.93186 76.146851,170.07869 170.07873,170.07869 93.93189,0 170.07874,-76.14685 170.07874,-170.07869 C 340.15747,76.146881 264.01062,0 170.07873,0 Z m 159.01795,170.07872 c 0,87.8232 -71.19476,159.01796 -159.01794,159.01796 -87.823185,0 -159.017955,-71.19476 -159.017955,-159.01796 0,-87.823197 71.194763,-159.01796 159.017945,-159.01796 87.82318,0 159.01795,71.194771 159.01795,159.01796 z"
   id="path1867" />
				<path
   class="st0"
   d="m 170.07873,69.220619 v 5.530396 0 c 52.56389,0 95.32773,42.763855 95.32773,95.327725 h 5.5304 c 0,-55.70242 -45.1557,-100.858121 -100.85813,-100.858121 v 0 m 0,196.185811 c -52.56388,0 -95.327723,-42.76385 -95.327723,-95.3277 h -5.530388 c 0,55.7024 45.155731,100.8581 100.858111,100.8581"
   id="path1869" />
				<g
   id="g1874">
					<path
   id="W_61_-3"
   class="st0"
   d="m 252.50635,97.923752 c 2.30742,2.482158 5.63519,6.484198 7.50574,8.910228 l 34.44198,-21.864429 c -1.72107,-2.251289 -4.45731,-5.67012 -6.51214,-8.076088 l -21.80674,14.423584 -1.48568,1.283005 1.11224,-1.623375 9.62756,-19.222633 -6.80548,-6.805672 -19.22787,9.630188 -1.61991,1.107796 1.29003,-1.491974 14.43144,-21.801384 c -2.5376,-2.161552 -4.97632,-4.141075 -8.09134,-6.543152 l -21.86835,34.414162 c 2.77083,2.13475 6.42052,5.260956 8.74642,7.3909 l 20.5814,-10.679016 1.31681,-0.967651 -0.96769,1.318359 z" />
					<path
   id="M_61_-8"
   class="st0"
   d="m 174.3641,54.314133 9.40938,-21.076118 0.59954,-1.866768 -0.17023,1.950211 0.99035,28.165386 c 3.30028,0.314228 6.70928,0.77055 10.07409,1.32748 l -1.5311,-41.720078 c -4.70421,-0.519104 -9.38474,-0.891663 -14.06462,-1.089386 l -9.26712,23.008371 -0.32648,1.707191 -0.32646,-1.707191 -9.26712,-23.008371 c -4.67989,0.197723 -9.36041,0.570282 -14.06464,1.089386 l -1.53108,41.720078 c 3.36481,-0.556931 6.77379,-1.013252 10.07407,-1.32748 l 0.99037,-28.165386 -0.17023,-1.950211 0.59953,1.866768 9.40937,21.076118 z" />
					<path
   id="B_x5F_22d_61_-8"
   class="st0"
   d="M 98.245941,87.557503 C 103.68348,81.82753 106.77071,75.205635 101.32192,68.884384 98.361023,65.449402 93.3956,64.700043 89.268463,66.397293 l -0.408546,0.163078 0.134048,-0.359581 c 0.610718,-1.627174 0.997421,-6.82539 -3.434708,-10.418209 -2.158218,-1.749443 -4.865585,-2.396942 -7.612564,-2.118805 -5.106377,0.517036 -9.042435,4.007118 -19.744808,15.944614 -3.225407,3.597641 -7.926159,9.279976 -10.752739,12.962929 -7.17e-4,9.31e-4 29.387577,27.881641 29.387577,27.881641 9.765595,-10.796153 13.732865,-14.806262 21.409218,-22.895457 z m -38.34251,-6.81575 c 5.918331,-7.239586 12.210247,-13.805939 15.063984,-16.410034 0.90107,-0.822235 1.879951,-1.63533 3.069427,-1.963558 1.930466,-0.532722 3.922768,0.840717 4.372688,2.821018 0.45237,1.991058 -0.800179,3.876663 -2.185501,5.436989 -3.131432,3.527 -14.60582,15.538712 -14.60582,15.538712 0,0 -5.714877,-5.423005 -5.714778,-5.423127 z m 11.501827,10.914825 c 0,0 11.183052,-11.815903 14.826172,-15.599083 1.447922,-1.503593 2.378807,-2.408951 3.381271,-2.90181 1.288857,-0.633667 2.69574,-0.758308 3.956825,0.08181 1.238426,0.825035 1.813354,2.264565 1.499443,3.67881 -0.374306,1.686317 -1.746239,3.29821 -2.891937,4.526764 -1.540916,1.652359 -14.800888,15.842072 -14.819664,15.861855 z" />
				</g>
				<path
   class="st1"
   d="M 170.07945,69.221588 V 170.07951 H 69.221603 c 0,-55.74224 45.115607,-100.857922 100.857847,-100.857922 z"
   id="path1876" />
				<path
   class="st1"
   d="m 270.93738,170.07951 c 0,55.74225 -45.11568,100.85787 -100.85793,100.85787 V 170.07951 Z"
   id="path1878" />
			</g>
		</g>

<style
   type="text/css"
   id="style1865">
	.st0{fill:#6F6F6F;}
	.st1{fill:#0066B1;}
</style></svg>
