<?xml version="1.0" encoding="UTF-8" standalone="no"?>
<svg
   xmlns:dc="http://purl.org/dc/elements/1.1/"
   xmlns:cc="http://creativecommons.org/ns#"
   xmlns:rdf="http://www.w3.org/1999/02/22-rdf-syntax-ns#"
   xmlns:svg="http://www.w3.org/2000/svg"
   xmlns="http://www.w3.org/2000/svg"
   xmlns:xlink="http://www.w3.org/1999/xlink"
   xmlns:sodipodi="http://sodipodi.sourceforge.net/DTD/sodipodi-0.dtd"
   xmlns:inkscape="http://www.inkscape.org/namespaces/inkscape"
   version="1.1"
   x="0px"
   y="0px"
   viewBox="0 0 1142.1602 456.19009"
   xml:space="preserve"
   id="svg82"
   sodipodi:docname="new-bmw-carit.svg"
   inkscape:version="1.0.2 (e86c870879, 2021-01-15)"
   width="1142.1602"
   height="456.19009"><metadata
   id="metadata88"><rdf:RDF><cc:Work
       rdf:about=""><dc:format>image/svg+xml</dc:format><dc:type
         rdf:resource="http://purl.org/dc/dcmitype/StillImage" /><dc:title /></cc:Work></rdf:RDF></metadata><defs
   id="defs86">
	</defs><sodipodi:namedview
   pagecolor="#ffffff"
   bordercolor="#666666"
   borderopacity="1"
   objecttolerance="10"
   gridtolerance="10"
   guidetolerance="10"
   inkscape:pageopacity="0"
   inkscape:pageshadow="2"
   inkscape:window-width="1720"
   inkscape:window-height="1351"
   id="namedview84"
   showgrid="false"
   inkscape:zoom="0.52035019"
   inkscape:cx="403.0344"
   inkscape:cy="168.95396"
   inkscape:window-x="0"
   inkscape:window-y="0"
   inkscape:window-maximized="0"
   inkscape:current-layer="svg82"
   inkscape:document-rotation="0" />
<style
   type="text/css"
   id="style2">
	.st0{fill:#6F6F6F;}
</style>
<g
   inkscape:groupmode="layer"
   id="layer1"
   inkscape:label="CarIt" /><g
   id="g2017"><text
     xml:space="preserve"
     style="font-style:normal;font-weight:normal;font-size:89.8902px;line-height:1.25;font-family:sans-serif;letter-spacing:0px;word-spacing:0px;fill:#000000;fill-opacity:1;stroke:none;stroke-width:2.24724"
     x="-6.6715412"
     y="454.5661"
     id="text992"><tspan
       sodipodi:role="line"
       id="tspan990"
       x="-6.6715412"
       y="454.5661"
       style="font-style:normal;font-variant:normal;font-weight:normal;font-stretch:normal;font-size:89.8902px;font-family:'BMW Group';-inkscape-font-specification:'BMW Group, Normal';font-variant-ligatures:normal;font-variant-caps:normal;font-variant-numeric:normal;font-variant-east-asian:normal;fill:#9e9f9d;fill-opacity:1;stroke-width:2.24724">BMW Car IT</tspan></text><g
     id="BMW-5"
     transform="matrix(1.0543444,0,0,1.0543444,783.51702,0)">
			<g
   id="g1880">
				<path
   class="st0"
   d="M 170.07873,0 C 76.146851,0 0,76.146858 0,170.07872 c 0,93.93186 76.146851,170.07869 170.07873,170.07869 93.93189,0 170.07874,-76.14685 170.07874,-170.07869 C 340.15747,76.146881 264.01062,0 170.07873,0 Z m 159.01795,170.07872 c 0,87.8232 -71.19476,159.01796 -159.01794,159.01796 -87.823185,0 -159.017955,-71.19476 -159.017955,-159.01796 0,-87.823197 71.194763,-159.01796 159.017945,-159.01796 87.82318,0 159.01795,71.194771 159.01795,159.01796 z"
   id="path1867" />
				<path
   class="st0"
   d="m 170.07873,69.220619 v 5.530396 0 c 52.56389,0 95.32773,42.763855 95.32773,95.327725 h 5.5304 c 0,-55.70242 -45.1557,-100.858121 -100.85813,-100.858121 v 0 m 0,196.185811 c -52.56388,0 -95.327723,-42.76385 -95.327723,-95.3277 h -5.530388 c 0,55.7024 45.155731,100.8581 100.858111,100.8581"
   id="path1869" />
				<g
   id="g1874">
					<path
   id="W_61_-3"
   class="st0"
   d="m 252.50635,97.923752 c 2.30742,2.482158 5.63519,6.484198 7.50574,8.910228 l 34.44198,-21.864429 c -1.72107,-2.251289 -4.45731,-5.67012 -6.51214,-8.076088 l -21.80674,14.423584 -1.48568,1.283005 1.11224,-1.623375 9.62756,-19.222633 -6.80548,-6.805672 -19.22787,9.630188 -1.61991,1.107796 1.29003,-1.491974 14.43144,-21.801384 c -2.5376,-2.161552 -4.97632,-4.141075 -8.09134,-6.543152 l -21.86835,34.414162 c 2.77083,2.13475 6.42052,5.260956 8.74642,7.3909 l 20.5814,-10.679016 1.31681,-0.967651 -0.96769,1.318359 z" />
					<path
   id="M_61_-8"
   class="st0"
   d="m 174.3641,54.314133 9.40938,-21.076118 0.59954,-1.866768 -0.17023,1.950211 0.99035,28.165386 c 3.30028,0.314228 6.70928,0.77055 10.07409,1.32748 l -1.5311,-41.720078 c -4.70421,-0.519104 -9.38474,-0.891663 -14.06462,-1.089386 l -9.26712,23.008371 -0.32648,1.707191 -0.32646,-1.707191 -9.26712,-23.008371 c -4.67989,0.197723 -9.36041,0.570282 -14.06464,1.089386 l -1.53108,41.720078 c 3.36481,-0.556931 6.77379,-1.013252 10.07407,-1.32748 l 0.99037,-28.165386 -0.17023,-1.950211 0.59953,1.866768 9.40937,21.076118 z" />
					<path
   id="B_x5F_22d_61_-8"
   class="st0"
   d="M 98.245941,87.557503 C 103.68348,81.82753 106.77071,75.205635 101.32192,68.884384 98.361023,65.449402 93.3956,64.700043 89.268463,66.397293 l -0.408546,0.163078 0.134048,-0.359581 c 0.610718,-1.627174 0.997421,-6.82539 -3.434708,-10.418209 -2.158218,-1.749443 -4.865585,-2.396942 -7.612564,-2.118805 -5.106377,0.517036 -9.042435,4.007118 -19.744808,15.944614 -3.225407,3.597641 -7.926159,9.279976 -10.752739,12.962929 -7.17e-4,9.31e-4 29.387577,27.881641 29.387577,27.881641 9.765595,-10.796153 13.732865,-14.806262 21.409218,-22.895457 z m -38.34251,-6.81575 c 5.918331,-7.239586 12.210247,-13.805939 15.063984,-16.410034 0.90107,-0.822235 1.879951,-1.63533 3.069427,-1.963558 1.930466,-0.532722 3.922768,0.840717 4.372688,2.821018 0.45237,1.991058 -0.800179,3.876663 -2.185501,5.436989 -3.131432,3.527 -14.60582,15.538712 -14.60582,15.538712 0,0 -5.714877,-5.423005 -5.714778,-5.423127 z m 11.501827,10.914825 c 0,0 11.183052,-11.815903 14.826172,-15.599083 1.447922,-1.503593 2.378807,-2.408951 3.381271,-2.90181 1.288857,-0.633667 2.69574,-0.758308 3.956825,0.08181 1.238426,0.825035 1.813354,2.264565 1.499443,3.67881 -0.374306,1.686317 -1.746239,3.29821 -2.891937,4.526764 -1.540916,1.652359 -14.800888,15.842072 -14.819664,15.861855 z" />
				</g>
				<path
   class="st1"
   d="M 170.07945,69.221588 V 170.07951 H 69.221603 c 0,-55.74224 45.115607,-100.857922 100.857847,-100.857922 z"
   id="path1876" />
				<path
   class="st1"
   d="m 270.93738,170.07951 c 0,55.74225 -45.11568,100.85787 -100.85793,100.85787 V 170.07951 Z"
   id="path1878" />
			</g>
		</g><switch
     id="switch80">
<g
   id="BMW_Group"
   style="display:inline">
			<g
   id="g63">
				<g
   id="g59">
					<g
   id="g47">
						<polygon
   class="st0"
   points="356.46402,0 322.45004,0 357.04865,150.87413 392.72458,150.87413 420.77136,44.364681 447.3653,150.87413 482.74182,150.87413 519.39844,0 486.16284,0 463.39044,108.85947 437.5928,0 405.33789,0 378.65628,108.85947 "
   id="polygon41" />
						<polygon
   class="st0"
   points="191.67809,0.110477 147.9897,0.110477 147.9897,150.98703 178.68144,150.98703 178.68144,43.494766 214.45403,150.98703 241.13565,150.98703 276.71139,43.494766 276.71139,150.98703 307.59879,150.98703 307.59879,0.110477 264.88541,0.110477 228.52916,112.18877 "
   id="polygon43" />
						<path
   class="st0"
   d="m 37.439236,25.715851 h 34.400585 c 6.714256,0 11.829506,0.776819 15.343636,2.344362 5.800064,2.537386 8.704346,7.358091 8.704346,14.462118 0,5.862198 -1.89344,10.15921 -5.671356,12.891273 -3.648735,2.740078 -9.776947,4.111763 -18.376625,4.111763 H 37.439236 Z m 0,59.211441 h 34.014927 c 8.985336,0 15.699356,1.141655 20.130974,3.422379 5.795586,2.9991 8.695143,8.565514 8.695143,16.707499 0,6.77948 -1.826719,11.69681 -5.472151,14.75908 -4.431618,3.71015 -12.216354,5.56759 -23.353966,5.56759 H 37.439236 Z M 70.86364,150.98703 c 41.50381,0 62.25971,-15.11945 62.25971,-45.33948 0,-16.810949 -8.0794,-28.438719 -24.24127,-34.886831 12.96434,-6.249901 19.4471,-17.034149 19.4471,-32.345676 0,-13.416145 -5.30408,-23.485634 -15.92613,-30.190216 C 103.93373,2.816015 92.427658,0.110479 77.901322,0.110479 H 5.375434 V 150.98703 Z"
   id="path45" />
					</g>
					<g
   id="g57">
						<path
   class="st0"
   d="m 443.18774,277.71927 c 0,19.02051 5.01389,33.96719 15.04895,44.84479 10.81302,11.72888 26.944,17.59341 48.3812,17.59341 20.84335,0 36.61984,-5.41345 47.30386,-16.22623 10.94666,-11.00177 16.41413,-26.41345 16.41413,-46.21197 v -92.05063 h -32.64179 v 94.19583 c 0,22.14145 -10.26514,33.2168 -30.78601,33.2168 -20.71442,0 -31.08566,-11.07535 -31.08566,-33.2168 v -94.19583 h -32.63468 z"
   id="path49" />
						<path
   class="st0"
   d="m 386.26941,223.38275 c 7.04449,9.25253 10.55508,21.86075 10.55508,37.82489 0,17.44614 -4.23333,30.83707 -12.70288,40.15842 -7.03534,7.82095 -16.25995,11.71521 -27.66229,11.71521 -12.77435,0 -22.74036,-4.75498 -29.91147,-14.25144 -6.90637,-9.18817 -10.36181,-21.73654 -10.36181,-37.62219 0,-15.96414 3.45544,-28.57236 10.36181,-37.82489 7.23572,-9.57919 17.07254,-14.36195 29.52014,-14.36195 12.82975,0 22.90134,4.78276 30.20142,14.36195 m -82.45688,-20.21731 c -12.90115,13.92947 -19.35397,33.31811 -19.35397,58.12963 0,27.10383 7.72366,47.59263 23.16632,61.46695 12.83185,11.59995 29.61206,17.39545 50.33566,17.39545 23.06259,0 41.11579,-7.04297 54.14804,-21.11032 12.96338,-13.93866 19.45532,-33.17999 19.45532,-57.75208 0,-24.6826 -6.49194,-44.06677 -19.45532,-58.12963 -12.97238,-14.08126 -30.81836,-21.11953 -53.56341,-21.11953 -23.45392,0 -41.70511,7.03827 -54.73264,21.11953"
   id="path51" />
						<path
   class="st0"
   d="m 185.50603,211.26712 h 31.46873 c 8.66521,0 15.11119,1.52841 19.3495,4.58949 4.29912,3.13015 6.44928,8.27657 6.44928,15.44376 0,14.00771 -8.59849,21.00922 -25.79878,21.00922 h -31.46873 z m 0.75062,125.28156 v -58.82941 h 32.44844 l 27.45603,58.82941 h 36.55662 l -32.34707,-64.20585 c 17.71939,-8.21221 26.58026,-21.69506 26.58026,-40.45773 0,-13.16066 -3.38636,-23.58243 -10.1593,-31.2653 -8.67441,-9.96595 -22.22339,-14.95116 -40.66224,-14.95116 h -72.37283 v 150.88003 h 32.50009 z"
   id="path53" />
						<path
   class="st0"
   d="M 123.44283,200.81329 C 112.631,188.3062 95.947678,182.04591 73.40535,182.04591 c -23.069664,0 -41.114605,7.23625 -54.150444,21.69954 C 6.420596,217.94644 0,237.55168 0,262.57486 c 0,27.75263 7.725894,48.42575 23.163891,62.04672 11.667152,10.35742 26.752888,15.53589 45.257282,15.53589 20.129791,0 35.278707,-6.28784 45.442737,-18.86401 l 3.42312,15.25522 h 20.81815 V 256.7056 H 82.100266 v 23.65146 h 24.241514 v 6.93246 c 0,7.76086 -3.28758,14.07654 -9.873831,18.96063 -6.251503,4.56168 -14.201721,6.83112 -23.843124,6.83112 -12.578674,0 -22.252129,-4.28549 -29.031918,-12.89813 -6.907558,-8.64942 -10.358509,-21.16571 -10.358509,-37.51636 0,-16.80626 3.289944,-29.86581 9.871475,-39.18268 6.839668,-9.63905 16.547775,-14.4633 29.124092,-14.4633 17.527267,0 29.157575,9.14671 34.895635,27.46275 l 30.5892,-7.43422 C 134.4574,217.38951 129.7,207.97577 123.44283,200.81329"
   id="path55" />
					</g>
				</g>
				<path
   class="st0"
   d="m 618.75092,211.18233 h 31.65411 c 7.6958,0 13.74963,1.93382 18.18158,5.77203 4.43189,3.83232 6.64789,9.28146 6.64789,16.30737 0,7.10605 -2.40576,12.80857 -7.23493,17.11226 -4.6217,4.02793 -10.61895,6.04779 -17.97998,6.04779 h -31.26867 z m 0,125.28557 v -54.44077 h 34.59027 c 16.48895,0 29.71521,-4.26364 39.68353,-12.79678 10.42798,-8.92441 15.63672,-20.87622 15.63672,-35.86492 0,-14.78834 -4.52979,-26.48091 -13.58228,-35.0777 -9.05951,-8.46479 -21.64099,-12.69895 -37.7268,-12.69895 H 586.48615 V 336.4679 Z"
   id="path61" />
			</g>
			<g
   id="g65">
			</g>
			<g
   id="g67">
			</g>
			<g
   id="g69">
			</g>
			<g
   id="g71">
			</g>
			<g
   id="g73">
			</g>
			<g
   id="g75">
			</g>
		</g></switch></g>

<style
   type="text/css"
   id="style1865">
	.st0{fill:#6F6F6F;}
	.st1{fill:#0066B1;}
</style></svg>
