<svg xmlns="http://www.w3.org/2000/svg" width="191" height="40" viewBox="0 0 191 40">
    <defs>
        <linearGradient id="jagupliiqb" x1="100%" x2="7.458%" y1="73.613%" y2="38.811%">
            <stop offset="0%" stop-color="#8907EB"/>
            <stop offset="40.678%" stop-color="#0741E8"/>
            <stop offset="41.776%" stop-color="#2125B4"/>
            <stop offset="57.144%" stop-color="#0B3DE1"/>
            <stop offset="57.88%" stop-color="#0A8FFF"/>
            <stop offset="73.159%" stop-color="#0B8FFF"/>
            <stop offset="100%" stop-color="#08C1EE"/>
        </linearGradient>
        <linearGradient id="dpxshvxntc" x1="100%" x2="0%" y1="80.211%" y2="33.827%">
            <stop offset="0%" stop-color="#6735FF"/>
            <stop offset="38.51%" stop-color="#0693FF"/>
            <stop offset="38.809%" stop-color="#0D7FC4"/>
            <stop offset="42.414%" stop-color="#0D7FC4"/>
            <stop offset="42.668%" stop-color="#06CDE6"/>
            <stop offset="100%" stop-color="#08C0EE"/>
        </linearGradient>
        <filter id="m8apaxkmaa" width="106.8%" height="132.5%" x="-3.4%" y="-16.2%" filterUnits="objectBoundingBox">
            <feOffset dy="1" in="SourceAlpha" result="shadowOffsetOuter1"/>
            <feGaussianBlur in="shadowOffsetOuter1" result="shadowBlurOuter1" stdDeviation="1"/>
            <feColorMatrix in="shadowBlurOuter1" result="shadowMatrixOuter1" values="0 0 0 0 0 0 0 0 0 0 0 0 0 0 0 0 0 0 0.10485413 0"/>
            <feMerge>
                <feMergeNode in="shadowMatrixOuter1"/>
                <feMergeNode in="SourceGraphic"/>
            </feMerge>
        </filter>
    </defs>
    <g fill="none" fill-rule="evenodd">
        <g>
            <g>
                <g filter="url(#m8apaxkmaa)" transform="translate(-200 -30) translate(84) translate(116 30)">
                    <g>
                        <g>
                            <path fill="url(#jagupliiqb)" d="M11.058 16.08l3.77 2.69-3.945 2.82-4.236 3.021c1.651.838 3.262 1.815 4.82 2.943 1.856 1.345 3.647 2.909 5.34 4.707 1.692-1.793 3.477-3.362 5.339-4.707.74-.538 1.498-1.04 2.263-1.51l.328-.199 3.816 2.725c-3.652 1.909-6.79 4.536-9.797 8.127l-.187.226h-3.525c-4.308-5.203-8.85-8.42-14.808-10.365L0 26.482v-2.513l6.442-4.6 1.74-1.24 2.876-2.05z" transform="translate(0 1.538)"/>
                            <path fill="url(#dpxshvxntc)" d="M33.887 0v26.426c-.792.253-1.562.522-2.311.818l-.373.15-4.013-2.834-2.466-1.742-1.801-1.275L8.25 11.186 4.549 8.575v9.32L.012 21.1V.01l3.631 2.567 7.333 5.178 3.472 2.45 6.31 4.455 1.918 1.353 2.972 2.099 3.701 2.61V8.587l-3.701 2.611-2.902 2.043-3.801-2.683 3.978-2.812 7.333-5.178L33.887 0z" transform="translate(0 1.538)"/>
                        </g>
                        <g fill="#FFF" fill-rule="nonzero">
                            <path d="M7.645 16.923c1.428 0 2.62-.433 3.574-1.298.963-.827 1.452-1.952 1.47-3.374 0-.857-.237-1.651-.71-2.38-.507-.708-1.254-1.178-2.242-1.411v-.046c.523-.225.963-.477 1.32-.756.357-.263.63-.541.822-.835.373-.617.552-1.264.535-1.94 0-1.325-.452-2.39-1.357-3.194C10.16.89 8.82.485 7.035.47H0v16.453h7.645zm-.774-9.872H2.82v-4.7H6.87c1.025.014 1.778.236 2.26.665.492.458.738 1.018.738 1.68 0 .66-.246 1.21-.737 1.645-.483.474-1.236.71-2.26.71zm.102 7.522H2.82V9.402h4.153c1.002.015 1.735.271 2.2.767.463.504.696 1.11.696 1.818 0 .693-.233 1.29-.697 1.795-.464.511-1.197.775-2.199.79zm18.253 2.35v-6.77L30.546.47H27.71l-3.744 7.301-3.743-7.3h-2.836l5.32 9.681v6.771h2.52zm16.804 0V2.693h4.963V.47H34.305v2.223h4.963v14.23h2.762zm22.35 0v-2.358h-8.6v-4.83h7.34V7.523h-7.34V2.829h8.6V.47H53.102v16.453H64.38zm12.025 0c4.112-.046 6.212-1.66 6.302-4.842 0-1.18-.397-2.215-1.193-3.106-.805-.906-2.048-1.465-3.73-1.678-.853-.1-1.526-.187-2.019-.263-.886-.152-1.53-.426-1.932-.822-.402-.388-.603-.822-.603-1.302.016-.8.316-1.4.898-1.804.558-.388 1.256-.582 2.093-.582 1.616.03 3.097.456 4.443 1.279l1.514-2.079C80.528.62 78.588.046 76.356 0c-1.854.015-3.286.464-4.296 1.347-1.042.891-1.563 2.063-1.563 3.518 0 1.21.415 2.238 1.243 3.083.805.822 1.978 1.35 3.52 1.587.862.114 1.654.217 2.376.308 1.576.251 2.355.998 2.339 2.238-.033 1.515-1.215 2.288-3.545 2.318-1.97-.015-3.668-.567-5.096-1.655l-1.785 1.895c1.912 1.523 4.198 2.284 6.856 2.284zm14.386 0l1.395-3.679h6.889l1.407 3.68h2.902L96.783.47h-2.305l-6.601 16.453h2.914zm7.424-6.111h-5.17l2.561-7.051h.049l2.56 7.051zm13.956 6.111v-7.03h7.34V7.68h-7.34V2.829h8.6V.47h-11.278v16.453h2.678zm26.458 0v-2.358h-8.601v-4.83h7.341V7.523h-7.341V2.829h8.601V.47h-11.278v16.453h11.278z" transform="translate(0 1.538) translate(51.253 9.539)"/>
                        </g>
                    </g>
                </g>
            </g>
        </g>
    </g>
</svg>
