<?xml version="1.0" encoding="UTF-8" standalone="no"?>
<svg
   viewBox="0 0 1247.9373 1031.948"
   height="1031.948"
   width="1247.9373"
   xml:space="preserve"
   id="svg815"
   version="1.1"
   sodipodi:docname="Couldron_logo_SVG copia51.svg"
   inkscape:version="1.1 (c68e22c387, 2021-05-23)"
   xmlns:inkscape="http://www.inkscape.org/namespaces/inkscape"
   xmlns:sodipodi="http://sodipodi.sourceforge.net/DTD/sodipodi-0.dtd"
   xmlns="http://www.w3.org/2000/svg"
   xmlns:svg="http://www.w3.org/2000/svg"
   xmlns:rdf="http://www.w3.org/1999/02/22-rdf-syntax-ns#"
   xmlns:cc="http://creativecommons.org/ns#"
   xmlns:dc="http://purl.org/dc/elements/1.1/"><sodipodi:namedview
     id="namedview919"
     pagecolor="#ffffff"
     bordercolor="#666666"
     borderopacity="1.0"
     inkscape:pageshadow="2"
     inkscape:pageopacity="0.0"
     inkscape:pagecheckerboard="0"
     showgrid="false"
     inkscape:zoom="0.67521728"
     inkscape:cx="585.73738"
     inkscape:cy="515.38965"
     inkscape:window-width="1920"
     inkscape:window-height="986"
     inkscape:window-x="-11"
     inkscape:window-y="-11"
     inkscape:window-maximized="1"
     inkscape:current-layer="svg815"
     inkscape:lockguides="true" /><metadata
     id="metadata821"><rdf:RDF><cc:Work
         rdf:about=""><dc:format>image/svg+xml</dc:format><dc:type
           rdf:resource="http://purl.org/dc/dcmitype/StillImage" /></cc:Work></rdf:RDF></metadata><defs
     id="defs819"><clipPath
       id="clipPath911"
       clipPathUnits="userSpaceOnUse"><path
         id="path909"
         d="M 0,773.961 H 935.953 V 0 H 0 Z" /></clipPath><clipPath
       id="clipPath2805"
       clipPathUnits="userSpaceOnUse"><path
         id="path2803"
         d="m 260.023,495.171 h 86.095 v -64.273 h -86.095 z" /></clipPath><clipPath
       id="clipPath2821"
       clipPathUnits="userSpaceOnUse"><path
         id="path2819"
         d="m 275.462,437.161 h 3.588 v -1.59 h -3.588 z" /></clipPath><clipPath
       id="clipPath3649"
       clipPathUnits="userSpaceOnUse"><path
         id="path3647"
         d="m 329.92,515.49 h 6.78 v -20.339 h -6.78 z" /></clipPath><clipPath
       id="clipPath3665"
       clipPathUnits="userSpaceOnUse"><path
         id="path3663"
         d="m 319.081,515.49 h 7.095 v -19.991 h -7.095 z" /></clipPath><clipPath
       id="clipPath3685"
       clipPathUnits="userSpaceOnUse"><path
         id="path3683"
         d="m 306.945,532.109 h 41.394 v -10.706 h -41.394 z" /></clipPath></defs><g
     id="g7387"
     transform="translate(1.06444e-8,1.4810047)"><g
       clip-path="url(#clipPath911)"
       id="g907"
       transform="matrix(1.3333333,0,0,-1.3333333,5.286831,926.12364)"><g
         transform="matrix(5.0304411,0,0,5.3412055,467.34211,458.25596)"
         id="g2787"><path
           id="path2789"
           style="fill:#ffffff;fill-opacity:1;fill-rule:nonzero;stroke:none"
           d="m 0,0 c 17.771,0 32.171,-2.617 32.171,-5.86 0,-3.235 -14.4,-5.861 -32.171,-5.861 -17.762,0 -32.162,2.626 -32.162,5.861 0,3.243 14.4,5.86 32.162,5.86" /></g><g
         transform="matrix(5.0304411,0,0,5.3412055,629.17594,426.9549)"
         id="g2791"><path
           id="path2793"
           style="fill:#e6e6e6;fill-opacity:1;fill-rule:nonzero;stroke:none"
           d="m 0,0 c 0,-0.173 -0.046,-0.354 -0.127,-0.526 -5.879,1.398 -15.127,2.297 -25.53,2.297 -16.789,0 -30.581,-2.334 -32.034,-5.333 -4.171,0.982 -6.642,2.217 -6.642,3.562 0,3.243 14.4,5.86 32.162,5.86 C -14.4,5.86 0,3.243 0,0" /></g><g
         transform="matrix(5.0304411,0,0,5.3412055,467.34211,458.25596)"
         id="g2795"><g
           id="g4987"><path
             id="path2797"
             style="fill:#09060a;fill-opacity:1;fill-rule:nonzero;stroke:none"
             d="m 0,0 c 17.771,0 32.171,-2.617 32.171,-5.86 0,-3.235 -14.4,-5.86 -32.171,-5.86 -17.762,0 -32.162,2.625 -32.162,5.86 0,3.243 14.4,5.86 32.162,5.86 m 37.35,-46.217 c 13.791,16.29 1.463,31.299 -2.308,35.488 -0.154,0.171 -0.3,0.335 -0.427,0.471 -0.173,0.182 -0.128,0.455 0.054,0.618 1.944,1.662 1.727,3.199 1.727,4.18 0,5.124 -16.454,9.267 -36.742,9.267 -20.296,0 -36.74,-4.143 -36.74,-9.267 0,-0.873 0.054,-2.917 1.381,-3.898 0.199,-0.145 0.209,-0.427 0.045,-0.609 -2.426,-2.553 -17.861,-18.716 -3.026,-36.25 1.373,-1.627 1.6,-3.943 0.61,-5.833 -2.009,-3.798 -4.807,-9.775 -4.207,-11.683 0.072,-0.228 0.418,-0.291 0.963,-0.228 2.744,0.318 10.539,3.871 13.782,5.751 0.954,0.555 2.09,0.654 3.126,0.272 3.38,-1.244 11.901,-3.915 23.131,-3.997 h 1.245 c 11.22,0.091 19.751,2.762 23.131,3.997 1.026,0.391 2.171,0.283 3.116,-0.272 3.897,-2.262 14.327,-6.904 14.755,-5.532 0.59,1.917 -2.199,7.886 -4.207,11.692 -0.99,1.881 -0.773,4.206 0.591,5.833" /></g></g><g
         transform="matrix(5.0304411,0,0,5.3412055,-1067.2985,-2182.1929)"
         id="g2799"><g
           id="g2801" /><g
           id="g2813"><g
             style="opacity:0.210007"
             id="g2811"
             clip-path="url(#clipPath2805)"><g
               id="g2809"
               transform="translate(275.8618,495.1709)"><path
                 id="path2807"
                 style="fill:#ffffff;fill-opacity:1;fill-rule:nonzero;stroke:none"
                 d="m 0,0 c -4.934,-1.581 -7.877,-3.57 -7.877,-5.742 0,-0.872 0.054,-2.916 1.381,-3.898 0.199,-0.145 0.209,-0.426 0.045,-0.608 -2.426,-2.554 -17.861,-18.716 -3.026,-36.251 1.373,-1.626 1.6,-3.942 0.61,-5.832 -2.009,-3.798 -4.807,-9.776 -4.207,-11.684 0.072,-0.227 0.418,-0.291 0.963,-0.227 2.262,0.263 11.548,4.315 15.299,6.232 -2.371,-0.99 -10.309,-2.113 -10.382,-1.886 -0.6,1.908 2.215,6.493 4.222,10.291 0.991,1.889 0.764,4.206 -0.608,5.832 -14.836,17.535 0.6,33.697 3.025,36.251 0.163,0.181 0.155,0.462 -0.045,0.608 -1.327,0.981 -1.381,3.025 -1.381,3.897 0,1.054 0.7,2.072 1.981,3.017 m 69.329,-59.627 c -2.971,1.245 -6.205,2.808 -8.013,3.861 -0.945,0.554 -2.089,0.663 -3.116,0.273 -3.38,-1.236 -11.911,-3.906 -23.132,-3.997 h -1.244 c -11.229,0.081 -19.752,2.753 -23.131,3.997 -1.036,0.382 -4.222,1.52 -5.176,0.967 -1.081,-0.619 -12.981,-5.216 -14.707,-6.035 0.536,0.055 13.46,2.533 13.987,2.342 3.38,-1.244 11.901,-3.916 23.131,-3.997 h 1.245 c 11.22,0.091 19.751,2.762 23.131,3.997 1.026,0.391 2.171,0.281 3.116,-0.272 3.897,-2.263 14.327,-6.905 14.755,-5.533 0.263,0.854 -0.137,2.499 -0.846,4.397" /></g></g></g></g><g
         transform="matrix(5.0304411,0,0,5.3412055,-1067.2985,-2182.1929)"
         id="g2815"><g
           id="g2817" /><g
           id="g2829"><g
             style="opacity:0.210007"
             id="g2827"
             clip-path="url(#clipPath2821)"><g
               id="g2825"
               transform="translate(277.5327,436.6797)"><path
                 id="path2823"
                 style="fill:#ffffff;fill-opacity:1;fill-rule:nonzero;stroke:none"
                 d="m 0,0 c -0.562,-0.327 -1.271,-0.709 -2.071,-1.108 1.19,0.49 2.425,1.045 3.589,1.589 C 0.99,0.437 0.473,0.281 0,0" /></g></g></g></g><g
         transform="matrix(5.0304411,0,0,5.3412055,629.17594,426.9549)"
         id="g2831"><path
           id="path2833"
           style="fill:none;stroke:#000000;stroke-width:2;stroke-linecap:butt;stroke-linejoin:miter;stroke-miterlimit:10;stroke-dasharray:none;stroke-opacity:1"
           d="m 0,0 c 0,-3.234 -14.4,-5.86 -32.171,-5.86 -17.762,0 -32.162,2.626 -32.162,5.86 0,3.243 14.4,5.86 32.162,5.86 C -14.4,5.86 0,3.243 0,0 Z" /></g><g
         transform="matrix(5.0304411,0,0,5.3412055,272.737,211.40255)"
         id="g2835"><path
           id="path2837"
           style="fill:none;stroke:#000000;stroke-width:2;stroke-linecap:butt;stroke-linejoin:miter;stroke-miterlimit:10;stroke-dasharray:none;stroke-opacity:1"
           d="m 0,0 c 1.372,-1.627 1.6,-3.943 0.609,-5.833 -2.008,-3.798 -4.806,-9.775 -4.207,-11.684 0.427,-1.38 10.858,3.271 14.745,5.524 0.955,0.555 2.09,0.654 3.126,0.272 3.38,-1.244 11.902,-3.915 23.131,-3.997 h 1.245 c 11.22,0.091 19.751,2.762 23.131,3.997 1.027,0.391 2.171,0.283 3.116,-0.272 3.898,-2.262 14.328,-6.904 14.755,-5.532 0.59,1.917 -2.199,7.885 -4.207,11.692 -0.99,1.881 -0.772,4.206 0.591,5.833 14.373,16.98 0.372,32.57 -2.734,35.959 -0.173,0.182 -0.128,0.454 0.053,0.618 1.945,1.662 1.727,3.198 1.727,4.179 0,5.125 -16.453,9.267 -36.741,9.267 C 18.044,50.023 1.6,45.881 1.6,40.756 1.6,39.884 1.653,37.84 2.98,36.858 3.18,36.714 3.189,36.432 3.025,36.25 0.6,33.697 -14.836,17.534 0,0 Z" /></g><g
         transform="matrix(5.0304411,0,0,5.3412055,612.83707,568.11602)"
         id="g3639"><path
           id="path3641"
           style="fill:#09060a;fill-opacity:1;fill-rule:nonzero;stroke:none"
           d="m 0,0 c 0,0 5.58,-3.833 1.891,-11.447 -3.69,-7.614 -4.773,-8.34 -4.773,-8.34 h -7.205 C -20.472,-6.501 -13.041,0 -13.041,0 v 0.02 c 1.349,-0.041 2.841,0.205 4.456,0.91 l 2.064,-2.382 c 0.072,-0.071 0.195,-0.071 0.256,0 L -4.139,0.93 C -2.657,0.286 -1.268,0.02 0,0.01 Z" /></g><g
         transform="matrix(5.0304411,0,0,5.3412055,-1067.2985,-2182.1929)"
         id="g3643"><g
           id="g3645" /><g
           id="g3657"><g
             style="opacity:0.210007"
             id="g3655"
             clip-path="url(#clipPath3649)"><g
               id="g3653"
               transform="translate(335.439,503.4912)"><path
                 id="path3651"
                 style="fill:#ffffff;fill-opacity:1;fill-rule:nonzero;stroke:none"
                 d="m 0,0 c -3.689,-7.614 -4.772,-8.34 -4.772,-8.34 h -0.747 c 0.747,1.175 1.901,3.23 3.649,6.837 3.689,7.614 -1.451,11.642 -1.451,11.642 l -0.256,0.275 -1.482,1.584 c 1.124,-0.367 2.177,-0.531 3.168,-0.541 v -0.011 c 0,0 5.58,-3.832 1.891,-11.446" /></g></g></g></g><g
         transform="matrix(5.0304411,0,0,5.3412055,-1067.2985,-2182.1929)"
         id="g3659"><g
           id="g3661" /><g
           id="g3673"><g
             style="opacity:0.210007"
             id="g3671"
             clip-path="url(#clipPath3665)"><g
               id="g3669"
               transform="translate(326.1763,495.4981)"><path
                 id="path3667"
                 style="fill:#ffffff;fill-opacity:1;fill-rule:nonzero;stroke:none"
                 d="m 0,0 h -1.563 c -10.384,13.297 -2.964,19.787 -2.964,19.787 v 0.021 c 0.674,-0.021 1.38,0.03 2.115,0.183 C -3.659,18.571 -8.748,11.539 0,0" /></g></g></g></g><g
         transform="matrix(5.0304411,0,0,5.3412055,683.78893,658.67617)"
         id="g3675"><path
           id="path3677"
           style="fill:#09060a;fill-opacity:1;fill-rule:nonzero;stroke:none"
           d="m 0,0 c 0,0 2.3,-4.129 -7.287,-5.406 0,0 0.082,-0.092 0.225,-0.256 2.667,-3.239 1.583,-8.146 -2.147,-10.077 -1.298,-0.675 -2.964,-1.227 -4.895,-1.206 -1.268,0.009 -2.658,0.276 -4.139,0.92 l 0.705,0.787 c 0.092,0.101 0.02,0.265 -0.123,0.275 -0.675,0.021 -2.085,0.409 -2.678,3.036 h -0.153 c 0,0 -1.186,-2.892 -2.79,-3.025 -0.133,-0.011 -0.184,-0.174 -0.103,-0.277 l 0.696,-0.796 c -1.616,-0.705 -3.108,-0.951 -4.457,-0.911 -1.798,0.032 -3.341,0.563 -4.568,1.197 -3.73,1.931 -4.814,6.838 -2.137,10.077 0.134,0.164 0.215,0.256 0.215,0.256 -9.576,1.277 -7.276,5.406 -7.276,5.406 0,0 12.172,-3.28 15.453,-3.914 2.76,-0.542 4.415,-3.107 4.875,-3.895 0.051,-0.101 0.194,-0.101 0.256,0 0.449,0.788 2.105,3.353 4.864,3.895 C -12.183,-3.28 0,0 0,0" /></g><g
         transform="matrix(5.0304411,0,0,5.3412055,-1067.2985,-2182.1929)"
         id="g3679"><g
           id="g3681" /><g
           id="g3693"><g
             style="opacity:0.210007"
             id="g3691"
             clip-path="url(#clipPath3685)"><g
               id="g3689"
               transform="translate(347.4849,529.124)"><path
                 id="path3687"
                 style="fill:#ffffff;fill-opacity:1;fill-rule:nonzero;stroke:none"
                 d="m 0,0 c -2.515,-0.674 -12.009,-3.188 -14.851,-3.74 -2.759,-0.552 -4.415,-3.108 -4.865,-3.905 -0.06,-0.102 -0.204,-0.102 -0.255,0 -0.46,0.797 -2.116,3.353 -4.875,3.905 -2.841,0.552 -12.336,3.066 -14.841,3.74 -1.451,1.472 -0.613,2.984 -0.613,2.984 0,0 12.173,-3.291 15.454,-3.924 2.759,-0.541 4.415,-3.097 4.875,-3.884 0.051,-0.102 0.195,-0.102 0.255,0 0.45,0.787 2.106,3.343 4.865,3.884 3.282,0.633 15.464,3.924 15.464,3.924 C 0.613,2.984 1.451,1.472 0,0" /></g></g></g></g><g
         transform="matrix(5.0304411,0,0,5.3412055,583.17004,577.93744)"
         id="g3695"><path
           id="path3697"
           style="fill:#ff7700;fill-opacity:1;fill-rule:nonzero;stroke:none"
           d="m 0,0 c 0.604,-0.367 1.187,-0.674 1.759,-0.909 l -2.126,-2.382 c -0.062,-0.071 -0.185,-0.071 -0.256,0 l -2.065,2.382 C -2.115,-0.674 -1.522,-0.367 -0.919,0 -0.633,0.174 -0.275,0.174 0,0" /></g><g
         transform="matrix(5.0304411,0,0,5.3412055,592.01758,573.0812)"
         id="g3699"><path
           id="path3701"
           style="fill:#ff7700;fill-opacity:1;fill-rule:nonzero;stroke:none"
           d="m 0,0 c -0.572,0.235 -1.155,0.542 -1.759,0.909 -0.275,0.174 -0.633,0.174 -0.919,0 C -3.281,0.542 -3.874,0.235 -4.446,0 l -0.696,0.797 c -0.081,0.102 -0.03,0.265 0.103,0.276 1.604,0.133 2.79,3.026 2.79,3.026 h 0.153 C -1.503,1.472 -0.093,1.083 0.582,1.062 0.726,1.053 0.797,0.889 0.705,0.787 Z" /></g><g
         transform="matrix(5.0304411,0,0,5.3412055,592.01758,573.0812)"
         id="g3703"><path
           id="path3705"
           style="fill:none;stroke:#000000;stroke-width:2;stroke-linecap:butt;stroke-linejoin:miter;stroke-miterlimit:10;stroke-dasharray:none;stroke-opacity:1"
           d="m 0,0 c 1.481,-0.644 2.871,-0.91 4.139,-0.92 1.931,-0.02 3.597,0.531 4.895,1.206 3.731,1.932 4.815,6.838 2.147,10.077 -0.143,0.164 0,0 0,0 9.587,1.278 7.062,5.662 7.062,5.662 0,0 -12.182,-3.28 -15.464,-3.914 -2.758,-0.542 -4.415,-3.107 -4.864,-3.894 -0.061,-0.102 -0.205,-0.102 -0.256,0 -0.46,0.787 -2.115,3.352 -4.875,3.894 -3.281,0.634 -15.453,3.914 -15.453,3.914 0,0 -2.515,-4.384 7.062,-5.662 0,0 0.133,0.164 0,0 -2.678,-3.239 -1.594,-8.145 2.136,-10.077 1.227,-0.634 2.77,-1.165 4.569,-1.196 1.348,-0.04 2.84,0.205 4.456,0.91" /></g><g
         transform="matrix(5.0304411,0,0,5.3412055,547.23508,568.11602)"
         id="g3707"><path
           id="path3709"
           style="fill:none;stroke:#000000;stroke-width:2;stroke-linecap:butt;stroke-linejoin:miter;stroke-miterlimit:10;stroke-dasharray:none;stroke-opacity:1"
           d="m 0,0 c 0,0 -7.431,-6.501 2.954,-19.787 h 7.205 c 0,0 1.083,0.726 4.773,8.34 C 18.621,-3.833 13.041,0 13.041,0" /></g><g
         transform="matrix(5.0304411,0,0,5.3412055,569.32677,462.00123)"
         id="g3711"><path
           id="path3713"
           style="fill:#ff7700;fill-opacity:1;fill-rule:nonzero;stroke:none"
           d="m 0,0 c 0,-0.592 -0.56,-1.072 -1.25,-1.072 -0.69,0 -1.25,0.48 -1.25,1.072 0,0.593 0.56,1.073 1.25,1.073 C -0.56,1.073 0,0.593 0,0" /></g><g
         transform="matrix(5.0304411,0,0,5.3412055,581.89785,462.00123)"
         id="g3715"><path
           id="path3717"
           style="fill:#ff7700;fill-opacity:1;fill-rule:nonzero;stroke:none"
           d="m 0,0 c 0,-0.592 -0.56,-1.072 -1.25,-1.072 -0.689,0 -1.249,0.48 -1.249,1.072 0,0.593 0.56,1.073 1.249,1.073 C -0.56,1.073 0,0.593 0,0" /></g><g
         transform="matrix(5.0304411,0,0,5.3412055,556.75066,462.42906)"
         id="g3719"><path
           id="path3721"
           style="fill:#ff7700;fill-opacity:1;fill-rule:nonzero;stroke:none"
           d="m 0,0 c 0,-0.593 -0.559,-1.073 -1.249,-1.073 -0.69,0 -1.25,0.48 -1.25,1.073 0,0.593 0.56,1.073 1.25,1.073 C -0.559,1.073 0,0.593 0,0" /></g><g
         transform="matrix(5.0304411,0,0,5.3412055,613.8834,461.78757)"
         id="g3723"><path
           id="path3725"
           style="fill:#ff7700;fill-opacity:1;fill-rule:nonzero;stroke:none"
           d="m 0,0 c 0,-0.592 -0.56,-1.072 -1.25,-1.072 -0.689,0 -1.249,0.48 -1.249,1.072 0,0.593 0.56,1.073 1.249,1.073 C -0.56,1.073 0,0.593 0,0" /></g><g
         transform="matrix(5.0304411,0,0,5.3412055,626.45447,461.78757)"
         id="g3727"><path
           id="path3729"
           style="fill:#ff7700;fill-opacity:1;fill-rule:nonzero;stroke:none"
           d="m 0,0 c 0,-0.592 -0.56,-1.072 -1.25,-1.072 -0.689,0 -1.249,0.48 -1.249,1.072 0,0.593 0.56,1.073 1.249,1.073 C -0.56,1.073 0,0.593 0,0" /></g><g
         transform="matrix(5.0304411,0,0,5.3412055,601.31232,462.21488)"
         id="g3731"><path
           id="path3733"
           style="fill:#ff7700;fill-opacity:1;fill-rule:nonzero;stroke:none"
           d="m 0,0 c 0,-0.593 -0.56,-1.073 -1.25,-1.073 -0.69,0 -1.249,0.48 -1.249,1.073 0,0.593 0.559,1.073 1.249,1.073 C -0.56,1.073 0,0.593 0,0" /></g><g
         transform="matrix(5.0304411,0,0,5.3412055,566.85582,602.72384)"
         id="g3735"><path
           id="path3737"
           style="fill:#ffffff;fill-opacity:1;fill-rule:nonzero;stroke:none"
           d="m 0,0 c 0,-2.257 -2.28,-4.086 -5.093,-4.086 -2.811,0 -5.092,1.829 -5.092,4.086 0,2.258 2.281,4.087 5.092,4.087 C -2.28,4.087 0,2.258 0,0" /></g><g
         transform="matrix(5.0304411,0,0,5.3412055,559.81572,603.04217)"
         id="g3739"><path
           id="path3741"
           style="fill:#09060a;fill-opacity:1;fill-rule:nonzero;stroke:none"
           d="m 0,0 c 0,-1.764 -1.563,-3.193 -3.492,-3.193 -1.928,0 -3.491,1.429 -3.491,3.193 0,1.764 1.563,3.194 3.491,3.194 C -1.563,3.194 0,1.764 0,0" /></g><g
         transform="matrix(5.0304411,0,0,5.3412055,544.65597,604.6018)"
         id="g3743"><path
           id="path3745"
           style="fill:#ffffff;fill-opacity:1;fill-rule:nonzero;stroke:none"
           d="m 0,0 c 0,-0.89 -0.63,-1.611 -1.406,-1.611 -0.778,0 -1.407,0.721 -1.407,1.611 0,0.89 0.629,1.611 1.407,1.611 C -0.63,1.611 0,0.89 0,0" /></g><g
         transform="matrix(5.0304411,0,0,5.3412055,641.80637,602.72384)"
         id="g3747"><path
           id="path3749"
           style="fill:#ffffff;fill-opacity:1;fill-rule:nonzero;stroke:none"
           d="m 0,0 c 0,-2.257 -2.28,-4.086 -5.093,-4.086 -2.811,0 -5.092,1.829 -5.092,4.086 0,2.258 2.281,4.087 5.092,4.087 C -2.28,4.087 0,2.258 0,0" /></g><g
         transform="matrix(5.0304411,0,0,5.3412055,634.42268,603.61295)"
         id="g3751"><path
           id="path3753"
           style="fill:#09060a;fill-opacity:1;fill-rule:nonzero;stroke:none"
           d="m 0,0 c 0,-1.764 -1.563,-3.194 -3.492,-3.194 -1.929,0 -3.492,1.43 -3.492,3.194 0,1.764 1.563,3.194 3.492,3.194 C -1.563,3.194 0,1.764 0,0" /></g><g
         transform="matrix(5.0304411,0,0,5.3412055,619.60652,604.6018)"
         id="g3755"><path
           id="path3757"
           style="fill:#ffffff;fill-opacity:1;fill-rule:nonzero;stroke:none"
           d="m 0,0 c 0,-0.89 -0.63,-1.611 -1.406,-1.611 -0.778,0 -1.407,0.721 -1.407,1.611 0,0.89 0.629,1.611 1.407,1.611 C -0.63,1.611 0,0.89 0,0" /></g></g></g><g
     id="g7307"
     transform="translate(28.582105)"><g
       aria-label="Cauldron"
       transform="scale(0.9647562,1.0365313)"
       id="text2345"
       style="font-size:188.282px;line-height:1.25;stroke-width:4.70704"><path
         d="m 320.87761,915.76375 q -5.0564,2.20643 -9.19345,4.13706 -4.04512,1.93063 -10.66441,4.04512 -5.60801,1.74676 -12.2273,2.94191 -6.52736,1.28708 -14.43373,1.28708 -14.8934,0 -27.1207,-4.13705 -12.13536,-4.22899 -21.14495,-13.14665 -8.82572,-8.73378 -13.79018,-22.15623 -4.96447,-13.51438 -4.96447,-31.34969 0,-16.91596 4.7806,-30.24647 4.7806,-13.33051 13.79018,-22.52397 8.73379,-8.91765 21.05302,-13.60632 12.41117,-4.68866 27.48844,-4.68866 11.03214,0 21.97236,2.6661 11.03215,2.66611 24.45459,9.37733 v 21.60462 h -1.37901 q -11.30796,-9.46926 -22.43204,-13.79018 -11.12408,-4.32093 -23.81105,-4.32093 -10.38861,0 -18.75466,3.40158 -8.27411,3.30965 -14.80146,10.38861 -6.34349,6.89509 -9.92893,17.46757 -3.49352,10.48054 -3.49352,24.27072 0,14.43373 3.86125,24.82234 3.95319,10.3886 10.11281,16.91596 6.43542,6.80316 14.98533,10.1128 8.64185,3.21771 18.20305,3.21771 13.14664,0 24.63846,-4.50479 11.49182,-4.5048 21.51269,-13.51439 h 1.28708 z"
         id="path460" /><path
         d="m 425.03948,925.69269 h -17.19177 v -10.94022 q -2.29836,1.56289 -6.25155,4.41286 -3.86125,2.75804 -7.53863,4.41286 -4.32093,2.1145 -9.92894,3.49352 -5.608,1.47095 -13.14664,1.47095 -13.88212,0 -23.53525,-9.19346 -9.65313,-9.19345 -9.65313,-23.44331 0,-11.67569 4.96447,-18.84659 5.0564,-7.26283 14.34179,-11.39989 9.37733,-4.13705 22.52397,-5.608 13.14664,-1.47096 28.22391,-2.20643 v -2.66611 q 0,-5.88381 -2.11449,-9.74506 -2.02256,-3.86125 -5.88381,-6.06768 -3.67739,-2.1145 -8.82572,-2.84997 -5.14834,-0.73548 -10.75635,-0.73548 -6.80316,0 -15.1692,1.83869 -8.36605,1.74676 -17.2837,5.14834 h -0.91935 V 825.2082 q 5.0564,-1.37901 14.6176,-3.03384 9.5612,-1.65482 18.84659,-1.65482 10.84828,0 18.84658,1.83869 8.09025,1.74676 13.97406,6.06768 5.79188,4.22899 8.82572,10.94022 3.03384,6.71122 3.03384,16.64015 z m -17.19177,-25.28201 v -28.59165 q -7.90637,0.45967 -18.66271,1.37902 -10.66441,0.91934 -16.91597,2.6661 -7.4467,2.1145 -12.04342,6.61929 -4.59673,4.41286 -4.59673,12.2273 0,8.82572 5.3322,13.33051 5.33221,4.41286 16.27242,4.41286 9.10152,0 16.64016,-3.49351 7.53863,-3.58545 13.97405,-8.54992 z"
         id="path462" /><path
         d="m 543.45121,925.69269 h -17.2837 V 914.2928 q -8.73378,6.89509 -16.73209,10.57248 -7.99831,3.67738 -17.65144,3.67738 -16.18048,0 -25.19007,-9.837 -9.00959,-9.92893 -9.00959,-29.05132 v -66.65257 h 17.2837 v 58.47039 q 0,7.81444 0.73548,13.42245 0.73548,5.51607 3.12577,9.46926 2.48224,4.04512 6.43542,5.88381 3.95319,1.83869 11.49183,1.83869 6.71122,0 14.61759,-3.49351 7.99831,-3.49352 14.8934,-8.91766 v -76.67343 h 17.2837 z"
         id="path464" /><path
         d="M 594.93455,925.69269 H 577.65086 V 782.6425 h 17.28369 z"
         id="path466" /><path
         d="m 712.42694,925.69269 h -17.2837 v -10.75635 q -7.4467,6.43542 -15.53694,10.02087 -8.09024,3.58545 -17.5595,3.58545 -18.38692,0 -29.23519,-14.15792 -10.75635,-14.15793 -10.75635,-39.25607 0,-13.0547 3.67738,-23.25944 3.76932,-10.20474 10.11281,-17.37563 6.25155,-6.98703 14.52566,-10.66441 8.36604,-3.67739 17.2837,-3.67739 8.09024,0 14.34179,1.74676 6.25155,1.65482 13.14664,5.24027 V 782.6425 h 17.2837 z m -17.2837,-25.28201 v -58.93006 q -6.98702,-3.12577 -12.5031,-4.32092 -5.51607,-1.19515 -12.04343,-1.19515 -14.52566,0 -22.6159,10.1128 -8.09024,10.1128 -8.09024,28.68359 0,18.29498 6.25155,27.85617 6.25155,9.46926 20.04173,9.46926 7.35477,0 14.8934,-3.21771 7.53864,-3.30964 14.06599,-8.45798 z"
         id="path468" /><path
         d="m 810.52112,841.84836 h -0.91935 q -3.86125,-0.91934 -7.53863,-1.28708 -3.58545,-0.45968 -8.54992,-0.45968 -7.9983,0 -15.445,3.58545 -7.4467,3.49352 -14.3418,9.10152 v 72.90412 H 746.44273 V 823.00177 h 17.28369 v 15.16921 q 10.29668,-8.27411 18.11111,-11.67569 7.90638,-3.49352 16.08855,-3.49352 4.5048,0 6.52736,0.27581 2.02256,0.18387 6.06768,0.82741 z"
         id="path470" /><path
         d="m 914.31526,874.3932 q 0,25.09814 -12.87083,39.6238 -12.87084,14.52566 -34.47547,14.52566 -21.78849,0 -34.65933,-14.52566 -12.77891,-14.52566 -12.77891,-39.6238 0,-25.09814 12.77891,-39.6238 12.87084,-14.6176 34.65933,-14.6176 21.60463,0 34.47547,14.6176 12.87083,14.52566 12.87083,39.6238 z m -17.8353,0 q 0,-19.9498 -7.81444,-29.60293 -7.81444,-9.74507 -21.69656,-9.74507 -14.06599,0 -21.88043,9.74507 -7.7225,9.65313 -7.7225,29.60293 0,19.30626 7.81444,29.32713 7.81444,9.92893 21.78849,9.92893 13.79019,0 21.60463,-9.837 7.90637,-9.92893 7.90637,-29.41906 z"
         id="path472" /><path
         d="m 1026.9351,925.69269 h -17.2837 V 867.2223 q 0,-7.07896 -0.8274,-13.23858 -0.8274,-6.25155 -3.0339,-9.74506 -2.2983,-3.86125 -6.61924,-5.69994 -4.32092,-1.93063 -11.21602,-1.93063 -7.07896,0 -14.80146,3.49351 -7.72251,3.49352 -14.80147,8.91766 v 76.67343 h -17.2837 V 823.00177 h 17.2837 v 11.39989 q 8.09024,-6.71122 16.73209,-10.48054 8.64185,-3.76932 17.74338,-3.76932 16.64012,0 25.37392,10.02087 8.7338,10.02087 8.7338,28.86746 z"
         id="path474" /></g></g></svg>
