<svg xmlns="http://www.w3.org/2000/svg" role="img" viewBox="-15.82 -6.82 1030.64 315.64"><title>Core Infrastructure Initiative logo</title><style>svg {enable-background:new 0 0 1000 302.63}</style><style>.st146{fill:#133c63}.st147{fill:#3b91cf}</style><g id="XMLID_408_"><path id="XMLID_539_" d="M235.96 245.97l-33.16-33.16c-34.59 34.46-90.47 34.46-125.06-.01-34.47-34.59-34.47-90.48-.01-125.06 34.59-34.47 90.48-34.47 125.07 0l33.17-33.17c-52.87-52.85-138.53-52.85-191.4 0-52.85 52.87-52.84 138.53 0 191.4 52.87 52.85 138.52 52.85 191.39 0z" class="st146"/><path id="XMLID_537_" d="M327.91 67.3c-5.52 6.5-12.38 9.62-21.28 9.62-7.93 0-13.18-2.49-16.65-6.14-5.88-5.97-7.12-15.59-7.12-24.94 0-10.24 1.51-19.68 7.3-25.74 3.83-4.1 9.62-6.77 18.44-6.77 6.59 0 13.63 1.51 18.52 6.77l-7.84 9.89c-3.12-2.94-7.21-4.1-11.13-4.1-4.45 0-6.77 1.51-8.02 3.47-1.51 2.4-2.32 6.68-2.32 16.21 0 9.35.8 13.54 2.67 16.03 1.25 1.69 3.21 2.94 6.68 2.94 4.72 0 8.91-2.32 12.29-6.15l8.46 8.91z" class="st146"/><path id="XMLID_513_" d="M377.51 70.33c-4.18 4.1-10.33 6.86-19.77 6.86-9.26 0-15.5-2.58-19.5-6.77-5.25-5.43-6.95-13.63-6.95-24.67 0-11.04 1.69-19.95 7.57-25.83 4.1-4.1 10.24-6.86 19.68-6.86s15.59 2.67 19.59 6.77c5.25 5.34 6.95 13.71 6.95 24.76 0 11.13-1.69 19.86-7.57 25.74zM366.56 28.2c-1.6-1.78-4.36-2.94-8.1-2.94-4.01 0-6.86 1.16-8.73 3.38-2.32 2.85-3.12 7.39-3.12 16.56 0 8.82.71 14.16 3.21 16.92 1.6 1.78 4.28 2.85 8.1 2.85 4.1 0 6.86-1.16 8.73-3.38 2.32-2.85 3.12-7.48 3.12-16.48 0-9.16-.8-14.23-3.21-16.91z" class="st146"/><path id="XMLID_510_" d="M419.99 14.4c5.7 0 10.69.89 14.43 3.29 4.01 2.58 6.77 6.68 6.77 14.25 0 8.46-3.38 14.87-11.58 17.01 7.75 1.42 10.06 8.99 11.93 26.9H426.4c-2.23-16.56-3.47-20.84-8.99-20.84h-8.1v20.84h-14.43V14.4h25.11zM409.3 42.9h6.5c6.86 0 10.42-1.51 10.42-9.26 0-2.94-.53-4.63-1.69-5.7-1.07-.98-2.67-1.25-5.34-1.25h-9.88V42.9z" class="st146"/><path id="XMLID_508_" d="M488.11 14.4v12.02H465.4v12.29h20.66v12.02H465.4v13.18h23.16v11.93h-37.23V14.4h36.78z" class="st146"/><path id="XMLID_506_" d="M299.77 121.26v61.45h-14.43v-61.45h14.43z" class="st147"/><path id="XMLID_504_" d="M330.23 121.26l19.59 41.95-.45-41.95h13.8v61.45h-18.26l-19.59-41.95.45 41.95h-13.8v-61.45h18.26z" class="st147"/><path id="XMLID_502_" d="M412.42 121.26v12.82h-22.53v12.74h20.57v12.73h-20.57v23.16h-14.43v-61.45h36.96z" class="st147"/><path id="XMLID_499_" d="M446.62 121.26c5.7 0 10.69.89 14.43 3.29 4.01 2.58 6.77 6.68 6.77 14.25 0 8.46-3.38 14.87-11.58 17.01 7.75 1.42 10.06 8.99 11.93 26.9h-15.14c-2.23-16.56-3.47-20.84-8.99-20.84h-8.1v20.84H421.5v-61.45h25.12zm-10.69 28.5h6.5c6.86 0 10.42-1.51 10.42-9.26 0-2.94-.53-4.63-1.69-5.7-1.07-.98-2.67-1.25-5.34-1.25h-9.88v16.21z" class="st147"/><path id="XMLID_496_" d="M512.34 182.71l-3.29-11.67h-19.5l-3.29 11.67h-14.69l19.33-61.45h17.28l19.33 61.45h-15.17zm-13.01-46.93l-6.68 23.78h13.36l-6.68-23.78z" class="st147"/><path id="XMLID_494_" d="M564.43 135.95c-3.74-2.58-9.17-3.56-12.91-3.56-4.37 0-7.21 1.16-7.21 5.97 0 9.35 28.23 3.83 28.23 26.09 0 7.13-3.38 12.11-7.75 15.05-4.18 2.85-9.97 4.28-15.94 4.28-6.5 0-15.32-1.6-20.31-6.14l7.12-10.6c4.01 3.21 9.97 4.54 14.61 4.54 4.18 0 7.66-1.07 7.66-6.41 0-10.6-28.23-4.54-28.23-26.45 0-6.5 2.85-10.69 6.95-13.71 4.45-3.3 9.88-4.81 16.03-4.81 5.88 0 13.8 1.43 18.52 5.34l-6.77 10.41z" class="st147"/><path id="XMLID_492_" d="M620.62 121.26v12.82h-15.76v48.63h-14.43v-48.63h-15.67v-12.82h45.86z" class="st147"/><path id="XMLID_489_" d="M652.59 121.26c5.7 0 10.69.89 14.43 3.29 4.01 2.58 6.77 6.68 6.77 14.25 0 8.46-3.38 14.87-11.58 17.01 7.75 1.42 10.06 8.99 11.93 26.9H659c-2.23-16.56-3.47-20.84-8.99-20.84h-8.1v20.84h-14.43v-61.45h25.11zm-10.69 28.5h6.5c6.86 0 10.42-1.51 10.42-9.26 0-2.94-.53-4.63-1.69-5.7-1.07-.98-2.67-1.25-5.34-1.25h-9.88v16.21z" class="st147"/><path id="XMLID_487_" d="M697.47 121.26v39.54c0 6.59.53 10.51 9.71 10.51 8.73 0 9.53-3.56 9.53-10.51v-39.54h14.43v39.36c0 5.79-.8 11.22-4.1 15.41-3.56 4.54-10.15 7.75-20.39 7.75-9.97 0-15.94-2.94-19.24-6.86-3.65-4.36-4.36-10.15-4.36-15.85v-39.81h14.42z" class="st147"/><path id="XMLID_485_" d="M785.98 174.16c-5.52 6.5-12.38 9.62-21.28 9.62-7.93 0-13.18-2.49-16.65-6.14-5.88-5.97-7.13-15.59-7.13-24.94 0-10.24 1.51-19.68 7.3-25.74 3.83-4.1 9.62-6.77 18.44-6.77 6.59 0 13.63 1.51 18.53 6.77l-7.84 9.89c-3.12-2.94-7.21-4.1-11.13-4.1-4.45 0-6.77 1.51-8.02 3.47-1.51 2.4-2.31 6.68-2.31 16.21 0 9.35.8 13.54 2.67 16.03 1.25 1.69 3.21 2.94 6.68 2.94 4.72 0 8.91-2.32 12.29-6.15l8.45 8.91z" class="st147"/><path id="XMLID_483_" d="M834.16 121.26v12.82H818.4v48.63h-14.43v-48.63H788.3v-12.82h45.86z" class="st147"/><path id="XMLID_481_" d="M855.44 121.26v39.54c0 6.59.53 10.51 9.71 10.51 8.73 0 9.53-3.56 9.53-10.51v-39.54h14.43v39.36c0 5.79-.8 11.22-4.1 15.41-3.56 4.54-10.15 7.75-20.39 7.75-9.97 0-15.94-2.94-19.24-6.86-3.65-4.36-4.36-10.15-4.36-15.85v-39.81h14.42z" class="st147"/><path id="XMLID_478_" d="M926.5 121.26c5.7 0 10.69.89 14.43 3.29 4.01 2.58 6.77 6.68 6.77 14.25 0 8.46-3.38 14.87-11.58 17.01 7.75 1.42 10.06 8.99 11.93 26.9h-15.14c-2.23-16.56-3.47-20.84-8.99-20.84h-8.1v20.84h-14.43v-61.45h25.11zm-10.68 28.5h6.5c6.86 0 10.42-1.51 10.42-9.26 0-2.94-.53-4.63-1.69-5.7-1.07-.98-2.67-1.25-5.34-1.25h-9.88v16.21z" class="st147"/><path id="XMLID_476_" d="M994.63 121.26v12.02h-22.71v12.29h20.66v12.02h-20.66v13.18h23.16v11.93h-37.23v-61.45h36.78z" class="st147"/><path id="XMLID_474_" d="M299.77 228.12v61.45h-14.43v-61.45h14.43z" class="st146"/><path id="XMLID_472_" d="M330.23 228.12l19.59 41.95-.45-41.95h13.8v61.45h-18.26l-19.59-41.95.45 41.95h-13.8v-61.45h18.26z" class="st146"/><path id="XMLID_449_" d="M389.89 228.12v61.45h-14.43v-61.45h14.43z" class="st146"/><path id="XMLID_447_" d="M442.52 228.12v12.82h-15.76v48.63h-14.43v-48.63h-15.67v-12.82h45.86z" class="st146"/><path id="XMLID_445_" d="M463.8 228.12v61.45h-14.43v-61.45h14.43z" class="st146"/><path id="XMLID_442_" d="M510.37 289.57l-3.29-11.67h-19.5l-3.29 11.67H469.6l19.33-61.45h17.28l19.33 61.45h-15.17zm-13-46.93l-6.68 23.78h13.36l-6.68-23.78z" class="st146"/><path id="XMLID_440_" d="M567.46 228.12v12.82H551.7v48.63h-14.43v-48.63H521.6v-12.82h45.86z" class="st146"/><path id="XMLID_438_" d="M588.74 228.12v61.45h-14.43v-61.45h14.43z" class="st146"/><path id="XMLID_436_" d="M610.38 228.12l12.2 45.24 12.02-45.24h15.14l-19.41 61.45h-16.12l-19.15-61.45h15.32z" class="st146"/><path id="XMLID_434_" d="M692.84 228.12v12.02h-22.71v12.29h20.66v12.02h-20.66v13.18h23.16v11.93h-37.23v-61.45h36.78z" class="st146"/><path id="XMLID_433_" d="M124.22 134.23c-8.86 8.86-8.86 23.23 0 32.09 8.86 8.86 23.23 8.86 32.09 0 8.86-8.86 8.86-23.23 0-32.09-8.87-8.86-23.23-8.86-32.09 0z" class="st146"/><path id="XMLID_409_" d="M61.47 150.28v-.12c0-20.05 7.76-40.3 23.07-55.6 15.33-15.34 35.64-23.1 55.72-23.08 20.08-.02 40.39 7.73 55.71 23.08l-33.17 33.16c-6.29-6.27-14.31-9.31-22.55-9.34-8.23.03-16.26 3.07-22.56 9.35-6.26 6.28-9.3 14.31-9.33 22.54.03 8.24 3.07 16.27 9.34 22.55 6.29 6.27 14.31 9.32 22.55 9.34 8.25-.02 16.26-3.07 22.54-9.33l33.18 33.15c-15.32 15.36-35.63 23.12-55.72 23.1-20.08.02-40.39-7.74-55.72-23.09-15.33-15.31-23.09-35.62-23.06-55.71zm101.34-22.55z" class="st147"/></g></svg>