<?xml version="1.0" encoding="UTF-8"?><svg id="Layer_2" xmlns="http://www.w3.org/2000/svg" viewBox="0 0 400 339.59"><defs><style>.cls-1{fill:#007965;}.cls-1,.cls-2{stroke-width:0px;}.cls-2{fill:#00af91;}</style></defs><g id="Layer_1-2"><path class="cls-1" d="m114.52,53.3c24.77-14.52,53.72-18.53,81.5-11.29,31.5,8.21,52.43,36.72,52.43,67.86,0,5.84-.74,11.77-2.28,17.68-6.63,25.44-32.73,40.74-58.17,34.11-17.9-4.67-28.79-22.75-24.73-40.66-1.11,1.71-1.99,3.61-2.54,5.69-2.87,11-1.23,22.46,4.61,32.23,5.27,8.81,18.15,17.5,28.17,19.75,20.25,4.55,41.16,1.09,58.99-9.86,18.41-11.31,31.13-29.91,36.08-50.94.07-.31.14-.62.22-.93,11.26-49.27-17.64-99.31-66.4-112.59C212.06,1.51,201.15,0,189.89,0c-48.32,0-90.15,27.74-110.46,68.16-2.94,5.86,4.91,11.08,9.28,6.19,7.35-8.21,16.02-15.32,25.8-21.06Z"/><path class="cls-2" d="m265.27,193.85c-24.77,14.53-53.72,18.54-81.5,11.29-18.12-4.72-33.32-16.22-42.79-32.38-9.47-16.15-12.09-35.03-7.36-53.16,6.63-25.44,32.72-40.74,58.16-34.11,8.84,2.31,16.26,7.92,20.88,15.8,4.45,7.6,5.77,16.42,3.8,24.97,1.15-1.76,2.04-3.71,2.59-5.8,5.86-22.45-7.65-45.47-30.09-51.32-42.4-11.05-85.89,14.44-96.94,56.84-.26,1-.51,2.01-.75,3.01-11.81,49.64,16.87,100.4,66.11,113.82,10.36,2.82,21.27,4.33,32.53,4.33,48.32,0,90.15-27.74,110.46-68.16,2.94-5.86-4.91-11.08-9.28-6.19-7.35,8.21-16.02,15.32-25.8,21.06Z"/><path class="cls-1" d="m53.99,333.58c-.92.74-2.37,1.58-4.34,2.54-1.97.95-4.29,1.79-6.97,2.49s-5.65,1.03-8.91.97c-5.23-.06-9.92-1-14.08-2.82-4.15-1.81-7.69-4.28-10.61-7.38-2.92-3.11-5.17-6.67-6.74-10.71-1.57-4.03-2.35-8.35-2.35-12.97,0-4.98.8-9.61,2.4-13.89,1.6-4.28,3.88-7.97,6.83-11.08,2.95-3.11,6.46-5.52,10.52-7.25,4.06-1.72,8.52-2.58,13.38-2.58,4.18,0,7.95.57,11.31,1.71,3.35,1.14,6.17,2.45,8.45,3.92l-4.24,10.06c-1.72-1.29-3.88-2.51-6.46-3.64-2.58-1.14-5.51-1.71-8.77-1.71-2.95,0-5.77.6-8.45,1.8-2.68,1.2-5.04,2.89-7.11,5.08-2.06,2.18-3.69,4.74-4.89,7.66-1.2,2.92-1.8,6.05-1.8,9.37s.54,6.66,1.62,9.64c1.07,2.99,2.61,5.55,4.61,7.71,2,2.15,4.38,3.82,7.15,4.98s5.91,1.75,9.41,1.75,6.57-.54,9.18-1.61,4.72-2.29,6.32-3.65l4.52,9.6Z"/><path class="cls-1" d="m77.99,314.66c0,2.65.69,5.06,2.08,7.25,1.38,2.19,3.21,3.95,5.49,5.31,2.27,1.35,4.83,2.03,7.66,2.03s5.6-.68,7.94-2.03,4.2-3.12,5.58-5.31c1.38-2.18,2.08-4.6,2.08-7.25v-43.01h10.52v43.19c0,4.92-1.17,9.25-3.51,12.97-2.34,3.72-5.49,6.61-9.46,8.68-3.97,2.06-8.35,3.09-13.15,3.09s-9.17-1.03-13.11-3.09c-3.94-2.06-7.08-4.95-9.41-8.68-2.34-3.72-3.51-8.04-3.51-12.97v-43.19h10.8v43.01Z"/><path class="cls-1" d="m155.7,271.65c3.69,0,7.06.49,10.11,1.48,3.05.99,5.66,2.39,7.85,4.2,2.18,1.82,3.86,4.05,5.03,6.69,1.17,2.65,1.75,5.72,1.75,9.23,0,2.65-.4,5.29-1.2,7.94-.8,2.65-2.11,5.05-3.92,7.2-1.82,2.15-4.2,3.88-7.15,5.17-2.95,1.29-6.59,1.94-10.89,1.94h-9.78v23.35h-10.8v-67.19h19.01Zm1.38,33.41c2.34,0,4.31-.37,5.91-1.11,1.6-.74,2.86-1.69,3.78-2.86.92-1.17,1.58-2.41,1.98-3.74.4-1.32.6-2.57.6-3.74,0-1.11-.18-2.32-.55-3.65-.37-1.32-1-2.6-1.89-3.83-.89-1.23-2.11-2.23-3.65-3-1.54-.77-3.48-1.15-5.81-1.15h-9.97v23.07h9.6Zm11.63,6.55l17.17,27.23h-12.55l-17.44-26.95,12.83-.28Z"/><path class="cls-1" d="m198.52,271.65h10.8v67.19h-10.8v-67.19Z"/><path class="cls-1" d="m223.63,305.34c0-4.62.89-9,2.68-13.15s4.25-7.83,7.38-11.03c3.14-3.2,6.77-5.71,10.89-7.52,4.12-1.81,8.58-2.72,13.38-2.72s9.09.91,13.24,2.72c4.15,1.82,7.83,4.32,11.03,7.52,3.2,3.2,5.69,6.88,7.48,11.03,1.78,4.15,2.68,8.54,2.68,13.15s-.89,9.17-2.68,13.29c-1.79,4.12-4.29,7.77-7.52,10.94-3.23,3.17-6.91,5.63-11.03,7.38-4.12,1.75-8.55,2.63-13.29,2.63s-9.17-.88-13.29-2.63c-4.12-1.75-7.75-4.18-10.89-7.29-3.14-3.11-5.6-6.74-7.38-10.89-1.78-4.15-2.68-8.63-2.68-13.43Zm11.08-.09c0,3.38.6,6.52,1.8,9.41,1.2,2.89,2.88,5.43,5.03,7.62,2.15,2.18,4.66,3.89,7.52,5.12s5.92,1.85,9.18,1.85,6.29-.61,9.09-1.85c2.8-1.23,5.23-2.94,7.29-5.12,2.06-2.18,3.69-4.72,4.89-7.62,1.2-2.89,1.8-6,1.8-9.32s-.62-6.52-1.85-9.41c-1.23-2.89-2.89-5.44-4.98-7.66-2.09-2.22-4.55-3.94-7.38-5.17-2.83-1.23-5.88-1.85-9.14-1.85s-6.31.63-9.14,1.89c-2.83,1.26-5.31,2.98-7.43,5.17-2.12,2.18-3.77,4.74-4.94,7.66-1.17,2.92-1.75,6.02-1.75,9.28Z"/><path class="cls-1" d="m341.95,285.41c-2.4-1.29-4.95-2.38-7.66-3.28-2.71-.89-5.29-1.34-7.75-1.34-3.32,0-5.94.74-7.85,2.22-1.91,1.48-2.86,3.51-2.86,6.09,0,1.85.66,3.46,1.98,4.85,1.32,1.39,3.03,2.59,5.12,3.6,2.09,1.02,4.31,1.98,6.64,2.91,2.03.74,4.03,1.61,6,2.63,1.97,1.02,3.77,2.25,5.4,3.69,1.63,1.45,2.92,3.29,3.88,5.54.95,2.25,1.43,4.94,1.43,8.08,0,3.57-.88,6.78-2.63,9.64-1.75,2.86-4.32,5.17-7.71,6.92-3.38,1.75-7.41,2.63-12.09,2.63-2.83,0-5.58-.31-8.26-.92s-5.21-1.45-7.61-2.49c-2.4-1.05-4.62-2.31-6.65-3.78l4.8-8.31c1.48,1.11,3.17,2.12,5.08,3.05,1.91.92,3.86,1.66,5.86,2.22,2,.55,3.92.83,5.77.83s3.74-.32,5.68-.97c1.94-.65,3.52-1.68,4.75-3.09s1.85-3.32,1.85-5.72c0-1.91-.55-3.52-1.66-4.85-1.11-1.32-2.54-2.49-4.29-3.51-1.75-1.02-3.68-1.92-5.77-2.72-2.03-.8-4.15-1.69-6.37-2.68s-4.26-2.2-6.14-3.65c-1.88-1.45-3.37-3.21-4.48-5.31-1.11-2.09-1.66-4.64-1.66-7.66,0-3.69.83-6.91,2.49-9.64,1.66-2.74,4.05-4.91,7.15-6.51,3.11-1.6,6.63-2.46,10.57-2.58,4.74,0,8.78.57,12.14,1.71,3.35,1.14,6.35,2.54,9,4.2l-4.15,8.21Z"/><path class="cls-1" d="m395.66,285.41c-2.4-1.29-4.95-2.38-7.66-3.28-2.71-.89-5.29-1.34-7.75-1.34-3.32,0-5.94.74-7.85,2.22-1.91,1.48-2.86,3.51-2.86,6.09,0,1.85.66,3.46,1.98,4.85,1.32,1.39,3.03,2.59,5.12,3.6,2.09,1.02,4.31,1.98,6.64,2.91,2.03.74,4.03,1.61,6,2.63,1.97,1.02,3.77,2.25,5.4,3.69,1.63,1.45,2.92,3.29,3.88,5.54.95,2.25,1.43,4.94,1.43,8.08,0,3.57-.88,6.78-2.63,9.64-1.75,2.86-4.32,5.17-7.71,6.92-3.38,1.75-7.41,2.63-12.09,2.63-2.83,0-5.58-.31-8.26-.92s-5.21-1.45-7.61-2.49c-2.4-1.05-4.62-2.31-6.65-3.78l4.8-8.31c1.48,1.11,3.17,2.12,5.08,3.05,1.91.92,3.86,1.66,5.86,2.22,2,.55,3.92.83,5.77.83s3.74-.32,5.68-.97c1.94-.65,3.52-1.68,4.75-3.09s1.85-3.32,1.85-5.72c0-1.91-.55-3.52-1.66-4.85-1.11-1.32-2.54-2.49-4.29-3.51-1.75-1.02-3.68-1.92-5.77-2.72-2.03-.8-4.15-1.69-6.37-2.68s-4.26-2.2-6.14-3.65c-1.88-1.45-3.37-3.21-4.48-5.31-1.11-2.09-1.66-4.64-1.66-7.66,0-3.69.83-6.91,2.49-9.64,1.66-2.74,4.05-4.91,7.15-6.51,3.11-1.6,6.63-2.46,10.57-2.58,4.74,0,8.78.57,12.14,1.71,3.35,1.14,6.35,2.54,9,4.2l-4.15,8.21Z"/></g></svg>