<?xml version="1.0" encoding="utf-8"?>
<!-- Generator: Adobe Illustrator 25.2.3, SVG Export Plug-In . SVG Version: 6.00 Build 0)  -->
<svg version="1.1" id="Layer_1" xmlns="http://www.w3.org/2000/svg" xmlns:xlink="http://www.w3.org/1999/xlink" x="0px" y="0px"
	 viewBox="0 0 749.6 132.9" style="enable-background:new 0 0 749.6 132.9;" xml:space="preserve">
<style type="text/css">
	.st0{enable-background:new    ;}
</style>
<g class="st0">
	<path d="M68,118.8h-0.8c-6.5,9.4-16.1,14.1-29,14.1c-12.1,0-21.5-4.1-28.2-12.4C3.4,112.2,0,100.5,0,85.2C0,70,3.4,58.2,10.1,49.7
		s16.1-12.6,28.2-12.6c12.5,0,22.1,4.6,28.8,13.7h1.1l-0.6-6.7l-0.3-6.5V0h14v131.2H69.9L68,118.8z M40,121.1
		c9.6,0,16.5-2.6,20.8-7.8c4.3-5.2,6.4-13.6,6.4-25.2v-3c0-13.1-2.2-22.4-6.5-28c-4.4-5.6-11.3-8.4-20.9-8.4
		c-8.2,0-14.5,3.2-18.8,9.6c-4.4,6.4-6.5,15.4-6.5,27c0,11.8,2.2,20.7,6.5,26.7C25.3,118.1,31.7,121.1,40,121.1z"/>
	<path d="M150,132.9c-13.7,0-24.4-4.2-32.3-12.5c-7.9-8.3-11.8-19.9-11.8-34.6c0-14.9,3.7-26.7,11-35.5c7.3-8.8,17.2-13.2,29.5-13.2
		c11.6,0,20.7,3.8,27.5,11.4c6.7,7.6,10.1,17.7,10.1,30.1v8.9h-63.6c0.3,10.8,3,19.1,8.2,24.7c5.2,5.6,12.5,8.4,22,8.4
		c9.9,0,19.8-2.1,29.5-6.2v12.5c-4.9,2.1-9.6,3.7-14,4.6C161.5,132.4,156.2,132.9,150,132.9z M146.2,48.8c-7.4,0-13.3,2.4-17.7,7.2
		c-4.4,4.8-7,11.5-7.8,20.1h48.3c0-8.8-2-15.6-5.9-20.3C159.1,51.2,153.5,48.8,146.2,48.8z"/>
</g>
<g class="st0">
	<path d="M247,37.8c12.8,0,22.5,4,29,12.1c6.5,8.1,9.7,19.9,9.7,35.4c0,15.2-3.4,27-10.2,35.2c-6.8,8.3-16.4,12.4-28.8,12.4
		c-6.5,0-12.4-1.3-17.6-4c-5.2-2.7-9.4-6.5-12.4-11.5h-0.8l-2.4,13.8h-5.2V0h8.3v33c0,4.9-0.1,9.5-0.3,13.7l-0.3,7.2h0.6
		c3.5-5.5,7.7-9.6,12.6-12.1C234.2,39.1,240.1,37.8,247,37.8z M246.8,45.4c-10.8,0-18.5,3.1-23.2,9.3c-4.7,6.2-7,16.4-7,30.6v1.4
		c0,13.8,2.4,23.7,7.3,29.8c4.9,6,12.4,9,22.7,9c10,0,17.5-3.5,22.6-10.5c5.1-7,7.6-17,7.6-29.9C276.8,58.6,266.8,45.4,246.8,45.4z"
		/>
	<path d="M347.1,37.8c3.9,0,8,0.4,12.5,1.2l-1.6,8c-3.8-1-7.8-1.4-11.9-1.4c-7.8,0-14.2,3.3-19.2,9.9c-5,6.6-7.5,15-7.5,25.1v50.6
		h-8.3V39.5h7.1l0.8,16.5h0.6c3.8-6.7,7.8-11.5,12.1-14.2C335.9,39.1,341.1,37.8,347.1,37.8z"/>
	<path d="M377.1,14.1c0-5.4,1.8-8.1,5.3-8.1c1.7,0,3.1,0.7,4.1,2.1c1,1.4,1.5,3.4,1.5,6c0,2.5-0.5,4.5-1.5,6c-1,1.5-2.3,2.2-4.1,2.2
		C378.8,22.3,377.1,19.5,377.1,14.1z M386.6,131.2h-8.3V39.5h8.3V131.2z"/>
	<path d="M453.9,132.9c-13.1,0-23.4-4.1-30.8-12.4c-7.4-8.3-11.1-19.8-11.1-34.6c0-15.2,3.8-27,11.5-35.4
		c7.7-8.5,18.2-12.7,31.6-12.7c7.9,0,15.5,1.4,22.8,4.1l-2.3,7.4c-7.9-2.6-14.8-4-20.7-4c-11.2,0-19.8,3.5-25.5,10.4
		c-5.8,6.9-8.7,16.9-8.7,30c0,12.4,2.9,22,8.7,29c5.8,7,13.9,10.5,24.3,10.5c8.3,0,16-1.5,23.2-4.5v7.8
		C471,131.4,463.4,132.9,453.9,132.9z"/>
	<path d="M507.5,91l46.8-51.4h10.1l-36.1,39.1l39.2,52.5h-10l-34.8-46.3l-15,13.7v32.6h-8.3V0h8.3v65.8L507.1,91H507.5z"/>
	<path d="M619.9,132.9c-13.3,0-23.7-4.1-31.1-12.3c-7.4-8.2-11.2-19.7-11.2-34.5c0-14.6,3.6-26.3,10.8-35.1
		c7.2-8.8,16.9-13.2,29.1-13.2c10.8,0,19.3,3.8,25.5,11.3c6.2,7.5,9.4,17.8,9.4,30.7v6.7h-66c0.1,12.6,3,22.2,8.8,28.8
		c5.8,6.6,14,9.9,24.7,9.9c5.2,0,9.8-0.4,13.8-1.1c4-0.7,9-2.3,15-4.7v7.6c-5.2,2.2-9.9,3.8-14.3,4.6
		C630,132.4,625.1,132.9,619.9,132.9z M617.4,45.2c-8.8,0-15.9,2.9-21.2,8.7c-5.3,5.8-8.5,14.2-9.4,25.2h56.6
		c0-10.6-2.3-18.9-6.9-24.9C631.9,48.2,625.6,45.2,617.4,45.2z"/>
	<path d="M711.2,37.8c6.6,0,12.4,1.2,17.2,3.6c4.8,2.4,9.2,6.5,13,12.4h0.5c-0.3-7.1-0.5-14-0.5-20.8V0h8.3v131.2h-5.5l-2.1-14h-0.7
		c-7,10.5-17,15.7-30,15.7c-12.6,0-22.3-3.9-29-11.8c-6.7-7.9-10-19.3-10-34.4c0-15.8,3.3-28,9.9-36.3
		C688.9,42,698.5,37.8,711.2,37.8z M711.2,45.4c-10,0-17.5,3.5-22.5,10.5c-5,7-7.5,17.2-7.5,30.6c0,26,10.1,38.9,30.3,38.9
		c10.3,0,17.9-3,22.8-9c4.8-6,7.2-15.9,7.2-29.8v-1.4c0-14.2-2.4-24.3-7.1-30.6C729.5,48.5,721.8,45.4,711.2,45.4z"/>
</g>
</svg>
