<svg xmlns="http://www.w3.org/2000/svg" viewBox="0 0 373.20148 162.9523"><svg id="Layer_2" xmlns="http://www.w3.org/2000/svg" viewBox="0 0 122.3922 162.9523" height="162.9523" width="122.3922" x="0" y="0"><g id="Components"><g id="_94093a2a-6c3e-4229-baab-e0f4fb52d1d9_1"><path d="m120.9038,144.5495c-10.5071-24.7603-30.2883-72.095-40.1611-96.219-4.5208-11.0464-32.2314-6.9539-34.4619,5.2996-4.1914,23.0266-13.7539,68.8677-17.4526,91.9783-.5137,3.2087.8889,6.4612,3.4976,8.3987,15.1694,11.2673,76.1323,13.2246,87.4424-1.9131,1.5344-2.054,1.9536-5.6167,1.1357-7.5444Zm-58.6799-60.9663l1.0176-7.1084c.4873-3.4033,3.4453-5.9697,6.8799-5.9697.3301,0,.6631.0234.9902.0703l7.1074,1.0166c1.8389.2637,3.4658,1.2266,4.5801,2.7139,1.1143,1.4863,1.583,3.3174,1.3193,5.1562l-1.0176,7.1074c-.4854,3.4033-3.4434,5.9697-6.8789,5.9697-.3301,0-.6631-.0234-.9902-.0703l-7.1074-1.0166c-3.7959-.543-6.4424-4.0732-5.9004-7.8691Zm-4.5703,47.8086c-3.7832,0-7.2666-2.0576-9.0898-5.3691l-6.4521-11.7197c-1.3359-2.4258-1.6475-5.2275-.877-7.8867.7715-2.6611,2.5322-4.8613,4.958-6.1973l11.7197-6.4531c1.5303-.8418,3.2568-1.2871,4.9951-1.2871,3.7832,0,7.2656,2.0576,9.0889,5.3691l6.4531,11.7188c2.7578,5.0088.9268,11.3271-4.0811,14.085l-11.7197,6.4531c-1.5303.8418-3.2568,1.2871-4.9951,1.2871Zm46.2646,3.751l-2.6934,10.7148c-1.0166,4.0449-4.6387,6.8711-8.8066,6.8711-.7451,0-1.4922-.0928-2.2197-.2764l-10.7139-2.6934c-4.8584-1.2217-7.8174-6.167-6.5957-11.0254l2.6943-10.7148c1.0166-4.0449,4.6377-6.8711,8.8057-6.8711.7451,0,1.4922.0928,2.2197.2764l10.7139,2.6934c2.3535.5908,4.3359,2.0645,5.582,4.1465,1.2451,2.083,1.6055,4.5254,1.0137,6.8789Z" style="fill:#ff5f00;" /><path d="m122.2356,28.0973c-2.0098-13.5-22.23-19.3501-45.0098-19.2402-.1504-.1799-.3003-.3499-.46-.52C71.2556,2.4071,63.5857-.6229,56.0456.1071c-.3999.03-.79.0801-1.1899.1401-7.9302,1.1799-14.8901,6.46-18.6104,14.1299-.1499.3101-.2695.6101-.3999.9202C14.8454,21.9171-1.7942,33.1471.1555,46.2873c1,6.73,6.5303,11.5601,14.6504,14.6899,2.6597,1.03,5.4199,1.8201,8.2197,2.4399,4.8799,1.0801,10.29,1.78,15.9502,1.98.7695.03,1.54.05,2.2998.0601.7998-4.1599,1.52-7.99,2.1299-11.3301,1.25-6.8799,10.04-14.2,23.8701-14.2,8.0898,0,14.1899,3.1001,16.3198,8.3,1.29,3.1401,2.73,6.6401,4.27,10.3999.7603-.24,1.52-.48,2.27-.73,2.5-.8699,4.98-1.8398,7.3999-2.8799,15.4702-6.72,26.3003-16.1802,24.7002-26.9199ZM29.8357,62.1872c-.6802.1001-1.3701.1499-2.0503.1499-4.5298,0-9.7397-2.4099-10.2695-6-.1904-1.2397.0498-3.5999,3.6797-5.5198,1.77-.9302,4.1401-1.6602,6.6802-2.03,1.27-.2002,2.5298-.29,3.73-.29,6.9697,0,8.1899,3.1299,8.3896,4.48.5703,3.79-4.4697,8.3501-10.1597,9.21Zm31.96-25.8799c-.9302.1399-1.8701.21-2.8101.21h-.0098c-6.71,0-13.1201-3.5801-13.7305-7.6499-.7397-5,6.54-8.3701,14.0801-9.5,1.79-.27,3.5503-.4102,5.2305-.4102,6.4697,0,10.4897,1.97,11.0098,5.3901.71,4.7998-6.2402,10.8298-13.77,11.96Zm44.21,11.0798c-2,1.6902-4.5298,2.8401-7.1299,3.2302-.6699.0999-1.3599.1499-2.0503.1499-4.54,0-9.75-2.4199-10.2695-6.02-.1802-1.22.0498-3.5801,3.6895-5.5,1.7705-.9299,4.1401-1.6602,6.6802-2.04,1.27-.1799,2.5103-.28,3.71-.28,6.98,0,8.21,3.1301,8.4102,4.48.29,1.9102-.8198,4.0901-3.04,5.98Zm-15.4897-31.3398c-22.1304-1.1001-44.46,2.3799-65.21,10.1599C17.3059,29.4772,1.2258,36.2572,1.6858,45.9572c-1.1201-6.1001,3.7397-11.1399,7.8799-14.6699C34.4157,12.5773,77.6955,5.8371,107.0559,16.0973c5.0098,2.0999,11.1797,5.4199,11.9697,11.5698-2.52-9.3799-19.8901-10.9399-28.5098-11.6199Z" style="fill:#263238;" /><rect x="46.2221" y="96.2523" width="28.1165" height="28.1164" rx="7.3691" ry="7.3691" transform="translate(-45.7307 42.7547) rotate(-28.8377)" style="fill:#263238;" /><rect x="76.7961" y="123.9086" width="23.2175" height="23.2176" rx="6.0849" ry="6.0849" transform="translate(-64.5776 188.2125) rotate(-75.8879)" style="fill:#263238;" /><rect x="65.6269" y="72.522" width="15.0897" height="15.0895" rx="3.9547" ry="3.9547" transform="translate(-16.4548 141.1559) rotate(-81.8545)" style="fill:#263238;" /><path d="m28.5019,52.7463c-4.5703.6799-8.0801,2.5298-7.8403,4.1399.2402,1.5999,4.3403,4.01,8.9102,3.3301,4.5703-.6902,7.8799-4.1902,7.6401-5.8-.2402-1.6101-4.1401-2.3601-8.71-1.6699Z" style="fill:#263238;" /><path d="m59.9516,23.3261c-6.73,1.01-11.8999,3.74-11.5498,6.1001.3501,2.3699,6.3901,5.9099,13.1299,4.9099,6.73-1.01,11.6001-6.1699,11.25-8.54-.3599-2.3599-6.1001-3.47-12.8301-2.47Z" style="fill:#263238;" /><path d="m97.5517,41.1762c-4.5698.6799-8.0801,2.53-7.8398,4.1399.23,1.6101,4.3398,4.01,8.9102,3.3301,4.5698-.6799,7.8799-4.1899,7.6396-5.8-.2397-1.5999-4.1396-2.3499-8.71-1.6699Z" style="fill:#263238;" /></g></g></svg><svg id="Layer_2" xmlns="http://www.w3.org/2000/svg" viewBox="0 0 250.8093 117.6105" height="117.6105" width="250.8093" x="122.3922" y="22.670902"><g id="Components"><g id="_91d5cbf9-5586-4446-8c8c-e29cf37cf4a1_1"><path d="m.8437,24.8811V3.1149C.8437,1.6512,1.6318.8631,3.0955.8631h10.0945c7.6561,0,13.3603,5.8925,13.3603,13.1353,0,7.2804-5.7042,13.1345-13.3603,13.1345H3.0955c-1.4637,0-2.2518-.7881-2.2518-2.2518Zm11.2584-4.5028c4.053,0,6.5672-2.5151,6.5672-6.3798,0-3.903-2.5143-6.4173-6.5672-6.3798h-3.3773v12.7596h3.3773Z" style="fill:#263238;" /><path d="m27.9748,17.3383c0-5.4043,3.903-10.3578,11.0334-10.3578,6.2299,0,10.8826,3.7531,10.8826,10.057,0,1.2388-.9381,1.7645-2.326,1.7645h-12.3847c0,1.088,1.7262,2.9641,5.066,2.9641.9006,0,2.1394-.1499,3.4907-.7881,1.2754-.5998,2.2893-.5248,3.1149.6007l.5998.7881c.8631,1.1255.7881,2.3643-.4498,3.1899-2.2144,1.4263-4.8786,1.9894-7.4303,1.9894-7.2812,0-11.5966-4.5412-11.5966-10.2079Zm14.9365-2.1019c-.1125-1.9136-1.952-2.8516-3.8655-2.8516-1.8761,0-3.7531.9381-3.8655,2.8516h7.7311Z" style="fill:#263238;" /><path d="m52.0669,33.2878V9.6447c0-1.4637.7881-2.2518,2.2518-2.2518h3.2274c1.4637,0,2.2518.7881,2.2518,2.2518v.1874c1.0505-1.7636,3.0774-2.8516,5.6292-2.8516,5.2543,0,9.2698,4.3154,9.2698,10.2828s-4.0155,10.2828-9.2698,10.2828c-2.5517,0-4.5787-1.0889-5.6292-2.89v8.6317c0,1.4637-.7881,2.2518-2.2518,2.2518h-3.2274c-1.4637,0-2.2518-.7881-2.2518-2.2518Zm14.899-16.0245c0-2.4768-1.3888-4.3912-3.6406-4.3912s-3.6397,1.9145-3.6397,4.3912,1.3888,4.3904,3.6397,4.3904,3.6406-1.9136,3.6406-4.3904Z" style="fill:#263238;" /><path d="m76.009,17.3383c0-5.4043,3.903-10.3578,11.0334-10.3578,6.2299,0,10.8826,3.7531,10.8826,10.057,0,1.2388-.9381,1.7645-2.326,1.7645h-12.3847c0,1.088,1.7262,2.9641,5.066,2.9641.9006,0,2.1394-.1499,3.4907-.7881,1.2754-.5998,2.2893-.5248,3.1149.6007l.5998.7881c.8631,1.1255.7881,2.3643-.4498,3.1899-2.2144,1.4263-4.8786,1.9894-7.4303,1.9894-7.2812,0-11.5966-4.5412-11.5966-10.2079Zm14.9365-2.1019c-.1125-1.9136-1.952-2.8516-3.8655-2.8516-1.8761,0-3.7531.9381-3.8655,2.8516h7.7311Z" style="fill:#263238;" /><path d="m100.1011,24.8811v-15.2364c0-1.4637.7881-2.2518,2.2518-2.2518h3.2274c1.4637,0,2.2518.7881,2.2518,2.2518v.1874c1.088-1.7636,2.8142-2.8516,5.4792-2.8516,6.1165,0,6.8671,5.3668,6.8671,8.5942v9.3064c0,1.4637-.7881,2.2518-2.251,2.2518h-3.2274c-1.4637,0-2.2518-.7881-2.2518-2.2518v-8.5558c0-1.5387-.3383-3.3407-2.3268-3.3407s-2.2893,1.802-2.2893,3.3407v8.5558c0,1.4637-.7881,2.2518-2.2518,2.2518h-3.2274c-1.4637,0-2.2518-.7881-2.2518-2.2518Z" style="fill:#263238;" /><path d="m122.2796,17.2633c0-5.9674,4.0155-10.2828,9.2698-10.2828,2.5517,0,4.5778,1.088,5.6292,2.8891V2.2518c0-1.4637.7881-2.2518,2.251-2.2518h3.2283c1.4629,0,2.251.7881,2.251,2.2518v22.6292c0,1.4637-.7881,2.2518-2.251,2.2518h-3.2283c-1.4629,0-2.251-.7881-2.251-2.2518v-.1874c-1.0514,1.7636-3.0774,2.8525-5.6292,2.8525-5.2543,0-9.2698-4.3163-9.2698-10.2828Zm15.0115,0c0-2.4768-1.3888-4.3912-3.6406-4.3912s-3.6397,1.9145-3.6397,4.3912,1.3879,4.3904,3.6397,4.3904,3.6406-1.9136,3.6406-4.3904Z" style="fill:#263238;" /><path d="m147.1973,17.3383c0-5.4043,3.903-10.3578,11.0334-10.3578,6.2299,0,10.8826,3.7531,10.8826,10.057,0,1.2388-.9381,1.7645-2.3268,1.7645h-12.3839c0,1.088,1.7262,2.9641,5.066,2.9641.9006,0,2.1394-.1499,3.4907-.7881,1.2754-.5998,2.2893-.5248,3.1149.6007l.5998.7881c.8631,1.1255.7881,2.3643-.4498,3.1899-2.2144,1.4263-4.8786,1.9894-7.4303,1.9894-7.2812,0-11.5966-4.5412-11.5966-10.2079Zm14.9365-2.1019c-.1125-1.9136-1.952-2.8516-3.8655-2.8516-1.8761,0-3.7531.9381-3.8655,2.8516h7.7311Z" style="fill:#263238;" /><path d="m171.2894,24.8811v-15.2364c0-1.4637.7881-2.2518,2.2518-2.2518h3.2274c1.4637,0,2.2518.7881,2.2518,2.2518v.1874c1.088-1.7636,2.8142-2.8516,5.4792-2.8516,6.1165,0,6.8671,5.3668,6.8671,8.5942v9.3064c0,1.4637-.7881,2.2518-2.251,2.2518h-3.2274c-1.4637,0-2.2518-.7881-2.2518-2.2518v-8.5558c0-1.5387-.3383-3.3407-2.3268-3.3407s-2.2893,1.802-2.2893,3.3407v8.5558c0,1.4637-.7881,2.2518-2.2518,2.2518h-3.2274c-1.4637,0-2.2518-.7881-2.2518-2.2518Z" style="fill:#263238;" /><path d="m193.3929,17.2633c0-5.7042,4.8411-10.2828,11.5958-10.2828,2.2144,0,4.5787.5248,6.5681,1.6887,1.238.7881,1.2754,1.9886.3374,3.1524l-.9381,1.1255c-.8631,1.0889-1.8011,1.0889-3.1149.4882-.9006-.3757-1.7262-.4882-2.3268-.4882-2.5517,0-4.3904,1.802-4.3904,4.3163s1.8386,4.3154,4.3904,4.3154c.6007,0,1.4263-.1125,2.3268-.4882,1.3138-.5998,2.2893-.6373,3.1524.4507l.9381,1.163c.9006,1.1264.8631,2.4018-.4498,3.1524-1.952,1.1638-4.3163,1.6895-6.4931,1.6895-6.7547,0-11.5958-4.5787-11.5958-10.2828Z" style="fill:#263238;" /><path d="m217.5608,32.912l3.4148-7.6927-7.018-15.1989c-.7131-1.5387,0-2.6276,1.727-2.6276h3.5648c1.3138,0,2.1769.5632,2.5892,1.8395l2.7775,8.2559,3.1524-8.2934c.4498-1.2388,1.3129-1.802,2.5892-1.802h3.2649c1.6887,0,2.4018,1.0889,1.7262,2.6276l-10.6202,23.8297c-.5257,1.2013-1.3513,1.6895-2.6267,1.6895h-2.815c-1.6887,0-2.4018-1.0889-1.7262-2.6276Z" style="fill:#263238;" /><path d="m.0181,69.8012l1.9886-21.7661c.1125-1.3888.9381-2.1394,2.3268-2.1394h3.4907c1.2754,0,2.101.5632,2.5892,1.7636l5.2534,13.1728,5.2543-13.1728c.4882-1.2005,1.3138-1.7636,2.5892-1.7636h3.4907c1.3879,0,2.2135.7506,2.326,2.1394l1.9894,21.7661c.1499,1.5387-.6382,2.3643-2.1394,2.3643h-3.3024c-1.4263,0-2.2518-.7506-2.3643-2.1394l-.7881-9.8321-3.7906,9.9446c-.4498,1.2388-1.3129,1.7645-2.5892,1.7645h-1.3504c-1.2763,0-2.1394-.5257-2.5901-1.7645l-3.7897-9.9446-.7881,9.8321c-.1133,1.3888-.9389,2.1394-2.3643,2.1394h-3.3032c-1.5004,0-2.2885-.8256-2.1385-2.3643Z" style="fill:#263238;" /><path d="m33.2666,62.2959c0-5.9674,4.0155-10.2828,9.2698-10.2828,2.5517,0,4.5778,1.088,5.6292,2.8891v-.2249c0-1.4637.7881-2.2518,2.2518-2.2518h3.2274c1.4629,0,2.251.7881,2.251,2.2518v15.2364c0,1.4637-.7881,2.2518-2.251,2.2518h-3.2274c-1.4637,0-2.2518-.7881-2.2518-2.2518v-.1874c-1.0514,1.7636-3.0774,2.8525-5.6292,2.8525-5.2543,0-9.2698-4.3163-9.2698-10.2828Zm15.0115,0c0-2.4768-1.3888-4.3912-3.6406-4.3912s-3.6397,1.9145-3.6397,4.3912,1.3879,4.3904,3.6397,4.3904,3.6406-1.9136,3.6406-4.3904Z" style="fill:#263238;" /><path d="m59.1965,69.9137v-15.2364c0-1.4637.7881-2.2518,2.2518-2.2518h3.2274c1.4637,0,2.2518.7881,2.2518,2.2518v.1874c1.088-1.7636,2.8142-2.8516,5.4792-2.8516,6.1165,0,6.8671,5.3668,6.8671,8.5942v9.3064c0,1.4637-.7881,2.2518-2.251,2.2518h-3.2274c-1.4637,0-2.2518-.7881-2.2518-2.2518v-8.5567c0-1.5378-.3383-3.3398-2.3268-3.3398s-2.2893,1.802-2.2893,3.3398v8.5567c0,1.4637-.7881,2.2518-2.2518,2.2518h-3.2274c-1.4637,0-2.2518-.7881-2.2518-2.2518Z" style="fill:#263238;" /><path d="m81.3749,62.2959c0-5.9674,4.0155-10.2828,9.2698-10.2828,2.5517,0,4.5778,1.088,5.6292,2.8891v-.2249c0-1.4637.7881-2.2518,2.251-2.2518h3.2283c1.4629,0,2.251.7881,2.251,2.2518v15.2364c0,1.4637-.7881,2.2518-2.251,2.2518h-3.2283c-1.4629,0-2.251-.7881-2.251-2.2518v-.1874c-1.0514,1.7636-3.0774,2.8525-5.6292,2.8525-5.2543,0-9.2698-4.3163-9.2698-10.2828Zm15.0115,0c0-2.4768-1.3888-4.3912-3.6406-4.3912s-3.6397,1.9145-3.6397,4.3912,1.3879,4.3904,3.6397,4.3904,3.6406-1.9136,3.6406-4.3904Z" style="fill:#263238;" /><path d="m109.2576,79.4834c-1.3513-.5632-1.6137-1.7636-.9006-3.04l.6373-1.163c.7131-1.2388,1.727-1.5012,3.04-.9006,1.2763.5248,2.6651.9381,4.128.9381,2.9275,0,5.1044-1.4263,5.1044-5.1035v-.4882c-1.0514,1.7636-3.2274,2.8525-5.7791,2.8525-5.2543,0-9.1573-4.6162-9.1573-10.2828s3.903-10.2828,9.1573-10.2828c2.5517,0,4.5778,1.088,5.6292,2.8891v-.5623c0-1.3138.7881-1.9145,2.251-1.9145h3.0025c1.4637,0,2.2518.7881,2.2518,2.2518v14.9365c0,8.4059-5.1035,11.3708-11.5208,11.3708-2.7026,0-5.5167-.4882-7.8435-1.5012Zm11.9715-17.1875c0-2.4768-1.3888-4.5037-3.6406-4.5037s-3.7147,2.0269-3.7147,4.5037,1.4629,4.5028,3.7147,4.5028,3.6406-2.0261,3.6406-4.5028Z" style="fill:#263238;" /><path d="m130.8729,62.3709c0-5.4043,3.903-10.3578,11.0334-10.3578,6.2299,0,10.8826,3.7531,10.8826,10.057,0,1.2388-.9381,1.7645-2.326,1.7645h-12.3847c0,1.088,1.7262,2.9641,5.066,2.9641.9006,0,2.1394-.1499,3.4907-.7881,1.2754-.5998,2.2893-.5248,3.1149.6007l.5998.7881c.8631,1.1255.7881,2.3643-.4498,3.1899-2.2144,1.4263-4.8786,1.9894-7.4303,1.9894-7.2812,0-11.5966-4.5412-11.5966-10.2079Zm14.9365-2.1019c-.1125-1.9136-1.952-2.8516-3.8655-2.8516-1.8761,0-3.7531.9381-3.8655,2.8516h7.7311Z" style="fill:#263238;" /><path d="m154.965,69.9137v-15.2364c0-1.4637.7881-2.2518,2.2518-2.2518h3.2274c1.4637,0,2.2518.7881,2.2518,2.2518v.2249c.6756-1.7636,2.4393-2.8891,4.5412-2.8891,2.5517,0,4.2029,1.2005,5.216,2.8142,2.0644-2.5143,3.9405-2.8142,6.0424-2.8142,5.4792,0,6.9421,5.4043,6.9421,8.6317v9.2689c0,1.4637-.7881,2.2518-2.251,2.2518h-3.2274c-1.4637,0-2.2518-.7881-2.2518-2.2518v-8.7816c0-1.5387-.3008-3.0774-1.802-3.0774-1.5004,0-1.8386,1.5387-1.8386,3.0774v8.7816c0,1.4637-.7881,2.2518-2.2518,2.2518h-3.2274c-1.4637,0-2.251-.7881-2.251-2.2518v-8.7816c0-1.5387-.3008-3.0774-1.802-3.0774s-1.8386,1.5387-1.8386,3.0774v8.7816c0,1.4637-.7881,2.2518-2.2518,2.2518h-3.2274c-1.4637,0-2.2518-.7881-2.2518-2.2518Z" style="fill:#263238;" /><path d="m187.4629,62.3709c0-5.4043,3.903-10.3578,11.0334-10.3578,6.2299,0,10.8826,3.7531,10.8826,10.057,0,1.2388-.9381,1.7645-2.326,1.7645h-12.3847c0,1.088,1.7262,2.9641,5.066,2.9641.9006,0,2.1394-.1499,3.4907-.7881,1.2754-.5998,2.2893-.5248,3.1149.6007l.5998.7881c.8631,1.1255.7881,2.3643-.4498,3.1899-2.2144,1.4263-4.8786,1.9894-7.4303,1.9894-7.2812,0-11.5966-4.5412-11.5966-10.2079Zm14.9365-2.1019c-.1125-1.9136-1.952-2.8516-3.8655-2.8516-1.8761,0-3.7531.9381-3.8655,2.8516h7.7311Z" style="fill:#263238;" /><path d="m211.555,69.9137v-15.2364c0-1.4637.7881-2.2518,2.2518-2.2518h3.2274c1.4637,0,2.2518.7881,2.2518,2.2518v.1874c1.088-1.7636,2.8142-2.8516,5.4792-2.8516,6.1165,0,6.8671,5.3668,6.8671,8.5942v9.3064c0,1.4637-.7881,2.2518-2.251,2.2518h-3.2274c-1.4637,0-2.2518-.7881-2.2518-2.2518v-8.5567c0-1.5378-.3383-3.3398-2.3268-3.3398s-2.2893,1.802-2.2893,3.3398v8.5567c0,1.4637-.7881,2.2518-2.2518,2.2518h-3.2274c-1.4637,0-2.2518-.7881-2.2518-2.2518Z" style="fill:#263238;" /><path d="m236.0228,65.335v-7.3179h-1.5762c-.7131,0-1.1255-.4124-1.1255-1.1255v-3.3398c0-.7131.4124-1.1264,1.1255-1.1264h2.4018l.6382-3.4898c.1499-.9006.7506-1.3513,1.6512-1.3513h2.9275c.9755,0,1.5012.5257,1.5012,1.5012v3.3398h3.5648c.7131,0,1.1264.4132,1.1264,1.1264v3.3398c0,.7131-.4132,1.1255-1.1264,1.1255h-3.5648v7.3937c0,.8631.4124,1.2005.9381,1.2005.7881,0,1.0505-.7881,1.0505-1.5012,0-.2249,0-.4124-.0375-.6007-.075-.7881.1874-1.2005.9381-1.2005h2.7775c.5998,0,1.088.2249,1.2754.8256.1883.4882.2633,1.013.3008,1.5387,0,5.5167-3.903,6.9055-7.2804,6.9055-3.5282,0-7.5062-1.4637-7.5062-7.2438Z" style="fill:#263238;" /><path d="m.8437,114.9454v-21.7661c0-1.4637.7881-2.2518,2.2518-2.2518h10.0945c7.6561,0,13.3603,5.8925,13.3603,13.1353,0,7.2804-5.7042,13.1345-13.3603,13.1345H3.0955c-1.4637,0-2.2518-.7881-2.2518-2.2518Zm11.2584-4.5028c4.053,0,6.5672-2.5151,6.5672-6.3798,0-3.903-2.5143-6.4173-6.5672-6.3798h-3.3773v12.7596h3.3773Z" style="fill:#263238;" /><path d="m28.0123,107.3277c0-5.9674,4.0155-10.2828,9.2698-10.2828,2.5517,0,4.5778,1.088,5.6292,2.8891v-.2249c0-1.4637.7881-2.2518,2.251-2.2518h3.2283c1.4629,0,2.251.7881,2.251,2.2518v15.2364c0,1.4637-.7881,2.2518-2.251,2.2518h-3.2283c-1.4629,0-2.251-.7881-2.251-2.2518v-.1874c-1.0514,1.7636-3.0774,2.8525-5.6292,2.8525-5.2543,0-9.2698-4.3163-9.2698-10.2828Zm15.0115,0c0-2.4768-1.3888-4.3912-3.6406-4.3912s-3.6397,1.9145-3.6397,4.3912,1.3879,4.3904,3.6397,4.3904,3.6406-1.9136,3.6406-4.3904Z" style="fill:#263238;" /><path d="m55.4817,110.3667v-7.3179h-1.5762c-.7131,0-1.1255-.4124-1.1255-1.1255v-3.3398c0-.7131.4124-1.1264,1.1255-1.1264h2.4018l.6382-3.4898c.1499-.9006.7506-1.3513,1.6512-1.3513h2.9275c.9755,0,1.5012.5257,1.5012,1.5012v3.3398h3.5648c.7131,0,1.1255.4132,1.1255,1.1264v3.3398c0,.7131-.4124,1.1255-1.1255,1.1255h-3.5648v7.3937c0,.8631.4124,1.2005.9381,1.2005.7881,0,1.0505-.7881,1.0505-1.5012,0-.2249,0-.4124-.0375-.6007-.075-.7881.1874-1.2005.9381-1.2005h2.7775c.5998,0,1.088.2249,1.2754.8256.1883.4882.2633,1.013.3008,1.5387,0,5.5167-3.903,6.9055-7.2804,6.9055-3.5282,0-7.5062-1.4637-7.5062-7.2438Z" style="fill:#263238;" /><path d="m70.9797,107.3277c0-5.9674,4.0155-10.2828,9.2698-10.2828,2.5517,0,4.5778,1.088,5.6292,2.8891v-.2249c0-1.4637.7881-2.2518,2.251-2.2518h3.2283c1.4629,0,2.251.7881,2.251,2.2518v15.2364c0,1.4637-.7881,2.2518-2.251,2.2518h-3.2283c-1.4629,0-2.251-.7881-2.251-2.2518v-.1874c-1.0514,1.7636-3.0774,2.8525-5.6292,2.8525-5.2543,0-9.2698-4.3163-9.2698-10.2828Zm15.0115,0c0-2.4768-1.3888-4.3912-3.6406-4.3912s-3.6397,1.9145-3.6397,4.3912,1.3879,4.3904,3.6397,4.3904,3.6406-1.9136,3.6406-4.3904Z" style="fill:#263238;" /></g></g></svg></svg>