<?xml version="1.0" encoding="UTF-8" standalone="no"?>
<!-- Created with Inkscape (http://www.inkscape.org/) -->

<svg
   version="1.1"
   id="svg824"
   xml:space="preserve"
   width="1056"
   height="816"
   viewBox="0 0 1056 816"
   sodipodi:docname="Equinix_logo.svg"
   inkscape:version="1.1.1 (c3084ef, 2021-09-22)"
   xmlns:inkscape="http://www.inkscape.org/namespaces/inkscape"
   xmlns:sodipodi="http://sodipodi.sourceforge.net/DTD/sodipodi-0.dtd"
   xmlns="http://www.w3.org/2000/svg"
   xmlns:svg="http://www.w3.org/2000/svg"><defs
     id="defs828"><clipPath
       clipPathUnits="userSpaceOnUse"
       id="clipPath842"><path
         d="M 0,612 H 792 V 0 H 0 Z"
         id="path840" /></clipPath></defs><sodipodi:namedview
     id="namedview826"
     pagecolor="#505050"
     bordercolor="#eeeeee"
     borderopacity="1"
     inkscape:pageshadow="0"
     inkscape:pageopacity="0"
     inkscape:pagecheckerboard="0"
     showgrid="false"
     inkscape:zoom="0.51609848"
     inkscape:cx="528"
     inkscape:cy="407.86789"
     inkscape:window-width="1312"
     inkscape:window-height="969"
     inkscape:window-x="0"
     inkscape:window-y="25"
     inkscape:window-maximized="0"
     inkscape:current-layer="g830" /><g
     id="g830"
     inkscape:groupmode="layer"
     inkscape:label="Equinix_logo"
     transform="matrix(1.3333333,0,0,-1.3333333,0,816)"><g
       id="g832"
       transform="translate(236.587,272.3117)"><path
         d="M 0,0 V -32.945 H 29.399 V -28.7 H 4.812 v 10.726 h 15.927 v 4.326 H 4.812 v 9.335 H 28.559 V 0 Z"
         style="fill:#231f20;fill-opacity:1;fill-rule:nonzero;stroke:none"
         id="path834" /></g><g
       id="g836"><g
         id="g838"
         clip-path="url(#clipPath842)"><g
           id="g844"
           transform="translate(367.0385,252.4909)"><path
             d="m 0,0 c 0,-5.887 -3.896,-9.775 -9.683,-9.775 -5.625,0 -9.131,3.934 -9.131,9.775 v 19.734 h -4.763 V -0.222 c 0,-8.981 6.487,-13.879 13.859,-13.879 10.893,0 14.438,7.442 14.438,13.879 V 19.734 H 0 Z"
             style="fill:#231f20;fill-opacity:1;fill-rule:nonzero;stroke:none"
             id="path846" /></g><path
           d="m 398.284,239.373 h 4.731 v 32.947 h -4.731 z"
           style="fill:#231f20;fill-opacity:1;fill-rule:nonzero;stroke:none"
           id="path848" /><g
           id="g850"
           transform="translate(459.4746,272.3061)"><path
             d="M 0,0 V -25.81 L -23.38,0 h -4.674 v -32.939 h 4.734 V -6.918 L 0.094,-32.939 H 4.712 L 4.712,0 Z"
             style="fill:#231f20;fill-opacity:1;fill-rule:nonzero;stroke:none"
             id="path852" /></g><path
           d="m 492.872,239.373 h 4.72 v 32.947 h -4.72 z"
           style="fill:#231f20;fill-opacity:1;fill-rule:nonzero;stroke:none"
           id="path854" /><g
           id="g856"
           transform="translate(551.4595,272.3519)"><path
             d="M 0,0 -10.888,-11.841 -21.479,0 h -6.173 l 13.232,-15.119 -16.548,-17.858 h 6.039 l 13.577,14.661 12.943,-14.661 H 8.144 L -7.885,-15.111 5.838,0 Z"
             style="fill:#231f20;fill-opacity:1;fill-rule:nonzero;stroke:none"
             id="path858" /></g><g
           id="g860"
           transform="translate(314.5679,255.861)"><path
             d="m 0,0 c 0,-4.658 -1.507,-7.688 -4.256,-10.275 l -2.557,2.965 -5.484,0.008 4.49,-5.155 c -1.099,-0.529 -3.076,-0.958 -4.615,-0.966 -7.056,-0.046 -12.662,5.649 -12.662,13.385 l -0.008,0.119 c 0,7.882 5.26,13.45 12.349,13.486 C -5.646,13.623 0,7.963 0,0.13 Z M -12.632,17.785 C -22.451,17.72 -30.017,10.294 -30.017,-0.078 v -0.127 c 0,-10.294 7.75,-17.552 17.493,-17.488 2.506,0.019 5.465,0.673 7.69,1.815 l 2.679,-3.095 5.498,0.017 -4.699,5.381 c 3.848,2.941 6.27,7.772 6.27,13.748 V 0.3 c 0,10.237 -7.771,17.558 -17.546,17.485"
             style="fill:#231f20;fill-opacity:1;fill-rule:nonzero;stroke:none"
             id="path862" /></g><g
           id="g864"
           transform="translate(400.6472,392.9879)"><path
             d="m 0,0 -13.421,-4.674 v -70.409 l -8.946,3.113 v 64.163 l -26.842,-9.373 v -45.417 l -8.943,3.127 v 39.172 l -8.955,-3.133 v -42.398 l 26.845,-9.368 v 51.669 l 8.951,3.119 v -57.915 l 26.842,-9.367 v 76.657 L 0,-9.473 4.472,-11.034 v -76.657 l 26.855,9.367 v 57.915 l 8.933,-3.119 v -51.669 l 26.841,9.368 v 42.398 l -8.949,3.133 V -59.47 l -8.938,-3.127 V -17.18 L 22.367,-7.807 V -71.97 l -8.952,-3.113 v 70.409 z"
             style="fill:#ed1c24;fill-opacity:1;fill-rule:nonzero;stroke:none"
             id="path866" /></g><g
           id="g868"
           transform="translate(483.586,338.5135)"><path
             d="m 0,0 v 2.317 h 1.763 c 0.875,0 1.44,-0.421 1.44,-1.156 C 3.203,0.465 2.692,0 1.763,0 Z M -2.036,-4.304 H 0 v 2.638 h 1.299 l 1.809,-2.638 h 2.455 l -2.134,3.008 c 1.115,0.373 1.855,1.248 1.855,2.59 0,1.898 -1.441,2.786 -3.383,2.786 h -3.937 z m 3.335,-3.197 c -4.072,0 -7.129,3.237 -7.129,7.18 v 0.04 c 0,3.94 3.097,7.229 7.129,7.229 4.074,0 7.131,-3.238 7.131,-7.177 v -0.052 c 0,-3.929 -3.102,-7.22 -7.131,-7.22 m 0,-0.886 c 4.496,0 8.06,3.715 8.06,8.106 v 0.052 c 0,4.401 -3.524,8.066 -8.06,8.066 -4.494,0 -8.058,-3.713 -8.058,-8.118 v -0.04 c 0,-4.399 3.516,-8.066 8.058,-8.066"
             style="fill:#ed1c24;fill-opacity:1;fill-rule:nonzero;stroke:none"
             id="path870" /></g></g></g></g></svg>
