<?xml version="1.0" encoding="UTF-8" standalone="no"?>
<svg
   xmlns:dc="http://purl.org/dc/elements/1.1/"
   xmlns:cc="http://creativecommons.org/ns#"
   xmlns:rdf="http://www.w3.org/1999/02/22-rdf-syntax-ns#"
   xmlns:svg="http://www.w3.org/2000/svg"
   xmlns="http://www.w3.org/2000/svg"
   version="1.1"
   id="svg4541"
   viewBox="0 0 1052.3622 744.09448"
   height="210mm"
   width="297mm">
  <defs
     id="defs4543" />
  <metadata
     id="metadata4546">
    <rdf:RDF>
      <cc:Work
         rdf:about="">
        <dc:format>image/svg+xml</dc:format>
        <dc:type
           rdf:resource="http://purl.org/dc/dcmitype/StillImage" />
        <dc:title></dc:title>
      </cc:Work>
    </rdf:RDF>
  </metadata>
  <g
     transform="translate(0,-308.26772)"
     id="layer1">
    <g
       transform="matrix(6.3631163,0,0,6.3631163,9702.7874,-988.65767)"
       id="g4572">
      <path
         id="path4534"
         d="m -1381.6691,249.03902 c -0.1118,-9e-4 -0.2235,6e-5 -0.3351,0.003 -6.7935,-0.002 -13.5871,0.003 -20.3799,-0.003 -2.5338,7.16924 -5.0635,14.33845 -7.6031,21.50519 -0.564,1.66506 -1.2012,3.30598 -1.7326,4.98197 2.3531,0.008 4.707,8.3e-4 7.0601,0.005 0.1832,0.0476 0.2324,-0.14987 0.2873,-0.27814 1.197,-3.38429 2.4107,-6.76371 3.6084,-10.14876 0.039,-0.0817 0.056,-0.24164 0.1841,-0.22164 5.7482,0.005 11.4973,-3e-5 17.2455,0.003 0.9779,-0.0558 1.8967,-0.58218 2.5172,-1.32934 0.4473,-0.50643 0.7288,-1.13034 0.9812,-1.7509 0.8555,-2.46721 1.7659,-4.91526 2.6163,-7.38413 0.2191,-0.738 0.3731,-1.52509 0.2349,-2.29142 -0.078,-0.703 -0.4015,-1.37194 -0.9096,-1.86255 -0.4448,-0.354 -0.9229,-0.68128 -1.4643,-0.86536 -0.742,-0.25437 -1.5279,-0.35566 -2.3104,-0.36195 z m -5.7269,6.26694 c 0.4532,-0.001 0.9074,0.0396 1.3512,0.13143 0.394,0.0866 0.8037,0.42054 0.787,0.85533 0.018,0.37817 -0.1632,0.72225 -0.2798,1.07125 -0.1524,0.38567 -0.2889,0.84123 -0.6838,1.04614 -0.5015,0.23907 -1.072,0.20993 -1.6101,0.27657 -3.5692,-0.005 -7.1384,0.0122 -10.7076,-0.009 0.2623,-0.52976 0.3806,-1.11539 0.6172,-1.6568 0.1657,-0.57974 0.4248,-1.1287 0.5838,-1.71094 3.2494,-0.002 6.4988,10e-4 9.7481,-7.8e-4 0.065,-0.001 0.1293,-0.003 0.194,-0.003 z"
         style="fill:#adbf2a;fill-opacity:1;fill-rule:nonzero;stroke:none;stroke-width:1.52463245;stroke-opacity:1" />
      <path
         id="path4536"
         d="m -1477.292,249.11269 c -6.4671,0.003 -12.935,0.002 -19.402,9.2e-4 -0.9879,-0.0107 -2.0474,0.0849 -2.8762,0.67794 -0.4973,0.33568 -0.8346,0.86294 -1.0353,1.42018 -1.86,5.4167 -3.7433,10.82518 -5.6016,16.24195 -0.4073,1.14441 -0.8172,2.29397 -1.0704,3.48501 -0.024,0.1424 -0.048,0.28562 -0.076,0.42806 -0.097,0.92375 0.064,1.92501 0.6722,2.65635 0.5456,0.62147 1.326,0.98207 2.1082,1.20531 0.6147,0.15575 1.2428,0.26144 1.8758,0.30142 7.1659,0.002 14.3335,7e-5 21.5002,9.1e-4 0.1424,0.025 0.2591,-0.0599 0.2891,-0.19899 0.5181,-1.52681 1.0653,-3.0437 1.5984,-4.56641 0.1457,-0.50394 0.3831,-0.97865 0.4914,-1.49425 -6.4562,-0.008 -12.9132,10e-4 -19.3694,-0.005 -0.369,-0.008 -0.7386,-0.25823 -0.8854,-0.52307 -0.1468,-0.26484 -0.1185,-0.51148 -0.044,-0.76553 0.184,-0.83879 0.5031,-1.6409 0.7714,-2.45461 6.9476,0.006 13.8961,-0.003 20.8437,0.005 0.409,-1.04371 0.7506,-2.11157 1.1404,-3.16276 0.5955,-1.71672 1.2227,-3.42333 1.8183,-5.14089 0.3865,-1.06202 0.7746,-2.12664 1.0162,-3.23447 0.1075,-0.68552 0.24,-1.38604 0.1008,-2.07822 -0.1016,-0.84544 -0.5165,-1.68579 -1.2753,-2.12142 -0.7614,-0.5131 -1.6984,-0.614 -2.5905,-0.6773 z m -15.1593,6.25874 c 0.084,-3.3e-4 0.1684,9.6e-4 0.2528,0.005 l 8.0813,0 c 0.5423,-0.0122 1.097,-0.008 1.6167,0.16411 0.6122,0.1641 0.9105,0.93041 0.6864,1.49516 -0.239,0.74383 -0.5039,1.48016 -0.7288,2.22815 -4.513,0 -9.0267,0.005 -13.5397,-0.003 0.2016,-0.70635 0.4664,-1.39276 0.6846,-2.0941 0.1407,-0.41398 0.2831,-0.93456 0.5206,-1.20701 0.2375,-0.27245 0.3016,-0.33737 0.6673,-0.42805 0.3657,-0.0907 1.1695,-0.15754 1.7588,-0.16009 z"
         style="fill:#adbf2a;fill-opacity:1;fill-rule:nonzero;stroke:none;stroke-width:1.52463245;stroke-opacity:1" />
      <path
         d="m -1466.7533,249.59169 c 0.5397,-0.33152 1.1786,-0.40981 1.7958,-0.47645 7.5449,-0.005 15.0906,8.4e-4 22.6364,-0.003 -0.5698,1.64842 -1.1562,3.29101 -1.7268,4.93859 -0.179,0.43229 -0.3173,0.88043 -0.4531,1.32772 -4.5412,-0.008 -9.0833,-8.3e-4 -13.6254,-0.003 -1.0471,0.0137 -2.405,-0.0392 -3.1361,0.15079 -0.7311,0.18999 -0.9012,0.38393 -1.1511,0.7305 -0.2499,0.34657 -0.402,0.61289 -0.499,1.03704 -0.097,0.42415 -0.2406,1.09218 0.1181,1.43268 0.3037,0.27744 0.7597,0.33984 1.1762,0.32568 4.1364,-0.005 8.2729,0 12.4093,0 0.3982,0.0209 0.7913,0.0933 1.187,0.14987 0.9004,0.20491 1.7908,0.62055 2.3972,1.33606 0.6222,0.81795 0.8471,1.91579 0.6414,2.91867 -0.098,0.79714 -0.4165,1.54013 -0.6997,2.2848 -0.663,1.80583 -1.3377,3.60752 -2.0083,5.41086 -0.4831,1.16946 -0.7579,2.4797 -1.6384,3.4376 -0.5472,0.57974 -1.3435,0.89793 -2.1315,0.94124 -7.639,-0.005 -15.2789,0.003 -22.9179,-0.003 0.713,-2.09488 1.501,-4.1631 2.2023,-6.26132 5.3526,0.005 10.7052,-8.4e-4 16.0577,0.003 0.6655,-0.0209 1.3738,-0.28222 1.8142,-0.72217 0.4404,-0.43995 0.5539,-1.01537 0.7838,-1.54505 0.2474,-0.5468 0.32,-0.87436 0.228,-1.14586 -0.092,-0.2715 -0.2314,-0.28931 -0.6483,-0.40101 -0.4169,-0.1117 -1.5668,-0.12411 -2.3506,-0.14073 -3.8341,-0.0107 -7.6698,0.02 -11.5039,-0.0159 -0.1424,-0.0291 -0.2874,-0.0534 -0.4306,-0.075 -1.097,-0.2249 -2.2149,-0.78465 -2.7713,-1.80001 -0.3248,-0.53726 -0.4564,-1.17031 -0.4173,-1.79419 -0.043,-0.743 0.1525,-1.46849 0.3882,-2.16568 0.3232,-0.85961 0.578,-1.74254 0.9079,-2.59965 0.5647,-1.73088 1.2086,-3.4351 1.7325,-5.17931 0.2741,-0.85878 0.8005,-1.68923 1.6335,-2.09321"
         style="fill:#adbf2a;fill-opacity:1;fill-rule:nonzero;stroke:none;stroke-width:1.52463245;stroke-opacity:1"
         id="path4538" />
      <path
         id="path4540"
         d="m -1432.3042,249.1106 c -0.7436,0.006 -1.4983,0.11466 -2.163,0.45864 -0.7646,0.35235 -1.4001,0.99115 -1.7333,1.76496 -1.7841,5.08102 -3.5475,10.16959 -5.3292,15.25061 -0.2916,0.94707 -0.7514,1.83159 -1.0437,2.777 -0.3616,1.24285 -0.6689,2.57637 -0.3633,3.86412 0.1967,0.92208 0.903,1.71009 1.7917,2.0207 0.504,0.17492 1.0329,0.30991 1.5718,0.28658 6.5813,-0.006 13.1624,-0.003 19.7435,-0.002 1.1379,0.0691 2.3141,-0.39727 3.0646,-1.2618 0.6472,-0.69226 0.8254,-1.65769 1.1709,-2.50979 1.6352,-4.65621 3.2928,-9.30572 4.9279,-13.96109 0.589,-1.61676 1.2177,-3.25768 1.3136,-4.99357 0.052,-0.99537 -0.1784,-2.09076 -0.938,-2.78962 -0.7605,-0.68134 -1.8174,-0.83626 -2.7978,-0.90206 -6.2997,8.4e-4 -12.5994,0 -18.8982,0 -0.1055,-0.003 -0.2113,-0.005 -0.3175,-0.003 z m 4.2673,6.26187 c 0.3214,-0.003 0.6439,0.008 0.9606,0.003 2.6663,0 5.3325,8.8e-4 7.9979,-7.8e-4 0.4432,0.0107 0.9705,0.13737 1.1921,0.56303 0.1907,0.40815 0.2316,0.89048 0.081,1.31945 -1.0979,3.14356 -2.2007,6.28464 -3.3002,9.42813 -0.2358,0.65637 -0.4206,1.36771 -0.9029,1.89496 -0.014,0.0334 -0.043,0.0991 -0.057,0.13234 -0.4532,0.28329 -0.953,0.55318 -1.5011,0.55652 -3.3659,-10e-4 -6.7327,-0.003 -10.0987,9.2e-4 -0.3131,0.008 -0.5946,-0.19418 -0.7787,-0.4325 -0.245,-0.35975 -0.2083,-0.82029 -0.1675,-1.23095 0.3332,-1.10033 0.7572,-2.16989 1.107,-3.26439 0.3099,-0.74883 0.5031,-1.53849 0.8088,-2.28816 0.3057,-0.94623 0.6606,-1.87493 0.9696,-2.82032 0.3648,-0.91458 0.5738,-1.89828 1.0887,-2.74707 0.2823,-0.34816 0.6071,-0.68802 1.0344,-0.85378 0.4982,-0.21291 1.0309,-0.25571 1.5666,-0.26068 z"
         style="fill:#adbf2a;fill-opacity:1;fill-rule:nonzero;stroke:none;stroke-width:1.52463245;stroke-opacity:1" />
    </g>
  </g>
</svg>
