<svg id="Artwork" xmlns="http://www.w3.org/2000/svg" viewBox="0 0 1211.99 317.98"><defs><style>.cls-1{fill:#67788a;}</style></defs><path class="cls-1" d="M185.34,107.51v13.93a1.43,1.43,0,0,1-1.52,1.51H124v28.47h49.37a1.43,1.43,0,0,1,1.51,1.51v13.94a1.43,1.43,0,0,1-1.51,1.51H124v42.09A1.43,1.43,0,0,1,122.5,212h-15a1.44,1.44,0,0,1-1.52-1.52v-103a1.44,1.44,0,0,1,1.52-1.52h76.31A1.44,1.44,0,0,1,185.34,107.51Z"/><path class="cls-1" d="M307.38,212h-16.5a1.66,1.66,0,0,1-1.75-1.37c-2.19-8.7-4.84-17.86-7.87-27.1H230.61c-3,9.24-5.68,18.4-7.8,27.1a1.65,1.65,0,0,1-1.74,1.37h-15.9c-1.06,0-1.66-.61-1.36-1.67,9.54-33.76,24.07-71,38.76-102.36a2.9,2.9,0,0,1,3-2H267a2.9,2.9,0,0,1,3,2,692.81,692.81,0,0,1,38.76,102.36C309.05,211.38,308.44,212,307.38,212Zm-31.72-44.82c-5.53-15.3-11.66-30.59-18-44.52h-3.55c-6.29,13.93-12.5,29.22-18,44.52Z"/><path class="cls-1" d="M334.48,159.9C334.48,127,356.13,104,387,104h2.27c19.39,0,34.38,9.84,42.33,24.07a1.34,1.34,0,0,1-.53,2.12l-13.33,6.59a1.85,1.85,0,0,1-2.65-.68c-5.6-9.69-14-14.84-26.42-14.84h-2.27c-19.46,0-32.86,15.44-32.86,37.85s13.17,37.55,32.86,37.55h2.27c12.72,0,20.14-4.31,25.82-10.9a1.93,1.93,0,0,1,2.5-.53l13.7,6.66a1.28,1.28,0,0,1,.76,1.06,2,2,0,0,1-.46,1.14c-8.4,12.27-23.54,19.84-42,19.84h-2.27C355.3,214,334.48,192.38,334.48,159.9Z"/><path class="cls-1" d="M552.22,196.54v13.93a1.44,1.44,0,0,1-1.51,1.52h-79.5a1.43,1.43,0,0,1-1.51-1.52v-103a1.43,1.43,0,0,1,1.51-1.52h78.13a1.44,1.44,0,0,1,1.52,1.52v13.93a1.43,1.43,0,0,1-1.52,1.51H487.71v27.56h50.12a1.44,1.44,0,0,1,1.52,1.52v13.78a1.44,1.44,0,0,1-1.52,1.51H487.71V195h63A1.43,1.43,0,0,1,552.22,196.54Z"/><path class="cls-1" d="M689.1,182.92c0,18.54-14.23,29.07-39.37,29.07H597.64a1.43,1.43,0,0,1-1.51-1.52v-103a1.43,1.43,0,0,1,1.51-1.52h47.47c24.46,0,37.78,9.69,37.78,27.41,0,11.66-5.9,19.31-17.87,22.86C681.83,159.82,689.1,169.89,689.1,182.92ZM644.73,122.5H614.15V151h30.58c13.71,0,20-4.47,20-14.24S658.44,122.5,644.73,122.5Zm25.9,58.83c0-9.85-6.51-14.31-20.82-14.31H614.15v28.46h35.66C664.34,195.48,670.63,191.24,670.63,181.33Z"/><path class="cls-1" d="M720.82,159c0-31.95,21.2-55,54.51-55h2.27c33.31,0,54.51,23,54.51,55s-21.2,55-54.51,55h-2.27C742,214,720.82,190.94,720.82,159Zm56.78,37.7c21.73,0,35.43-14.91,35.43-37.7s-13.7-37.7-35.43-37.7h-2.27c-21.73,0-35.43,14.91-35.43,37.7s13.7,37.7,35.43,37.7Z"/><path class="cls-1" d="M862.85,159c0-31.95,21.2-55,54.51-55h2.27c33.31,0,54.51,23,54.51,55s-21.2,55-54.51,55h-2.27C884.05,214,862.85,190.94,862.85,159Zm56.78,37.7c21.73,0,35.43-14.91,35.43-37.7s-13.7-37.7-35.43-37.7h-2.27c-21.73,0-35.43,14.91-35.43,37.7s13.7,37.7,35.43,37.7Z"/><path class="cls-1" d="M1104.74,212H1085.2a2.88,2.88,0,0,1-2.65-1.29,413.18,413.18,0,0,0-43.68-44h-8.78v43.76a1.44,1.44,0,0,1-1.52,1.52h-15a1.43,1.43,0,0,1-1.51-1.52v-103a1.43,1.43,0,0,1,1.51-1.52h15a1.44,1.44,0,0,1,1.52,1.52V149.3H1039a325.26,325.26,0,0,0,39.52-42.17,2.44,2.44,0,0,1,2.27-1.14h18.48c.9,0,1.36.46,1.36,1.06a1.85,1.85,0,0,1-.53,1.14,377.92,377.92,0,0,1-47.32,49.21,456.62,456.62,0,0,1,52.77,52.69C1106.4,211.08,1106,212,1104.74,212Z"/></svg>