<?xml version="1.0" encoding="UTF-8" standalone="no"?>
<!-- Created with Inkscape (http://www.inkscape.org/) by Marsupilami -->
<svg
   xmlns:svg="http://www.w3.org/2000/svg"
   xmlns="http://www.w3.org/2000/svg"
   version="1.0"
   width="1024"
   height="179"
   viewBox="0 0 217.5 37.973751"
   id="svg3244">
  <defs
     id="defs3246" />
  <g
     transform="translate(-266.25,-513.37531)"
     id="layer1">
    <path
       d="M 20.5625,11.03125 L 11.40625,14.46875 L 11.40625,12.875 L 8.0625,12.875 L 8.0625,15.65625 L 4.9375,16.84375 L 0.53125,24.375 L 13.65625,23.1875 L 20.125,12.875 L 25.625,24.46875 L 27,24.46875 L 20.5625,11.03125 z M 44.875,13.65625 L 44.875,14.5625 L 48.65625,14.5625 L 48.65625,36.46875 L 44.875,36.46875 L 44.875,37.34375 L 57.375,37.34375 L 57.375,36.46875 L 53.5625,36.46875 L 53.5625,25.625 C 57.7,25.51875 59.0625,26.37625 59.40625,30.3125 L 60.46875,30.3125 L 60.46875,20.40625 L 59.40625,20.40625 C 59.214999,24.201251 57.24,24.75 53.5625,24.75 L 53.5625,14.5625 L 57.75,14.5625 C 59.321251,14.5625 60.845,14.67625 61.6875,15.03125 C 64.215001,16.095 64.8075,18.565 65.34375,20.90625 L 66.375,20.90625 L 66.09375,13.65625 L 44.875,13.65625 z M 148.03125,13.65625 L 148.03125,14.5625 L 151.8125,14.5625 L 151.8125,36.46875 L 148.03125,36.46875 L 148.03125,37.34375 L 156.75,37.34375 L 156.75,36.46875 L 153.03125,36.46875 L 153.03125,15.15625 L 153.125,15.15625 L 160.75,37.34375 L 162.03125,37.34375 L 169.71875,15.15625 L 169.8125,15.15625 L 169.8125,36.46875 L 166.03125,36.46875 L 166.03125,37.34375 L 178.5,37.34375 L 178.5,36.46875 L 174.71875,36.46875 L 174.71875,14.5625 L 178.5,14.5625 L 178.5,13.65625 L 168.8125,13.65625 L 163.28125,29.875 L 157.90625,13.65625 L 148.03125,13.65625 z M 126.4375,14.71875 C 125.40375,14.71875 124.375,15.69875 124.375,16.65625 C 124.375,17.685 125.25,18.78125 126.4375,18.78125 C 127.74,18.781249 128.6875,17.8625 128.6875,16.65625 C 128.68749,15.5925 127.54875,14.71875 126.4375,14.71875 z M 17.28125,19.15625 L 17.28125,21.6875 L 18.96875,22.03125 L 18.96875,19.5 L 17.28125,19.15625 z M 71.375,23.09375 C 69.038753,23.093749 65.28125,24.055 65.28125,26.75 C 65.28125,27.88375 66.1775,28.4375 67.25,28.4375 C 68.131251,28.437499 69.09375,27.79625 69.09375,26.875 C 69.093748,26.201251 68.7925,25.44 68.5625,25.15625 C 67.987503,24.4825 69.79375,23.8125 71.25,23.8125 C 71.901251,23.8125 73.78125,24.1725 73.78125,25.09375 L 73.78125,29.53125 C 70.333747,29.352501 64.1875,30.2175 64.1875,34.4375 C 64.187502,36.706252 65.88875,37.90625 68.1875,37.90625 C 70.331252,37.906249 72.4025,36.93625 73.78125,35.375 C 74.011247,36.936249 75.065,37.90625 76.75,37.90625 C 78.358752,37.906249 79.41,37.135 80.40625,36 L 79.9375,35.5 C 79.631253,35.783751 79.0525,36.34375 78.59375,36.34375 C 78.133749,36.343751 77.6875,36.11625 77.6875,35.65625 L 77.6875,26.21875 C 77.687497,25.118751 77.3525,24.5575 76.28125,24.0625 C 74.786249,23.352499 73.02125,23.09375 71.375,23.09375 z M 93.75,23.09375 C 90.992502,23.093749 89.2875,24.30125 88.0625,26.5 L 87.96875,26.5 L 87.96875,23.1875 C 85.593747,23.25875 83.26625,23.38375 81.3125,23.3125 L 81.3125,24.1875 L 83.90625,24.1875 L 83.90625,36.46875 L 81.3125,36.46875 L 81.3125,37.34375 L 90.40625,37.34375 L 90.40625,36.46875 L 87.96875,36.46875 L 87.96875,31.78125 C 87.968747,30.11375 87.97,28.48375 88.46875,27.3125 C 89.042498,26 90.54,24.375 92.1875,24.375 C 94.752502,24.375001 94.375,26.79625 94.375,30.09375 L 94.375,36.46875 L 91.96875,36.46875 L 91.96875,37.34375 L 100.84375,37.34375 L 100.84375,36.46875 L 98.4375,36.46875 L 98.4375,29.90625 C 98.437501,26.396251 98.84375,23.09375 93.75,23.09375 z M 114.25,23.09375 C 111.4925,23.093749 109.7875,24.30125 108.5625,26.5 L 108.46875,26.5 L 108.46875,23.1875 C 106.095,23.25875 103.76625,23.38375 101.8125,23.3125 L 101.8125,24.1875 L 104.40625,24.1875 L 104.40625,36.46875 L 101.8125,36.46875 L 101.8125,37.34375 L 110.875,37.34375 L 110.875,36.46875 L 108.46875,36.46875 L 108.46875,31.78125 C 108.46875,30.11375 108.47,28.48375 108.96875,27.3125 C 109.5425,26 111.04,24.375 112.6875,24.375 C 115.25375,24.375001 114.875,26.79625 114.875,30.09375 L 114.875,36.46875 L 112.46875,36.46875 L 112.46875,37.34375 L 121.34375,37.34375 L 121.34375,36.46875 L 118.9375,36.46875 L 118.9375,29.90625 C 118.9375,26.396251 119.34375,23.09375 114.25,23.09375 z M 140.03125,23.09375 C 135.8575,23.093749 132.40625,26.66125 132.40625,30.5625 C 132.40624,34.180001 135.42,37.90625 139.59375,37.90625 C 143.31,37.906249 145.9425,36.3775 146.9375,32.9375 L 146,32.9375 C 145.23501,35.34875 143.1325,37.1875 140.375,37.1875 C 137.11874,37.187501 136.96875,34.82625 136.96875,32.34375 L 136.96875,29.53125 L 145.90625,29.53125 C 146.51875,29.531251 146.875,29.62 146.875,28.875 C 146.875,25.363749 143.59375,23.09375 140.03125,23.09375 z M 186.625,23.09375 C 184.28875,23.093749 180.5625,24.055 180.5625,26.75 C 180.5625,27.88375 181.45875,28.4375 182.53125,28.4375 C 183.41251,28.437499 184.375,27.79625 184.375,26.875 C 184.375,26.201251 184.0725,25.44 183.84375,25.15625 C 183.26875,24.4825 185.075,23.8125 186.53125,23.8125 C 187.18251,23.8125 189.0625,24.1725 189.0625,25.09375 L 189.0625,29.53125 C 185.61625,29.352501 179.46875,30.2175 179.46875,34.4375 C 179.46874,36.706252 181.17,37.90625 183.46875,37.90625 C 185.61374,37.906249 187.685,36.93625 189.0625,35.375 C 189.29375,36.936249 190.345,37.90625 192.03125,37.90625 C 193.63874,37.906249 194.69125,37.135 195.6875,36 L 195.21875,35.5 C 194.9125,35.783751 194.335,36.34375 193.875,36.34375 C 193.41625,36.343751 192.96875,36.11625 192.96875,35.65625 L 192.96875,26.21875 C 192.96875,25.118751 192.60375,24.5575 191.53125,24.0625 C 190.03751,23.352499 188.2725,23.09375 186.625,23.09375 z M 203.96875,23.09375 C 199.79376,23.093749 196.34375,26.66125 196.34375,30.5625 C 196.34375,34.180001 199.38875,37.90625 203.5625,37.90625 C 207.27751,37.906249 209.91,36.3775 210.90625,32.9375 L 209.9375,32.9375 C 209.17125,35.34875 207.07,37.1875 204.3125,37.1875 C 201.05626,37.187501 200.90625,34.82625 200.90625,32.34375 L 200.90625,29.53125 L 209.875,29.53125 C 210.4875,29.531251 210.84375,29.62 210.84375,28.875 C 210.84375,25.363749 207.53,23.09375 203.96875,23.09375 z M 128.8125,23.1875 C 126.47625,23.25875 124.13375,23.38375 121.875,23.3125 L 121.875,24.1875 L 124.65625,24.1875 L 124.65625,36.46875 L 121.875,36.46875 L 121.875,37.34375 L 131.65625,37.34375 L 131.65625,36.46875 L 128.8125,36.46875 L 128.8125,23.1875 z M 139.78125,23.8125 C 143.19001,23.8125 142.5625,26.25 142.5625,28.625 L 136.96875,28.625 C 136.96875,26.39125 136.6025,23.8125 139.78125,23.8125 z M 203.75,23.8125 C 207.15875,23.8125 206.5,26.25 206.5,28.625 L 200.90625,28.625 C 200.90624,26.39125 200.5725,23.8125 203.75,23.8125 z M 18.09375,24.21875 L 18.125,28.09375 C 18.125,28.09375 9.365,24.09375 0,25.9375 L 0,37.3125 L 5.5,37.3125 C 1.6384897,31.203203 5.2046528,30.133013 10.9375,30.375 C 14.0025,30.50375 17.86375,30.9225 19.03125,28.625 C 19.07125,28.5475 20.749999,29.468751 20.75,29.46875 L 20.75,24.875 L 18.15625,24.3125 L 18.09375,24.21875 z M 72.84375,30.28125 C 73.157964,30.267915 73.484375,30.28125 73.78125,30.28125 L 73.78125,32.21875 C 73.781247,32.892499 73.72875,33.53 73.5,34.0625 C 73.039999,35.197501 72.05875,36.15625 70.71875,36.15625 C 68.918748,36.15625 68.21875,34.99875 68.21875,33.4375 C 68.218747,30.924062 70.644252,30.374595 72.84375,30.28125 z M 188.125,30.28125 C 188.43909,30.267915 188.76578,30.28125 189.0625,30.28125 L 189.0625,32.21875 C 189.0625,32.892499 189.01125,33.53 188.78125,34.0625 C 188.32125,35.197501 187.34,36.15625 186,36.15625 C 184.19875,36.15625 183.5,34.99875 183.5,33.4375 C 183.5,30.924062 185.92634,30.374595 188.125,30.28125 z M 21.9375,30.34375 C 21.64875,30.59125 22.59375,31.24875 16.71875,31.90625 C 10.015,32.6575 10.42875,34.265001 14.03125,37.375 L 27.78125,37.375 C 26.7125,34.265 22.225001,30.0975 21.9375,30.34375 z M 215.0625,32.9375 C 213.71999,32.937501 212.46875,33.8875 212.46875,35.625 C 212.46876,36.885 213.70625,37.96875 215.0625,37.96875 C 216.37374,37.968749 217.5,36.87875 217.5,35.625 C 217.5,33.8925 216.36125,32.9375 215.0625,32.9375 z M 215.03125,33.46875 C 216.1325,33.468749 217,34.15 217,35.625 C 217,36.69625 216.1325,37.46875 215.03125,37.46875 C 213.90875,37.468751 212.96875,36.69625 212.96875,35.625 C 212.96875,34.15 213.90875,33.46875 215.03125,33.46875 z M 214,33.96875 L 214,36.90625 L 214.5,36.90625 L 214.5,35.96875 L 214.71875,35.96875 C 215.0125,35.96875 215.0975,36.0875 215.375,36.5625 L 215.625,36.90625 L 216.15625,36.90625 L 215.84375,36.46875 C 215.48626,36.03125 215.35125,35.97875 215.21875,35.90625 L 215.21875,35.875 C 215.7525,35.828751 216,35.2775 216,34.90625 C 216.00001,34.635 215.88875,34.39625 215.71875,34.21875 C 215.48001,33.958749 215.17125,33.96875 214.90625,33.96875 L 214,33.96875 z M 214.5,34.46875 L 214.90625,34.46875 C 215.13,34.468748 215.5,34.47125 215.5,34.96875 C 215.49999,35.475001 215.11125,35.46875 214.9375,35.46875 L 214.5,35.46875 L 214.5,34.46875 z"
       transform="translate(266.25,513.37531)"
       id="path2446"
       style="fill:#258165;fill-opacity:1;fill-rule:nonzero;stroke:none" />
    <path
       d="M 301.7375,550.60656 L 302.88125,550.60656 L 302.88125,513.37531 L 266.37875,513.37531 L 266.38,520.86281 C 266.36375,516.28406 269.42875,517.74281 269.61625,517.74281 C 269.61625,517.74281 270.4275,516.70031 271.5025,517.39656 C 272.57875,515.49406 274.06,514.43406 276.2425,514.43406 C 278.37875,514.43406 280.04625,515.91531 280.39,518.05031 C 280.7025,517.72406 282.915,517.11031 283.5675,519.39906 L 283.58,519.39906 C 285.92125,519.26031 288.93375,520.32906 289.68125,522.72406 C 291.1,521.30531 292.8425,521.09656 293.9675,521.09656 C 295.72875,521.09656 298.84125,522.35281 300.02125,525.27281 C 301.4075,528.70781 300.4575,531.47031 299.205,532.93656 C 298.1575,534.16406 296.85125,534.90281 295.99,535.03031 C 295.99,535.03031 297.8275,536.91906 296.08125,538.66531 C 296.08125,538.66531 297.7125,539.64031 298.71625,541.27656 C 299.68375,542.85406 300.02125,543.98656 300.23875,545.58531 C 302,546.28906 302.4575,547.96156 301.7375,550.60656"
       id="path2466"
       style="fill:#2966b7;fill-opacity:1;fill-rule:nonzero;stroke:none" />
  </g>
</svg>
