<svg xmlns="http://www.w3.org/2000/svg" role="img" viewBox="83.65 -5.10 252.20 89.95"><title>Finos</title><defs><style>.cls-1{fill:#0086bf}</style></defs><path d="M159.9905 20.71h29.05879v7.62627h-20.64357v8.15225H186.551v7.62628h-18.27677v14.8581H159.859V20.71zm36.55359 0h8.4152v38.26294h-8.4152zm18.01381 0h7.75777L240.198 44.2463V20.71h8.28371v38.26294h-7.10032l-18.5398-24.32523v24.32523h-8.28373V20.71zm41.15566 19.32868c0-10.91347 8.5467-19.85466 20.38059-19.85466s20.2491 8.8097 20.2491 19.72316v.1315c0 10.91346-8.5467 19.72315-20.38059 19.72315s-20.2491-8.94114-20.2491-19.72315zm31.82 0c0-6.70588-4.86506-12.09689-11.5709-12.09689s-11.43945 5.391-11.43945 11.96539v.1315c0 6.57438 4.86506 11.96539 11.5709 11.96539s11.43945-5.52246 11.43945-11.96539zm13.14877 13.41176l4.99652-5.91695c3.41869 2.89275 7.10033 4.60207 11.43945 4.60207 3.41869 0 5.5225-1.31487 5.5225-3.55018v-.1315c0-2.10381-1.31488-3.28719-7.75777-4.86506-7.75777-1.97231-12.62283-4.07613-12.62283-11.7024v-.13149c0-6.96884 5.5225-11.57091 13.41176-11.57091a21.86689 21.86689 0 0 1 14.20066 4.86507l-4.33908 6.31139c-3.41869-2.36676-6.70588-3.81314-9.99307-3.81314s-4.86506 1.44638-4.86506 3.2872v.13146c0 2.49826 1.57787 3.2872 8.28371 4.99652 7.75776 1.97235 12.09688 4.86509 12.09688 11.43948v.13149c0 7.62627-5.78545 11.8339-14.0692 11.8339a23.596 23.596 0 0 1-16.30447-5.91695z" class="cls-1"/><path fill="#00b5e2" d="M136.636-.097v19.023L88.693 34.285V15.327L136.572-.097h.064zm-47.943 46.4v33.74h18.638V59.349l29.305-9.383V30.944L88.693 46.303z"/><path d="M136.63608 30.87926c0-.06428-.06427-.06428 0 0l-.06427-.06428-18.44442-5.91249-29.43394 9.44714v.1928h.06427l18.44441 5.91249 29.43393-9.44713z" class="cls-1"/></svg>