<svg width="903" height="1042" viewBox="0 0 903 1042" fill="none" xmlns="http://www.w3.org/2000/svg">
<g id="mark">
<path id="Polygon" d="M451.015 0L902.03 260.394V781.181L451.015 1041.57L0 781.181V260.394L451.015 0Z" fill="white"/>
<g id="Union">
<path d="M757.013 781.321L830.013 739.115V427L757.013 469.206V781.321Z" fill="black"/>
<path d="M703.013 812.543L631.013 854.171V542.056L703.013 500.428V812.543Z" fill="black"/>
<path d="M505.013 927.021V614.905L577.013 573.277V885.393L505.013 927.021Z" fill="black"/>
<path fill-rule="evenodd" clip-rule="evenodd" d="M451.015 0L902.03 260.394V781.181L451.015 1041.57L0 781.181V260.394L451.015 0ZM451.013 21L884.025 271H675.59L451.013 521L18.0001 271L451.013 21ZM18 333L18.0001 771L451.013 1021L884.025 771L884.025 333L451.013 583L18 333Z" fill="black"/>
</g>
</g>
</svg>
