<svg xmlns="http://www.w3.org/2000/svg" id="LOGO" width="692.348" height="150" version="1.1"><defs id="defs1"><style id="style1">.cls-2{fill:#fc6d26}</style></defs><path id="path1" d="M278.695 56.507h22.775c-3.795-24.22-24.763-41.092-52.058-41.092-32.295 0-56.517 23.74-56.517 63.506 0 39.044 23.137 63.266 57.18 63.266 30.548 0 52.42-19.643 52.42-51.457V75.91h-50.07v17.473h28.44c-.362 17.593-12.112 28.74-30.67 28.74-20.666 0-34.825-15.485-34.825-43.442 0-27.776 14.4-43.2 34.344-43.2 14.882 0 25.004 7.952 28.98 21.027zm38.853 83.992h21.81V47.951h-21.81zm10.966-107.203c6.93 0 12.592-5.303 12.592-11.81 0-6.567-5.663-11.87-12.592-11.87-6.99 0-12.653 5.303-12.653 11.87 0 6.507 5.664 11.81 12.653 11.81zm76.159 14.655h-18.257V25.78h-21.81v22.173H351.47v16.871h13.135v51.456c-.12 17.413 12.533 25.968 28.92 25.486 6.207-.18 10.486-1.385 12.835-2.169l-3.674-17.05c-1.206.3-3.676.842-6.388.842-5.482 0-9.882-1.928-9.882-10.725v-47.84h18.258v-16.87zm16.88 92.548h76.703v-18.738h-54.348V17.101h-22.354zm118.476 1.868c14.52 0 23.197-6.808 27.173-14.58h.723v12.712h20.969V78.56c0-24.462-19.944-31.813-37.598-31.813-19.462 0-34.405 8.677-39.225 25.547l20.366 2.892c2.169-6.326 8.314-11.749 18.979-11.749 10.123 0 15.666 5.182 15.666 14.28v.361c0 6.267-6.568 6.568-22.896 8.315-17.956 1.928-35.127 7.29-35.127 28.138 0 18.197 13.316 27.837 30.97 27.837zm7.17-16.027c-9.098 0-15.605-4.158-15.605-12.17 0-8.376 7.29-11.87 17.052-13.257 5.724-.783 17.172-2.23 20.004-4.519V107.3c0 10.303-8.316 19.04-21.45 19.04zm57.784 14.16h21.449v-14.58h1.265c3.435 6.747 10.605 16.207 26.512 16.207 21.81 0 38.139-17.292 38.139-47.78 0-30.85-16.81-47.6-38.2-47.6-16.328 0-23.137 9.821-26.451 16.51h-.903V17.103h-21.81V140.5Zm21.389-46.275c0-17.955 7.712-29.584 21.75-29.584 14.52 0 21.994 12.352 21.994 29.584 0 17.353-7.592 30.006-21.994 30.006-13.918 0-21.75-12.05-21.75-30.006z" style="fill:#171321"/><path id="path2" d="m153.134 59.371-.214-.558-21.2-55.309a5.477 5.477 0 0 0-2.176-2.627 5.64 5.64 0 0 0-6.531.348 5.569 5.569 0 0 0-1.875 2.854l-14.313 43.806h-57.91L34.602 4.08a5.569 5.569 0 0 0-1.875-2.854 5.64 5.64 0 0 0-6.531-.348 5.477 5.477 0 0 0-2.177 2.627l-21.2 55.313-.213.554c-6.281 16.386-.93 34.908 13.06 45.488.025.017.048.036.075.056l.187.141 32.29 24.174 15.972 12.09 9.72 7.35a6.56 6.56 0 0 0 7.92 0l9.72-7.35 15.967-12.09 32.482-24.315.085-.066c13.979-10.58 19.328-29.096 13.05-45.478z" style="fill:#e24329"/><path id="path3" d="m153.134 59.371-.214-.558a71.592 71.592 0 0 0-28.5 12.816l-46.55 35.197a66468.675 66468.675 0 0 0 29.647 22.404l32.482-24.315.085-.066c13.979-10.58 19.328-29.096 13.05-45.478z" class="cls-2"/><path id="path4" d="m48.219 129.23 15.97 12.09 9.72 7.35a6.56 6.56 0 0 0 7.92 0l9.72-7.35 15.968-12.09S93.72 118.811 77.87 106.826a82406.19 82406.19 0 0 1-29.651 22.404z" style="fill:#fca326"/><path id="path5" d="M31.314 71.63A71.532 71.532 0 0 0 2.82 58.816l-.214.554c-6.281 16.386-.93 34.908 13.06 45.488.025.017.048.036.075.056l.187.141 32.29 24.174s13.798-10.419 29.652-22.404C56.523 90.687 31.45 71.728 31.315 71.63z" class="cls-2"/></svg>