<svg xmlns="http://www.w3.org/2000/svg" xmlns:xlink="http://www.w3.org/1999/xlink" viewBox="0 0 992 94.62"><defs><style>.cls-1{fill:#003d6b;fill-rule:evenodd;}.cls-2{fill:url(#Sfumatura_senza_nome_2);}.cls-3{fill:url(#linear-gradient);}.cls-4{fill:#133e69;}</style><linearGradient id="Sfumatura_senza_nome_2" x1="0.01" y1="66.24" x2="101.67" y2="66.24" gradientUnits="userSpaceOnUse"><stop offset="0" stop-color="#35b7c5"/><stop offset="0.5" stop-color="#1b80be"/><stop offset="1" stop-color="#1367af"/></linearGradient><linearGradient id="linear-gradient" x1="76.19" y1="28.39" x2="177.86" y2="28.39" xlink:href="#Sfumatura_senza_nome_2"/></defs><title>HCL_Software_Logo</title><g id="Layer_2" data-name="Layer 2"><g id="Layer_1-2" data-name="Layer 1"><path class="cls-1" d="M395,13.08a49.23,49.23,0,0,1,7.39-.58,52,52,0,0,1,7.59.58v57.4h25.89a26.38,26.38,0,0,1,.42,3.14c.07,1,.1,1.95.1,2.86s0,2-.1,3a26.66,26.66,0,0,1-.42,3.14H395Z"/><path class="cls-1" d="M381.13,69.28a36.65,36.65,0,0,1,2.23,5.54,36,36,0,0,1,1.29,5.74A51.71,51.71,0,0,1,375,83a69,69,0,0,1-9.27.58,41.31,41.31,0,0,1-15.43-2.65,30.77,30.77,0,0,1-11.14-7.42,31.24,31.24,0,0,1-6.78-11.33,43.08,43.08,0,0,1-2.28-14.26,42.1,42.1,0,0,1,2.38-14.32,32.88,32.88,0,0,1,6.89-11.42,31.14,31.14,0,0,1,11.08-7.52,39.14,39.14,0,0,1,15-2.7,66.5,66.5,0,0,1,9.16.58,42.18,42.18,0,0,1,9.07,2.41,20,20,0,0,1-1.24,5.64q-1,2.74-2.28,5.54a48.71,48.71,0,0,0-6.43-1.64,39.64,39.64,0,0,0-6.62-.48q-9.94,0-15.28,6t-5.33,17.88q0,23.52,21.43,23.52a41.79,41.79,0,0,0,6.74-.48A48.52,48.52,0,0,0,381.13,69.28Z"/><path class="cls-1" d="M263.1,13.34a51.26,51.26,0,0,1,7.56-.58,53.46,53.46,0,0,1,7.66.58V42.52h25V13.34a51.5,51.5,0,0,1,7.57-.58,53.57,53.57,0,0,1,7.66.58V82.65a52.86,52.86,0,0,1-7.56.58,52.12,52.12,0,0,1-7.67-.58v-28h-25v28a52.75,52.75,0,0,1-7.56.58,52,52,0,0,1-7.66-.58Z"/><path class="cls-1" d="M487.59,50.83a45.59,45.59,0,0,1-6.24-2.74,18.56,18.56,0,0,1-4.7-3.57,14.68,14.68,0,0,1-3-5,20.07,20.07,0,0,1-1.07-6.93A20,20,0,0,1,474.35,24a17.37,17.37,0,0,1,5.06-6.31,22.78,22.78,0,0,1,7.87-3.85,37.84,37.84,0,0,1,10.32-1.3,51.88,51.88,0,0,1,9.76.87,76.19,76.19,0,0,1,9.56,2.5,32.88,32.88,0,0,1-3.27,11c-1-.39-2.06-.77-3.12-1.16a26.63,26.63,0,0,0-3.37-1,37.94,37.94,0,0,0-4-.63,48.79,48.79,0,0,0-5.11-.23,22.26,22.26,0,0,0-3.52.28,10.34,10.34,0,0,0-3.22,1.06,6.16,6.16,0,0,0-2.35,2.27,7.26,7.26,0,0,0-.92,3.9,6.56,6.56,0,0,0,.71,3.22,7,7,0,0,0,1.94,2.22,12.69,12.69,0,0,0,2.76,1.54c1,.42,2,.82,3.07,1.2l6.13,2.22q3.88,1.44,7.05,3A18.81,18.81,0,0,1,515,48.57a16,16,0,0,1,3.43,5.49A22.66,22.66,0,0,1,519.68,62a20.91,20.91,0,0,1-1.89,9,19.34,19.34,0,0,1-5.47,6.94,26.39,26.39,0,0,1-8.84,4.52,40.55,40.55,0,0,1-12.11,1.64q-3.37,0-6-.19a47.22,47.22,0,0,1-9.81-1.74c-1.57-.44-3.21-1-4.91-1.63a38.47,38.47,0,0,1,1.12-5.83q.83-3,1.95-6.12A56.82,56.82,0,0,0,481.76,71a37.82,37.82,0,0,0,8.08.82q6.44,0,10.11-2.27a7.52,7.52,0,0,0,3.68-6.88,7.72,7.72,0,0,0-.87-3.85,8.39,8.39,0,0,0-2.24-2.6,13.58,13.58,0,0,0-3.12-1.79c-1.16-.48-2.35-.94-3.58-1.39Z"/><path class="cls-1" d="M562.19,84.06a34.8,34.8,0,0,1-14.31-2.7A26.49,26.49,0,0,1,538,73.9a31.61,31.61,0,0,1-5.78-11.27,50.72,50.72,0,0,1-1.89-14.21,51.78,51.78,0,0,1,1.89-14.3A31.93,31.93,0,0,1,538,22.71a26.32,26.32,0,0,1,9.91-7.52,39.41,39.41,0,0,1,28.62,0,26.32,26.32,0,0,1,9.91,7.52,31.93,31.93,0,0,1,5.78,11.41,51.78,51.78,0,0,1,1.89,14.3,50.72,50.72,0,0,1-1.89,14.21,31.61,31.61,0,0,1-5.78,11.27,26.49,26.49,0,0,1-9.91,7.46,34.8,34.8,0,0,1-14.31,2.7Zm0-11.75Q578,72.31,578,48.42q0-11.94-3.83-17.91c-2.56-4-6.52-6-11.91-6q-16,0-16,23.88T562.19,72.31Z"/><path class="cls-1" d="M608.28,13.65H650a28.21,28.21,0,0,1,.61,5.88A29.13,29.13,0,0,1,650,25.6H623.2V41.87h21.26a30.58,30.58,0,0,1,.61,6,30,30,0,0,1-.61,6.06H623.2v29a48.26,48.26,0,0,1-14.92,0Z"/><path class="cls-1" d="M678.84,25.6H660.55a29.12,29.12,0,0,1-.62-6.07,28.22,28.22,0,0,1,.62-5.88h51.62a28.91,28.91,0,0,1,.61,5.88,29.82,29.82,0,0,1-.61,6.07h-18.3V82.9c-1.23.13-2.45.25-3.68.34s-2.42.15-3.58.15-2.4,0-3.73-.1a40.54,40.54,0,0,1-4-.39Z"/><path class="cls-1" d="M721.49,13.65a55.19,55.19,0,0,1,8.38-.57c1.23,0,2.47,0,3.73.09a25.71,25.71,0,0,1,3.73.48l10.53,52.11,12.68-52.11c1.36-.19,2.62-.33,3.78-.43s2.35-.14,3.57-.14a42.47,42.47,0,0,1,6.65.57l13.18,53.46,10.53-53.46a36.92,36.92,0,0,1,6.54-.57,39.81,39.81,0,0,1,4,.19l3.78.38L794.88,82.9a48.88,48.88,0,0,1-7.67.58,67.52,67.52,0,0,1-8.48-.58L767,36.77,754.3,82.9c-1.63.13-3.08.26-4.34.39a40.6,40.6,0,0,1-4.14.19A43.67,43.67,0,0,1,739,82.9Z"/><path class="cls-1" d="M834.92,13.65c1.43-.19,2.8-.33,4.09-.43s2.72-.14,4.29-.14c1.37,0,2.69,0,4,.14s2.72.24,4.29.43l23,69.25a59.18,59.18,0,0,1-8.18.58,48,48,0,0,1-7.56-.58L854.75,69H830.42L826.23,82.9a44.85,44.85,0,0,1-7.05.58,47.41,47.41,0,0,1-7.46-.58l23.2-69.25Zm16.35,43.73-8.48-29.09L833.9,57.38Z"/><path class="cls-1" d="M949,13.65h41.7a28.21,28.21,0,0,1,.61,5.88,29.13,29.13,0,0,1-.61,6.07H963.89v15h21.26a30.59,30.59,0,0,1,.62,6,30,30,0,0,1-.62,6.07H963.89V71h27.5a28.21,28.21,0,0,1,.61,5.88,29,29,0,0,1-.61,6.06H949Z"/><path class="cls-1" d="M884.84,13.67C901.09,13,932.79,9.81,934.35,33c.6,9-4.58,16.14-11.61,18.77l15.35,31.15c-4.37,1-11.3.68-15.76,0L905.59,48.64c4.89-1,14.52-3.51,14.67-12.76.15-9.53-11.91-12.72-20.3-11.42V83c-1.24.12-2.48.24-3.73.33s-2.45.15-3.62.15-2.42,0-3.73-.1-2.66-.19-4-.38Z"/><polygon class="cls-2" points="101.67 56.77 93.27 75.7 25.49 75.7 25.49 75.69 0.01 56.77 101.67 56.77"/><polygon class="cls-3" points="177.86 37.85 76.19 37.85 84.6 18.93 152.38 18.93 152.38 18.94 177.86 37.85"/><polygon class="cls-4" points="152.64 94.62 118.75 94.62 143.97 37.85 177.86 37.85 152.64 94.62"/><polygon class="cls-4" points="59.12 0 33.89 56.77 0 56.77 25.23 0 59.12 0"/></g></g></svg>