<?xml version="1.0" standalone="no"?>
<!DOCTYPE svg PUBLIC "-//W3C//DTD SVG 20010904//EN"
 "http://www.w3.org/TR/2001/REC-SVG-20010904/DTD/svg10.dtd">
<svg version="1.0" xmlns="http://www.w3.org/2000/svg"
 width="400.000000pt" height="120.000000pt" viewBox="0 0 400.000000 120.000000"
 preserveAspectRatio="xMidYMid meet">

<g transform="translate(0.000000,120.000000) scale(0.100000,-0.100000)"
fill="#000000" stroke="none">
<path d="M485 1181 c-16 -10 -131 -77 -255 -149 l-225 -130 0 -302 0 -302 225
-130 c124 -72 240 -139 258 -149 31 -18 33 -18 65 0 17 10 133 77 257 149
l225 130 0 302 0 302 -225 130 c-277 161 -290 168 -293 167 -1 0 -15 -9 -32
-18z m-5 -138 c66 -80 91 -152 105 -306 17 -171 25 -214 36 -195 21 34 319
-162 319 -211 0 -9 -15 -24 -33 -35 -107 -62 -92 -58 -145 -34 -26 12 -74 49
-108 83 -66 65 -97 124 -139 258 -32 103 -52 151 -88 204 -35 53 -111 120
-157 140 -33 14 -34 15 -16 29 28 20 36 18 90 -17 81 -54 137 -136 175 -259
78 -246 86 -262 162 -339 46 -45 114 -81 154 -81 50 0 36 55 -28 109 -38 32
-187 122 -187 113 -1 -4 -7 4 -14 18 -7 14 -26 83 -41 153 -34 160 -61 222
-137 302 l-60 64 34 21 c18 11 36 20 40 20 3 0 21 -17 38 -37z m171 10 c45
-26 49 -31 49 -65 0 -20 -5 -49 -10 -64 -6 -15 -19 -59 -30 -98 -10 -40 -22
-80 -26 -91 -6 -18 -5 -19 7 -3 13 15 22 14 119 -17 225 -71 215 -66 218 -102
4 -42 -6 -42 -99 0 -41 19 -115 48 -165 66 l-90 32 0 147 c1 118 -2 154 -16
185 -9 20 -14 37 -11 37 3 0 27 -12 54 -27z m144 -84 c4 -6 -8 -29 -26 -52
-18 -23 -36 -47 -40 -52 -5 -7 33 -8 114 -3 120 7 145 3 135 -24 -4 -10 -34
-12 -139 -7 -175 7 -193 -9 -36 -34 62 -10 127 -20 145 -23 28 -4 32 -9 32
-36 0 -25 -3 -29 -17 -23 -10 4 -47 13 -83 21 -36 7 -87 20 -115 29 -27 8 -60
15 -72 15 -30 0 -29 7 12 80 19 34 35 64 35 66 0 10 33 54 41 54 4 0 11 -5 14
-11z m34 -49 c-26 -21 -15 -26 26 -10 15 6 32 7 38 3 9 -6 -108 -42 -138 -42
-5 0 8 15 30 34 22 19 46 35 54 35 8 0 3 -8 -10 -20z m-561 -16 c61 -30 134
-108 167 -178 13 -28 36 -94 51 -146 39 -143 86 -230 155 -294 32 -30 68 -57
79 -61 28 -9 25 -22 -10 -40 -37 -19 -50 -13 -112 53 -72 77 -109 165 -138
332 -16 88 -52 172 -100 235 -39 51 -103 96 -116 82 -10 -10 23 -44 80 -83 27
-18 55 -47 62 -64 l13 -30 -39 20 c-90 46 -186 127 -190 160 -7 49 21 53 98
14z m-56 -147 c66 -43 176 -100 193 -100 13 0 17 -21 45 -255 12 -105 38 -168
101 -244 l39 -47 -35 -16 c-30 -15 -39 -15 -66 -3 -65 28 -99 162 -80 321 6
52 11 115 11 139 l0 44 -77 34 c-43 18 -90 42 -105 52 -14 10 -29 18 -32 18
-6 0 -58 35 -109 74 -39 30 -50 69 -25 94 8 8 20 1 50 -32 21 -24 62 -60 90
-79z m-116 -66 c17 -16 118 -67 189 -96 125 -49 134 -56 116 -84 -7 -11 -18
-10 -62 8 -30 11 -103 41 -164 65 -110 44 -110 44 -113 80 -3 36 11 48 34 27z
m597 -57 c91 -38 238 -112 265 -132 19 -14 23 -26 20 -55 l-3 -37 -60 45 c-33
25 -113 71 -177 103 -98 47 -118 61 -118 80 0 12 2 22 5 22 3 0 34 -12 68 -26z
m-465 -129 c75 -25 142 -45 149 -45 8 0 7 -15 -4 -52 -29 -105 -43 -163 -43
-190 0 -33 -3 -33 -40 -11 l-29 16 50 94 c27 52 48 97 45 102 -3 4 -40 16 -83
26 -202 48 -208 50 -211 78 -4 36 3 35 166 -18z m411 -45 c11 -24 11 -24 -3
-6 -9 11 -16 24 -16 30 0 12 5 7 19 -24z m-447 -45 c133 -19 153 -24 141 -36
-5 -5 -65 -6 -141 -3 -130 7 -132 7 -132 31 0 27 -9 27 132 8z m569 -57 c33
-30 34 -44 1 -34 -20 7 -78 58 -102 90 -13 18 -10 17 27 -4 23 -13 56 -36 74
-52z m-476 -15 c-11 -3 -52 -13 -92 -23 -67 -16 -74 -16 -95 -1 -22 15 -20 16
62 22 112 7 150 8 125 2z m-20 -45 c-30 -37 -55 -54 -55 -39 0 8 68 70 78 71
2 0 -8 -15 -23 -32z m-60 -7 c-16 -10 -34 -16 -40 -13 -5 3 4 12 20 18 44 19
54 17 20 -5z"/>
<path d="M1217 1024 c-4 -4 -7 -92 -7 -196 l0 -188 40 0 40 0 -2 193 -3 192
-30 3 c-17 2 -34 0 -38 -4z"/>
<path d="M2472 1010 c-34 -21 -52 -54 -52 -95 0 -35 45 -82 110 -115 65 -33
75 -48 54 -79 -17 -23 -73 -29 -118 -11 -21 8 -27 6 -36 -10 -25 -47 0 -65 96
-64 95 0 144 40 144 117 0 42 -26 77 -77 102 -66 34 -93 56 -93 75 0 31 34 43
88 31 50 -10 56 -8 67 26 5 19 1 25 -20 33 -45 17 -127 12 -163 -10z"/>
<path d="M1360 780 l0 -140 35 0 35 0 0 93 c0 81 3 96 20 112 25 23 65 13 74
-17 3 -13 6 -60 6 -105 l0 -83 36 0 36 0 -3 121 c-4 113 -6 122 -28 140 -31
25 -91 25 -124 -1 -25 -20 -25 -20 -30 0 -3 14 -14 20 -31 20 l-26 0 0 -140z"/>
<path d="M1660 780 l0 -140 35 0 35 0 0 93 c0 81 3 96 20 112 25 23 65 13 74
-17 3 -13 6 -60 6 -105 l0 -83 36 0 36 0 -3 121 c-4 113 -6 122 -28 140 -31
25 -91 25 -124 -1 -25 -20 -25 -20 -30 0 -3 14 -14 20 -31 20 l-26 0 0 -140z"/>
<path d="M1991 894 c-74 -62 -58 -215 26 -251 40 -16 108 -11 138 11 23 17 12
61 -13 50 -10 -4 -32 -9 -50 -12 -37 -5 -72 19 -72 50 0 16 9 18 80 18 l80 0
0 54 c0 48 -3 57 -31 80 -43 36 -115 37 -158 0z m127 -73 c3 -19 -1 -21 -48
-21 -47 0 -51 2 -48 22 4 32 47 51 73 34 11 -7 21 -23 23 -35z"/>
<path d="M2240 780 l0 -140 35 0 35 0 0 93 c0 101 7 117 51 117 22 0 27 5 31
30 3 17 2 32 0 35 -12 12 -54 3 -71 -14 -20 -20 -20 -20 -26 0 -4 12 -15 19
-31 19 l-24 0 0 -140z"/>
<path d="M2769 905 c-60 -32 -78 -161 -32 -223 42 -57 140 -66 188 -18 54 54
54 165 0 222 -28 30 -38 34 -81 34 -27 -1 -61 -7 -75 -15z m103 -62 c26 -23
25 -106 -2 -133 -25 -25 -32 -25 -61 -1 -19 16 -24 29 -24 69 0 75 42 106 87
65z"/>
<path d="M3014 905 c-4 -9 -4 -63 -2 -120 5 -115 16 -139 68 -150 24 -5 58 5
113 33 4 2 7 -3 7 -12 0 -11 9 -16 28 -16 l27 0 -3 127 c-2 71 -5 134 -7 141
-2 6 -18 12 -35 12 l-30 0 0 -93 c0 -80 -3 -97 -19 -111 -11 -10 -30 -16 -43
-14 -22 3 -23 7 -28 108 l-5 105 -33 3 c-22 2 -34 -2 -38 -13z"/>
<path d="M3317 913 c-4 -3 -7 -66 -7 -140 l0 -133 40 0 40 0 0 99 c0 106 2
111 56 111 21 0 24 5 24 35 0 30 -3 35 -23 35 -12 0 -33 -7 -46 -16 -22 -16
-24 -16 -33 0 -9 16 -39 22 -51 9z"/>
<path d="M3550 903 c-32 -22 -38 -30 -51 -76 -14 -51 4 -137 34 -165 33 -30
62 -35 118 -22 45 11 50 15 45 34 -3 11 -6 24 -6 27 0 4 -20 4 -44 2 -37 -5
-46 -2 -60 18 -21 30 -21 88 0 118 13 18 24 22 58 19 37 -3 41 -1 44 21 2 13
-2 28 -10 32 -23 15 -102 10 -128 -8z"/>
<path d="M3777 902 c-56 -35 -73 -156 -31 -220 23 -34 79 -55 129 -47 59 8 81
26 66 52 -9 19 -15 20 -45 11 -45 -14 -80 -4 -94 27 -7 14 -12 28 -12 30 0 3
38 5 85 5 l85 0 0 51 c0 43 -5 55 -29 80 -25 24 -38 29 -78 29 -27 0 -60 -8
-76 -18z m113 -62 c16 -30 4 -40 -46 -40 -36 0 -44 3 -44 18 0 43 70 60 90 22z"/>
<path d="M1279 519 c-47 -28 -79 -85 -86 -152 -14 -142 75 -241 201 -222 61 9
69 17 61 54 -6 26 -9 29 -25 21 -28 -15 -83 -12 -109 6 -48 34 -65 122 -36
190 18 43 61 63 120 56 40 -4 43 -3 48 24 3 16 3 31 1 34 -3 2 -35 6 -72 8
-55 2 -74 -1 -103 -19z"/>
<path d="M1538 414 c-40 -21 -58 -64 -58 -133 0 -53 4 -65 31 -95 55 -64 161
-57 202 13 40 68 12 198 -49 221 -37 14 -95 12 -126 -6z m106 -66 c39 -56 5
-158 -47 -142 -33 10 -39 18 -44 68 -9 81 52 130 91 74z"/>
<path d="M1787 423 c-4 -3 -7 -66 -7 -140 l0 -133 40 0 39 0 3 101 c3 84 6
104 21 113 12 8 22 8 35 0 14 -9 17 -29 20 -113 l3 -101 34 0 35 0 0 93 c0 78
3 97 18 110 49 45 72 7 72 -119 l0 -84 36 0 36 0 -3 121 c-4 113 -6 122 -28
140 -30 25 -82 24 -113 -1 -25 -19 -26 -19 -43 0 -25 27 -82 26 -111 -1 l-22
-21 -11 21 c-11 20 -41 28 -54 14z"/>
<path d="M2230 290 l0 -140 35 0 35 0 0 94 c0 95 11 126 44 126 28 0 36 -25
36 -122 l0 -98 35 0 35 0 0 88 c0 94 14 132 50 132 30 0 40 -32 40 -129 l0
-91 36 0 36 0 -4 119 c-2 100 -6 122 -22 140 -25 27 -84 28 -118 2 -24 -20
-25 -20 -41 0 -22 25 -77 25 -110 -1 l-26 -20 -6 20 c-4 13 -15 20 -31 20
l-24 0 0 -140z"/>
<path d="M2718 414 c-40 -21 -58 -64 -58 -133 0 -53 4 -65 31 -95 55 -64 161
-57 202 13 40 68 12 198 -49 221 -37 14 -95 12 -126 -6z m106 -66 c39 -56 5
-158 -47 -142 -33 10 -39 18 -44 68 -9 81 52 130 91 74z"/>
<path d="M2970 290 l0 -140 35 0 35 0 0 93 c0 78 3 97 18 110 10 10 25 17 33
17 32 0 39 -23 39 -122 l0 -98 40 0 40 0 0 93 c0 106 -13 162 -40 177 -30 16
-85 12 -113 -10 -25 -20 -25 -20 -30 0 -3 14 -14 20 -31 20 l-26 0 0 -140z"/>
<path d="M3280 410 c-50 -50 -33 -112 40 -143 49 -20 66 -39 54 -59 -7 -10
-64 -6 -95 7 -12 4 -18 -1 -23 -21 -8 -32 -7 -34 44 -45 75 -17 135 11 146 66
9 47 -13 78 -71 100 -32 13 -45 23 -45 38 0 17 5 19 49 15 44 -4 50 -3 55 16
8 30 -19 46 -81 46 -39 0 -58 -5 -73 -20z"/>
</g>
</svg>
