<svg width="136" height="47" viewBox="0 0 136 47" fill="none" xmlns="http://www.w3.org/2000/svg">
<path d="M2.77551 14.4805V31.0702H0V14.4805H2.77551Z" fill="#0114BC"/>
<path d="M22.4511 31.0692H19.6756L11.3224 18.6803V46.8H8.54688V14.4555H11.3224L19.6756 26.8204V0H22.4511V31.0692Z" fill="#0114BC"/>
<path d="M38.5068 14.4805V16.6997H34.0011V31.0702H31.2255V16.6997H26.6953V14.4805H38.5046H38.5068Z" fill="#0114BC"/>
<path d="M45.5512 16.6745V21.5446H51.3958V23.7639H45.5512V28.8476H52.1252V31.0668H42.7734V14.4531H52.1252V16.6724H45.5512V16.6745Z" fill="#0114BC"/>
<path d="M66.0511 31.0702L62.1547 24.4343H60.0353V31.0702H57.2598V14.4805H63.1044C64.4032 14.4805 65.504 14.7028 66.4047 15.1497C67.3054 15.5944 67.9793 16.1918 68.4263 16.9395C68.8733 17.6872 69.0957 18.5222 69.0957 19.4465C69.0957 20.5278 68.7755 21.5109 68.1327 22.3938C67.4922 23.2767 66.5048 23.8784 65.1749 24.1967L69.3626 31.0724H66.0511V31.0702ZM60.0353 22.263H63.1044C64.1429 22.263 64.9258 22.008 65.4551 21.5C65.9822 20.9899 66.2468 20.3054 66.2468 19.4465C66.2468 18.5876 65.9866 17.9161 65.4684 17.43C64.948 16.9439 64.1607 16.7019 63.1066 16.7019H60.0375V22.263H60.0353Z" fill="#0114BC"/>
<path d="M76.5727 30.6511C75.6631 30.2609 74.9492 29.7072 74.4288 28.9921C73.9084 28.2749 73.6504 27.44 73.6504 26.4851H76.6216C76.6861 27.2024 76.9752 27.791 77.4867 28.2509C77.9982 28.7131 78.7166 28.9442 79.6418 28.9442C80.5669 28.9442 81.3475 28.7175 81.8813 28.264C82.4173 27.8106 82.6842 27.2263 82.6842 26.5091C82.6842 25.9532 82.5173 25.4998 82.186 25.1488C81.8524 24.8 81.4387 24.5275 80.945 24.3379C80.4491 24.146 79.7641 23.9411 78.8878 23.7166C77.7847 23.431 76.8863 23.141 76.1968 22.8446C75.5074 22.5503 74.918 22.0925 74.431 21.4712C73.9439 20.8499 73.6993 20.0237 73.6993 18.9882C73.6993 18.0333 73.9417 17.1984 74.431 16.4812C74.918 15.764 75.6008 15.2168 76.4771 14.8331C77.3533 14.4494 78.3674 14.2598 79.5217 14.2598C81.1607 14.2598 82.504 14.6609 83.5515 15.4653C84.599 16.2697 85.1794 17.3706 85.2929 18.7723H82.2238C82.1749 18.1685 81.8835 17.6496 81.3475 17.2202C80.8116 16.7907 80.1066 16.5749 79.2281 16.5749C78.4319 16.5749 77.7825 16.7733 77.2799 17.1722C76.7773 17.5712 76.526 18.1423 76.526 18.8901C76.526 19.4002 76.6839 19.8166 77.0019 20.1436C77.3177 20.4706 77.7203 20.7278 78.2073 20.9196C78.6943 21.1115 79.3593 21.3186 80.2044 21.5409C81.3253 21.8439 82.2371 22.1448 82.9444 22.4478C83.6493 22.7508 84.252 23.2152 84.7458 23.8452C85.2417 24.473 85.4886 25.3123 85.4886 26.3631C85.4886 27.2067 85.2573 28.0024 84.7947 28.7502C84.3321 29.4979 83.6582 30.0996 82.7731 30.553C81.888 31.0064 80.8449 31.2332 79.644 31.2332C78.5075 31.2332 77.4845 31.0391 76.5749 30.6489L76.5727 30.6511Z" fill="#0114BC"/>
<path d="M93.4281 16.6745V21.5446H99.2727V23.7639H93.4281V28.8476H100.002V31.0668H90.6504V14.4531H100.002V16.6724H93.4281V16.6745Z" fill="#0114BC"/>
<path d="M104.956 18.3705C105.727 17.0822 106.773 16.075 108.096 15.3513C109.419 14.6275 110.867 14.2656 112.441 14.2656C114.243 14.2656 115.846 14.6994 117.25 15.5671C118.653 16.4347 119.674 17.6642 120.305 19.2556H116.969C116.531 18.3814 115.922 17.7274 115.144 17.298C114.365 16.8685 113.462 16.6527 112.441 16.6527C111.321 16.6527 110.322 16.8991 109.446 17.3917C108.57 17.8844 107.882 18.5929 107.389 19.515C106.893 20.4372 106.646 21.5119 106.646 22.7371C106.646 23.9622 106.893 25.0369 107.389 25.9591C107.885 26.8812 108.57 27.5941 109.446 28.0955C110.322 28.5969 111.321 28.8476 112.441 28.8476C113.464 28.8476 114.365 28.6317 115.144 28.2023C115.922 27.7728 116.531 27.121 116.969 26.2447H120.305C119.672 27.8361 118.653 29.0612 117.25 29.9201C115.846 30.779 114.243 31.2085 112.441 31.2085C110.851 31.2085 109.397 30.8466 108.082 30.1229C106.768 29.3991 105.725 28.392 104.953 27.1036C104.182 25.8152 103.797 24.359 103.797 22.7349C103.797 21.1108 104.182 19.6567 104.953 18.3662L104.956 18.3705Z" fill="#0114BC"/>
<path d="M135.429 14.4805V16.6997H130.923V31.0702H128.147V16.6997H123.617V14.4805H135.426H135.429Z" fill="#0114BC"/>
</svg>
