<?xml version="1.0" encoding="UTF-8" standalone="no"?>
<svg
   xmlns:dc="http://purl.org/dc/elements/1.1/"
   xmlns:cc="http://creativecommons.org/ns#"
   xmlns:rdf="http://www.w3.org/1999/02/22-rdf-syntax-ns#"
   xmlns:svg="http://www.w3.org/2000/svg"
   xmlns="http://www.w3.org/2000/svg"
   xmlns:sodipodi="http://sodipodi.sourceforge.net/DTD/sodipodi-0.dtd"
   xmlns:inkscape="http://www.inkscape.org/namespaces/inkscape"
   inkscape:export-ydpi="333.061"
   inkscape:export-xdpi="333.061"
   inkscape:export-filename="/Users/dmitrii/ISC_Logo_Wide.png"
   sodipodi:docname="ISC_Logo_Wide.svg"
   inkscape:version="1.0beta1 (32d4812, 2019-09-19)"
   id="svg8"
   version="1.1"
   viewBox="0 0 210 100"
   height="100mm"
   width="210mm">
  <defs
     id="defs2" />
  <sodipodi:namedview
     inkscape:window-maximized="0"
     inkscape:window-y="23"
     inkscape:window-x="-1"
     inkscape:window-height="773"
     inkscape:window-width="1440"
     showgrid="false"
     inkscape:document-rotation="0"
     inkscape:current-layer="g907"
     inkscape:document-units="mm"
     inkscape:cy="202.188"
     inkscape:cx="412.90502"
     inkscape:zoom="0.99659722"
     inkscape:pageshadow="2"
     inkscape:pageopacity="0.0"
     borderopacity="1.0"
     bordercolor="#666666"
     pagecolor="#ffffff"
     id="base" />
  <metadata
     id="metadata5">
    <rdf:RDF>
      <cc:Work
         rdf:about="">
        <dc:format>image/svg+xml</dc:format>
        <dc:type
           rdf:resource="http://purl.org/dc/dcmitype/StillImage" />
        <dc:title></dc:title>
      </cc:Work>
    </rdf:RDF>
  </metadata>
  <g
     id="layer1"
     inkscape:groupmode="layer"
     inkscape:label="Слой 1">
    <g
       transform="matrix(0.80014242,0,0,0.73612124,15.550645,24.052802)"
       id="g907">
      <g
         transform="translate(0,-5.4098437)"
         id="layer4"
         inkscape:label="Background"
         style="display:inline">
        <g
           id="g4243"
           style="fill:#ffffff;fill-opacity:1;stroke:#000000;stroke-width:0.1;stroke-miterlimit:4;stroke-dasharray:none;stroke-opacity:1">
          <path
             transform="matrix(0.96689595,0,0,0.96371357,1.2808245,0.34891313)"
             d="m 71.122958,58.345514 -32.432097,18.72468 -32.4320974,-18.72468 2e-7,-37.44936 L 38.690861,2.1714745 71.122958,20.896155 Z"
             inkscape:randomized="0"
             inkscape:rounded="0"
             inkscape:flatsided="true"
             sodipodi:arg2="1.0471976"
             sodipodi:arg1="0.52359878"
             sodipodi:r2="32.432098"
             sodipodi:r1="37.44936"
             sodipodi:cy="39.620834"
             sodipodi:cx="38.690861"
             sodipodi:sides="6"
             id="path4217"
             style="opacity:1;fill:#ffffff;fill-opacity:1;stroke:#000000;stroke-width:0.103594;stroke-miterlimit:4;stroke-dasharray:none;stroke-opacity:1"
             sodipodi:type="star" />
        </g>
      </g>
      <g
         transform="translate(0,-5.4098437)"
         id="layer5"
         inkscape:label="InnerSwirl1"
         style="display:inline">
        <path
           style="display:inline;opacity:1;fill:#6f6f6f;fill-opacity:1;stroke:none;stroke-width:2;stroke-linecap:round;stroke-linejoin:round;stroke-miterlimit:4;stroke-dasharray:none;stroke-opacity:1"
           d="m 56.298438,57.83914 c -3.657103,-1.277893 -7.788441,-5.703897 -10.39712,-11.138696 -1.569115,-3.269019 -2.123849,-5.21991 -3.706351,-13.034501 -0.525491,-2.594939 -1.124034,-5.338679 -1.330096,-6.0972 -1.283053,-4.722972 -3.17725,-8.667925 -5.611258,-11.6863 -1.1373,-1.410348 -3.739873,-3.959543 -5.053157,-4.94952 l -0.96241,-0.72548 2.761302,-1.5902286 c 1.518716,-0.8746256 2.841382,-1.6096812 2.939258,-1.633457 0.364669,-0.088584 3.133827,3.2928056 4.483604,5.4748816 1.00912,1.631362 1.435919,2.483637 2.216966,4.427059 1.490783,3.709401 1.984648,6.636288 2.586445,15.328531 0.3843,5.550764 1.109193,10.270581 1.691941,11.016313 0.1488,0.190417 0.271916,0.451726 0.273591,0.580686 0.01183,0.910849 1.52253,4.8091 2.280299,5.884155 0.525964,0.74619 2.567971,2.310297 3.345845,2.562804 0.859279,0.27893 2.605276,1.554008 3.968339,2.898024 1.331894,1.313283 1.869586,2.048142 1.870471,2.556364 8.71e-4,0.468778 -0.298468,0.496678 -1.357669,0.126565 z"
           id="path6020"
           inkscape:connector-curvature="0"
           inkscape:export-xdpi="300"
           inkscape:export-ydpi="300" />
        <path
           style="display:inline;opacity:1;fill:#6f6f6f;fill-opacity:1;stroke:none;stroke-width:2;stroke-linecap:round;stroke-linejoin:round;stroke-miterlimit:4;stroke-dasharray:none;stroke-opacity:1"
           d="M 55.843157,61.960377 C 49.150255,58.572762 44.134707,52.869775 41.300807,45.424829 40.951292,44.506619 39.944289,41.48093 39.063021,38.701076 36.484473,30.567358 35.218613,27.747821 32.529445,24.148403 29.843681,20.553542 26.585277,17.806986 22.714261,15.875042 l -1.770717,-0.883728 1.827415,-1.044785 1.827415,-1.044785 0.814331,0.458793 c 5.19327,2.925876 9.675826,7.918392 12.204107,13.592513 1.025498,2.301485 1.781123,4.56039 3.071064,9.180807 1.298629,4.651543 1.805661,6.262506 2.616702,8.313901 2.155717,5.45254 5.580346,10.087253 9.561415,12.939918 2.620318,1.877606 5.058638,2.944258 7.080578,3.097424 l 1.055966,0.07999 -1.128551,0.642695 c -0.620703,0.35348 -1.458227,0.831077 -1.861165,1.061325 l -0.732613,0.41863 -1.437051,-0.727362 z"
           id="path6022"
           inkscape:connector-curvature="0"
           inkscape:export-xdpi="300"
           inkscape:export-ydpi="300" />
        <g
           id="g4393">
          <path
             style="display:inline;fill:#6f6f6f;fill-opacity:1"
             d="m 32.169114,39.927981 c 0,-0.5 0.725512,-0.416227 0.22551,-0.616227 -4.5,-2 -9.862192,-4.057137 -14.162192,-6.557137 -3.5,-2 -7,-4.2 -9.9999998,-7 -1.1,-1.1 -2.2,-2.3 -3.2,-3.4 -0.3,-0.4 -0.3,-0.5 0.1,-0.7 1.4,-0.8 2.7,-1.6 4.1,-2.4 0.2,-0.1 0.5,-0.3 0.6,0.1 0.9999998,2.4 2.7999998,4.2 4.6999998,5.8 3.4,3 7.3,5.3 11.3,7.4 1.7,0.9 3.5,1.7 5.2,2.6 0.4,0.1 0.77964,0.27964 1.07964,0.37964 z"
             id="path6078"
             inkscape:connector-curvature="0"
             sodipodi:nodetypes="ccccccccccccc" />
          <path
             style="display:inline;fill:#6f6f6f;fill-opacity:1"
             d="m 30.332432,47.954617 0.6,-1.5 c 0.2,-0.6 0.2,-0.6 -0.3,-0.8 -1.8,-0.6 -3.5,-1.3 -5.3,-1.9 -5.2,-1.9 -10.3,-3.9 -15.3,-6.2 -1.6999998,-0.8 -3.2999998,-1.6 -4.9999998,-2.5 -0.5,-0.1 -0.6,-0.3 -0.6,-0.8 v -4.9 c 0,-0.2 0,-0.3 0.1,-0.6 0.2,0.1 0.3,0.1 0.4,0.2 4.4,3.3 9.0999998,5.9 13.9999998,8.1 4.1,1.9 8.3,3.6 12.5,5.4 0.6,0.3 0.7,0.3 0.6,1 -0.4,2.7 -1.2,5.2 -2,7.8 -1,3.2 -1.9,6.4 -2.8,9.7 -0.7,2.5 -0.9,5.1 -0.9,7.8 0,0.2 -0.1,0.4 -0.1,0.6 -0.2,-0.1 -0.4,-0.1 -0.6,-0.2 -1.4,-0.8 -2.8,-1.7 -4.2,-2.5 -0.5,-0.3 -0.6,-0.4 -0.3,-1 1.9,-4.2 4.4,-8.2 6.6,-12.3 0.4,-0.7 0.7,-1.4 1.1,-2.2 z"
             id="path4307"
             inkscape:connector-curvature="0"
             sodipodi:nodetypes="ccccccsscccccccsccccccc" />
          <path
             style="display:inline;fill:#6f6f6f;fill-opacity:1"
             d="m 52.832432,21.754617 c 1.2,-0.1 2.3,-0.2 3.4,-0.3 2.4,-0.2 4.7,-0.4 7.1,-0.6 2.1,-0.2 4.2,-0.3 6.2,-0.4 0.4,0 0.9,0.1 1.3,0.2 0.2,0.1 0.3,0.3 0.3,0.5 v 2.2 c 0,0.4 -0.2,0.5 -0.5,0.5 -2.2,-0.1 -4.4,-0.3 -6.6,-0.3 -4,-0.2 -7.9,-0.3 -11.9,-0.5 -0.3,0 0.01815,0.03629 -0.646022,-0.05237 z"
             id="path6102"
             inkscape:connector-curvature="0"
             sodipodi:nodetypes="cccccssccccc" />
          <path
             style="display:inline;fill:#6f6f6f;fill-opacity:1"
             d="m 50.632432,24.454617 1.5,0.2 c 4.3,0.6 8.6,1.2 12.9,1.9 1.9,0.3 3.7,0.6 5.6,0.9 0.3,0.1 0.5,0.2 0.5,0.6 v 3.2 c 0,0.8 0,0.8 -0.8,0.6 -2.6,-0.7 -5.2,-1.4 -7.8,-2 -4.1,-1 -8.2,-1.964157 -12.2,-2.964157 -0.3,-0.1 0,0 -1.064157,-0.238495 z"
             id="path6106"
             inkscape:connector-curvature="0"
             sodipodi:nodetypes="ccccssccccc" />
          <path
             style="display:inline;fill:#6f6f6f;fill-opacity:1"
             d="m 56.332432,19.854617 c 0.4,-0.1 0.8,-0.3 1.1,-0.4 1.9,-0.7 3.9,-1.5 5.8,-2.2 0.5,-0.2 1,-0.2 1.5,0.1 0.5,0.3 1,0.5 1.4,0.8 0.1,0.1 0.3,0.2 0.4,0.3 0.1,-0.1 0.1,0 0,0 -4.2,0.9 -8.4,1.8 -12.7,2.8 0,-0.1 -0.1,-0.1 -0.1,-0.2 z"
             id="path4313"
             inkscape:connector-curvature="0"
             sodipodi:nodetypes="cccscccccc" />
          <path
             id="path4303"
             d="m 46.032432,43.254617 c 0,-0.3 -0.1,-0.6 -0.1,-0.9 0,-0.5 0.1,-0.6 0.6,-0.4 0.8,0.4 1.5,0.7 2.3,1.1 4.5,2.2 9,4.6 13,7.7 2.1,1.6 4,3.3 5.4,5.4 0.5,0.7 0.8,1.5 1.3,2.3 0.2,0.3 0.1,0.5 -0.2,0.7 -2.5,1.4 -5,2.9 -7.5,4.3 -0.4,0.2 -0.8,0.2 -1.3,0.1 -3.2,-1 -6,-2.6 -8.6,-4.6 -4.7,-3.7 -7.9,-8.5 -9.9,-14 -1.1,-3.1 -2,-6.2 -3,-9.3 -1.3,-4.1 -2.9,-8 -5.5,-11.4 -3,-4 -6.7,-7.1 -11.3,-9 -0.8,-0.4 -1.7,-0.7 -2.6,-1 -0.1,0 -0.1,-0.1 -0.3,-0.1 0.2,-0.1 0.3,-0.2 0.5,-0.3 1,-0.6 2.1,-1.2 3.1,-1.8 0.4,-0.3 0.8,-0.3 1.2,0 7.3,3.5 12.5,9.2 15.4,16.9 1.2,3.1 2,6.4 2.9,9.6 1,3.6 2.2,7.2 4.1,10.4 2.3,4 5.4,7.4 9.4,9.7 1.5,0.9 3.1,1.6 4.9,1.8 0.6,0.1 1.2,0 1.9,-0.1 0.6,-0.1 0.9,-0.6 0.9,-1.3 0,-0.7 -0.2,-1.3 -0.5,-1.8 -1,-1.7 -2.4,-3 -3.9,-4.3 -3.2,-2.6 -6.7,-4.6 -10.4,-6.5 -0.3,-0.2 -0.6,-0.3 -1,-0.4 0.1,0.3 0.3,0.6 0.4,1 0.2,0.4 0.4,0.9 0.6,1.4 0.5,1.3 1.4,2.2 2.6,2.8 1.9,1 3.7,2.2 5.2,3.6 0.7,0.6 1.2,1.3 1.8,2 0.1,0.1 0.2,0.4 0.3,0.5 0.2,0.5 -0.1,1 -0.7,0.8 -0.7,-0.2 -1.3,-0.4 -1.9,-0.7 -2.5,-1.3 -4.4,-3.3 -6.1,-5.5 -2.8,-3.6 -4.6,-7.7 -5.6,-12.1 -0.8,-3.4 -1.4,-6.8 -2.1,-10.1 -0.8,-3.7 -2,-7.3 -3.9,-10.6 -2.3,-3.9 -5.4,-7 -9.1,-9.5000004 -0.3,-0.2 -0.6,-0.4 -0.9,-0.6 -0.3,-0.2 -0.3,-0.3 0,-0.6 1.5,-0.9 2.9,-1.7 4.4,-2.6 0.1,0 0.1,-0.1 0.2,-0.1 1.3,-0.8 1.2,-0.7 2.1,0.2 5.2,4.8000004 8.4,10.7000004 9.4,17.8000004 0.4,3 0.6,6.1 0.8,9.2 0.2,3.3 0.6,6.7 1.4,9.9 0.1,0.2 0.2,0.3 0.3,0.4 -0.1,0 -0.1,0 0,0 z"
             inkscape:connector-curvature="0"
             style="display:inline;fill:#6f6f6f;fill-opacity:1" />
          <path
             style="display:none;fill:#6f6f6f;fill-opacity:1"
             d="m 27.468669,52.752518 c 0.1,0 0.19236,-0.03334 0.07197,0.180625 -0.101734,0.180862 -0.262642,0.421474 -0.262642,0.421474 -1.8,2.2 -3.645561,4.5 -5.445561,6.7 l -3.3,3.9 c -0.4,0.5 -0.5,0.5 -1.1,0.2 -0.4,-0.2 -0.8,-0.5 -1.2,-0.7 -0.5,-0.3 -0.5,-0.3 -0.1,-0.7 1.6,-1.3 3.2,-2.5 4.8,-3.8 0.6,-0.5 1.1,-0.9 1.7,-1.4 l 0.2,-0.2 c 0.3,-0.2 0.6,-0.5 1,-0.7 v -0.1 c -2.7,0.6 -5.3,1.2 -8,1.7 l -5.400004,1.2 c -0.4999998,0.1 -0.8999998,0 -1.2999998,-0.2 -1,-0.6 -2.1,-1.3 -3.2,-1.9 -0.1,-0.1 -0.3,-0.2 -0.4,-0.4 0.7,-0.1 1.4,-0.1 2.2,-0.2 4.6999998,-0.3 9.4999998,-0.7 14.1999998,-1 0.9,-0.1 1.7,-0.2 2.6,-0.3 0.6,-0.1 1,-0.4 1.4,-1 z"
             id="path4311"
             inkscape:connector-curvature="0"
             sodipodi:nodetypes="cscccsccccccccccccccccc" />
        </g>
      </g>
      <g
         transform="translate(0,-5.4098437)"
         id="layer1-4"
         inkscape:label="InnerSwirl2"
         style="display:inline">
        <g
           id="g4376">
          <g
             id="Layer_2" />
          <path
             style="fill:#444444;fill-opacity:1"
             d="m 31.935084,34.754617 c -0.04602,-0.8 -0.348674,-1.6 -0.602652,-2.4 -0.1,-0.5 -0.4,-0.8 -0.8,-1 -1.9,-1 -3.7,-2 -5.6,-3.1 -2.6,-1.5 -5,-3.2 -7.2,-5.3 -1,-1 -1.8,-2 -2.3,-3.3 0,-0.1 -0.1,-0.2 -0.1,-0.3 -0.4,-1.4 0.2,-2.4 1.7,-2.6 1.2,-0.2 2.4,0.2 3.5,0.6 2.7,1 4.9,2.6 7,4.5 3.7,3.4 6.3,7.7 7.9,12.4 1.1,3.1 1.9,6.4 2.8,9.5 1.1,3.7 2.4,7.2 4.4,10.5 3,4.7 7,8.3 12,10.9 0.5,0.3 1,0.5 1.6,0.8 -0.2,0.2 -0.3,0.3 -0.5,0.4 -1.3,0.8 -2.7,1.6 -4,2.4 -0.4,0.2 -0.8,0.2 -1.2,0 -7.1,-4.7 -11.8,-11.1 -13.7,-19.4 -0.8,-3.5 -1.4,-7 -2.2,-10.6 -0.9,-4.3 -2.4,-8.3 -4.9,-12 -1.7,-2.5 -3.7,-4.6 -6.2,-6.3 -0.7,-0.5 -1.5,-0.8 -2.3,-1 -0.5,-0.1 -0.7,0.2 -0.5,0.6 0.2,0.4 0.4,0.8 0.7,1.1 1.6,1.7 3.5,3 5.4,4.2 0.7,0.4 1.4,0.8 2,1.2 0.4,0.3 0.8,0.6 1,1 1.9,3.4 3.1,7 3.6,10.8 0.4,3.5 0.6,6.9 0.9,10.4 0.3,4.6 1,9.1 3.1,13.3 1.7,3.5 4.1,6.6 7,9.2 0.3,0.3 0.7,0.6 1.1,1 -1.1,0.5 -1.9,1.3 -3.2,1.2 -2.2,0.1 -3.9,1 -5.8,1.1 -0.6,0 -1.2,-1.1 -1.5,-1.6 -2.5,-4.2 -3.8,-8.7 -4,-13.5 -0.1,-2.5 0.1,-5 0.4,-7.5 0.4,-3.9 0.853539,-7.78937 0.626125,-14.157516 -0.127415,-2.768147 0,0 -0.123473,-3.042484 z"
             id="path4301"
             inkscape:connector-curvature="0"
             sodipodi:nodetypes="cccccccccccccccccccccccscccccccccccccccc" />
          <path
             id="path4305"
             d="m 71.132432,53.554617 c -0.4,-0.4 -0.7,-0.7 -1.1,-1 -2.9,-2.8 -6.3,-5 -9.7,-7.1 -4.5,-2.6 -9.2,-4.8 -14,-6.9 -0.4,-0.2 -0.5,0 -0.5,0.3 0,0.3 -0.1,0.6 -0.1,0.9 -0.1,0 -0.1,0 -0.2,0 0,-0.3 -0.1,-0.7 -0.1,-1 -0.1,-3.2 0.1,-6.2 0.4,-9.2 0.4,-3.8 0.9,-7.6 0.7,-11.4 -0.1,-4.2 -1.1,-8.1 -3.1,-11.7000004 -0.1,-0.2 -0.2,-0.5 -0.3,-0.8 0,0 0.1,-0.1 0.1,-0.1 0.2,0.1 0.3,0.1 0.5,0.2 2.5,1.4 5,2.8 7.6,4.1 0.5,0.3000004 0.7,0.6000004 0.6,1.2000004 -0.2,2.9 -0.8,5.7 -1.6,8.5 -0.9,3.2 -1.9,6.4 -2.9,9.6 -0.1,0.2 -0.1,0.4 -0.1,0.6 0.1,-0.2 0.1,-0.3 0.2,-0.5 0.2,-0.5 0.3,-0.6 0.8,-0.4 1.6,0.5 3.2,1 4.8,1.5 5.2,1.7 10.4,3.4 15.7,5.1 0.6,0.2 1.3,0.5 1.9,0.7 0.3,0.1 0.4,0.3 0.4,0.6 0,1.4 0,2.9 0,4.3 0,0.4 -0.1,0.4 -0.5,0.2 -2,-0.9 -4,-2 -6,-2.8 -5.3,-2.1 -10.7,-4.2 -16,-6.2 -0.5,-0.2 -0.9,-0.3 -1.4,-0.5 -0.3,-0.1 -0.4,0 -0.5,0.3 -0.1,0.7 -0.3,1.4 -0.4,2.1 -0.1,0.4 0.2,0.5 0.5,0.7 1.7,0.7 3.5,1.5 5.2,2.2 4.4,1.9 8.9,3.7 13,6 1.8,1 3.6,2.2 5.5,3.2 0.6,0.3 0.8,0.8 0.8,1.5 0,1.7 0,3.4 0,5.2 -0.1,0.1 -0.1,0.3 -0.2,0.6 z"
             inkscape:connector-curvature="0"
             style="fill:#444444;fill-opacity:1" />
          <path
             style="fill:#444444;fill-opacity:1"
             d="m 28.832432,51.154617 c -0.9,-0.2 -1.8,-0.4 -2.6,-0.6 -7.1,-1.8 -14.1,-3.5 -21.1999998,-5.3 -0.5,-0.1 -0.6,-0.3 -0.6,-0.8 v -3.7 -0.7 c 0.2,0 0.3,0.1 0.5,0.1 6.8999998,2.8 14.0999998,4.9 21.1999998,7.1 1.2,0.4 2.3,0.7 3.5,1.1 0.4,0.1 0.6,0 0.7,-0.4 z"
             id="path6118"
             inkscape:connector-curvature="0"
             sodipodi:nodetypes="cccsccccccc" />
          <path
             style="fill:#003087;fill-opacity:1"
             d="m 51.332432,23.454617 c -0.2,0.3 -0.4,0.6 -0.7,1"
             id="path6108"
             inkscape:connector-curvature="0" />
          <path
             style="fill:#444444;fill-opacity:1"
             d="m 49.786092,25.919881 c -0.590343,0.844004 -1.158963,1.594017 -1.458963,1.794017 0.1,-0.2 0.305303,-0.759281 0.405303,-0.859281 1.4,-2.6 2.8,-5.3 4.2,-7.9 1,-1.9 2,-3.9 3,-5.8 0.2,-0.3 0.3,-0.5 0.7,-0.2 l 2.1,1.2 c 0.4,0.2 0.4,0.3 0.1,0.7 -1.9,2.1 -3.7,4.3 -5.6,6.4 0.435514,-0.444393 -0.2,0.2 -0.4,0.5 l -1.75,2.5 z"
             id="path4309"
             inkscape:connector-curvature="0"
             sodipodi:nodetypes="cccccccccccc" />
          <path
             style="fill:#444444;fill-opacity:1"
             d="m 25.932432,54.454617 c -0.9,0 -1.6,-0.1 -2.4,-0.1 -4.3,-0.2 -8.7,-0.3 -13,-0.5 -1.8999998,-0.1 -3.7999998,-0.2 -5.5999998,-0.3 -0.4,0.1 -0.5,0 -0.5,-0.4 v -3.4 c 0,-0.4 0.2,-0.4 0.5,-0.4 2.4,0.4 4.9,0.8 7.2999998,1.2 3.5,0.5 6.9,1 10.4,1.5 l 4.864218,0.685417 z"
             id="path6114"
             inkscape:connector-curvature="0"
             sodipodi:nodetypes="ccccssccccc" />
          <path
             style="fill:#444444;fill-opacity:1"
             d="m 53.732432,21.054617 c 0.1,-0.1 0.2,-0.3 0.3,-0.4 l 6.3,-5.1 c 0.3,-0.3 0.6,-0.3 1,-0.1 0.4,0.2 0.7,0.4 1.1,0.7 v 0.2 c -2.177465,1.165372 -4.398739,2.425884 -6.1,3.5 z"
             id="path6098"
             inkscape:connector-curvature="0"
             sodipodi:nodetypes="cccscccc" />
          <path
             id="path4315"
             d="m 20.932432,57.854617 c 0.4,-0.2 0.9,-0.3 0.4,0.1 -0.5,0.4 -5.6,3.6 -5.9,3.8 -0.3,0.2 -1.1,0.3 -1.4,-0.1 -0.3,-0.4 -2.1,-0.9 -1.3,-1.2 0.8,-0.4 8,-2.6 8.2,-2.6 z"
             inkscape:connector-curvature="0"
             style="fill:#444444;fill-opacity:1" />
          <g
             transform="translate(0.43243219,-3.4453834)"
             id="Layer_2-7" />
          <path
             inkscape:connector-curvature="0"
             id="path4472"
             d=""
             style="opacity:1;fill:#009cde;fill-opacity:1;stroke:none;stroke-width:2;stroke-linecap:round;stroke-linejoin:round;stroke-miterlimit:4;stroke-dasharray:none;stroke-opacity:1" />
          <path
             inkscape:connector-curvature="0"
             id="path4502"
             d=""
             style="opacity:1;fill:#009cde;fill-opacity:1;stroke:none;stroke-width:2;stroke-linecap:round;stroke-linejoin:round;stroke-miterlimit:4;stroke-dasharray:none;stroke-opacity:1" />
          <path
             inkscape:connector-curvature="0"
             id="path4510"
             d=""
             style="opacity:1;fill:#009cde;fill-opacity:1;stroke:none;stroke-width:2;stroke-linecap:round;stroke-linejoin:round;stroke-miterlimit:4;stroke-dasharray:none;stroke-opacity:1" />
          <path
             inkscape:connector-curvature="0"
             id="path4512"
             d=""
             style="opacity:1;fill:#009cde;fill-opacity:1;stroke:none;stroke-width:2;stroke-linecap:round;stroke-linejoin:round;stroke-miterlimit:4;stroke-dasharray:none;stroke-opacity:1" />
          <path
             inkscape:connector-curvature="0"
             id="path6038"
             d=""
             style="opacity:1;fill:#009cde;fill-opacity:1;stroke:none;stroke-width:2;stroke-linecap:round;stroke-linejoin:round;stroke-miterlimit:4;stroke-dasharray:none;stroke-opacity:1" />
        </g>
      </g>
      <g
         transform="translate(0,-5.4098437)"
         id="layer2"
         inkscape:label="OuterBorder"
         style="display:inline">
        <path
           sodipodi:type="star"
           style="display:inline;opacity:1;fill:none;fill-opacity:1;stroke:#646464;stroke-width:3.717;stroke-miterlimit:4;stroke-dasharray:none;stroke-opacity:1"
           id="path4246-3"
           sodipodi:sides="6"
           sodipodi:cx="38.699696"
           sodipodi:cy="38.466953"
           sodipodi:r1="38.228535"
           sodipodi:r2="33.10688"
           sodipodi:arg1="0.52359878"
           sodipodi:arg2="1.0471976"
           inkscape:flatsided="true"
           inkscape:rounded="0"
           inkscape:randomized="0"
           d="M 71.806578,57.581221 38.699695,76.695488 5.5928133,57.58122 5.5928135,19.352686 38.699696,0.23841858 71.806578,19.352686 Z" />
      </g>
      <g
         transform="translate(0,-5.4098437)"
         id="layer3"
         inkscape:label="InnerBorder"
         style="display:inline">
        <path
           sodipodi:type="star"
           style="opacity:1;fill:none;fill-opacity:1;stroke:#000000;stroke-width:0.991648;stroke-miterlimit:4;stroke-dasharray:none;stroke-opacity:1"
           id="path4246"
           sodipodi:sides="6"
           sodipodi:cx="38.699692"
           sodipodi:cy="38.518276"
           sodipodi:r1="35.99305"
           sodipodi:r2="31.170897"
           sodipodi:arg1="0.52359878"
           sodipodi:arg2="1.0471976"
           inkscape:flatsided="true"
           inkscape:rounded="0"
           inkscape:randomized="0"
           d="M 69.870587,56.514801 38.699692,74.511326 7.5287964,56.514801 l 1e-7,-35.99305 L 38.699692,2.5252266 69.870587,20.521752 Z" />
      </g>
      <path
         inkscape:export-ydpi="333.061"
         inkscape:export-xdpi="333.061"
         sodipodi:nodetypes="cccccssccccccccscscccccc"
         inkscape:connector-curvature="0"
         id="path909"
         d="M 3.6640465,53.168037 3.5581219,33.201054 3.7712461,12.863597 20.958624,2.9337197 38.701536,-7.2944455 l 0.842763,0.5173344 c 0.46352,0.2845345 8.5223,4.7606234 17.590628,10.0945932 L 73.685092,12.881594 73.638332,33.122167 73.663362,53.247 56.22301,63.219714 c 0,0 -17.259458,10.252461 -17.453932,10.245708 C 26.431773,66.280065 16.590906,60.651504 3.6640465,53.168037 Z M 70.196345,51.202176 70.115258,32.765387 70.049325,15.138355 54.477201,6.0991859 C 41.367932,-1.5103649 39.127251,-3.0944269 38.690862,-2.9068761 38.402329,-2.7828702 30.687487,1.0708422 22.390238,6.3899927 17.287152,9.661451 9.6384374,14.931317 7.0816556,16.203836 L 7.5903595,29.486294 7.3323976,51.167434 C 8.1328191,51.737758 37.95401,68.340241 38.791482,69.777655 38.699691,69.101482 60.447539,56.532627 70.196345,51.202176 Z"
         style="fill:#000000;stroke-width:0.245762" />
      <path
         inkscape:connector-curvature="0"
         id="path911"
         d="m 6.9960266,33.085713 c 0,-10.062707 0.010399,-14.179273 0.023114,-9.147917 0.012711,5.031355 0.012711,13.26448 0,18.295832 -0.012711,5.031355 -0.023114,0.914793 -0.023114,-9.147915 z"
         style="fill:#000000;stroke-width:0.092605" />
      <path
         inkscape:connector-curvature="0"
         id="path913"
         d="m 6.9072059,33.133988 c 1.3e-6,-10.089262 0.010403,-14.20237 0.02311,-9.140244 0.012711,5.062127 0.012708,13.316975 -2.3e-6,18.344107 -0.012711,5.027133 -0.023111,0.885396 -0.023111,-9.203863 z"
         style="fill:#000000;stroke-width:0.092605" />
      <path
         inkscape:connector-curvature="0"
         id="path915"
         d="m 6.895725,34.630478 c 0,-0.504462 0.014969,-0.710832 0.033268,-0.458602 0.018296,0.252232 0.018296,0.664976 0,0.917205 -0.018296,0.252233 -0.033268,0.04586 -0.033268,-0.458603 z"
         style="fill:#000000;stroke-width:0.092605" />
      <path
         inkscape:connector-curvature="0"
         id="path917"
         d="m 6.8443828,34.801778 c 0,-0.265352 7.275e-4,-0.373903 0.00165,-0.241227 8.928e-4,0.132673 8.928e-4,0.349779 0,0.482455 -8.928e-4,0.132672 -0.00165,0.02412 -0.00165,-0.241228 z"
         style="fill:#000000;stroke-width:0.00621143" />
      <path
         inkscape:connector-curvature="0"
         id="path919"
         d="M 23.031699,44.329199 C 22.256971,44.133638 19.020023,43.326134 15.838479,42.534739 12.656935,41.743345 9.6016956,40.982807 9.0490573,40.84465 l -1.004797,-0.25119 -0.00477,-2.312484 c -0.00381,-1.846222 -2.58e-5,-2.311107 0.018782,-2.305676 0.012956,0.0037 0.6362953,0.228884 1.3851978,0.500318 3.6046459,1.306463 6.4023119,2.215628 14.1281949,4.591278 l 0.915587,0.281533 v 1.67008 c 0,1.323475 -0.0049,1.669685 -0.02348,1.668164 -0.01293,-0.0011 -0.657343,-0.161915 -1.43207,-0.357474 z"
         style="fill:#000000;stroke-width:0.0195809" />
      <path
         inkscape:connector-curvature="0"
         id="path921"
         d="M 27.387334,45.37967 C 26.74255,45.225705 25.832096,45.003143 25.364105,44.885089 l -0.850891,-0.214644 v -1.641757 c 0,-1.525222 0.0094,-1.638691 0.132364,-1.598575 1.186452,0.387091 5.198627,1.612154 5.279925,1.612154 0.0755,0 -0.07992,0.412125 -0.496028,1.315403 -0.444828,0.965606 -0.641051,1.313612 -0.737884,1.30867 -0.07256,-0.0037 -0.659469,-0.132705 -1.304257,-0.28667 z"
         style="fill:#000000;stroke-width:0.0788553" />
      <path
         sodipodi:nodetypes="csscssccccssccsccccc"
         inkscape:connector-curvature="0"
         id="path923"
         d="m 23.652407,60.717797 c -1.175176,-0.682286 -1.2521,-0.02936 -2.005635,-1.354523 -0.109987,-0.193419 1.402707,-2.995474 4.947456,-9.340607 2.102028,-3.762647 4.281761,-8.74493 4.48471,-9.474406 -0.02073,-0.158123 -0.586904,-0.384283 -5.090845,-2.03353 C 20.596517,36.540448 17.711422,35.420129 14.415978,34.021135 12.445594,33.184661 9.5919901,31.900112 8.5353788,31.37399 L 8.0248444,31.11978 v -2.666963 -2.666963 l 1.0778106,0.680004 c 4.519098,2.851152 8.402723,4.736379 18.851442,9.151052 1.872235,0.791035 3.820191,1.552528 3.986587,1.650875 0.391577,0.23144 0.130073,0.407186 -0.122182,1.755574 -0.301926,1.613904 -0.59731,3.309212 -1.812375,7.122909 -1.409303,4.423367 -2.956199,9.751654 -3.217508,11.159911 -0.145048,0.781697 -0.323802,2.223601 -0.425516,3.432382 -0.02569,0.305217 -0.004,1.050845 -0.03188,1.047596 -0.02788,-0.0032 -1.50365,-0.386078 -2.678823,-1.06836 z"
         style="fill:#000000;stroke-width:0.0788553" />
      <path
         sodipodi:nodetypes="sssccccccscccs"
         inkscape:connector-curvature="0"
         id="path925"
         d="M 30.942169,33.487519 C 24.355137,30.548756 21.77616,29.294287 18.500256,27.435514 14.224514,25.009426 11.258354,22.97619 8.8001006,20.786275 L 8.0248444,20.095643 v -2.322336 -2.322339 l 0.9627717,-0.555601 c 0.5295245,-0.30558 0.8327253,-0.990019 0.844816,-0.950593 0.067626,0.220524 1.1552399,2.181842 1.5713219,2.724209 1.563469,2.037992 5.016923,4.907849 8.836099,7.342894 2.370212,1.511209 9.501047,5.279484 11.080487,5.855466 0.311994,0.113773 0.783679,0.250482 0.791731,0.257071 0.02665,0.02182 0.212485,3.807413 0.187672,3.830122 -0.01339,0.01226 -0.754388,-0.197909 -1.357574,-0.467017 z"
         style="fill:#000000;stroke-width:0.0788553" />
      <path
         sodipodi:nodetypes="scssccccccsccccccscssccccssssscccscsssccscs"
         inkscape:connector-curvature="0"
         id="path927"
         d="m 36.387869,67.542412 -2.067413,-1.329991 -0.632394,-1.342669 c -1.931088,-4.099992 -2.843404,-8.871679 -2.598655,-13.806998 0.04437,-0.894777 0.232825,-3.111675 0.418784,-4.926442 0.509149,-4.968833 0.591896,-6.357908 0.598143,-10.041024 0.003,-1.763463 -0.0121,-3.61325 -0.03351,-4.110639 -0.02143,-0.497385 -0.05836,-1.422278 -0.0821,-2.055319 -0.03998,-1.066401 -0.0668,-1.229513 -0.364984,-2.219744 -0.177008,-0.587821 -0.403629,-1.187108 -0.503601,-1.331749 -0.139374,-0.201647 -0.697529,-0.544334 -2.39319,-1.469339 -3.924735,-2.140993 -5.701956,-3.214963 -7.543667,-4.558624 -2.059388,-1.502467 -4.022538,-3.330796 -4.847121,-4.514245 -0.207006,-0.297093 -0.519566,-0.850962 -0.694576,-1.230818 -0.267039,-0.579593 -0.322625,-0.785704 -0.345673,-1.281803 -0.02239,-0.482055 0.0026,-0.655037 0.134996,-0.937297 0.318829,-0.67931 1.132658,-1.039357 2.310992,-1.022414 2.285183,0.03285 5.92254,1.828426 8.955435,4.420815 4.039366,3.452675 6.886447,7.790017 8.808663,13.419427 0.53893,1.578306 0.907349,2.80952 1.898309,6.343897 1.561518,5.569338 2.474597,8.137785 3.903156,10.979388 2.624447,5.220397 6.780275,9.563015 11.971039,12.509093 l 0.895895,0.508477 c -1.281265,1.852422 -4.805543,3.207293 -4.94988,2.872086 L 48.83795,62.171109 C 47.661928,61.33255 45.976058,59.7727 44.822329,58.582609 41.649148,55.309422 39.451612,51.795457 37.942982,47.582205 37.214003,45.546338 36.861415,44.09069 35.708252,38.35614 34.843368,34.055173 34.492973,32.446289 34.105751,30.998096 33.062877,27.097773 31.394066,23.53801 29.172276,20.474427 c -0.77031,-1.062163 -2.75663,-3.21451 -3.675807,-3.983045 -2.00037,-1.672527 -3.561842,-2.527037 -4.484666,-2.454217 -0.299065,0.02361 -0.319577,0.04136 -0.342112,0.296234 -0.09999,1.130962 2.841592,3.703726 7.11788,6.225444 1.7099,1.008324 1.894298,1.228291 2.996448,3.574489 0.965525,2.055348 1.587525,3.842562 2.088706,6.00153 0.496018,2.136737 0.677394,3.776176 1.323395,11.961956 0.374431,4.744571 0.577532,6.328381 1.106985,8.632342 1.191518,5.184976 3.950049,10.09272 7.850391,13.966754 l 0.772707,0.767493 -2.383118,1.842329 c -1.311656,1.014013 -2.713874,2.473928 -2.751603,2.471919 -0.03773,-0.0022 -1.262116,-1.372627 -2.403613,-2.235243 z"
         style="fill:#000000;stroke-width:0.0788553" />
      <path
         sodipodi:nodetypes="cssscccsccssssscscc"
         inkscape:connector-curvature="0"
         id="path929"
         d="M 56.406318,56.906775 C 50.51708,54.130142 45.875389,49.492139 42.780735,43.461915 41.665853,41.289465 41.003676,39.515791 39.339905,34.245501 37.25701,27.647552 36.732014,26.192109 35.544035,23.722268 32.962112,18.354378 28.704996,13.751581 23.841325,11.069295 22.811787,10.501512 20.608554,9.4828651 19.823863,9.2118556 19.595069,9.1328387 18.666305,8.8782947 18.632431,8.8447743 18.598561,8.8112396 19.699845,7.9634975 20.85035,7.5462004 l 2.33101,-0.8454777 1.289915,0.6924077 c 3.110239,1.6695406 5.504358,3.5219156 7.873961,6.0922396 2.842002,3.082743 4.831159,6.437866 6.410358,10.812387 0.652439,1.807316 1.015799,2.999715 2.016745,6.618127 1.666942,6.025967 2.619686,8.723669 4.007198,11.346419 2.585505,4.88725 5.699,8.318427 9.828861,10.831746 2.758795,1.678925 5.637102,2.271171 7.53968,1.807712 0.19453,-0.04739 -0.01138,-0.01643 0,0 0.222012,0.320018 -4.023233,2.977068 -4.382354,2.610889 -0.06113,-1.62e-4 -0.750255,-0.318674 -1.359406,-0.605875 z"
         style="fill:#000000;stroke-width:0.0788553" />
      <path
         sodipodi:nodetypes="csccsscsccssssssccscccsscccsccsc"
         inkscape:connector-curvature="0"
         id="path931"
         d="m 62.307947,54.695923 c 0,0 0.325174,-0.524608 0.325174,-1.127072 0,-0.75244 -0.179097,-1.301043 -0.690949,-2.116498 -0.508422,-0.809995 -2.194037,-2.655789 -3.278619,-3.590182 -2.273014,-1.958248 -5.415801,-4.001167 -9.429903,-6.129756 -1.74137,-0.923409 -2.408189,-1.222728 -2.408189,-1.080983 0,0.143311 1.166151,2.863528 1.392141,3.247373 0.485081,0.823905 1.203214,1.434902 2.609293,2.22002 2.440417,1.362668 4.188955,2.683195 5.583444,4.216717 1.248747,1.373246 1.527899,1.90882 1.187669,2.278637 -0.179531,0.195144 -0.438241,0.158123 -1.431657,-0.204871 -1.797319,-0.656742 -3.409217,-1.79882 -5.20892,-3.690686 C 48.285363,45.909724 46.071962,42.329649 44.71337,38.619145 43.895547,36.385549 43.47829,34.696121 42.245389,28.626479 41.107626,23.025223 40.73949,21.503034 40.016916,19.412027 38.711221,15.633573 37.010935,12.562909 34.77851,9.9516324 32.972018,7.8385708 30.947374,5.9968888 28.801935,4.5151463 28.394391,4.2336774 27.433552,3.0770205 27.432431,3.0447725 c -9.92e-4,-0.032241 1.457605,-0.6573777 3.16306,-1.4315088 l 3.053813,-1.38617032 0.917028,0.78413392 c 0.820654,0.7880769 2.373026,2.4993616 3.004728,3.3123146 3.116122,4.010225 5.192599,8.5517291 5.967859,13.5815821 0.296984,1.92682 0.400696,4.348488 0.71396,8.982337 0.294614,4.357976 0.653034,7.141444 1.258187,9.771049 0.30177,1.31129 0.582459,1.61518 0.506799,0.548686 -0.03944,-0.555896 -0.02807,-0.663355 0.0746,-0.706188 0.199299,-0.08313 4.457982,1.990101 7.653569,3.725942 5.202827,2.826169 9.430545,5.612761 11.969878,8.395072 0.945648,1.03613 2.422402,3.667445 2.427312,3.918758 0.0017,0.07929 -6.642508,3.063877 -6.778685,3.063877 -0.02712,0 0.423225,-0.72357 0.943403,-0.908734 z"
         style="fill:#000000;stroke-width:0.0788553" />
      <path
         sodipodi:nodetypes="cccscccssscsccsccssccsccsscsssccc"
         inkscape:connector-curvature="0"
         id="path933"
         d="m 68.986439,46.111554 c -1.978493,-1.728228 -4.544194,-3.562502 -7.966205,-5.69521 -1.053721,-0.656709 -3.942364,-2.243531 -5.685866,-3.123417 -2.830951,-1.428691 -9.022128,-4.280616 -9.292679,-4.280616 -0.165956,0 -0.247543,0.210578 -0.297987,0.76912 -0.04497,0.497896 -0.08808,0.617507 -0.184728,0.512453 -0.09859,-0.107168 -0.115461,-4.214439 -0.02397,-5.840499 0.102604,-1.823858 0.223543,-3.217055 0.53559,-6.16984 0.501759,-4.747928 0.627381,-7.555245 0.4611,-10.304291 -0.251214,-4.1532093 -1.86459,-8.4302637 -3.924776,-12.62085743 -0.128372,-0.26112159 0.62552,0.78637678 0.676962,1.10561804 -0.676962,-1.10561804 2.102312,0.70694299 4.431861,2.05600589 2.32955,1.3490629 4.24789,2.5997249 4.24789,2.5997249 0.09445,0.038883 -0.176297,1.9229525 -0.425162,3.516481 -0.395426,2.5319586 -1.108076,5.2237976 -3.097882,11.7013776 -1.091701,3.553897 -1.396447,4.764885 -0.907984,3.608121 0.110398,-0.261446 0.252745,-0.497051 0.316323,-0.52357 0.142654,-0.0595 2.965907,0.819541 10.473032,3.260862 3.182332,1.034897 6.960286,2.262674 8.395455,2.728397 l 2.609398,0.846768 0.788451,2.445829 c 0.01372,1.674101 -0.773537,2.445831 -0.828151,2.445831 -0.04388,0 -0.206054,-0.06971 -0.360391,-0.154914 -0.665375,-0.367318 -3.401291,-1.629701 -4.478347,-2.066361 -5.115208,-2.073815 -17.099464,-6.657703 -17.406088,-6.657703 -0.21929,0 -0.338289,0.300486 -0.549008,1.386314 -0.258161,1.33029 -0.255741,1.454875 0.03194,1.645038 0.126045,0.08332 1.649142,0.753942 3.384656,1.490268 10.861107,4.608039 12.940229,5.589848 17.223534,8.133329 1.164776,0.69166 2.143722,1.283442 2.175434,1.315072 0.03171,0.03163 0.347561,1.478763 0.336645,3.159144 l -0.318667,3.00883 z"
         style="fill:#000000;stroke-width:0.0788553" />
      <path
         sodipodi:nodetypes="scccscccccs"
         inkscape:connector-curvature="0"
         id="path935"
         d="m 48.489427,22.041772 c 0,-0.04003 0.183446,-0.408962 0.407657,-0.819847 0.950346,-1.741581 4.432304,-8.341755 5.642101,-10.694804 0.720683,-1.4017296 1.562093,-3.1057718 1.614815,-3.1684994 0.08053,-0.095802 0.106585,0.3259302 1.325185,0.9233192 l 1.983559,0.548956 -1.354347,1.3651222 c 0,0 -4.613422,5.34449 -5.275966,6.148756 -0.291195,0.35348 -0.502652,0.631172 -0.939441,1.257459 -0.72477,1.039195 -2.914297,3.961285 -3.259596,4.350176 -0.07918,0.08918 -0.143967,0.129391 -0.143967,0.08936 z"
         style="fill:#000000;stroke-width:0.0788553" />
      <path
         sodipodi:nodetypes="sscccscccs"
         inkscape:connector-curvature="0"
         id="path937"
         d="m 53.786094,15.619422 c 0,-0.0069 -0.01005,-0.157434 0.387304,-0.492799 0.985338,-0.831614 2.988545,-2.350626 2.988545,-2.350626 l 3.151182,-2.555655 1.261279,-0.146615 c 0.429349,0.242622 0.299743,1.04738 0.299432,1.069988 -3.11e-4,0.02261 -0.774086,0.474996 -1.719502,1.005308 -0.945419,0.530309 -2.195439,1.252492 -2.777829,1.604851 -0.582386,0.352363 -1.440069,1.098135 -2.043255,1.380117 -1.077892,0.503902 -1.547156,0.572495 -1.547156,0.485431 z"
         style="fill:#000000;stroke-width:0.0788553" />
      <path
         sodipodi:nodetypes="ccccccscscscc"
         inkscape:connector-curvature="0"
         id="path939"
         d="m 53.786094,15.619422 c 0.03952,-0.03746 0.344138,-0.193107 0.676931,-0.345889 0.33279,-0.152787 0.661457,-0.237763 0.682256,-0.262305 0.0208,-0.02455 0.08887,-0.055 0.151272,-0.06768 0.0624,-0.01269 0.159128,-0.181806 0.450323,-0.311865 0.291191,-0.130063 1.777118,-0.582354 3.066689,-1.069047 1.289575,-0.486695 2.80416,-1.060229 3.365748,-1.274517 l 1.021067,-0.389614 2.075819,-0.284563 c 0.68543,-0.09396 0.153735,1.563491 0.154327,1.587325 6.61e-4,0.02383 -1.504996,0.367455 -3.345759,0.763599 -1.840759,0.396145 -4.360112,1.010966 -5.646946,1.303153 -2.372288,0.604139 -3.033731,0.793789 -2.651727,0.351407 z"
         style="fill:#000000;stroke-width:0.0788553" />
      <path
         sodipodi:nodetypes="cscsccccccccscc"
         inkscape:connector-curvature="0"
         id="path941"
         d="m 67.996884,18.262501 c -0.01733,-0.01855 -1.222762,-0.07419 -2.67873,-0.123633 -1.455968,-0.04945 -3.906535,-0.143081 -5.4457,-0.20808 -1.539168,-0.065 -3.921664,-0.162577 -5.294432,-0.216847 -1.372771,-0.05427 -3.076824,-0.108088 -3.091611,-0.121538 -0.02172,-0.01977 0.689173,-0.936176 0.898937,-1.200475 0.02923,-0.03682 0.710551,-0.08319 1.121785,-0.124359 1.459959,-0.146161 11.604666,-0.928728 12.869907,-1.008999 2.227458,-0.141314 3.397554,-0.357995 3.672285,-0.181591 l -0.684712,0.377253 0.780937,1.343826 -0.165652,1.575338 -1.283395,-0.07717 c -0.366895,-0.02207 -0.682288,-0.01517 -0.699619,-0.03371 z"
         style="fill:#000000;stroke-width:0.0788553" />
      <path
         sodipodi:nodetypes="csccsccscccc"
         inkscape:connector-curvature="0"
         id="path943"
         d="m 68.570445,25.93653 c -1.077687,-0.315643 -3.875909,-1.014956 -9.203407,-2.300055 -3.008353,-0.725672 -6.422725,-1.555321 -7.587501,-1.843662 -1.164777,-0.288345 -2.411222,-0.535905 -2.511263,-0.550692 -0.166644,-0.02462 -0.08638,-0.275916 0.658543,-1.241676 0.810649,-1.050967 0.430011,-1.001434 0.705614,-0.955672 0.152039,0.02523 2.308099,0.358502 4.09686,0.608974 4.006256,0.560971 7.78091,1.127252 11.647749,1.747411 l 2.949754,0.47308 0.02017,2.116099 c 0.02311,2.422713 0.10968,2.205751 -0.776533,1.946193 z"
         style="fill:#000000;stroke-width:0.0788553" />
      <path
         inkscape:connector-curvature="0"
         id="path945"
         d="m 25.609919,48.987202 c -0.253257,-0.02297 -5.509702,-0.225624 -9.227438,-0.355749 -2.402405,-0.08409 -5.100526,-0.195464 -7.2420241,-0.298944 l -1.1156125,-0.05391 v -1.878254 c 0,-1.247697 0.026454,-1.878254 0.078803,-1.878254 0.043341,0 0.9855251,0.148549 2.0937416,0.330103 1.848742,0.302877 10.848873,1.617208 15.185627,2.217634 0.998376,0.138222 1.858754,0.259706 1.911949,0.26996 0.05319,0.01024 -0.253128,0.389747 -0.680715,0.843318 -0.670701,0.711461 -0.808574,0.821849 -1.004331,0.804093 z"
         style="fill:#000000;stroke-width:0.0788553" />
      <path
         sodipodi:nodetypes="ccccssccccccsccssccc"
         inkscape:connector-curvature="0"
         id="path947"
         d="m 17.111689,57.471704 c -0.488073,-0.281088 -0.691415,-0.462625 0.159687,-1.024643 1.750076,-1.381034 3.176925,-2.412326 5.010614,-3.957594 0.540788,-0.457359 1.110626,-0.911048 1.266302,-1.008191 0.315866,-0.197111 0.387612,-0.411931 0.114032,-0.341454 -0.503086,0.1296 -5.228024,1.147294 -6.490228,1.397917 -0.808681,0.160571 -2.135522,0.440699 -2.948538,0.622509 l -1.70035,0.360741 -1.897583,-0.931496 -2.0919521,-1.203135 0.7465957,-0.121807 c 0.2120935,-7.19e-4 2.4073914,-0.148002 4.8784384,-0.327619 2.47105,-0.179614 5.309672,-0.38396 6.308052,-0.454103 2.626527,-0.184531 4.277812,-0.400389 4.679395,-0.611701 0.198263,-0.104325 0.549914,-0.440714 0.887992,-0.84945 -0.109846,0.02171 1.441276,-1.788256 1.441276,-1.662578 0,0.102311 -0.157862,0.465453 -3.524982,4.603214 -2.437477,2.995349 -4.43906,5.386921 -4.50451,5.382173 -0.02093,-0.0014 -1.092637,0.657551 -1.580707,0.376463 z"
         style="fill:#000000;stroke-width:0.0788553" />
      <path
         sodipodi:nodetypes="scsccccs"
         inkscape:connector-curvature="0"
         id="path949"
         d="m 14.866837,55.456076 c -0.509258,-0.300569 -0.779885,-0.903134 -0.779885,-0.903134 0,0 2.773351,-0.8603 4.980562,-1.520898 0.852782,-0.255231 1.719453,-0.51535 1.925933,-0.578041 0.206481,-0.06269 0.387559,-0.100788 0.402396,-0.08466 0.01485,0.01614 -0.120063,0.138884 -0.299782,0.272785 -0.464076,0.345767 -4.755707,3.28153 -4.823726,3.275517 -0.03105,-0.0029 -0.896239,-0.161003 -1.405498,-0.461572 z"
         style="fill:#000000;stroke-width:0.0788553" />
      <path
         inkscape:connector-curvature="0"
         id="path951"
         d="m 24.5009,41.743733 c -0.0017,-0.214734 -9.92e-4,-0.390282 0.0017,-0.39011 0.0026,1.73e-4 0.04358,0.01359 0.09099,0.02983 0.07138,0.02444 0.07707,0.02976 0.03303,0.03091 -0.07649,0.0022 -0.09319,0.06599 -0.109038,0.41785 l -0.01359,0.301928 z"
         style="fill:#000000;stroke-width:0.0199724" />
      <path
         inkscape:connector-curvature="0"
         id="path953"
         d="M 28.539869,45.629923 C 28.038408,45.52617 26.618595,45.187451 25.314422,44.860446 24.88379,44.752474 24.527185,44.66413 24.521967,44.66413 c -0.01882,0 0.01042,-3.029185 0.03002,-3.110348 0.02897,-0.119895 0.04394,-0.128377 0.160435,-0.09091 0.952135,0.306233 4.576936,1.415704 5.02475,1.537964 0.09483,0.02588 0.179828,0.05381 0.188889,0.06204 0.02404,0.02185 -0.03254,0.194846 -0.183271,0.560109 -0.152046,0.368461 -0.585389,1.300324 -0.754153,1.621726 -0.103341,0.196816 -0.26122,0.421854 -0.292491,0.416919 -0.0069,-0.0011 -0.07725,-0.01535 -0.156265,-0.0317 z"
         style="fill:#000000;stroke-width:0.0199724" />
      <path
         inkscape:connector-curvature="0"
         id="path955"
         d="m 24.501538,42.259097 c 3.31e-4,-0.03436 0.0047,-0.04589 0.0096,-0.02563 0.0049,0.02027 0.0045,0.04837 -6.62e-4,0.06247 -0.0053,0.01409 -0.0092,-0.0025 -0.0088,-0.03684 z"
         style="fill:#000000;stroke-width:0.0199724" />
      <path
         inkscape:connector-curvature="0"
         id="path957"
         d="m 24.480356,42.314068 c 0,-0.532458 0.0041,-0.96368 0.0091,-0.958263 0.0099,0.01071 0.0068,1.909068 -0.003,1.919815 -0.0033,0.0036 -0.006,-0.429094 -0.006,-0.961552 z"
         style="fill:#000000;stroke-width:0.0142128" />
      <path
         inkscape:connector-curvature="0"
         id="path959"
         d="m 22.81721,44.26838 c -0.903484,-0.226213 -2.506137,-0.626434 -3.561452,-0.889381 l -1.918754,-0.478084 v -1.878948 c 0,-1.033419 0.004,-1.878944 0.0089,-1.878944 0.0049,0 0.368387,0.112958 0.807719,0.251018 1.282203,0.402938 3.342458,1.04091 6.255134,1.936945 l 0.07157,0.02203 0.0026,0.350875 c 0.0047,0.61044 -0.0064,2.722944 -0.01495,2.852005 l -0.0082,0.123794 z"
         style="fill:#000000;stroke-width:0.0142128" />
      <path
         inkscape:connector-curvature="0"
         id="path961"
         d="m 28.638224,45.652707 c -0.360014,-0.06537 -1.774741,-0.401791 -3.450234,-0.820461 -0.35683,-0.08917 -0.653282,-0.162121 -0.658778,-0.162121 -0.0055,0 -0.0075,-0.678476 -0.0045,-1.507729 0.0057,-1.566568 0.0092,-1.660605 0.06295,-1.713485 0.02073,-0.02038 0.04539,-0.01542 0.254319,0.05155 1.07489,0.344427 4.128121,1.279413 4.811825,1.473519 0.134963,0.03831 0.253846,0.07234 0.264186,0.0756 0.05204,0.01643 -0.03802,0.275491 -0.312054,0.89771 -0.21931,0.49796 -0.517281,1.122101 -0.657581,1.377382 -0.1006,0.18305 -0.220077,0.339894 -0.256137,0.336246 -0.01098,-0.0011 -0.03528,-0.0048 -0.05402,-0.0082 z"
         style="fill:#000000;stroke-width:0.0142128" />
      <path
         inkscape:connector-curvature="0"
         id="path963"
         d="m 28.529165,45.631285 c -0.424934,-0.08565 -1.841638,-0.423512 -3.220732,-0.768085 -0.425004,-0.10619 -0.776463,-0.193075 -0.78102,-0.193075 -0.01531,0 0.0033,-3.024509 0.01915,-3.110919 0.02652,-0.144692 0.02712,-0.144811 0.295054,-0.05902 1.090154,0.349059 4.42581,1.368364 4.982626,1.52258 0.123733,0.03425 0.127655,0.04521 0.0746,0.208142 -0.118472,0.363857 -0.666591,1.571715 -0.945022,2.082489 -0.104353,0.191435 -0.224062,0.350759 -0.26157,0.348136 -0.01098,-7.19e-4 -0.08435,-0.01438 -0.163084,-0.03026 z"
         style="fill:#000000;stroke-width:0.0142128" />
      <path
         inkscape:connector-curvature="0"
         id="path965"
         d="M 22.905819,44.290564 C 22.051073,44.076557 20.448417,43.67634 19.344368,43.401193 L 17.337004,42.900929 V 41.020368 39.13981 l 0.03069,0.0084 c 0.01686,0.0046 0.361939,0.112382 0.766818,0.239419 1.002953,0.314694 3.355292,1.044389 4.987976,1.54727 0.741476,0.228381 1.351209,0.418577 1.354958,0.422656 0.01018,0.01107 0.0023,3.03173 -0.0084,3.187643 l -0.0092,0.13443 z"
         style="fill:#000000;stroke-width:0.0142128" />
      <path
         inkscape:connector-curvature="0"
         id="path967"
         d="m 24.48472,42.788245 c 0,-0.05298 0.0023,-0.07465 0.0055,-0.04816 0.003,0.02649 0.003,0.06983 0,0.09632 -0.003,0.02649 -0.0055,0.0048 -0.0055,-0.04816 z"
         style="fill:#000000;stroke-width:0.0142128" />
      <path
         inkscape:connector-curvature="0"
         id="path969"
         d="m 28.256518,45.609647 c -1.276774,-0.28865 -1.69745,-0.39026 -3.50739,-0.84721 -0.155839,-0.03934 -0.278531,-0.07676 -0.272648,-0.08315 0.0059,-0.0064 0.01409,-0.492835 0.01822,-1.08099 l 0.0075,-1.069366 0.0026,1.074301 0.0026,1.074305 0.2215,0.05527 c 0.121825,0.03041 0.50369,0.125685 0.848589,0.21175 1.261881,0.314878 2.585412,0.628699 2.962746,0.702486 0.140621,0.0275 0.158094,0.02818 0.194725,0.0076 0.09984,-0.05612 0.303995,-0.434104 0.704123,-1.303652 0.333316,-0.72435 0.507576,-1.159436 0.507576,-1.267275 0,-0.03476 -0.0072,-0.04477 -0.03749,-0.05228 -0.02063,-0.0051 -0.0651,-0.01811 -0.09883,-0.0289 l -0.06135,-0.01959 0.129507,-0.0014 c 0.0983,-0.0011 0.143957,-0.0085 0.189474,-0.03095 0.03297,-0.01628 0.06278,-0.02653 0.06622,-0.02279 0.0083,0.0091 -1.30046,2.800312 -1.314712,2.803838 -0.0061,0.0014 -0.259573,-0.05342 -0.563234,-0.122066 z"
         style="fill:#000000;stroke-width:0.0142128" />
      <path
         inkscape:connector-curvature="0"
         id="path971"
         d="m 24.506257,43.534976 c 2.6e-5,-0.03292 0.0013,-0.04545 0.0026,-0.02786 0.0013,0.01761 0.0013,0.04453 -4.6e-5,0.05985 -0.0013,0.01531 -0.0026,0.0011 -0.0026,-0.03199 z"
         style="fill:#000000;stroke-width:0.00717525" />
      <path
         inkscape:connector-curvature="0"
         id="path973"
         d="m 28.653871,45.658059 c -0.336831,-0.06175 -1.227994,-0.269299 -2.563624,-0.597073 -0.288897,-0.0709 -1.435,-0.357172 -1.5571,-0.388934 l -0.01547,-0.004 6.6e-5,-1.265977 c 7.3e-5,-1.425999 0.0056,-1.723513 0.03482,-1.880806 0.0094,-0.05035 0.03237,-0.08767 0.05592,-0.09067 0.01,-0.0014 0.144572,0.03806 0.299154,0.0874 1.28024,0.408567 4.24739,1.315255 4.909343,1.500171 l 0.12044,0.03364 -6.62e-4,0.03587 c -0.003,0.124036 -0.241369,0.699711 -0.641053,1.54717 -0.272413,0.577595 -0.415498,0.844758 -0.513826,0.959405 -0.05604,0.06534 -0.0731,0.07386 -0.12783,0.06382 z"
         style="fill:#000000;stroke-width:0.00717525" />
      <path
         inkscape:connector-curvature="0"
         id="path975"
         d="m 28.609135,45.650727 c -0.5216,-0.104375 -1.905035,-0.433008 -3.320664,-0.788829 -0.278213,-0.06993 -0.56004,-0.140572 -0.62628,-0.156984 -0.06624,-0.01643 -0.12586,-0.03159 -0.132483,-0.03371 -0.01141,-0.0037 -0.01204,-0.07071 -0.0119,-1.273238 1.69e-4,-1.439844 0.0053,-1.718491 0.03473,-1.876705 0.0093,-0.05026 0.03237,-0.08767 0.05584,-0.09065 0.0099,-0.0014 0.167753,0.04534 0.350769,0.103548 1.289167,0.410055 4.211413,1.302869 4.844048,1.479971 l 0.134203,0.03757 -9.92e-4,0.03594 c -0.0035,0.126856 -0.244051,0.707769 -0.641299,1.548858 -0.275461,0.583228 -0.414614,0.843145 -0.511963,0.956261 -0.06472,0.0752 -0.07346,0.07812 -0.174006,0.058 z m -4.215352,-0.983991 c -0.05749,-0.01467 -2.906314,-0.728319 -3.303459,-0.827525 l -0.203025,-0.05071 -0.0017,-1.774001 -0.0017,-1.773998 0.0327,0.01049 c 0.106126,0.03404 2.821613,0.871475 3.446941,1.063015 l 0.117655,0.03604 0.0045,0.179154 c 0.0023,0.09854 0.0045,0.476534 0.0045,0.839992 0,0.497407 0.002,0.660839 0.008,0.660839 0.0061,0 0.0069,-0.09013 0.0034,-0.367009 -0.003,-0.244494 -0.0023,-0.36546 0.0023,-0.362376 0.0045,0.0029 0.0065,0.17212 0.0058,0.488572 -6.61e-4,0.266164 -0.0033,0.467106 -0.0058,0.446533 l -0.0047,-0.0374 -0.0023,0.04862 c -0.0023,0.04552 -0.0026,0.04384 -0.0066,-0.0262 -0.0023,-0.04114 -0.0049,0.164205 -0.0058,0.456327 -0.0017,0.533134 -0.0097,0.968647 -0.01848,0.99307 -0.0026,0.0072 -0.0067,0.01272 -0.0091,0.01229 -0.0023,-3.6e-4 -0.03075,-0.0075 -0.06293,-0.01574 z m 0.110116,-1.569386 c 0,-0.0299 -0.003,-0.05237 -0.0069,-0.05237 -0.0076,0 -0.0097,0.09169 -0.0023,0.09975 0.0084,0.0092 0.0092,0.0053 0.0092,-0.04738 z"
         style="fill:#000000;stroke-width:0.00717525" />
      <path
         inkscape:connector-curvature="0"
         id="path977"
         d="m 28.798397,45.724435 c -0.03059,-0.0046 -0.611981,-0.134297 -1.011603,-0.225758 -0.828838,-0.189692 -1.231228,-0.286878 -2.357239,-0.569325 -0.741363,-0.185961 -0.821253,-0.206592 -0.900776,-0.232636 l -0.04738,-0.01553 0.0045,-0.162343 c 0.0046,-0.169381 0.0062,-0.756098 0.002,-0.760642 -0.0013,-0.0014 -0.0048,0.183392 -0.0078,0.410731 -0.003,0.227335 -0.0073,0.435218 -0.0097,0.461963 l -0.0043,0.04862 -0.02063,-0.0025 c -0.01134,-0.0014 -0.759279,-0.187353 -1.662055,-0.413448 -0.902773,-0.226092 -1.698699,-0.425417 -1.768726,-0.442939 l -0.127321,-0.03185 -0.0017,-1.77421 -0.0017,-1.77421 0.0327,0.01046 c 0.08762,0.02804 2.599181,0.802368 3.375737,1.040777 l 0.190982,0.05863 v 0.06183 c 0,0.06221 0.0084,0.08187 0.01633,0.03845 0.0023,-0.01287 0.0043,-0.03837 0.0043,-0.0567 v -0.03332 l 0.02146,0.0051 c 0.04279,0.01021 0.112501,0.03937 0.102428,0.04284 -0.0057,0.0018 -0.01931,0.0065 -0.03026,0.01017 -0.02794,0.0093 -0.04643,0.0398 -0.04998,0.08245 l -0.003,0.03639 0.01306,-0.03929 c 0.01607,-0.04833 0.03267,-0.06918 0.05506,-0.06918 0.0094,0 0.149072,0.04188 0.310354,0.09307 1.441749,0.457596 4.3227,1.337629 4.907752,1.499156 l 0.106674,0.02944 -9.92e-4,0.03636 c -0.0035,0.127285 -0.241905,0.704021 -0.6366,1.539992 -0.283179,0.599786 -0.418704,0.85254 -0.519235,0.968377 -0.0577,0.06648 -0.0708,0.07221 -0.138931,0.06076 -0.316729,-0.05323 -1.871521,-0.422314 -3.48633,-0.827614 -0.351449,-0.08821 -0.64022,-0.160381 -0.641708,-0.160381 -0.0017,0 -0.0035,-0.192722 -0.0045,-0.428274 l -0.002,-0.428274 -0.0017,0.434345 -0.0017,0.434345 0.383683,0.09562 c 1.132973,0.282342 1.36098,0.3386 1.925298,0.475057 1.09519,0.264827 1.782194,0.419605 1.862491,0.419605 0.01921,0 0.04487,-0.0051 0.05703,-0.01139 0.09963,-0.05139 0.284022,-0.388532 0.674987,-1.234139 0.259884,-0.562097 0.393299,-0.871687 0.48217,-1.118878 0.04258,-0.118442 0.05816,-0.17915 0.05816,-0.226605 0,-0.04112 3.31e-4,-0.04087 -0.09635,-0.06946 l -0.07226,-0.02135 0.110116,-0.0045 c 0.09927,-0.0041 0.116188,-0.0068 0.171797,-0.02771 0.03393,-0.01276 0.06291,-0.02189 0.06442,-0.02024 0.0078,0.0085 -1.264737,2.724591 -1.302113,2.779264 -0.0044,0.0064 -0.01521,0.01017 -0.02493,0.0087 z m -4.301386,-2.477469 c 0.0041,0 0.0074,0.08257 0.0086,0.215071 9.92e-4,0.118289 0.0023,0.02067 0.003,-0.21694 6.61e-4,-0.264425 -0.0013,-0.432016 -0.0053,-0.432016 -0.0037,0 -0.0064,-0.05312 -0.0064,-0.127173 0,-0.07823 0.0026,-0.127173 0.0067,-0.127173 0.0042,0 0.0067,-0.06326 0.0067,-0.168648 -1.9e-5,-0.107814 -0.0023,-0.167023 -0.0067,-0.164137 -0.0042,0.0029 -0.0065,-0.01898 -0.0063,-0.05764 3.24e-4,-0.04168 0.0023,-0.05723 0.0064,-0.0472 0.0043,0.01075 0.0061,0.0029 0.0064,-0.02807 2.65e-4,-0.02365 0.0036,-0.04301 0.0074,-0.04301 0.0043,0 0.0069,-0.04184 0.007,-0.110341 9.9e-5,-0.10871 0.0094,-0.296953 0.01782,-0.359077 0.0026,-0.01923 0.0017,-0.03181 -0.0026,-0.03181 -0.0083,0 -0.01445,0.06599 -0.02563,0.276789 l -0.0085,0.160838 -9.92e-4,-0.213203 c -9.92e-4,-0.203225 -0.0043,-0.269306 -0.01379,-0.269309 -0.0023,0 -0.0033,0.342417 -0.0023,0.760933 0.0017,0.583069 0.004,0.762431 0.01032,0.767348 0.0064,0.005 0.0063,0.0073 -3.08e-4,0.01021 -0.01055,0.0046 -0.01217,0.107279 -0.0017,0.107279 0.01098,0 0.0081,0.05693 -0.0034,0.06733 -0.0088,0.008 -0.01009,0.04325 -0.0087,0.245911 l 0.0017,0.236597 0.002,-0.226293 c 0.0013,-0.139771 0.0045,-0.226292 0.0086,-0.226292 z"
         style="fill:#000000;stroke-width:0.00717525" />
      <path
         inkscape:connector-curvature="0"
         id="path979"
         d="m 28.498807,45.659439 c -1.040494,-0.229524 -1.826726,-0.416898 -3.217217,-0.766727 -0.591434,-0.148796 -0.675335,-0.170628 -0.751042,-0.19541 l -0.04561,-0.01492 0.002,-0.461485 0.002,-0.461489 -0.0063,0.398179 c -0.0035,0.219 -0.0086,0.426031 -0.01151,0.460069 l -0.0052,0.06189 -0.0206,-0.0025 c -0.01134,-0.0014 -0.677173,-0.166818 -1.479637,-0.367808 -0.802467,-0.200985 -1.596847,-0.399749 -1.765287,-0.441695 -0.168443,-0.04194 -0.308588,-0.07859 -0.311435,-0.08143 -0.003,-0.0029 -0.0044,-0.801603 -0.0034,-1.775026 l 0.0017,-1.769861 0.505843,0.156513 c 0.485897,0.150342 2.205376,0.680252 2.802778,0.863762 l 0.287333,0.08826 v 0.06208 c 0,0.03415 0.0026,0.06207 0.0062,0.06207 0.01005,0 0.01452,-0.02099 0.01452,-0.06853 v -0.04487 l 0.02146,0.0051 c 0.04279,0.01021 0.112501,0.03937 0.102429,0.04284 -0.0057,0.0018 -0.01954,0.0066 -0.03082,0.01031 -0.0253,0.0083 -0.05159,0.05563 -0.05144,0.09254 1.06e-4,0.0252 6.62e-4,0.02469 0.0126,-0.01312 0.01524,-0.04796 0.03191,-0.06918 0.05436,-0.06918 0.0094,0 0.171664,0.04893 0.360712,0.108738 1.52147,0.481322 4.390419,1.35687 4.871289,1.48662 0.08982,0.02423 0.09298,0.02577 0.09513,0.04577 0.01138,0.105787 -0.255016,0.748716 -0.686967,1.657949 -0.246373,0.518602 -0.384057,0.770009 -0.480117,0.876669 -0.05179,0.0575 -0.06466,0.06256 -0.130906,0.05141 -0.166863,-0.02807 -0.880492,-0.190066 -1.601645,-0.363534 -0.985123,-0.236964 -2.510624,-0.616712 -2.520488,-0.627434 -0.0026,-0.0029 -0.0068,-0.191223 -0.009,-0.418282 l -0.004,-0.412836 -0.0013,0.423138 -0.0013,0.423137 0.246038,0.06104 c 0.13532,0.03357 0.442698,0.110097 0.683059,0.17006 1.747381,0.435916 3.129814,0.759151 3.246782,0.759151 0.06195,0 0.112716,-0.04933 0.20363,-0.19787 0.124838,-0.203961 0.377699,-0.717363 0.643118,-1.305762 0.336771,-0.746581 0.456861,-1.074804 0.411347,-1.124276 -0.0054,-0.0059 -0.03579,-0.01779 -0.06749,-0.02642 -0.100108,-0.02728 -0.09926,-0.02875 0.01908,-0.03289 0.100279,-0.0036 0.115232,-0.0059 0.171314,-0.02721 0.0338,-0.01283 0.06278,-0.02189 0.06441,-0.02013 0.008,0.0087 -1.2579,2.712176 -1.301948,2.780536 -0.0074,0.0115 -0.03409,0.0068 -0.324441,-0.05726 z m -4.00127,-2.382551 c 0.0013,-0.01851 0.0042,0.02692 0.0063,0.100993 0.0033,0.107897 0.0042,0.07928 0.0054,-0.144006 9.92e-4,-0.176195 -9.92e-4,-0.278658 -0.0052,-0.278658 -0.0041,0 -0.0067,-0.06105 -0.0068,-0.158235 -5.6e-5,-0.08703 -0.0017,-0.159967 -0.0036,-0.162084 -0.0077,-0.0084 -0.0035,0.373752 0.0043,0.38965 0.0059,0.012 0.0059,0.01668 0,0.01883 -0.0099,0.0036 -0.01085,0.106333 -9.92e-4,0.106333 0.01048,0 0.0082,0.04788 -0.0034,0.07208 -0.0085,0.01779 -0.01009,0.05898 -0.009,0.242107 l 0.0013,0.220683 0.0046,-0.187018 c 0.0026,-0.102862 0.0057,-0.202168 0.0071,-0.220683 z m 0.0013,-0.190759 c 7.9e-5,-0.01646 0.0013,-0.02232 0.003,-0.01301 0.0017,0.0093 0.0017,0.02279 -1.39e-4,0.0299 -0.0017,0.0072 -0.003,-3.6e-4 -0.003,-0.01693 z m 0.01065,-0.767708 c -9.92e-4,-0.131135 -0.0044,-0.238431 -0.0072,-0.238438 -0.003,-8e-6 -0.0052,-0.0087 -0.0052,-0.01941 0,-0.01312 0.0045,-0.02067 0.01376,-0.02333 0.0129,-0.0037 0.01379,-0.01024 0.01385,-0.105898 9.9e-5,-0.101108 0.0096,-0.287824 0.01786,-0.352596 0.003,-0.02394 0.0023,-0.03149 -0.003,-0.02609 -0.0076,0.0078 -0.01835,0.132428 -0.02801,0.325316 -0.0049,0.09761 -0.0056,0.08526 -0.0065,-0.123432 -6.61e-4,-0.134764 -0.0039,-0.236605 -0.0078,-0.243125 -0.0043,-0.0073 -0.0067,0.174816 -0.0068,0.521546 -9.3e-5,0.478292 9.92e-4,0.532314 0.01058,0.528318 0.0094,-0.0039 0.01042,-0.033 0.0086,-0.242874 z m -0.0099,0.124362 c 2e-5,-0.04114 0.0013,-0.05702 0.0026,-0.0353 0.0013,0.02175 0.0013,0.0554 -3.3e-5,0.07481 -0.0013,0.01941 -0.0026,0.0014 -0.0026,-0.03953 z"
         style="fill:#000000;stroke-width:0.00717525" />
      <path
         inkscape:connector-curvature="0"
         id="path981"
         d="M 28.481595,45.655651 C 27.44128,45.426134 26.689789,45.246962 25.281358,44.892648 24.695827,44.74535 24.608427,44.722663 24.5303,44.697683 l -0.04586,-0.01467 0.0023,-0.43937 0.0023,-0.439369 -0.0056,0.344113 c -0.006,0.368688 -0.01154,0.520303 -0.01948,0.528922 -0.006,0.0065 0.06858,0.0248 -1.470696,-0.360774 -0.688908,-0.172569 -1.444576,-0.361794 -1.679259,-0.420496 l -0.426697,-0.106728 -0.0017,-1.775616 c -0.0013,-1.475916 -1.88e-4,-1.774972 0.0074,-1.771794 0.0126,0.0052 0.724036,0.22506 2.089939,0.6457 0.634024,0.195252 1.23097,0.379114 1.326544,0.408584 l 0.173777,0.05358 v 0.05794 c 0,0.03188 0.0026,0.05981 0.0062,0.06208 0.0096,0.0064 0.01448,-0.01531 0.01448,-0.06372 0,-0.02926 0.0026,-0.04427 0.0082,-0.04427 0.0045,0 0.03375,0.0091 0.06499,0.02009 0.05291,0.01873 0.06813,0.03228 0.03628,0.03228 -0.03244,0 -0.06874,0.05313 -0.06785,0.09927 2.08e-4,0.01082 0.0049,0.0039 0.01339,-0.0197 0.0165,-0.04591 0.03201,-0.06463 0.05356,-0.06463 0.01508,0 0.09638,0.02484 0.541807,0.165557 1.330352,0.420291 4.051531,1.250551 4.638606,1.415291 l 0.144526,0.04055 -9.92e-4,0.0375 c -0.003,0.120657 -0.19992,0.60378 -0.569827,1.396986 -0.318757,0.683526 -0.476936,0.983814 -0.583379,1.107497 -0.05531,0.06427 -0.07234,0.07364 -0.121796,0.06701 -0.08226,-0.01103 -0.545354,-0.112358 -1.009004,-0.220762 -0.8534,-0.199529 -3.119735,-0.759027 -3.133005,-0.773451 -0.0026,-0.0029 -0.0068,-0.169349 -0.009,-0.369662 l -0.004,-0.364206 -0.0013,0.374245 -0.0013,0.374244 0.490358,0.122127 c 0.95481,0.237798 1.472627,0.36537 1.903176,0.468879 1.000142,0.24044 1.641695,0.385473 1.756451,0.397065 0.04,0.004 0.0515,0.0022 0.07849,-0.0119 0.09251,-0.04868 0.244551,-0.317768 0.577136,-1.021462 0.381332,-0.806846 0.624507,-1.394229 0.636341,-1.537066 0.0044,-0.05357 -0.0017,-0.05923 -0.09447,-0.08704 l -0.07227,-0.02167 0.110179,-0.0047 c 0.09926,-0.0042 0.116254,-0.007 0.171562,-0.02796 0.03376,-0.01279 0.06256,-0.022 0.06399,-0.02045 0.0087,0.0095 -1.253247,2.705652 -1.30169,2.781039 -0.0073,0.01136 -0.03666,0.0061 -0.341553,-0.06117 z M 24.497474,43.28063 c 0.0013,-0.02099 0.0044,0.0053 0.0069,0.05984 0.0026,0.05349 0.003,-0.04077 0.0013,-0.209461 -0.0017,-0.168691 -0.0055,-0.350472 -0.0081,-0.403962 -0.0045,-0.08984 -0.0049,-0.08356 -0.0062,0.08234 -6.61e-4,0.100989 0.0017,0.190893 0.0055,0.205421 0.0045,0.01704 0.0045,0.02836 0,0.03325 -0.009,0.0097 -0.0089,0.101664 7e-5,0.101664 0.01002,0 0.0082,0.04395 -0.0033,0.07855 -0.0077,0.02333 -0.0097,0.07034 -0.009,0.213199 l 9.92e-4,0.18328 0.0047,-0.153354 c 0.0026,-0.08435 0.0057,-0.17019 0.007,-0.19076 z m 0.01015,-0.923211 c -0.0026,-0.101169 -0.0054,-0.190674 -0.0058,-0.198905 -3.3e-4,-0.0082 0.0017,-0.02297 0.0049,-0.03274 0.004,-0.0129 0.0033,-0.01628 -0.0026,-0.01229 -0.0061,0.0041 -0.0069,-0.0037 -0.0033,-0.03084 0.0026,-0.01998 0.0075,-0.03814 0.01058,-0.04034 0.003,-0.0022 0.0038,-0.01175 0.0017,-0.02121 -0.0023,-0.0095 -0.0061,-0.01384 -0.0084,-0.0097 -0.0023,0.0041 -0.0037,-0.102455 -0.003,-0.23681 6.61e-4,-0.134354 -0.0017,-0.249361 -0.0049,-0.255575 -0.007,-0.01298 -0.009,1.016465 -0.002,1.036219 0.0041,0.01172 0.005,0.01168 0.01128,-7.19e-4 0.0044,-0.0085 0.005,-0.07902 0.0017,-0.19719 z m 0.009,-0.438288 c -9.92e-4,-0.06712 -0.0041,-0.05699 -0.0074,0.02397 -0.0013,0.02962 1.29e-4,0.04983 0.003,0.04488 0.003,-0.005 0.0049,-0.03594 0.0044,-0.06884 z m 0.006,-0.136522 c -0.0017,-0.01132 -0.003,-0.0022 -0.003,0.02056 0,0.02264 0.0013,0.03188 0.003,0.02056 0.0017,-0.01132 0.0017,-0.02983 0,-0.04114 z m -1.85e-4,-0.05985 c -0.0017,-0.0072 -0.0033,-0.0014 -0.0033,0.01308 0,0.01441 0.0013,0.02031 0.0033,0.01308 0.0017,-0.0072 0.0017,-0.01898 0,-0.02617 z m 0.01157,-0.06564 c 0.002,-0.02459 0.0055,-0.05985 0.0082,-0.07837 0.0034,-0.02415 0.0026,-0.03152 -0.0026,-0.02609 -0.0041,0.0042 -0.0096,0.0412 -0.01214,0.08229 -0.0026,0.04109 -0.003,0.07295 -6.61e-4,0.07079 0.0023,-0.0022 0.0055,-0.02405 0.0073,-0.04862 z"
         style="fill:#000000;stroke-width:0.00717525" />
      <path
         inkscape:connector-curvature="0"
         id="path983"
         d="M 28.481605,45.655759 C 27.46735,45.432406 26.756154,45.263179 25.384822,44.9189 24.733229,44.755313 24.613483,44.724309 24.529619,44.697474 l -0.04654,-0.01488 0.003,-0.386782 c 0.003,-0.380531 0.003,-0.382066 -0.0026,-0.09504 -0.0062,0.32413 -0.01207,0.468484 -0.01948,0.476514 -0.0061,0.0066 0.157148,0.04671 -1.56365,-0.383878 -0.804356,-0.201273 -1.587102,-0.397025 -1.739432,-0.435013 l -0.276966,-0.06907 -4.3e-5,-1.775313 c -4.3e-5,-1.738508 2.25e-4,-1.77522 0.013,-1.770817 0.0505,0.01743 3.576133,1.103663 3.582181,1.103663 0.0023,0 0.0042,0.02441 0.0043,0.05424 1.09e-4,0.05624 0.0078,0.08549 0.01614,0.06173 0.0023,-0.0069 0.0044,-0.03239 0.0044,-0.05674 0,-0.03127 0.0026,-0.04427 0.0089,-0.04427 0.0049,0 0.0351,0.0097 0.0671,0.0216 0.04358,0.01617 0.05473,0.02286 0.04442,0.0266 -0.04621,0.01675 -0.06978,0.04366 -0.07577,0.08646 -0.0036,0.02588 -0.0035,0.02577 0.01065,-0.0074 0.0079,-0.01847 0.01928,-0.0395 0.0253,-0.04675 0.01997,-0.02401 -0.03284,-0.03822 0.604155,0.162678 1.41503,0.446296 3.985635,1.23007 4.645491,1.416405 l 0.103232,0.02915 -0.0013,0.04024 c -0.0033,0.106822 -0.135575,0.44296 -0.428281,1.087524 -0.383515,0.844539 -0.605229,1.276508 -0.727488,1.417379 -0.06105,0.07034 -0.07021,0.0736 -0.160415,0.05706 -0.41058,-0.07528 -1.902657,-0.430768 -3.663291,-0.87279 -0.233559,-0.05864 -0.428651,-0.109295 -0.433532,-0.112573 -0.0069,-0.0046 -0.0098,-0.07444 -0.0128,-0.314849 l -0.0039,-0.308887 -0.0013,0.318048 -0.0013,0.318048 0.820704,0.203897 c 1.721959,0.427803 2.835818,0.692401 3.235741,0.768654 0.112345,0.02142 0.133475,0.02236 0.16644,0.0074 0.103007,-0.04678 0.297371,-0.403855 0.718814,-1.320542 0.343497,-0.747153 0.502126,-1.145684 0.502126,-1.261532 0,-0.03202 -0.01243,-0.04044 -0.09979,-0.06746 l -0.06882,-0.02128 0.10675,-0.005 c 0.09227,-0.0043 0.115559,-0.0081 0.17175,-0.02775 0.03576,-0.01251 0.06625,-0.02139 0.06776,-0.01973 0.0081,0.0088 -1.256695,2.70984 -1.301673,2.779634 -0.008,0.01244 -0.02864,0.0088 -0.342095,-0.06024 z M 24.497306,43.28063 c 0.002,-0.03443 0.0026,-0.03296 0.0066,0.01869 0.0033,0.04049 0.0048,0.01621 0.0057,-0.08729 0.0013,-0.141522 -0.0013,-0.170944 -0.01326,-0.162832 -0.0089,0.006 -0.0076,0.08846 0.0017,0.09836 0.0079,0.0086 0.0058,0.04 -0.0068,0.0994 -0.0039,0.01851 -0.0067,0.09763 -0.0062,0.175797 l 9.92e-4,0.142136 0.0047,-0.123435 c 0.0026,-0.06789 0.0057,-0.140264 0.0069,-0.160834 z m 6.61e-4,-0.497471 -0.006,-0.115952 -9.92e-4,0.142136 c -6.61e-4,0.07817 0.0013,0.160647 0.0041,0.183277 0.0049,0.03963 0.0052,0.03867 0.0069,-0.02617 9.92e-4,-0.03703 -9.92e-4,-0.119506 -0.0041,-0.18328 z m 0.01108,-0.461105 c -9.92e-4,-0.116656 -0.0042,-0.212113 -0.007,-0.212131 -0.003,-1.8e-5 -0.0052,-0.01517 -0.0052,-0.03368 0,-0.02494 0.0026,-0.03368 0.01032,-0.03368 0.01233,0 0.01369,-0.02329 0.002,-0.03591 -0.0061,-0.0066 -0.0079,-0.06743 -0.0067,-0.235271 9.92e-4,-0.142061 -9.92e-4,-0.230477 -0.0054,-0.237518 -0.0078,-0.01272 -0.01035,0.999568 -0.0026,1.021709 0.01194,0.03379 0.0162,-0.03533 0.01445,-0.233528 z m 0.0066,-0.415816 c -0.0013,-0.01758 -0.0026,-0.0051 -0.0026,0.02786 -3e-5,0.03292 0.0013,0.04731 0.0026,0.03199 0.0013,-0.01531 0.0017,-0.04225 5e-5,-0.05984 z m 0.0067,-0.119891 c -0.0017,-0.0092 -0.003,-0.0018 -0.003,0.01682 0,0.01851 0.0013,0.02609 0.003,0.01682 0.0017,-0.0093 0.0017,-0.02441 0,-0.03368 z m -2.97e-4,-0.05984 c -0.002,-0.0051 -0.0035,-0.0011 -0.0035,0.0093 0,0.01028 0.0017,0.01449 0.0035,0.0093 0.002,-0.0051 0.002,-0.01355 0,-0.01869 z m 0.01838,-0.132784 c 0.0026,-0.0312 0.002,-0.04441 -0.002,-0.03686 -0.0035,0.0065 -0.008,0.0435 -0.0099,0.08229 -0.0038,0.07548 0.004,0.04609 0.012,-0.04543 z"
         style="fill:#000000;stroke-width:0.00717525" />
      <path
         inkscape:connector-curvature="0"
         id="path985"
         d="m 28.801836,45.724895 c -0.109845,-0.02024 -0.974856,-0.214242 -1.459565,-0.32735 -0.871462,-0.203354 -2.693869,-0.657263 -2.826329,-0.703953 l -0.0327,-0.01154 -9.92e-4,-0.162107 -9.92e-4,-0.162106 -0.0048,0.15563 c -0.0026,0.08559 -0.0077,0.158806 -0.01124,0.162691 -0.0073,0.008 0.01835,0.01427 -1.499276,-0.365884 -0.590495,-0.147912 -1.300474,-0.325639 -1.577734,-0.394951 l -0.504107,-0.126023 -1.3e-5,-1.775314 c -1.3e-5,-1.687318 6.61e-4,-1.775115 0.01204,-1.771309 0.065,0.0216 3.578974,1.104155 3.584129,1.104155 0.0017,0 0.0034,0.02272 0.0037,0.0505 2.67e-4,0.02778 0.003,0.05705 0.0057,0.06506 0.0049,0.01348 0.0056,0.01319 0.0098,-0.0037 0.0023,-0.01006 0.0046,-0.03598 0.0046,-0.05757 6.3e-5,-0.0271 0.003,-0.03928 0.009,-0.03928 0.0049,0 0.0351,0.0097 0.0671,0.0216 0.04358,0.01617 0.05473,0.02286 0.04442,0.0266 -0.04603,0.01671 -0.06951,0.04337 -0.07611,0.08646 -0.004,0.02577 -0.0038,0.02566 0.01061,-0.0073 0.01971,-0.04513 0.03323,-0.06 0.05452,-0.0599 0.0098,4.7e-5 0.05967,0.01319 0.110768,0.02926 0.0511,0.01603 0.301958,0.09487 0.55746,0.175182 1.528134,0.480326 3.916797,1.208138 4.556019,1.388187 0.116796,0.03289 0.12658,0.02433 0.01253,-0.01096 l -0.07102,-0.02196 0.1076,-0.0054 c 0.0923,-0.0046 0.116727,-0.0086 0.171753,-0.02778 0.03529,-0.01233 0.06524,-0.02124 0.06657,-0.01981 0.009,0.0097 -1.257044,2.713804 -1.301284,2.779368 -0.0045,0.0066 -0.01435,0.01093 -0.02192,0.0095 z m -0.05088,-0.0809 c 0.100146,-0.07544 0.308237,-0.465543 0.684064,-1.2824 0.336936,-0.732333 0.499352,-1.135598 0.509173,-1.264248 l 0.0033,-0.04114 -0.007,0.03741 c -0.03432,0.18277 -0.191213,0.566158 -0.540319,1.320352 -0.332515,0.718358 -0.50615,1.050133 -0.616984,1.17892 -0.04501,0.0523 -0.07002,0.07037 -0.09742,0.07037 -0.110639,0 -1.838811,-0.408459 -3.607018,-0.852533 -0.5621,-0.14117 -0.560496,-0.140745 -0.561865,-0.148304 -6.61e-4,-0.0029 -0.003,-0.118094 -0.0056,-0.255928 l -0.0046,-0.250605 -0.0013,0.261826 -0.0013,0.261826 0.734657,0.182558 c 1.546694,0.384348 2.552593,0.625604 3.119342,0.748144 0.319021,0.06898 0.343477,0.07108 0.393018,0.03375 z m -4.262575,-1.527793 c -0.0013,-0.0399 -0.0023,-0.0052 -0.0023,0.07708 3e-6,0.08229 9.92e-4,0.114931 0.0023,0.07254 0.0013,-0.04239 0.0013,-0.109719 -1.7e-5,-0.149616 z m 0.0089,-0.835575 0.002,-0.03741 0.0047,0.03741 c 0.0033,0.02573 0.005,0.0036 0.0057,-0.07107 9.92e-4,-0.113824 -0.0034,-0.167009 -0.01349,-0.160248 -0.0088,0.0059 -0.0073,0.09114 0.0017,0.09719 0.0078,0.0052 0.0062,0.03098 -0.0071,0.115424 -0.0036,0.02264 -0.0062,0.08995 -0.0058,0.149612 l 6.61e-4,0.108472 0.0049,-0.100988 c 0.0026,-0.05555 0.0058,-0.117825 0.0068,-0.138395 z m 6.61e-4,-0.475029 -0.0059,-0.123431 -9.92e-4,0.131738 c -6.61e-4,0.07246 0.0013,0.1482 0.0041,0.168317 l 0.0052,0.03658 0.0017,-0.04489 c 9.92e-4,-0.02469 -9.92e-4,-0.100428 -0.0041,-0.168317 z m 6.61e-4,-0.527393 c 9.92e-4,-0.131663 0.0046,-0.245828 0.008,-0.253703 0.0042,-0.0095 0.0039,-0.01272 -6.62e-4,-0.0096 -0.0048,0.0032 -0.0066,-0.06814 -0.0055,-0.223346 9.92e-4,-0.125462 -9.92e-4,-0.22993 -0.0044,-0.232148 -0.0034,-0.0022 -0.0057,0.209936 -0.0052,0.48827 3.3e-4,0.270769 0.002,0.487253 0.0034,0.481082 0.0013,-0.0062 0.0034,-0.118943 0.0044,-0.250605 z m 0.01696,-0.360946 c -0.0017,-0.01132 -0.003,-0.0022 -0.003,0.02056 0,0.02264 0.0013,0.03188 0.003,0.02056 0.0017,-0.01132 0.0017,-0.02983 0,-0.04114 z m 0.0067,-0.127173 c -0.0017,-0.0072 -0.0033,-0.0014 -0.0033,0.01308 0,0.01441 0.0013,0.02031 0.0033,0.01308 0.0017,-0.0072 0.0017,-0.01898 0,-0.02617 z m 0.01835,-0.195799 c 0.0023,-0.02286 0.0017,-0.03756 -0.002,-0.03364 -0.0033,0.0038 -0.0077,0.03382 -0.0098,0.06675 -0.0042,0.06441 0.0043,0.04038 0.01167,-0.0331 z"
         style="fill:#000000;stroke-width:0.00717525" />
      <path
         inkscape:connector-curvature="0"
         id="path987"
         d="m 28.798397,45.724427 c -0.06147,-0.0092 -0.858979,-0.187931 -1.410854,-0.316236 -0.844717,-0.196392 -2.706021,-0.658956 -2.861234,-0.711066 l -0.04306,-0.01445 -9.92e-4,-0.139961 -9.92e-4,-0.139966 -0.0051,0.133532 c -0.003,0.07344 -0.008,0.13668 -0.01157,0.140533 -0.0068,0.0074 -0.0065,0.0075 -2.25402,-0.555249 l -1.326544,-0.332127 v -1.775371 c 0,-1.687354 6.62e-4,-1.77517 0.01204,-1.771389 0.02883,0.0095 1.905325,0.587839 2.696103,0.830907 0.476936,0.1466 0.87258,0.268288 0.879203,0.270416 0.0096,0.0032 0.01207,0.0124 0.01214,0.04638 5.6e-5,0.02336 0.002,0.05037 0.0044,0.05998 0.007,0.02847 0.01594,0.0032 0.01604,-0.04552 7.3e-5,-0.02933 0.003,-0.04302 0.0087,-0.04305 0.01815,-6.8e-5 0.121825,0.03945 0.118558,0.04519 -0.002,0.0032 -0.0126,0.0082 -0.02381,0.01093 -0.021,0.005 -0.05517,0.04206 -0.05517,0.05983 0,0.0055 -0.0017,0.01621 -0.0038,0.02372 -0.002,0.0075 0.003,2.37e-4 0.01114,-0.01621 0.02189,-0.04369 0.03392,-0.0561 0.05439,-0.0561 0.01005,0 0.200803,0.05743 0.423909,0.127633 1.710888,0.538324 4.566094,1.408441 4.844674,1.476402 0.01134,0.0029 0.02685,0.0069 0.03441,0.0093 0.0093,0.0029 0.01151,0.0018 0.0069,-0.0032 -0.0038,-0.0042 -0.03785,-0.01714 -0.0757,-0.0289 l -0.06882,-0.02135 0.0936,-0.0047 c 0.111515,-0.0057 0.137787,-0.01006 0.201199,-0.0335 0.02652,-0.0098 0.04983,-0.01603 0.05183,-0.01387 0.0091,0.0099 -1.257449,2.71311 -1.301177,2.777132 -0.0055,0.0081 -0.01561,0.01211 -0.02616,0.01053 z m -0.113559,-0.0591 c -0.291598,-0.04468 -1.857831,-0.415626 -3.580676,-0.848048 -0.499703,-0.125423 -0.583362,-0.147017 -0.587443,-0.15164 -6.61e-4,-7.18e-4 -0.003,-0.09701 -0.0057,-0.21427 l -0.0047,-0.213202 3.31e-4,0.220599 3.31e-4,0.2206 0.21679,0.05423 c 2.237951,0.559836 3.834215,0.93747 3.953829,0.935374 0.02222,-3.59e-4 0.02354,-0.0011 0.0069,-0.0036 z m 0.06348,-0.02264 c 0.101946,-0.07572 0.285296,-0.415109 0.651662,-1.206273 0.351781,-0.759671 0.528167,-1.19297 0.543573,-1.335315 0.003,-0.02663 2.54e-4,-0.01988 -0.0091,0.02343 -0.03516,0.162455 -0.175926,0.506838 -0.468966,1.147315 -0.366148,0.800273 -0.56126,1.178845 -0.678724,1.31693 -0.02199,0.02584 -0.04926,0.05316 -0.06061,0.06071 -0.01134,0.0075 -0.01723,0.01373 -0.01309,0.01377 0.0042,1.4e-5 0.02004,-0.0092 0.03527,-0.02056 z M 24.4883,44.165433 c -0.0013,-0.01761 -0.0026,-0.0051 -0.0026,0.02786 -3e-5,0.03292 0.0013,0.04731 0.0026,0.03199 0.0013,-0.01531 0.0017,-0.04225 4.6e-5,-0.05985 z m 0.0087,-0.884795 c 0.0013,-0.03336 0.0023,-0.03497 0.0069,-0.01495 0.0035,0.01492 0.0055,-0.0039 0.006,-0.0561 9.92e-4,-0.09077 -0.0053,-0.158483 -0.01382,-0.152729 -0.0087,0.0059 -0.0073,0.08097 0.0017,0.09074 0.0044,0.0048 0.0061,0.02041 0.0039,0.03703 -0.01353,0.103753 -0.01762,0.156887 -0.01693,0.21946 l 6.62e-4,0.07107 0.0049,-0.07855 c 0.0026,-0.0432 0.0056,-0.09538 0.0065,-0.115952 z m 9.92e-4,-0.448848 -0.006,-0.11969 -9.92e-4,0.108468 c -9.92e-4,0.109066 0.0071,0.226452 0.01104,0.160838 9.92e-4,-0.01646 -9.92e-4,-0.08378 -0.0041,-0.149616 z m 0.004,-0.628383 c -6.61e-4,-0.08229 9.92e-4,-0.154015 0.0042,-0.159392 0.0033,-0.0054 0.0036,-0.01883 9.92e-4,-0.0299 -0.0026,-0.01107 -0.0058,-0.03812 -0.007,-0.0601 -0.0013,-0.02196 -0.0041,-0.04189 -0.0062,-0.04426 -0.0023,-0.0025 -0.0035,0.131749 -0.003,0.298039 6.61e-4,0.22589 0.0023,0.282486 0.0067,0.223798 0.0033,-0.0432 0.0051,-0.145874 0.0042,-0.228162 z m 0.01339,-0.278658 c -0.0017,-0.0072 -0.0033,-0.0014 -0.0033,0.01308 0,0.01441 0.0013,0.02031 0.0033,0.01308 0.0017,-0.0072 0.0017,-0.01898 0,-0.0262 z m 0.0067,-0.130915 c -0.002,-0.0051 -0.0035,-0.0011 -0.0035,0.0093 0,0.01028 0.0017,0.01448 0.0035,0.0093 0.002,-0.0051 0.002,-0.01355 0,-0.01869 z m -0.0246,-0.202459 c -0.0054,-0.0059 -0.0072,0.01801 -0.0065,0.08501 l 9.92e-4,0.09314 0.0065,-0.08501 c 0.0046,-0.05992 0.0043,-0.08741 -9.92e-4,-0.09313 z m 0.04277,-0.0011 c 0.002,-0.02034 9.92e-4,-0.03213 -0.002,-0.02617 -0.003,0.0059 -0.007,0.03271 -0.009,0.05944 -0.0023,0.03145 -0.0017,0.04069 0.002,0.02617 0.003,-0.01233 0.0071,-0.03909 0.0091,-0.05944 z"
         style="fill:#000000;stroke-width:0.00717525" />
      <path
         sodipodi:nodetypes="cscccccccccscccscccscccccccccccsscccccccccsscccccccccccccccccccccccsccccscccccccccssccccccccsscscccccccscc"
         inkscape:connector-curvature="0"
         id="path989"
         d="M 28.798397,45.72456 C 28.73394,45.715 27.929809,45.534746 27.37378,45.405251 26.497173,45.201095 24.686443,44.750889 24.527995,44.697693 l -0.04474,-0.01502 -9.92e-4,-0.125002 -9.92e-4,-0.125002 -0.0051,0.118561 c -0.003,0.06521 -0.008,0.121699 -0.01154,0.125538 -0.0071,0.0077 0.01432,0.01298 -1.81532,-0.445038 -0.681336,-0.170553 -1.357256,-0.339693 -1.50204,-0.375862 l -0.263243,-0.06577 v -1.775701 c 0,-1.687624 6.61e-4,-1.775511 0.01204,-1.771852 0.03414,0.01093 1.667564,0.514192 2.551578,0.786168 0.556425,0.171189 1.017105,0.31303 1.023728,0.315201 0.0093,0.0029 0.01204,0.01215 0.01204,0.03992 0,0.01977 0.002,0.04717 0.0046,0.06086 0.0039,0.0211 0.0054,0.02264 0.0099,0.01028 0.003,-0.0081 0.0055,-0.03228 0.0058,-0.05389 3.3e-4,-0.02804 0.0033,-0.03928 0.0099,-0.03928 0.0096,0 0.115642,0.03622 0.12005,0.04101 0.0013,0.0014 -0.01151,0.0093 -0.02854,0.0175 -0.03082,0.01481 -0.03981,0.02617 -0.0526,0.06628 -0.0072,0.02272 -0.0085,0.0243 0.02414,-0.03034 0.0096,-0.0161 0.02034,-0.02408 0.03441,-0.02556 0.01148,-0.0011 0.24055,0.06702 0.52283,0.155712 1.525031,0.392636 3.596386,1.083006 4.659508,1.40678 0.07443,0.02545 0.222713,-0.03714 0.321488,-0.05699 -1.382688,1.120175 -2.620553,2.366876 -1.073601,2.821331 z m -0.111836,-0.05898 c -0.0066,-0.0018 -0.01746,-0.0018 -0.02407,0 -0.0066,0.0018 -0.0013,0.0036 0.01204,0.0036 0.01326,0 0.01868,-0.0014 0.01204,-0.0036 z m -0.05334,-0.0075 c -0.07086,-0.01301 -0.656185,-0.142747 -0.891246,-0.19756 -0.63443,-0.147944 -1.667864,-0.399588 -2.580828,-0.62844 -0.575813,-0.144339 -0.635314,-0.159856 -0.642364,-0.167508 -0.0026,-0.0029 -0.0063,-0.08295 -0.0085,-0.178266 l -0.0039,-0.17331 6.61e-4,0.18313 6.61e-4,0.183132 0.368199,0.09171 c 1.724197,0.429467 2.902842,0.7131 3.472074,0.835532 0.246006,0.05291 0.257414,0.05513 0.282171,0.05491 0.01772,-1.55e-4 0.01819,-7.19e-4 0.0034,-0.0032 z m 0.102465,-0.0056 c 0.04815,-0.02707 0.25537,0.128273 0.36002,-0.06375 0.696022,-1.365338 2.047514,-4.97774 1.019044,-2.652496 -0.09595,-0.141267 -1.279989,2.641037 -1.388634,2.713258 -0.0245,0.01628 -0.01782,0.01837 0.0096,0.0029 z m -4.24373,-2.31198 c 0.0023,-0.06434 0.0017,-0.0808 -0.0017,-0.04862 -0.0057,0.05164 -0.0087,0.154224 -0.0044,0.148991 0.0013,-0.0018 0.0042,-0.04688 0.0062,-0.100367 z m 0.01204,-0.116301 -0.0074,-0.01837 0.0035,0.01869 c 0.002,0.01028 0.004,0.02545 0.0046,0.03368 9.92e-4,0.01456 9.92e-4,0.01456 0.0038,-3.52e-4 0.0017,-0.0084 -6.61e-4,-0.02358 -0.0046,-0.03364 z m 0.0048,-0.06128 c -0.0017,-0.0093 -0.003,-0.0036 -0.003,0.01301 -7.6e-5,0.01646 0.0013,0.02408 0.003,0.01693 0.0017,-0.0072 0.0017,-0.02063 1.39e-4,-0.0299 z m -0.01369,-0.07853 c -0.0017,-0.01136 -0.003,-0.0038 -0.003,0.01671 -5.6e-5,0.02056 0.0013,0.02987 0.003,0.02067 0.0017,-0.0092 0.0017,-0.02602 9.6e-5,-0.0374 z m 0.003,-0.230139 -0.0059,-0.11221 -9.92e-4,0.08306 c -6.61e-4,0.04568 0.0013,0.104594 0.004,0.130915 0.0079,0.07452 0.0094,0.022 0.003,-0.101765 z m 0.002,-0.480639 c 0.0033,-0.04762 0.0026,-0.0692 -0.0026,-0.0692 -0.0048,0 -0.0074,0.02574 -0.0074,0.07232 0,0.03977 9.92e-4,0.07091 0.0026,0.0692 0.0013,-0.0018 0.0047,-0.03425 0.0074,-0.07232 z m 0.0023,-0.231907 c 0.0026,-0.149951 0.0013,-0.203639 -0.0053,-0.221571 -0.0036,-0.0096 -0.0061,0.05137 -0.0063,0.154249 -2.38e-4,0.0936 0.002,0.170183 0.0047,0.170183 0.003,-4e-6 0.006,-0.04629 0.007,-0.102861 z m 0.01309,-0.213196 c -0.002,-0.0051 -0.0035,-0.0011 -0.0035,0.0093 0,0.01028 0.0017,0.01448 0.0035,0.0093 0.002,-0.0051 0.002,-0.01355 0,-0.01869 z m -0.0202,-0.23177 c -0.0017,-0.01344 -0.003,-0.0042 -0.003,0.02045 -3.9e-5,0.02469 0.0013,0.03569 0.0026,0.02444 0.0017,-0.01125 0.0017,-0.03145 7.3e-5,-0.04489 z m 0.04124,-0.108501 c -0.0017,-0.01136 -0.003,-0.0038 -0.003,0.01671 -5.3e-5,0.02056 0.0013,0.02987 0.003,0.02067 0.0017,-0.0092 0.0017,-0.02602 9.3e-5,-0.0374 z"
         style="fill:#000000;stroke-width:0.00717525" />
      <path
         inkscape:connector-curvature="0"
         id="path991"
         d="m 27.051866,42.179897 c -1.125559,-0.346986 -1.902012,-0.589148 -2.275217,-0.7096 -0.07139,-0.02304 -0.138494,-0.04405 -0.149105,-0.04668 l -0.01931,-0.0048 0.02252,-0.0025 c 0.0124,-0.0014 0.02321,-0.0032 0.02404,-0.0042 0.0047,-0.0051 -0.0094,-0.01186 -0.06689,-0.0321 -0.08195,-0.02883 -0.08653,-0.02994 -0.08714,-0.02088 -2.62e-4,0.0038 -0.0017,0.02757 -0.003,0.05274 l -0.0023,0.04576 -6.61e-4,-0.04004 c -6.62e-4,-0.03472 -0.0043,-0.06642 -0.0081,-0.0705 -6.61e-4,-7.19e-4 -0.105385,-0.03328 -0.232739,-0.07246 -1.079642,-0.332026 -1.891933,-0.582221 -1.896308,-0.584079 -0.003,-0.0014 -0.0037,-0.0029 -0.0013,-0.0038 0.0037,-0.0014 0.226781,0.0667 1.778438,0.544003 1.53393,0.471851 1.991676,0.61379 2.176981,0.675029 0.201841,0.06671 0.451027,0.146097 0.771857,0.245914 l 0.296459,0.09224 9.92e-4,0.01776 c 6.62e-4,0.01276 -2.21e-4,0.01768 -0.0035,0.0175 -0.0026,-1.51e-4 -0.149036,-0.04481 -0.325601,-0.09924 z"
         style="fill:#000000;stroke-width:0.00365783" />
      <path
         inkscape:connector-curvature="0"
         id="path993"
         d="m 24.196293,44.629053 c -0.24587,-0.06215 -0.444741,-0.113472 -0.441937,-0.114065 0.0026,-7.19e-4 0.0603,0.01283 0.127771,0.0298 0.345319,0.0869 0.58238,0.1443 0.584856,0.141608 0.0017,-0.0018 0.0042,-0.01319 0.006,-0.02566 l 0.0033,-0.02264 -3.31e-4,0.02286 -3.3e-4,0.02286 0.02788,0.01028 c 0.01531,0.0056 0.05708,0.01883 0.09278,0.02929 0.0357,0.01046 0.06096,0.01894 0.05614,0.01883 -0.0048,-1.11e-4 -0.209939,-0.05105 -0.455809,-0.113191 z"
         style="fill:#000000;stroke-width:0.00365783" />
      <path
         inkscape:connector-curvature="0"
         id="path995"
         d="m 24.47773,44.60187 c 0,-0.01154 6.61e-4,-0.01625 0.0013,-0.0105 6.61e-4,0.0058 6.61e-4,0.0152 0,0.02099 -6.62e-4,0.0058 -0.0013,0.0011 -0.0013,-0.01049 z"
         style="fill:#000000;stroke-width:0.00365783" />
      <path
         inkscape:connector-curvature="0"
         id="path997"
         d="m 27.216765,45.369667 c -0.616085,-0.146363 -1.051796,-0.25303 -1.755969,-0.42988 -0.784541,-0.197036 -0.859194,-0.216474 -0.957803,-0.249383 l -0.02106,-0.007 0.0013,-0.121792 c 6.62e-4,-0.06699 3.31e-4,-0.120847 -6.61e-4,-0.119694 -9.92e-4,0.0011 -0.0038,0.04492 -0.0059,0.09725 -0.0035,0.09005 -0.0069,0.128586 -0.01237,0.143768 -0.0013,0.0039 -6.61e-4,0.0067 0.0013,0.0067 0.002,0 0.0039,-0.0025 0.0039,-0.006 0,-0.0051 6.61e-4,-0.0052 0.0049,-7.19e-4 0.0026,0.0029 0.0203,0.01028 0.03906,0.01632 0.01878,0.006 0.03237,0.01161 0.03019,0.01236 -0.0023,7.19e-4 -0.03736,-0.0069 -0.0782,-0.017 -0.04085,-0.01014 -0.07184,-0.01894 -0.06888,-0.01955 0.003,-7.19e-4 0.01594,0.0014 0.02883,0.0048 0.0129,0.0032 0.02612,0.0058 0.02936,0.0056 0.0033,-1.54e-4 -0.05249,-0.01481 -0.123889,-0.03256 -0.212079,-0.05274 -0.898881,-0.224683 -1.480557,-0.370654 l -0.543807,-0.136471 -9.92e-4,-0.221969 -9.92e-4,-0.221966 h 2.513819 2.513818 v 0.831428 0.831427 l -0.0079,-0.0022 c -0.0043,-0.0011 -0.209982,-0.05077 -0.456973,-0.11041 -0.820446,-0.198095 -1.279268,-0.311797 -2.312417,-0.573041 l -0.03895,-0.0098 -0.0023,-0.04809 c -0.0013,-0.02645 -0.0023,-0.08241 -0.0026,-0.124363 -2.35e-4,-0.04195 -0.0017,-0.09343 -0.003,-0.114406 -0.0017,-0.02563 -0.0026,0.0037 -0.0026,0.08962 -7.9e-5,0.07026 9.92e-4,0.145698 0.002,0.167634 l 0.0023,0.03988 0.417504,0.104026 c 0.500645,0.12474 1.200287,0.297762 1.492838,0.369177 0.187179,0.04569 0.870642,0.210593 0.900789,0.217336 0.0097,0.0022 0.01141,0.0042 0.01141,0.01369 0,0.0082 -0.0017,0.01103 -0.0062,0.01071 -0.0034,-2.26e-4 -0.05271,-0.01146 -0.109637,-0.02502 z"
         style="fill:#000000;stroke-width:0.00365783" />
      <path
         inkscape:connector-curvature="0"
         id="path999"
         d="m 27.288686,45.386823 c -0.01736,-0.0042 -0.139722,-0.03328 -0.271904,-0.06465 -0.524843,-0.124571 -1.298456,-0.31592 -2.141692,-0.529741 -0.204334,-0.05181 -0.339112,-0.0888 -0.379114,-0.10404 l -0.01402,-0.0054 6.61e-4,-0.114003 c 6.62e-4,-0.119956 -9.92e-4,-0.114345 -0.0092,0.03282 -0.002,0.0367 -0.0047,0.07103 -0.0058,0.07627 -0.0017,0.0075 -0.0013,0.0083 0.0017,0.0038 0.002,-0.0032 0.0038,-0.0038 0.0038,-0.0014 3e-5,0.0025 0.01862,0.01071 0.04128,0.01844 0.02268,0.0077 0.04281,0.01463 0.04473,0.01535 0.002,7.19e-4 9.92e-4,0.0014 -0.0023,0.0014 -0.006,3.05e-4 -0.15605,-0.03646 -0.162508,-0.03982 -0.002,-0.0011 0.0044,-0.0011 0.01402,-2.5e-5 0.0097,0.0011 0.01597,0.0011 0.01402,9.7e-5 -0.002,-0.0011 -0.123495,-0.03149 -0.270148,-0.06789 -0.146655,-0.0364 -0.622245,-0.155291 -1.056868,-0.264191 l -0.790226,-0.197999 -5e-5,-0.222141 -4.6e-5,-0.222138 h 2.513792 2.513789 v 0.831769 0.831769 l -0.0097,-0.0025 c -0.0053,-0.0014 -0.119375,-0.02901 -0.253482,-0.06122 -0.433661,-0.104184 -1.098917,-0.266879 -1.496346,-0.365949 -0.464843,-0.115872 -1.055301,-0.265043 -1.057269,-0.267106 -6.61e-4,-7.19e-4 -0.0023,-0.06148 -0.0038,-0.135048 -0.0013,-0.07356 -0.0036,-0.134829 -0.0048,-0.136137 -0.0013,-0.0014 -0.0013,0.06091 -1.09e-4,0.138272 9.92e-4,0.07736 0.003,0.141665 0.0043,0.142902 0.0013,0.0011 0.03455,0.01017 0.07411,0.01988 0.03956,0.0097 0.217171,0.05381 0.394698,0.09802 0.88366,0.220053 1.412637,0.350109 1.962965,0.482613 0.195859,0.04716 0.363605,0.08759 0.372771,0.08985 0.01518,0.0037 0.01667,0.0051 0.01667,0.01517 0,0.01319 -6.61e-4,0.01323 -0.04386,0.0029 z m -2.84972,-0.707396 c -0.0023,-0.0011 -0.0063,-0.0011 -0.0088,0 -0.0023,0.0011 -3.31e-4,0.0018 0.0044,0.0018 0.0048,0 0.0068,-7.19e-4 0.0044,-0.0018 z"
         style="fill:#000000;stroke-width:0.00365783" />
      <path
         transform="matrix(0.3306703,0,0,0.35942902,-19.434846,-32.675055)"
         inkscape:connector-curvature="0"
         id="path1001"
         d=""
         style="fill:#000000;stroke-width:0.0106101" />
      <path
         inkscape:connector-curvature="0"
         id="path1003"
         d="m 27.288686,45.386823 c -0.01736,-0.0042 -0.139722,-0.03328 -0.271904,-0.06465 -0.624355,-0.148189 -2.160911,-0.530334 -2.38573,-0.593335 -0.07687,-0.02153 -0.110365,-0.02904 -0.08245,-0.01847 0.02715,0.01028 0.0013,0.0057 -0.07431,-0.01326 -0.0818,-0.02045 -0.09269,-0.02387 -0.06778,-0.02114 0.0087,0.0011 0.01349,7.19e-4 0.01068,-7.18e-4 -0.003,-0.0014 -0.126753,-0.03257 -0.275412,-0.06957 -0.14866,-0.037 -0.622738,-0.155582 -1.053509,-0.263505 l -0.783216,-0.196223 -3.9e-5,-0.222141 -4e-5,-0.222138 h 2.513792 2.513789 v 0.831769 0.831769 l -0.0086,-0.0025 c -0.0048,-0.0014 -0.11882,-0.02886 -0.253485,-0.06123 -0.761445,-0.183097 -1.547504,-0.377217 -2.326547,-0.574548 -0.09135,-0.02315 -0.166846,-0.04125 -0.167762,-0.04026 -9.92e-4,0.0011 0.0052,0.0032 0.01349,0.0047 0.0121,0.0022 0.01356,0.0032 0.0072,0.0051 -0.01329,0.0037 1.625218,0.409404 2.526972,0.625637 0.106132,0.02545 0.196518,0.04722 0.20086,0.04839 0.0059,0.0014 0.0079,0.0049 0.0079,0.01315 0,0.01316 -6.62e-4,0.01319 -0.04386,0.0029 z m -2.771322,-0.688662 c -0.0013,-0.0014 -0.01,-0.0056 -0.01901,-0.0089 l -0.01644,-0.0061 6.62e-4,-0.09879 c 3.3e-4,-0.05783 -6.62e-4,-0.09405 -0.0023,-0.08735 -0.0017,0.0063 -0.003,0.02602 -0.0034,0.04386 -3.31e-4,0.03321 -0.006,0.114881 -0.0091,0.135379 -9.92e-4,0.0063 -6.62e-4,0.0092 3.17e-4,0.0065 0.0017,-0.0036 0.0033,-0.0038 0.0066,-7.19e-4 0.0026,0.0022 0.01303,0.0074 0.02335,0.01147 0.02143,0.0084 0.02265,0.0087 0.01911,0.0047 z m 0.06713,-0.0032 c -0.0013,-0.0014 -0.0042,-0.0014 -0.0067,-3.02e-4 -0.0026,0.0011 -0.002,0.0022 0.002,0.0022 0.0037,1.66e-4 0.0058,-7.19e-4 0.0046,-0.0022 z m -0.01402,-0.0038 c -0.0013,-0.0014 -0.0042,-0.0014 -0.0067,-3.02e-4 -0.0026,0.0011 -0.002,0.0022 0.002,0.0022 0.0037,1.66e-4 0.0058,-7.18e-4 0.0046,-0.0022 z m 0,-0.0076 c -0.0013,-0.0014 -0.0042,-0.0014 -0.0067,-3.02e-4 -0.0026,0.0011 -0.002,0.0022 0.002,0.0022 0.0037,1.66e-4 0.0058,-7.18e-4 0.0046,-0.0022 z m -0.04561,-0.0038 c -0.0013,-0.0014 -0.0042,-0.0014 -0.0067,-3.02e-4 -0.0026,0.0011 -0.002,0.0022 0.002,0.0022 0.0037,1.65e-4 0.0058,-7.19e-4 0.0046,-0.0022 z m 0.02374,-0.0014 c -0.0097,-0.0045 -0.01518,-0.0045 -0.0088,0 0.003,0.0022 0.0076,0.0036 0.01051,0.0036 0.0035,-1.36e-4 0.003,-0.0014 -0.0017,-0.0036 z m -0.02884,-0.0057 c 0.0043,3.6e-4 0.0053,1.19e-4 0.0023,-7.19e-4 -0.0071,-0.0022 -0.01,-0.04397 -0.01045,-0.151826 -1.79e-4,-0.04195 -0.0017,-0.08485 -0.0033,-0.09534 -0.0023,-0.01366 -0.0026,-0.0056 -0.0013,0.02825 9.92e-4,0.02602 0.0017,0.0878 0.002,0.137287 1.52e-4,0.04949 9.92e-4,0.08808 0.002,0.08576 9.92e-4,-0.0022 0.0051,-0.0038 0.0094,-0.0032 z"
         style="fill:#000000;stroke-width:0.00365783" />
      <path
         inkscape:connector-curvature="0"
         id="path1005"
         d="m 27.313244,45.392437 c -0.0039,-0.0011 -0.09069,-0.02149 -0.192962,-0.04559 -0.558532,-0.131641 -1.379801,-0.334568 -2.327843,-0.575184 -0.06271,-0.01592 -0.144275,-0.03746 -0.18125,-0.04788 -0.06847,-0.0193 -0.08275,-0.02239 -0.06083,-0.01323 0.02305,0.0097 0.0017,0.0058 -0.07862,-0.01416 -0.04979,-0.01237 -0.07728,-0.02078 -0.07225,-0.02207 0.0049,-0.0011 -0.04204,-0.01452 -0.117851,-0.03336 -0.06928,-0.01722 -0.542368,-0.135573 -1.0513,-0.263052 l -0.925331,-0.231778 -2e-5,-0.222141 -1.6e-5,-0.222138 h 2.513792 2.513788 v 0.831769 0.831769 l -0.0079,-0.0022 c -0.0043,-0.0011 -0.0971,-0.02358 -0.20612,-0.04973 -0.596178,-0.143085 -1.419719,-0.345512 -2.00239,-0.492188 -0.124012,-0.03123 -0.175447,-0.0418 -0.168973,-0.03476 0.0013,0.0014 0.36876,0.09333 0.848685,0.211941 0.372381,0.09204 0.813634,0.19977 1.180586,0.288244 0.187176,0.04513 0.343871,0.083 0.348212,0.08416 0.0059,0.0014 0.0079,0.0049 0.0079,0.01315 0,0.01132 -0.0026,0.01254 -0.01931,0.0084 z m -2.37206,-0.610695 c 9.92e-4,-0.0018 -9.6e-5,-0.0032 -0.0023,-0.0032 -0.0023,-8.2e-5 -0.0058,-7.19e-4 -0.0077,-0.0011 -0.002,-3.59e-4 -0.0074,-3.59e-4 -0.01227,-3.2e-5 -0.0083,7.19e-4 -0.0083,0.0011 0.0017,0.0038 0.01495,0.0041 0.01865,0.0042 0.0207,7.18e-4 z m -0.03297,-0.0074 c 0,-0.0036 -0.08553,-0.02753 -0.09794,-0.02753 -0.0169,1.1e-5 -0.0026,0.006 0.04288,0.01772 0.05186,0.01344 0.05507,0.01402 0.05507,0.0098 z m -0.116786,-0.03371 c -0.003,-0.0032 -0.213917,-0.05512 -0.215729,-0.05315 -9.92e-4,0.0011 2.81e-4,0.0022 0.003,0.0022 0.0041,5.1e-5 0.0041,7.19e-4 -2.91e-4,0.0041 -0.0041,0.0032 -0.0034,0.0036 0.0035,0.0018 0.008,-0.0018 0.02004,7.19e-4 0.04106,0.0094 0.0066,0.0029 0.129893,0.03443 0.15015,0.03866 0.0073,0.0014 0.0205,-7.19e-4 0.01829,-0.0032 z m -0.274066,-0.04245 c -0.0013,-0.0014 -0.01,-0.0056 -0.01901,-0.0089 l -0.01644,-0.0061 9.92e-4,-0.09307 c 6.62e-4,-0.05913 -3.27e-4,-0.09028 -0.0023,-0.08544 -0.0017,0.0042 -0.0033,0.02067 -0.0035,0.03663 -2.95e-4,0.03479 -0.0066,0.124269 -0.0096,0.13498 -9.92e-4,0.0042 -9.92e-4,0.0064 6.62e-4,0.0048 0.0017,-0.0014 0.0047,-0.0011 0.007,0.0011 0.0023,0.0022 0.01276,0.0071 0.02315,0.01114 0.02229,0.0086 0.02252,0.0087 0.01921,0.005 z m 0.05309,-0.0071 c -0.0013,-0.0014 -0.0042,-0.0014 -0.0067,-3.02e-4 -0.0026,0.0011 -0.002,0.0022 0.002,0.0022 0.0037,1.66e-4 0.0058,-7.18e-4 0.0046,-0.0022 z m 0,-0.0076 c -0.0013,-0.0014 -0.0042,-0.0014 -0.0067,-3.02e-4 -0.0026,0.0011 -0.002,0.0022 0.002,0.0022 0.0037,1.65e-4 0.0058,-7.19e-4 0.0046,-0.0022 z m -0.04561,-0.0038 c -0.0013,-0.0014 -0.0042,-0.0014 -0.0067,-3.02e-4 -0.0026,0.0011 -0.002,0.0022 0.002,0.0022 0.0037,1.65e-4 0.0058,-7.19e-4 0.0046,-0.0022 z m 0.02374,-0.0014 c -0.0097,-0.0045 -0.01309,-0.0045 -0.01051,0 0.0013,0.0022 0.0056,0.0037 0.0099,0.0036 0.0074,-2.59e-4 0.0074,-3.6e-4 6.61e-4,-0.0036 z m -0.02956,-0.0074 c -0.0041,-0.0029 -0.0054,-0.02426 -0.0073,-0.113396 l -0.0023,-0.10995 -6.61e-4,0.113454 -6.62e-4,0.113454 0.0079,-5.8e-5 c 0.0061,-4.6e-5 0.0067,-7.18e-4 0.003,-0.0036 z"
         style="fill:#000000;stroke-width:0.00365783" />
      <g
         style="opacity:1"
         transform="matrix(0.3306703,0,0,0.35942902,-19.434846,-38.084899)"
         id="g1009">
        <path
           inkscape:connector-curvature="0"
           id="path1011"
           d="m 136.28078,242.3904 c -0.45972,-0.009 -1.79979,-0.0702 -2.7696,-0.12747 -1.30997,-0.0774 -2.17526,-0.11656 -2.91348,-0.13195 -0.38247,-0.008 -1.21335,-0.0354 -1.8464,-0.061 -2.16024,-0.0872 -4.19514,-0.16467 -5.33538,-0.20308 -0.62646,-0.0211 -1.17408,-0.0436 -1.21694,-0.0499 -0.0498,-0.007 -0.0779,-0.0251 -0.0779,-0.0491 0,-0.0329 0.0378,-0.0357 0.30574,-0.0224 0.16815,0.008 0.78052,0.0312 1.36082,0.0507 4.28633,0.14452 10.41044,0.37159 12.03389,0.4462 0.46897,0.0216 0.62465,0.021 0.73136,-0.002 0.28019,-0.0616 0.63713,-0.29181 1.15469,-0.74465 0.66016,-0.57759 2.37008,-2.25951 2.95978,-2.91129 0.44777,-0.49492 0.72625,-0.86769 0.68157,-0.91237 -0.0199,-0.0198 -0.75039,-0.11675 -4.79235,-0.63567 -4.73629,-0.60805 -10.58055,-1.36857 -14.12976,-1.83872 -0.26801,-0.0355 -0.30574,-0.046 -0.30574,-0.0853 0,-0.0373 0.013,-0.0425 0.0779,-0.0312 0.18786,0.0327 6.05102,0.79971 12.58917,1.64692 3.90057,0.50544 7.08921,0.9265 7.08587,0.93569 -0.008,0.0232 -1.04802,1.07504 -3.02347,3.0591 l -1.67722,1.68454 -0.27842,-0.005 c -0.15313,-0.003 -0.42949,-0.008 -0.61413,-0.0115 z"
           style="color:#000000;font-style:normal;font-variant:normal;font-weight:normal;font-stretch:normal;font-size:medium;line-height:normal;font-family:sans-serif;font-variant-ligatures:normal;font-variant-position:normal;font-variant-caps:normal;font-variant-numeric:normal;font-variant-alternates:normal;font-variant-east-asian:normal;font-feature-settings:normal;font-variation-settings:normal;text-indent:0;text-align:start;text-decoration:none;text-decoration-line:none;text-decoration-style:solid;text-decoration-color:#000000;letter-spacing:normal;word-spacing:normal;text-transform:none;writing-mode:lr-tb;direction:ltr;text-orientation:mixed;dominant-baseline:auto;baseline-shift:baseline;text-anchor:start;white-space:normal;shape-padding:0;shape-margin:0;inline-size:0;clip-rule:nonzero;display:inline;overflow:visible;visibility:visible;isolation:auto;mix-blend-mode:normal;color-interpolation:sRGB;color-interpolation-filters:linearRGB;solid-color:#000000;solid-opacity:1;vector-effect:none;fill:#000000;fill-opacity:1;fill-rule:nonzero;stroke:none;stroke-width:0.0239792;stroke-linecap:butt;stroke-linejoin:miter;stroke-miterlimit:4;stroke-dasharray:none;stroke-dashoffset:0;stroke-opacity:1;color-rendering:auto;image-rendering:auto;shape-rendering:auto;text-rendering:auto;enable-background:accumulate;stop-color:#000000;stop-opacity:1" />
        <path
           sodipodi:nodetypes="ccsccccccccccccccccccccsccsccccccccccsccsccscccccccccccccccccccccscccsccccccccccccssccccccccccsccscccccccsssccc"
           inkscape:connector-curvature="0"
           id="path1013"
           d="m 122.12891,235.06445 c -0.009,0.004 -0.016,0.0107 -0.0195,0.0195 -0.004,0.009 -0.004,0.019 -0.004,0.0293 0,0.0124 0.005,0.0251 0.0156,0.0352 0.011,0.01 0.0263,0.0171 0.0488,0.0234 0.0451,0.0126 0.1198,0.0233 0.25391,0.041 3.54925,0.47016 9.39455,1.23179 14.13086,1.83984 2.02097,0.25946 3.214,0.41234 3.90429,0.50391 0.34515,0.0458 0.56497,0.0757 0.69922,0.0957 0.0671,0.01 0.1132,0.0179 0.14258,0.0234 0.0147,0.003 0.0245,0.006 0.0312,0.008 0.003,6.8e-4 0.004,0.001 0.006,0.002 1.6e-4,0.003 -1.4e-4,0.007 -0.002,0.0137 -0.004,0.0133 -0.0123,0.0328 -0.0254,0.0566 -0.0262,0.0477 -0.0711,0.11337 -0.13086,0.19336 -0.11951,0.15998 -0.29979,0.3778 -0.52344,0.625 -0.58856,0.65052 -2.3001,2.33369 -2.95898,2.91016 -0.51684,0.4522 -0.87363,0.67981 -1.14844,0.74023 -0.10363,0.0223 -0.25777,0.0235 -0.72656,0.002 -1.62381,-0.0746 -7.74683,-0.30274 -12.03321,-0.44726 -0.58025,-0.0195 -1.19355,-0.0409 -1.36133,-0.0488 -0.13406,-0.007 -0.21088,-0.0111 -0.25585,-0.008 -0.0225,0.002 -0.0369,0.004 -0.0488,0.0117 -0.012,0.007 -0.0176,0.0219 -0.0176,0.0332 0,0.0182 0.0112,0.0346 0.0273,0.0449 0.0162,0.0103 0.0381,0.0158 0.0645,0.0195 0.0142,0.002 0.0539,0.004 0.12109,0.008 0.0672,0.003 0.15922,0.007 0.26953,0.0117 0.22063,0.009 0.51486,0.0207 0.82813,0.0312 1.14015,0.0384 3.17376,0.11593 5.33398,0.20313 0.63315,0.0256 1.46491,0.0525 1.84766,0.0605 0.73791,0.0154 1.60223,0.0554 2.91211,0.13282 0.96454,0.057 2.28812,0.1174 2.75585,0.12695 0.003,5e-5 0.013,-5e-5 0.0156,0 0.18465,0.004 0.46018,0.009 0.61328,0.0117 v 0 c 1.3084,-1.31386 2.93624,-2.65703 4.2168,-3.94908 0.25398,-0.25695 0.44662,-0.45301 0.57617,-0.58594 0.0648,-0.0665 0.11333,-0.11543 0.14648,-0.15039 0.0166,-0.0175 0.0304,-0.0314 0.0391,-0.041 0.004,-0.005 0.007,-0.009 0.01,-0.0117 0.001,-0.002 0.003,-0.003 0.004,-0.004 v -0.002 c 1.9e-4,-3.1e-4 0.002,-0.004 0.002,-0.004 1e-5,-3e-5 -0.006,-0.0195 -0.006,-0.0195 -8e-5,-5e-5 -0.004,-0.002 -0.004,-0.002 -3.7e-4,-1.2e-4 -0.003,2.3e-4 -0.004,0 -0.002,-4.6e-4 -0.005,-0.001 -0.008,-0.002 -0.006,-0.001 -0.0152,-0.004 -0.0273,-0.006 -0.0243,-0.004 -0.0601,-0.009 -0.10742,-0.0156 -0.0945,-0.0134 -0.23434,-0.0323 -0.41406,-0.0566 -0.35945,-0.0487 -0.87932,-0.11833 -1.52148,-0.20313 -1.28434,-0.16959 -3.05557,-0.39962 -5.00586,-0.65234 -3.26907,-0.4236 -6.36925,-0.82717 -8.67579,-1.12891 -1.15326,-0.15087 -2.10887,-0.27744 -2.78711,-0.36718 -0.33911,-0.0449 -0.60973,-0.0797 -0.80078,-0.10547 -0.19104,-0.0258 -0.30441,-0.0411 -0.32617,-0.0449 -0.033,-0.006 -0.0539,-0.009 -0.0723,-0.002 z m 0.0137,0.0293 c 0.004,-0.002 0.0209,-0.002 0.0527,0.004 0.0252,0.004 0.13703,0.0192 0.32813,0.0449 0.19109,0.0258 0.46165,0.0625 0.80078,0.10742 0.67826,0.0898 1.63188,0.21436 2.78516,0.36523 2.30655,0.30175 5.4067,0.7053 8.67578,1.12891 1.95027,0.25272 3.72351,0.48471 5.00781,0.6543 0.64215,0.0848 1.1621,0.15446 1.52148,0.20312 0.17674,0.0228 0.34866,0.0483 0.52149,0.0722 0.004,5.7e-4 0.005,10e-4 0.008,0.002 -0.008,0.009 0.1848,0.10536 0.1704,0.12046 -0.033,0.0348 -0.2854,-0.001 -0.35009,0.0651 -0.12944,0.13282 -0.32221,0.32902 -0.57617,0.58594 -1.41823,1.57187 -2.34234,2.89653 -3.58256,3.89977 -0.14926,-0.003 -1.02411,0.0315 -1.20845,0.028 -0.005,-9e-5 -0.0109,9e-5 -0.0156,0 -0.45891,-0.009 -1.79992,-0.0717 -2.76953,-0.12891 -1.31007,-0.0774 -2.17554,-0.11546 -2.91406,-0.13086 -0.38219,-0.008 -1.21276,-0.035 -1.84571,-0.0605 -2.16026,-0.0872 -4.19561,-0.16471 -5.33593,-0.20313 -0.3132,-0.0105 -0.60566,-0.0222 -0.82618,-0.0312 -0.11025,-0.005 -0.20245,-0.008 -0.26953,-0.0117 -0.0671,-0.003 -0.11192,-0.007 -0.11914,-0.008 -0.0234,-0.003 -0.0405,-0.009 -0.0508,-0.0156 -0.0103,-0.007 -0.0137,-0.0118 -0.0137,-0.0176 0,-0.005 -0.002,-0.004 0.002,-0.006 0.003,-0.002 0.0147,-0.004 0.0352,-0.006 0.0409,-0.003 0.11807,-7.9e-4 0.25195,0.006 0.16853,0.008 0.78098,0.0313 1.36133,0.0508 4.28628,0.14452 10.41011,0.37072 12.0332,0.44531 0.46915,0.0216 0.62654,0.0217 0.73633,-0.002 0.28557,-0.0628 0.64383,-0.29458 1.16211,-0.74805 1.20035,-1.13098 2.44261,-2.28259 3.48633,-3.53906 0.0602,-0.0806 0.10532,-0.14708 0.13281,-0.19727 0.0138,-0.0251 0.0245,-0.0449 0.0293,-0.0625 0.002,-0.009 0.002,-0.0175 0.002,-0.0254 -4.5e-4,-0.008 -0.004,-0.0172 -0.01,-0.0234 l -0.002,-0.002 -0.002,-0.002 c -0.002,-7.9e-4 -0.004,-10e-4 -0.006,-0.002 -0.003,-0.001 -0.006,-9.1e-4 -0.01,-0.002 -0.008,-0.002 -0.0181,-0.005 -0.0332,-0.008 -0.0302,-0.006 -0.0772,-0.0134 -0.14453,-0.0234 -0.13462,-0.02 -0.35401,-0.0499 -0.69922,-0.0957 -0.69042,-0.0916 -1.88331,-0.24445 -3.9043,-0.50391 -4.73626,-0.60804 -10.57973,-1.36969 -14.1289,-1.83984 -0.1339,-0.0177 -0.2112,-0.0296 -0.25196,-0.041 -0.0204,-0.006 -0.0307,-0.0115 -0.0352,-0.0156 -0.004,-0.004 -0.006,-0.004 -0.006,-0.0117 0,-0.008 0.001,-0.0153 0.002,-0.0176 9.2e-4,-0.002 0.002,-0.001 0.004,-0.002 z"
           style="color:#000000;font-style:normal;font-variant:normal;font-weight:normal;font-stretch:normal;font-size:medium;line-height:normal;font-family:sans-serif;font-variant-ligatures:normal;font-variant-position:normal;font-variant-caps:normal;font-variant-numeric:normal;font-variant-alternates:normal;font-variant-east-asian:normal;font-feature-settings:normal;font-variation-settings:normal;text-indent:0;text-align:start;text-decoration:none;text-decoration-line:none;text-decoration-style:solid;text-decoration-color:#000000;letter-spacing:normal;word-spacing:normal;text-transform:none;writing-mode:lr-tb;direction:ltr;text-orientation:mixed;dominant-baseline:auto;baseline-shift:baseline;text-anchor:start;white-space:normal;shape-padding:0;shape-margin:0;inline-size:0;clip-rule:nonzero;display:inline;overflow:visible;visibility:visible;isolation:auto;mix-blend-mode:normal;color-interpolation:sRGB;color-interpolation-filters:linearRGB;solid-color:#000000;solid-opacity:1;vector-effect:none;fill-opacity:1;fill-rule:nonzero;stroke:none;stroke-width:0.0239792;stroke-linecap:butt;stroke-linejoin:miter;stroke-miterlimit:4;stroke-dasharray:none;stroke-dashoffset:0;stroke-opacity:1;color-rendering:auto;image-rendering:auto;shape-rendering:auto;text-rendering:auto;enable-background:accumulate;stop-color:#000000;stop-opacity:1" />
      </g>
      <text
         transform="scale(0.95915993,1.042579)"
         id="text1017"
         y="29.356318"
         x="88.459206"
         style="font-style:normal;font-weight:normal;font-size:29.4187px;line-height:0.9;font-family:sans-serif;fill:#000000;fill-opacity:1;stroke:none;stroke-width:0.34475"
         xml:space="preserve"><tspan
           style="font-style:normal;font-variant:normal;font-weight:bold;font-stretch:normal;font-family:'PT Sans';-inkscape-font-specification:'PT Sans Bold';stroke-width:0.34475"
           y="29.356318"
           x="88.459206"
           id="tspan1015"
           sodipodi:role="line">InnerSource</tspan><tspan
           id="tspan1019"
           style="font-style:normal;font-variant:normal;font-weight:bold;font-stretch:normal;font-family:'PT Sans';-inkscape-font-specification:'PT Sans Bold';stroke-width:0.34475"
           y="56.931358"
           x="88.459206"
           sodipodi:role="line">Commons</tspan></text>
      <path
         sodipodi:nodetypes="ccccsccccsccc"
         inkscape:connector-curvature="0"
         id="path1171"
         d="m 19.428709,57.395379 -0.03481,-0.02092 0.0333,-0.0115 c 0.04821,-0.01664 0.127269,-0.09997 0.451944,-0.476383 1.271014,-2.670953 4.809338,-7.038116 7.443088,-9.356973 0.06833,-0.06016 0.104958,-0.142204 0.174412,-0.199411 0.04751,0.01639 0.06448,0.0815 -0.09319,0.366553 -0.136342,0.246486 -0.147806,0.2617 -0.800381,1.062188 -0.364134,0.446666 -1.288672,1.585053 -2.054531,2.529744 -2.318974,2.860484 -2.683082,3.303167 -3.897901,4.739086 -0.643019,0.760049 -1.173199,1.383399 -1.178179,1.385225 -0.005,0.0018 -0.02473,-0.0061 -0.04386,-0.01761 z"
         style="fill:#000000;fill-opacity:1;stroke-width:0.0149771" />
      <path
         transform="matrix(0.3306703,0,0,0.35942902,-19.434846,-32.675055)"
         inkscape:connector-curvature="0"
         id="path1173"
         d=""
         style="fill:#000000;fill-opacity:1;stroke-width:0.0434433" />
    </g>
  </g>
</svg>
