<?xml version="1.0" encoding="UTF-8"?><svg id="a" xmlns="http://www.w3.org/2000/svg" viewBox="0 0 118.98 134.44"><defs><style>.b{fill:#fff;}.c{fill:#fc0;}.d{fill:#1d1d1b;}</style></defs><polygon class="d" points="0 33.61 0 100.83 59.49 134.44 118.98 100.83 118.98 33.61 59.49 0 0 33.61 0 33.61"/><path class="b" d="M10.56,57.74v-6.77h9.7v6.77H10.56Zm.05,29.72v-25.37h9.6v25.37H10.61Z"/><path class="b" d="M29.41,62.08v-3.84l9.6-3.64v7.48h5.56v6.06h-5.56v10.06c0,.66-.4,3.94,1.82,3.94,1.26,0,2.58,0,3.69-.15v5.71c-2.17,.4-3.74,.51-5.16,.51-6.52,0-10.46-.91-9.96-8.69v-11.37h-4.95v-6.06h4.95Z"/><polygon class="b" points="64.85 87.38 64.85 50.88 80.87 50.88 86.84 75.6 86.94 75.6 92.7 50.88 108.42 50.88 108.42 87.38 99.57 87.38 99.57 56.85 99.47 56.75 90.93 87.38 81.83 87.38 73.8 56.49 73.7 56.6 73.7 87.38 64.85 87.38 64.85 87.38"/><polygon class="c" points="42.17 43.19 42.17 58.79 48.48 58.79 48.59 68.19 58.11 58.79 61.62 58.79 61.62 43.19 42.17 43.19 42.17 43.19"/><path class="d" d="M55.34,48.22l-1.13,4.06c-.07,.46,.01,.73,.51,.82,1.47,.27,2.15-1.95,2.15-3.07,0-2.51-2.33-3.75-4.57-3.64-3.04,.11-5,2.57-4.91,5.23,.09,2.53,1.98,3.91,4.48,4.02,1.06,.04,2.03-.19,2.89-.55l.39,1.2c-.99,.51-2.23,.7-3.32,.7-3.21,0-5.98-2.08-5.98-5.43-.04-3.46,3.11-6.63,7.17-6.51,2.94,.09,5.28,2.18,5.2,5.3-.05,1.84-1.47,4.09-3.52,3.94-.75-.05-1.17-.26-1.55-.9-.91,.74-1.4,.95-2,.95-1.34,0-2.23-.85-2.18-2.18,.07-1.73,1.34-3.97,3.28-4.09,.65,0,1.44,.27,1.67,.94h.03l.19-.79h1.21Zm-3.15,.89c-.93,0-1.68,1.67-1.75,2.54-.08,.97,.19,1.32,.78,1.45,1.2,.27,2.04-1.3,2.21-2.18,.22-1.16-.46-1.9-1.24-1.82h0Z"/></svg>