<svg xmlns="http://www.w3.org/2000/svg" xmlns:xlink="http://www.w3.org/1999/xlink" width="368" height="85.491" viewBox="0 0 368 85.491">
  <defs>
    <linearGradient id="linear-gradient" y1="0.5" x2="1" y2="0.5" gradientUnits="objectBoundingBox">
      <stop offset="0" stop-color="#41bcdf"/>
      <stop offset="0.331" stop-color="#50bcc3"/>
      <stop offset="1" stop-color="#74bd82"/>
    </linearGradient>
  </defs>
  <g id="Group_108" data-name="Group 108" transform="translate(-140 -59)">
    <g id="Group_1" data-name="Group 1" transform="translate(140 59)">
      <path id="Path_1" data-name="Path 1" d="M61.466,135.3a13.759,13.759,0,0,1-6.028-1.229c-3.312-1.6-7-5.522-5.744-15.089a59.7,59.7,0,0,1,2.447-8.337,11.645,11.645,0,0,1-7.417-6.264c-3.782-7.462-2.006-18.6-.61-24.571C46.306,70.42,50.3,61.53,54.8,56.026c5.191-6.35,9.786-6.718,12.728-5.908a5.807,5.807,0,0,1,3.621,3c3.809,7.2-2.383,27.406-10.535,51.4,7.015-1.167,12.311-4.04,18.284-7.279,3.031-1.644,6.164-3.344,9.8-5,11.987-5.46,17.043-.709,18.659,1.587,3.771,5.354,1.667,14.222-5,21.087C97.619,119.792,75.741,135.295,61.466,135.3ZM58.44,110.909a88.889,88.889,0,0,0-2.742,8.855c-.63,4.8.17,7.783,2.377,8.851,3.523,1.7,11.217-.123,20.584-4.889,8.287-4.216,16.347-9.935,19.352-13.027,4.948-5.093,6.134-10.911,4.395-13.382-1.534-2.177-5.825-2.009-11.2.437-3.441,1.567-6.481,3.216-9.42,4.81C74.759,106.377,68.1,109.991,58.44,110.909ZM65.25,55.866c-2.238,0-4.728,2.727-5.761,3.991-7.883,9.644-14.069,32.5-9.362,41.782a5.507,5.507,0,0,0,3.966,3.257c2.937-8.6,6.924-20.3,9.5-30.264,3.853-14.889,2.5-18.2,2.19-18.711A2.55,2.55,0,0,0,65.25,55.866Z" transform="translate(-42.455 -49.804)" fill="url(#linear-gradient)"/>
      <path id="Path_2" data-name="Path 2" d="M187.879,133.676V90.923H192.8v42.753Z" transform="translate(-103.417 -67.041)" fill="#fff"/>
      <path id="Path_3" data-name="Path 3" d="M226.962,133.676V95.126H212.071v-4.2h34.767v4.2H231.947v38.551Z" transform="translate(-113.558 -67.041)" fill="#fff"/>
      <path id="Path_4" data-name="Path 4" d="M320.762,133.676h-2.582l-5.224-14.231a7.423,7.423,0,0,0-3.032-4.174,11.861,11.861,0,0,0-5.615-1.051H291.04v19.455h-2.462V90.923H304.49q6.6,0,10.208,2.972t3.6,8.557a10.77,10.77,0,0,1-2.191,6.906,11.441,11.441,0,0,1-6.216,3.843,5.76,5.76,0,0,1,3.183,1.59,9.457,9.457,0,0,1,2.162,3.753ZM304.55,111.819q5.464,0,8.256-2.4t2.792-7.025q0-9.128-11.048-9.127H291.1v18.554Z" transform="translate(-145.63 -67.041)" fill="#fff"/>
      <path id="Path_5" data-name="Path 5" d="M364.668,133.676V90.923h25.7v2.342H367.19V110.8h21.976v2.4H367.19v18.134h23.178v2.342Z" transform="translate(-177.527 -67.041)" fill="#fff"/>
      <path id="Path_6" data-name="Path 6" d="M460.6,90.923h2.342v42.753H460.9L432.557,95.185v38.491h-2.342V90.923h2.1L460.6,129.292Z" transform="translate(-205.004 -67.041)" fill="#fff"/>
      <path id="Path_7" data-name="Path 7" d="M511.993,133.676V90.923h25.7v2.342H514.514V110.8h21.977v2.4H514.514v18.134h23.179v2.342Z" transform="translate(-239.285 -67.041)" fill="#fff"/>
      <path id="Path_8" data-name="Path 8" d="M629.276,90.923h2.581l-14.831,42.753h-2.342l-13.45-38.61-13.512,38.61h-2.282L570.61,90.923h2.524l13.45,39.15,13.51-39.15,2.222.06,13.451,39.03Z" transform="translate(-263.858 -67.041)" fill="#fff"/>
    </g>
  </g>
</svg>
