<?xml version="1.0" encoding="UTF-8" standalone="no"?>
<svg xmlns:rdf="http://www.w3.org/1999/02/22-rdf-syntax-ns#" xmlns="http://www.w3.org/2000/svg" xml:space="preserve" height="64.6" viewBox="0 0 375.15161 64.599998" width="375.15" version="1.1" xmlns:cc="http://creativecommons.org/ns#" xmlns:dc="http://purl.org/dc/elements/1.1/"><g transform="matrix(1.25 0 0 -1.25 -471.09 448.79)"><g style="" fill="#002d72"><path d="m396.94 328.09c-0.841 0.324-1.702 0.58-2.576 0.77-0.187-0.605-0.435-1.191-0.736-1.753 0.699-0.145 1.391-0.341 2.067-0.594 0.485 0.463 0.904 0.993 1.245 1.577m-11.227-1.577c0.671 0.25 1.358 0.448 2.058 0.591-0.304 0.565-0.553 1.151-0.738 1.753-0.872-0.188-1.727-0.445-2.565-0.767 0.341-0.584 0.761-1.114 1.245-1.577m-1.245 8.871c0.838-0.323 1.693-0.579 2.565-0.768 0.185 0.602 0.434 1.187 0.736 1.75-0.698 0.146-1.385 0.341-2.056 0.593-0.484-0.464-0.904-0.994-1.245-1.575m11.227 1.575c-0.676-0.252-1.364-0.45-2.067-0.596 0.304-0.563 0.549-1.146 0.736-1.748 0.874 0.187 1.735 0.444 2.576 0.769-0.341 0.581-0.76 1.111-1.245 1.575m2.222-4.882c-0.044 0.96-0.273 1.872-0.66 2.7-0.883-0.347-1.79-0.62-2.709-0.82 0.144-0.614 0.228-1.244 0.25-1.88h3.119zm-3.369-2.562c0.919-0.199 1.826-0.473 2.709-0.818 0.387 0.827 0.616 1.738 0.66 2.699h-3.119c-0.022-0.635-0.106-1.268-0.25-1.881m-0.668 0.133c0.134 0.572 0.217 1.156 0.238 1.748h-3.074v-1.471c0.958-0.019 1.905-0.109 2.836-0.277m-0.956-2.412c0.317 0.561 0.573 1.15 0.768 1.755-0.871 0.15-1.753 0.235-2.648 0.252v-1.841c0.628-0.015 1.258-0.07 1.88-0.166m-1.184-2.65c1.253 0.183 2.398 0.683 3.358 1.419-0.597 0.204-1.211 0.365-1.828 0.482-0.429-0.679-0.939-1.316-1.53-1.901m0.789 2.021c-0.491 0.066-0.988 0.101-1.485 0.116v-1.859c0.569 0.533 1.067 1.116 1.485 1.743m-4.402-0.122c-0.615-0.117-1.222-0.277-1.817-0.48 0.954-0.733 2.097-1.234 3.345-1.416-0.589 0.583-1.099 1.219-1.528 1.896m0.739 0.119c0.422-0.628 0.922-1.216 1.496-1.751v1.87c-0.498-0.015-1-0.054-1.496-0.119m-1.157 2.385c0.192-0.606 0.448-1.194 0.766-1.754 0.626 0.097 1.256 0.152 1.887 0.167v1.841c-0.896-0.017-1.782-0.104-2.653-0.254m-0.19 0.659c0.934 0.168 1.883 0.258 2.843 0.277v1.471h-3.084c0.025-0.592 0.102-1.178 0.241-1.748m-4.028 1.748c0.043-0.962 0.272-1.872 0.658-2.699 0.882 0.345 1.782 0.618 2.701 0.817-0.145 0.614-0.23 1.246-0.251 1.882h-3.108zm3.359 2.561c-0.919 0.201-1.819 0.474-2.701 0.82-0.386-0.828-0.615-1.74-0.658-2.7h3.108c0.021 0.636 0.106 1.267 0.251 1.88m0.667-0.131c-0.137-0.573-0.217-1.158-0.239-1.749h3.084v1.472c-0.96 0.017-1.91 0.11-2.845 0.277m0.956 2.41c-0.319-0.559-0.572-1.146-0.767-1.751 0.874-0.151 1.76-0.238 2.656-0.256v1.838c-0.635 0.016-1.268 0.071-1.889 0.169m1.182 2.648c-1.248-0.181-2.391-0.682-3.345-1.415 0.595-0.204 1.202-0.365 1.817-0.48 0.429 0.675 0.939 1.314 1.528 1.895m-0.789-2.015c0.496-0.067 0.998-0.106 1.496-0.117v1.866c-0.574-0.532-1.074-1.121-1.496-1.749m4.404 0.118c0.617 0.117 1.231 0.278 1.828 0.482-0.96 0.736-2.105 1.236-3.358 1.416 0.591-0.58 1.101-1.221 1.53-1.898m-0.74-0.119c-0.419 0.623-0.917 1.21-1.486 1.74v-1.856c0.497 0.011 0.994 0.048 1.486 0.116m1.162-2.385c-0.192 0.606-0.448 1.193-0.765 1.752-0.62-0.097-1.251-0.152-1.883-0.168v-1.838c0.895 0.018 1.777 0.105 2.648 0.254m-2.648-2.406h3.074c-0.021 0.591-0.103 1.175-0.238 1.746-0.931-0.164-1.878-0.257-2.836-0.274v-1.472zm-0.341 7.573c-4.363 0-7.913-3.55-7.913-7.913 0-4.365 3.55-7.915 7.913-7.915 4.364 0 7.914 3.55 7.914 7.915 0 4.363-3.55 7.913-7.914 7.913m9.278 3.991c-7.292-0.068-14.573-0.85-21.671-2.358 3.129-19.824 15.516-29.477 21.671-32.876v35.234z" fill-rule="evenodd"/><g><path d="m415.04 320.06c0.003 0.003 0.005 0.004 0.008 0.007l-0.008 0.005v-0.012z"/><path d="m419.37 327.25c0.003 0.008 0.007 0.017 0.012 0.024l-0.012 0.007v-0.031z"/><path d="m30.162 0.67969c-9.649 0-19.058 1.0287-28.131 2.9687l-0.0349 0.0118c-0.6363 0.16-1.1152 0.737-1.1152 1.4257l0.00191 5.0841c0 3.344 0.20269 6.494 0.56639 9.48 18.835-3.978 38.627-3.977 57.432-0.005 0.36-2.984 0.564-6.134 0.564-9.475l0.002-5.0841c0-0.7062-0.503-1.3-1.168-1.4375l-0.019-0.0078c-9.06-1.9362-18.46-2.9609-28.098-2.9609zm46.906 2.5078c-0.283 0.145-0.382 1.0002-0.093 1.1914l1.189 0.0938c2.808 0.24 3.283 0.8119 3.283 6.0953v17.994c0 2.569-0.144 9.712-1.238 11.952-0.331 0.665-0.904 1.234-1.902 1.234-0.667 0-1.332-0.14-1.998-0.334-0.619-0.189-1.194-0.285-1.766-0.285-0.999 0-1.709 1.383-1.709 2.191 0 0.953 1.474 1 2.045 1 4.426 0 7.805-3.046 9.379-6.857 0.904-2.189 1.094-5.474 1.094-9.233v-17.662c0-5.0471 0.098-5.7116 2.906-6.0953l0.711-0.0938c0.287-0.1912 0.191-1.0464-0.098-1.1914-1.901 0.095-3.521 0.1465-5.426 0.1465-1.997 0-3.613-0.0515-6.377-0.1465zm129.52 0.002c-0.29 0.1437-0.38 0.9994-0.1 1.1894l1.24 0.0938c2.47 0.1912 2.81 1 2.81 6.0003v17.138c0 4.999-0.1 5.475-2.76 5.951l-0.81 0.143c-0.29 0.285-0.19 1.044 0.09 1.188 1.86-0.049 3.48-0.143 5.53-0.143 1.85 0 3.47 0.045 6.04 0.143 0.28-0.144 0.38-0.999 0.1-1.188l-1.38-0.143c-2.67-0.286-2.91-0.952-2.91-5.951v-6.715c0-1.427 0.1-1.521 2.38-1.521h13.62c2.28 0 2.37 0.094 2.37 1.521v6.715c0 4.999 0 5.475-2.9 5.951l-0.9 0.143c-0.29 0.285-0.19 1.044 0.1 1.188 2.09-0.098 3.8-0.143 5.75-0.143 1.86 0 3.48 0.045 5.76 0.143 0.29-0.144 0.38-0.999 0.1-1.188l-1.14-0.143c-2.77-0.334-2.86-0.952-2.86-5.951v-17.138c0-5.0003 0.09-5.7128 2.86-6.0003l0.99-0.0938c0.29-0.19 0.2-1.0457-0.09-1.1894-2.14 0.0962-3.76 0.1425-5.62 0.1425-1.95 0-3.57-0.0463-5.75-0.1425-0.29 0.1437-0.39 0.9994-0.1 1.1894l0.9 0.0938c2.81 0.2875 2.9 1 2.9 6.0003v5.476c0 1.475-0.09 1.52-2.37 1.52h-13.62c-2.28 0-2.38-0.045-2.38-1.52v-5.476c0-5.0003 0.1-5.7128 2.85-6.0003l0.91-0.0938c0.29-0.19 0.19-1.0457-0.09-1.1894-2.05 0.0962-3.67 0.1425-5.52 0.1425-2.05 0-3.67-0.0963-6-0.1425zm-185.89 0.1972c3.183 0.0494 6.692 0.5676 9.455 1.584h0.012c4.419-1.6262 10.753-1.9794 14.598-1.1719l1.677 1.3008 0.452 0.0703c0.15 0.02 0.27 0.1257 0.32 0.2207l4.68 10.341c0.151 0.288-0.086 0.531-0.354 0.479-7.122-1.354-14.677-1.77-21.375-1.77h-0.006c-6.7 0-14.252 0.416-21.373 1.77-0.2699 0.052-0.5047-0.191-0.3534-0.479l4.6774-10.341c0.052-0.0954 0.169-0.2011 0.323-0.2211l0.447-0.0703 1.678-1.3008c1.442-0.3028 3.233-0.4417 5.142-0.4121zm-5.646 1.7422l-1.545 1.1699-3.205 8.3472c4.277-0.693 13.937-1.476 18.722-1.41 0.195-0.087 0.435-0.211 0.778-0.211-5.764-1.888-12.374-2.174-17.076-1.285l2.326-6.6111zm30.146 0l2.334 6.6111c-4.704-0.889-11.322-0.603-17.086 1.285 0.346 0 0.586 0.124 0.778 0.211 4.788-0.066 14.45 0.717 18.726 1.41l-3.207-8.3472-1.545-1.1699zm57.959 2.4727c-8.267 0-14.295 6.1474-14.295 14.179 0 7.227 5.384 13.614 14.295 13.614 7.76 0 13.94-5.907 13.94-14.018 0-7.068-4.66-13.775-13.94-13.775zm151.55 0c-8.27 0-14.29 6.1474-14.29 14.179 0 7.227 5.38 13.614 14.29 13.614 7.75 0 13.94-5.907 13.94-14.018 0-7.068-4.66-13.775-13.94-13.775zm-67.99 0.0019c-5.22 0-8.19 3.0905-8.19 6.9065 0 3.29 2.32 5.581 4.34 6.906l3.81 2.492c2.93 1.885 3.3 3.854 3.3 5.621 0 2.412-1.66 4.619-5.03 4.619-4.65 0-6.3-3.936-6.9-5.982-0.16-0.242-0.76-0.162-0.97 0.119 0.08 1.888 0.61 4.738 1.09 5.623 0.76 0.441 2.89 1.487 6.26 1.487 5.22 0 8.56-3.015 8.56-7.43 0-3.818-2.5-6.146-5.03-7.713l-3.21-2.006c-1.48-0.922-3.41-2.613-3.41-4.941 0-1.849 0.84-4.4554 4.78-4.4554 3.85 0 4.94 2.6074 5.46 4.5374 0.2 0.237 0.84 0.12 1-0.121 0-1.687-0.36-3.9351-0.72-4.8988-0.32 0-0.88-0.0829-1.4-0.2442-1.05-0.28-2.49-0.5195-3.74-0.5195zm181.05 0c-5.22 0-8.2 3.0905-8.2 6.9065 0 3.29 2.33 5.581 4.34 6.906l3.82 2.492c2.93 1.885 3.29 3.854 3.29 5.621 0 2.412-1.65 4.619-5.02 4.619-4.66 0-6.31-3.936-6.91-5.982-0.16-0.242-0.76-0.162-0.96 0.119 0.08 1.888 0.6 4.738 1.08 5.623 0.77 0.441 2.89 1.487 6.27 1.487 5.22 0 8.55-3.015 8.55-7.43 0-3.818-2.49-6.146-5.02-7.713l-3.21-2.006c-1.49-0.922-3.42-2.613-3.42-4.941 0-1.849 0.85-4.4554 4.79-4.4554 3.85 0 4.93 2.6074 5.46 4.5374 0.2 0.237 0.84 0.12 1-0.121 0-1.687-0.36-3.9351-0.72-4.8988-0.32 0-0.89-0.0829-1.41-0.2442-1.04-0.28-2.49-0.5195-3.73-0.5195zm-250.18 0.5195c-0.24 0.1188-0.32 0.844-0.08 1.004l1.04 0.08c2.09 0.1613 2.37 0.846 2.37 5.063v14.457c0 4.216-0.08 4.62-2.33 5.019l-0.68 0.121c-0.24 0.24-0.16 0.883 0.08 1.004 1.57-0.04 2.93-0.121 4.66-0.121 1.57 0 2.93 0.039 5.1 0.121 0.24-0.121 0.32-0.844 0.08-1.004l-1.16-0.121c-2.25-0.241-2.45-0.803-2.45-5.019v-5.663c0-1.205 0.08-1.285 2-1.285h11.49c1.93 0 2.01 0.08 2.01 1.285v5.663c0 4.216 0 4.62-2.45 5.019l-0.76 0.121c-0.25 0.24-0.17 0.883 0.08 1.004 1.76-0.082 3.2-0.121 4.86-0.121 1.56 0 2.93 0.039 4.85 0.121 0.24-0.121 0.32-0.844 0.08-1.004l-0.96-0.121c-2.33-0.281-2.41-0.803-2.41-5.019v-14.457c0-4.217 0.08-4.8205 2.41-5.063l0.85-0.08c0.23-0.16 0.15-0.8852-0.08-1.004-1.81 0.0813-3.18 0.1192-4.74 0.1192-1.66 0-3.02-0.0379-4.86-0.1192-0.25 0.1188-0.33 0.844-0.08 1.004l0.76 0.08c2.37 0.2425 2.45 0.846 2.45 5.063v4.617c0 1.246-0.08 1.287-2.01 1.287h-11.49c-1.92 0-2-0.041-2-1.287v-4.617c0-4.217 0.08-4.8205 2.4-5.063l0.77-0.08c0.24-0.16 0.16-0.8852-0.08-1.004-1.73 0.0813-3.09 0.1192-4.66 0.1192-1.73 0-3.09-0.0779-5.06-0.1192zm30.56 0c-0.31 0.1625-0.32 0.7666-0.07 1.0079l0.68 0.0761c0.96 0.1225 1.92 0.4043 2.49 0.967 0.84 0.921 0.88 1.767 0.88 2.89v11.608c0 1.927 0.04 6.826-0.52 8.271-0.2 0.445-0.84 0.683-1.77 0.803l-1.08 0.121c-0.25 0.24-0.21 0.804 0.07 1.004 1.41-0.08 2.5-0.121 4.18-0.121 1.49 0 2.9 0.041 4.7 0.121 0.28-0.2 0.32-0.681 0.08-1.004l-1.24-0.121c-1.01-0.08-1.81-0.321-2.05-0.766-0.68-1.202-0.72-6.422-0.72-8.308v-8.756c0-1.205 0.04-2.127 0.2-2.609h0.08c0.84 0.883 3.57 4.176 4.66 5.42l9.31 10.605c3.5 3.973 4.66 5.38 5.15 6.063 0.44 0 0.68-0.203 0.76-0.442-0.12-1.044-0.12-5.825-0.12-7.031v-9.598c0-1.847-0.08-6.826 0.6-8.273 0.16-0.3202 0.96-0.6427 2.25-0.844l0.56-0.0761c0.24-0.2413 0.24-0.8066-0.08-1.0079-1.36 0.08-2.41 0.1192-4.14 0.1192-1.52 0-2.89-0.0392-4.74-0.1192-0.32 0.1188-0.36 0.7666-0.07 1.0079l0.68 0.0761c1.6 0.2013 2.24 0.4422 2.49 0.805 0.76 1.205 0.8 6.426 0.8 8.312v8.594c0 0.844 0 1.487-0.16 1.687h-0.08c-1.89-1.928-3.86-4.175-6.63-7.269l-3.9-4.377c-1.32-1.484-6.06-6.786-6.86-8.836-0.52 0.08-1.2 0.1192-1.85 0.1192-0.72 0-2.85-0.0004-4.54-0.1192zm129.18 0c-3.34 0-5.83 0.0411-7.96 0.3223-0.32 0.1613-0.36 0.7646-0.08 1.0059l1.45 0.1601c1.8 0.1988 1.88 0.8817 1.88 4.2967v14.819c0 4.216-0.08 4.699-2.41 5.019l-0.84 0.121c-0.24 0.24-0.16 0.883 0.09 1.004 1.76-0.082 3.21-0.121 4.89-0.121 1.61 0 2.93 0.039 5.22 0.121 0.24-0.121 0.32-0.805 0.08-1.004l-1.09-0.121c-2.56-0.281-2.64-0.803-2.64-5.019v-17.911c0-1.2883 0.04-1.4469 2.17-1.4469 4.17 0 6.46 2.5299 6.46 6.4259 0 3.495-1.57 5.945-5.9 6.75-0.24 0.079-0.24 0.679 0.04 0.801 1.65 0 3.77-0.362 5.54-1.205 1.73-0.844 4.02-2.69 4.02-6.385 0-2.771-1.37-4.858-3.22-6.0255-1.88-1.165-4.38-1.6075-7.7-1.6075zm39.49 0c-0.24 0.12-0.33 0.8447-0.08 1.0059l1 0.0801c2.37 0.2 2.45 0.882 2.45 5.141v14.295c0 4.258-0.08 4.822-2.45 5.103l-1 0.119c-0.25 0.24-0.16 0.883 0.08 1.004 2.01-0.081 3.37-0.121 5.06-0.121 1.61 0 2.97 0.04 4.98 0.121 0.24-0.121 0.32-0.844 0.08-1.004l-1-0.119c-2.37-0.281-2.46-0.845-2.46-5.103v-14.295c0-4.259 0.09-4.941 2.46-5.141l1-0.0801c0.24-0.1612 0.16-0.8859-0.08-1.0059-2.01 0.08-3.37 0.1211-4.98 0.1211-1.69 0-3.05-0.0411-5.06-0.1211zm12.45 0c-0.32 0.1625-0.32 0.7666-0.08 1.0079l0.68 0.0761c0.97 0.1225 1.93 0.4043 2.49 0.967 0.85 0.921 0.88 1.767 0.88 2.89v11.608c0 1.927 0.05 6.826-0.52 8.271-0.2 0.445-0.84 0.683-1.76 0.803l-1.09 0.121c-0.24 0.24-0.2 0.804 0.08 1.004 1.41-0.08 2.49-0.121 4.18-0.121 1.48 0 2.89 0.041 4.7 0.121 0.28-0.2 0.32-0.681 0.08-1.004l-1.25-0.121c-1-0.08-1.8-0.321-2.05-0.766-0.68-1.202-0.72-6.422-0.72-8.308v-8.756c0-1.205 0.04-2.127 0.21-2.609h0.07c0.84 0.883 3.58 4.176 4.66 5.42l9.32 10.605c3.49 3.973 4.66 5.38 5.14 6.063 0.44 0 0.68-0.203 0.76-0.442-0.12-1.044-0.12-5.825-0.12-7.031v-9.598c0-1.847-0.08-6.826 0.6-8.273 0.16-0.3202 0.97-0.6427 2.25-0.844l0.57-0.0761c0.24-0.2413 0.24-0.8066-0.08-1.0079-1.37 0.08-2.41 0.1192-4.14 0.1192-1.53 0-2.89-0.0392-4.74-0.1192-0.32 0.1188-0.36 0.7666-0.08 1.0079l0.68 0.0761c1.61 0.2013 2.25 0.4422 2.49 0.805 0.76 1.205 0.81 6.426 0.81 8.312v8.594c0 0.844 0 1.487-0.17 1.687h-0.08c-1.88-1.928-3.85-4.175-6.62-7.269l-3.9-4.377c-1.32-1.484-6.06-6.786-6.87-8.836-0.52 0.08-1.2 0.1192-1.84 0.1192-0.73 0-2.85-0.0004-4.54-0.1192zm-39.98 0.002c-0.24 0.1175-0.32 0.8414-0.08 1.0039l1.01 0.0801c2.33 0.2 2.41 0.842 2.41 5.059v14.461c0 4.215-0.08 4.697-2.21 5.017l-0.81 0.123c-0.24 0.281-0.15 0.88 0.09 1.004 1.64-0.084 3.01-0.123 4.65-0.123 1.57 0 2.94 0.039 4.9 0.123 0.25-0.124 0.32-0.844 0.08-1.004l-1.08-0.123c-2.25-0.242-2.33-0.802-2.33-5.017v-5.182c0-1.406 0.08-1.928 0.68-1.928 0.97 0 1.61 0.802 3.9 3.371l3.21 3.615c1.53 1.729 2.57 2.812 3.33 3.776 0.28 0.362 0.57 0.683 0.57 0.926 0 0.198-0.4 0.318-0.97 0.398l-0.92 0.164c-0.24 0.24-0.12 0.92 0.16 1.004 1.85-0.084 3.25-0.123 4.9-0.123 1.89 0 3.45 0.039 4.5 0.123 0.28-0.124 0.36-0.805 0.08-1.004l-1.08-0.123c-1.37-0.16-2.25-0.683-3.22-1.646-3.13-3.292-6.22-6.909-10.04-11.286-0.52-0.641-0.76-0.964-0.76-1.244 0-0.321 0.36-0.682 0.92-1.246l3.61-3.412c2.25-2.13 4.5-4.017 5.63-4.658 1.12-0.6438 2.69-1.0451 3.73-1.1251 0.24-0.2412 0.2-0.8039-0.08-1.0039-1.2 0.08-2.57 0.1172-3.97 0.1172-1.41 0-3.01-0.0372-4.42-0.1172-0.32 0.2-0.36 0.7227-0.08 1.0039l1.08 0.2402c0.53 0.1225 0.69 0.2424 0.69 0.4024s-0.08 0.3615-0.29 0.6405c-0.4 0.565-2.37 2.612-3.13 3.336l-4.33 4.295c-0.45 0.401-1.49 1.448-2.05 1.928-0.28 0.202-0.77 0.445-1.13 0.445-0.44 0-0.52-0.765-0.52-1.527v-4.621c0-4.217 0.08-4.8178 2.41-5.059l0.76-0.0801c0.25-0.1625 0.16-0.8864-0.08-1.0039-1.72 0.08-3.09 0.1172-4.66 0.1172-1.8 0-3.09-0.0372-5.06-0.1172zm-186.81 0.7246c7.67 0 10.61 7.1464 10.61 13.771 0 7.914-4.58 11.527-9.4 11.527-7.912 0-10.803-7.712-10.803-13.652 0-8.795 5.419-11.646 9.593-11.646zm151.55 0c7.67 0 10.6 7.1464 10.6 13.771 0 7.914-4.57 11.527-9.39 11.527-7.91 0-10.81-7.712-10.81-13.652 0-8.795 5.43-11.646 9.6-11.646zm-222.59 10.386v6.028l5.424 3.603v-9.469c-1.805-0.085-3.616-0.145-5.424-0.162zm10.846 0.526v12.713l5.418 3.611v-15.725c-1.801-0.228-3.607-0.439-5.418-0.599zm10.836 1.394v18.533l-5.416-3.603v12.623l0.01 0.006c1.935-2.625 3.778-5.615 5.408-8.985v-0.037l0.014 0.008c2.395-4.965 4.327-10.765 5.394-17.521-1.796-0.382-3.596-0.72-5.41-1.024zm-16.258 7.715v12.619l-5.422-3.605v25.39c1.547-0.85 3.405-2.026 5.422-3.546v-18.237l5.42 3.61v-12.625l-5.42-3.606zm5.422 16.229v9.918c1.823-1.809 3.661-3.908 5.418-6.295v-0.014l-5.418-3.609zm252.62 2.021c-0.08 0.003-0.17 0.019-0.2 0.039-0.14 0.828-0.45 2.157-0.79 3.092 0.09 0.162 0.38 0.268 0.54 0.144 0.23-0.52 0.44-0.977 0.93-1.433 0.52-0.476 1.66-0.518 2.56-0.518h1.14c0.62 0 0.62 0.017 0.62 0.662v9.272c0 2.174-0.11 2.489-1.29 2.59l-0.74 0.064c-0.17 0.1-0.13 0.455 0 0.516 1.33-0.039 2.05-0.061 2.88-0.061s1.54 0.022 2.72 0.061c0.12-0.061 0.16-0.435 0.04-0.516l-0.67-0.064c-1.2-0.101-1.24-0.416-1.24-2.59v-9.229c0-0.686-0.02-0.705 0.6-0.705h1.47c1.14 0 1.93 0.165 2.41 0.518 0.31 0.229 0.46 0.997 0.52 1.514 0.1 0.123 0.46 0.123 0.54-0.039-0.07-0.626 0.08-2.304 0.31-3.153-0.04-0.082-0.27-0.102-0.38-0.062-0.3 0.538-0.49 0.578-1.61 0.578h-8.4c-0.96 0-1.64 0.023-1.76-0.641-0.03-0.031-0.12-0.042-0.2-0.039zm-33.85 0.35c-2.7 0-4.24 1.598-4.24 3.568 0 1.7 1.21 2.879 2.25 3.566l1.97 1.288c1.51 0.971 1.7 1.988 1.7 2.902 0 1.246-0.85 2.383-2.59 2.383-2.41 0-3.26-2.031-3.57-3.088-0.08-0.125-0.4-0.087-0.5 0.06 0.04 0.974 0.31 2.445 0.56 2.903 0.39 0.23 1.49 0.767 3.24 0.767 2.69 0 4.41-1.554 4.41-3.836 0-1.97-1.28-3.171-2.59-3.98l-1.66-1.041c-0.77-0.476-1.76-1.343-1.76-2.549 0-0.954 0.44-2.303 2.47-2.303 1.99 0 2.55 1.35 2.82 2.346 0.1 0.124 0.43 0.063 0.51-0.062 0-0.873-0.18-2.034-0.37-2.534-0.17 0-0.46-0.038-0.72-0.123-0.55-0.143-1.29-0.267-1.93-0.267zm-144.8 0.267c-0.12 0.063-0.17 0.415-0.04 0.5l0.52 0.039c1.2 0.104 1.24 0.457 1.24 2.614v4.896c0 2.468 0.52 3.98 1.62 4.893 1.02 0.87 2.45 1.142 3.88 1.142 1.53 0 3.07-0.54 3.96-1.517 1.16-1.242 1.45-3.149 1.45-4.951v-2.348c0-1.164 0-3.546 0.29-4.229 0.12-0.271 0.52-0.457 1.04-0.5l0.5-0.039c0.1-0.127 0.12-0.395-0.05-0.5-0.74 0.043-1.3 0.063-2.18 0.063-0.8 0-1.57-0.02-2.36-0.063-0.12 0.085-0.16 0.354-0.04 0.5l0.52 0.039c0.52 0.043 0.89 0.187 1.04 0.438 0.35 0.621 0.39 3.006 0.39 4.291v2.387c0 3.153-1.14 5.513-4.15 5.513-3.17 0-4.21-2.197-4.21-5.533v-4.482c0-2.157 0.04-2.51 1.24-2.614l0.51-0.039c0.12-0.085 0.08-0.437-0.05-0.5-1.01 0.043-1.7 0.063-2.55 0.063-0.83 0-1.53-0.02-2.57-0.063zm25.63 0c-0.17 0.085-0.17 0.395-0.04 0.52l0.35 0.043c0.49 0.061 0.99 0.205 1.28 0.496 0.44 0.477 0.46 0.913 0.46 1.494v5.99c0 0.998 0.02 3.532-0.27 4.272-0.1 0.228-0.44 0.353-0.91 0.416l-0.56 0.064c-0.13 0.125-0.11 0.412 0.04 0.516 0.73-0.039 1.29-0.061 2.15-0.061 0.77 0 1.5 0.022 2.43 0.061 0.15-0.104 0.17-0.352 0.04-0.516l-0.64-0.064c-0.52-0.04-0.93-0.164-1.06-0.393-0.35-0.621-0.37-3.317-0.37-4.295v-4.521c0-0.618 0.02-1.097 0.1-1.346h0.04c0.44 0.458 1.85 2.157 2.41 2.801l4.81 5.474c1.8 2.053 2.41 2.779 2.65 3.131 0.23 0 0.36-0.103 0.4-0.228-0.06-0.539-0.06-3.006-0.06-3.627v-4.957c0-0.955-0.04-3.525 0.31-4.274 0.08-0.166 0.5-0.332 1.16-0.433l0.29-0.043c0.12-0.125 0.12-0.415-0.04-0.52-0.71 0.043-1.25 0.063-2.14 0.063-0.79 0-1.49-0.02-2.44-0.063-0.17 0.063-0.19 0.395-0.04 0.52l0.35 0.043c0.83 0.101 1.16 0.224 1.28 0.414 0.4 0.62 0.42 3.319 0.42 4.293v4.437c0 0.435 0 0.768-0.08 0.871h-0.05c-0.97-0.996-1.99-2.158-3.42-3.754l-2.01-2.261c-0.68-0.765-3.13-3.504-3.55-4.563-0.27 0.043-0.62 0.063-0.95 0.063-0.37 0-1.47 0-2.34-0.063zm26.95 0c-0.12 0.063-0.17 0.435-0.04 0.52l0.52 0.043c1.22 0.101 1.26 0.452 1.26 2.652v7.383c0 2.196-0.04 2.487-1.26 2.631l-0.52 0.066c-0.13 0.125-0.08 0.455 0.04 0.518 1.04-0.04 1.74-0.063 2.61-0.063 0.83 0 1.54 0.023 2.57 0.063 0.13-0.063 0.17-0.435 0.04-0.518l-0.51-0.066c-1.23-0.144-1.27-0.435-1.27-2.631v-7.383c0-2.2 0.04-2.551 1.27-2.652l0.51-0.043c0.13-0.085 0.09-0.457-0.04-0.52-1.03 0.043-1.74 0.063-2.57 0.063-0.87 0-1.57-0.02-2.61-0.063zm16.53 0c-0.17 0.104-0.19 0.396-0.05 0.52l0.38 0.043c0.89 0.101 1.2 0.539 1.67 1.699l3.66 9c0.35 0.872 0.72 1.885 0.95 2.758 0.1 0.04 0.21 0.062 0.31 0.062 0.08 0 0.17-0.022 0.23-0.062 0.35-1.101 1.32-3.503 2.15-5.414l1.12-2.549c0.94-2.111 1.74-3.796 2.33-4.77 0.27-0.435 0.58-0.685 1.08-0.724l0.62-0.043c0.1-0.104 0.1-0.435-0.05-0.52-0.68 0.043-1.32 0.061-2.01 0.061-0.78 0-1.57-0.018-2.15-0.061-0.15 0.085-0.19 0.396-0.04 0.52l0.37 0.043c0.73 0.081 0.93 0.247 0.93 0.39 0 0.148-0.02 0.378-0.19 0.813-0.35 0.891-1.32 3.234-1.92 4.642-0.48 1.102-1.35 3.236-1.99 4.606-1.04-2.366-1.99-4.749-2.95-7.154-0.64-1.577-0.99-2.697-1.03-2.907 0.02-0.166 0.18-0.289 0.97-0.39l0.31-0.043c0.15-0.124 0.11-0.435-0.04-0.52-0.87 0.043-1.6 0.061-2.51 0.061-0.89 0-1.56-0.018-2.15-0.061zm25.42 0c-0.13 0.063-0.17 0.435-0.05 0.52l0.33 0.045c1.23 0.141 1.27 0.451 1.27 2.611v7.467c0 2.172-0.1 2.485-1.29 2.586l-0.68 0.066c-0.12 0.124-0.09 0.455 0.04 0.518 1.22-0.04 1.93-0.063 2.82-0.063h1.87c1.84 0 3.69 0.023 5.55 0.063 0.27-0.559 0.79-2.155 0.94-2.881-0.08-0.189-0.38-0.252-0.52-0.147-0.54 1.078-1.1 1.804-1.47 2.01-0.46 0.229-1.06 0.311-2.66 0.311-1.82 0-2.26-0.23-2.51-0.479-0.32-0.35-0.39-1.053-0.39-2.152v-2.922c0-0.542 0.06-0.562 0.68-0.562h1.21c0.8 0 1.3 0.02 1.6 0.105 0.41 0.104 0.55 0.415 0.63 0.789l0.2 0.805c0.09 0.123 0.45 0.124 0.53-0.024 0-0.45-0.08-1.241-0.08-1.986 0-0.788 0.08-1.598 0.08-2.098-0.08-0.143-0.44-0.144-0.53-0.019l-0.17 0.849c-0.11 0.52-0.25 0.644-0.5 0.729-0.25 0.082-0.9 0.125-1.76 0.125h-1.21c-0.62 0-0.68 0-0.68-0.582v-4.149c0-0.787 0-0.83 0.62-0.83h1.49c0.92 0 1.58 0.02 2.01 0.125 1.09 0.272 1.27 0.997 1.58 1.971 0.11 0.125 0.44 0.085 0.52-0.039-0.08-0.915-0.21-2.407-0.33-2.762-0.25 0.063-1.47 0.063-2.8 0.063h-3.9c-0.85 0-1.55-0.019-2.44-0.063zm27.09 0c-2.03 0-3.46 0.061-4.62 0.166-0.17 0.082-0.17 0.416-0.03 0.522l0.67 0.08c0.85 0.105 0.91 0.457 0.91 2.43v7.445c0 2.172-0.04 2.442-1.24 2.586l-0.52 0.066c-0.13 0.144-0.08 0.455 0.04 0.518 0.97-0.04 1.72-0.063 2.59-0.063 0.83 0 1.54 0.023 2.47 0.063 0.13-0.063 0.17-0.417 0.04-0.518l-0.43-0.066c-1.21-0.163-1.25-0.414-1.25-2.586v-2.611c0-0.439 0.04-0.459 0.98-0.459 0.83 0 1.16 0.206 1.47 0.664 0.64 0.931 1.49 2.363 2.03 3.13 1.47 2.092 2.53 2.612 4.3 2.612 0.39 0 0.72-0.043 0.91-0.106 0.1-0.081 0.08-0.248-0.02-0.291-0.56-0.04-1.08-0.268-1.43-0.578-1.41-1.18-2.51-2.84-4.17-5.513-0.1-0.167-0.21-0.377-0.11-0.5 1.04-0.415 2.6-1.491 2.6-3.461 0-1.454-0.73-2.388-1.73-2.905-0.95-0.52-2.17-0.625-3.46-0.625zm38.77 0c-0.13 0.063-0.17 0.435-0.04 0.52l0.52 0.043c1.22 0.101 1.26 0.452 1.26 2.652v7.383c0 2.196-0.04 2.487-1.26 2.631l-0.52 0.066c-0.13 0.125-0.09 0.455 0.04 0.518 1.04-0.04 1.74-0.063 2.61-0.063 0.83 0 1.54 0.023 2.57 0.063 0.13-0.063 0.17-0.435 0.04-0.518l-0.52-0.066c-1.22-0.144-1.26-0.435-1.26-2.631v-7.383c0-2.2 0.04-2.551 1.26-2.652l0.52-0.043c0.13-0.085 0.09-0.457-0.04-0.52-1.03 0.043-1.74 0.063-2.57 0.063-0.87 0-1.57-0.02-2.61-0.063zm41.41 0c-0.15 0.085-0.17 0.372-0.05 0.52l0.58 0.103c0.63 0.102 0.94 0.207 1.65 1.575l2.44 4.773c0.6 1.16 0.66 1.427 0.66 2.568v1.061c0 2.216-0.04 2.506-1.24 2.631l-0.64 0.064c-0.13 0.125-0.09 0.453 0.04 0.516 1.1-0.041 1.84-0.063 2.72-0.063 0.82 0 1.53 0.022 2.82 0.063 0.12-0.063 0.17-0.391 0.04-0.516l-0.79-0.064c-1.12-0.083-1.25-0.415-1.25-2.631v-1.08c0-1.594 0.07-1.781 0.98-3.36l1.31-2.257c1.03-1.785 1.66-3.093 2.73-3.28l0.59-0.103c0.14-0.125 0.12-0.415-0.05-0.52-0.7 0.043-1.28 0.063-1.93 0.063-0.63 0-1.24-0.02-1.99-0.063-0.16 0.085-0.18 0.372-0.04 0.52l0.37 0.043c0.51 0.061 0.88 0.205 0.88 0.33 0 0.247-0.77 1.659-1.35 2.738-0.62 1.203-1.31 2.405-1.95 3.506-0.81-1.435-1.58-3.071-2.34-4.604-0.11-0.208-0.65-1.392-0.65-1.597 0-0.168 0.15-0.272 0.87-0.373l0.27-0.043c0.13-0.125 0.13-0.457-0.06-0.52-0.52 0.043-1.26 0.063-2.21 0.063-1 0-1.75-0.02-2.41-0.063zm-80.2 0.645c2.3 0 3.32 1.554 3.32 3.195 0 1.409-0.48 2.133-1.04 2.568-0.6 0.458-1.38 0.54-2.13 0.54-1.06 0-1.37-0.04-1.44-0.102-0.06-0.085-0.06-0.313-0.06-0.686v-4.853c0-0.581 0.06-0.662 1.35-0.662z" transform="matrix(.8 0 0 -.8 376.88 359.03)"/></g></g></g></svg>
