<svg width="1200" height="504" viewBox="0 0 1200 504" fill="none" xmlns="http://www.w3.org/2000/svg">
<g clip-path="url(#clip0)">
<path d="M268.836 495.308L367.898 190.542H169.918L268.836 495.308Z" fill="#E44E2E"/>
<path d="M31.1678 190.542L1.00338 283.122C-0.333297 287.239 -0.335404 291.673 0.997366 295.792C2.33014 299.91 4.92968 303.503 8.42505 306.056L268.836 495.308L31.1678 190.542Z" fill="#FBAC29"/>
<path d="M31.1678 190.542H169.918L110.21 7.03942C109.524 4.99112 108.212 3.21024 106.458 1.94846C104.705 0.686676 102.599 0.0078125 100.439 0.0078125C98.2792 0.0078125 96.1737 0.686676 94.4204 1.94846C92.6671 3.21024 91.3546 4.99112 90.6686 7.03942L31.1678 190.542Z" fill="#E44E2E"/>
<path d="M506.648 190.542L536.717 283.122C538.061 287.239 538.067 291.675 536.734 295.795C535.4 299.915 532.796 303.507 529.295 306.056L268.836 495.308L506.648 190.542Z" fill="#FBAC29"/>
<path d="M506.648 190.542H367.898L427.51 7.03944C428.192 4.98916 429.502 3.20555 431.254 1.94155C433.006 0.677549 435.112 -0.00268555 437.273 -0.00268555C439.434 -0.00268555 441.539 0.677549 443.292 1.94155C445.044 3.20555 446.354 4.98916 447.036 7.03944L506.648 190.542Z" fill="#E44E2E"/>
<path d="M268.836 495.261L367.898 190.542H506.648L268.836 495.261Z" fill="#F4782E"/>
<path d="M268.836 495.261L31.1678 190.542H169.918L268.836 495.261Z" fill="#F4782E"/>
<path d="M635.81 183.997V156.556H668.905V103.999H696.346V156.556H726.065V183.997H696.41V210.227C710.192 219.427 723.19 229.75 735.27 241.093L721.558 266.24C717.112 262.716 712.908 258.895 708.976 254.805C705.033 250.737 700.836 246.923 696.41 243.386V375.989H668.905V244.58C658.999 270.509 648.711 292.232 638.04 309.751C635.844 296.607 632.79 283.62 628.898 270.875C646.025 244.114 658.757 214.783 666.612 183.997H635.81ZM769.591 376.052C762.732 363.853 756.633 355.088 751.292 349.758C777.199 337.569 798.54 323.851 815.316 308.604C798.551 287.277 785.416 263.332 776.44 237.732C772.617 288.027 755.098 332.621 723.883 371.513C722.29 369.236 719.296 365.031 714.725 358.947C710.149 353.639 706.72 349.445 704.437 346.366C737.956 312.082 753.962 256.063 752.455 178.311L753.601 145.152H730.699V117.696H875.947V147.414L850.736 194.301H896.46V225.166C884.261 260.204 870.166 288.022 854.176 308.62C870.971 322.585 889.394 334.467 909.042 344.008C903.733 353.171 898.016 362.701 891.89 372.596C869.03 357.339 850.359 343.239 835.877 330.296C815.041 347.303 792.868 362.605 769.575 376.052H769.591ZM846.181 145.121H781.011V177.133C793.178 223.637 810.697 260.22 833.567 286.881C847.825 267.536 858.653 245.885 865.579 222.873H820.986V194.301L846.181 145.121Z" fill="#969CA6"/>
<path d="M930.304 217.155C929.229 215.81 928.453 214.252 928.026 212.584C921.911 202.678 917.738 195.83 915.445 191.992C926.599 183.839 937.286 175.065 947.457 165.713C940.13 150.512 930.91 136.299 920.015 123.413L941.739 107.487C951.478 118.708 959.915 130.996 966.887 144.117C975.669 134.396 983.698 124.019 990.903 113.077L1012.61 130.214C1001.99 144.706 990.946 158.424 979.468 171.367C990.903 206.405 996.616 254.041 996.605 314.274C998.134 352.37 984.416 371.423 955.451 371.434H928.026C928.026 369.156 927.628 364.569 926.88 357.721C926.408 352.727 925.642 347.765 924.586 342.862C932.964 343.605 940.969 343.982 948.603 343.992C963.064 345.521 969.923 335.615 969.18 314.274C969.18 297.519 968.798 281.896 968.033 267.403C957.253 281.293 944.968 293.946 931.403 305.132C927.565 296.004 922.978 287.21 917.69 278.838C936.023 264.371 951.858 246.992 964.561 227.396C963.535 224.03 962.768 220.591 962.268 217.108C961.36 209.399 959.847 201.773 957.745 194.301C948.603 202.689 939.456 210.307 930.304 217.155ZM1068.64 366.863L1053.76 344.008C1058.35 339.432 1061.78 332.573 1064.05 323.432C1071.67 299.829 1075.48 257.889 1075.49 197.614V148.561C1070.9 148.69 1066.32 149.073 1061.78 149.707C1057.18 149.571 1052.58 149.95 1048.06 150.838V228.59C1048.06 267.451 1045.77 296.41 1041.2 315.468C1037.38 334.58 1028.99 354.392 1016.05 374.905C1013.29 371.226 1010.23 367.785 1006.89 364.617C1003.25 360.608 999.816 356.414 996.605 352.051C1006.78 337.255 1013.78 320.517 1017.18 302.887C1020.23 286.875 1021.76 261.728 1021.77 227.444V125.69C1085.02 121.114 1134.92 115.806 1171.48 109.764L1182.91 137.205L1154.32 140.629C1154.32 195.511 1156.98 236.288 1162.29 262.959C1167.6 290.395 1179.03 317.072 1196.58 342.989L1180.65 372.708C1160.07 342.225 1146.35 311.359 1139.5 280.112C1131.87 249.629 1128.06 204.282 1128.06 144.069C1123.47 144.191 1118.89 144.569 1114.35 145.2C1110.12 145.098 1105.9 145.483 1101.77 146.347V195.511C1101.77 232.853 1100.24 261.054 1097.2 280.112V283.488C1095.67 293.395 1092.24 308.259 1086.91 328.082C1086.23 329.917 1085.84 331.846 1085.76 333.8L1114.43 322.38L1099.57 274.363L1117.85 268.645C1120.89 278.551 1125.46 293.793 1131.58 314.369C1138.43 335.711 1143.38 351.335 1146.44 361.241L1124.72 369.204C1122.42 362.334 1120.13 354.329 1117.85 345.187C1108.71 348.234 1098.8 352.046 1088.13 356.622C1085.4 357.568 1082.74 358.712 1080.17 360.046C1075.95 361.615 1072.04 363.941 1068.66 366.91L1068.64 366.863Z" fill="#969CA6"/>
<path d="M737.978 455.62C737.978 424.627 758.57 406.647 783.495 406.647C788.973 406.567 794.411 407.6 799.478 409.683C804.545 411.767 809.137 414.857 812.975 418.767L801.826 432.32C797.192 428.052 792.27 424.882 784.196 424.882C769.862 424.882 759.606 436.174 759.606 454.903C759.606 474.11 768.301 485.275 785.884 485.275C789.391 485.398 792.848 484.424 795.774 482.488V466.354H780.389V449.122H814.631V492.123C808.181 498.494 796.841 503.447 783.798 503.447C757.997 503.51 737.978 487.09 737.978 455.62Z" fill="#969CA6"/>
<path d="M837.422 408.367H858.54V501.79H837.422V408.367Z" fill="#969CA6"/>
<path d="M902.417 426.077H876.712V408.367H949.208V426.077H923.551V501.79H902.417V426.077Z" fill="#969CA6"/>
<path d="M967.428 408.367H988.546V484.16H1025.42V501.87H967.428V408.367Z" fill="#969CA6"/>
<path d="M1061.78 408.367H1087.05L1116.43 501.79H1094.14L1081.91 454.473C1079.31 445.141 1076.83 434.088 1074.33 424.341H1073.75C1071.49 434.215 1068.97 445.141 1066.39 454.473L1054.13 501.79H1032.44L1061.78 408.367ZM1051.79 463.121H1096.73V479.541H1051.79V463.121Z" fill="#969CA6"/>
<path d="M1128.97 408.367H1160.93C1180.33 408.367 1195.4 413.702 1195.4 431.539C1195.4 439.917 1190.62 448.835 1183.09 451.702V452.307C1192.64 454.792 1200 461.863 1200 474.302C1200 493.302 1183.93 501.822 1163.61 501.822H1128.97V408.367ZM1159.96 445.778C1170.22 445.778 1174.74 441.462 1174.74 434.629C1174.74 427.43 1169.96 424.627 1160.12 424.627H1150.09V445.778H1159.96ZM1161.89 485.498C1173.4 485.498 1179.41 481.389 1179.41 472.9C1179.41 464.714 1173.56 461.369 1161.89 461.369H1150.09V485.498H1161.89Z" fill="#969CA6"/>
</g>
<defs>
<clipPath id="clip0">
<rect width="1200" height="503.51" fill="white"/>
</clipPath>
</defs>
</svg>
