<?xml version="1.0" encoding="utf-8"?>
<!-- Generator: Adobe Illustrator 26.2.1, SVG Export Plug-In . SVG Version: 6.00 Build 0)  -->
<svg version="1.1" id="Layer_1" xmlns="http://www.w3.org/2000/svg" xmlns:xlink="http://www.w3.org/1999/xlink" x="0px" y="0px"
	 viewBox="0 0 899 176.6" style="enable-background:new 0 0 899 176.6;" xml:space="preserve">
<style type="text/css">
	.st0{fill:#003778;}
	.st1{fill:#0094FF;}
</style>
<g>
	<g>
		<g>
			<path class="st0" d="M206.2,0.7h31v3.2h-13.6v35.9h-3.7v-36h-13.6L206.2,0.7L206.2,0.7z"/>
			<path class="st0" d="M240.9,0.7h3.7v17h23.2v-17h3.7v39.1h-3.7v-19h-23.2v18.9h-3.7V0.7z"/>
			<path class="st0" d="M279.4,0.7h27v3.2h-23.3V18h21.8v3.2h-21.8v15.4h23.5v3.2h-27.3L279.4,0.7L279.4,0.7z"/>
		</g>
		<path class="st0" d="M206.2,137.5H231v3.2h-21v14.1h18.7v3.2H210v18.6h-3.7v-39.1H206.2z"/>
		<path class="st0" d="M252.7,137.2c11.8,0,17.8,9.3,17.8,19.7s-5.9,19.7-17.8,19.7c-11.9,0-17.8-9.3-17.8-19.7
			S240.8,137.2,252.7,137.2z M252.7,173.5c9.9,0,14.2-8.4,14.2-16.6c0-8.2-4.2-16.6-14.2-16.6c-10,0-14.2,8.4-14.2,16.6
			C238.4,165.2,242.7,173.5,252.7,173.5z"/>
		<path class="st0" d="M276.4,137.4h3.7v23.7c0,8.9,4.1,12.3,11.2,12.3s11.3-3.4,11.3-12.3v-23.7h3.7V162c0,7.9-4.2,14.6-14.9,14.6
			c-10.6,0-14.9-6.7-14.9-14.6v-24.6H276.4z"/>
		<path class="st0" d="M313.7,137.5h4.2l22.8,33.1h0.1v-33.1h3.7v39.1h-4.2l-22.8-33.1h-0.1v33.1h-3.7V137.5z"/>
		<path class="st0" d="M352.4,137.5h13.5c11.8,0.3,18,6.6,18,19.6c0,12.9-6.1,19.3-18,19.6h-13.5V137.5z M356.1,173.4h7.9
			c11.2,0,16.1-4.7,16.1-16.4s-4.9-16.4-16.1-16.4h-7.9V173.4z"/>
		<path class="st0" d="M401.3,137.5h4.2l15.3,39.1h-4l-4.8-12.2h-17.8l-4.7,12.2h-4L401.3,137.5z M395.4,161.2h15.4l-7.6-20
			L395.4,161.2z"/>
		<path class="st0" d="M416.5,137.5h31v3.2h-13.6v35.9h-3.7v-35.9h-13.6L416.5,137.5L416.5,137.5z"/>
		<path class="st0" d="M451.4,137.5h3.7v39.1h-3.7V137.5z"/>
		<path class="st0" d="M478.9,137.5c11.8,0,17.7,9.2,17.7,19.5s-5.9,19.5-17.7,19.5c-11.8,0-17.7-9.2-17.7-19.5
			C461.2,146.7,467.1,137.5,478.9,137.5z M478.9,173.5c9.9,0,14.1-8.3,14.1-16.5s-4.2-16.5-14.1-16.5s-14.1,8.3-14.1,16.5
			S469,173.5,478.9,173.5z"/>
		<path class="st0" d="M503.8,137.5h4.2l22.8,33.1h0.1v-33.1h3.7v39.1h-4.2l-22.8-33.1h-0.1v33.1h-3.7L503.8,137.5L503.8,137.5z"/>
		<g>
			<path class="st0" d="M206.2,51.4h21.5v52h30.9v17.9h-52.5L206.2,51.4L206.2,51.4z"/>
			<path class="st0" d="M272.8,51.4h21.5v69.9h-21.5V51.4z"/>
			<path class="st0" d="M310.4,51.4h22l20.4,37.4h0.2V51.4h20.4v69.9h-21L331,83.1h-0.2v38.2h-20.4V51.4z"/>
			<path class="st0" d="M451.4,93.2c0,19-10,28-31,28s-31.1-9-31.1-28V51.4h21v37.1c0,6.9-0.1,15.7,10.2,15.7
				c9.9,0,9.9-8.8,9.9-15.7V51.4h21V93.2z"/>
			<path class="st0" d="M487.2,84.1l-23-32.7h25.3l10.6,19l10.4-19h23.9L512,84.3l25,37h-25.9l-11.9-20.9l-12.3,20.9h-24.7
				L487.2,84.1z"/>
		</g>
		<g>
			<polygon class="st1" points="35.3,141 35.3,70.5 0,70.5 0,176.2 105.8,176.2 105.8,141 			"/>
			<polygon class="st0" points="176.2,0 0,0 0,52.9 35.3,52.9 35.3,35.4 141,35.4 141,141 123.4,141 123.4,176.2 176.2,176.2 			"/>
		</g>
	</g>
	<rect x="581.2" y="0.3" class="st0" width="2.8" height="175.9"/>
</g>
<g>
	<path class="st1" d="M673.8,56.8v5.2h-38.2v23.2h35.8v5.2h-35.8v25.4h38.7v5.2h-44.8V56.8H673.8z"/>
	<path class="st1" d="M714.2,121.1v-8.4H714c-1.5,3.1-3.7,5.5-6.5,7.2c-2.9,1.6-6,2.5-9.5,2.5c-2.9,0-5.4-0.4-7.5-1.2
		c-2.1-0.8-3.8-2-5-3.5c-1.3-1.5-2.2-3.3-2.8-5.5c-0.6-2.2-0.9-4.6-0.9-7.4V74.7h5.7v30.2c0.1,4.2,1.1,7.4,2.9,9.5
		c1.8,2.2,5,3.2,9.5,3.2c2.5,0,4.6-0.5,6.3-1.6c1.7-1,3.2-2.4,4.3-4.2c1.1-1.7,2-3.7,2.5-6s0.8-4.5,0.8-6.9V74.7h5.7v46.4H714.2z"/>
	<path class="st1" d="M735.3,74.7v10.9h0.2c1.4-3.8,3.7-6.7,6.7-8.7c3-2,6.6-3,10.8-2.8v5.7c-2.6-0.1-4.9,0.2-7,1
		c-2.1,0.8-3.9,2-5.4,3.5c-1.5,1.5-2.7,3.3-3.6,5.4c-0.8,2.1-1.3,4.3-1.3,6.8v24.8h-5.7V74.7H735.3z"/>
	<path class="st1" d="M785.9,75.3c2.7,1.3,5,3.1,6.9,5.3c1.9,2.2,3.3,4.8,4.2,7.8c1,3,1.4,6.1,1.4,9.5c0,3.4-0.5,6.5-1.4,9.5
		c-1,3-2.4,5.6-4.2,7.8c-1.9,2.2-4.2,4-6.9,5.3c-2.7,1.3-5.9,1.9-9.4,1.9s-6.7-0.6-9.4-1.9c-2.7-1.3-5-3-6.9-5.3
		c-1.9-2.2-3.3-4.8-4.2-7.8c-1-3-1.4-6.1-1.4-9.5c0-3.4,0.5-6.5,1.4-9.5c1-3,2.4-5.6,4.2-7.8c1.9-2.2,4.2-4,6.9-5.3
		c2.7-1.3,5.9-2,9.4-2S783.1,74,785.9,75.3z M769.3,79.8c-2,1.1-3.7,2.6-5.1,4.5c-1.4,1.9-2.4,4-3.1,6.3c-0.7,2.4-1,4.8-1,7.2
		c0,2.5,0.3,4.9,1,7.2c0.7,2.4,1.7,4.5,3.1,6.3c1.3,1.9,3,3.4,5.1,4.5c2,1.1,4.4,1.7,7.1,1.7c2.7,0,5.1-0.6,7.1-1.7
		c2-1.1,3.7-2.6,5.1-4.5c1.4-1.9,2.4-4,3.1-6.3c0.7-2.4,1-4.8,1-7.2c0-2.5-0.3-4.9-1-7.2c-0.7-2.4-1.7-4.5-3.1-6.3
		c-1.3-1.9-3-3.4-5.1-4.5c-2-1.1-4.4-1.7-7.1-1.7C773.7,78.1,771.4,78.7,769.3,79.8z"/>
	<path class="st1" d="M812.1,74.7v8.8h0.2c1.3-3.2,3.5-5.7,6.4-7.5c3-1.8,6.3-2.7,10.1-2.7c3.5,0,6.6,0.7,9.2,2
		c2.6,1.3,4.8,3.1,6.5,5.4c1.7,2.2,3,4.9,3.9,7.8c0.8,3,1.3,6.1,1.3,9.4c0,3.3-0.4,6.4-1.3,9.4c-0.8,3-2.1,5.6-3.9,7.8
		c-1.7,2.2-3.9,4-6.5,5.3c-2.6,1.3-5.7,1.9-9.2,1.9c-1.7,0-3.4-0.2-5-0.6c-1.7-0.4-3.2-1-4.7-1.9c-1.4-0.8-2.7-1.9-3.8-3.2
		c-1.1-1.3-2-2.7-2.6-4.4h-0.2v25.9h-5.7V74.7H812.1z M843.2,90.7c-0.6-2.4-1.5-4.5-2.7-6.3c-1.2-1.9-2.8-3.4-4.7-4.5
		c-1.9-1.2-4.2-1.8-6.9-1.8c-3.1,0-5.7,0.5-7.8,1.6c-2.1,1.1-3.8,2.5-5,4.3c-1.3,1.8-2.1,3.9-2.7,6.3c-0.5,2.4-0.8,4.9-0.8,7.6
		c0,2.4,0.3,4.8,0.9,7.2c0.6,2.4,1.5,4.5,2.8,6.3c1.3,1.9,3,3.4,5,4.5s4.6,1.8,7.6,1.8c2.7,0,5-0.6,6.9-1.8c1.9-1.2,3.5-2.7,4.7-4.5
		c1.2-1.9,2.1-4,2.7-6.3c0.6-2.4,0.9-4.8,0.9-7.2C844,95.5,843.8,93.1,843.2,90.7z"/>
	<path class="st1" d="M862.7,105.8c0.6,2.2,1.5,4.2,2.7,5.9c1.3,1.7,2.8,3.2,4.8,4.3c1.9,1.1,4.2,1.7,6.9,1.7c4.1,0,7.4-1.1,9.7-3.2
		c2.3-2.2,4-5,4.9-8.6h5.7c-1.2,5.3-3.4,9.4-6.6,12.2c-3.2,2.9-7.8,4.3-13.6,4.3c-3.7,0-6.8-0.6-9.5-1.9c-2.7-1.3-4.8-3.1-6.5-5.3
		c-1.7-2.2-2.9-4.9-3.7-7.8c-0.8-3-1.2-6.1-1.2-9.4c0-3.1,0.4-6.1,1.2-9c0.8-2.9,2.1-5.6,3.7-7.9c1.7-2.3,3.9-4.2,6.5-5.6
		c2.7-1.4,5.8-2.1,9.5-2.1c3.7,0,6.9,0.8,9.5,2.2c2.6,1.5,4.8,3.5,6.4,5.9c1.6,2.4,2.8,5.2,3.6,8.4c0.7,3.1,1,6.3,0.9,9.6h-35.7
		C861.9,101.5,862.1,103.6,862.7,105.8z M890.8,88.4c-0.7-2-1.7-3.7-2.9-5.3c-1.3-1.5-2.8-2.8-4.6-3.7c-1.8-0.9-3.8-1.4-6.1-1.4
		c-2.3,0-4.4,0.5-6.2,1.4c-1.8,0.9-3.3,2.2-4.6,3.7c-1.3,1.5-2.3,3.3-3,5.3c-0.8,2-1.2,4.1-1.5,6.2h30.1
		C891.9,92.5,891.5,90.4,890.8,88.4z"/>
</g>
</svg>
