<?xml version="1.0" encoding="UTF-8"?>
<svg id="_图层_1" data-name="图层 1" xmlns="http://www.w3.org/2000/svg" xmlns:xlink="http://www.w3.org/1999/xlink" viewBox="0 0 429.37 151.62">
  <defs>
    <style>
      .cls-1 {
        fill: url(#_未命名的渐变_22);
      }

      .cls-2 {
        fill: url(#_未命名的渐变_22-4);
      }

      .cls-3 {
        fill: url(#_未命名的渐变_22-3);
      }

      .cls-4 {
        fill: url(#_未命名的渐变_22-5);
      }

      .cls-5 {
        fill: #53d987;
      }

      .cls-6 {
        fill: url(#_未命名的渐变_22-12);
      }

      .cls-7 {
        fill: url(#_未命名的渐变_22-8);
      }

      .cls-8 {
        fill: #03bdf9;
      }

      .cls-9 {
        fill: url(#_未命名的渐变_22-9);
      }

      .cls-10 {
        fill: url(#_未命名的渐变_784);
      }

      .cls-11 {
        fill: url(#_未命名的渐变_22-13);
      }

      .cls-12 {
        fill: url(#_未命名的渐变_22-14);
      }

      .cls-13 {
        fill: url(#_未命名的渐变_22-11);
      }

      .cls-14 {
        fill: url(#_未命名的渐变_22-2);
      }

      .cls-15 {
        fill: url(#_未命名的渐变_22-6);
      }

      .cls-16 {
        fill: url(#_未命名的渐变_22-7);
      }

      .cls-17 {
        fill: url(#_未命名的渐变_22-15);
      }

      .cls-18 {
        fill: url(#_未命名的渐变_22-10);
      }
    </style>
    <linearGradient id="_未命名的渐变_22" data-name="未命名的渐变 22" x1="59.46" y1="60.04" x2="59.46" y2="23.44" gradientUnits="userSpaceOnUse">
      <stop offset="0" stop-color="#349cc1"/>
      <stop offset="1" stop-color="#22ccde"/>
    </linearGradient>
    <linearGradient id="_未命名的渐变_22-2" data-name="未命名的渐变 22" x1="73.02" y1="44.88" x2="73.02" y2="5.9" xlink:href="#_未命名的渐变_22"/>
    <linearGradient id="_未命名的渐变_22-3" data-name="未命名的渐变 22" x1="118.8" y1="48.72" x2="118.8" y2="19.63" xlink:href="#_未命名的渐变_22"/>
    <linearGradient id="_未命名的渐变_22-4" data-name="未命名的渐变 22" x1="126.42" y1="59.59" x2="126.42" y2="40.04" xlink:href="#_未命名的渐变_22"/>
    <linearGradient id="_未命名的渐变_22-5" data-name="未命名的渐变 22" x1="127.59" y1="73" x2="127.59" y2="62.83" xlink:href="#_未命名的渐变_22"/>
    <linearGradient id="_未命名的渐变_22-6" data-name="未命名的渐变 22" x1="122.49" y1="94.4" x2="122.49" y2="81.15" xlink:href="#_未命名的渐变_22"/>
    <linearGradient id="_未命名的渐变_22-7" data-name="未命名的渐变 22" x1="75.64" y1="113.67" x2="75.64" y2="93.8" xlink:href="#_未命名的渐变_22"/>
    <linearGradient id="_未命名的渐变_22-8" data-name="未命名的渐变 22" x1="63.86" y1="105.41" x2="63.86" y2="84.99" xlink:href="#_未命名的渐变_22"/>
    <linearGradient id="_未命名的渐变_22-9" data-name="未命名的渐变 22" x1="52.42" y1="92.4" x2="52.42" y2="75.31" xlink:href="#_未命名的渐变_22"/>
    <linearGradient id="_未命名的渐变_22-10" data-name="未命名的渐变 22" x1="36.82" y1="89.41" x2="36.82" y2="73.05" xlink:href="#_未命名的渐变_22"/>
    <linearGradient id="_未命名的渐变_22-11" data-name="未命名的渐变 22" x1="21.56" y1="96.74" x2="21.56" y2="85.44" xlink:href="#_未命名的渐变_22"/>
    <linearGradient id="_未命名的渐变_22-12" data-name="未命名的渐变 22" x1="16.33" y1="117.32" x2="16.33" y2="105.81" xlink:href="#_未命名的渐变_22"/>
    <linearGradient id="_未命名的渐变_22-13" data-name="未命名的渐变 22" x1="22.1" y1="139.07" x2="22.1" y2="119.52" xlink:href="#_未命名的渐变_22"/>
    <linearGradient id="_未命名的渐变_22-14" data-name="未命名的渐变 22" x1="37.68" y1="151.62" x2="37.68" y2="125.66" xlink:href="#_未命名的渐变_22"/>
    <linearGradient id="_未命名的渐变_22-15" data-name="未命名的渐变 22" x1="54.62" y1="143.24" x2="54.62" y2="119.89" xlink:href="#_未命名的渐变_22"/>
    <linearGradient id="_未命名的渐变_784" data-name="未命名的渐变 784" x1="123.91" y1="25.18" x2="37.45" y2="174.92" gradientTransform="translate(-.15 -18.95)" gradientUnits="userSpaceOnUse">
      <stop offset=".49" stop-color="#03bdf9"/>
      <stop offset=".68" stop-color="#53d987"/>
    </linearGradient>
  </defs>
  <g>
    <g>
      <path class="cls-1" d="M57.39,29.14s.03-1.64,.45-3.03c.32-1.06,1.06-2,1.79-2.42,.84-.48,1.9-.34,1.9,1.16,0,6.1-.85,31.64-.85,31.64,0,0-.05,1.64-.47,2.91-.34,1.02-1.68,.78-1.72-.31-.26-6.72-1.11-29.94-1.11-29.94Z"/>
      <path class="cls-14" d="M78.1,8.03s.17-3.55-2.42-1.48c-2.59,2.07-3.6,7.08-3.6,7.08l-3.9,27.57s-.53,2.91,0,3.5,1.86-.18,2.73-3.55c.87-3.37,3.56-16.85,3.56-16.85l3.63-16.28Z"/>
      <path class="cls-3" d="M97.74,44.9s-1.79,1.41-.8,3.11,5.42-.19,5.42-.19l36.39-20.47s3.31-1.45,1.82-5.35c-1.02-2.57-6.19-2.91-8.08-1.69-1.89,1.22-34.75,24.59-34.75,24.59Z"/>
      <path class="cls-2" d="M103.45,55.64l40.23-15.29s4.62-1.63,6.21,2.47c1.59,4.11-1.29,6.67-3.18,7.44-1.89,.77-40.74,9.24-40.74,9.24,0,0-2.89,.59-3.4-1.53-.38-1.4,.88-2.34,.88-2.34Z"/>
      <path class="cls-4" d="M105.66,67.94s-1.97,1.03-1.63,3.17,3.41,1.88,3.41,1.88h39.11s4.43-.16,4.63-5.05c.2-4.89-4.34-5.11-4.34-5.11l-41.18,5.11Z"/>
      <path class="cls-15" d="M138.45,85.4s6.17,.15,6.06,3.42c-1.1,6.97-8.18,5.43-8.18,5.43l-29.68-7.49s-5.88-.42-6.16-2.98c-.28-2.57,2.56-2.63,2.56-2.63l35.4,4.25Z"/>
      <path class="cls-8" d="M95.95,90.65s-2.12-.95-3.07,1.09c-.57,1.41,.43,2.02,1.53,2.89s25.52,15.54,25.52,15.54c0,0,6.51,2.48,8.52-2.01,1.15-3.65-5.68-5.6-5.68-5.6l-26.83-11.9Z"/>
      <path class="cls-5" d="M80.22,96.81s-.61-.83,.48-1.64c1.42-1.05,2.3,.16,3.66,1.12,1.36,.96,19.97,15.58,19.97,15.58,0,0,2.49,1.97,.84,4.34-1.65,2.37-6.67-.51-6.67-.51l-18.29-18.9Z"/>
      <path class="cls-16" d="M69.77,95.26s-.28-1.35,.59-1.45c.87-.11,1.33,.97,1.33,.97l9.48,16.6s.91,1.81-.07,2.22-3.52-.77-4.69-2.92-6.65-15.41-6.65-15.41Z"/>
      <path class="cls-7" d="M67.46,105.36s.44-.36,.21-1.42-5.28-16.59-5.28-16.59c0,0-1.1-2.48-2.03-2.35-.93,.13,.15,3.44,.15,3.44l5.76,16.17s.32,1.05,1.19,.75Z"/>
      <path class="cls-9" d="M56.25,92.29s.51-.32,.17-1.64c-.34-1.32-3.29-11.9-3.29-11.9,0,0-1.42-3.53-3.78-3.43-2.36,.1,0,4.91,0,4.91l5.2,11.04s.55,1.57,1.7,1.03Z"/>
      <path class="cls-18" d="M27.85,74.41s1.9-2.66,6.02-.55c1.51,.64,4.09,3.63,4.09,3.63l7.84,9.66s1.19,2.44-1.19,2.25-4.69-2.28-4.69-2.28l-11.61-10.3s-1.35-.96-.45-2.41Z"/>
      <path class="cls-13" d="M14.5,85.77c-1.85-.49-6.08-.96-7.21,2.76-1.14,3.72,4.2,4.59,4.2,4.59l19.34,3.47s4.23,.8,5.11-1.25c.51-1.19-3.81-2.92-3.81-2.92,0,0-13.11-5.44-17.64-6.64Z"/>
      <path class="cls-6" d="M29.03,105.89s2.99-.68,3.56,1.84c.57,2.52-2.5,3.94-2.5,3.94l-23.59,5.6s-5.57,.73-6.32-3.12c-.76-3.85,1.06-5.56,3.79-6.03,2.44-.42,25.07-2.22,25.07-2.22Z"/>
      <path class="cls-11" d="M32.65,120.2s2.72-1.34,3.94-.26c1.7,1.51-1.97,3.69-1.97,3.69l-19.95,14.73s-3.35,1.76-6.05-.26c-1.77-1.32-2.02-3.11-.31-4.36s24.34-13.54,24.34-13.54Z"/>
      <path class="cls-12" d="M44.61,126.49s.91-1.13,1.97-.75-.78,4.11-.78,4.11l-8.75,16.66s-2.69,5.62-6.9,5.07c-4.2-.55,.68-6.64,.68-6.64l13.77-18.45Z"/>
      <path class="cls-17" d="M56.57,120.99s.34-1.22,1-1.09c.66,.13,.13,2.8,.13,2.8l-2.25,15.53s-.74,4.97-3.46,5.01c-1.56,0,.14-6.1,.14-6.1l4.44-16.15Z"/>
    </g>
    <g>
      <path class="cls-10" d="M57.39,29.14s.03-1.64,.45-3.03c.32-1.06,1.06-2,1.79-2.42,.84-.48,1.9-.34,1.9,1.16,0,6.1-.85,31.64-.85,31.64,0,0-.05,1.64-.47,2.91-.34,1.02-1.68,.78-1.72-.31-.26-6.72-1.11-29.94-1.11-29.94Z"/>
      <path class="cls-10" d="M78.1,8.03s.17-3.55-2.42-1.48c-2.59,2.07-3.6,7.08-3.6,7.08l-3.9,27.57s-.53,2.91,0,3.5,1.86-.18,2.73-3.55c.87-3.37,3.56-16.85,3.56-16.85l3.63-16.28Z"/>
      <path class="cls-10" d="M92.97,4.34S94.79,.49,98.96,.04s3.07,3.11,3.07,3.11l-6.53,11.68-13.29,23.33s-1.85,2.79-4.11,2.09c-2.26-.71,3.06-10.3,3.06-10.3l11.81-25.6Z"/>
      <path class="cls-10" d="M111.85,10.88c3.29-3.79,6.99-6.48,10.54-5.33,3.55,1.16,1.9,4.84,1.9,4.84,0,0-28.32,27.21-30.56,29.65-2.23,2.44-5.19,2.52-5.68,1.63-.49-.9,1.14-2.74,1.14-2.74l22.66-28.05Z"/>
      <path class="cls-10" d="M97.74,44.9s-1.79,1.41-.8,3.11,5.42-.19,5.42-.19l36.39-20.47s3.31-1.45,1.82-5.35c-1.02-2.57-6.19-2.91-8.08-1.69-1.89,1.22-34.75,24.59-34.75,24.59Z"/>
      <path class="cls-10" d="M103.45,55.64l40.23-15.29s4.62-1.63,6.21,2.47c1.59,4.11-1.29,6.67-3.18,7.44-1.89,.77-40.74,9.24-40.74,9.24,0,0-2.89,.59-3.4-1.53-.38-1.4,.88-2.34,.88-2.34Z"/>
      <path class="cls-10" d="M105.66,67.94s-1.97,1.03-1.63,3.17,3.41,1.88,3.41,1.88h39.11s4.43-.16,4.63-5.05c.2-4.89-4.34-5.11-4.34-5.11l-41.18,5.11Z"/>
      <path class="cls-10" d="M138.45,85.4s6.17,.15,6.06,3.42c-1.1,6.97-8.18,5.43-8.18,5.43l-29.68-7.49s-5.88-.42-6.16-2.98c-.28-2.57,2.56-2.63,2.56-2.63l35.4,4.25Z"/>
      <g>
        <path class="cls-10" d="M95.95,90.65s-2.12-.95-3.07,1.09c-.57,1.41,.43,2.02,1.53,2.89s25.52,15.54,25.52,15.54c0,0,6.51,2.48,8.52-2.01,1.15-3.65-5.68-5.6-5.68-5.6l-26.83-11.9Z"/>
        <path class="cls-10" d="M95.95,90.65s-2.12-.95-3.07,1.09c-.57,1.41,.43,2.02,1.53,2.89s25.52,15.54,25.52,15.54c0,0,6.51,2.48,8.52-2.01,1.15-3.65-5.68-5.6-5.68-5.6l-26.83-11.9Z"/>
      </g>
      <g>
        <path class="cls-10" d="M80.22,96.81s-.61-.83,.48-1.64c1.42-1.05,2.3,.16,3.66,1.12,1.36,.96,19.97,15.58,19.97,15.58,0,0,2.49,1.97,.84,4.34-1.65,2.37-6.67-.51-6.67-.51l-18.29-18.9Z"/>
        <path class="cls-10" d="M80.22,96.81s-.61-.83,.48-1.64c1.42-1.05,2.3,.16,3.66,1.12,1.36,.96,19.97,15.58,19.97,15.58,0,0,2.49,1.97,.84,4.34-1.65,2.37-6.67-.51-6.67-.51l-18.29-18.9Z"/>
      </g>
      <path class="cls-10" d="M69.77,95.26s-.28-1.35,.59-1.45c.87-.11,1.33,.97,1.33,.97l9.48,16.6s.91,1.81-.07,2.22-3.52-.77-4.69-2.92-6.65-15.41-6.65-15.41Z"/>
      <path class="cls-10" d="M67.46,105.36s.44-.36,.21-1.42-5.28-16.59-5.28-16.59c0,0-1.1-2.48-2.03-2.35-.93,.13,.15,3.44,.15,3.44l5.76,16.17s.32,1.05,1.19,.75Z"/>
      <path class="cls-10" d="M56.25,92.29s.51-.32,.17-1.64c-.34-1.32-3.29-11.9-3.29-11.9,0,0-1.42-3.53-3.78-3.43-2.36,.1,0,4.91,0,4.91l5.2,11.04s.55,1.57,1.7,1.03Z"/>
      <path class="cls-10" d="M27.85,74.41s1.9-2.66,6.02-.55c1.51,.64,4.09,3.63,4.09,3.63l7.84,9.66s1.19,2.44-1.19,2.25-4.69-2.28-4.69-2.28l-11.61-10.3s-1.35-.96-.45-2.41Z"/>
      <path class="cls-10" d="M14.5,85.77c-1.85-.49-6.08-.96-7.21,2.76-1.14,3.72,4.2,4.59,4.2,4.59l19.34,3.47s4.23,.8,5.11-1.25c.51-1.19-3.81-2.92-3.81-2.92,0,0-13.11-5.44-17.64-6.64Z"/>
      <path class="cls-10" d="M29.03,105.89s2.99-.68,3.56,1.84c.57,2.52-2.5,3.94-2.5,3.94l-23.59,5.6s-5.57,.73-6.32-3.12c-.76-3.85,1.06-5.56,3.79-6.03,2.44-.42,25.07-2.22,25.07-2.22Z"/>
      <path class="cls-10" d="M32.65,120.2s2.72-1.34,3.94-.26c1.7,1.51-1.97,3.69-1.97,3.69l-19.95,14.73s-3.35,1.76-6.05-.26c-1.77-1.32-2.02-3.11-.31-4.36s24.34-13.54,24.34-13.54Z"/>
      <path class="cls-10" d="M44.61,126.49s.91-1.13,1.97-.75-.78,4.11-.78,4.11l-8.75,16.66s-2.69,5.62-6.9,5.07c-4.2-.55,.68-6.64,.68-6.64l13.77-18.45Z"/>
      <path class="cls-10" d="M56.57,120.99s.34-1.22,1-1.09c.66,.13,.13,2.8,.13,2.8l-2.25,15.53s-.74,4.97-3.46,5.01c-1.56,0,.14-6.1,.14-6.1l4.44-16.15Z"/>
    </g>
  </g>
  <g>
    <path d="M200.8,26.45V59.17h16.39v7.82h-25.94V26.45h9.56Z"/>
    <path d="M222.63,26.45h26.87v7.82h-17.32v8.8h14.94v7.3h-14.94v16.62h-9.56V26.45Z"/>
    <path d="M296.06,55.52h-12.97l-3.07,11.47h-10.13l11.76-40.54h15.92l11.76,40.54h-10.19l-3.07-11.47Zm-1.85-6.95l-4.57-16.97h-.12l-4.58,16.97h9.27Z"/>
    <path d="M334.63,26.45c4.25,0,7.6,1.14,10.05,3.42,2.45,2.28,3.68,5.52,3.68,9.73s-1.23,7.39-3.68,9.67c-2.45,2.28-5.8,3.42-10.05,3.42h-9.84v14.3h-9.56V26.45h19.4Zm-.87,18.59c1.93,0,3.42-.52,4.46-1.56,1.04-1.04,1.56-2.34,1.56-3.88s-.52-2.9-1.56-3.94-2.53-1.56-4.46-1.56h-8.98v10.94h8.98Z"/>
    <path d="M376.96,55.52h-12.97l-3.07,11.47h-10.13l11.76-40.54h15.93l11.76,40.54h-10.19l-3.07-11.47Zm-1.85-6.95l-4.58-16.97h-.12l-4.58,16.97h9.27Z"/>
    <path d="M405.94,65.31c-3.42-1.62-6.1-3.98-8.05-7.07-1.95-3.09-2.92-6.76-2.92-11,0-4.48,.95-8.33,2.84-11.55,1.89-3.22,4.54-5.69,7.93-7.41,3.4-1.72,7.28-2.58,11.64-2.58,2.16,0,4.34,.21,6.54,.64,2.2,.42,4.02,.96,5.44,1.62v7.18c-3.9-1.43-7.53-2.14-10.89-2.14-4.02,0-7.27,1.18-9.76,3.53-2.49,2.36-3.73,5.93-3.73,10.71,0,2.55,.62,4.8,1.85,6.75,1.24,1.95,2.86,3.47,4.86,4.55,2.01,1.08,4.17,1.7,6.49,1.85l1.27,.06c1.78,0,3.53-.25,5.27-.75,1.74-.5,3.28-1.18,4.63-2.03v7.99c-1.66,.77-3.43,1.31-5.3,1.62-1.87,.31-4.01,.46-6.4,.46-4.4,0-8.31-.81-11.73-2.43Z"/>
    <g>
      <path d="M207.48,93.83c11.14,0,16.24,4.49,16.24,19.1s-5.1,19.1-16.24,19.1c-11.36-.16-16.13-4.33-16.24-19.1,0-14.61,4.99-19.1,16.24-19.1Zm0,3.1c-9.81,.21-12.31,4.28-12.42,16,0,11.77,2.66,16,12.42,16,9.81-.21,12.31-4.07,12.42-16-.11-11.77-2.61-15.84-12.42-16Z"/>
      <path d="M231.76,127.11c2.5,.91,7.15,1.77,11.42,1.77,6.43,0,9.7-2.09,9.7-7.17-.22-5.14-1.89-6.31-9.48-8.24-8.37-2.03-10.53-3.53-10.75-9.95,0-6.47,4.1-9.74,12.36-9.74,1.66,0,3.44,.16,5.27,.43,1.83,.27,3.27,.54,4.27,.91v3.32c-2.49-.86-6.1-1.5-9.59-1.5-5.99,0-8.7,1.71-8.7,6.58,0,4.12,1.28,5.35,8.48,6.96,8.92,2.14,11.53,4.01,11.75,11.18,0,7.06-4.49,10.38-13.3,10.38-2.27,0-4.49-.16-6.65-.48-2.16-.32-3.77-.64-4.77-1.02v-3.42Z"/>
      <path d="M275.44,94.36c10.53,0,13.64,3.48,13.64,11.56,0,8.51-3.49,11.77-13.64,11.77h-6.15v13.8h-3.66v-37.13h9.81Zm-.44,20.28c7.98,0,10.31-1.87,10.31-8.72,0-6.26-2.44-8.45-10.31-8.45h-5.71v17.18h5.71Z"/>
      <path d="M313.63,93.83c11.14,0,16.24,4.49,16.24,19.1s-5.1,19.1-16.24,19.1c-11.36-.16-16.13-4.33-16.24-19.1,0-14.61,4.99-19.1,16.24-19.1Zm0,3.1c-9.81,.21-12.31,4.28-12.42,16,0,11.77,2.66,16,12.42,16,9.81-.21,12.31-4.07,12.42-16-.11-11.77-2.61-15.84-12.42-16Z"/>
      <path d="M352.65,127.11c2.5,.91,7.15,1.77,11.42,1.77,6.43,0,9.7-2.09,9.7-7.17-.22-5.14-1.89-6.31-9.48-8.24-8.37-2.03-10.53-3.53-10.75-9.95,0-6.47,4.1-9.74,12.36-9.74,1.66,0,3.44,.16,5.27,.43,1.83,.27,3.27,.54,4.27,.91v3.32c-2.49-.86-6.1-1.5-9.59-1.5-5.99,0-8.7,1.71-8.7,6.58,0,4.12,1.28,5.35,8.48,6.96,8.92,2.14,11.53,4.01,11.75,11.18,0,7.06-4.49,10.38-13.3,10.38-2.27,0-4.49-.16-6.65-.48-2.16-.32-3.77-.64-4.77-1.02v-3.42Z"/>
      <path d="M386.52,131.5v-37.13h3.66v37.13h-3.66Z"/>
      <path d="M405.03,98.21c3.1-2.94,7.65-4.39,13.69-4.39,3.71,0,7.71,.54,9.92,1.39v3.32c-2.6-1.02-5.88-1.55-9.76-1.55-9.15,0-14.63,3.32-14.63,15.95,.22,13.38,4.88,15.89,14.47,16,2.72,0,5.1-.32,7.04-.91v-12.79h-8.15v-3.05h11.75v18.35c-3.21,1.02-6.98,1.5-11.25,1.5-11.59-.05-17.52-3.91-17.68-19.1,0-6.9,1.55-11.77,4.6-14.71Z"/>
    </g>
  </g>
</svg>