<svg _ngcontent-asc-c4="" id="Layer_1" data-name="Layer 1" xmlns="http://www.w3.org/2000/svg" viewBox="0 0 400 80" class="is-current"><defs _ngcontent-asc-c4=""><style _ngcontent-asc-c4="">.cls-1{fill:#009ade;}.cls-2{fill:#003764;}.cls-3{fill:none;stroke:#003764;stroke-miterlimit:10;stroke-width:0.91px;}</style></defs><polygon _ngcontent-asc-c4="" points="11.38 55.29 11.38 38.02 2.73 38.02 2.73 63.93 28.65 63.93 28.65 55.29 11.38 55.29" class="cls-1"></polygon><polygon _ngcontent-asc-c4="" points="45.91 20.74 2.74 20.74 2.74 33.7 11.37 33.7 11.37 29.42 37.28 29.42 37.28 55.29 32.97 55.29 32.97 63.93 45.91 63.93 45.91 20.74" class="cls-2"></polygon><path _ngcontent-asc-c4="" d="M54.61,20.6H67.93V52.77H87.08V63.85H54.61Z" class="cls-2"></path><path _ngcontent-asc-c4="" d="M95.59,20.56h33.47v11.1H108.93v5.39h17.28V47.36H108.93V63.85H95.59Z" class="cls-2"></path><path _ngcontent-asc-c4="" d="M148.79,40.91,134.6,20.74h15.58l6.52,11.71,6.4-11.71h14.73L164,41l15.4,22.82h-16L156,51l-7.61,12.86H133.21Z" class="cls-1"></path><path _ngcontent-asc-c4="" d="M204.71,20.78h4.08V63.62h-4.08Z" class="cls-1"></path><path _ngcontent-asc-c4="" d="M217,32.66h3.78V38h.12c1.44-3.72,5.52-6.24,9.9-6.24,8.71,0,11.35,4.56,11.35,11.94V63.62h-3.78V44.3c0-5.28-1.74-9.36-7.87-9.36s-9.54,4.56-9.72,10.62V63.62H217Z" class="cls-1"></path><path _ngcontent-asc-c4="" d="M267.78,41.72c-.18-4.68-3.78-6.78-8.1-6.78-3.36,0-7.32,1.32-7.32,5.34,0,3.3,3.78,4.56,6.42,5.22l5,1.14c4.32.66,8.82,3.18,8.82,8.58,0,6.72-6.66,9.3-12.42,9.3-7.26,0-12.06-3.3-12.72-10.92h3.78c.3,5.1,4.08,7.74,9.12,7.74,3.6,0,8.46-1.56,8.46-5.88,0-3.6-3.36-4.8-6.78-5.64l-4.86-1.08c-4.92-1.26-8.64-3.06-8.64-8.28,0-6.3,6.18-8.7,11.64-8.7,6.24,0,11,3.24,11.34,10Z" class="cls-1"></path><path _ngcontent-asc-c4="" d="M278.17,20.78H282v6.06h-3.78Zm0,11.88H282v31h-3.78Z" class="cls-1"></path><path _ngcontent-asc-c4="" d="M315.37,61.1c0,9.3-3.72,14.88-13.74,14.88-6.18,0-12.36-2.82-12.84-9.36h3.78c.78,4.56,4.92,6.18,9.06,6.18,7,0,10-4.08,10-11.7V56.9h-.12a10.57,10.57,0,0,1-9.84,6.36c-9.9,0-14-7-14-15.9,0-8.52,5-15.6,14-15.6A10.83,10.83,0,0,1,311.47,38h.12V32.66h3.78Zm-3.78-13.32c0-6.06-2.76-12.84-10-12.84s-10.2,6.42-10.2,12.84c0,6.24,3.18,12.3,10.2,12.3C308.17,60.08,311.59,54,311.59,47.78Z" class="cls-1"></path><path _ngcontent-asc-c4="" d="M322.52,20.78h3.78V38h.12c1.44-3.72,5.52-6.24,9.9-6.24,8.7,0,11.34,4.56,11.34,11.94V63.62h-3.78V44.3c0-5.28-1.74-9.36-7.86-9.36s-9.54,4.56-9.72,10.62V63.62h-3.78Z" class="cls-1"></path><path _ngcontent-asc-c4="" d="M360.81,32.66h6.3v3.18h-6.3V56.72c0,2.46.36,3.9,3.06,4.08a29.32,29.32,0,0,0,3.24-.18v3.24c-1.14,0-2.22.12-3.36.12-5,0-6.78-1.68-6.72-7V35.84h-5.4V32.66H357v-9.3h3.78Z" class="cls-1"></path><path _ngcontent-asc-c4="" d="M391.12,41.72c-.18-4.68-3.78-6.78-8.1-6.78-3.36,0-7.33,1.32-7.33,5.34,0,3.3,3.79,4.56,6.43,5.22l5,1.14c4.32.66,8.82,3.18,8.82,8.58,0,6.72-6.66,9.3-12.42,9.3-7.27,0-12.07-3.3-12.73-10.92h3.78c.3,5.1,4.09,7.74,9.13,7.74,3.6,0,8.46-1.56,8.46-5.88,0-3.6-3.36-4.8-6.78-5.64l-4.86-1.08c-4.93-1.26-8.65-3.06-8.65-8.28,0-6.3,6.18-8.7,11.65-8.7,6.24,0,11,3.24,11.34,10Z" class="cls-1"></path><line _ngcontent-asc-c4="" x1="191.01" y1="76.6" x2="191.01" y2="4.6" class="cls-3"></line></svg>
