<svg width="319" height="319" viewBox="0 0 319 319" fill="none" xmlns="http://www.w3.org/2000/svg">
<rect width="319" height="319" fill="white"/>
<rect x="164.336" y="126" width="122.982" height="68.333" rx="3.48194" fill="#FFD848"/>
<path d="M180.397 142.259V177.649H191.612C200.584 177.649 206.317 170.272 206.317 159.705C206.317 149.337 201.033 142.259 191.712 142.259H180.397ZM191.214 172.764H186.528V147.144H191.313C197.145 147.144 200.036 152.328 200.036 159.705C200.036 167.231 196.946 172.764 191.214 172.764Z" fill="#18181B"/>
<path d="M225.313 178.496C234.185 178.496 238.522 172.166 238.522 161.749V158.16C238.522 147.742 234.185 141.412 225.313 141.412C216.441 141.412 212.104 147.742 212.104 158.16V161.749C212.104 172.166 216.441 178.496 225.313 178.496ZM225.313 173.462C220.528 173.462 218.385 169.873 218.385 161.898V158.01C218.385 150.035 220.528 146.446 225.313 146.446C230.098 146.446 232.241 150.035 232.241 158.01V161.898C232.241 169.873 230.098 173.462 225.313 173.462Z" fill="#18181B"/>
<path d="M257.17 178.496C265.344 178.496 269.78 173.312 270.279 165.836L264.198 164.689C263.899 170.372 261.606 173.412 257.419 173.412C252.733 173.412 250.441 169.275 250.441 161.549V158.01C250.441 150.234 252.634 146.496 257.419 146.496C261.556 146.496 263.899 149.586 264.198 155.169L270.328 154.222C269.68 145.499 265.045 141.412 257.469 141.412C248.596 141.412 244.16 147.792 244.16 158.11V161.798C244.16 172.116 248.447 178.496 257.17 178.496Z" fill="#18181B"/>
<path d="M47.2555 169.026L49.7976 156.465C50.2462 154.421 50.8941 150.733 51.1434 148.49H51.4923C51.3427 151.381 51.243 155.717 51.243 158.509V177.649H56.7259V142.259H49L45.6605 158.259C45.4113 159.755 45.1122 161.699 45.0125 162.745H44.7134C44.6137 161.699 44.3147 159.755 44.0655 158.259L40.7259 142.259H33V177.649H38.4829V158.509C38.4829 155.717 38.3832 151.381 38.2337 148.49H38.5826C38.8816 150.733 39.4798 154.421 39.9284 156.465L42.4704 169.026H47.2555Z" fill="#18181B"/>
<path d="M82.8502 168.627L85.4421 177.649H91.4733L80.8066 142.259H73.7287L63.062 177.649H69.0932L71.6352 168.627H82.8502ZM77.168 147.343H77.3674C78.1649 151.68 79.4608 156.963 81.4546 163.692H73.0309C75.0247 156.963 76.3705 151.68 77.168 147.343Z" fill="#18181B"/>
<path d="M109.074 163.144L116.202 177.649H122.931L115.056 162.097C119.342 160.652 121.785 157.312 121.785 152.826C121.785 146.097 117.348 142.259 109.573 142.259H97.5103V177.649H103.641V163.144H109.074ZM103.641 158.758V146.995H109.024C113.161 146.995 115.355 149.088 115.355 152.876C115.355 156.664 113.161 158.758 109.024 158.758H103.641Z" fill="#18181B"/>
<path d="M139.947 160.502L148.47 177.649H155.548L144.483 156.266L154.502 142.259H147.424L136.009 158.907V142.259H129.879V177.649H136.009V165.985L139.947 160.502Z" fill="#18181B"/>
</svg>
