<svg version="1.1" id="Layer_1" xmlns="http://www.w3.org/2000/svg" xmlns:xlink="http://www.w3.org/1999/xlink" x="0px" y="0px"
	 width="100%" viewBox="0 0 911 629" xml:space="preserve">
<path fill="#202F7A" opacity="1.000000" stroke="none" 
	d="
M428.000000,1.000003 
	C447.354218,1.000000 466.708466,1.000000 486.543152,1.419729 
	C488.038086,2.224391 489.033264,2.878282 490.070007,2.952612 
	C500.307465,3.686587 510.577789,4.057555 520.788025,5.052672 
	C535.744141,6.510341 550.747803,7.838822 565.571899,10.215935 
	C595.271667,14.978450 624.592651,21.632698 653.295593,30.696568 
	C691.619263,42.798500 728.440918,58.317841 763.077698,78.939957 
	C797.321838,99.328339 828.216125,123.622581 854.400879,153.815643 
	C869.562317,171.297943 882.271729,190.268768 892.149841,211.224915 
	C900.960754,229.916916 907.335083,249.268661 910.102356,269.781433 
	C910.211609,270.591553 911.344238,271.263611 912.000000,272.000000 
	C912.000000,296.687561 912.000000,321.375122 911.594177,346.530243 
	C910.805664,347.671906 910.160583,348.315643 910.078674,349.024475 
	C908.079346,366.322571 903.755066,383.028717 898.064575,399.476196 
	C884.939819,437.411499 863.101318,469.866425 835.627075,498.649475 
	C826.503906,508.207245 816.215393,516.692749 806.135986,525.288879 
	C786.926147,541.671875 765.627930,555.004944 743.382385,566.806519 
	C711.395752,583.775696 677.820679,596.847290 642.937927,606.479187 
	C614.592468,614.305969 585.809204,620.196533 556.634888,623.869629 
	C541.399048,625.787842 526.029419,626.635681 510.731903,628.089539 
	C509.769440,628.181030 508.908264,629.338440 508.000000,630.000000 
	C474.312439,630.000000 440.624878,630.000000 406.457794,629.581848 
	C405.298035,628.790161 404.642609,628.148682 403.933868,628.083008 
	C392.418823,627.016602 380.851654,626.380676 369.387421,624.928162 
	C352.704102,622.814392 335.974548,620.739563 319.478729,617.543579 
	C290.771942,611.981689 262.584290,604.358704 234.971420,594.568359 
	C206.629074,584.519287 179.346588,572.153625 153.663971,556.649902 
	C123.834122,538.642639 95.814659,518.087341 72.960274,491.370300 
	C64.267166,481.207947 55.582928,470.961731 47.830185,460.086792 
	C30.491652,435.765747 18.028637,409.039276 10.518575,380.061920 
	C6.448300,364.356964 3.295722,348.521484 2.912039,332.224854 
	C2.886392,331.135529 1.665149,330.074310 0.999996,329.000000 
	C1.000000,315.645782 1.000000,302.291534 1.417161,288.458618 
	C2.222460,286.800049 2.813823,285.645752 2.966252,284.436188 
	C4.081024,275.590027 4.450031,266.593842 6.285035,257.904907 
	C11.885520,231.385986 22.712345,206.939514 37.314163,184.172623 
	C51.717281,161.715500 68.836678,141.528992 89.271667,124.338989 
	C101.281250,114.236488 113.381897,104.148788 126.176399,95.092552 
	C151.678619,77.041527 179.300552,62.692318 208.034210,50.444763 
	C247.274658,33.718761 287.849884,21.566750 329.807739,13.811707 
	C361.067780,8.033940 392.456970,3.766769 424.270142,2.918900 
	C425.529572,2.885334 426.757446,1.666548 428.000000,1.000003 
M367.809296,571.701172 
	C395.019470,573.657043 422.209717,576.758423 449.445709,577.232849 
	C474.516266,577.669495 499.709290,576.128601 524.719177,573.965210 
	C580.843018,569.110474 635.320068,556.527893 687.724487,535.708801 
	C740.482910,514.749084 788.858704,486.672546 828.867920,445.707489 
	C861.688477,412.102814 885.035522,373.307861 892.448181,326.150787 
	C894.595032,312.493591 895.382507,298.751831 893.775452,284.481232 
	C831.717896,298.809235 771.240723,316.898346 712.515503,341.017334 
	C721.140991,358.026611 721.441772,374.121948 708.969299,388.539154 
	C696.967773,402.411957 681.091980,407.113922 662.575745,404.670441 
	C662.336060,420.229614 655.507812,432.035004 643.168091,440.684296 
	C631.105408,449.139343 617.819031,452.859589 603.164490,450.314575 
	C602.022644,453.319794 601.191956,456.209839 599.875366,458.858398 
	C590.667358,477.382141 567.349976,488.202942 546.801697,483.709015 
	C545.440918,483.411469 543.150757,483.480316 542.518494,484.311249 
	C531.299194,499.056152 515.580933,501.425201 498.715271,500.260498 
	C486.760284,499.434906 475.711945,495.146027 465.194366,489.689270 
	C461.953796,488.007996 460.207245,488.351379 457.523987,490.665649 
	C437.954254,507.544434 409.903076,507.848907 390.423737,490.854340 
	C384.309235,485.519806 379.786713,478.360535 374.254791,471.698395 
	C363.736145,475.166901 352.620636,473.736176 341.810150,468.697754 
	C330.900604,463.613220 322.481049,455.932587 317.464539,444.617920 
	C303.484436,447.799835 291.196625,444.034698 279.853851,436.465210 
	C268.424591,428.838043 261.607941,417.927277 258.423462,404.601685 
	C241.213516,406.791412 226.918030,401.867737 216.188934,388.649323 
	C205.338318,375.281219 203.872940,360.114349 209.769684,343.903992 
	C181.295593,325.335327 150.116287,313.917480 118.165535,304.740143 
	C86.201401,295.558960 53.844650,287.744690 21.370661,279.255615 
	C18.196188,306.542267 21.349087,331.782318 29.519777,356.398010 
	C43.601089,398.820618 69.902344,432.874786 103.021698,462.039948 
	C142.092041,496.445618 187.124146,520.716431 235.579575,539.009521 
	C278.071259,555.051147 321.974365,565.435425 367.809296,571.701172 
M530.165527,452.330231 
	C533.934875,456.099396 537.638306,459.938202 541.508240,463.601166 
	C542.922852,464.940063 544.585876,466.374786 546.386108,466.889465 
	C557.644897,470.108276 568.250854,468.824585 577.236206,460.837524 
	C586.242920,452.831635 586.558777,444.740906 578.519409,435.684052 
	C565.142761,420.614410 551.656311,405.642334 538.249329,390.599548 
	C537.041504,389.244415 535.617981,387.810791 535.123840,386.164673 
	C534.606750,384.442169 534.400391,381.888519 535.331604,380.676697 
	C536.261169,379.467041 539.009155,378.665131 540.530151,379.120422 
	C543.127197,379.897827 545.734680,381.424652 547.735596,383.284515 
	C562.858582,397.341339 578.425720,410.989044 592.703308,425.868774 
	C609.562439,443.438995 638.164062,429.530609 643.938416,414.098938 
	C647.890076,403.538452 643.522339,395.357971 636.243408,388.078308 
	C618.098450,369.931519 599.940247,351.797974 581.828491,333.618103 
	C580.202087,331.985565 578.274719,330.257721 577.583069,328.204895 
	C576.944031,326.308136 577.006958,323.176239 578.181763,321.950317 
	C579.336365,320.745483 582.611389,320.459015 584.360840,321.191284 
	C587.190674,322.375885 589.709351,324.526245 592.054382,326.611877 
	C612.086975,344.429138 632.367615,361.985962 651.917908,380.320312 
	C663.871216,391.530243 683.178101,390.118317 694.465515,379.407440 
	C701.354309,372.870453 703.524231,364.847717 700.088806,356.213776 
	C698.140625,351.317566 694.916687,346.344879 690.957397,342.921875 
	C642.458557,300.992340 593.863342,259.170746 544.939636,217.738632 
	C532.019226,206.796646 518.370239,196.545837 504.191681,187.303299 
	C488.013275,176.757156 470.575867,176.829575 453.402283,185.746918 
	C447.361603,188.883514 441.233185,192.028336 435.724335,195.977737 
	C421.117188,206.449860 406.751892,217.264984 392.428436,228.125671 
	C374.476288,241.737778 354.547791,247.012512 332.287415,242.979218 
	C321.571045,241.037552 311.075317,238.423660 302.550079,231.088928 
	C292.375427,222.335098 291.845886,211.251709 300.947266,201.462250 
	C307.635223,194.268600 314.307159,187.060059 320.995819,179.867050 
	C329.199402,171.044907 337.412903,162.232056 346.631226,152.331390 
	C337.707367,154.636368 330.031189,156.170471 322.652649,158.606247 
	C297.115265,167.036560 271.304688,168.735077 244.905334,163.338501 
	C205.867645,155.358414 167.776688,144.065765 130.808502,129.402313 
	C120.104454,125.156548 113.452095,125.908226 104.833626,133.726578 
	C73.692139,161.976990 47.673801,193.672562 32.693268,233.431732 
	C29.327370,242.365021 26.920906,251.659836 24.123669,260.625031 
	C25.522272,261.394592 25.924099,261.725006 26.382229,261.851440 
	C33.912907,263.930023 41.401493,266.187988 48.994663,268.009033 
	C108.076500,282.178528 166.914261,296.997162 219.717804,329.344482 
	C228.912949,320.972229 239.942780,316.556396 252.729340,317.211639 
	C265.678406,317.875214 276.187439,323.739471 284.740021,333.375214 
	C297.319855,324.991699 310.670563,322.592682 325.068726,325.572235 
	C339.502258,328.559143 350.750244,336.039276 357.994293,348.919861 
	C375.170868,343.531555 390.814636,346.441498 404.847565,356.420929 
	C419.605377,366.915894 422.707123,382.783813 422.187286,399.668549 
	C441.795410,399.886871 456.998322,407.551636 467.457794,423.489105 
	C477.896271,439.394653 478.331299,456.426361 470.995972,474.353027 
	C478.135498,476.981323 484.724884,479.761566 491.531128,481.827148 
	C501.011169,484.704132 510.654083,484.719635 519.915649,480.913177 
	C523.246826,479.544098 526.095337,477.000641 529.482727,474.784698 
	C527.953857,472.940430 527.261902,472.033905 526.497070,471.193817 
	C515.513000,459.129456 504.499207,447.092010 493.551544,434.994720 
	C492.117767,433.410370 490.551758,431.685242 489.894501,429.739136 
	C489.346680,428.116974 489.389862,425.517609 490.367584,424.372650 
	C491.381042,423.185791 494.063995,422.452911 495.604187,422.910400 
	C498.042908,423.634766 500.395264,425.227448 502.334686,426.956757 
	C511.528168,435.154236 520.569275,443.522614 530.165527,452.330231 
M465.474915,161.840958 
	C478.976562,159.108627 492.373840,159.920273 504.229279,166.902451 
	C517.223755,174.555450 530.145203,182.753159 541.660034,192.425827 
	C593.680664,236.124161 645.215820,280.400909 696.820007,324.593018 
	C699.521301,326.906281 701.501343,327.236115 704.684082,325.850525 
	C756.610229,303.245331 810.250366,285.711273 865.150391,271.947296 
	C873.768433,269.786682 882.419189,267.756531 891.549255,265.546387 
	C889.327515,257.415680 887.559204,249.799606 885.168335,242.384293 
	C871.768005,200.824188 846.192749,167.537323 814.723633,138.072601 
	C808.161377,131.928345 802.534851,129.260376 794.796692,134.909119 
	C794.274902,135.290024 793.584900,135.441315 792.972168,135.696838 
	C757.173706,150.624588 720.124878,160.062744 681.143311,160.416245 
	C641.571899,160.775116 603.950439,151.952240 568.150208,135.251938 
	C544.622864,124.276756 520.193420,116.242500 494.285919,113.757332 
	C449.720581,109.482407 408.925354,119.082497 375.464722,150.246323 
	C355.875793,168.490585 337.749481,188.314941 319.141724,207.598801 
	C310.241638,216.822235 311.086029,220.143311 323.612152,224.030731 
	C342.752777,229.970978 361.246338,228.554871 377.884247,216.576569 
	C391.660065,206.658783 404.957214,196.077896 418.519623,185.861389 
	C432.532501,175.305588 446.922607,165.439697 465.474915,161.840958 
M138.372742,107.908783 
	C136.509628,109.191704 134.646515,110.474625 132.155289,112.190056 
	C134.144943,112.995193 135.292755,113.504616 136.470963,113.929909 
	C169.778625,125.952881 203.687714,135.907745 238.129456,144.164474 
	C261.122437,149.676605 283.919556,151.779663 307.073761,145.044174 
	C326.855469,139.289749 346.680115,133.485397 367.528931,132.818481 
	C368.857513,132.775970 370.326782,131.815750 371.433044,130.916412 
	C401.655121,106.346992 436.767487,96.072403 475.147339,95.606224 
	C508.536285,95.200661 540.100403,103.548805 570.157471,117.360062 
	C596.807800,129.605927 624.251892,138.628586 653.444214,141.871521 
	C687.178589,145.619019 720.226501,141.752670 752.554565,131.820175 
	C765.172424,127.943451 777.493530,123.100822 790.822327,118.389763 
	C788.437195,116.588585 787.154358,115.584435 785.835876,114.629494 
	C762.590820,97.793182 737.790894,83.651299 711.659424,71.813141 
	C633.112244,36.229370 550.263672,21.004070 464.500519,19.850023 
	C412.369843,19.148546 360.803925,24.361742 309.965393,36.052891 
	C248.901886,50.095444 191.223816,72.325867 138.372742,107.908783 
M456.290833,465.643646 
	C465.204651,443.404724 452.012939,419.909241 428.203979,416.986328 
	C421.947937,416.218323 415.296997,418.880432 408.798553,419.752106 
	C406.670563,420.037537 403.552612,420.464874 402.517578,419.334564 
	C401.404724,418.119202 401.838654,415.078400 402.249237,412.960449 
	C403.163452,408.244324 404.904572,403.665436 405.563477,398.927002 
	C407.982025,381.535614 399.886505,369.000641 383.426697,364.338135 
	C372.575806,361.264465 362.723328,363.000854 354.079346,370.648773 
	C352.752563,371.822662 350.307037,373.097504 349.051270,372.606384 
	C347.767517,372.104309 347.225952,369.520569 346.527863,367.780548 
	C346.164673,366.875275 346.199799,365.816925 345.995148,364.840271 
	C343.679047,353.786713 337.318420,346.354614 326.374695,343.112762 
	C309.861938,338.221222 292.761902,344.619171 282.716248,359.384460 
	C281.593903,361.034088 280.421631,362.649750 279.046112,364.602600 
	C277.737457,359.274902 277.174927,354.584991 275.438507,350.379852 
	C270.808563,339.167236 259.449219,332.801788 247.267715,333.997986 
	C235.913666,335.112915 226.196869,343.730316 223.434738,355.134430 
	C220.697601,366.435303 225.868118,378.587189 236.062698,384.812988 
	C246.222549,391.017517 258.745514,389.970062 268.192963,382.241821 
	C269.346008,381.298584 270.908203,380.855499 272.280762,380.180603 
	C272.942535,381.913452 274.072479,383.620178 274.171082,385.384491 
	C274.393097,389.356750 273.787567,393.380493 274.074829,397.342987 
	C275.865692,422.045013 305.380249,438.737396 324.001923,423.514282 
	C324.381897,423.203674 324.859375,423.004303 325.307556,422.786346 
	C329.298370,420.845428 331.343475,422.107544 331.411102,426.509552 
	C331.454315,429.319885 331.111176,432.228180 331.707031,434.923279 
	C336.123657,454.901550 363.262024,463.552368 379.196014,450.275421 
	C380.913513,448.844330 383.597870,447.573334 385.592804,447.866638 
	C386.712677,448.031311 387.878723,451.499725 388.101471,453.578583 
	C389.971313,471.029144 401.043365,483.451294 417.847290,486.636078 
	C433.077209,489.522583 448.153503,481.519623 456.290833,465.643646 
z"/>

<path fill="#FEE600" opacity="1.000000" stroke="none" 
	d="
M367.369141,571.629028 
	C321.974365,565.435425 278.071259,555.051147 235.579575,539.009521 
	C187.124146,520.716431 142.092041,496.445618 103.021698,462.039948 
	C69.902344,432.874786 43.601089,398.820618 29.519777,356.398010 
	C21.349087,331.782318 18.196188,306.542267 21.370661,279.255615 
	C53.844650,287.744690 86.201401,295.558960 118.165535,304.740143 
	C150.116287,313.917480 181.295593,325.335327 209.769684,343.903992 
	C203.872940,360.114349 205.338318,375.281219 216.188934,388.649323 
	C226.918030,401.867737 241.213516,406.791412 258.423462,404.601685 
	C261.607941,417.927277 268.424591,428.838043 279.853851,436.465210 
	C291.196625,444.034698 303.484436,447.799835 317.464539,444.617920 
	C322.481049,455.932587 330.900604,463.613220 341.810150,468.697754 
	C352.620636,473.736176 363.736145,475.166901 374.254791,471.698395 
	C379.786713,478.360535 384.309235,485.519806 390.423737,490.854340 
	C409.903076,507.848907 437.954254,507.544434 457.523987,490.665649 
	C460.207245,488.351379 461.953796,488.007996 465.194366,489.689270 
	C475.711945,495.146027 486.760284,499.434906 498.715271,500.260498 
	C515.580933,501.425201 531.299194,499.056152 542.518494,484.311249 
	C543.150757,483.480316 545.440918,483.411469 546.801697,483.709015 
	C567.349976,488.202942 590.667358,477.382141 599.875366,458.858398 
	C601.191956,456.209839 602.022644,453.319794 603.164490,450.314575 
	C617.819031,452.859589 631.105408,449.139343 643.168091,440.684296 
	C655.507812,432.035004 662.336060,420.229614 662.575745,404.670441 
	C681.091980,407.113922 696.967773,402.411957 708.969299,388.539154 
	C721.441772,374.121948 721.140991,358.026611 712.515503,341.017334 
	C771.240723,316.898346 831.717896,298.809235 893.775452,284.481232 
	C895.382507,298.751831 894.595032,312.493591 892.448181,326.150787 
	C885.035522,373.307861 861.688477,412.102814 828.867920,445.707489 
	C788.858704,486.672546 740.482910,514.749084 687.724487,535.708801 
	C635.320068,556.527893 580.843018,569.110474 524.719177,573.965210 
	C499.709290,576.128601 474.516266,577.669495 449.445709,577.232849 
	C422.209717,576.758423 395.019470,573.657043 367.369141,571.629028 
z"/>
<path fill="#FEFEFF" opacity="1.000000" stroke="none" 
	d="
M529.915039,452.080200 
	C520.569275,443.522614 511.528168,435.154236 502.334686,426.956757 
	C500.395264,425.227448 498.042908,423.634766 495.604187,422.910400 
	C494.063995,422.452911 491.381042,423.185791 490.367584,424.372650 
	C489.389862,425.517609 489.346680,428.116974 489.894501,429.739136 
	C490.551758,431.685242 492.117767,433.410370 493.551544,434.994720 
	C504.499207,447.092010 515.513000,459.129456 526.497070,471.193817 
	C527.261902,472.033905 527.953857,472.940430 529.482727,474.784698 
	C526.095337,477.000641 523.246826,479.544098 519.915649,480.913177 
	C510.654083,484.719635 501.011169,484.704132 491.531128,481.827148 
	C484.724884,479.761566 478.135498,476.981323 470.995972,474.353027 
	C478.331299,456.426361 477.896271,439.394653 467.457794,423.489105 
	C456.998322,407.551636 441.795410,399.886871 422.187286,399.668549 
	C422.707123,382.783813 419.605377,366.915894 404.847565,356.420929 
	C390.814636,346.441498 375.170868,343.531555 357.994293,348.919861 
	C350.750244,336.039276 339.502258,328.559143 325.068726,325.572235 
	C310.670563,322.592682 297.319855,324.991699 284.740021,333.375214 
	C276.187439,323.739471 265.678406,317.875214 252.729340,317.211639 
	C239.942780,316.556396 228.912949,320.972229 219.717804,329.344482 
	C166.914261,296.997162 108.076500,282.178528 48.994663,268.009033 
	C41.401493,266.187988 33.912907,263.930023 26.382229,261.851440 
	C25.924099,261.725006 25.522272,261.394592 24.123669,260.625031 
	C26.920906,251.659836 29.327370,242.365021 32.693268,233.431732 
	C47.673801,193.672562 73.692139,161.976990 104.833626,133.726578 
	C113.452095,125.908226 120.104454,125.156548 130.808502,129.402313 
	C167.776688,144.065765 205.867645,155.358414 244.905334,163.338501 
	C271.304688,168.735077 297.115265,167.036560 322.652649,158.606247 
	C330.031189,156.170471 337.707367,154.636368 346.631226,152.331390 
	C337.412903,162.232056 329.199402,171.044907 320.995819,179.867050 
	C314.307159,187.060059 307.635223,194.268600 300.947266,201.462250 
	C291.845886,211.251709 292.375427,222.335098 302.550079,231.088928 
	C311.075317,238.423660 321.571045,241.037552 332.287415,242.979218 
	C354.547791,247.012512 374.476288,241.737778 392.428436,228.125671 
	C406.751892,217.264984 421.117188,206.449860 435.724335,195.977737 
	C441.233185,192.028336 447.361603,188.883514 453.402283,185.746918 
	C470.575867,176.829575 488.013275,176.757156 504.191681,187.303299 
	C518.370239,196.545837 532.019226,206.796646 544.939636,217.738632 
	C593.863342,259.170746 642.458557,300.992340 690.957397,342.921875 
	C694.916687,346.344879 698.140625,351.317566 700.088806,356.213776 
	C703.524231,364.847717 701.354309,372.870453 694.465515,379.407440 
	C683.178101,390.118317 663.871216,391.530243 651.917908,380.320312 
	C632.367615,361.985962 612.086975,344.429138 592.054382,326.611877 
	C589.709351,324.526245 587.190674,322.375885 584.360840,321.191284 
	C582.611389,320.459015 579.336365,320.745483 578.181763,321.950317 
	C577.006958,323.176239 576.944031,326.308136 577.583069,328.204895 
	C578.274719,330.257721 580.202087,331.985565 581.828491,333.618103 
	C599.940247,351.797974 618.098450,369.931519 636.243408,388.078308 
	C643.522339,395.357971 647.890076,403.538452 643.938416,414.098938 
	C638.164062,429.530609 609.562439,443.438995 592.703308,425.868774 
	C578.425720,410.989044 562.858582,397.341339 547.735596,383.284515 
	C545.734680,381.424652 543.127197,379.897827 540.530151,379.120422 
	C539.009155,378.665131 536.261169,379.467041 535.331604,380.676697 
	C534.400391,381.888519 534.606750,384.442169 535.123840,386.164673 
	C535.617981,387.810791 537.041504,389.244415 538.249329,390.599548 
	C551.656311,405.642334 565.142761,420.614410 578.519409,435.684052 
	C586.558777,444.740906 586.242920,452.831635 577.236206,460.837524 
	C568.250854,468.824585 557.644897,470.108276 546.386108,466.889465 
	C544.585876,466.374786 542.922852,464.940063 541.508240,463.601166 
	C537.638306,459.938202 533.934875,456.099396 529.915039,452.080200 
z"/>
<path fill="#FEFEFF" opacity="1.000000" stroke="none" 
	d="
M465.047668,161.910492 
	C446.922607,165.439697 432.532501,175.305588 418.519623,185.861389 
	C404.957214,196.077896 391.660065,206.658783 377.884247,216.576569 
	C361.246338,228.554871 342.752777,229.970978 323.612152,224.030731 
	C311.086029,220.143311 310.241638,216.822235 319.141724,207.598801 
	C337.749481,188.314941 355.875793,168.490585 375.464722,150.246323 
	C408.925354,119.082497 449.720581,109.482407 494.285919,113.757332 
	C520.193420,116.242500 544.622864,124.276756 568.150208,135.251938 
	C603.950439,151.952240 641.571899,160.775116 681.143311,160.416245 
	C720.124878,160.062744 757.173706,150.624588 792.972168,135.696838 
	C793.584900,135.441315 794.274902,135.290024 794.796692,134.909119 
	C802.534851,129.260376 808.161377,131.928345 814.723633,138.072601 
	C846.192749,167.537323 871.768005,200.824188 885.168335,242.384293 
	C887.559204,249.799606 889.327515,257.415680 891.549255,265.546387 
	C882.419189,267.756531 873.768433,269.786682 865.150391,271.947296 
	C810.250366,285.711273 756.610229,303.245331 704.684082,325.850525 
	C701.501343,327.236115 699.521301,326.906281 696.820007,324.593018 
	C645.215820,280.400909 593.680664,236.124161 541.660034,192.425827 
	C530.145203,182.753159 517.223755,174.555450 504.229279,166.902451 
	C492.373840,159.920273 478.976562,159.108627 465.047668,161.910492 
z"/>
<path fill="#FEE600" opacity="1.000000" stroke="none" 
	d="
M138.668304,107.696518 
	C191.223816,72.325867 248.901886,50.095444 309.965393,36.052891 
	C360.803925,24.361742 412.369843,19.148546 464.500519,19.850023 
	C550.263672,21.004070 633.112244,36.229370 711.659424,71.813141 
	C737.790894,83.651299 762.590820,97.793182 785.835876,114.629494 
	C787.154358,115.584435 788.437195,116.588585 790.822327,118.389763 
	C777.493530,123.100822 765.172424,127.943451 752.554565,131.820175 
	C720.226501,141.752670 687.178589,145.619019 653.444214,141.871521 
	C624.251892,138.628586 596.807800,129.605927 570.157471,117.360062 
	C540.100403,103.548805 508.536285,95.200661 475.147339,95.606224 
	C436.767487,96.072403 401.655121,106.346992 371.433044,130.916412 
	C370.326782,131.815750 368.857513,132.775970 367.528931,132.818481 
	C346.680115,133.485397 326.855469,139.289749 307.073761,145.044174 
	C283.919556,151.779663 261.122437,149.676605 238.129456,144.164474 
	C203.687714,135.907745 169.778625,125.952881 136.470963,113.929909 
	C135.292755,113.504616 134.144943,112.995193 132.155289,112.190056 
	C134.646515,110.474625 136.509628,109.191704 138.668304,107.696518 
z"/>
<path fill="#FEFEFE" opacity="1.000000" stroke="none" 
	d="
M456.162598,466.004486 
	C448.153503,481.519623 433.077209,489.522583 417.847290,486.636078 
	C401.043365,483.451294 389.971313,471.029144 388.101471,453.578583 
	C387.878723,451.499725 386.712677,448.031311 385.592804,447.866638 
	C383.597870,447.573334 380.913513,448.844330 379.196014,450.275421 
	C363.262024,463.552368 336.123657,454.901550 331.707031,434.923279 
	C331.111176,432.228180 331.454315,429.319885 331.411102,426.509552 
	C331.343475,422.107544 329.298370,420.845428 325.307556,422.786346 
	C324.859375,423.004303 324.381897,423.203674 324.001923,423.514282 
	C305.380249,438.737396 275.865692,422.045013 274.074829,397.342987 
	C273.787567,393.380493 274.393097,389.356750 274.171082,385.384491 
	C274.072479,383.620178 272.942535,381.913452 272.280762,380.180603 
	C270.908203,380.855499 269.346008,381.298584 268.192963,382.241821 
	C258.745514,389.970062 246.222549,391.017517 236.062698,384.812988 
	C225.868118,378.587189 220.697601,366.435303 223.434738,355.134430 
	C226.196869,343.730316 235.913666,335.112915 247.267715,333.997986 
	C259.449219,332.801788 270.808563,339.167236 275.438507,350.379852 
	C277.174927,354.584991 277.737457,359.274902 279.046112,364.602600 
	C280.421631,362.649750 281.593903,361.034088 282.716248,359.384460 
	C292.761902,344.619171 309.861938,338.221222 326.374695,343.112762 
	C337.318420,346.354614 343.679047,353.786713 345.995148,364.840271 
	C346.199799,365.816925 346.164673,366.875275 346.527863,367.780548 
	C347.225952,369.520569 347.767517,372.104309 349.051270,372.606384 
	C350.307037,373.097504 352.752563,371.822662 354.079346,370.648773 
	C362.723328,363.000854 372.575806,361.264465 383.426697,364.338135 
	C399.886505,369.000641 407.982025,381.535614 405.563477,398.927002 
	C404.904572,403.665436 403.163452,408.244324 402.249237,412.960449 
	C401.838654,415.078400 401.404724,418.119202 402.517578,419.334564 
	C403.552612,420.464874 406.670563,420.037537 408.798553,419.752106 
	C415.296997,418.880432 421.947937,416.218323 428.203979,416.986328 
	C452.012939,419.909241 465.204651,443.404724 456.162598,466.004486 
z"/>
</svg>