<?xml version="1.0" encoding="utf-8"?>
<!-- Generator: Adobe Illustrator 24.0.2, SVG Export Plug-In . SVG Version: 6.00 Build 0)  -->
<svg version="1.1" id="Capa_1" xmlns="http://www.w3.org/2000/svg" xmlns:xlink="http://www.w3.org/1999/xlink" x="0px" y="0px"
	 viewBox="0 0 214.15 54.28" style="enable-background:new 0 0 214.15 54.28;" xml:space="preserve">
<style type="text/css">
	.st0{fill:#283380;}
	.st1{fill:#FFCE00;}
	.st2{fill:#FFFFFF;}
</style>
<g>
	<path class="st0" d="M354.17,25.65C354.17,11.52,336.61,0,314.96,0c-21.65,0-39.21,11.52-39.21,25.65c0,0.36,0,1.37,0,1.5
		c0,14.99,15.34,27.13,39.21,27.13c24.01,0,39.21-12.14,39.21-27.13V25.65z"/>
	<path class="st1" d="M352.67,25.63c0,13.32-16.88,24.12-37.7,24.12c-20.82,0-37.7-10.8-37.7-24.12c0-13.32,16.88-24.12,37.7-24.12
		C335.79,1.51,352.67,12.31,352.67,25.63"/>
	<path class="st2" d="M302.45,18.02c-0.02,0.04-0.4,0.43-0.15,0.74c0.6,0.76,2.43,1.2,4.29,0.78c1.11-0.25,2.52-1.38,3.9-2.47
		c1.49-1.18,2.97-2.37,4.45-2.84c1.57-0.5,2.58-0.29,3.24-0.08c0.73,0.22,1.59,0.7,2.96,1.73c2.58,1.94,12.95,10.99,14.74,12.56
		c1.44-0.65,7.86-3.41,16.58-5.33c-0.76-4.65-3.58-8.9-7.87-12.38c-5.98,2.51-13.28,3.82-20.42,0.33c-0.04-0.02-3.9-1.84-7.71-1.75
		c-5.67,0.13-8.12,2.58-10.72,5.18L302.45,18.02z"/>
	<path class="st2" d="M335.46,29.42c-0.12-0.11-12.2-10.67-14.93-12.73c-1.58-1.19-2.46-1.49-3.39-1.61
		c-0.48-0.06-1.15,0.03-1.61,0.15c-1.27,0.35-2.94,1.46-4.41,2.63c-1.53,1.22-2.97,2.37-4.31,2.67c-1.71,0.38-3.8-0.07-4.75-0.71
		c-0.39-0.26-0.66-0.56-0.79-0.86c-0.35-0.82,0.3-1.47,0.4-1.58l3.33-3.6c0.39-0.39,0.78-0.77,1.18-1.15
		c-1.08,0.14-2.07,0.41-3.04,0.68c-1.21,0.34-2.37,0.66-3.54,0.66c-0.49,0-3.12-0.43-3.62-0.57c-3.02-0.83-5.66-1.63-9.62-3.47
		c-4.74,3.53-7.9,7.94-8.82,12.79c0.68,0.18,1.78,0.51,2.24,0.61c10.72,2.38,14.06,4.84,14.66,5.35c0.66-0.73,1.6-1.19,2.66-1.19
		c1.19,0,2.26,0.6,2.9,1.52c0.61-0.49,1.46-0.9,2.56-0.9c0.5,0,1.01,0.09,1.53,0.27c1.21,0.41,1.83,1.22,2.16,1.95
		c0.41-0.18,0.9-0.32,1.49-0.32c0.58,0,1.18,0.13,1.78,0.39c1.98,0.85,2.28,2.79,2.1,4.25c0.14-0.02,0.28-0.02,0.43-0.02
		c2.34,0,4.25,1.91,4.25,4.25c0,0.73-0.19,1.41-0.51,2.01c0.64,0.36,2.26,1.17,3.69,0.99c1.14-0.14,1.57-0.53,1.73-0.75
		c0.11-0.15,0.22-0.33,0.11-0.45l-3.02-3.36c0,0-0.5-0.47-0.33-0.65c0.17-0.19,0.48,0.08,0.7,0.26c1.54,1.29,3.42,3.23,3.42,3.23
		c0.03,0.02,0.16,0.27,0.85,0.39c0.6,0.11,1.66,0.04,2.39-0.56c0.19-0.15,0.37-0.34,0.52-0.54c-0.01,0.01-0.02,0.02-0.03,0.03
		c0.77-0.99-0.09-1.99-0.09-1.99l-3.53-3.97c0,0-0.51-0.47-0.33-0.65c0.15-0.16,0.48,0.08,0.7,0.27c1.12,0.94,2.7,2.52,4.21,4
		c0.3,0.22,1.63,1.04,3.39-0.12c1.07-0.7,1.28-1.56,1.25-2.21c-0.07-0.86-0.75-1.47-0.75-1.47l-4.82-4.85c0,0-0.51-0.44-0.33-0.66
		c0.15-0.19,0.48,0.08,0.7,0.26c1.54,1.29,5.7,5.1,5.7,5.1c0.06,0.04,1.5,1.07,3.27-0.07c0.64-0.41,1.04-1.02,1.08-1.73
		C336.33,30.16,335.46,29.42,335.46,29.42"/>
	<path class="st2" d="M312.06,35.57c-0.75-0.01-1.57,0.44-1.67,0.37c-0.06-0.04,0.05-0.34,0.12-0.51c0.07-0.17,1.06-3.14-1.34-4.16
		c-1.84-0.79-2.96,0.1-3.35,0.5c-0.1,0.1-0.15,0.1-0.16-0.04c-0.04-0.53-0.28-1.98-1.86-2.46c-2.27-0.69-3.72,0.89-4.09,1.46
		c-0.17-1.29-1.26-2.29-2.6-2.3c-1.45,0-2.63,1.18-2.63,2.63c0,1.45,1.18,2.63,2.63,2.63c0.71,0,1.35-0.28,1.82-0.73
		c0.02,0.01,0.02,0.04,0.01,0.09c-0.11,0.65-0.31,3.01,2.16,3.98c0.99,0.39,1.84,0.1,2.54-0.39c0.21-0.15,0.24-0.08,0.21,0.11
		c-0.09,0.61,0.02,1.91,1.85,2.65c1.39,0.56,2.21-0.01,2.75-0.51c0.23-0.21,0.3-0.18,0.31,0.15c0.07,1.76,1.53,3.16,3.3,3.16
		c1.83,0,3.31-1.48,3.31-3.31C315.37,37.05,313.89,35.59,312.06,35.57"/>
	<path class="st0" d="M335.93,28.16c-3.72-3.25-12.32-10.72-14.64-12.47c-1.33-1-2.24-1.53-3.03-1.77
		c-0.36-0.11-0.85-0.23-1.49-0.23c-0.59,0-1.23,0.11-1.89,0.32c-1.5,0.48-3,1.67-4.45,2.82l-0.07,0.06
		c-1.35,1.07-2.75,2.18-3.8,2.42c-0.46,0.1-0.94,0.16-1.41,0.16c-1.18,0-2.25-0.34-2.64-0.85c-0.07-0.08-0.02-0.22,0.13-0.42
		l0.02-0.03l3.27-3.53c2.56-2.56,4.98-4.98,10.56-5.11c0.09,0,0.19,0,0.28,0c3.47,0,6.94,1.55,7.32,1.73
		c3.25,1.59,6.61,2.39,9.98,2.39c3.52,0,7.15-0.87,10.96-2.63c-0.43-0.36-0.87-0.71-1.33-1.05c-3.35,1.45-6.54,2.19-9.63,2.19
		c-3.15,0-6.29-0.76-9.34-2.25c-0.16-0.08-3.99-1.88-7.97-1.88c-0.1,0-0.21,0-0.31,0c-4.68,0.11-7.32,1.77-9.09,3.23
		c-1.72,0.04-3.21,0.46-4.54,0.83c-1.18,0.33-2.2,0.61-3.2,0.61c-0.41,0-1.15-0.04-1.21-0.04c-1.14-0.03-6.91-1.45-11.49-3.18
		c-0.47,0.33-0.92,0.67-1.36,1.02c4.79,1.96,10.62,3.48,12.46,3.6c0.51,0.03,1.06,0.09,1.6,0.09c1.22,0,2.43-0.34,3.61-0.67
		c0.69-0.2,1.46-0.41,2.27-0.56c-0.22,0.21-0.43,0.43-0.64,0.64l-3.32,3.6c-0.26,0.26-0.83,0.97-0.46,1.84
		c0.15,0.35,0.45,0.69,0.87,0.97c0.79,0.53,2.21,0.89,3.53,0.89c0.5,0,0.97-0.05,1.41-0.15c1.39-0.31,2.85-1.48,4.4-2.71
		c1.23-0.98,2.99-2.23,4.33-2.59c0.38-0.1,0.84-0.17,1.21-0.17c0.11,0,0.22,0,0.31,0.02c0.89,0.11,1.74,0.41,3.27,1.56
		c2.73,2.05,14.81,12.61,14.92,12.72c0.01,0.01,0.78,0.67,0.72,1.78c-0.03,0.62-0.37,1.16-0.96,1.54c-0.51,0.33-1.05,0.49-1.59,0.49
		c-0.81,0-1.36-0.38-1.4-0.41c-0.04-0.04-4.18-3.83-5.7-5.1c-0.24-0.2-0.48-0.38-0.72-0.38c-0.13,0-0.24,0.05-0.32,0.15
		c-0.24,0.3,0.03,0.7,0.34,0.97l4.83,4.86c0.01,0,0.6,0.56,0.67,1.31c0.04,0.81-0.35,1.48-1.15,2c-0.57,0.38-1.15,0.57-1.71,0.57
		c-0.74,0-1.26-0.34-1.38-0.42l-0.69-0.68c-1.27-1.25-2.58-2.54-3.53-3.34c-0.23-0.19-0.48-0.37-0.72-0.37
		c-0.12,0-0.22,0.04-0.3,0.13c-0.11,0.12-0.19,0.34,0.09,0.7c0.11,0.15,0.24,0.27,0.24,0.27l3.53,3.96
		c0.03,0.04,0.73,0.86,0.08,1.69l-0.12,0.16c-0.11,0.12-0.22,0.22-0.33,0.32c-0.6,0.49-1.41,0.55-1.72,0.55
		c-0.17,0-0.33-0.02-0.48-0.04c-0.35-0.06-0.58-0.16-0.69-0.29l-0.04-0.04c-0.19-0.2-1.97-2.01-3.44-3.24
		c-0.19-0.16-0.43-0.37-0.69-0.37c-0.12,0-0.23,0.05-0.32,0.14c-0.29,0.32,0.15,0.8,0.33,0.97l3.01,3.32c0,0.03-0.04,0.1-0.11,0.2
		c-0.11,0.15-0.47,0.51-1.56,0.65c-0.13,0.02-0.27,0.02-0.4,0.02c-1.13,0-2.33-0.55-2.94-0.87c0.28-0.59,0.43-1.25,0.43-1.91
		c0-2.48-2.01-4.49-4.49-4.49c-0.05,0-0.11,0-0.16,0c0.08-1.13-0.08-3.27-2.28-4.21c-0.63-0.27-1.26-0.41-1.88-0.41
		c-0.48,0-0.94,0.08-1.38,0.25c-0.46-0.88-1.21-1.53-2.2-1.86c-0.54-0.19-1.09-0.28-1.61-0.28c-0.91,0-1.76,0.27-2.51,0.8
		c-0.72-0.89-1.81-1.43-2.95-1.43c-1,0-1.97,0.4-2.68,1.11c-0.94-0.71-4.65-3.07-14.59-5.33c-0.48-0.11-1.59-0.43-2.26-0.62
		c-0.11,0.54-0.2,1.08-0.25,1.63c0,0,1.83,0.44,2.19,0.52c10.16,2.26,13.51,4.6,14.08,5.04c-0.19,0.46-0.29,0.96-0.29,1.46
		c0,2.1,1.71,3.81,3.8,3.81c0.24,0,0.47-0.02,0.7-0.06c0.32,1.54,1.33,2.71,2.87,3.32c0.45,0.17,0.91,0.26,1.36,0.26
		c0.29,0,0.58-0.04,0.87-0.11c0.28,0.72,0.93,1.63,2.36,2.21c0.5,0.2,1.01,0.31,1.5,0.31c0.4,0,0.79-0.07,1.16-0.21
		c0.69,1.67,2.32,2.78,4.15,2.78c1.21,0,2.37-0.49,3.22-1.36c0.72,0.4,2.25,1.13,3.8,1.13c0.2,0,0.39-0.01,0.58-0.04
		c1.53-0.19,2.25-0.79,2.58-1.26c0.06-0.08,0.11-0.17,0.16-0.26c0.36,0.1,0.76,0.19,1.22,0.19c0.84,0,1.64-0.29,2.46-0.88
		c0.8-0.58,1.37-1.4,1.45-2.11c0-0.01,0-0.02,0-0.03c0.27,0.06,0.55,0.08,0.82,0.08c0.86,0,1.71-0.27,2.52-0.8
		c1.56-1.03,1.84-2.37,1.81-3.24c0.27,0.06,0.55,0.09,0.83,0.09c0.81,0,1.61-0.24,2.36-0.73c0.97-0.62,1.55-1.57,1.64-2.67
		c0.06-0.75-0.13-1.51-0.52-2.16c2.62-1.13,8.61-3.31,15.67-4.9c-0.04-0.55-0.12-1.09-0.22-1.62
		C343.89,24.69,337.52,27.45,335.93,28.16 M312.06,41.95c-1.66,0-3-1.29-3.07-2.93c0-0.14-0.02-0.51-0.34-0.51
		c-0.13,0-0.24,0.08-0.37,0.2c-0.36,0.34-0.83,0.68-1.51,0.68c-0.31,0-0.64-0.07-0.99-0.22c-1.75-0.71-1.77-1.91-1.7-2.39
		c0.02-0.13,0.03-0.26-0.06-0.37l-0.11-0.1h-0.11c-0.09,0-0.18,0.04-0.3,0.12c-0.51,0.36-0.99,0.53-1.49,0.53
		c-0.27,0-0.55-0.05-0.83-0.16c-2.3-0.9-2.12-3.07-2.01-3.73c0.02-0.13-0.02-0.24-0.1-0.3l-0.16-0.13l-0.15,0.15
		c-0.45,0.43-1.04,0.67-1.65,0.67c-1.32,0-2.39-1.07-2.39-2.39c0-1.32,1.08-2.39,2.4-2.39c1.19,0,2.21,0.9,2.36,2.09l0.08,0.64
		l0.35-0.54c0.04-0.06,1.01-1.53,2.78-1.52c0.34,0,0.69,0.05,1.04,0.16c1.42,0.43,1.66,1.72,1.69,2.25
		c0.03,0.31,0.25,0.33,0.29,0.33c0.12,0,0.21-0.08,0.28-0.14c0.27-0.28,0.85-0.74,1.76-0.74c0.42,0,0.86,0.1,1.32,0.3
		c2.25,0.97,1.23,3.83,1.22,3.86c-0.19,0.47-0.2,0.68-0.02,0.8l0.09,0.04h0.07c0.1,0,0.23-0.04,0.44-0.11
		c0.31-0.11,0.77-0.27,1.2-0.26h0c1.7,0.02,3.07,1.4,3.07,3.07C315.14,40.58,313.76,41.95,312.06,41.95"/>
</g>
<g>
	<path class="st0" d="M78.42,25.65C78.42,11.52,60.87,0,39.21,0C17.56,0,0,11.52,0,25.65c0,0.36,0,1.37,0,1.5
		c0,14.99,15.34,27.13,39.21,27.13c24.01,0,39.21-12.14,39.21-27.13V25.65z"/>
	<path class="st1" d="M76.92,25.63c0,13.32-16.88,24.12-37.7,24.12s-37.7-10.8-37.7-24.12c0-13.32,16.88-24.12,37.7-24.12
		S76.92,12.31,76.92,25.63"/>
	<path class="st2" d="M26.7,18.02c-0.02,0.04-0.4,0.43-0.15,0.74c0.6,0.76,2.43,1.2,4.29,0.78c1.11-0.25,2.52-1.38,3.9-2.47
		c1.49-1.18,2.97-2.37,4.45-2.84c1.57-0.5,2.58-0.29,3.24-0.08c0.73,0.22,1.59,0.7,2.96,1.73c2.58,1.94,12.95,10.99,14.74,12.56
		c1.44-0.65,7.86-3.41,16.58-5.33c-0.76-4.65-3.58-8.9-7.87-12.38c-5.98,2.51-13.28,3.82-20.42,0.33c-0.04-0.02-3.9-1.84-7.71-1.75
		c-5.67,0.13-8.12,2.58-10.72,5.18L26.7,18.02z"/>
	<path class="st2" d="M59.72,29.42c-0.12-0.11-12.2-10.67-14.93-12.73c-1.58-1.19-2.46-1.49-3.39-1.61
		c-0.48-0.06-1.15,0.03-1.61,0.15c-1.27,0.35-2.94,1.46-4.41,2.63c-1.53,1.22-2.97,2.37-4.31,2.67c-1.71,0.38-3.8-0.07-4.75-0.71
		c-0.39-0.26-0.66-0.56-0.79-0.86c-0.35-0.82,0.3-1.47,0.4-1.58l3.33-3.6c0.39-0.39,0.78-0.77,1.18-1.15
		c-1.08,0.14-2.07,0.41-3.04,0.68c-1.21,0.34-2.37,0.66-3.54,0.66c-0.49,0-3.12-0.43-3.62-0.57c-3.02-0.83-5.66-1.63-9.62-3.47
		c-4.74,3.53-7.91,7.94-8.82,12.79c0.68,0.18,1.78,0.51,2.24,0.61c10.72,2.38,14.06,4.84,14.66,5.35c0.66-0.73,1.6-1.19,2.66-1.19
		c1.19,0,2.26,0.6,2.9,1.52c0.61-0.49,1.46-0.9,2.56-0.9c0.5,0,1.01,0.09,1.53,0.27c1.21,0.41,1.83,1.22,2.16,1.95
		c0.41-0.18,0.9-0.32,1.49-0.32c0.58,0,1.18,0.13,1.78,0.39c1.98,0.85,2.28,2.79,2.1,4.25c0.14-0.02,0.28-0.02,0.43-0.02
		c2.34,0,4.25,1.91,4.25,4.25c0,0.73-0.19,1.41-0.51,2.01c0.64,0.36,2.26,1.17,3.69,0.99c1.14-0.14,1.57-0.53,1.73-0.75
		c0.11-0.15,0.22-0.33,0.11-0.45l-3.02-3.36c0,0-0.5-0.47-0.33-0.65c0.17-0.19,0.48,0.08,0.7,0.26c1.54,1.29,3.42,3.23,3.42,3.23
		c0.03,0.02,0.16,0.27,0.85,0.39c0.6,0.11,1.66,0.04,2.39-0.56c0.19-0.15,0.37-0.34,0.52-0.54c-0.01,0.01-0.02,0.02-0.03,0.03
		c0.77-0.99-0.09-1.99-0.09-1.99l-3.53-3.97c0,0-0.51-0.47-0.33-0.65c0.15-0.16,0.48,0.08,0.7,0.27c1.12,0.94,2.7,2.52,4.21,4
		c0.3,0.22,1.63,1.04,3.39-0.12c1.07-0.7,1.28-1.56,1.25-2.21c-0.07-0.86-0.75-1.47-0.75-1.47l-4.82-4.85c0,0-0.51-0.44-0.33-0.66
		c0.15-0.19,0.48,0.08,0.7,0.26c1.54,1.29,5.7,5.1,5.7,5.1c0.06,0.04,1.5,1.07,3.27-0.07c0.64-0.41,1.04-1.02,1.08-1.73
		C60.59,30.16,59.72,29.42,59.72,29.42"/>
	<path class="st2" d="M36.32,35.57c-0.75-0.01-1.57,0.44-1.67,0.37c-0.06-0.04,0.05-0.34,0.12-0.51c0.07-0.17,1.06-3.14-1.34-4.16
		c-1.84-0.79-2.96,0.1-3.35,0.5c-0.1,0.1-0.15,0.1-0.16-0.04c-0.04-0.53-0.28-1.98-1.86-2.46c-2.27-0.69-3.72,0.89-4.09,1.46
		c-0.17-1.29-1.26-2.29-2.6-2.3c-1.45,0-2.63,1.18-2.63,2.63c0,1.45,1.18,2.63,2.63,2.63c0.71,0,1.35-0.28,1.82-0.73
		c0.02,0.01,0.02,0.04,0.01,0.09c-0.11,0.65-0.31,3.01,2.16,3.98c0.99,0.39,1.84,0.1,2.54-0.39c0.21-0.15,0.24-0.08,0.21,0.11
		c-0.09,0.61,0.02,1.91,1.85,2.65c1.39,0.56,2.21-0.01,2.75-0.51c0.23-0.21,0.3-0.18,0.31,0.15c0.07,1.76,1.53,3.16,3.3,3.16
		c1.83,0,3.31-1.48,3.31-3.31C39.63,37.05,38.15,35.59,36.32,35.57"/>
	<path class="st0" d="M60.18,28.16c-3.72-3.25-12.32-10.72-14.64-12.47c-1.33-1-2.24-1.53-3.03-1.77c-0.36-0.11-0.85-0.23-1.49-0.23
		c-0.59,0-1.23,0.11-1.89,0.32c-1.5,0.48-3,1.67-4.45,2.82l-0.07,0.06c-1.35,1.07-2.75,2.18-3.8,2.42c-0.46,0.1-0.94,0.16-1.41,0.16
		c-1.18,0-2.25-0.34-2.64-0.85c-0.07-0.08-0.02-0.22,0.13-0.42l0.02-0.03l3.27-3.53c2.56-2.56,4.98-4.98,10.56-5.11
		c0.09,0,0.19,0,0.28,0c3.47,0,6.94,1.55,7.32,1.73c3.25,1.59,6.61,2.39,9.98,2.39c3.52,0,7.15-0.87,10.96-2.63
		c-0.43-0.36-0.87-0.71-1.33-1.05c-3.35,1.45-6.54,2.19-9.63,2.19c-3.15,0-6.29-0.76-9.34-2.25C48.81,9.85,44.98,8.04,41,8.04
		c-0.1,0-0.21,0-0.31,0c-4.68,0.11-7.32,1.77-9.09,3.23c-1.72,0.04-3.21,0.46-4.54,0.83c-1.18,0.33-2.2,0.61-3.2,0.61
		c-0.41,0-1.15-0.04-1.21-0.04c-1.14-0.03-6.91-1.45-11.49-3.18c-0.47,0.33-0.92,0.67-1.36,1.02c4.79,1.96,10.62,3.48,12.46,3.6
		c0.51,0.03,1.06,0.09,1.6,0.09c1.22,0,2.43-0.34,3.61-0.67c0.69-0.2,1.46-0.41,2.27-0.56c-0.22,0.21-0.43,0.43-0.64,0.64l-3.32,3.6
		c-0.26,0.26-0.83,0.97-0.46,1.84c0.15,0.35,0.45,0.69,0.87,0.97c0.79,0.53,2.21,0.89,3.53,0.89c0.5,0,0.97-0.05,1.41-0.15
		c1.39-0.31,2.85-1.48,4.4-2.71c1.23-0.98,2.99-2.23,4.33-2.59c0.38-0.1,0.84-0.17,1.21-0.17c0.11,0,0.22,0,0.31,0.02
		c0.89,0.11,1.74,0.41,3.27,1.56c2.73,2.05,14.81,12.61,14.92,12.72c0.01,0.01,0.78,0.67,0.72,1.78c-0.03,0.62-0.37,1.16-0.96,1.54
		c-0.51,0.33-1.05,0.49-1.59,0.49c-0.81,0-1.36-0.38-1.4-0.41c-0.04-0.04-4.18-3.83-5.7-5.1c-0.24-0.2-0.48-0.38-0.72-0.38
		c-0.13,0-0.24,0.05-0.32,0.15c-0.24,0.3,0.03,0.7,0.34,0.97l4.83,4.86c0.01,0,0.6,0.56,0.67,1.31c0.04,0.81-0.35,1.48-1.15,2
		c-0.57,0.38-1.15,0.57-1.71,0.57c-0.74,0-1.26-0.34-1.38-0.42l-0.69-0.68c-1.27-1.25-2.58-2.54-3.53-3.34
		c-0.23-0.19-0.48-0.37-0.72-0.37c-0.12,0-0.22,0.04-0.3,0.13c-0.11,0.12-0.19,0.34,0.09,0.7c0.11,0.15,0.24,0.27,0.24,0.27
		l3.53,3.96c0.03,0.04,0.73,0.86,0.08,1.69l-0.12,0.16c-0.11,0.12-0.22,0.22-0.33,0.32c-0.6,0.49-1.41,0.55-1.72,0.55
		c-0.17,0-0.33-0.02-0.48-0.04c-0.35-0.06-0.58-0.16-0.69-0.29l-0.04-0.04c-0.19-0.2-1.97-2.01-3.44-3.24
		c-0.19-0.16-0.43-0.37-0.69-0.37c-0.12,0-0.23,0.05-0.32,0.14c-0.29,0.32,0.15,0.8,0.33,0.97l3.01,3.32c0,0.03-0.04,0.1-0.11,0.2
		c-0.11,0.15-0.47,0.51-1.56,0.65c-0.13,0.02-0.27,0.02-0.4,0.02c-1.13,0-2.33-0.55-2.94-0.87c0.28-0.59,0.43-1.25,0.43-1.91
		c0-2.48-2.01-4.49-4.49-4.49c-0.05,0-0.11,0-0.16,0c0.08-1.13-0.08-3.27-2.28-4.21c-0.63-0.27-1.26-0.41-1.88-0.41
		c-0.48,0-0.94,0.08-1.38,0.25c-0.46-0.88-1.21-1.53-2.2-1.86c-0.54-0.19-1.09-0.28-1.61-0.28c-0.91,0-1.76,0.27-2.51,0.8
		c-0.72-0.89-1.81-1.43-2.95-1.43c-1,0-1.97,0.4-2.68,1.11c-0.94-0.71-4.65-3.07-14.59-5.33c-0.48-0.11-1.59-0.43-2.26-0.62
		c-0.11,0.54-0.2,1.08-0.25,1.63c0,0,1.83,0.44,2.19,0.52c10.16,2.26,13.51,4.6,14.08,5.04c-0.19,0.46-0.29,0.96-0.29,1.46
		c0,2.1,1.71,3.81,3.8,3.81c0.24,0,0.47-0.02,0.7-0.06c0.32,1.54,1.33,2.71,2.87,3.32c0.45,0.17,0.91,0.26,1.36,0.26
		c0.29,0,0.58-0.04,0.87-0.11c0.28,0.72,0.93,1.63,2.36,2.21c0.5,0.2,1.01,0.31,1.5,0.31c0.4,0,0.79-0.07,1.16-0.21
		c0.69,1.67,2.32,2.78,4.15,2.78c1.21,0,2.37-0.49,3.22-1.36c0.72,0.4,2.25,1.13,3.8,1.13c0.2,0,0.39-0.01,0.58-0.04
		c1.53-0.19,2.25-0.79,2.58-1.26c0.06-0.08,0.11-0.17,0.16-0.26c0.36,0.1,0.76,0.19,1.22,0.19c0.84,0,1.64-0.29,2.46-0.88
		c0.8-0.58,1.37-1.4,1.45-2.11c0-0.01,0-0.02,0-0.03c0.27,0.06,0.55,0.08,0.82,0.08c0.86,0,1.71-0.27,2.52-0.8
		c1.56-1.03,1.84-2.37,1.81-3.24c0.27,0.06,0.55,0.09,0.83,0.09c0.81,0,1.61-0.24,2.36-0.73c0.97-0.62,1.55-1.57,1.64-2.67
		c0.06-0.75-0.13-1.51-0.52-2.16c2.62-1.13,8.61-3.31,15.67-4.9c-0.04-0.55-0.12-1.09-0.22-1.62
		C68.15,24.69,61.78,27.45,60.18,28.16 M36.32,41.95c-1.66,0-3-1.29-3.07-2.93c0-0.14-0.02-0.51-0.34-0.51
		c-0.13,0-0.24,0.08-0.37,0.2c-0.36,0.34-0.83,0.68-1.51,0.68c-0.31,0-0.64-0.07-0.99-0.22c-1.75-0.71-1.77-1.91-1.7-2.39
		c0.02-0.13,0.03-0.26-0.06-0.37l-0.11-0.1h-0.11c-0.09,0-0.18,0.04-0.3,0.12c-0.51,0.36-0.99,0.53-1.49,0.53
		c-0.27,0-0.55-0.05-0.83-0.16c-2.3-0.9-2.12-3.07-2.01-3.73c0.02-0.13-0.02-0.24-0.1-0.3l-0.16-0.13l-0.15,0.15
		c-0.45,0.43-1.04,0.67-1.65,0.67c-1.32,0-2.39-1.07-2.39-2.39c0-1.32,1.08-2.39,2.4-2.39c1.19,0,2.21,0.9,2.36,2.09l0.08,0.64
		l0.35-0.54c0.04-0.06,1.01-1.53,2.78-1.52c0.34,0,0.69,0.05,1.04,0.16c1.42,0.43,1.66,1.72,1.69,2.25
		c0.03,0.31,0.25,0.33,0.29,0.33c0.12,0,0.21-0.08,0.28-0.14c0.27-0.28,0.85-0.74,1.76-0.74c0.42,0,0.86,0.1,1.32,0.3
		c2.25,0.97,1.23,3.83,1.22,3.86c-0.19,0.47-0.2,0.68-0.02,0.8l0.09,0.04h0.07c0.1,0,0.23-0.04,0.44-0.11
		c0.31-0.11,0.77-0.27,1.2-0.26h0c1.7,0.02,3.07,1.4,3.07,3.07C39.39,40.58,38.01,41.95,36.32,41.95"/>
	<path class="st0" d="M212.03,9.31c-1.41-1.77-3.56-2.66-6.45-2.66c-2.88,0-5.03,0.89-6.44,2.66c-1.42,1.77-2.12,3.87-2.12,6.28
		c0,2.46,0.71,4.56,2.12,6.31c1.41,1.74,3.56,2.62,6.44,2.62c2.88,0,5.03-0.88,6.45-2.62c1.42-1.75,2.12-3.85,2.12-6.31
		C214.15,13.17,213.44,11.08,212.03,9.31 M208.52,19.48c-0.69,0.91-1.67,1.37-2.95,1.37c-1.28,0-2.27-0.46-2.96-1.37
		c-0.69-0.91-1.04-2.21-1.04-3.89c0-1.68,0.34-2.97,1.04-3.88c0.69-0.91,1.68-1.36,2.96-1.36c1.28,0,2.27,0.45,2.95,1.36
		c0.69,0.91,1.03,2.2,1.03,3.88C209.55,17.27,209.21,18.57,208.52,19.48"/>
	<path class="st0" d="M175.86,7.82c-1.43-0.73-3.08-1.09-4.93-1.09c-2.84,0-4.85,0.74-6.01,2.22c-0.73,0.95-1.15,2.16-1.24,3.63
		h4.25c0.1-0.65,0.31-1.16,0.63-1.54c0.44-0.51,1.18-0.77,2.23-0.77c0.94,0,1.65,0.13,2.14,0.39c0.48,0.26,0.73,0.74,0.73,1.43
		c0,0.57-0.31,0.98-0.95,1.25c-0.35,0.15-0.94,0.28-1.76,0.39l-1.5,0.19c-1.71,0.22-3.01,0.58-3.89,1.08
		c-1.61,0.93-2.41,2.42-2.41,4.49c0,1.59,0.5,2.83,1.5,3.7c1,0.87,2.26,1.23,3.8,1.31c9.6,0.43,9.49-5.06,9.58-6.2v-6.32
		C178.01,9.93,177.29,8.55,175.86,7.82 M173.63,17.41c-0.03,1.47-0.45,2.48-1.26,3.04c-0.81,0.56-1.69,0.83-2.65,0.83
		c-0.61,0-1.12-0.17-1.55-0.5c-0.42-0.33-0.63-0.88-0.63-1.63c0-0.84,0.34-1.46,1.04-1.87c0.41-0.24,1.08-0.44,2.02-0.6l1-0.19
		c0.5-0.09,0.89-0.2,1.18-0.3c0.29-0.11,0.57-0.24,0.85-0.42V17.41z"/>
	<path class="st0" d="M153.97,10.49c1.1,0,1.9,0.34,2.42,1.02c0.36,0.5,0.58,1.07,0.67,1.69h4.74c-0.26-2.39-1.1-4.06-2.51-5
		c-1.42-0.94-3.23-1.42-5.45-1.42c-2.61,0-4.66,0.8-6.14,2.4c-1.48,1.6-2.23,3.84-2.23,6.72c0,2.55,0.67,4.62,2.01,6.22
		c1.34,1.6,3.44,2.4,6.28,2.4c2.85,0,5-0.96,6.45-2.88c0.91-1.19,1.42-2.45,1.53-3.79h-4.72c-0.1,0.88-0.37,1.6-0.83,2.16
		c-0.45,0.55-1.22,0.83-2.31,0.83c-1.53,0-2.57-0.7-3.12-2.09c-0.3-0.74-0.46-1.73-0.46-2.96c0-1.29,0.15-2.32,0.46-3.1
		C151.34,11.23,152.41,10.49,153.97,10.49"/>
	<path class="st0" d="M144.21,6.78c-9.73,0-9.15,8.61-9.15,8.61v8.75h4.41v-8.21c0-1.34,0.17-2.34,0.51-2.99
		c0.61-1.15,1.79-1.72,3.55-1.72c0.13,0,0.31,0.01,0.52,0.02c0.21,0.01,0.46,0.03,0.74,0.06V6.82c-0.2-0.01-0.32-0.02-0.38-0.02
		C144.36,6.79,144.29,6.78,144.21,6.78"/>
	<path class="st0" d="M127.99,19.57c-0.19,0.26-0.38,0.49-0.6,0.67c-0.62,0.51-1.47,0.67-2.47,0.67c-0.94,0-1.68-0.14-2.35-0.56
		c-1.1-0.68-1.72-1.82-1.79-3.5H133c0.02-1.45-0.03-2.56-0.15-3.33c-0.2-1.31-0.65-2.47-1.34-3.47c-0.76-1.13-1.73-1.96-2.9-2.48
		c-1.17-0.52-2.48-0.78-3.94-0.78c-2.46,0-4.46,0.78-6,2.32c-1.54,1.55-2.31,3.78-2.31,6.68c0,3.1,0.85,5.34,2.56,6.71
		c1.7,1.38,3.68,2.06,5.91,2.06c2.7,0,4.81-0.82,6.31-2.45c0.81-0.86,1.32-1.71,1.53-2.55H127.99z M122.06,11.35
		c0.62-0.64,1.49-0.96,2.62-0.96c1.04,0,1.9,0.3,2.6,0.9c0.7,0.6,1.09,1.49,1.17,2.65h-7.55C121.05,12.86,121.44,11.99,122.06,11.35
		"/>
	<path class="st0" d="M114.59,24.14h-4.03V13.99c0-0.93-0.31-3.13-2.97-3.13c-1.77,0-3.06,1.28-3.06,3.13v10.15h-4.04V13.99
		c0-0.93-0.28-3.13-2.93-3.13c-1.8,0-3.06,1.28-3.06,3.13v10.15h-4.03V14.09c0-4.19,2.78-7.36,7.09-7.36c2.14,0,3.88,0.9,5.01,2.34
		c1.19-1.44,2.96-2.34,5.01-2.34c4.4,0,7,3.04,7,7.36V24.14z"/>
	<path class="st0" d="M195.7,1.48c0,0-4.45-0.47-4.45,3.1l0,4.73c-0.49-0.79-1.13-1.41-1.92-1.85c-0.79-0.45-1.69-0.67-2.71-0.67
		c-2.21,0-3.96,0.82-5.28,2.46c-1.32,1.64-1.98,4.01-1.98,6.87c0,2.48,0.67,4.52,2.01,6.1c1.34,1.58,3.96,2.28,6.29,2.28
		c8.13,0,8.03-6.97,8.03-6.97L195.7,1.48z M190.4,19.51c-0.64,0.92-1.59,1.38-2.83,1.38c-1.24,0-2.17-0.47-2.78-1.39
		c-0.61-0.93-0.91-2.28-0.91-3.83c0-1.44,0.3-2.64,0.9-3.61c0.6-0.97,1.54-1.45,2.82-1.45c0.84,0,1.58,0.27,2.22,0.8
		c1.04,0.88,1.55,2.47,1.55,4.52C191.37,17.4,191.05,18.59,190.4,19.51"/>
	<path class="st0" d="M145.11,45.24c-0.18,0.26-0.38,0.49-0.6,0.66c-0.62,0.51-1.49,0.7-2.48,0.7c-0.93,0-1.66-0.14-2.33-0.56
		c-1.09-0.67-1.67-1.84-1.74-3.51h12.11c0.02-1.43-0.03-2.53-0.15-3.3c-0.2-1.3-0.64-2.45-1.32-3.44c-0.76-1.12-1.72-1.94-2.87-2.46
		c-1.16-0.52-2.46-0.78-3.91-0.78c-2.44,0-4.42,0.77-5.94,2.3c-1.53,1.54-2.29,3.74-2.29,6.62c0,3.07,0.85,5.29,2.54,6.65
		c1.69,1.36,3.64,2.05,5.85,2.05c2.68,0,4.76-0.81,6.25-2.43c0.8-0.85,1.31-1.69,1.52-2.52H145.11z M139.23,37.09
		c0.62-0.63,1.48-0.95,2.59-0.95c1.03,0,1.88,0.3,2.58,0.9c0.69,0.6,1.08,1.47,1.16,2.63h-7.49
		C138.23,38.58,138.62,37.73,139.23,37.09"/>
	<path class="st0" d="M114.77,32.6c-1.02,0-1.92,0.22-2.71,0.67c-0.79,0.45-1.43,1.06-1.92,1.85v-7.94c0,0-4.44-0.44-4.44,3.17
		v12.87c0,0-0.09,6.97,8.03,6.97c2.33,0,4.96-0.7,6.3-2.28c1.34-1.58,2.01-3.62,2.01-6.1c0-2.86-0.66-5.11-1.98-6.75
		C118.74,33.41,116.98,32.6,114.77,32.6 M116.6,45.2c-0.61,0.93-1.54,1.39-2.78,1.39c-1.24,0-2.19-0.46-2.83-1.38
		c-0.64-0.92-0.97-2.12-0.97-3.59c0-2.05,0.52-3.52,1.55-4.4c0.64-0.53,1.38-0.8,2.21-0.8c1.28,0,2.23,0.48,2.82,1.45
		c0.6,0.97,0.9,2.17,0.9,3.61C117.51,43.04,117.21,44.27,116.6,45.2"/>
	<path class="st0" d="M132.74,32.58c-0.06,0-0.13-0.01-0.21-0.01c-9.73,0-9.15,8.61-9.15,8.61v8.61h4.42v-8.07
		c0-1.34,0.17-2.34,0.51-2.99c0.6-1.15,1.79-1.72,3.55-1.72c0.14,0,0.31,0.01,0.52,0.02c0.22,0.01,0.46,0.03,0.74,0.06V32.6
		C132.93,32.59,132.8,32.58,132.74,32.58"/>
	<path class="st0" d="M90.48,30.34v19.43h4.14V27.17C94.62,27.17,90.48,27,90.48,30.34"/>
	<rect x="98.01" y="27.14" class="st0" width="4.43" height="4.39"/>
	<rect x="98.01" y="33.03" class="st0" width="4.44" height="16.77"/>
</g>
</svg>
