<?xml version="1.0" encoding="UTF-8"?>
<svg id="_レイヤー_1" data-name="レイヤー 1" xmlns="http://www.w3.org/2000/svg" viewBox="0 0 457.333 146.667">
  <defs>
    <style>
      .cls-1 {
        fill: none;
      }

      .cls-2 {
        fill: #e60012;
      }
    </style>
  </defs>
  <g>
    <g>
      <polygon class="cls-2" points="56.4287 136.24221 7.1465 136.24221 31.79 93.56251 81.0674 93.56251 56.4287 136.24221"/>
      <polygon class="cls-2" points="105.709 136.24221 154.99119 136.24221 130.34959 93.56251 81.0674 93.56251 105.709 136.24221"/>
      <polygon class="cls-2" points="105.709 50.88671 81.0674 8.20511 56.4287 50.88671 81.0674 93.56251 105.709 50.88671"/>
    </g>
    <polygon points="177.11429 118.07321 196.85349 118.07321 196.85349 110.916 177.11429 110.916 177.11429 102.11041 199.32029 102.11041 199.32029 94.95021 177.11429 94.95021 168.75289 94.95021 168.75289 102.11041 168.75289 129.082 168.75289 136.24221 177.11429 136.24221 199.90229 136.24221 199.90229 129.082 177.11429 129.082 177.11429 118.07321"/>
    <polygon points="176.54 57.37791 185.30959 88.06841 185.65919 88.06841 193 88.06841 193.34469 88.06841 202.11519 57.37791 202.11519 88.06841 209.90329 88.06841 209.90329 46.78611 205.65529 46.78611 201.98239 46.78611 197.96779 46.78611 189.32709 75.76271 180.68749 46.78611 176.67579 46.78611 173.00289 46.78611 168.75289 46.78611 168.75289 88.06841 176.54 88.06841 176.54 57.37791"/>
    <rect x="358.28029" y="46.78611" width="8.3174" height="41.2823"/>
    <rect x="365.05959" y="94.95021" width="8.3105" height="41.292"/>
    <rect x="440.53519" y="46.78611" width="8.3164" height="41.2823"/>
    <rect x="213.21969" y="46.78611" width="8.3135" height="41.2823"/>
    <polygon points="428.916 62.88571 412.38569 62.88571 412.38569 46.78611 404.20119 46.78611 404.20119 88.06841 412.38569 88.06841 412.38569 70.04491 428.916 70.04491 428.916 88.06841 437.09669 88.06841 437.09669 46.78611 428.916 46.78611 428.916 62.88571"/>
    <polygon points="233.83589 88.06841 242.32319 88.06841 242.32319 53.93751 252.41209 53.93751 252.41209 46.78611 242.32319 46.78611 233.83589 46.78611 223.748 46.78611 223.748 53.93751 233.83589 53.93751 233.83589 88.06841"/>
    <polygon points="309.69039 136.24221 318.17379 136.24221 318.17379 102.11041 328.26659 102.11041 328.26659 94.95021 318.17379 94.95021 309.69039 94.95021 299.59859 94.95021 299.59859 102.11041 309.69039 102.11041 309.69039 136.24221"/>
    <path d="M304.01069,89.21871c10.5918,0,16.4707-4.8232,16.4707-14.041v-28.3916h-8.31539v29.1446c0,3.5507-2.99311,6.5166-8.15531,6.5166-6.2529,0-8.0918-3.501-8.0918-6.5166v-29.1446h-8.1826v28.3916c0,9.9229,6.1612,14.041,16.2744,14.041Z"/>
    <polygon points="241.15329 118.07321 260.89749 118.07321 260.89749 110.916 241.15329 110.916 241.15329 102.11041 263.36619 102.11041 263.36619 94.95021 241.15329 94.95021 232.79789 94.95021 232.79789 94.95021 232.79789 102.11041 232.79789 102.11041 232.79789 129.082 232.79789 129.082 232.79789 136.24221 232.79789 136.24221 241.15329 136.24221 263.94629 136.24221 263.94629 129.082 241.15329 129.082 241.15329 118.07321"/>
    <path d="M332.00389,88.06841h11.9199c7.7627,0,12.3936-4.6455,12.3936-11.1475,0-5.252-3.8086-9.7617-7.957-10.79791,3.623-.91989,6.5459-4.62589,6.5459-9.18059,0-6.0879-4.502-10.1563-12.8711-10.1563h-18.6133v41.2823h8.582Zm9.4336-6.2403h-9.7588v-11.9736h9.6582c3.4756,0,6.41511,1.9971,6.41511,6.0019,0,3.3858-2.667,5.9717-6.31451,5.9717Zm.6133-28.4844c2.2695,0,4.8115,2.1075,4.8115,4.8907,0,2.4697-1.77729,5.1972-5.27829,5.1972h-9.90531v-10.0879h10.3721Z"/>
    <path d="M355.24509,116.41991c3.542-1.0654,7.33891-4.2431,7.33891-9.9736,0-7.3428-4.97171-11.5527-13.43261-11.5527h-18.8438v41.2871h8.3623v-16.2676h7.0957c4.2959,0,6.6358,2.2295,7.3389,5.167,.77051,3.249,.5742,8.082,1.4004,11.1006h8.41111c-.81931-3.1612-1.30081-7.4571-1.48441-10.8506-.3027-5.5879-3.2402-7.8242-6.1865-8.9102Zm-16.5752-3.1308v-11.2383h10.0674c3.3975,0,5.6631,2.3857,5.6631,5.6435,0,2.295-2.0108,5.5948-5.417,5.5948h-10.3135Z"/>
    <polygon points="210.95119 94.95021 202.58889 94.95021 202.58889 129.082 202.58889 136.24221 210.95119 136.24221 230.41309 136.24221 230.41309 129.082 210.95119 129.082 210.95119 94.95021"/>
    <path d="M266.373,70.62111c6.70019,1.167,10.51369,2.4072,10.51369,6.4062,0,2.7081-2.6806,5.2764-8.2431,5.2764-5.5577,0-8.4112-3.1611-8.4112-6.9121h-8.0166c0,7.1807,4.65721,13.7393,16.7871,13.7393,11.5518,0,16.5586-6.1104,16.5586-13.085,0-6.5068-4.2588-10.63091-11.8906-12.1318-7.3271-1.4366-12.3555-1.752-12.3555-6.3916,0-3.18851,2.916-5.0762,7.3985-5.0762,4.7666,0,7.5039,2.34469,7.5039,6.30369h8.07421c0-6.51369-4.92971-13.22169-15.90821-13.22169-7.5733,0-15.4317,4.3653-15.4317,12.5244,0,6.8545,5.0381,11.1006,13.42091,12.5684Z"/>
    <path d="M382.77149,70.62111c6.7002,1.167,10.5088,2.4072,10.5088,6.4062,0,2.7081-2.6758,5.2764-8.23829,5.2764-5.55761,0-8.41311-3.1611-8.41311-6.9121h-8.0107c0,7.1807,4.6533,13.7393,16.7822,13.7393,11.5498,0,16.55961-6.1104,16.55961-13.085,0-6.5068-4.25881-10.63091-11.89071-12.1318-7.3291-1.4366-12.3564-1.752-12.3564-6.3916,0-3.18851,2.916-5.0762,7.4004-5.0762,4.76071,0,7.5029,2.34469,7.5029,6.30369h8.0811c0-6.51369-4.9405-13.22169-15.919-13.22169-7.5742,0-15.4287,4.3653-15.4287,12.5244,0,6.8545,5.0391,11.1006,13.4219,12.5684Z"/>
    <path d="M282.76459,129.86431c-6.72259,0-10.6523-6.587-10.6523-14.4375,0-7.8526,3.79-14.4502,10.6523-14.4502,5.1075,0,7.7305,3.1767,8.86141,7.06439h8.66109c-1.4189-8.08489-7.7402-14.08489-17.7558-14.08489-12.6319,0-19.0176,9.665-19.0176,21.58489,0,11.92381,6.6465,21.58691,19.0136,21.58691,9.9024,0,16.585-5.7558,17.8135-14.5761h-8.71479c-1.13091,4.1513-3.84671,7.3125-8.86141,7.3125Z"/>
    <path d="M394.65229,129.86431c-6.7236,0-10.65229-6.587-10.65229-14.4375,0-7.8526,3.78319-14.4502,10.65229-14.4502,5.1104,0,7.7295,3.1767,8.8604,7.06439h8.6572c-1.41989-8.08489-7.7344-14.08489-17.7558-14.08489-12.628,0-19.0176,9.665-19.0176,21.58489,0,11.92381,6.6474,21.58691,19.0176,21.58691,9.9013,0,16.58391-5.7558,17.8115-14.5761h-8.7129c-1.1309,4.1513-3.8506,7.3125-8.8604,7.3125Z"/>
  </g>
  <rect class="cls-1" width="457.333" height="146.667"/>
</svg>