<?xml version="1.0" encoding="UTF-8"?><svg id="Art" xmlns="http://www.w3.org/2000/svg" viewBox="0 0 792 612"><defs><style>.cls-1{fill:#005aff;}</style></defs><g id="Logo"><path id="Wordmark" class="cls-1" d="m506.2,245.1v121.9s19.1,0,19.1,0v-121.9h-19.1Zm-203.9-2.1c-37.2,0-66,25.9-66,63s28.9,63,66,63c37.2,0,66.1-24.3,66-63,0-35.2-28.9-63-66-63Zm47,63c0,27.5-21,45.7-47,45.7s-47-18.2-47-45.7,21-45.7,47-45.7,47,18.7,47,45.7Zm-241.2-64.9v125.8h19.5v-83.2s101.2,87.1,101.2,87.1v-26.1l-120.7-103.7Zm274.6,64.9l70.8,60.9h28.4s-71-60.9-71-60.9l71-60.9h-28.4l-70.8,60.9Zm301.4,60.9h-21l-15.4-27h-69.6l-15.4,27h-21l25.4-45h70.5l-35.1-62.5,10.4-18.3h0s0,0,0,0l71.1,125.8Z"/></g></svg>