<?xml version="1.0" encoding="utf-8"?>
<!-- Generator: Adobe Illustrator 19.2.1, SVG Export Plug-In . SVG Version: 6.00 Build 0)  -->
<svg version="1.1" id="layer" xmlns="http://www.w3.org/2000/svg" xmlns:xlink="http://www.w3.org/1999/xlink" x="0px" y="0px"
	 viewBox="0 0 652 652" style="enable-background:new 0 0 652 652;" xml:space="preserve">
<style type="text/css">
	.st0{fill:#EF7E09;}
	.st1{fill:#E05E00;}
	.st2{fill:#F9BB00;}
	.st3{fill:#BBB9B5;}
	.st4{fill:#939190;}
	.st5{fill:#DAD8D5;}
	.st6{fill:#E5A900;}
	.st7{fill:#FFDB00;}
	.st8{fill:#F5BE00;}
	.st9{fill:#58575A;}
</style>
<g>
	<path class="st0" d="M135.1,352.8c-2.9,11.3-5.8,23-8.6,34.9c12.6,8.1,25,16.2,37.3,23.1C154.4,392.9,144.9,373.2,135.1,352.8"/>
	<path class="st1" d="M135.1,352.8c11.3,8,22.3,16.2,33.1,23.7c-1.5,11-3,22.4-4.5,34.2C154.4,392.9,144.9,373.2,135.1,352.8"/>
	<path class="st1" d="M135.1,352.8c-2.9,11.3-5.8,23-8.6,34.9c-12.6-8.1-25.4-16.4-38.4-23.7C103.6,359,119.5,355,135.1,352.8"/>
	<path class="st2" d="M135.1,352.8c-11.3-8-22.8-16-34.4-23.1c-4.3,11.3-8.5,22.8-12.5,34.3C103.6,359,119.5,355,135.1,352.8"/>
	<path class="st0" d="M147.9,306.5c-1.9,6.5-3.9,13.2-5.8,20.1c10.1,8.1,19.9,16.4,29.5,24.5C163.9,337,156,322,147.9,306.5"/>
	<path class="st1" d="M147.9,306.5c9.1,8.2,17.9,16.7,26.4,25c-0.9,6.3-1.7,12.8-2.7,19.5C163.9,337,156,322,147.9,306.5"/>
	<path class="st2" d="M135.1,352.8c2.3-9,4.7-17.8,7.1-26.3c10.1,8.1,19.9,16.4,29.5,24.5C159.9,350.3,147.6,351,135.1,352.8"/>
	<path class="st0" d="M135.1,352.8c11.3,8,22.3,16.2,33.1,23.7c1.2-8.8,2.3-17.3,3.4-25.5C159.9,350.3,147.6,351,135.1,352.8"/>
	<path class="st3" d="M147.9,306.5c1.6-5.4,3.2-10.6,4.8-15.6c8.2,8.3,16.1,16.8,23.7,25.3C167.4,311.8,157.9,308.6,147.9,306.5"/>
	<path class="st4" d="M147.9,306.5c9.1,8.2,17.9,16.7,26.4,25c0.7-5.2,1.4-10.3,2.1-15.3C167.4,311.8,157.9,308.6,147.9,306.5"/>
	<path class="st4" d="M147.9,306.5c1.6-5.4,3.2-10.6,4.8-15.6c-8.2-8.3-16.7-16.2-25.4-23.7C134.3,280.4,141.2,293.6,147.9,306.5"/>
	<path class="st5" d="M147.9,306.5c-9.1-8.2-18.5-16.1-28.1-23.5c2.4-5.4,4.9-10.7,7.4-15.8C134.3,280.4,141.2,293.6,147.9,306.5"/>
	<path class="st1" d="M65.8,311.3c-5.5,11.4-10.8,22.9-15.9,34.2c12.4,4.6,25.4,11.1,38.3,18.4C80.7,345.9,73.2,328.2,65.8,311.3"/>
	<path class="st0" d="M65.8,311.3c11.5,4.9,23.3,11.2,34.9,18.3c-4.3,11.3-8.5,22.8-12.5,34.3C80.7,345.9,73.2,328.2,65.8,311.3"/>
	<path class="st6" d="M65.8,311.3c-5.5,11.4-10.8,22.9-15.9,34.2c-12.4-4.6-24.3-7.4-34.7-7.3C30,326.4,47.3,317.3,65.8,311.3"/>
	<path class="st7" d="M65.8,311.3c-11.5-4.9-22.7-8.2-33-9.5c-6.1,12.3-11.9,24.5-17.6,36.4C30,326.4,47.3,317.3,65.8,311.3"/>
	<path class="st7" d="M90.6,263.4c-3.9,6.8-7.7,13.8-11.5,21c-10.6-5.3-21.2-9.3-31.2-11.7C61.4,267,75.9,263.9,90.6,263.4"/>
	<path class="st8" d="M90.6,263.4c-9.8-5.7-19.7-10.3-29.2-13.7c-4.6,7.4-9.1,15.1-13.4,22.9C61.4,267,75.9,263.9,90.6,263.4"/>
	<path class="st8" d="M65.8,311.3c4.4-9.1,8.8-18.1,13.4-26.9c-10.6-5.3-21.2-9.3-31.2-11.7C53.9,284.9,59.8,297.9,65.8,311.3"/>
	<path class="st6" d="M65.8,311.3c-11.5-4.9-22.7-8.2-33-9.5c4.9-9.8,9.9-19.6,15.2-29.2C53.9,284.9,59.8,297.9,65.8,311.3"/>
	<path class="st4" d="M90.6,263.4c3.2-5.7,6.5-11.1,9.8-16.4c9.1,6,18,12.9,26.8,20.3C115.2,264.2,102.9,262.9,90.6,263.4"/>
	<path class="st3" d="M90.6,263.4c9.8,5.7,19.6,12.3,29.2,19.7c2.5-5.4,4.9-10.7,7.4-15.8C115.2,264.2,102.9,262.9,90.6,263.4"/>
	<path class="st8" d="M90.6,263.4c3.2-5.7,6.5-11.1,9.8-16.4c-9.1-6-18.2-11.2-27.2-15.2C79.1,241.9,84.9,252.5,90.6,263.4"/>
	<path class="st6" d="M90.6,263.4c-9.8-5.7-19.7-10.3-29.2-13.7c3.8-6.2,7.8-12.2,11.8-17.9C79.1,241.9,84.9,252.5,90.6,263.4"/>
	<path class="st9" d="M241.8,421c-24.2,0-41.1-18.4-41.1-40.7c0-22.3,17.1-40.9,41.4-40.9c24.2,0,41.1,18.4,41.1,40.7
		C283.2,402.4,266,421,241.8,421 M241.8,352.1c-15.7,0-26.6,12.5-26.6,28s11.2,28.2,26.8,28.2c15.7,0,26.6-12.5,26.6-28
		C268.6,364.8,257.5,352.1,241.8,352.1"/>
	<path class="st9" d="M325.5,394.2h-15.7v25.4H296v-78.9h31.1c18.4,0,30,10.4,30,26.5C357.1,385,342.9,394.2,325.5,394.2 M326,353.3
		h-16.1v28.4H326c10.5,0,17-5.7,17-14.2C343,358.2,336.4,353.3,326,353.3"/>
	<polygon class="st9" points="402.4,419.6 388.4,419.6 388.4,353.6 363.4,353.6 363.4,340.7 427.4,340.7 427.4,353.6 402.4,353.6 	
		"/>
	<path class="st9" d="M507.3,385.5c0,23.6-13.3,35.4-33.9,35.4c-20.5,0-33.6-11.8-33.6-34.7v-45.4h13.9v44.9
		c0,14.7,7.6,22.5,20,22.5c12.3,0,19.8-7.4,19.8-22v-45.4h13.9V385.5z"/>
	<polygon class="st9" points="561.1,400.2 560.7,400.2 536,363.2 536,419.6 522.4,419.6 522.4,340.7 537.1,340.7 561.1,378 
		585.2,340.7 599.9,340.7 599.9,419.6 586.1,419.6 586.1,363 	"/>
	<path class="st9" d="M615.1,350.1L615.1,350.1c0-6.5,5.2-12,11.8-12c6.7,0,11.8,5.4,11.8,11.8v0.1c0,6.5-5.2,11.9-11.8,11.9
		C620.3,361.9,615.1,356.5,615.1,350.1 M637.4,350L637.4,350c0-5.9-4.5-10.6-10.5-10.6c-5.9,0-10.5,4.8-10.5,10.6v0.1
		c0,5.8,4.5,10.6,10.5,10.6C632.9,360.6,637.4,355.8,637.4,350 M622.5,343.8h5.3c2.5,0,4.4,1.3,4.4,3.7c0,2-1.3,3.1-2.9,3.6l3.3,4.6
		h-2.4l-3-4.4h-2.9v4.4h-1.9V343.8z M627.6,349.8c1.7,0,2.7-0.9,2.7-2.2c0-1.4-1-2.1-2.7-2.1h-3.2v4.3H627.6z"/>
</g>
</svg>
