<?xml version="1.0" encoding="UTF-8" standalone="no"?>
<!-- Generator: Adobe Illustrator 21.1.0, SVG Export Plug-In . SVG Version: 6.00 Build 0)  -->

<svg
   version="1.1"
   id="OSS_x5F_Review_x5F_Toolkit"
   x="0px"
   y="0px"
   viewBox="0 0 259.20002 259.20002"
   xml:space="preserve"
   sodipodi:docname="ort-logo-small.svg"
   inkscape:version="1.1 (c68e22c387, 2021-05-23)"
   width="259.20001"
   height="259.20001"
   xmlns:inkscape="http://www.inkscape.org/namespaces/inkscape"
   xmlns:sodipodi="http://sodipodi.sourceforge.net/DTD/sodipodi-0.dtd"
   xmlns="http://www.w3.org/2000/svg"
   xmlns:svg="http://www.w3.org/2000/svg"><defs
   id="defs150" /><sodipodi:namedview
   id="namedview148"
   pagecolor="#ffffff"
   bordercolor="#666666"
   borderopacity="1.0"
   inkscape:pageshadow="2"
   inkscape:pageopacity="0.0"
   inkscape:pagecheckerboard="0"
   showgrid="false"
   inkscape:zoom="0.91034249"
   inkscape:cx="263.0878"
   inkscape:cy="129.0723"
   inkscape:window-width="2560"
   inkscape:window-height="1387"
   inkscape:window-x="-8"
   inkscape:window-y="-8"
   inkscape:window-maximized="1"
   inkscape:current-layer="OSS_x5F_Review_x5F_Toolkit"
   fit-margin-top="0"
   fit-margin-left="0"
   fit-margin-right="0"
   fit-margin-bottom="0" />
<style
   type="text/css"
   id="style2">
	.st0{fill:#FFFFFF;stroke:#FFFFFF;stroke-width:0.8;stroke-miterlimit:10;}
	.st1{fill:#FFFFFF;stroke:#FFFFFF;stroke-width:0.4;stroke-miterlimit:10;}
	.st2{fill:#FFFFFF;stroke:#FFFFFF;stroke-width:1.5;stroke-miterlimit:10;}
	.st3{filter:url(#Adobe_OpacityMaskFilter);}
	.st4{fill:url(#SVGID_2_);}
	.st5{mask:url(#SVGID_1_);}
	.st6{fill:#D14E60;}
	.st7{fill:#FFFFFF;}
	.st8{fill:#C41C33;}
	.st9{fill:#D4596A;}
	.st10{fill:#E18D99;}
	.st11{fill:#E3949F;}
	.st12{filter:url(#Adobe_OpacityMaskFilter_1_);}
	.st13{fill:url(#SVGID_4_);stroke:#FFFFFF;stroke-width:0.4;stroke-miterlimit:10;}
	.st14{mask:url(#SVGID_3_);}
	.st15{fill:#B6A0CB;}
	.st16{fill:#997BB7;}
	.st17{fill:#B39CC9;}
	.st18{fill:#9575B3;}
	.st19{fill:#673A93;}
	.st20{fill:#AE97C6;}
	.st21{filter:url(#Adobe_OpacityMaskFilter_2_);}
	.st22{fill:url(#SVGID_6_);stroke:#FFFFFF;stroke-width:0.4;stroke-miterlimit:10;}
	.st23{mask:url(#SVGID_5_);}
	.st24{fill:#66CFCC;}
	.st25{fill:#80D7D4;}
	.st26{fill:#1FB9B4;}
	.st27{fill:#99DFDD;}
	.st28{fill:#00AFAA;}
	.st29{fill:#B2E7E5;}
	.st30{fill:#85D9D6;}
	.st31{filter:url(#Adobe_OpacityMaskFilter_3_);}
	.st32{fill:url(#SVGID_8_);stroke:#FFFFFF;stroke-width:0.4086;stroke-miterlimit:10;}
	.st33{mask:url(#SVGID_7_);}
	.st34{fill:#ECBED6;}
	.st35{fill:#D878AA;}
	.st36{fill:#C53580;}
	.st37{fill:#D56EA4;}
	.st38{fill:#CB498D;}
	.st39{fill:#DF90B9;}
	.st40{fill:#F0CADE;}
	.st41{filter:url(#Adobe_OpacityMaskFilter_4_);}
	.st42{fill:url(#SVGID_10_);stroke:#FFFFFF;stroke-width:0.4;stroke-miterlimit:10;}
	.st43{mask:url(#SVGID_9_);}
	.st44{fill:#F39862;}
	.st45{fill:#F0813E;}
	.st46{fill:#EC610E;}
	.st47{fill:#F7BB97;}
	.st48{fill:#F29056;}
	.st49{fill:#F9CCB2;}
	.st50{filter:url(#Adobe_OpacityMaskFilter_5_);}
	.st51{fill:url(#SVGID_12_);stroke:#FFFFFF;stroke-width:0.4081;stroke-miterlimit:10;}
	.st52{mask:url(#SVGID_11_);}
	.st53{fill:#B1D6EF;}
	.st54{fill:#8FC3E8;}
	.st55{fill:#86BFE6;}
	.st56{fill:#A8D1ED;}
	.st57{fill:#52A3DB;}
	.st58{fill:#7DBAE4;}
	.st59{filter:url(#Adobe_OpacityMaskFilter_6_);}
	.st60{fill:url(#SVGID_14_);stroke:#FFFFFF;stroke-width:0.4133;stroke-miterlimit:10;}
	.st61{mask:url(#SVGID_13_);}
	.st62{fill:#FAB800;}
	.st63{fill:#FCD466;}
	.st64{fill:#FBCA40;}
	.st65{fill:#FBC838;}
	.st66{fill:#FCD873;}
	.st67{filter:url(#Adobe_OpacityMaskFilter_7_);}
	.st68{fill:url(#SVGID_16_);}
	.st69{mask:url(#SVGID_15_);}
	.st70{filter:url(#Adobe_OpacityMaskFilter_8_);}
	.st71{fill:url(#SVGID_18_);stroke:#FFFFFF;stroke-width:0.3102;stroke-miterlimit:10;}
	.st72{mask:url(#SVGID_17_);}
	.st73{filter:url(#Adobe_OpacityMaskFilter_9_);}
	.st74{fill:url(#SVGID_20_);stroke:#FFFFFF;stroke-width:0.3102;stroke-miterlimit:10;}
	.st75{mask:url(#SVGID_19_);}
	.st76{filter:url(#Adobe_OpacityMaskFilter_10_);}
	.st77{fill:url(#SVGID_22_);stroke:#FFFFFF;stroke-width:0.3168;stroke-miterlimit:10;}
	.st78{mask:url(#SVGID_21_);}
	.st79{filter:url(#Adobe_OpacityMaskFilter_11_);}
	.st80{fill:url(#SVGID_24_);stroke:#FFFFFF;stroke-width:0.3102;stroke-miterlimit:10;}
	.st81{mask:url(#SVGID_23_);}
	.st82{filter:url(#Adobe_OpacityMaskFilter_12_);}
	.st83{fill:url(#SVGID_26_);stroke:#FFFFFF;stroke-width:0.3165;stroke-miterlimit:10;}
	.st84{mask:url(#SVGID_25_);}
	.st85{filter:url(#Adobe_OpacityMaskFilter_13_);}
	.st86{fill:url(#SVGID_28_);stroke:#FFFFFF;stroke-width:0.3205;stroke-miterlimit:10;}
	.st87{mask:url(#SVGID_27_);}
	.st88{filter:url(#Adobe_OpacityMaskFilter_14_);}
	.st89{fill:url(#SVGID_30_);}
	.st90{opacity:0.4;fill:url(#SVGID_31_);}
	.st91{opacity:0.9;fill:url(#SVGID_32_);}
	.st92{mask:url(#SVGID_29_);}
	.st93{fill:#59CBC8;}
	.st94{opacity:0.5;}
	.st95{fill:#383C45;}
</style>
<polygon
   class="st2"
   points="2.8,173.1 2.8,259 88.7,259 174.6,258.9 260.5,173.1 260.5,1.3 88.7,1.3 2.8,87.2 "
   id="polygon4"
   transform="translate(-2.05,-0.55)" />
<g
   id="g111"
   transform="translate(-2.05,-0.55)">
	<defs
   id="defs9">
		<filter
   id="Adobe_OpacityMaskFilter"
   filterUnits="userSpaceOnUse"
   x="2.8"
   y="1.3"
   width="257.70001"
   height="257.70001">
			<feColorMatrix
   type="matrix"
   values="1 0 0 0 0  0 1 0 0 0  0 0 1 0 0  0 0 0 1 0"
   id="feColorMatrix6" />
		</filter>
	</defs>
	<mask
   maskUnits="userSpaceOnUse"
   x="2.8"
   y="1.3"
   width="257.7"
   height="257.7"
   id="SVGID_1_">
		<g
   class="st3"
   id="g56">
			
				<linearGradient
   id="SVGID_2_"
   gradientUnits="userSpaceOnUse"
   x1="-1103.3953"
   y1="463.10019"
   x2="-1314.5052"
   y2="679.00812"
   gradientTransform="translate(1333.9701,-435.5308)">
				<stop
   offset="0"
   style="stop-color:#FFFFFF"
   id="stop11" />
				<stop
   offset="0.1127"
   style="stop-color:#F9F9F9"
   id="stop13" />
				<stop
   offset="0.262"
   style="stop-color:#E8E8E8"
   id="stop15" />
				<stop
   offset="0.4319"
   style="stop-color:#CDCDCD"
   id="stop17" />
				<stop
   offset="0.6171"
   style="stop-color:#A6A6A6"
   id="stop19" />
				<stop
   offset="0.8122"
   style="stop-color:#767676"
   id="stop21" />
				<stop
   offset="1"
   style="stop-color:#404040"
   id="stop23" />
			</linearGradient>
			<rect
   x="1.5"
   y="-2.9000001"
   class="st4"
   width="259"
   height="264.70001"
   id="rect26" />
			
				<radialGradient
   id="SVGID_3_"
   cx="-2704.3208"
   cy="2026.3745"
   r="80.677803"
   fx="-2726.7773"
   fy="2028.3864"
   gradientTransform="matrix(-2.882,-2.1339,0.6264,-0.8836,-8820.7871,-3807.8374)"
   gradientUnits="userSpaceOnUse">
				<stop
   offset="3.205128e-04"
   style="stop-color:#0D0D0D"
   id="stop28" />
				<stop
   offset="0.1455"
   style="stop-color:#303030;stop-opacity:0.9564"
   id="stop30" />
				<stop
   offset="1"
   style="stop-color:#FFFFFF;stop-opacity:0.7"
   id="stop32" />
			</radialGradient>
			<rect
   x="1.5"
   y="-2.9000001"
   style="opacity:0.4;fill:url(#SVGID_3_)"
   width="259"
   height="264.70001"
   id="rect35" />
			
				<linearGradient
   id="SVGID_4_"
   gradientUnits="userSpaceOnUse"
   x1="1722.2903"
   y1="-2853.8572"
   x2="1468.9684"
   y2="-2707.6016"
   gradientTransform="rotate(90,-590.23,-2063.6406)">
				<stop
   offset="0"
   style="stop-color:#FFFFFF;stop-opacity:0"
   id="stop37" />
				<stop
   offset="0.1082"
   style="stop-color:#F9F9F9;stop-opacity:0.1082"
   id="stop39" />
				<stop
   offset="0.2516"
   style="stop-color:#E8E8E8;stop-opacity:0.2516"
   id="stop41" />
				<stop
   offset="0.4148"
   style="stop-color:#CDCDCD;stop-opacity:0.4148"
   id="stop43" />
				<stop
   offset="0.5927"
   style="stop-color:#A6A6A6;stop-opacity:0.5927"
   id="stop45" />
				<stop
   offset="0.7824"
   style="stop-color:#757575;stop-opacity:0.7824"
   id="stop47" />
				<stop
   offset="0.9792"
   style="stop-color:#3A3A3A;stop-opacity:0.9792"
   id="stop49" />
				<stop
   offset="1"
   style="stop-color:#333333"
   id="stop51" />
			</linearGradient>
			<polygon
   style="opacity:0.9;fill:url(#SVGID_4_)"
   points="260.5,261.7 260.5,-2.9 1.5,-2.9 1.5,261.7 "
   id="polygon54" />
		</g>
	</mask>
	<g
   class="st5"
   mask="url(#SVGID_1_)"
   id="g103">
		<g
   id="g63">
			<polygon
   class="st62"
   points="88.3,86.8 3.7,86.8 88.3,2.2 "
   id="polygon59" />
			<path
   class="st7"
   d="M 88,3.1 V 86.4 H 4.6 L 88,3.1 M 88.7,1.3 2.8,87.2 h 85.9 z"
   id="path61" />
		</g>
		<g
   id="g71">
			<polygon
   class="st93"
   points="259.6,172.7 89.1,172.7 89.1,2.2 "
   id="polygon65" />
			<g
   id="g69">
				<path
   class="st7"
   d="M 89.5,3.1 258.7,172.3 H 89.5 V 3.1 M 88.7,1.3 v 171.8 h 171.8 z"
   id="path67" />
			</g>
		</g>
		<g
   id="g77">
			<polygon
   class="st28"
   points="260.1,172.2 89.6,1.7 260.1,1.7 "
   id="polygon73" />
			<path
   class="st7"
   d="M 259.7,2 V 171.2 L 90.5,2 h 169.2 m 0.8,-0.7 H 88.7 l 171.8,171.8 z"
   id="path75" />
		</g>
		<g
   id="g83">
			<rect
   x="3.2"
   y="87.599998"
   class="st46"
   width="85.099998"
   height="85.099998"
   id="rect79" />
			<path
   class="st7"
   d="m 88,87.9 v 84.4 H 3.6 V 87.9 H 88 m 0.7,-0.7 H 2.8 v 85.9 h 85.9 z"
   id="path81" />
		</g>
		<g
   id="g89">
			<polygon
   class="st57"
   points="87.8,258.6 3.2,258.6 3.2,174 "
   id="polygon85" />
			<path
   class="st7"
   d="m 3.6,174.9 83.3,83.3 H 3.6 V 174.9 M 2.8,173.1 V 259 h 85.9 z"
   id="path87" />
		</g>
		<g
   id="g95">
			<polygon
   class="st19"
   points="259.6,173.4 174.4,258.6 89.6,258.6 174.8,173.4 "
   id="polygon91" />
			<path
   class="st7"
   d="m 258.7,173.8 -84.4,84.4 H 90.5 l 84.4,-84.4 h 83.8 m 1.8,-0.7 H 174.6 L 88.7,259 h 85.9 z"
   id="path93" />
		</g>
		<g
   id="g101">
			<polygon
   class="st8"
   points="88.7,258.4 3.7,173.4 173.7,173.4 "
   id="polygon97" />
			<path
   class="st7"
   d="M 172.8,173.8 88.7,257.9 4.6,173.8 h 168.2 m 1.8,-0.7 H 2.8 L 88.7,259 Z"
   id="path99" />
		</g>
	</g>
	<g
   class="st94"
   id="g109">
		<polygon
   class="st57"
   points="87.8,258.6 3.2,258.6 3.2,174 "
   id="polygon105" />
		<path
   class="st7"
   d="m 3.6,174.9 83.3,83.3 H 3.6 V 174.9 M 2.8,173.1 V 259 h 85.9 z"
   id="path107" />
	</g>
</g>
<g
   id="g145"
   transform="matrix(0.3,0,0,0.3,-97.17,91.035313)">
	<path
   class="st95"
   d="m 422.8,72.6 c 0,27.7 -14.2,43.4 -35.2,43.4 -20.9,0 -35.2,-15.1 -35.2,-43.2 0,-27.7 14.4,-43.7 35.2,-43.7 20.9,-0.2 35.2,15.1 35.2,43.5 z m -59.2,0.1 c 0,24.4 9.8,34.4 23.9,34.4 14.7,0 23.9,-10 23.9,-34.6 0,-24.6 -9.2,-34.8 -23.9,-34.8 -14.3,0 -23.9,10.3 -23.9,35 z"
   id="path113" />
	<path
   class="st95"
   d="m 488.2,38.6 -5.7,6.5 c -6.4,-5.1 -12.2,-7.3 -19.3,-7.3 -8.9,0 -15.6,4.3 -15.6,12.5 0,7.5 3.5,11 18.7,15.6 13.8,4.2 24.7,9.5 24.7,25.3 0,14.7 -11,24.8 -29.4,24.8 -12,0 -21.3,-4 -28.2,-10.8 l 5.9,-6.6 c 6.4,5.3 12.9,8.6 22.2,8.6 10.3,0 18.6,-5.3 18.6,-15.6 0,-8.7 -4.2,-12.5 -18.6,-16.9 -16.5,-5 -24.7,-11.2 -24.7,-24.1 0,-12.6 10.8,-21.6 26,-21.6 11.4,-0.1 18.6,3.4 25.4,9.6 z"
   id="path115" />
	<path
   class="st95"
   d="m 553.2,38.6 -5.7,6.5 c -6.4,-5.1 -12.2,-7.3 -19.3,-7.3 -8.9,0 -15.6,4.3 -15.6,12.5 0,7.5 3.5,11 18.7,15.6 13.8,4.2 24.7,9.5 24.7,25.3 0,14.7 -11,24.8 -29.4,24.8 -12,0 -21.3,-4 -28.2,-10.8 l 5.9,-6.6 c 6.4,5.3 12.9,8.6 22.2,8.6 10.3,0 18.6,-5.3 18.6,-15.6 0,-8.7 -4.2,-12.5 -18.6,-16.9 -16.5,-5 -24.7,-11.2 -24.7,-24.1 0,-12.6 10.8,-21.6 26,-21.6 11.4,-0.1 18.6,3.4 25.4,9.6 z"
   id="path117" />
	<path
   class="st95"
   d="m 381.1,193.6 h -7.8 V 226 h -20 V 141.3 H 381 c 23,0 34.8,8.2 34.8,25.8 0,11.1 -5.3,17.8 -16.2,22.8 l 21.5,36 h -22.6 z m -7.8,-13.8 h 8.4 c 8.8,0 13.4,-3.8 13.4,-12.7 0,-8.2 -4.8,-11.7 -14.7,-11.7 h -7.2 v 24.4 z"
   id="path119" />
	<path
   class="st95"
   d="m 483.1,199.2 h -40.2 c 1.3,11.6 6.8,14.8 14.8,14.8 5.3,0 9.9,-1.8 15.5,-5.7 l 7.9,10.8 c -6.5,5.1 -14.8,9 -25.3,9 -21.6,0 -32.6,-13.9 -32.6,-34.2 0,-19.4 10.6,-34.8 30.3,-34.8 18.6,0 29.9,12.2 29.9,33.2 0.1,2 0,5 -0.3,6.9 z m -18.6,-12.4 c -0.1,-8.8 -2.8,-14.9 -10.5,-14.9 -6.5,0 -10.3,4.2 -11.1,15.8 h 21.6 z"
   id="path121" />
	<path
   class="st95"
   d="m 529,226 h -22.8 l -20.9,-64.9 h 21 l 11.5,50.2 12,-50.2 h 19.7 z"
   id="path123" />
	<path
   class="st95"
   d="m 577.2,137.9 c 0,6.2 -4.8,11 -11.5,11 -6.7,0 -11.4,-4.8 -11.4,-11 0,-6.2 4.6,-11 11.4,-11 6.8,0 11.5,4.8 11.5,11 z m -1.7,88.1 h -19.3 v -64.9 h 19.3 z"
   id="path125" />
	<path
   class="st95"
   d="m 646.7,199.2 h -40.2 c 1.3,11.6 6.8,14.8 14.8,14.8 5.3,0 9.9,-1.8 15.5,-5.7 l 7.9,10.8 c -6.5,5.1 -14.8,9 -25.3,9 -21.6,0 -32.6,-13.9 -32.6,-34.2 0,-19.4 10.6,-34.8 30.3,-34.8 18.6,0 29.9,12.2 29.9,33.2 0,2 -0.1,5 -0.3,6.9 z m -18.6,-12.4 c -0.1,-8.8 -2.8,-14.9 -10.5,-14.9 -6.5,0 -10.3,4.2 -11.1,15.8 h 21.6 z"
   id="path127" />
	<path
   class="st95"
   d="m 728,226 h -23.1 l -8.7,-47.6 -8.6,47.6 H 664.8 L 651,161.1 h 19.5 l 6.7,50.5 10.1,-50.5 h 18.8 l 8.9,50.5 7.8,-50.5 h 18.4 z"
   id="path129" />
	<path
   class="st95"
   d="M 834.9,156.7 H 814 V 226 h -20 v -69.3 h -21.9 v -15.4 h 64.7 z"
   id="path131" />
	<path
   class="st95"
   d="m 897.7,193.6 c 0,20.8 -12,34.5 -31.8,34.5 -19.7,0 -31.8,-12.7 -31.8,-34.6 0,-20.8 12,-34.4 31.8,-34.4 19.8,-0.1 31.8,12.6 31.8,34.5 z m -43.5,-0.1 c 0,14.4 3.9,20.4 11.7,20.4 7.8,0 11.7,-6.2 11.7,-20.3 0,-14.4 -3.9,-20.4 -11.7,-20.4 -7.8,0 -11.7,6.2 -11.7,20.3 z"
   id="path133" />
	<path
   class="st95"
   d="m 969.1,193.6 c 0,20.8 -12,34.5 -31.8,34.5 -19.7,0 -31.8,-12.7 -31.8,-34.6 0,-20.8 12,-34.4 31.8,-34.4 19.8,-0.1 31.8,12.6 31.8,34.5 z m -43.5,-0.1 c 0,14.4 3.9,20.4 11.7,20.4 7.8,0 11.7,-6.2 11.7,-20.3 0,-14.4 -3.9,-20.4 -11.7,-20.4 -7.8,0 -11.7,6.2 -11.7,20.3 z"
   id="path135" />
	<path
   class="st95"
   d="m 979.6,209.5 v -74.2 l 19.3,-2.1 v 75.5 c 0,2.7 1.1,4 3.4,4 1.2,0 2.3,-0.2 3.2,-0.6 l 3.7,13.7 c -2.8,1.2 -7,2.2 -11.7,2.2 -11.3,0.1 -17.9,-6.7 -17.9,-18.5 z"
   id="path137" />
	<path
   class="st95"
   d="m 1036.4,226 h -19.3 v -90.6 l 19.3,-2.1 z m 20.4,-36.4 21.2,36.4 h -21.7 l -19.3,-35.4 19.8,-29.4 h 19.7 z"
   id="path139" />
	<path
   class="st95"
   d="m 1105.4,137.9 c 0,6.2 -4.8,11 -11.5,11 -6.7,0 -11.4,-4.8 -11.4,-11 0,-6.2 4.6,-11 11.4,-11 6.8,0 11.5,4.8 11.5,11 z m -1.7,88.1 h -19.3 v -64.9 h 19.3 z"
   id="path141" />
	<path
   class="st95"
   d="m 1159.4,222.9 c -4.9,3.4 -11.7,5.1 -17.6,5.1 -14.3,-0.1 -21.3,-8.2 -21.3,-23.5 v -30.1 h -9.2 V 161 h 9.2 v -14 l 19.3,-2.2 V 161 h 14.9 l -2.1,13.4 h -12.8 v 29.8 c 0,6.2 2.1,8.4 6.1,8.4 2.2,0 4.4,-0.6 7,-2.1 z"
   id="path143" />
</g>
</svg>
