<svg width="118" height="24" fill="none" xmlns="http://www.w3.org/2000/svg"><path fill-rule="evenodd" clip-rule="evenodd" d="M71.663 16.725c2.066-5.174 3.828-9.392 5.425-13.674C77.872.949 79.041-.661 81.363.27c2.413.975.659 2.82.164 4.122-2.102 5.49-4.323 10.934-6.604 16.351-.595 1.419-1.023 3.129-3.28 3.053-2.106-.072-2.709-1.435-3.332-3.004-2.237-5.594-4.566-11.154-6.715-16.783-.436-1.134-2.034-2.792.208-3.703 2.017-.82 3.336.172 4.118 2.217 1.746 4.542 3.64 9.028 5.74 14.202zM59.05 12.159c.021 4.854-3.158 9.651-7.43 11.122-1.166.399-2.576 1.31-3.331-.511-.543-1.315-.148-2.433 1.043-3.444 7.015-5.95 7.071-8.965.208-14.35-1.391-1.09-1.954-2.285-1.207-3.771.903-1.802 2.333-.536 3.407-.153 4.454 1.582 7.287 5.985 7.31 11.107zM35.002 11.983c.084-5.122 2.992-9.389 7.586-11.015.954-.335 2.178-1.574 2.928.057.623 1.35.595 2.72-.834 3.93-6.92 5.861-6.928 8.195.007 14.394 1.215 1.084 1.454 2.27.971 3.48-.751 1.886-2.201.756-3.312.352-4.418-1.606-7.43-6.256-7.346-11.198zM90.08 12.134c0 3.097.008 6.193-.009 9.289-.003 1.23-.291 2.246-1.832 2.333-1.547.084-2.686-.504-2.706-2.085-.075-6.52-.052-13.036-.008-19.552.008-1.306.732-2.025 2.17-2.05 1.638-.023 2.397.656 2.389 2.29-.02 3.256-.009 6.516-.005 9.775zM105.672 19.673c-4.182-.191-6.983-3.444-6.816-7.918.168-4.422 3.161-7.08 7.719-6.847 4.067.212 6.827 3.292 6.7 7.478-.132 4.267-3.476 7.475-7.603 7.287zm.144-19.56C99.432.117 94.091 5.527 94.023 12.06c-.075 6.903 5.058 11.985 12.072 11.94 6.945-.04 11.602-4.746 11.631-11.744.027-7.136-4.891-12.149-11.91-12.142z" fill="#F47820"/><circle cx="12" cy="12" r="12" fill="#F47820"/><mask id="a" maskUnits="userSpaceOnUse" x="1" y="1" width="22" height="19"><path fill-rule="evenodd" clip-rule="evenodd" d="M1 1h22v18.273H1V1z" fill="#fff"/></mask><g mask="url(#a)"><path fill-rule="evenodd" clip-rule="evenodd" d="M1.037 8.919c-.155-.63.21-1.14.471-1.648 1.738-3.382 4.51-5.486 8.431-6.129a9.884 9.884 0 0 1 3.037-.046c4.042.59 7.044 2.617 8.902 6.089 1.06 1.98 1.295 4.135 1.011 6.337-.03.238-.122.468-.186.702-.093.264-.073.552-.19.811-.034.077-.033.193-.157.181-.112-.01-.12-.116-.14-.201.138-.803.38-1.59.42-2.41.007-.165.011-.331.019-.496.154-.588-.063-1.162-.085-1.744-.006-.134.015-.283-.043-.46.034.504.057.966.162 1.418-.002 2.536-.636 4.896-2.138 7.014-.33.323-.533.773-1.024.936-.071-.028-.135-.06-.084-.15.096-.224.36-.349.395-.61.002-.095-.058-.188-.008-.284.906-1.223 1.6-2.539 1.92-4.02.669-3.095.174-5.98-1.84-8.527-2.342-2.96-5.526-4.3-9.37-4.032-2.461.171-4.578 1.208-6.382 2.837-1.01.912-1.739 1.997-2.358 3.166-.363.352-.365.845-.537 1.271-.02.052-.005.118-.076.145-.099-.005-.196-.013-.15-.15z" fill="#fff"/></g><path fill-rule="evenodd" clip-rule="evenodd" d="M17.26 21.609c-1.055.59-2.171 1.026-3.386 1.207-.129.045-.16-.01-.138-.122.78-.414 1.712-.45 2.472-.913.235-.275.586-.356.905-.492.237.026.195.172.148.32zM22.304 15.023c.037.016.01.2.099.056.159-.262.098-.602.3-.855-.074 1.193-.585 2.244-1.162 3.274-.172.034-.217.198-.33.292-.111.093-.24.19-.274-.062.451-.784.863-1.584 1.147-2.44.034-.105.05-.25.22-.265z" fill="#fff"/><path fill-rule="evenodd" clip-rule="evenodd" d="M18.98 20.063c.55-.547 1.18-1.027 1.535-1.732.163-.178.164-.481.467-.55.273.069.245-.2.332-.306.136-.169.156.01.226.024a1.602 1.602 0 0 1-.36.565c-.282.235-.436.567-.683.829-.292.164-.331.509-.561.717-.229.11-.362.32-.55.472-.143.115-.283.212-.407-.02zM19.543 19.24c-.76.867-1.638 1.587-2.754 2.008.003-.044-.01-.118.012-.13 1.014-.505 1.836-1.239 2.642-1.995l.1.116z" fill="#fff"/><path fill-rule="evenodd" clip-rule="evenodd" d="M18.98 20.063c.187.133.299.015.442-.095.164-.126.231-.388.514-.358-.485.553-1.075.986-1.708 1.369-.067.042-.142.06-.188-.015-.057-.09.056-.143.075-.219l.865-.683z" fill="#fff"/><path fill-rule="evenodd" clip-rule="evenodd" d="M18.115 20.745c-.012.1-.11.237.113.233-.262.295-.614.463-.967.63l-.09-.267.944-.596zM12.88 23c-.165-.042-.345.043-.538-.064.362-.05.695-.137 1.025-.13.329.005-.019-.168.084-.201l.285.09.138.121c-.32.117-.66.134-.994.184zM19.83 18.229c.061.093.298.181.008.284l-.698.592-.082-.064.772-.812zM20.497 18.893c.185-.308.316-.658.683-.83-.205.294-.35.633-.683.83zM18.623 3.722c.37.097.577.37.753.676l-.753-.676zM16.346 12.815c-.532.004-.831-.315-.832-.811 0-.462.289-.751.777-.772.533-.023.817.265.886.74-.03.527-.302.839-.831.843zm-4.358 4.33c-.522.001-.827-.311-.828-.816-.002-.529.341-.754.885-.78.49.076.8.34.765.856-.032.47-.355.739-.822.74zm-4.382 0c-.533-.011-.805-.341-.802-.842.003-.482.303-.736.791-.746.537-.01.806.291.88.77-.078.493-.337.828-.87.818zm9.426-6.354c-.601-.322-1.19-.239-1.67.19-.508.452-.665 1.04-.31 1.65.172.294.387.542-.026.78-.848.49-1.057 1.772-2.338 1.717-.055-.003-.109-.047-.165-.069-.721-.263-1.296-.061-1.747.514-.541.69-1.392.69-1.938.008-.421-.525-.936-.77-1.652-.552-.681.208-.994.696-1.009 1.295-.014.607.314 1.124.974 1.316.677.197 1.3.036 1.654-.558.238-.402.513-.517.998-.428.46-.151.748.057 1.021.493.35.559.982.685 1.6.5.542-.163.972-.554.938-1.143-.034-.595.274-.95.683-1.311.51-.45.995-.928 1.475-1.409.258-.258.518-.414.926-.424.721-.019 1.165-.431 1.292-1.112.118-.633-.106-1.137-.706-1.457zM16.3 8.498c-.494-.012-.765-.298-.778-.762-.014-.516.297-.774.834-.826.495.06.83.297.81.82-.02.511-.337.781-.865.768zm-4.386 0c-.502-.03-.758-.328-.757-.786 0-.51.3-.782.869-.794.486.064.824.308.781.832-.041.495-.35.779-.893.747zm-4.263 4.317c-.54.023-.826-.294-.846-.793-.019-.472.247-.754.747-.788.543-.037.807.267.925.666-.039.568-.296.894-.826.915zm9.63-6.152c-.652-.538-1.598-.426-2.142.254-.584.728-1.41.74-1.957.014-.308-.409-.73-.574-1.2-.615-.838.024-1.68.765-1.439 1.468.284.83-.218 1.155-.672 1.592-.362.347-.734.685-1.085 1.042-.244.249-.461.362-.86.256-.687-.183-1.243.105-1.58.697-.321.565-.237 1.125.213 1.6.462.487 1.076.544 1.658.299.638-.269 1.03-.837.794-1.476-.228-.622.102-.889.469-1.223.306-.278.604-.564.897-.855.436-.434.805-.884 1.602-.633.405.128.85-.164 1.15-.544.615-.779 1.407-.772 2.037-.007.547.664 1.544.76 2.143.205.607-.563.595-1.563-.028-2.074z" fill="#fff"/><path fill-rule="evenodd" clip-rule="evenodd" d="M7.717 8.514c-.608-.038-.92-.296-.912-.81.007-.451.24-.76.757-.773.531-.015.855.24.886.747.033.522-.318.75-.731.836zm-.04-2.216c-.794-.03-1.532.647-1.534 1.407 0 .73.678 1.373 1.458 1.378.808.006 1.44-.583 1.453-1.352.015-.777-.587-1.402-1.377-1.433zM12.061 12.836c-.597-.043-.89-.327-.9-.822-.008-.465.273-.748.763-.772.53-.026.857.241.883.745.028.513-.317.755-.746.849zm-.088-2.239c-.726.002-1.459.698-1.47 1.398-.013.786.667 1.413 1.511 1.394.823-.02 1.411-.606 1.402-1.395-.007-.739-.69-1.399-1.443-1.396zM16.313 17.13c-.483 0-.782-.292-.804-.76-.025-.513.266-.798.857-.849.457.05.799.284.798.808 0 .521-.336.801-.851.802zm-.012-2.208c-.739.024-1.444.722-1.437 1.423.008.752.658 1.364 1.453 1.368.81.005 1.445-.579 1.465-1.345.02-.776-.694-1.472-1.481-1.446z" fill="#fff"/></svg>