<?xml version="1.0" encoding="UTF-8" standalone="no"?>
<!-- Created with Inkscape (http://www.inkscape.org/) -->

<svg
   xmlns:dc="http://purl.org/dc/elements/1.1/"
   xmlns:cc="http://creativecommons.org/ns#"
   xmlns:rdf="http://www.w3.org/1999/02/22-rdf-syntax-ns#"
   xmlns:svg="http://www.w3.org/2000/svg"
   xmlns="http://www.w3.org/2000/svg"
   xmlns:sodipodi="http://sodipodi.sourceforge.net/DTD/sodipodi-0.dtd"
   xmlns:inkscape="http://www.inkscape.org/namespaces/inkscape"
   width="453.78223"
   height="55.058434"
   viewBox="0 0 120.06321 14.567544"
   version="1.1"
   id="svg8"
   inkscape:version="0.92.3 (2405546, 2018-03-11)"
   sodipodi:docname="logo-progressive.svg">
  <defs
     id="defs2">
    <style
       id="style47">.cls-1{fill:#2480fe;}</style>
  </defs>
  <sodipodi:namedview
     id="base"
     pagecolor="#00ffff"
     bordercolor="#666666"
     borderopacity="1.0"
     inkscape:pageopacity="0"
     inkscape:pageshadow="2"
     inkscape:zoom="1.979899"
     inkscape:cx="201.16189"
     inkscape:cy="60.501376"
     inkscape:document-units="mm"
     inkscape:current-layer="layer1"
     showgrid="false"
     units="px"
     fit-margin-top="0.5"
     fit-margin-left="0.5"
     fit-margin-bottom="0.5"
     fit-margin-right="0.5"
     inkscape:window-width="1920"
     inkscape:window-height="1001"
     inkscape:window-x="-9"
     inkscape:window-y="-9"
     inkscape:window-maximized="1" />
  <metadata
     id="metadata5">
    <rdf:RDF>
      <cc:Work
         rdf:about="">
        <dc:format>image/svg+xml</dc:format>
        <dc:type
           rdf:resource="http://purl.org/dc/dcmitype/StillImage" />
        <dc:title></dc:title>
      </cc:Work>
    </rdf:RDF>
  </metadata>
  <g
     inkscape:label="Layer 1"
     inkscape:groupmode="layer"
     id="layer1"
     transform="translate(-66.21244,-137.76981)">
    <g
       id="g98"
       transform="matrix(0.2625896,0,0,0.2625896,66.344732,137.90353)">
      <path
         id="path53"
         transform="translate(-1.27,-1)"
         d="m 222.81,30.52 c 4.9,-0.51 8.41,-2.82 10.39,-6.92 1.62,-3.34 4.12,-8.75 4.14,-8.81 2.48,-5.12 1.72,-8.25 0.64,-10 -1.62,-2.59 -4.79,-3.51 -7.2,-3.51 h -24.55 l -25.41,54 h 12.76 l 9.73,-21.21 h 6.84 a 3.87,3.87 0 0 1 2.9,1.59 c 0.82,1.36 0.6,3.44 -0.69,6.18 -3.08,6.61 -5.53,13.46 -5.53,13.46 h 12.94 a 29,29 0 0 1 1.57,-5.22 c 1,-2.36 4,-9.82 4,-9.89 2.47,-6.05 -0.59,-8.47 -2.53,-9.67 z m -1.35,-8.91 c -1.08,2.28 -2.74,3.44 -4.95,3.44 h -8.9 l 6.75,-14.7 h 9.74 a 1.75,1.75 0 0 1 1.32,0.7 c 0.39,0.64 0.25,1.71 -0.4,3.1 l -2.23,4.68 z"
         class="cls-1"
         inkscape:connector-curvature="0"
         style="fill:#2480fe" />
      <path
         id="path55"
         transform="translate(-1.27,-1)"
         d="M 86.61,30.52 C 91.51,30 95,27.69 97,23.59 c 1.62,-3.34 4.12,-8.75 4.15,-8.81 2.48,-5.12 1.72,-8.25 0.64,-10 C 100.17,2.23 97,1.31 94.58,1.31 H 70 l -25.41,54 H 57.38 L 67.11,34.1 h 6.85 a 3.87,3.87 0 0 1 2.9,1.59 c 0.83,1.36 0.6,3.44 -0.69,6.18 -3.08,6.61 -5.53,13.46 -5.53,13.46 h 12.94 a 28.74,28.74 0 0 1 1.56,-5.22 c 1,-2.36 4,-9.82 4,-9.89 2.48,-6.08 -0.59,-8.5 -2.53,-9.7 z M 85.26,21.6 C 84.18,23.89 82.52,25 80.32,25 h -8.9 l 6.94,-14.7 h 9.54 a 1.75,1.75 0 0 1 1.32,0.7 c 0.39,0.64 0.25,1.71 -0.4,3.1 l -2.23,4.68 z"
         class="cls-1"
         inkscape:connector-curvature="0"
         style="fill:#2480fe" />
      <path
         id="path57"
         transform="translate(-1.27,-1)"
         d="M 146.53,14.74 C 151,5.16 145.94,1 139.5,1 H 124 c -6.52,0 -11.12,3.08 -14.08,9.41 -1.59,3.4 -4.24,9 -7.31,15.39 l -6.48,13.66 c -6.51,13.7 3.23,16 8,16 h 9.79 c 9.81,0.1 14.64,-2.67 18.43,-10.57 2.54,-5.28 6.06,-12.82 9.8,-20.81 z m -12.73,-1.52 -13,27.69 c -1.81,3.82 -3,4.47 -5.81,4.47 h -5.62 c -1,0 -3,-0.27 -1.5,-3.54 2.18,-4.7 11.32,-24.4 13.19,-28.36 1.27,-2.7 2.59,-3.24 4.31,-3.24 h 7 c 1.33,-0.06 2.52,0.67 1.43,2.98 z"
         class="cls-1"
         inkscape:connector-curvature="0"
         style="fill:#2480fe" />
      <path
         id="path59"
         transform="translate(-1.27,-1)"
         d="m 167.79,25.33 -4.24,9 h 6.72 l -3.78,8.17 c -1.1,2.37 -1.85,2.85 -4.44,2.85 h -6.68 c -2,0 -2.7,-1 -1.5,-3.54 1.52,-3.22 13.52,-28.28 13.52,-28.28 1.36,-2.85 2.17,-3.28 4.27,-3.28 h 6.9 c 1.67,0 2.57,0.77 1.45,3 -0.25,0.49 -3,6.5 -3,6.5 l 12.17,0.09 2.77,-5.95 C 196,5.19 192.38,1.12 184,1 h -13.22 a 16,16 0 0 0 -15,9.41 C 153.37,15.54 142,39.46 142,39.46 c -4.16,8.75 -1.75,16 9.63,16 h 10.16 c 8.12,0.08 12.11,-1.19 15.82,-9.31 l 9.47,-20.75 z"
         class="cls-1"
         inkscape:connector-curvature="0"
         style="fill:#2480fe" />
      <polygon
         id="polygon61"
         points="349.96,0.14 324.52,54.22 337.63,54.22 363.23,0.14 "
         class="cls-1"
         style="fill:#2480fe" />
      <polygon
         id="polygon63"
         points="366.04,47.79 381.06,0.15 367.31,0.15 354.71,54.22 372.45,54.22 409.52,0.15 395.73,0.15 "
         class="cls-1"
         style="fill:#2480fe" />
      <path
         id="path65"
         transform="translate(-1.27,-1)"
         d="m 295.45,36.46 -1.1,-20 c -0.13,-2.41 0.46,-5.68 4.87,-5.68 h 8.86 l 4.55,-9.64 h -15.1 c -12,0 -16,7.31 -15.57,15.9 0.28,5.25 1,22.33 1,22.33 0.18,4.12 -1.4,6 -5.25,6 h -10.1 l -4.53,9.81 h 16.1 c 10.68,0.06 16.97,-6.91 16.27,-18.72 z"
         class="cls-1"
         inkscape:connector-curvature="0"
         style="fill:#2480fe" />
      <path
         id="path67"
         transform="translate(-1.27,-1)"
         d="m 324.54,16.48 c -0.13,-2.41 0.46,-5.68 4.87,-5.68 h 8.86 l 4.55,-9.64 h -15.1 c -9.92,0 -16.14,5.42 -15.57,15.9 0.29,5.25 1,22.33 1,22.33 0.19,4.12 -1.39,6 -5.25,6 h -9.84 l -4.53,9.81 h 15.84 c 11.74,0 16.88,-8.4 16.26,-18.78 z"
         class="cls-1"
         inkscape:connector-curvature="0"
         style="fill:#2480fe" />
      <path
         id="path69"
         transform="translate(-1.27,-1)"
         d="m 250.43,31.05 h 16.41 l 4.21,-9 h -16.47 l 5.24,-11.22 h 17 c 0,0 4.46,-9.59 4.46,-9.59 h -29.62 l -25.27,54 h 32 L 263,45.45 h -19.41 z"
         class="cls-1"
         inkscape:connector-curvature="0"
         style="fill:#2480fe" />
      <path
         id="path71"
         transform="translate(-1.27,-1)"
         d="m 389.88,55.23 h 32 l 4.65,-9.78 h -19.45 l 6.84,-14.4 h 16.41 l 4.21,-9 h -16.47 l 5.24,-11.22 h 17 c 0,0 4.45,-9.59 4.45,-9.59 h -29.61 z"
         class="cls-1"
         inkscape:connector-curvature="0"
         style="fill:#2480fe" />
      <path
         id="path73"
         transform="translate(-1.27,-1)"
         d="M 51.7,27.13 C 52.77,24.92 54.89,20.34 57.3,15.02 61.53,5.66 56.3,1.33 50.75,1.31 H 26.47 L 1.27,55.39 h 13.1 l 8.8,-18.94 c 0,0 7.4,0 12.76,0 C 44.1,36.51 48.37,34 51.7,27.13 Z M 44.94,14.59 c -2.36,5 -4.16,8.74 -4.36,9.15 C 39.52,26 38,27 35.71,27 h -8.22 l 7.77,-16.83 h 8.24 c 1.81,0.01 3.1,0.92 1.44,4.42 z"
         class="cls-1"
         inkscape:connector-curvature="0"
         style="fill:#2480fe" />
      <path
         id="path75"
         transform="translate(-1.27,-1)"
         d="M 455.35,4.91 A 1.2,1.2 0 0 0 454.8,3.85 2.28,2.28 0 0 0 453.6,3.61 h -2.14 v 4.92 h 0.6 V 6.26 h 1.1 l 1.41,2.27 h 0.71 L 453.8,6.26 c 0.87,-0.02 1.55,-0.38 1.55,-1.35 z M 453,5.79 h -0.92 V 4 h 1.41 c 0.61,0 1.28,0.09 1.28,0.85 -0.03,1.05 -1.1,0.94 -1.77,0.94 z"
         class="cls-1"
         inkscape:connector-curvature="0"
         style="fill:#2480fe" />
      <path
         id="path77"
         transform="translate(-1.27,-1)"
         d="m 453.1,1.67 a 4.4,4.4 0 1 0 4.39,4.39 4.4,4.4 0 0 0 -4.39,-4.39 z m 0,8.27 a 3.87,3.87 0 1 1 3.9,-3.87 3.87,3.87 0 0 1 -3.9,3.88 z"
         class="cls-1"
         inkscape:connector-curvature="0"
         style="fill:#2480fe" />
    </g>
  </g>
</svg>
