<svg id="Layer_1" data-name="Layer 1" xmlns="http://www.w3.org/2000/svg" viewBox="0 0 60 60"><defs><style>.cls-1{fill:#323e48;}.cls-2{fill:#1ed65f;}.cls-3{fill:#89ee46;}</style></defs><path class="cls-1" d="M6.6,28.79a3.33,3.33,0,0,0-.67.06,2.08,2.08,0,0,0-.47.13,1.05,1.05,0,0,0-.3.14l-.14.1v5.47H4.16V28.83l.2-.15a2.35,2.35,0,0,1,.47-.27,4.3,4.3,0,0,1,.74-.24,3.89,3.89,0,0,1,1-.11,4.29,4.29,0,0,1,1,.08,1.42,1.42,0,0,1,.48.19.42.42,0,0,1,.21.37.58.58,0,0,1-.06.26,1.47,1.47,0,0,1-.13.17,2.33,2.33,0,0,0-.53-.23A3.62,3.62,0,0,0,6.6,28.79Z"/><path class="cls-1" d="M9.61,32a2.43,2.43,0,0,0,.75,1.63,2.65,2.65,0,0,0,1.72.51,3.43,3.43,0,0,0,1.15-.18A3.19,3.19,0,0,0,14,33.6l.35.64a2,2,0,0,1-.32.18,2.94,2.94,0,0,1-.52.21,5,5,0,0,1-.69.17,4.35,4.35,0,0,1-.83.07,3.88,3.88,0,0,1-1.29-.21A2.92,2.92,0,0,1,9.62,34a2.89,2.89,0,0,1-.7-1,3.41,3.41,0,0,1-.26-1.41,3.92,3.92,0,0,1,.25-1.44,3.38,3.38,0,0,1,.7-1.12,3,3,0,0,1,1.06-.73A3.24,3.24,0,0,1,12,28.06a2.85,2.85,0,0,1,2,.64,2.3,2.3,0,0,1,.69,1.78,1.48,1.48,0,0,1-.37,1.09,1.61,1.61,0,0,1-1.21.39Zm3.16-.69a1.56,1.56,0,0,0,.8-.17.78.78,0,0,0,.28-.72,2.1,2.1,0,0,0-.09-.61,1.3,1.3,0,0,0-.32-.51,1.47,1.47,0,0,0-.57-.36,2.48,2.48,0,0,0-.87-.14A2.25,2.25,0,0,0,11,29a2.36,2.36,0,0,0-.74.58,2.56,2.56,0,0,0-.47.8,3.18,3.18,0,0,0-.17.91Z"/><path class="cls-1" d="M15.66,29.43l-.15-.38a1,1,0,0,1-.1-.38.49.49,0,0,1,.11-.31.43.43,0,0,1,.34-.12l.23,0,.11,0c.19.53.4,1.05.62,1.58s.46,1,.69,1.52l.66,1.38.56,1.15c.17-.31.35-.7.57-1.15s.43-.93.65-1.43l.65-1.49.55-1.33a.46.46,0,0,1,.13-.19.39.39,0,0,1,.31-.1.61.61,0,0,1,.32.08l.15.11a7.91,7.91,0,0,1-.28.79l-.43,1c-.16.37-.34.77-.53,1.17s-.38.81-.58,1.21-.37.76-.56,1.12-.34.67-.49.94h-1c-.2-.37-.42-.8-.67-1.29s-.51-1-.75-1.48-.47-1-.67-1.41S15.77,29.71,15.66,29.43Z"/><path class="cls-1" d="M23.46,32a2.43,2.43,0,0,0,.75,1.63,2.65,2.65,0,0,0,1.72.51,3.43,3.43,0,0,0,1.15-.18,3.19,3.19,0,0,0,.74-.32l.36.64a2.61,2.61,0,0,1-.32.18,3.44,3.44,0,0,1-.53.21,5,5,0,0,1-.69.17,4.28,4.28,0,0,1-.83.07,3.88,3.88,0,0,1-1.29-.21A2.91,2.91,0,0,1,22.77,33a3.58,3.58,0,0,1-.26-1.41,3.92,3.92,0,0,1,.25-1.44,3.55,3.55,0,0,1,.7-1.12,3,3,0,0,1,1.06-.73,3.24,3.24,0,0,1,1.32-.26,2.85,2.85,0,0,1,2,.64,2.3,2.3,0,0,1,.69,1.78,1.48,1.48,0,0,1-.37,1.09A1.61,1.61,0,0,1,27,32Zm3.16-.69a1.63,1.63,0,0,0,.81-.17.8.8,0,0,0,.28-.72,2.11,2.11,0,0,0-.1-.61,1.3,1.3,0,0,0-.32-.51,1.47,1.47,0,0,0-.57-.36,2.48,2.48,0,0,0-.87-.14,2.25,2.25,0,0,0-1,.22,2.44,2.44,0,0,0-1.2,1.38,2.89,2.89,0,0,0-.18.91Z"/><path class="cls-1" d="M35,34.69V31.08a2.43,2.43,0,0,0-.54-1.69,2.28,2.28,0,0,0-1.75-.59,3.89,3.89,0,0,0-.71.05,5.26,5.26,0,0,0-.56.1,2.3,2.3,0,0,0-.37.12l-.18.07v5.55h-.86V28.56a2.13,2.13,0,0,0,.25-.09,4.29,4.29,0,0,1,.59-.18c.24-.06.53-.11.86-.16a7.31,7.31,0,0,1,1.09-.07,3.87,3.87,0,0,1,1.28.19,2.66,2.66,0,0,1,1,.55,2.31,2.31,0,0,1,.6.84,2.59,2.59,0,0,1,.21,1.05v4Z"/><path class="cls-1" d="M38.36,32a2.43,2.43,0,0,0,.75,1.63,2.65,2.65,0,0,0,1.72.51A3.43,3.43,0,0,0,42,33.92a3.53,3.53,0,0,0,.75-.32l.35.64a2.61,2.61,0,0,1-.32.18,3.74,3.74,0,0,1-.52.21,5.53,5.53,0,0,1-.7.17,4.28,4.28,0,0,1-.83.07,3.88,3.88,0,0,1-1.29-.21,2.8,2.8,0,0,1-1-.62,2.92,2.92,0,0,1-.71-1,3.58,3.58,0,0,1-.26-1.41,3.93,3.93,0,0,1,.26-1.44,3.35,3.35,0,0,1,.69-1.12,3,3,0,0,1,1.06-.73,3.24,3.24,0,0,1,1.32-.26,2.85,2.85,0,0,1,2,.64,2.27,2.27,0,0,1,.7,1.78,1.49,1.49,0,0,1-.38,1.09,1.59,1.59,0,0,1-1.2.39Zm3.16-.69a1.63,1.63,0,0,0,.81-.17.8.8,0,0,0,.28-.72,2.11,2.11,0,0,0-.1-.61,1.4,1.4,0,0,0-.31-.51,1.59,1.59,0,0,0-.58-.36,2.48,2.48,0,0,0-.87-.14,2.25,2.25,0,0,0-1,.22,2.36,2.36,0,0,0-.74.58,2.53,2.53,0,0,0-.46.8,2.89,2.89,0,0,0-.18.91Z"/><path class="cls-1" d="M47.39,28.79a3.23,3.23,0,0,0-.66.06,2.35,2.35,0,0,0-.48.13,1.05,1.05,0,0,0-.3.14l-.14.1v5.47H45V28.83l.2-.15a2.68,2.68,0,0,1,.47-.27,4.75,4.75,0,0,1,.75-.24,3.86,3.86,0,0,1,1-.11,4.39,4.39,0,0,1,1,.08,1.63,1.63,0,0,1,.48.19.42.42,0,0,1,.21.37A.48.48,0,0,1,49,29a.59.59,0,0,1-.13.17,2.14,2.14,0,0,0-.53-.23A3.62,3.62,0,0,0,47.39,28.79Z"/><path class="cls-1" d="M52.17,28.77A3,3,0,0,0,51,29a2.28,2.28,0,0,0-.58.35.51.51,0,0,1-.16-.19.5.5,0,0,1-.07-.27.43.43,0,0,1,.07-.25.58.58,0,0,1,.17-.18,1.71,1.71,0,0,1,.53-.23,4.81,4.81,0,0,1,3.51.51,2.48,2.48,0,0,1,.79,2.06v3.9c-.25.05-.59.09-1,.14a15.59,15.59,0,0,1-1.7.07,5.33,5.33,0,0,1-1.6-.19,2.36,2.36,0,0,1-.91-.5,1.34,1.34,0,0,1-.4-.67,3.1,3.1,0,0,1-.09-.73,2.53,2.53,0,0,1,.13-.83,1.67,1.67,0,0,1,.47-.69,2.38,2.38,0,0,1,.9-.46,5.62,5.62,0,0,1,1.42-.16h.59l.56,0,.47,0h.33v0a1.88,1.88,0,0,0-.53-1.43A2.5,2.5,0,0,0,52.17,28.77Zm2.26,2.69-.27,0-.45,0-.57,0h-.58a3.3,3.3,0,0,0-1.56.31,1.16,1.16,0,0,0-.57,1.12,1.26,1.26,0,0,0,.47,1.06,2.89,2.89,0,0,0,1.68.35,10,10,0,0,0,1.27-.06l.58-.12Z"/><path class="cls-1" d="M56.55,33.83h-.29v.86h-.13v-.86h-.29v-.12h.71Z"/><path class="cls-1" d="M57.7,34.69h-.13v-.81l-.32.81h-.09l-.31-.81v.81h-.13v-1h.2l.29.77.29-.77h.2Z"/><path class="cls-2" d="M37.31,24.6a5.42,5.42,0,0,0-.53,2.33v2.43a4.69,4.69,0,0,1,.73-1,4.42,4.42,0,0,1,1.49-1,4.71,4.71,0,0,1,1.83-.37h.1A4.82,4.82,0,0,0,37.31,24.6Z"/><path class="cls-3" d="M36.24,24.6a5.37,5.37,0,0,1,.54,2.33v2.4l0,0a5,5,0,0,0-.72-1,4.47,4.47,0,0,0-1.5-1,4.71,4.71,0,0,0-1.83-.37h-.1A4.84,4.84,0,0,1,36.24,24.6Z"/></svg>