<svg xmlns="http://www.w3.org/2000/svg" id="a" viewBox="0 0 27.87 36"><path d="M26.11,6.69c-6.98,0-12.66,6.57-12.66,14.65s5.68,14.65,12.66,14.65c.11,0,.13,0,.13,0l.43-.03,.03-.44v-3.4h-.6c-5.07,0-9.2-4.83-9.2-10.77s4.12-10.78,9.2-10.78l1.72,.15,.03-.51v-3.4l-1.75-.11Z" style="fill:#2a6bc7;"></path><path d="M1.78,6.69l-1.33,.08-.44,.03,.03,.44v3.48l1.75-.15c5.07,0,9.2,4.84,9.2,10.78s-4.13,10.78-9.2,10.78c-.02,0-.62-.05-.62-.05l.02,.51v3.37l.6,.04c6.98,0,12.66-6.57,12.66-14.65S8.76,6.69,1.78,6.69Z" style="fill:#2a6bc7;"></path><path d="M14,0c-2.19,0-3.98,1.78-3.98,3.98s1.79,3.98,3.98,3.98,3.98-1.78,3.98-3.98-1.78-3.98-3.98-3.98Z" style="fill:#f80;"></path></svg>