<svg width="373" height="215" viewBox="0 0 373 215" fill="none" xmlns="http://www.w3.org/2000/svg">
<path d="M221.07 198.142C220.672 196.162 220.358 193.9 220.13 191.355C219.902 188.81 219.788 185.756 219.788 182.193C219.788 178.573 219.988 175.179 220.387 172.012C220.843 168.788 221.441 166.073 222.182 163.868C222.922 161.605 223.92 159.682 225.173 158.099C226.427 156.515 227.681 155.271 228.934 154.366C230.245 153.461 231.841 152.754 233.721 152.245C236.684 151.397 239.79 150.973 243.038 150.973C246.343 150.973 248.737 151.029 250.218 151.142C251.757 151.255 253.352 151.51 255.005 151.906C256.715 152.245 258.168 152.754 259.364 153.433C260.561 154.112 261.758 154.988 262.954 156.063C264.208 157.081 265.234 158.41 266.031 160.05C266.829 161.634 267.542 163.472 268.168 165.564C269.422 169.75 270.049 174.642 270.049 180.241C270.049 185.841 269.821 190.167 269.365 193.221C268.966 196.219 268.425 198.821 267.741 201.026C267.057 203.176 266.117 205.042 264.92 206.626C263.781 208.153 262.555 209.397 261.245 210.358C259.991 211.263 258.453 211.97 256.629 212.479C252.412 213.724 246.856 214.12 239.961 213.667C236.428 213.497 233.864 213.073 232.268 212.395C230.672 211.716 229.276 211.009 228.08 210.274C226.94 209.482 225.971 208.549 225.173 207.474C224.376 206.343 223.606 205.014 222.865 203.487C222.125 201.903 221.526 200.121 221.07 198.142ZM232.695 170.146C232.41 171.616 232.183 173.398 232.012 175.49C231.841 177.583 231.755 180.213 231.755 183.38C231.755 186.548 231.869 189.262 232.097 191.525C232.325 193.73 232.695 195.625 233.208 197.209C233.778 198.792 234.604 199.98 235.687 200.772C237.625 202.186 240.702 202.893 244.919 202.893C248.908 202.893 251.899 202.157 253.894 200.687C256.686 198.594 258.082 192.656 258.082 182.871C258.082 176.254 257.712 171.871 256.971 169.722C256.287 167.572 255.632 166.045 255.005 165.14C254.435 164.235 253.609 163.528 252.526 163.019C250.76 162.284 248.68 161.916 246.286 161.916C243.893 161.916 242.212 161.973 241.243 162.086C240.331 162.143 239.334 162.312 238.251 162.595C237.226 162.878 236.399 163.33 235.773 163.953C235.203 164.518 234.604 165.31 233.978 166.328C233.408 167.346 232.98 168.619 232.695 170.146Z" fill="url(#paint0_linear_15_5342)"/>
<path d="M277.218 172.267V166.922C277.218 160.983 278.842 156.77 282.091 154.281C285.054 152.075 289.071 150.944 294.143 150.888C294.827 150.888 296.251 150.888 298.417 150.888C300.639 150.888 303.859 151.114 308.076 151.566C312.35 152.019 315.769 152.613 318.333 153.348V162.68C311.837 162.114 306.651 161.832 302.776 161.832C298.958 161.832 296.907 161.832 296.622 161.832C294.057 161.832 292.177 162.171 290.98 162.85C289.784 163.528 289.185 165.197 289.185 167.855V170.909C289.185 173.285 289.67 174.868 290.638 175.66C291.607 176.452 293.345 176.848 295.852 176.848H305.768C312.264 176.848 316.623 179.421 318.846 184.568C319.986 187.17 320.555 190.082 320.555 193.306V197.463C320.555 205.042 318.02 209.991 312.948 212.31C310.327 213.554 307.107 214.176 303.289 214.176C292.975 214.176 284.911 213.328 279.099 211.631V202.299C285.367 202.921 290.838 203.232 295.511 203.232C300.183 203.232 302.89 203.176 303.631 203.062C304.429 202.949 305.226 202.723 306.024 202.384C307.734 201.649 308.589 200.15 308.589 197.887V194.579C308.589 191.638 307.648 189.828 305.768 189.149C305.027 188.866 304.087 188.725 302.947 188.725H293.374C282.603 188.725 277.218 183.239 277.218 172.267Z" fill="url(#paint1_linear_15_5342)"/>
<path d="M327.637 172.267V166.922C327.637 160.983 329.261 156.77 332.509 154.281C335.472 152.075 339.489 150.944 344.561 150.888C345.245 150.888 346.67 150.888 348.835 150.888C351.057 150.888 354.277 151.114 358.494 151.566C362.768 152.019 366.187 152.613 368.751 153.348V162.68C362.255 162.114 357.069 161.832 353.194 161.832C349.376 161.832 347.325 161.832 347.04 161.832C344.476 161.832 342.595 162.171 341.399 162.85C340.202 163.528 339.604 165.197 339.604 167.855V170.909C339.604 173.285 340.088 174.868 341.057 175.66C342.025 176.452 343.763 176.848 346.271 176.848H356.186C362.682 176.848 367.042 179.421 369.264 184.568C370.404 187.17 370.974 190.082 370.974 193.306V197.463C370.974 205.042 368.438 209.991 363.366 212.31C360.745 213.554 357.525 214.176 353.707 214.176C343.393 214.176 335.33 213.328 329.517 211.631V202.299C335.785 202.921 341.256 203.232 345.929 203.232C350.602 203.232 353.308 203.176 354.049 203.062C354.847 202.949 355.645 202.723 356.442 202.384C358.152 201.649 359.007 200.15 359.007 197.887V194.579C359.007 191.638 358.067 189.828 356.186 189.149C355.445 188.866 354.505 188.725 353.365 188.725H343.792C333.022 188.725 327.637 183.239 327.637 172.267Z" fill="url(#paint2_linear_15_5342)"/>
<path d="M1.14087 172.304V166.96C1.14087 161.021 2.76493 156.808 6.01307 154.319C8.97628 152.113 12.9937 150.982 18.0654 150.926C18.7492 150.926 20.1738 150.926 22.3393 150.926C24.5617 150.926 27.7813 151.152 31.9982 151.604C36.272 152.057 39.6911 152.651 42.2554 153.386V162.718C35.7592 162.152 30.5736 161.869 26.6986 161.869C22.8806 161.869 20.8291 161.869 20.5442 161.869C17.9799 161.869 16.0994 162.209 14.9027 162.888C13.706 163.566 13.1077 165.235 13.1077 167.893V170.947C13.1077 173.323 13.5921 174.906 14.5608 175.698C15.5296 176.49 17.2676 176.886 19.7749 176.886H29.6903C36.1866 176.886 40.5459 179.459 42.7683 184.606C43.908 187.207 44.4779 190.12 44.4779 193.344V197.501C44.4779 205.08 41.9421 210.029 36.8704 212.348C34.2491 213.592 31.0294 214.214 27.2115 214.214C16.8972 214.214 8.83385 213.366 3.02139 211.669V202.337C9.28972 202.959 14.7603 203.27 19.433 203.27C24.1058 203.27 26.8125 203.213 27.5534 203.1C28.3511 202.987 29.1489 202.761 29.9467 202.422C31.6563 201.686 32.5111 200.188 32.5111 197.925V194.617C32.5111 191.676 31.5708 189.866 29.6903 189.187C28.9495 188.904 28.0092 188.763 26.8695 188.763H17.2961C6.52595 188.763 1.14087 183.277 1.14087 172.304Z" fill="#1E293B"/>
<path d="M55.1492 159.07C57.4286 155.337 60.5912 152.877 64.6371 151.689C66.8596 151.067 69.3669 150.756 72.1591 150.756C80.308 150.756 87.5736 151.689 93.9559 153.555V162.888C93.9559 162.888 93.7279 162.859 93.272 162.803C92.8731 162.746 92.3033 162.69 91.5625 162.633C90.8787 162.576 90.0524 162.52 89.0836 162.463C88.1149 162.35 87.0322 162.265 85.8355 162.209C84.6958 162.096 83.5561 162.011 82.4164 161.954C79.7381 161.785 77.3448 161.7 75.2363 161.7C73.1279 161.7 71.4753 161.841 70.2786 162.124C69.1389 162.35 68.0278 162.859 66.9451 163.651C65.8623 164.386 65.0645 165.517 64.5517 167.045C63.412 170.325 62.8421 175.557 62.8421 182.739C62.8421 189.922 63.6684 195.126 65.321 198.349C67.0305 201.517 70.2502 203.1 74.9799 203.1C80.3365 203.1 85.75 202.931 91.2206 202.591L93.9559 202.422V211.669C88.8272 213.252 82.217 214.044 74.1251 214.044C73.4983 214.044 72.843 214.044 72.1591 214.044C64.5232 213.988 59.0526 211.273 55.7475 205.9C52.4994 200.527 50.8753 192.552 50.8753 181.976C50.8753 171.343 52.2999 163.708 55.1492 159.07Z" fill="#1E293B"/>
<path d="M98.9403 213.535L120.053 151.435H133.644L153.988 213.535H141.252L136.807 199.792H116.292L111.762 213.535H98.9403ZM119.455 189.272H133.986L126.977 167.045L119.455 189.272Z" fill="#1E293B"/>
<path d="M160.348 213.535V151.435H172.485L197.274 191.562V151.435H209.241V213.535H197.274L172.4 173.832V213.535H160.348Z" fill="#1E293B"/>
<path d="M152.638 53.3032H168.604C170.342 49.5397 173.324 46.4793 177.056 44.63C180.788 42.7807 185.045 42.2537 189.12 43.1365C193.196 44.0193 196.844 46.2588 199.46 49.4833C202.077 52.7077 203.503 56.7232 203.503 60.8632C203.503 65.0032 202.077 69.0187 199.46 72.2431C196.844 75.4676 193.196 77.7071 189.12 78.5899C185.045 79.4727 180.788 78.9457 177.056 77.0964C173.324 75.2471 170.342 72.1868 168.604 68.4233H152.638C154.508 76.3729 159.257 83.3628 165.982 88.0623C172.708 92.7617 180.939 94.8427 189.11 93.9089C197.281 92.9751 204.821 89.0918 210.294 82.9983C215.767 76.9048 218.791 69.0265 218.791 60.8632C218.791 52.6999 215.767 44.8216 210.294 38.7281C204.821 32.6346 197.281 28.7513 189.11 27.8176C180.939 26.8838 172.708 28.9647 165.982 33.6642C159.257 38.3636 154.508 45.3535 152.638 53.3032Z" fill="#1E293B"/>
<path fill-rule="evenodd" clip-rule="evenodd" d="M185.666 14.7016C160.013 14.7016 139.217 35.3418 139.217 60.8027C139.217 86.2637 160.013 106.904 185.666 106.904C211.319 106.904 232.115 86.2637 232.115 60.8027C232.115 35.3418 211.319 14.7016 185.666 14.7016ZM124.867 60.8027C124.867 27.4758 152.087 0.458984 185.666 0.458984C219.244 0.458984 246.465 27.4758 246.465 60.8027C246.465 94.1297 219.244 121.146 185.666 121.146C152.087 121.146 124.867 94.1297 124.867 60.8027Z" fill="#1E293B"/>
<path d="M185.212 68.1331C189.065 68.1331 192.188 65.0885 192.188 61.3327C192.188 57.5769 189.065 54.5322 185.212 54.5322C181.36 54.5322 178.237 57.5769 178.237 61.3327C178.237 65.0885 181.36 68.1331 185.212 68.1331Z" fill="url(#paint3_linear_15_5342)"/>
<defs>
<linearGradient id="paint0_linear_15_5342" x1="377.435" y1="150.888" x2="296.221" y2="271.558" gradientUnits="userSpaceOnUse">
<stop stop-color="#6366F1"/>
<stop offset="1" stop-color="#863DFF"/>
</linearGradient>
<linearGradient id="paint1_linear_15_5342" x1="377.435" y1="150.888" x2="296.221" y2="271.558" gradientUnits="userSpaceOnUse">
<stop stop-color="#6366F1"/>
<stop offset="1" stop-color="#863DFF"/>
</linearGradient>
<linearGradient id="paint2_linear_15_5342" x1="377.435" y1="150.888" x2="296.221" y2="271.558" gradientUnits="userSpaceOnUse">
<stop stop-color="#6366F1"/>
<stop offset="1" stop-color="#863DFF"/>
</linearGradient>
<linearGradient id="paint3_linear_15_5342" x1="192.784" y1="54.5322" x2="175.699" y2="65.4318" gradientUnits="userSpaceOnUse">
<stop stop-color="#6366F1"/>
<stop offset="1" stop-color="#863DFF"/>
</linearGradient>
</defs>
</svg>
