<?xml version="1.0" encoding="UTF-8"?>
<svg id="Layer_1" data-name="Layer 1" xmlns="http://www.w3.org/2000/svg" viewBox="0 0 1584 362">
  <defs>
    <style>
      .cls-1 {
        fill: #2bb5e9;
        fill-rule: evenodd;
        stroke-width: 0px;
      }
    </style>
  </defs>
  <path class="cls-1" d="M1562.63,107.07h-4.18v5.15h4.18c1.94,0,3.21-.87,3.21-2.53,0-1.75-1.17-2.62-3.21-2.62ZM1553.3,102.31h9.42c5.15,0,8.55,2.82,8.55,7.19,0,2.72-1.36,4.76-3.4,6.02l3.69,5.34v1.07h-5.34l-3.59-5.15h-4.18v5.15h-5.15v-19.62ZM1579.63,112.51c0-10.49-6.99-18.46-17.68-18.46s-17.49,7.58-17.49,18.46,6.99,18.46,17.49,18.46,17.68-7.97,17.68-18.46ZM1584,112.51c0,12.34-8.26,22.63-22.05,22.63s-21.86-10.39-21.86-22.63,8.16-22.63,21.86-22.63,22.05,10.3,22.05,22.63ZM348.21,156.4l-42.55,24.61,42.55,24.54c10.75,6.22,14.42,19.9,8.21,30.67-6.2,10.7-19.92,14.37-30.63,8.18l-76.21-44c-5.08-2.96-8.61-7.59-10.18-12.8-.74-2.4-1.09-4.87-1-7.31.04-1.76.3-3.53.79-5.29,1.52-5.48,5.1-10.38,10.39-13.46l76.21-43.97c10.71-6.19,24.43-2.51,30.63,8.22,6.22,10.72,2.54,24.41-8.21,30.61ZM307.93,275.68l-76.19-43.94c-4.09-2.38-8.63-3.3-12.99-2.93-11.62.83-20.75,10.53-20.75,22.34v87.98c0,12.4,10,22.45,22.42,22.45s22.45-10.05,22.45-22.45v-49.21l42.66,24.63c10.72,6.23,24.43,2.54,30.61-8.17,6.17-10.74,2.53-24.5-8.21-30.7ZM220.01,189.61l-31.67,31.63c-.91.93-2.65,1.69-3.98,1.69h-9.31c-1.28,0-3.06-.76-3.98-1.69l-31.66-31.63c-.91-.89-1.64-2.68-1.64-3.94v-9.33c0-1.29.73-3.09,1.64-3.99l31.66-31.63c.92-.93,2.7-1.66,3.98-1.66h9.31c1.29,0,3.07.73,3.98,1.66l31.67,31.63c.9.9,1.63,2.7,1.63,3.99v9.33c0,1.26-.73,3.05-1.63,3.94ZM194.7,180.83c0-1.28-.77-3.06-1.68-4l-9.17-9.13c-.9-.9-2.68-1.65-3.96-1.65h-.36c-1.28,0-3.05.75-3.94,1.65l-9.17,9.13c-.92.95-1.62,2.73-1.62,4v.36c0,1.26.7,3.03,1.62,3.95l9.17,9.16c.9.9,2.67,1.65,3.94,1.65h.36c1.28,0,3.06-.75,3.96-1.65l9.17-9.16c.9-.92,1.68-2.68,1.68-3.95v-.36ZM51.48,86.28l76.21,43.99c4.09,2.35,8.64,3.29,13.01,2.93,11.6-.86,20.75-10.58,20.75-22.37V22.84c0-12.37-10.06-22.41-22.42-22.41s-22.45,10.05-22.45,22.41v49.23l-42.7-24.66c-10.71-6.2-24.4-2.53-30.61,8.2-6.19,10.76-2.53,24.47,8.2,30.67ZM218.75,133.19c4.36.36,8.9-.57,12.99-2.93l76.19-43.99c10.74-6.2,14.38-19.91,8.21-30.67-6.18-10.72-19.89-14.4-30.61-8.2l-42.66,24.66V22.84c0-12.37-10.03-22.41-22.45-22.41s-22.42,10.05-22.42,22.41v87.98c0,11.8,9.13,21.51,20.75,22.37ZM140.71,228.8c-4.38-.37-8.92.54-13.01,2.93l-76.21,43.94c-10.72,6.2-14.38,19.96-8.2,30.7,6.22,10.71,19.91,14.4,30.61,8.17l42.7-24.63v49.21c0,12.4,10.03,22.45,22.45,22.45s22.42-10.05,22.42-22.45v-87.98c0-11.81-9.16-21.51-20.75-22.34ZM120.04,187.6c.76-2.4,1.08-4.87,1.02-7.31-.09-1.76-.32-3.53-.82-5.29-1.51-5.48-5.08-10.38-10.44-13.46l-76.15-43.97c-10.75-6.19-24.45-2.51-30.63,8.22-6.23,10.72-2.55,24.41,8.2,30.61l42.55,24.61-42.55,24.54c-10.75,6.22-14.41,19.9-8.2,30.67,6.17,10.7,19.88,14.37,30.63,8.18l76.15-44c5.14-2.96,8.63-7.59,10.23-12.8ZM1065.27,56.11h-2.1c-.27,0-.55.03-.83.04-.26-.01-.53-.04-.8-.04-5.41,0-10.66.62-15.57,2.25-4.83,1.61-9.3,4.26-12.76,8.3v-.02s-.03.02-.03.02h0c-3.57,3.99-5.93,8.74-7.36,14.14-1.44,5.42-2.03,11.54-2.08,18.48v13.45h-14.83c-5.15.03-9.24,4.15-9.24,9.13-.03,2.68,1.02,5.15,2.71,6.93,1.71,1.75,4.05,2.9,6.64,3.04h14.71v109.43l-.02.26c0,2.57,1.08,4.94,2.81,6.63,1.72,1.67,4.13,2.65,6.76,2.65,4.99-.03,9.1-4.1,9.11-9.29v-109.69h15.94c2.57-.14,4.94-1.22,6.63-2.96,1.73-1.74,2.8-4.18,2.8-6.82v-.36c-.06-4.92-4.18-8.97-9.33-8.97h-16.05v-13.39c.1-5.92.72-10.36,1.61-13.59.86-3.24,2.04-5.28,3.1-6.54,1.03-1.12,2.38-2.05,4.58-2.8,2.21-.72,5.27-1.18,9.4-1.18h.49c.24,0,.5-.04.73-.04.29,0,.56.04.86.04h2.1c5.29,0,9.56-4.28,9.56-9.56s-4.26-9.56-9.56-9.56ZM1393.99,127.1c1.87-1.85,2.88-4.31,2.88-6.74s-1.02-4.8-2.9-6.53h.02c-.02-.06-.06-.06-.06-.06-.01-.04-.04-.06-.04-.06h-.03c-1.81-1.78-4.13-2.76-6.53-2.76s-4.79,1.01-6.6,2.81l-73.38,71.51v-120.19c0-5.18-4.33-9.39-9.66-9.39-2.57,0-4.92,1.08-6.6,2.77-1.67,1.68-2.78,4.05-2.78,6.62v175.95c0,2.57,1.12,4.92,2.78,6.59,1.68,1.66,4.03,2.77,6.6,2.77,5.32,0,9.66-4.19,9.66-9.36v-29.03l23.9-23.87,48.71,58.77c.92,1.35,2.17,2.28,3.4,2.77,1.41.53,2.77.72,3.99.72,1.68,0,4.05-.36,6.13-2l.11-.07.13-.13c1.95-1.92,3.06-4.48,3.06-7.09,0-2.2-.81-4.44-2.32-6.23v-.03l-49.59-60.28,49.08-47.47h.04ZM1261.48,115c1.74,1.68,2.81,4.11,2.81,6.73v119.3c0,2.57-1.1,4.92-2.75,6.59-1.7,1.66-4.04,2.77-6.62,2.77s-4.95-1.11-6.62-2.77c-1.69-1.67-2.78-4.02-2.78-6.59v-11.64c-11.81,12.76-28.4,21-46.76,21s-34.72-7.85-46.5-20.42c-11.82-12.51-19.06-29.75-19.06-48.58s7.23-36.08,19.06-48.61c11.78-12.56,28.23-20.4,46.5-20.4s34.95,8,46.76,20.7v-11.35c0-2.62,1.08-5.05,2.81-6.73,1.74-1.65,4.07-2.61,6.59-2.61s4.85.96,6.56,2.61ZM1245.53,181.39c0-14.11-5.33-26.75-13.84-35.88-8.5-9.1-20.16-14.62-32.92-14.65-12.66,0-24.28,5.55-32.87,14.65-8.52,9.13-13.92,21.77-13.92,35.88s5.4,26.65,13.92,35.71c8.54,9.06,20.21,14.51,32.87,14.51s24.46-5.45,32.95-14.48c8.48-9.08,13.81-21.63,13.81-35.74ZM490.24,178.03c-7.58-3.57-16.18-6.21-24.76-9.06-7.89-2.67-15.9-4.94-21.62-7.92-2.87-1.54-5.11-3.16-6.56-4.98-1.48-1.82-2.2-3.67-2.24-6.2.02-3.46,1.02-6.24,2.71-8.71,2.57-3.69,6.87-6.56,11.58-8.41,4.65-1.86,9.69-2.74,13.29-2.74,10.65.02,17.38,3.56,22.55,7.23,2.55,1.85,4.71,3.73,6.74,5.28,1.05.8,2.02,1.54,3.16,2.08,1.07.53,2.34.96,3.72.96.87,0,1.75-.16,2.55-.5.85-.34,1.58-.83,2.28-1.44.69-.64,1.28-1.42,1.69-2.28.37-.89.54-1.81.54-2.71,0-1.67-.53-3.23-1.29-4.69-1.42-2.58-3.6-5.05-6.38-7.52-4.13-3.67-9.59-7.18-15.46-9.82-5.89-2.64-12.2-4.44-18.21-4.44-13.94,0-25.58,3.16-34.03,8.97-4.41,3.04-8.28,6.37-11.02,10.96-2.78,4.61-4.33,10.29-4.54,17.68-.01.33-.01.66-.01.99-.03,7.18,2.28,13.09,5.91,17.72,5.51,6.98,13.69,11.15,21.72,14.11,8.01,2.96,16.01,4.72,21.07,6.42,7.12,2.37,14.68,4.94,20.19,8.34,2.74,1.74,4.97,3.6,6.47,5.65,1.46,2.11,2.29,4.29,2.33,7.05v.2c-.02,3.99-1.19,7.12-3.13,9.8-2.93,3.99-7.79,6.92-12.96,8.77-5.15,1.81-10.51,2.57-13.95,2.57-12.16,0-20.29-2.93-26.19-5.87-2.96-1.48-5.35-2.94-7.52-4.18-1.08-.59-2.08-1.13-3.14-1.56-1.04-.43-2.14-.7-3.39-.7-.76,0-1.59.13-2.36.43-.77.33-1.48.79-2.07,1.35-.82.79-1.53,1.68-2.04,2.7-.49,1.02-.73,2.09-.73,3.22,0,1.84.69,3.52,1.67,5.04,1.53,2.2,3.79,4.16,6.6,6.13,2.9,1.94,6.36,3.85,10.35,5.73,8.84,4.18,20.18,6.36,28.79,6.5h.03c13.39,0,24.96-3.09,34.7-10.26v-.02h.01c9.53-7.18,15.46-17.84,15.46-29.88,0-6.62-1.55-12.23-4.26-16.82-4.09-6.96-10.74-11.55-18.27-15.17ZM1103.99,55.7c-2.57,0-4.92,1.08-6.62,2.77-1.69,1.68-2.77,4.05-2.77,6.62v175.95c0,2.57,1.07,4.92,2.77,6.59,1.69,1.66,4.05,2.77,6.62,2.77,5.33,0,9.63-4.19,9.66-9.36V65.08c-.03-5.18-4.33-9.39-9.66-9.39ZM1536.01,176.94v.93c0,2.6-1.16,4.94-2.92,6.47-1.75,1.55-4.04,2.35-6.49,2.38h-105.32c2.68,25.7,23.2,44.68,47.7,44.88h6.22c8.11.03,16-2.77,22.95-7.41,6.96-4.59,12.97-11.01,17.21-18.07.87-1.51,2.13-2.65,3.49-3.36,1.39-.76,2.89-1.11,4.39-1.11,1.66,0,3.31.43,4.76,1.31l.1.04.11.09c2.64,1.94,4.29,4.89,4.29,8.14,0,1.65-.43,3.33-1.34,4.85l-.03.06-.03.03c-5.89,9.36-13.91,17.9-23.43,24.08-9.55,6.2-20.61,10.13-32.48,10.13h-6.32c-18.48-.13-35.19-7.94-47.23-20.42-12.01-12.44-19.42-29.54-19.42-48.32s7.46-36.44,19.58-48.98c12.11-12.53,28.95-20.28,47.59-20.28s33.78,7.08,45.62,18.66c11.84,11.58,19.58,27.67,20.95,45.77l.04.13ZM1515.45,168.07c-5.34-21.66-24.36-37.08-46.05-37.04-22.25,0-41,15.1-46.81,37.04h92.87ZM590.31,112.63c-14.7,0-28.11,5.73-38.13,14.87v-5.47c-.02-2.51-.95-4.85-2.58-6.57-1.59-1.69-3.95-2.83-6.53-2.83s-5.08,1.08-6.76,2.81c-1.65,1.71-2.64,4.08-2.64,6.59v121.8l.39.39.02.06c.1.4.36.85.63,1.28,1.28,2.25,3.37,3.96,5.97,4.72l.37.12h2.02c1.35,0,2.71-.29,4-.89,1.08-.52,2.08-1.35,2.89-2.41h.03c.1-.09.13-.22.24-.32.04-.01.09-.06.11-.1.5-.64.92-1.31,1.18-1.92.27-.73.44-1.42.57-1.95l.09-.34v-73.14c.27-10.46,4.58-19.92,11.48-26.79,6.86-6.87,16.26-11.12,26.65-11.12s19.99,4.25,26.82,11.12c6.86,6.85,11.02,16.29,11.02,26.7v71.81c0,2.63,1.12,5.05,2.81,6.72,1.74,1.66,4.1,2.64,6.57,2.64s4.87-.98,6.59-2.64c1.75-1.66,2.81-4.09,2.81-6.72v-71.81c0-31-25.32-56.55-56.63-56.59ZM776.95,132.87c11.85,12.57,19.06,29.82,19.09,48.52-.03,18.7-7.23,35.94-19.09,48.51-11.77,12.56-28.2,20.49-46.47,20.49s-34.59-7.94-46.4-20.49c-11.83-12.57-19.14-29.81-19.14-48.51s7.32-35.95,19.14-48.52c11.81-12.54,28.27-20.48,46.4-20.48s34.7,7.94,46.47,20.48ZM777.19,181.39c0-13.98-5.37-26.64-13.9-35.78-8.58-9.16-20.21-14.75-32.84-14.75s-24.28,5.6-32.85,14.75c-8.55,9.14-13.92,21.8-13.92,35.78s5.37,26.51,13.92,35.59c8.57,9.11,20.22,14.63,32.85,14.63s24.3-5.51,32.84-14.63c8.54-9.08,13.9-21.63,13.9-35.59ZM979.84,113.43l-.04-.03s-.03-.02-.06-.02c-1.07-.47-2.25-.72-3.39-.72-1.84.01-3.6.56-5.14,1.52-1.56.99-2.89,2.44-3.65,4.25v.04l-35.85,98.1-27.63-65.76-.04-.03c-.78-1.84-2.17-3.26-3.74-4.25-1.6-.99-3.43-1.54-5.37-1.54s-3.63.59-5.18,1.55c-1.52.99-2.9,2.4-3.67,4.23l-.02.03-27.68,65.8-36.04-98.06h-.03c-.63-1.89-1.91-3.37-3.43-4.35-1.55-.99-3.36-1.54-5.22-1.55-1.19,0-2.4.24-3.53.72h-.05l-.04.04c-3.36,1.56-5.41,4.92-5.42,8.58,0,1.15.23,2.3.67,3.43h-.01l44.33,119.03v.04c.35.89.83,1.76,1.55,2.63.51.62,1.28,1.13,2.07,1.56.15.14.37.34.72.56.37.23.85.39,1.34.47.79.26,1.84.64,3.24.64,1.79,0,3.46-.64,4.95-1.61,1.39-.93,2.64-2.33,3.33-4.13l.11-.09,28.03-67.01,28.07,66.73h.03c.65,1.78,1.78,3.17,3.1,4.16,1.39,1.05,2.95,1.69,4.61,1.94h1.18c1.12,0,2.21-.21,3.13-.57.96-.37,1.74-.86,2.38-1.35,1.51-1.15,2.67-2.73,3.39-4.48v-.04l44.05-118.5c.43-1.13.66-2.27.66-3.42-.01-3.63-2.15-7.09-5.68-8.6Z"/>
</svg>