<?xml version="1.0" encoding="UTF-8"?> <svg xmlns="http://www.w3.org/2000/svg" xmlns:xlink="http://www.w3.org/1999/xlink" viewBox="0 0 300 300"><defs><style>.cls-1{isolation:isolate;}.cls-2{fill:none;}.cls-3{fill:#00416b;}.cls-4{opacity:0.8;mix-blend-mode:multiply;fill:url(#linear-gradient);}.cls-5{fill:#4197cb;}</style><linearGradient id="linear-gradient" x1="36.69733" y1="5.42684" x2="168.61221" y2="174.07751" gradientUnits="userSpaceOnUse"><stop offset="0" stop-color="#fff" stop-opacity="0"></stop><stop offset="0.34941" stop-color="#cdcccc" stop-opacity="0.22668"></stop><stop offset="0.889" stop-color="#454142" stop-opacity="0.84698"></stop><stop offset="1" stop-color="#231f20"></stop></linearGradient></defs><title>SPDX_icon</title><g class="cls-1"><g id="Layer_1" data-name="Layer 1"><polygon class="cls-2" points="70.04 230.296 230.208 70.462 70.04 70.462 70.04 230.296"></polygon><polygon class="cls-3" points="70.04 70.462 230.208 70.462 296.066 4.179 3.757 4.179 3.757 5.276 3.757 69.7 3.757 296.159 70.04 230.296 70.04 70.462"></polygon><polygon class="cls-4" points="70.04 70.462 230.208 70.462 296.066 4.179 3.757 4.179 3.757 5.276 3.757 69.7 3.757 296.159 70.04 230.296 70.04 70.462"></polygon><polygon class="cls-5" points="230.208 70.462 70.04 230.296 3.757 296.239 70.04 296.239 100.313 296.239 159.108 236.504 159.108 176.514 159.108 159.53 176.421 159.53 236.397 159.53 295.817 100.368 295.817 70.462 295.817 3.839 230.208 70.462"></polygon><polygon class="cls-5" points="175.679 176.101 175.679 220.036 175.679 296.239 295.817 296.239 295.817 176.101 219.935 176.101 175.679 176.101"></polygon></g></g></svg> 