<svg xmlns="http://www.w3.org/2000/svg" fill="none" viewBox="0 0 161 26">
  <path fill="url(#a)" fill-rule="evenodd" d="M15.22 7.765 12.063.937 8.909 7.765c-.047.1-.096.198-.15.293L7 6.3a1.185 1.185 0 1 0-1.675 1.675l1.747 1.747a4.264 4.264 0 0 1-.193.099l-.05.023L0 13l6.829 3.156c.08.037.16.077.238.119l.006.004-1.75 1.749A1.185 1.185 0 1 0 7 19.703l1.76-1.76c.053.095.103.192.149.292l3.155 6.829 3.156-6.83c.039-.082.08-.163.122-.242l1.713 1.712a1.185 1.185 0 1 0 1.675-1.675l-1.723-1.724c.095-.053.192-.103.292-.149L24.127 13l-6.829-3.156a4.26 4.26 0 0 1-.291-.148l1.72-1.721a1.185 1.185 0 1 0-1.675-1.676l-1.71 1.71a4.154 4.154 0 0 1-.109-.214l-.014-.03Zm-3.168.36-.418.905a7.273 7.273 0 0 1-3.551 3.552L7.177 13l.906.418a7.273 7.273 0 0 1 3.55 3.552l.419.905.418-.905a7.273 7.273 0 0 1 3.551-3.552l.906-.418-.905-.418A7.274 7.274 0 0 1 12.47 9.03l-.418-.905Zm10.221-3.697a1.185 1.185 0 1 0-1.675-1.675l-.563.563A1.185 1.185 0 0 0 21.71 4.99l.563-.563ZM4.206 5.18a1.185 1.185 0 0 1-1.676 0l-.563-.562a1.185 1.185 0 0 1 1.676-1.676l.563.563a1.185 1.185 0 0 1 0 1.676Zm0 15.638a1.185 1.185 0 0 0-1.676 0l-.563.563a1.185 1.185 0 0 0 1.676 1.675l.563-.563a1.185 1.185 0 0 0 0-1.675Zm18.067.752a1.185 1.185 0 0 1-1.675 1.676l-.563-.563a1.185 1.185 0 0 1 1.675-1.676l.563.563Z"/>
  <path fill="#23262D" fill-rule="evenodd" d="M101.715 19.52h-3.544c.029-.668.043-1.322.043-1.963.014-.654.022-1.309.022-1.963V9.082c0-.711-.008-1.394-.022-2.049 0-.654-.007-1.309-.021-1.964 0-.654-.007-1.344-.022-2.07h3.565c-.028.697-.05 1.373-.064 2.028v12.55l.043 1.943Zm44.455 0h-3.629c.014-.568.021-1.201.021-1.899.015-.697.022-1.458.022-2.284.014-.825.021-1.7.021-2.625 0-.84-.142-1.508-.427-2.006-.27-.513-.711-.883-1.323-1.11-.598-.242-1.402-.363-2.412-.363a8.16 8.16 0 0 0-1.985.234 4.95 4.95 0 0 0-1.622.726 3.358 3.358 0 0 0-1.068 1.28c-.256.513-.384 1.125-.384 1.837v3.436c.014.427.022.811.022 1.153v.896c.014.256.021.498.021.726h-3.629c.029-.626.043-1.245.043-1.857.014-.612.021-1.295.021-2.05v-4.802c0-.711-.007-1.409-.021-2.092V6.671c0-.668-.007-1.309-.021-1.92 0-.627-.007-1.21-.022-1.751h3.672l-.043 2.028c0 .626-.007 1.266-.021 1.92a64.28 64.28 0 0 1-.048 2.506l.119.023c.238-.505.541-.943.91-1.312.598-.597 1.352-1.038 2.263-1.323.925-.285 2.013-.427 3.266-.427.982 0 1.857.107 2.625.32.768.214 1.416.541 1.942.982.541.427.954.982 1.238 1.665.285.669.427 1.466.427 2.39 0 .413-.007.783-.021 1.11v.918c0 .285-.007.555-.021.812v2.903c.014.668.035 1.337.064 2.006Zm-35.182-8.473c0-.74.163-1.38.491-1.921.327-.555.804-1.01 1.43-1.366.64-.37 1.437-.648 2.39-.833.954-.185 2.064-.277 3.33-.277.128 0 .399.007.811.021h1.537c.626 0 1.309.007 2.049.022.754.014 1.523.02 2.305.02h2.306v.428c0 .213-.007.455-.022.725v.726c.015.228.022.392.022.491-.242 0-.555-.007-.94-.021a26.24 26.24 0 0 0-1.238-.064c-.455-.029-.932-.057-1.43-.086a57.685 57.685 0 0 0-.491-.04v.136c.372.098.699.208.982.331.441.171.79.37 1.046.598.271.213.47.477.598.79.128.298.192.647.192 1.046 0 .341-.057.661-.171.96a2.53 2.53 0 0 1-.533.833c-.228.256-.541.49-.94.704-.398.2-.882.37-1.451.512a15.35 15.35 0 0 1-2.006.342c-.769.07-1.644.106-2.626.106-1.36 0-2.523-.088-3.491-.263a2.985 2.985 0 0 0-.223.2c-.142.156-.249.32-.32.49-.071.157-.107.32-.107.491 0 .27.107.463.32.577.228.113.534.17.918.17.982 0 1.907-.014 2.775-.042.882-.043 1.708-.079 2.476-.107a58.395 58.395 0 0 1 2.156-.043c1.01 0 1.836.093 2.476.278.654.185 1.138.484 1.451.896.328.413.491.954.491 1.622a3 3 0 0 1-.17 1.025c-.1.313-.271.598-.513.854s-.576.484-1.003.683c-.413.199-.939.37-1.579.512-.641.142-1.402.25-2.284.32-.883.071-1.914.107-3.095.107-1.494 0-2.754-.036-3.778-.107-1.025-.07-1.857-.17-2.498-.299-.626-.128-1.11-.284-1.451-.47-.327-.184-.555-.398-.683-.64a1.645 1.645 0 0 1-.171-.747c0-.298.071-.562.214-.79.156-.227.384-.426.683-.597.298-.17.668-.32 1.109-.448.149-.043.305-.084.47-.122v-.09a2.941 2.941 0 0 1-.662-.28c-.27-.17-.462-.37-.576-.597a1.692 1.692 0 0 1-.171-.768c0-.441.136-.826.406-1.153.284-.327.669-.598 1.152-.81a6.207 6.207 0 0 1 1.004-.367v-.046a6.08 6.08 0 0 1-1.26-.549c-.583-.37-1.017-.81-1.302-1.323a3.78 3.78 0 0 1-.405-1.75Zm2.967 8.175c.096-.09.212-.184.348-.283.274.018.57.027.89.027.512 0 1.074-.007 1.686-.021a77.7 77.7 0 0 1 1.878-.065 93.1 93.1 0 0 1 1.943-.064 41.882 41.882 0 0 1 1.814-.042c.441 0 .783.035 1.024.106.257.057.434.157.534.3.114.127.171.298.171.512a.8.8 0 0 1-.256.576c-.157.17-.434.313-.833.427-.384.114-.918.199-1.601.256-.683.071-1.551.107-2.604.107-.896 0-1.657-.022-2.284-.064a12.181 12.181 0 0 1-1.536-.15c-.399-.057-.705-.135-.918-.235-.214-.1-.363-.213-.448-.341a.855.855 0 0 1-.107-.427c0-.228.099-.434.299-.619Zm9.221-8.175a1.64 1.64 0 0 0-.47-1.174c-.299-.327-.783-.576-1.451-.747-.655-.185-1.509-.278-2.562-.278-1.067 0-1.935.093-2.604.278-.669.17-1.16.42-1.473.747a1.632 1.632 0 0 0-.448 1.131c0 .427.15.797.448 1.11.299.299.776.534 1.43.704.669.171 1.552.257 2.647.257 1.067 0 1.928-.079 2.583-.235.654-.17 1.131-.406 1.43-.704.313-.314.47-.676.47-1.09Zm-14.528-6.36c.057-.143.085-.3.085-.47 0-.128-.021-.25-.064-.363a.567.567 0 0 0-.192-.299.84.84 0 0 0-.384-.235 2.079 2.079 0 0 0-.619-.15 5.671 5.671 0 0 0-.918-.063 6.21 6.21 0 0 0-1.131.085c-.285.043-.505.114-.662.214a.779.779 0 0 0-.32.363 1.094 1.094 0 0 0-.085.448c0 .142.014.27.042.384a.978.978 0 0 0 .171.341c.1.1.228.185.384.257.171.07.384.128.641.17.27.043.59.064.96.064a5.86 5.86 0 0 0 1.11-.085c.299-.071.519-.164.662-.277a.898.898 0 0 0 .32-.385Zm-3.885 14.834h3.543l-.042-1.537a49.626 49.626 0 0 1-.022-1.494V9.66c0-.484.007-.968.022-1.452l.042-1.494h-3.543c.014.512.022 1.01.022 1.494.014.484.021.968.021 1.452.014.483.021.989.021 1.515v3.565c0 .569-.007 1.117-.021 1.643 0 .513-.007 1.032-.021 1.559 0 .512-.008 1.038-.022 1.579Zm-20.64 0h3.713a215.35 215.35 0 0 1-.085-2.583v-3.116c0-.769.1-1.416.299-1.943.199-.54.49-.974.875-1.302a3.687 3.687 0 0 1 1.387-.725 6.834 6.834 0 0 1 1.857-.235c.655 0 1.231.05 1.73.15.497.085.967.22 1.408.405.014-.214.035-.463.064-.747l.085-.875c.043-.3.079-.584.107-.854.028-.27.064-.498.107-.683a7.83 7.83 0 0 0-1.409-.363c-.498-.1-1.06-.15-1.686-.15-.754 0-1.445.1-2.07.3a4.48 4.48 0 0 0-1.623.874c-.455.399-.84.911-1.153 1.537a5.743 5.743 0 0 0-.26.626l-.15-.02.005-.2a381.87 381.87 0 0 1 .085-2.903h-3.287c.029.925.043 1.885.043 2.881.014.996.021 2.185.021 3.565 0 1.352-.007 2.526-.021 3.522 0 .996-.014 1.942-.043 2.839ZM49.66 6.714c.483 0 1.06.007 1.728.021l.463.001c.005-.385.007-.755.007-1.11V4.024c.285 0 .576.007.875.02h2.028c.2-.013.384-.02.555-.02l-.043 2.326-.007.406h3.23c.84-.015 1.651-.022 2.434-.022.782-.014 1.5-.021 2.155-.021a65.92 65.92 0 0 0-.042.897 22.49 22.49 0 0 0-.022.981v.918a47.331 47.331 0 0 0-1.472-.021 59.412 59.412 0 0 0-1.644-.021c-.57-.015-1.16-.022-1.771-.022a77.1 77.1 0 0 0-1.836-.021 79.125 79.125 0 0 0-1.069-.018c-.002.648-.009 1.315-.02 2.003v2.903c0 .54.1 1.003.3 1.387.198.37.54.648 1.024.833.483.185 1.145.277 1.985.277.91 0 1.721-.057 2.433-.17a12.782 12.782 0 0 0 1.9-.47c.028.199.057.405.085.619l.085.598c.043.199.079.405.107.619.043.199.078.39.107.576l.128.555a30.79 30.79 0 0 1-1.644.299 29.41 29.41 0 0 1-1.686.17 19.64 19.64 0 0 1-1.9.086c-.967 0-1.807-.071-2.518-.214-.712-.156-1.316-.377-1.815-.661a4.21 4.21 0 0 1-1.174-1.046 4.033 4.033 0 0 1-.619-1.324 6.162 6.162 0 0 1-.192-1.58v-3.263a91.9 91.9 0 0 0 .022-2.006v-.193h-.747a51.05 51.05 0 0 0-1.409-.02V8.058c0-.256-.007-.498-.021-.726v-.619Zm-7.33 10.587a22.05 22.05 0 0 1-2.135.086 21.8 21.8 0 0 1-2.348-.107c-.64-.071-1.152-.185-1.537-.342-.384-.156-.661-.355-.832-.597-.17-.242-.256-.541-.256-.897v-.32c-.185.028-.413.05-.683.064h-1.43a6.98 6.98 0 0 0-.534-.021 21.654 21.654 0 0 1-.427-.043v.213a.437.437 0 0 1 0 .193.795.795 0 0 0-.021.192c0 .555.085 1.053.256 1.494.185.44.47.832.854 1.174.384.327.89.604 1.515.832.627.214 1.373.37 2.242.47.882.114 1.913.17 3.095.17 1.422 0 2.618-.085 3.585-.256.982-.17 1.772-.42 2.37-.747.612-.341 1.053-.76 1.323-1.259.27-.512.406-1.096.406-1.75 0-.64-.107-1.188-.32-1.644-.2-.47-.556-.86-1.068-1.174-.512-.313-1.224-.562-2.134-.747-.897-.185-2.056-.313-3.48-.384-1.166-.043-2.105-.114-2.817-.213-.697-.1-1.224-.214-1.58-.342-.355-.142-.597-.306-.725-.491a1.158 1.158 0 0 1-.17-.619c0-.242.063-.448.191-.619.142-.185.377-.334.705-.448.327-.128.768-.22 1.323-.278a21.13 21.13 0 0 1 2.092-.085c.882 0 1.615.036 2.198.107.584.057 1.046.163 1.388.32.355.142.604.334.747.576a1.4 1.4 0 0 1 .235.811v.384c.156-.014.362-.02.619-.02h1.451c.185 0 .363.006.534.02.17 0 .32.008.448.022v-.214c.014-.07.021-.142.021-.213v-.214c0-.597-.1-1.124-.299-1.58a2.887 2.887 0 0 0-.917-1.152c-.399-.313-.904-.562-1.516-.747-.598-.199-1.302-.341-2.113-.427-.811-.1-1.73-.15-2.754-.15-1.366 0-2.532.086-3.5.257-.953.157-1.73.398-2.327.726-.583.327-1.01.733-1.28 1.216-.27.484-.406 1.053-.406 1.708 0 .57.107 1.089.32 1.558.214.456.584.854 1.11 1.195.527.328 1.245.591 2.156.79.925.2 2.092.335 3.5.406 1.139.042 2.05.107 2.733.192.697.085 1.223.2 1.58.341.37.143.618.306.746.491s.192.399.192.64c0 .257-.07.485-.213.684-.142.199-.384.363-.726.49-.341.114-.804.207-1.387.278Zm106.579-7.796.534.003v1.171c0 .498-.008 1.018-.022 1.558 0 .527-.007 1.04-.021 1.537v1.366c0 .683.107 1.31.32 1.879.228.569.576 1.06 1.046 1.473.484.412 1.11.732 1.878.96.769.228 1.701.341 2.796.341.641 0 1.231-.028 1.772-.085a13.992 13.992 0 0 0 1.601-.213c.526-.1 1.053-.22 1.579-.363a36.37 36.37 0 0 0-.149-.918c-.043-.341-.085-.69-.128-1.046-.043-.37-.078-.704-.107-1.003-.37.142-.761.263-1.174.363-.412.085-.846.15-1.302.192a15.22 15.22 0 0 1-1.43.064c-.74 0-1.359-.071-1.857-.213-.484-.157-.847-.406-1.088-.748-.228-.355-.342-.818-.342-1.387V11.49c.01-.68.017-1.333.02-1.959.313.003.627.01.941.017.583 0 1.159.007 1.728.021l1.665.043a52.4 52.4 0 0 1 1.537.021c.484 0 .932.007 1.345.022v-.96c.014-.342.021-.684.021-1.025.014-.342.029-.648.043-.918l-1.857.043h-1.814a36.78 36.78 0 0 0-1.772 0h-1.799l.006-.342c.028-.783.05-1.565.064-2.348h-.149a6.185 6.185 0 0 1-1.452 1.537 6.18 6.18 0 0 1-.875.576c-.299.171-.605.32-.918.448-.313.129-.64.235-.982.32-.327.086-.654.157-.981.214v2.305h1.323ZM78.255 19.646H81.2a7.913 7.913 0 0 1-.128-.661c-.042-.27-.078-.576-.106-.918l-.043-1.089c-.014-.37-.021-.747-.021-1.13v-1.474l.042-1.387c.014-.456.022-.94.022-1.452 0-.782-.135-1.48-.406-2.091-.256-.626-.683-1.16-1.28-1.601-.598-.441-1.402-.776-2.412-1.003-1.01-.242-2.263-.363-3.757-.363-.883 0-1.779.05-2.69.15a24.5 24.5 0 0 0-2.625.426 19 19 0 0 0-2.327.619c.043.17.086.377.128.619.057.228.114.477.171.747.057.27.107.54.15.811.042.256.085.498.128.726a9.785 9.785 0 0 1 2.091-.747c.783-.2 1.58-.349 2.391-.448.811-.1 1.594-.15 2.348-.15.896 0 1.636.057 2.22.17.583.115 1.046.286 1.387.513.342.214.584.477.726.79.142.313.213.683.213 1.11 0 .228-.007.49-.02.79l-.001.135c-.3-.067-.642-.126-1.025-.178a25.747 25.747 0 0 0-1.792-.17 34.317 34.317 0 0 0-2.178-.065c-1.252 0-2.34.079-3.265.235-.911.142-1.665.37-2.263.683-.583.313-1.017.711-1.302 1.195-.284.484-.427 1.053-.427 1.708 0 .669.107 1.245.32 1.729.214.484.541.882.982 1.195.456.313 1.032.54 1.73.683.696.142 1.529.214 2.496.214 1.338 0 2.498-.136 3.48-.406.996-.285 1.785-.711 2.369-1.28.363-.346.64-.747.829-1.203l.125.009-.015.425c-.014.455-.021.868-.021 1.238 0 .2.007.363.021.49.029.115.071.2.128.257.071.057.157.1.256.128.114.014.25.021.406.021Zm-.875-5.443c-.803-.104-1.6-.175-2.39-.213a58.43 58.43 0 0 0-2.818-.064c-.655 0-1.21.043-1.665.128-.456.071-.826.178-1.11.32a1.544 1.544 0 0 0-.64.555 1.628 1.628 0 0 0-.193.811c0 .3.057.562.171.79.114.228.292.42.534.576.256.143.59.257 1.003.342.427.071.932.107 1.515.107.897 0 1.694-.072 2.391-.214.697-.156 1.28-.37 1.75-.64.484-.27.847-.59 1.089-.96s.363-.776.363-1.217v-.321Z" clip-rule="evenodd"/>
  <defs>
    <linearGradient id="a" x1="2.5" x2="21.612" y1="2.653" y2="25.399" gradientUnits="userSpaceOnUse">
      <stop stop-color="#FBD57F"/>
      <stop offset="1" stop-color="#D17F0D"/>
    </linearGradient>
  </defs>
</svg>