<svg id="Layer_1" data-name="Layer 1" xmlns="http://www.w3.org/2000/svg" viewBox="0 0 152 152"><defs><style>.cls-1{fill:none;}.cls-2,.cls-5{fill:#ff0e49;}.cls-3,.cls-4{fill:#5b5c5c;}.cls-4,.cls-5{opacity:0.5;}</style></defs><title>ES-logo-152-transparent</title><rect class="cls-1" width="152" height="152" rx="12"/><path class="cls-2" d="M1570.18,496.62l0-44.38-35.32-35-26.13,24.95s6.14,6,10.75,3,15.12-12.6,15.12-12.6l21.56,20.81-6.81,7-14.83-14-7.72,6.68Z" transform="translate(-1458.1 -392.24)"/><path class="cls-3" d="M1497.15,439.45l.88,45.08,35,34.85,26.14-24.95s-6.14-6-10.75-3-15.13,12.59-15.13,12.59l-21.55-20.82,6.81-7,14.83,14,7.72-6.68Z" transform="translate(-1458.1 -392.24)"/><polyline class="cls-4" points="35.92 44.14 31.78 40 31.8 84.14 35.92 88.22"/><polyline class="cls-5" points="116.08 108.39 120.09 112.31 120.09 68 116.08 64"/></svg>