<?xml version="1.0" encoding="utf-8"?>
<!-- Generator: Adobe Illustrator 24.0.3, SVG Export Plug-In . SVG Version: 6.00 Build 0)  -->
<svg version="1.1" id="Layer_5" xmlns="http://www.w3.org/2000/svg" xmlns:xlink="http://www.w3.org/1999/xlink" x="0px" y="0px"
	 viewBox="0 0 232.4 245.2" style="enable-background:new 0 0 232.4 245.2;" xml:space="preserve">
<style type="text/css">
	.st0{fill:#FFFFFF;}
	.st1{fill:#717074;}
	.st2{fill:url(#SVGID_1_);}
	.st3{fill:url(#SVGID_2_);}
	.st4{fill:url(#SVGID_3_);}
	.st5{fill:url(#SVGID_4_);}
	.st6{fill:url(#SVGID_5_);}
	.st7{fill:url(#SVGID_6_);}
	.st8{fill:url(#SVGID_7_);}
	.st9{fill:url(#SVGID_8_);}
	.st10{fill:url(#SVGID_9_);}
	.st11{fill:url(#SVGID_10_);}
	.st12{fill:url(#SVGID_11_);}
	.st13{fill:url(#SVGID_12_);}
	.st14{fill:url(#SVGID_13_);}
	.st15{fill:url(#SVGID_14_);}
	.st16{fill:url(#SVGID_15_);}
	.st17{fill:url(#SVGID_16_);}
	.st18{fill:url(#SVGID_17_);}
	.st19{fill:url(#SVGID_18_);}
	.st20{fill:url(#SVGID_19_);}
	.st21{fill:url(#SVGID_20_);}
	.st22{fill:url(#SVGID_21_);}
	.st23{fill:url(#SVGID_22_);}
	.st24{fill:url(#SVGID_23_);}
	.st25{fill:url(#SVGID_24_);}
</style>
<g>
	<circle class="st0" cx="119.2" cy="81.3" r="50.8"/>
	<path class="st1" d="M119.2,134.2c-29.2,0-52.9-23.7-52.9-52.9S90,28.5,119.2,28.5S172,52.2,172,81.3S148.3,134.2,119.2,134.2z
		 M119.2,38.2C95.4,38.2,76,57.5,76,81.3s19.4,43.1,43.1,43.1s43.1-19.4,43.1-43.1S142.9,38.2,119.2,38.2z"/>
	<g>
		<linearGradient id="SVGID_1_" gradientUnits="userSpaceOnUse" x1="88.9082" y1="67.7713" x2="234.9316" y2="67.7713">
			<stop  offset="0" style="stop-color:#0194D3"/>
			<stop  offset="1" style="stop-color:#006A91"/>
		</linearGradient>
		<rect x="88.9" y="64.8" class="st2" width="60.4" height="6"/>
		<linearGradient id="SVGID_2_" gradientUnits="userSpaceOnUse" x1="88.9082" y1="58.9167" x2="234.9316" y2="58.9167">
			<stop  offset="0" style="stop-color:#0194D3"/>
			<stop  offset="1" style="stop-color:#006A91"/>
		</linearGradient>
		<rect x="88.9" y="55.9" class="st3" width="60.4" height="6"/>
		<linearGradient id="SVGID_3_" gradientUnits="userSpaceOnUse" x1="88.9082" y1="76.626" x2="234.9316" y2="76.626">
			<stop  offset="0" style="stop-color:#F08C21"/>
			<stop  offset="1" style="stop-color:#9E313A"/>
		</linearGradient>
		<rect x="88.9" y="73.6" class="st4" width="60.4" height="6"/>
		<linearGradient id="SVGID_4_" gradientUnits="userSpaceOnUse" x1="88.9082" y1="85.4806" x2="234.9316" y2="85.4806">
			<stop  offset="2.404722e-03" style="stop-color:#0194D3"/>
			<stop  offset="0.9995" style="stop-color:#006A91"/>
		</linearGradient>
		<rect x="88.9" y="82.5" class="st5" width="60.4" height="6"/>
		<linearGradient id="SVGID_5_" gradientUnits="userSpaceOnUse" x1="88.9082" y1="94.3352" x2="234.9316" y2="94.3352">
			<stop  offset="0" style="stop-color:#0194D3"/>
			<stop  offset="1" style="stop-color:#006A91"/>
		</linearGradient>
		<rect x="88.9" y="91.3" class="st6" width="60.4" height="6"/>
		<linearGradient id="SVGID_6_" gradientUnits="userSpaceOnUse" x1="88.9082" y1="103.1898" x2="234.9316" y2="103.1898">
			<stop  offset="0" style="stop-color:#0194D3"/>
			<stop  offset="1" style="stop-color:#006A91"/>
		</linearGradient>
		<rect x="88.9" y="100.2" class="st7" width="60.4" height="6"/>
	</g>
</g>
<g>
	<g>
		<path class="st1" d="M54.3,166.3H40.4v-4.4h32.4v4.4H59v36.8h-4.7V166.3z"/>
		<path class="st1" d="M82.8,166.3v13.6h22.4v4.4H82.8v14.3h24.8v4.4H78.1v-41.2h29.6v4.4H82.8z"/>
		<path class="st1" d="M145.1,181.3c-1.1,1.9-2.6,3.4-4.6,4.6s-4.2,1.9-6.6,2.2l10.5,14.9H139l-10.4-14.8h-9.1v14.8h-4.7v-41.2h16.7
			c2.8,0,5.4,0.6,7.7,1.7c2.3,1.1,4.1,2.7,5.5,4.7c1.3,2,2,4.3,2,6.8C146.7,177.4,146.2,179.5,145.1,181.3z M119.5,183.9h11.2
			c3.4,0,6.1-0.8,8.2-2.3c2.1-1.6,3.1-3.7,3.1-6.4c0-2.7-1-4.9-3.1-6.4c-2.1-1.6-4.8-2.3-8.2-2.3h-11.2V183.9z"/>
		<path class="st1" d="M153.8,161.9h4.7l25.6,33.5v-33.5h4.7v41.2h-4.7l-25.6-33.5v33.5h-4.7V161.9z"/>
	</g>
</g>
</svg>
