<?xml version="1.0" encoding="UTF-8"?>
<svg width="177px" height="32px" viewBox="0 0 177 32" version="1.1" xmlns="http://www.w3.org/2000/svg" xmlns:xlink="http://www.w3.org/1999/xlink">
    <!-- Generator: Sketch 52.6 (67491) - http://www.bohemiancoding.com/sketch -->
    <title>Tahoma</title>
    <desc>Created with Sketch.</desc>
    <g id="Page-1" stroke="none" stroke-width="1" fill="none" fill-rule="evenodd">
        <g id="Tahoma">
            <path d="M41.0039062,8.8984375 L45.140625,8.8984375 L45.140625,12.0625 L47.765625,12.0625 L47.765625,15.1445312 L45.140625,15.1445312 L45.140625,20.4296875 C45.140625,21.4062549 45.6679635,21.8945312 46.7226562,21.8945312 C47.082033,21.8945312 47.4296858,21.8750002 47.765625,21.8359375 L47.765625,24.7890625 C47.25781,24.898438 46.5976603,24.953125 45.7851562,24.953125 C44.0742102,24.953125 42.8496131,24.6738309 42.1113281,24.1152344 C41.3730432,23.5566378 41.0039062,22.6367252 41.0039062,21.3554688 L41.0039062,15.1445312 L39,15.1445312 L39,12.0625 L41.0039062,12.0625 L41.0039062,8.8984375 Z M50.6132812,24.9296875 L50.6132812,7 L54.6679688,7 L54.6679688,14.0546875 L54.890625,14.0546875 C55.1796889,13.3046838 55.6679653,12.7148459 56.3554688,12.2851562 C57.0429722,11.8554666 57.8554641,11.640625 58.7929688,11.640625 C60.2148509,11.640625 61.3144492,12.0644489 62.0917969,12.9121094 C62.8691445,13.7597699 63.2578125,14.9726484 63.2578125,16.5507812 L63.2578125,24.9296875 L59.1210938,24.9296875 L59.1210938,17.4882812 C59.1210938,16.6835897 58.941408,16.0703146 58.5820312,15.6484375 C58.2226545,15.2265604 57.6992222,15.015625 57.0117188,15.015625 C56.3085902,15.015625 55.7558614,15.2460914 55.3535156,15.7070312 C54.9511699,16.1679711 54.75,16.77734 54.75,17.5351562 L54.75,24.9296875 L50.6132812,24.9296875 Z M71.4375,22.234375 C72.0937533,22.234375 72.6464821,22.0429707 73.0957031,21.6601562 C73.5449241,21.2773418 73.7695312,20.8046903 73.7695312,20.2421875 L73.7695312,19.3867188 L71.578125,19.5273438 C70.968747,19.574219 70.5039079,19.7148426 70.1835938,19.9492188 C69.8632796,20.1835949 69.703125,20.4960918 69.703125,20.8867188 C69.703125,21.3007833 69.8613265,21.628905 70.1777344,21.8710938 C70.4941422,22.1132825 70.9140599,22.234375 71.4375,22.234375 Z M69.9257812,25.1289062 C68.6679625,25.1289062 67.6503945,24.7675817 66.8730469,24.0449219 C66.0956992,23.322262 65.7070312,22.3671934 65.7070312,21.1796875 C65.7070312,19.9921816 66.1542924,19.0605503 67.0488281,18.3847656 C67.9433638,17.708981 69.2343666,17.320313 70.921875,17.21875 L73.7695312,17.0546875 L73.7695312,16.0351562 C73.7695312,15.5898415 73.6113297,15.2441419 73.2949219,14.9980469 C72.978514,14.7519519 72.5351591,14.6289062 71.9648438,14.6289062 C70.8632757,14.6289062 70.1757826,14.9804652 69.9023438,15.6835938 L66.1757812,15.6835938 C66.2695317,14.4179624 66.8554634,13.4179724 67.9335938,12.6835938 C69.0117241,11.9492151 70.4335849,11.5820312 72.1992188,11.5820312 C73.9961027,11.5820312 75.3867138,11.9726523 76.3710938,12.7539062 C77.3554737,13.5351602 77.8476562,14.6288992 77.8476562,16.0351562 L77.8476562,24.9296875 L73.8164062,24.9296875 L73.8164062,23.3125 L73.59375,23.3125 C73.3046861,23.8671903 72.8281283,24.3085921 72.1640625,24.6367188 C71.4999967,24.9648454 70.7539104,25.1289062 69.9257812,25.1289062 Z M81,24.9296875 L81,11.8867188 L85.03125,11.8867188 L85.03125,14.0078125 L85.2539062,14.0078125 C85.5429702,13.2578088 86.0195279,12.6660178 86.6835938,12.2324219 C87.3476596,11.798826 88.1445266,11.5820312 89.0742188,11.5820312 C90.5117259,11.5820312 91.6074181,12.0078082 92.3613281,12.859375 C93.1152381,13.7109418 93.4921875,14.9257734 93.4921875,16.5039062 L93.4921875,24.9296875 L89.34375,24.9296875 L89.34375,17.4296875 C89.34375,15.7890543 88.6601631,14.96875 87.2929688,14.96875 C86.6289029,14.96875 86.1035176,15.1972633 85.7167969,15.6542969 C85.3300762,16.1113304 85.1367188,16.7187462 85.1367188,17.4765625 L85.1367188,24.9296875 L81,24.9296875 Z M101.085938,16.7617188 L104.789062,11.8867188 L109.429688,11.8867188 L104.777344,17.4882812 L109.746094,24.9296875 L104.917969,24.9296875 L101.660156,19.9375 L100.863281,20.8398438 L100.863281,24.9296875 L96.7265625,24.9296875 L96.7265625,7 L100.863281,7 L100.863281,16.7617188 L101.085938,16.7617188 Z M110.929688,15.8125 C110.929688,14.5156185 111.445307,13.4863319 112.476562,12.7246094 C113.507818,11.9628868 114.902335,11.5820312 116.660156,11.5820312 C118.464853,11.5820312 119.853511,11.9238247 120.826172,12.6074219 C121.798833,13.291019 122.324218,14.2890559 122.402344,15.6015625 L118.628906,15.6015625 C118.566406,15.2187481 118.367189,14.9199229 118.03125,14.7050781 C117.695311,14.4902333 117.250003,14.3828125 116.695312,14.3828125 C116.156247,14.3828125 115.716799,14.4902333 115.376953,14.7050781 C115.037108,14.9199229 114.867188,15.2031232 114.867188,15.5546875 C114.867188,15.8281264 114.986327,16.0527335 115.224609,16.2285156 C115.462892,16.4042978 115.843747,16.5468745 116.367188,16.65625 L119.0625,17.2070312 C120.351569,17.4804701 121.287106,17.9003878 121.869141,18.4667969 C122.451175,19.033206 122.742188,19.8085888 122.742188,20.7929688 C122.742188,22.144538 122.195318,23.2226522 121.101562,24.0273438 C120.007807,24.8320353 118.546884,25.234375 116.71875,25.234375 C114.851553,25.234375 113.39649,24.8886753 112.353516,24.1972656 C111.310542,23.5058559 110.730469,22.5039128 110.613281,21.1914062 L114.609375,21.1914062 C114.828126,22.0195354 115.550775,22.4335938 116.777344,22.4335938 C117.347659,22.4335938 117.802733,22.3281261 118.142578,22.1171875 C118.482424,21.9062489 118.652344,21.6250018 118.652344,21.2734375 C118.652344,20.9999986 118.544923,20.7812508 118.330078,20.6171875 C118.115233,20.4531242 117.746096,20.3164068 117.222656,20.2070312 L114.796875,19.6914062 C112.218737,19.1445285 110.929688,17.8515727 110.929688,15.8125 Z M128.226562,25.3164062 C127.499996,25.3164062 126.925783,25.1113302 126.503906,24.7011719 C126.082029,24.2910136 125.871094,23.7539096 125.871094,23.0898438 C125.871094,22.4179654 126.082029,21.8769552 126.503906,21.4667969 C126.925783,21.0566386 127.499996,20.8515625 128.226562,20.8515625 C128.960941,20.8515625 129.53906,21.0566386 129.960938,21.4667969 C130.382815,21.8769552 130.59375,22.4179654 130.59375,23.0898438 C130.59375,23.7539096 130.382815,24.2910136 129.960938,24.7011719 C129.53906,25.1113302 128.960941,25.3164062 128.226562,25.3164062 Z M138.46875,25.1289062 C136.835929,25.1289062 135.554692,24.5293029 134.625,23.3300781 C133.695308,22.1308534 133.230469,20.4804793 133.230469,18.3789062 C133.230469,16.3007709 133.697261,14.6660216 134.630859,13.4746094 C135.564458,12.2831972 136.843742,11.6875 138.46875,11.6875 C139.343754,11.6875 140.115231,11.890623 140.783203,12.296875 C141.451175,12.703127 141.945311,13.2656214 142.265625,13.984375 L142.488281,13.984375 L142.488281,7 L146.636719,7 L146.636719,24.9296875 L142.59375,24.9296875 L142.59375,22.890625 L142.371094,22.890625 C142.05078,23.5937535 141.546878,24.1425762 140.859375,24.5371094 C140.171872,24.9316426 139.375005,25.1289062 138.46875,25.1289062 Z M141.832031,15.8710938 C141.386717,15.2539032 140.773441,14.9453125 139.992188,14.9453125 C139.210934,14.9453125 138.597658,15.2519501 138.152344,15.8652344 C137.707029,16.4785187 137.484375,17.3242134 137.484375,18.4023438 C137.484375,19.4882867 137.705076,20.3378876 138.146484,20.9511719 C138.587893,21.5644562 139.203121,21.8710938 139.992188,21.8710938 C140.781254,21.8710938 141.398435,21.5644562 141.84375,20.9511719 C142.289065,20.3378876 142.511719,19.4921929 142.511719,18.4140625 C142.511719,17.3359321 142.285159,16.4882843 141.832031,15.8710938 Z M155.847656,14.5234375 C155.167965,14.5234375 154.609377,14.7441384 154.171875,15.1855469 C153.734373,15.6269553 153.488282,16.2148401 153.433594,16.9492188 L158.167969,16.9492188 C158.136719,16.1914025 157.916018,15.5976584 157.505859,15.1679688 C157.095701,14.7382791 156.542972,14.5234375 155.847656,14.5234375 Z M158.320312,21.0859375 L162.105469,21.0859375 C161.878905,22.3593814 161.207037,23.3691369 160.089844,24.1152344 C158.972651,24.8613319 157.570321,25.234375 155.882812,25.234375 C153.804677,25.234375 152.193365,24.6464903 151.048828,23.4707031 C149.904291,22.294916 149.332031,20.6367295 149.332031,18.4960938 C149.332031,16.3476455 149.908197,14.6582093 151.060547,13.4277344 C152.212896,12.1972595 153.800771,11.5820312 155.824219,11.5820312 C157.832041,11.5820312 159.394526,12.1621036 160.511719,13.3222656 C161.628912,14.4824277 162.1875,16.1015521 162.1875,18.1796875 L162.1875,19.328125 L153.410156,19.328125 L153.410156,19.5390625 C153.425781,20.3906293 153.66406,21.0624975 154.125,21.5546875 C154.58594,22.0468775 155.210934,22.2929688 156,22.2929688 C156.601566,22.2929688 157.103514,22.1875011 157.505859,21.9765625 C157.908205,21.7656239 158.179687,21.4687519 158.320312,21.0859375 Z M163.230469,11.8867188 L167.695312,11.8867188 L169.957031,21.2148438 L170.179688,21.2148438 L172.394531,11.8867188 L176.753906,11.8867188 L172.40625,24.9296875 L167.625,24.9296875 L163.230469,11.8867188 Z" id="thanks.dev---24" fill="#000000"></path>
            <rect id="Rectangle" fill="#000000" x="0" y="0" width="32" height="32" rx="6"></rect>
            <path d="M13.782959,24.5966797 L11.3981934,24.5966797 C10.2298932,24.5966797 9.3055047,24.3000925 8.625,23.7069092 C7.9444953,23.1137259 7.60424805,22.2450415 7.60424805,21.1008301 L7.60424805,19.7548828 C7.60424805,18.7371368 7.37842023,18.0054547 6.92675781,17.5598145 C6.4750954,17.1141742 5.69523666,16.8913574 4.5871582,16.8913574 L4,16.8913574 L4,14.7053223 L4.5871582,14.7053223 C5.69523666,14.7053223 6.4750954,14.4825055 6.92675781,14.0368652 C7.37842023,13.591225 7.60424805,12.8595428 7.60424805,11.8417969 L7.60424805,10.4958496 C7.60424805,9.35163816 7.9444953,8.48295381 8.625,7.88977051 C9.3055047,7.2965872 10.2298932,7 11.3981934,7 L13.782959,7 L13.782959,8.98730469 L12.7983398,8.98730469 C12.4370099,8.98730469 12.1103123,9.01440403 11.8182373,9.06860352 C11.5261623,9.12280301 11.2807627,9.22517828 11.0820312,9.37573242 C10.8772776,9.53230873 10.7237147,9.75964206 10.6213379,10.0577393 C10.5189611,10.3558365 10.4677734,10.7397437 10.4677734,11.2094727 L10.4677734,12.2302246 C10.4677734,13.0974164 10.2193628,13.8155489 9.72253418,14.3846436 C9.22570552,14.9537382 8.56478277,15.3888331 7.73974609,15.6899414 L7.73974609,15.9067383 C8.56478277,16.2078466 9.22570552,16.6429415 9.72253418,17.2120361 C10.2193628,17.7811308 10.4677734,18.4992632 10.4677734,19.3664551 L10.4677734,20.387207 C10.4677734,20.8569359 10.5189611,21.2408432 10.6213379,21.5389404 C10.7237147,21.8370376 10.8772776,22.064371 11.0820312,22.2209473 C11.2747405,22.3775236 11.5186346,22.4814044 11.8137207,22.5325928 C12.1088068,22.5837812 12.4370099,22.609375 12.7983398,22.609375 L13.782959,22.609375 L13.782959,24.5966797 Z M28.0965716,16.8913574 L27.5094134,16.8913574 C26.401335,16.8913574 25.6214762,17.1141742 25.1698138,17.5598145 C24.7181514,18.0054547 24.4923236,18.7371368 24.4923236,19.7548828 L24.4923236,21.1008301 C24.4923236,22.2450415 24.1520763,23.1137259 23.4715716,23.7069092 C22.7910669,24.3000925 21.8666784,24.5966797 20.6983783,24.5966797 L18.3136126,24.5966797 L18.3136126,22.609375 L19.2982318,22.609375 C19.6595617,22.609375 19.9862593,22.5822757 20.2783343,22.5280762 C20.5704093,22.4738767 20.8158089,22.3715014 21.0145404,22.2209473 C21.219294,22.064371 21.3728569,21.8370376 21.4752337,21.5389404 C21.5776105,21.2408432 21.6287982,20.8569359 21.6287982,20.387207 L21.6287982,19.3664551 C21.6287982,18.4992632 21.8772088,17.7811308 22.3740374,17.2120361 C22.8708661,16.6429415 23.5317889,16.2078466 24.3568255,15.9067383 L24.3568255,15.6899414 C23.5317889,15.3888331 22.8708661,14.9537382 22.3740374,14.3846436 C21.8772088,13.8155489 21.6287982,13.0974164 21.6287982,12.2302246 L21.6287982,11.2094727 C21.6287982,10.7397437 21.5776105,10.3558365 21.4752337,10.0577393 C21.3728569,9.75964206 21.219294,9.53230873 21.0145404,9.37573242 C20.8158089,9.22517828 20.5704093,9.12280301 20.2783343,9.06860352 C19.9862593,9.01440403 19.6595617,8.98730469 19.2982318,8.98730469 L18.3136126,8.98730469 L18.3136126,7 L20.6983783,7 C21.8666784,7 22.7910669,7.2965872 23.4715716,7.88977051 C24.1520763,8.48295381 24.4923236,9.35163816 24.4923236,10.4958496 L24.4923236,11.8417969 C24.4923236,12.8595428 24.7181514,13.591225 25.1698138,14.0368652 C25.6214762,14.4825055 26.401335,14.7053223 27.5094134,14.7053223 L28.0965716,14.7053223 L28.0965716,16.8913574 Z" id="{}" fill="#FFFFFF"></path>
        </g>
    </g>
</svg>