<?xml version="1.0" encoding="UTF-8" standalone="no"?>
<!-- Created with Inkscape (http://www.inkscape.org/) -->

<svg
   version="1.1"
   id="svg9"
   xml:space="preserve"
   width="927.30798"
   height="229.78934"
   viewBox="0 0 927.30798 229.78934"
   sodipodi:docname="tomtom.svg"
   inkscape:version="1.1.1 (c3084ef, 2021-09-22)"
   xmlns:inkscape="http://www.inkscape.org/namespaces/inkscape"
   xmlns:sodipodi="http://sodipodi.sourceforge.net/DTD/sodipodi-0.dtd"
   xmlns="http://www.w3.org/2000/svg"
   xmlns:svg="http://www.w3.org/2000/svg"><defs
     id="defs13"><radialGradient
       fx="0"
       fy="0"
       cx="0"
       cy="0"
       r="1"
       gradientUnits="userSpaceOnUse"
       gradientTransform="matrix(-58.245037,-46.081436,-46.559925,60.164509,610.13239,112.01759)"
       spreadMethod="pad"
       id="radialGradient39"><stop
         style="stop-opacity:1;stop-color:#ffffff"
         offset="0"
         id="stop31" /><stop
         style="stop-opacity:1;stop-color:#ffffff"
         offset="0.67807152"
         id="stop33" /><stop
         style="stop-opacity:1;stop-color:#bebebe"
         offset="1"
         id="stop35" /><stop
         style="stop-opacity:1;stop-color:#bebebe"
         offset="1"
         id="stop37" /></radialGradient><clipPath
       clipPathUnits="userSpaceOnUse"
       id="clipPath49"><path
         d="M 0,172.342 H 695.481 V 0 H 0 Z"
         id="path47" /></clipPath></defs><sodipodi:namedview
     id="namedview11"
     pagecolor="#ffffff"
     bordercolor="#666666"
     borderopacity="1.0"
     inkscape:pageshadow="2"
     inkscape:pageopacity="0.0"
     inkscape:pagecheckerboard="0"
     showgrid="false"
     inkscape:zoom="1.2326002"
     inkscape:cx="463.65399"
     inkscape:cy="114.79797"
     inkscape:window-width="1312"
     inkscape:window-height="953"
     inkscape:window-x="0"
     inkscape:window-y="25"
     inkscape:window-maximized="0"
     inkscape:current-layer="g15" /><g
     id="g15"
     inkscape:groupmode="layer"
     inkscape:label="TT_Logo_2019_RGB_Screen"
     transform="matrix(1.3333333,0,0,-1.3333333,0,229.78933)"><path
       d="M 0,0 H 695.242 V 172.342 H 0 Z"
       style="fill:#ffffff;fill-opacity:1;fill-rule:nonzero;stroke:none"
       id="path17" /><g
       id="g19"><g
         id="g21"><g
           id="g27"><g
             id="g29"><path
               d="m 574.294,124.069 c -20.37,-4.226 -33.412,-23.805 -29.075,-43.644 v 0 c 4.337,-19.842 24.437,-32.548 44.808,-28.322 v 0 c 20.369,4.224 33.414,23.803 29.076,43.645 v 0 c -3.775,17.268 -19.492,29.131 -36.935,29.131 v 0 c -2.598,0 -5.234,-0.263 -7.874,-0.81"
               style="fill:url(#radialGradient39);stroke:none"
               id="path41" /></g></g></g></g><g
       id="g43"><g
         id="g45"
         clip-path="url(#clipPath49)"><g
           id="g51"
           transform="translate(153.29,114.8947)"><path
             d="m 0,0 h -50.169 c -2.073,0 -3.107,-3.603 -3.107,-7.204 0,-3.6 1.034,-7.2 3.107,-7.2 h 17.69 v -40.017 c 0,-2.02 3.697,-3.026 7.395,-3.026 3.697,0 7.395,1.006 7.395,3.026 v 40.017 H 0 c 2.071,0 3.107,3.6 3.107,7.2 C 3.107,-3.603 2.071,0 0,0"
             style="fill:#000000;fill-opacity:1;fill-rule:nonzero;stroke:none"
             id="path53" /></g><g
           id="g55"
           transform="translate(188.7764,71.8503)"><path
             d="M 0,0 C 8.263,0 14.962,6.526 14.962,14.574 14.962,22.625 8.263,29.15 0,29.15 -8.266,29.15 -14.965,22.625 -14.965,14.574 -14.965,6.526 -8.266,0 0,0 m -29.754,14.574 c 0,16.008 13.32,28.981 29.754,28.981 16.431,0 29.752,-12.973 29.752,-28.981 0,-16.003 -13.321,-28.977 -29.752,-28.977 -16.434,0 -29.754,12.974 -29.754,28.977"
             style="fill:#000000;fill-opacity:1;fill-rule:nonzero;stroke:none"
             id="path57" /></g><g
           id="g59"
           transform="translate(314.1636,90.6964)"><path
             d="m 0,0 c 0,13.646 -11.356,24.709 -25.368,24.709 -7.024,0 -13.379,-2.786 -17.973,-7.276 -4.594,4.492 -10.949,7.276 -17.974,7.276 -14.012,0 -25.37,-11.063 -25.37,-24.709 l -0.001,-30.223 c 0,-2.02 3.699,-3.026 7.397,-3.026 3.696,0 7.392,1.006 7.392,3.026 V 0 c 0,5.691 4.738,10.304 10.582,10.304 5.842,0 10.58,-4.613 10.58,-10.304 l -10e-4,-30.223 c 0,-2.02 3.698,-3.026 7.392,-3.026 3.698,0 7.394,1.006 7.394,3.026 V 0 c 0,5.691 4.74,10.304 10.582,10.304 5.844,0 10.58,-4.613 10.58,-10.304 v -30.223 c 0,-2.02 3.697,-3.026 7.394,-3.026 3.697,0 7.394,1.006 7.394,3.026 z"
             style="fill:#000000;fill-opacity:1;fill-rule:nonzero;stroke:none"
             id="path61" /></g><g
           id="g63"
           transform="translate(533.001,90.6964)"><path
             d="m 0,0 c 0,13.646 -11.356,24.709 -25.369,24.709 -7.025,0 -13.377,-2.786 -17.972,-7.276 -4.593,4.492 -10.95,7.276 -17.975,7.276 -14.009,0 -25.37,-11.063 -25.37,-24.709 v -30.223 c 0,-2.02 3.699,-3.026 7.395,-3.026 3.697,0 7.394,1.006 7.394,3.026 V 0 c 0,5.691 4.737,10.304 10.581,10.304 5.843,0 10.58,-4.613 10.58,-10.304 v -30.223 c 0,-2.02 3.699,-3.026 7.395,-3.026 3.696,0 7.395,1.006 7.395,3.026 V 0 c 0,5.691 4.737,10.304 10.577,10.304 5.846,0 10.582,-4.613 10.582,-10.304 v -30.223 c 0,-2.02 3.697,-3.026 7.393,-3.026 3.697,0 7.394,1.006 7.394,3.026 z"
             style="fill:#000000;fill-opacity:1;fill-rule:nonzero;stroke:none"
             id="path65" /></g><g
           id="g67"
           transform="translate(372.1841,114.8947)"><path
             d="m 0,0 h -50.171 c -2.07,0 -3.106,-3.603 -3.106,-7.204 0,-3.6 1.036,-7.2 3.106,-7.2 h 17.691 v -40.017 c 0,-2.02 3.697,-3.026 7.394,-3.026 3.696,0 7.393,1.006 7.393,3.026 v 40.017 H 0 c 2.068,0 3.106,3.6 3.106,7.2 C 3.106,-3.603 2.068,0 0,0"
             style="fill:#000000;fill-opacity:1;fill-rule:nonzero;stroke:none"
             id="path69" /></g><g
           id="g71"
           transform="translate(407.6138,71.8503)"><path
             d="M 0,0 C 8.263,0 14.965,6.526 14.965,14.574 14.965,22.625 8.263,29.15 0,29.15 -8.268,29.15 -14.962,22.625 -14.962,14.574 -14.962,6.526 -8.268,0 0,0 m -29.754,14.574 c 0,16.008 13.323,28.981 29.754,28.981 16.43,0 29.751,-12.973 29.751,-28.981 0,-16.003 -13.321,-28.977 -29.751,-28.977 -16.431,0 -29.754,12.974 -29.754,28.977"
             style="fill:#000000;fill-opacity:1;fill-rule:nonzero;stroke:none"
             id="path73" /></g><g
           id="g75"
           transform="translate(592.2344,71.8366)"><path
             d="m 0,0 c -0.997,0.773 -2.926,1.12 -4.782,-0.449 l -0.177,-0.156 c -2.601,-2.327 -6.955,-6.219 -10.428,-5.427 -2.589,0.59 -2.901,2.865 -2.742,5.117 0.029,0.588 0.1,1.173 0.186,1.724 l 0.007,0.048 -0.004,-0.036 c 0.069,0.447 0.148,0.873 0.224,1.255 0.335,1.651 3.087,13.469 4.516,19.539 0.211,0.878 0.415,1.988 0.297,2.826 -0.181,1.299 -1.239,1.745 -2.682,2.1 -1.719,0.364 -4.012,-0.295 -4.639,-2.205 -0.682,-2.226 -1.446,-5.272 -3.319,-14.422 -0.104,-0.432 -0.21,-0.937 -0.367,-1.406 l 0.026,0.07 c -0.318,-0.974 -0.637,-1.954 -1.991,-1.695 -1.232,0.342 -1.31,1.704 -1.365,2.699 l -0.012,0.206 -0.088,2.28 c -0.179,3.443 -0.176,7.075 0.009,11.103 l 0.133,2.368 0.184,3.889 c 0.046,1.083 -0.077,1.636 -0.646,2.106 -0.537,0.442 -1.409,0.539 -2.475,0.355 -0.854,-0.156 -1.687,-0.501 -2.273,-1.143 -0.539,-0.632 -0.762,-1.432 -0.84,-2.237 -0.19,-1.983 -0.332,-3.971 -0.429,-5.961 -0.188,-3.983 -0.201,-7.971 -0.053,-11.957 0.011,-0.291 0.019,-0.557 0.019,-0.806 l 10e-4,0.048 V 9.755 9.745 c 0.026,-2.003 -0.267,-2.683 -1.39,-2.74 -1.234,-0.037 -1.595,1.062 -1.817,1.943 l -0.145,0.585 c -0.482,2.335 -0.897,4.683 -1.236,6.976 l -0.235,1.388 c -0.404,2.372 -0.67,3.939 -0.919,6.045 -0.058,0.407 -0.183,1.161 -0.753,1.412 -0.287,0.126 -0.81,0.245 -1.694,-0.226 -2.229,-1.218 -2.028,-3.571 -2.028,-3.571 0.045,-1.796 0.194,-3.932 0.404,-5.715 0.492,-4.145 1.01,-6.847 1.749,-10.172 0.021,-0.102 0.043,-0.207 0.061,-0.316 0.18,-0.964 0.142,-1.658 -0.283,-1.967 -0.247,-0.176 -0.608,-0.213 -0.97,-0.092 -0.718,0.241 -1.379,1.479 -1.653,2.089 l -0.064,0.137 c -1.075,2.485 -1.926,5.268 -2.708,8.011 l -0.057,0.191 c 0,0 -0.161,0.541 -0.615,0.628 -0.414,0.079 -0.851,0.02 -1.538,-0.761 -0.958,-1.166 -0.185,-4.016 0.138,-5.626 1.663,-8.254 8.447,-21.158 20.982,-26.041 9.662,-3.764 15.662,1.021 27.821,11.412 0.984,0.841 2.113,2.225 2.411,3.542 0.123,0.64 0.028,1.128 -0.485,1.832 C 0.859,-0.738 0.404,-0.34 0,0"
             style="fill:#df1b12;fill-opacity:1;fill-rule:nonzero;stroke:none"
             id="path77" /></g><g
           id="g79"
           transform="translate(619.791,101.2609)"><path
             d="m 0,0 c -3.729,10.785 -10.072,15.588 -11.151,16.411 -0.38,0.29 -2.443,1.903 -3.641,2.186 -0.402,0.096 -0.602,0.146 -1.021,0.155 l -0.098,-10e-4 c -0.161,-0.003 -0.35,-0.02 -0.494,-0.094 -0.181,-0.094 -0.205,-0.26 -0.198,-0.441 0.023,-0.413 0.581,-1.093 1.419,-1.885 1.759,-1.664 4.364,-4.417 5.256,-5.641 0.541,-0.742 0.819,-1.689 -0.04,-2.195 -0.189,-0.098 -0.553,-0.234 -1.105,0.055 -0.28,0.142 -0.637,0.399 -1.11,0.848 -2.646,2.514 -8.802,7.679 -12.569,10.122 -1.716,1.112 -3.168,1.253 -4.57,0.97 0,0 -0.865,-0.2 -1.124,-0.809 -0.26,-0.609 0.42,-1.251 0.42,-1.251 1.654,-1.432 9.736,-8.343 11.116,-9.866 1.306,-1.44 1.329,-2.224 0.821,-2.729 -0.731,-0.727 -1.885,-0.043 -2.203,0.153 l 0.087,-0.046 c -0.275,0.161 -0.586,0.376 -0.946,0.661 -3.94,3.118 -12.743,8.628 -14.8,9.63 -2.257,1.099 -3.07,1.453 -5.084,0.395 0,0 -1.311,-0.661 -1.403,-1.677 -0.071,-0.779 0.343,-1.354 1.116,-1.864 8.549,-5.64 10.392,-6.583 17.175,-11.581 0.521,-0.384 1.724,-1.465 0.639,-2.521 -0.333,-0.323 -0.925,-0.325 -1.364,-0.229 -0.732,0.191 -1.383,0.511 -2.033,0.89 -3.719,2.166 -10.191,5.427 -13.608,6.703 -2.359,0.879 -3.814,-0.018 -4.712,-1.17 -0.679,-0.929 -0.866,-2.032 -0.692,-2.741 0.218,-0.884 1.124,-1.442 1.735,-1.792 4.807,-2.723 8.521,-4.321 13.247,-7.171 1.496,-0.885 1.747,-1.006 3.204,-1.951 1.667,-1.09 4.228,-2.672 4.852,-4.7 0.143,-0.355 0.229,-0.971 0.224,-1.344 -0.013,-0.933 -0.284,-1.853 -1.593,-2.721 -2.31,-1.533 -6.424,-1.083 -10.029,-0.847 -0.762,0.049 -2.07,0.138 -2.856,0.141 -1.881,0.007 -2.888,-0.451 -3.458,-1.308 -0.51,-0.772 -0.557,-2.113 -0.557,-2.777 0,-0.063 0.019,-0.377 0.06,-0.674 0.058,-0.421 0.203,-0.674 0.331,-0.851 0.849,-1.054 2.519,-1.385 4.403,-1.597 3.357,-0.19 6.892,-0.253 10.985,-0.331 9.581,-0.183 20.449,0.392 24.71,6.065 C 2.413,-15.329 2.21,-6.272 0,0"
             style="fill:#df1b12;fill-opacity:1;fill-rule:nonzero;stroke:none"
             id="path81" /></g></g></g></g></svg>
