<?xml version="1.0" encoding="UTF-8" standalone="no"?>
<!-- Created with Inkscape (http://www.inkscape.org/) -->

<svg
   width="1501.3865mm"
   height="1501.3865mm"
   viewBox="0 0 1501.3865 1501.3866"
   version="1.1"
   id="svg18630"
   xml:space="preserve"
   inkscape:version="1.2.2 (732a01da63, 2022-12-09)"
   sodipodi:docname="osm ICO.svg"
   inkscape:export-filename="osm.jpg"
   inkscape:export-xdpi="96"
   inkscape:export-ydpi="96"
   xmlns:inkscape="http://www.inkscape.org/namespaces/inkscape"
   xmlns:sodipodi="http://sodipodi.sourceforge.net/DTD/sodipodi-0.dtd"
   xmlns:xlink="http://www.w3.org/1999/xlink"
   xmlns="http://www.w3.org/2000/svg"
   xmlns:svg="http://www.w3.org/2000/svg"><sodipodi:namedview
     id="namedview18632"
     pagecolor="#ffffff"
     bordercolor="#111111"
     borderopacity="1"
     inkscape:showpageshadow="0"
     inkscape:pageopacity="0"
     inkscape:pagecheckerboard="1"
     inkscape:deskcolor="#d1d1d1"
     inkscape:document-units="mm"
     showgrid="false"
     inkscape:zoom="0.01"
     inkscape:cx="-30600"
     inkscape:cy="-4300"
     inkscape:window-width="1920"
     inkscape:window-height="1009"
     inkscape:window-x="-8"
     inkscape:window-y="-8"
     inkscape:window-maximized="1"
     inkscape:current-layer="g1785" /><defs
     id="defs18627"><linearGradient
       id="linearGradient28964"><stop
         offset="0"
         id="stop28960"
         style="stop-color:#000000;stop-opacity:1;" /><stop
         offset="1"
         stop-opacity="0"
         id="stop28962" /></linearGradient><linearGradient
       id="c"><stop
         offset="0"
         stop-color="#2d3335"
         id="stop26717" /><stop
         offset=".5"
         stop-color="#4c464a"
         id="stop26719" /><stop
         offset="1"
         stop-color="#384042"
         id="stop26721" /></linearGradient><linearGradient
       id="a"><stop
         offset="0"
         id="stop26724" /><stop
         offset="1"
         stop-opacity="0"
         id="stop26726" /></linearGradient><linearGradient
       xlink:href="#a"
       id="y"
       x1="94.25"
       x2="9"
       y1="-94.671997"
       y2="-179.97"
       gradientUnits="userSpaceOnUse" /><linearGradient
       xlink:href="#a"
       id="z"
       x1="50.75"
       x2="35.75"
       y1="-114.44"
       y2="-30.438"
       gradientUnits="userSpaceOnUse" /><linearGradient
       xlink:href="#a"
       id="A"
       x1="77.625"
       x2="115.25"
       y1="-163.12"
       y2="-74.625"
       gradientUnits="userSpaceOnUse" /><linearGradient
       xlink:href="#a"
       id="B"
       x1="56.5"
       x2="125.72"
       y1="-50.438"
       y2="7.0625"
       gradientUnits="userSpaceOnUse" /><linearGradient
       xlink:href="#a"
       id="C"
       x1="35"
       x2="180.75"
       y1="-163.3"
       y2="-146.8"
       gradientUnits="userSpaceOnUse" /><linearGradient
       xlink:href="#a"
       id="D"
       x1="57"
       x2="179"
       y1="-141.11"
       y2="-41.609001"
       gradientUnits="userSpaceOnUse" /><linearGradient
       xlink:href="#a"
       id="E"
       x1="156"
       x2="208.25"
       y1="-26.5"
       y2="39.75"
       gradientUnits="userSpaceOnUse" /><linearGradient
       xlink:href="#a"
       id="F"
       x1="142.75"
       x2="235"
       y1="-169.3"
       y2="-77.296997"
       gradientUnits="userSpaceOnUse" /><linearGradient
       xlink:href="#b"
       id="q"
       x1="214.25"
       x2="166.5"
       y1="-161.36"
       y2="-113.72"
       gradientUnits="userSpaceOnUse" /><linearGradient
       id="b"><stop
         offset="0"
         stop-color="#fff"
         id="stop26738" /><stop
         offset="1"
         stop-color="#fff"
         stop-opacity="0"
         id="stop26740" /></linearGradient><linearGradient
       xlink:href="#b"
       id="r"
       x1="53.25"
       x2="57.655998"
       y1="-126.5"
       y2="-62.469002"
       gradientUnits="userSpaceOnUse" /><linearGradient
       xlink:href="#b"
       id="s"
       x1="39.5"
       x2="75.719002"
       y1="6.625"
       y2="-17.125"
       gradientUnits="userSpaceOnUse" /><linearGradient
       xlink:href="#b"
       id="t"
       x1="102"
       x2="85.311996"
       y1="-162.34"
       y2="-121.44"
       gradientUnits="userSpaceOnUse" /><linearGradient
       xlink:href="#b"
       id="u"
       x1="117.75"
       x2="63.5"
       y1="-78.094002"
       y2="-14.75"
       gradientUnits="userSpaceOnUse" /><linearGradient
       xlink:href="#b"
       id="v"
       x1="180.69"
       x2="133.94"
       y1="-125.12"
       y2="-60.75"
       gradientUnits="userSpaceOnUse" /><linearGradient
       xlink:href="#b"
       id="w"
       x1="170.75"
       x2="130.22"
       y1="-23.5"
       y2="33.375"
       gradientUnits="userSpaceOnUse" /><linearGradient
       xlink:href="#b"
       id="x"
       x1="213.5"
       x2="181.75"
       y1="-76"
       y2="-5.6563001"
       gradientUnits="userSpaceOnUse" /><linearGradient
       id="I"
       x1="120"
       x2="136"
       y1="186.5"
       y2="186.5"
       gradientTransform="matrix(0.42123854,0.42123854,-0.42123854,0.42123854,-136.08502,2.1615483)"
       gradientUnits="userSpaceOnUse"><stop
         offset="0"
         stop-color="#f9e295"
         id="stop26750" /><stop
         offset=".125"
         stop-color="#f7dd84"
         id="stop26752" /><stop
         offset=".20581"
         stop-color="#fff"
         id="stop26754" /><stop
         offset=".30113"
         stop-color="#f4ce51"
         id="stop26756" /><stop
         offset=".3412"
         stop-color="#f9e7aa"
         id="stop26758" /><stop
         offset="1"
         stop-color="#efbb0e"
         id="stop26760" /></linearGradient><linearGradient
       id="N"
       x1="123"
       x2="133"
       y1="150.38"
       y2="150.38"
       gradientTransform="matrix(-0.84245967,-0.84245967,-0.74556669,0.74556669,90.395995,99.193567)"
       gradientUnits="userSpaceOnUse"><stop
         offset="0"
         stop-color="#2d3335"
         id="stop26763" /><stop
         offset=".5"
         stop-color="#4c464a"
         id="stop26765" /><stop
         offset="1"
         stop-color="#384042"
         id="stop26767" /></linearGradient><linearGradient
       id="M"
       x1="120"
       x2="136"
       y1="186.5"
       y2="186.5"
       gradientTransform="matrix(0.42123854,0.42123854,-0.42123854,0.42123854,-107.86125,-26.06055)"
       gradientUnits="userSpaceOnUse"><stop
         offset="0"
         stop-color="#f9e295"
         id="stop26770" /><stop
         offset=".125"
         stop-color="#f7dd84"
         id="stop26772" /><stop
         offset=".20581"
         stop-color="#fff"
         id="stop26774" /><stop
         offset=".30113"
         stop-color="#f4ce51"
         id="stop26776" /><stop
         offset=".3412"
         stop-color="#f9e7aa"
         id="stop26778" /><stop
         offset="1"
         stop-color="#efbb0e"
         id="stop26780" /></linearGradient><linearGradient
       xlink:href="#c"
       id="L"
       x1="123"
       x2="133"
       y1="150.38"
       y2="150.38"
       gradientTransform="matrix(-0.42123961,-0.42123961,-0.42123961,0.42123961,-0.02556847,81.77518)"
       gradientUnits="userSpaceOnUse" /><linearGradient
       xlink:href="#c"
       id="K"
       x1="128"
       x2="130.88"
       y1="134.36"
       y2="143.36"
       gradientTransform="matrix(0.42123854,0.42123854,-0.42123854,0.42123854,-107.86125,-26.06055)"
       gradientUnits="userSpaceOnUse" /><linearGradient
       xlink:href="#linearGradient28964"
       id="O"
       x1="108"
       x2="133"
       y1="167.73"
       y2="150.38"
       gradientTransform="matrix(-0.84245967,-0.84245967,-0.74556669,0.74556669,90.395995,99.193567)"
       gradientUnits="userSpaceOnUse" /><linearGradient
       id="P"
       x1="126.64"
       x2="179.96001"
       y1="29.815001"
       y2="137.2"
       gradientTransform="matrix(0.42796924,0,0,0.42796924,-164.7556,23.224564)"
       gradientUnits="userSpaceOnUse"><stop
         offset="0"
         stop-color="#fff"
         id="stop26786" /><stop
         offset="1"
         stop-color="#fff"
         stop-opacity="0"
         id="stop26788" /></linearGradient><linearGradient
       id="S"
       x1="126.64"
       x2="179.96001"
       y1="29.815001"
       y2="137.2"
       gradientTransform="matrix(-0.21524551,0.08490964,0.08439649,-0.18511612,-46.567328,80.324361)"
       gradientUnits="userSpaceOnUse"><stop
         offset="0"
         stop-color="#fff"
         id="stop26791" /><stop
         offset="1"
         stop-color="#fff"
         stop-opacity="0"
         id="stop26793" /></linearGradient><linearGradient
       id="p"
       x1="210.17"
       x2="9"
       y1="72.064003"
       y2="-213.25"
       gradientTransform="translate(0,192)"
       gradientUnits="userSpaceOnUse"><stop
         offset="0"
         id="stop26796" /><stop
         offset="1"
         stop-opacity="0"
         id="stop26798" /></linearGradient><linearGradient
       id="g"
       x1="122"
       x2="122"
       y1="245.45"
       y2="4.302"
       gradientUnits="userSpaceOnUse"><stop
         offset="0"
         id="stop26801" /><stop
         offset="1"
         stop-opacity="0"
         id="stop26803" /></linearGradient><linearGradient
       id="e"
       x1="210.17"
       x2="9"
       y1="72.064003"
       y2="-213.25"
       gradientTransform="matrix(1,-0.08088,0,1,0,203.06)"
       gradientUnits="userSpaceOnUse"><stop
         offset="0"
         id="stop26806" /><stop
         offset="1"
         stop-opacity="0"
         id="stop26808" /></linearGradient><clipPath
       id="k"
       clipPathUnits="userSpaceOnUse"><path
         fill="#ceeeab"
         d="m 9,12.25 c 0,0 7.5,13 11.75,27.75 C 25,54.75 27,65.5 27,65.5 c 0,0 -5.5,12.75 -8.25,24.75 -2.75,12 -5.75,23 -5.75,23 0,0 5.75,16 9.25,30 3.5,14 3.75,24.25 3.75,24.25 0,0 -4,10.25 -7.5,24.25 -3.5,14 -5,30.75 -5,30.75 0,0 9.25,-2 28.5,1.25 19.25,3.25 32.25,6 32.25,6 0,0 12.75,-2.75 24,-6.25 11.25,-3.5 16.25,-6.5 16.25,-6.5 0,0 5.5,0.5 22.5,6.25 17,5.75 29.25,8.5 29.25,8.5 0,0 13,-2.75 26,-5.75 13,-3 26.5,-8 26.5,-8 0,0 -0.75,-5 4.25,-24.5 5,-19.5 8.75,-28 8.75,-28 0,0 -0.5,-4.5 -3.75,-19.75 C 224.75,130.5 218,116 218,116 c 0,0 1.75,-10.5 6.75,-23.75 C 229.75,79 235,65.5 235,65.5 c 0,0 -4.75,-15.25 -7.5,-29.75 C 224.75,21.25 219.25,10 219.25,10 c 0,0 -24.25,9 -31.75,10.5 -7.5,1.5 -21,5.25 -21,5.25 0,0 -9.75,-4.25 -22,-8.5 -12.25,-4.25 -29.75,-5.5 -29.75,-5.5 0,0 -3.25,3.5 -22,8 -18.75,4.5 -27.5,5.75 -27.5,5.75 0,0 -18.5,-9 -31.5,-11.5 -13,-2.5 -24,-2 -24.75,-1.75 z"
         id="path26814" /></clipPath><clipPath
       id="m"
       clipPathUnits="userSpaceOnUse"><path
         fill="#ceeeab"
         d="m 9,12.25 c 0,0 7.5,13 11.75,27.75 C 25,54.75 27,65.5 27,65.5 c 0,0 -5.5,12.75 -8.25,24.75 -2.75,12 -5.75,23 -5.75,23 0,0 5.75,16 9.25,30 3.5,14 3.75,24.25 3.75,24.25 0,0 -4,10.25 -7.5,24.25 -3.5,14 -5,30.75 -5,30.75 0,0 9.25,-2 28.5,1.25 19.25,3.25 32.25,6 32.25,6 0,0 12.75,-2.75 24,-6.25 11.25,-3.5 16.25,-6.5 16.25,-6.5 0,0 5.5,0.5 22.5,6.25 17,5.75 29.25,8.5 29.25,8.5 0,0 13,-2.75 26,-5.75 13,-3 26.5,-8 26.5,-8 0,0 -0.75,-5 4.25,-24.5 5,-19.5 8.75,-28 8.75,-28 0,0 -0.5,-4.5 -3.75,-19.75 C 224.75,130.5 218,116 218,116 c 0,0 1.75,-10.5 6.75,-23.75 C 229.75,79 235,65.5 235,65.5 c 0,0 -4.75,-15.25 -7.5,-29.75 C 224.75,21.25 219.25,10 219.25,10 c 0,0 -24.25,9 -31.75,10.5 -7.5,1.5 -21,5.25 -21,5.25 0,0 -9.75,-4.25 -22,-8.5 -12.25,-4.25 -29.75,-5.5 -29.75,-5.5 0,0 -3.25,3.5 -22,8 -18.75,4.5 -27.5,5.75 -27.5,5.75 0,0 -18.5,-9 -31.5,-11.5 -13,-2.5 -24,-2 -24.75,-1.75 z"
         id="path26820" /></clipPath><clipPath
       id="n"
       clipPathUnits="userSpaceOnUse"><path
         fill="#ceeeab"
         d="m 9,12.25 c 0,0 7.5,13 11.75,27.75 C 25,54.75 27,65.5 27,65.5 c 0,0 -5.5,12.75 -8.25,24.75 -2.75,12 -5.75,23 -5.75,23 0,0 5.75,16 9.25,30 3.5,14 3.75,24.25 3.75,24.25 0,0 -4,10.25 -7.5,24.25 -3.5,14 -5,30.75 -5,30.75 0,0 9.25,-2 28.5,1.25 19.25,3.25 32.25,6 32.25,6 0,0 12.75,-2.75 24,-6.25 11.25,-3.5 16.25,-6.5 16.25,-6.5 0,0 5.5,0.5 22.5,6.25 17,5.75 29.25,8.5 29.25,8.5 0,0 13,-2.75 26,-5.75 13,-3 26.5,-8 26.5,-8 0,0 -0.75,-5 4.25,-24.5 5,-19.5 8.75,-28 8.75,-28 0,0 -0.5,-4.5 -3.75,-19.75 C 224.75,130.5 218,116 218,116 c 0,0 1.75,-10.5 6.75,-23.75 C 229.75,79 235,65.5 235,65.5 c 0,0 -4.75,-15.25 -7.5,-29.75 C 224.75,21.25 219.25,10 219.25,10 c 0,0 -24.25,9 -31.75,10.5 -7.5,1.5 -21,5.25 -21,5.25 0,0 -9.75,-4.25 -22,-8.5 -12.25,-4.25 -29.75,-5.5 -29.75,-5.5 0,0 -3.25,3.5 -22,8 -18.75,4.5 -27.5,5.75 -27.5,5.75 0,0 -18.5,-9 -31.5,-11.5 -13,-2.5 -24,-2 -24.75,-1.75 z"
         id="path26823" /></clipPath><clipPath
       id="o"
       clipPathUnits="userSpaceOnUse"><path
         fill="#ceeeab"
         d="m 9,12.25 c 0,0 7.5,13 11.75,27.75 C 25,54.75 27,65.5 27,65.5 c 0,0 -5.5,12.75 -8.25,24.75 -2.75,12 -5.75,23 -5.75,23 0,0 5.75,16 9.25,30 3.5,14 3.75,24.25 3.75,24.25 0,0 -4,10.25 -7.5,24.25 -3.5,14 -5,30.75 -5,30.75 0,0 9.25,-2 28.5,1.25 19.25,3.25 32.25,6 32.25,6 0,0 12.75,-2.75 24,-6.25 11.25,-3.5 16.25,-6.5 16.25,-6.5 0,0 5.5,0.5 22.5,6.25 17,5.75 29.25,8.5 29.25,8.5 0,0 13,-2.75 26,-5.75 13,-3 26.5,-8 26.5,-8 0,0 -0.75,-5 4.25,-24.5 5,-19.5 8.75,-28 8.75,-28 0,0 -0.5,-4.5 -3.75,-19.75 C 224.75,130.5 218,116 218,116 c 0,0 1.75,-10.5 6.75,-23.75 C 229.75,79 235,65.5 235,65.5 c 0,0 -4.75,-15.25 -7.5,-29.75 C 224.75,21.25 219.25,10 219.25,10 c 0,0 -24.25,9 -31.75,10.5 -7.5,1.5 -21,5.25 -21,5.25 0,0 -9.75,-4.25 -22,-8.5 -12.25,-4.25 -29.75,-5.5 -29.75,-5.5 0,0 -3.25,3.5 -22,8 -18.75,4.5 -27.5,5.75 -27.5,5.75 0,0 -18.5,-9 -31.5,-11.5 -13,-2.5 -24,-2 -24.75,-1.75 z"
         id="path26826" /></clipPath><clipPath
       id="l"
       clipPathUnits="userSpaceOnUse"><path
         fill="url(#d)"
         d="m 123.62,141.06 c 20.832,20.243 54.607,19.289 75.439,-2.132 20.832,-21.421 20.832,-55.196 0,-75.439 -20.832,-20.243 -54.607,-19.289 -75.439,2.132 -20.832,21.421 -20.832,55.196 0,75.439 z"
         id="path26829" /></clipPath><clipPath
       id="G"
       clipPathUnits="userSpaceOnUse"><path
         fill="url(#e)"
         d="m 9,22.578 c 0,0 7.5,12.393 11.75,26.8 C 25,63.784 27,74.373 27,74.373 c 0,0 -5.5,13.195 -8.25,25.417 C 16,112.01 13,123.25 13,123.25 c 0,0 5.75,15.535 9.25,29.252 3.5,13.717 3.75,23.947 3.75,23.947 0,0 -4,10.574 -7.5,24.857 -3.5,14.283 -5,31.154 -5,31.154 0,0 9.25,-2.7481 28.5,-1.055 19.25,1.6931 32.25,3.3917 32.25,3.3917 0,0 12.75,-3.7812 24,-8.1911 11.25,-4.4099 16.25,-7.8143 16.25,-7.8143 0,0 5.5,0.0552 22.5,4.4302 17,4.3751 29.25,6.1343 29.25,6.1343 0,0 13,-3.8014 26,-7.8528 13,-4.0514 26.5,-10.143 26.5,-10.143 0,0 -0.75,-4.9393 4.25,-24.844 5,-19.904 8.75,-28.708 8.75,-28.708 0,0 -0.5145,-4.4553 -3.75,-19.447 -1.75,-8.1085 -2.25,-4.068 -2.25,-4.068 0,0 16.264,-26.155 16.5,-40.334 C 242.5,78.939 235,57.546 235,57.546 c 0,0 -4.75,-14.866 -7.5,-29.143 -2.75,-14.278 -8.25,-25.083 -8.25,-25.083 0,0 -24.25,10.961 -31.75,13.068 -7.5,2.1066 -21,6.9484 -21,6.9484 0,0 -9.75,-3.4614 -22,-6.7207 -12.25,-3.2592 -29.75,-3.0939 -29.75,-3.0939 0,0 -3.25,3.7629 -22,9.7793 -18.75,6.0165 -27.5,7.9741 -27.5,7.9741 0,0 -18.5,-7.5038 -31.5,-8.9524 -13,-1.4486 -24,-0.05894 -24.75,0.25172 z"
         opacity="0.03913"
         id="path26832" /></clipPath><radialGradient
       id="J"
       cx="128"
       cy="86"
       r="47"
       gradientTransform="matrix(0.43019779,0.43019779,0.43019779,-0.43019779,-182.23305,46.015265)"
       gradientUnits="userSpaceOnUse"><stop
         offset="0"
         stop-color="#d0e9f2"
         stop-opacity="0"
         id="stop26835" /><stop
         offset=".83933"
         stop-color="#d0e9f2"
         stop-opacity="0"
         id="stop26837" /><stop
         offset=".94309"
         stop-color="#d0e9f2"
         stop-opacity=".28185"
         id="stop26839" /><stop
         offset="1"
         stop-color="#d0e9f2"
         id="stop26841" /></radialGradient><radialGradient
       id="R"
       cx="159.61"
       cy="72.587997"
       r="38.417"
       gradientTransform="matrix(0.51891453,0,0,0.3591286,-186.86257,12.180879)"
       gradientUnits="userSpaceOnUse"><stop
         offset="0"
         stop-color="#fff"
         id="stop26844" /><stop
         offset=".5"
         stop-color="#fff"
         stop-opacity=".9305"
         id="stop26846" /><stop
         offset="1"
         stop-color="#fff"
         stop-opacity="0"
         id="stop26848" /></radialGradient><radialGradient
       id="Q"
       cx="159.61"
       cy="72.587997"
       r="38.417"
       gradientTransform="matrix(0.51891453,0,0,0.3591286,-186.67939,12.731247)"
       gradientUnits="userSpaceOnUse"><stop
         offset="0"
         stop-color="#fff"
         id="stop26851" /><stop
         offset="1"
         stop-color="#fff"
         stop-opacity="0"
         id="stop26853" /></radialGradient><radialGradient
       id="d"
       cx="128"
       cy="86"
       r="47"
       gradientTransform="matrix(0.80254,0.77986,0.80254,-0.82522,-10.402,73.423)"
       gradientUnits="userSpaceOnUse"><stop
         offset="0"
         stop-color="#d0e9f2"
         stop-opacity="0"
         id="stop26856" /><stop
         offset=".83933"
         stop-color="#d0e9f2"
         stop-opacity="0"
         id="stop26858" /><stop
         offset=".94309"
         stop-color="#d0e9f2"
         stop-opacity=".28185"
         id="stop26860" /><stop
         offset="1"
         stop-color="#d0e9f2"
         id="stop26862" /></radialGradient><filter
       id="H"
       x="-0.047999725"
       y="-0.047999926"
       width="1.0959994"
       height="1.096"><feGaussianBlur
         stdDeviation="4.2868936"
         id="feGaussianBlur26865" /></filter><filter
       id="f"
       x="-0.07066302"
       y="-0.070663318"
       width="1.141326"
       height="1.1413265"><feGaussianBlur
         stdDeviation="6.3109704"
         id="feGaussianBlur26868" /></filter><filter
       id="h"
       x="-0.047336284"
       y="-0.048682593"
       width="1.0946726"
       height="1.0973651"><feGaussianBlur
         stdDeviation="4.4575"
         id="feGaussianBlur26871" /></filter><clipPath
       clipPathUnits="userSpaceOnUse"
       id="clipPath27401"><g
         id="g27405"><path
           fill="#ceeeab"
           d="m -160.90388,28.467197 c 0,0 3.20977,5.5636 5.02864,11.876147 1.81887,6.312546 2.67481,10.913215 2.67481,10.913215 0,0 -2.35383,5.456608 -3.53075,10.592239 -1.17691,5.135631 -2.46082,9.843292 -2.46082,9.843292 0,0 2.46082,6.847508 3.95872,12.839078 1.49789,5.991569 1.60488,10.378254 1.60488,10.378254 0,0 -1.71188,4.386684 -3.20977,10.378258 -1.49789,5.99157 -2.13985,13.16005 -2.13985,13.16005 0,0 3.95872,-0.85594 12.19713,0.53496 8.23841,1.3909 13.80201,2.56782 13.80201,2.56782 0,0 5.4566,-1.17692 10.27126,-2.67481 4.81465,-1.49789 6.9545,-2.7818 6.9545,-2.7818 0,0 2.35383,0.21398 9.62931,2.67481 7.275473,2.46082 12.518096,3.63774 12.518096,3.63774 0,0 5.5636,-1.17692 11.1272,-2.46083 5.563601,-1.28391 11.341185,-3.42375 11.341185,-3.42375 0,0 -0.320977,-2.13985 1.81887,-10.48525 2.139846,-8.345398 3.74473,-11.983137 3.74473,-11.983137 0,0 -0.213984,-1.925861 -1.604884,-8.452392 -1.3909,-6.526531 -4.279693,-12.732085 -4.279693,-12.732085 0,0 0.748946,-4.493677 2.888793,-10.16427 2.139846,-5.670592 4.386684,-11.448177 4.386684,-11.448177 0,0 -2.032853,-6.526531 -3.209769,-12.732085 -1.176915,-6.205554 -3.530746,-11.020208 -3.530746,-11.020208 0,0 -10.378254,3.851724 -13.588023,4.493677 -3.20977,0.641954 -8.987355,2.246839 -8.987355,2.246839 0,0 -4.1727,-1.818869 -9.415318,-3.637739 -5.24263,-1.818869 -12.73209,-2.35383 -12.73209,-2.35383 0,0 -1.3909,1.497892 -9.41532,3.423753 -8.02443,1.925862 -11.76916,2.460824 -11.76916,2.460824 0,0 -7.91743,-3.851724 -13.48103,-4.921647 -5.5636,-1.069923 -10.27126,-0.855938 -10.59224,-0.748946 z"
           id="path27403"
           style="stroke-width:0.427969" /></g></clipPath><clipPath
       clipPathUnits="userSpaceOnUse"
       id="clipPath28936"><g
         id="g28940"><path
           fill="#ceeeab"
           d="m -160.90388,28.467197 c 0,0 3.20977,5.5636 5.02864,11.876147 1.81887,6.312546 2.67481,10.913215 2.67481,10.913215 0,0 -2.35383,5.456608 -3.53075,10.592239 -1.17691,5.135631 -2.46082,9.843292 -2.46082,9.843292 0,0 2.46082,6.847508 3.95872,12.839078 1.49789,5.991569 1.60488,10.378254 1.60488,10.378254 0,0 -1.71188,4.386684 -3.20977,10.378258 -1.49789,5.99157 -2.13985,13.16005 -2.13985,13.16005 0,0 3.95872,-0.85594 12.19713,0.53496 8.23841,1.3909 13.80201,2.56782 13.80201,2.56782 0,0 5.4566,-1.17692 10.27126,-2.67481 4.81465,-1.49789 6.9545,-2.7818 6.9545,-2.7818 0,0 2.35383,0.21398 9.62931,2.67481 7.275473,2.46082 12.518096,3.63774 12.518096,3.63774 0,0 5.5636,-1.17692 11.1272,-2.46083 5.563601,-1.28391 11.341185,-3.42375 11.341185,-3.42375 0,0 -0.320977,-2.13985 1.81887,-10.48525 2.139846,-8.345398 3.74473,-11.983137 3.74473,-11.983137 0,0 -0.213984,-1.925861 -1.604884,-8.452392 -1.3909,-6.526531 -4.279693,-12.732085 -4.279693,-12.732085 0,0 0.748946,-4.493677 2.888793,-10.16427 2.139846,-5.670592 4.386684,-11.448177 4.386684,-11.448177 0,0 -2.032853,-6.526531 -3.209769,-12.732085 -1.176915,-6.205554 -3.530746,-11.020208 -3.530746,-11.020208 0,0 -10.378254,3.851724 -13.588023,4.493677 -3.20977,0.641954 -8.987355,2.246839 -8.987355,2.246839 0,0 -4.1727,-1.818869 -9.415318,-3.637739 -5.24263,-1.818869 -12.73209,-2.35383 -12.73209,-2.35383 0,0 -1.3909,1.497892 -9.41532,3.423753 -8.02443,1.925862 -11.76916,2.460824 -11.76916,2.460824 0,0 -7.91743,-3.851724 -13.48103,-4.921647 -5.5636,-1.069923 -10.27126,-0.855938 -10.59224,-0.748946 z"
           id="path28938"
           style="stroke-width:0.427969" /></g></clipPath><clipPath
       clipPathUnits="userSpaceOnUse"
       id="clipPath28942"><g
         id="g28946"><path
           fill="#ceeeab"
           d="m -160.90388,28.467197 c 0,0 3.20977,5.5636 5.02864,11.876147 1.81887,6.312546 2.67481,10.913215 2.67481,10.913215 0,0 -2.35383,5.456608 -3.53075,10.592239 -1.17691,5.135631 -2.46082,9.843292 -2.46082,9.843292 0,0 2.46082,6.847508 3.95872,12.839078 1.49789,5.991569 1.60488,10.378254 1.60488,10.378254 0,0 -1.71188,4.386684 -3.20977,10.378258 -1.49789,5.99157 -2.13985,13.16005 -2.13985,13.16005 0,0 3.95872,-0.85594 12.19713,0.53496 8.23841,1.3909 13.80201,2.56782 13.80201,2.56782 0,0 5.4566,-1.17692 10.27126,-2.67481 4.81465,-1.49789 6.9545,-2.7818 6.9545,-2.7818 0,0 2.35383,0.21398 9.62931,2.67481 7.275473,2.46082 12.518096,3.63774 12.518096,3.63774 0,0 5.5636,-1.17692 11.1272,-2.46083 5.563601,-1.28391 11.341185,-3.42375 11.341185,-3.42375 0,0 -0.320977,-2.13985 1.81887,-10.48525 2.139846,-8.345398 3.74473,-11.983137 3.74473,-11.983137 0,0 -0.213984,-1.925861 -1.604884,-8.452392 -1.3909,-6.526531 -4.279693,-12.732085 -4.279693,-12.732085 0,0 0.748946,-4.493677 2.888793,-10.16427 2.139846,-5.670592 4.386684,-11.448177 4.386684,-11.448177 0,0 -2.032853,-6.526531 -3.209769,-12.732085 -1.176915,-6.205554 -3.530746,-11.020208 -3.530746,-11.020208 0,0 -10.378254,3.851724 -13.588023,4.493677 -3.20977,0.641954 -8.987355,2.246839 -8.987355,2.246839 0,0 -4.1727,-1.818869 -9.415318,-3.637739 -5.24263,-1.818869 -12.73209,-2.35383 -12.73209,-2.35383 0,0 -1.3909,1.497892 -9.41532,3.423753 -8.02443,1.925862 -11.76916,2.460824 -11.76916,2.460824 0,0 -7.91743,-3.851724 -13.48103,-4.921647 -5.5636,-1.069923 -10.27126,-0.855938 -10.59224,-0.748946 z"
           id="path28944"
           style="stroke-width:0.427969" /></g></clipPath><clipPath
       clipPathUnits="userSpaceOnUse"
       id="clipPath28948"><g
         id="g28952"><path
           fill="#ceeeab"
           d="m -160.90388,28.467197 c 0,0 3.20977,5.5636 5.02864,11.876147 1.81887,6.312546 2.67481,10.913215 2.67481,10.913215 0,0 -2.35383,5.456608 -3.53075,10.592239 -1.17691,5.135631 -2.46082,9.843292 -2.46082,9.843292 0,0 2.46082,6.847508 3.95872,12.839078 1.49789,5.991569 1.60488,10.378254 1.60488,10.378254 0,0 -1.71188,4.386684 -3.20977,10.378258 -1.49789,5.99157 -2.13985,13.16005 -2.13985,13.16005 0,0 3.95872,-0.85594 12.19713,0.53496 8.23841,1.3909 13.80201,2.56782 13.80201,2.56782 0,0 5.4566,-1.17692 10.27126,-2.67481 4.81465,-1.49789 6.9545,-2.7818 6.9545,-2.7818 0,0 2.35383,0.21398 9.62931,2.67481 7.275473,2.46082 12.518096,3.63774 12.518096,3.63774 0,0 5.5636,-1.17692 11.1272,-2.46083 5.563601,-1.28391 11.341185,-3.42375 11.341185,-3.42375 0,0 -0.320977,-2.13985 1.81887,-10.48525 2.139846,-8.345398 3.74473,-11.983137 3.74473,-11.983137 0,0 -0.213984,-1.925861 -1.604884,-8.452392 -1.3909,-6.526531 -4.279693,-12.732085 -4.279693,-12.732085 0,0 0.748946,-4.493677 2.888793,-10.16427 2.139846,-5.670592 4.386684,-11.448177 4.386684,-11.448177 0,0 -2.032853,-6.526531 -3.209769,-12.732085 -1.176915,-6.205554 -3.530746,-11.020208 -3.530746,-11.020208 0,0 -10.378254,3.851724 -13.588023,4.493677 -3.20977,0.641954 -8.987355,2.246839 -8.987355,2.246839 0,0 -4.1727,-1.818869 -9.415318,-3.637739 -5.24263,-1.818869 -12.73209,-2.35383 -12.73209,-2.35383 0,0 -1.3909,1.497892 -9.41532,3.423753 -8.02443,1.925862 -11.76916,2.460824 -11.76916,2.460824 0,0 -7.91743,-3.851724 -13.48103,-4.921647 -5.5636,-1.069923 -10.27126,-0.855938 -10.59224,-0.748946 z"
           id="path28950"
           style="stroke-width:0.427969" /></g></clipPath><clipPath
       clipPathUnits="userSpaceOnUse"
       id="clipPath28954"><g
         id="g28958"><path
           fill="#ceeeab"
           d="m -160.90388,28.467197 c 0,0 3.20977,5.5636 5.02864,11.876147 1.81887,6.312546 2.67481,10.913215 2.67481,10.913215 0,0 -2.35383,5.456608 -3.53075,10.592239 -1.17691,5.135631 -2.46082,9.843292 -2.46082,9.843292 0,0 2.46082,6.847508 3.95872,12.839078 1.49789,5.991569 1.60488,10.378254 1.60488,10.378254 0,0 -1.71188,4.386684 -3.20977,10.378258 -1.49789,5.99157 -2.13985,13.16005 -2.13985,13.16005 0,0 3.95872,-0.85594 12.19713,0.53496 8.23841,1.3909 13.80201,2.56782 13.80201,2.56782 0,0 5.4566,-1.17692 10.27126,-2.67481 4.81465,-1.49789 6.9545,-2.7818 6.9545,-2.7818 0,0 2.35383,0.21398 9.62931,2.67481 7.275473,2.46082 12.518096,3.63774 12.518096,3.63774 0,0 5.5636,-1.17692 11.1272,-2.46083 5.563601,-1.28391 11.341185,-3.42375 11.341185,-3.42375 0,0 -0.320977,-2.13985 1.81887,-10.48525 2.139846,-8.345398 3.74473,-11.983137 3.74473,-11.983137 0,0 -0.213984,-1.925861 -1.604884,-8.452392 -1.3909,-6.526531 -4.279693,-12.732085 -4.279693,-12.732085 0,0 0.748946,-4.493677 2.888793,-10.16427 2.139846,-5.670592 4.386684,-11.448177 4.386684,-11.448177 0,0 -2.032853,-6.526531 -3.209769,-12.732085 -1.176915,-6.205554 -3.530746,-11.020208 -3.530746,-11.020208 0,0 -10.378254,3.851724 -13.588023,4.493677 -3.20977,0.641954 -8.987355,2.246839 -8.987355,2.246839 0,0 -4.1727,-1.818869 -9.415318,-3.637739 -5.24263,-1.818869 -12.73209,-2.35383 -12.73209,-2.35383 0,0 -1.3909,1.497892 -9.41532,3.423753 -8.02443,1.925862 -11.76916,2.460824 -11.76916,2.460824 0,0 -7.91743,-3.851724 -13.48103,-4.921647 -5.5636,-1.069923 -10.27126,-0.855938 -10.59224,-0.748946 z"
           id="path28956"
           style="stroke-width:0.427969" /></g></clipPath><linearGradient
       xlink:href="#linearGradient28964"
       id="y-2"
       x1="94.25"
       x2="9"
       y1="-94.671997"
       y2="-179.97"
       gradientUnits="userSpaceOnUse" /><linearGradient
       xlink:href="#linearGradient28964"
       id="z-6"
       x1="50.75"
       x2="35.75"
       y1="-114.44"
       y2="-30.438"
       gradientUnits="userSpaceOnUse" /><linearGradient
       xlink:href="#linearGradient28964"
       id="A-2"
       x1="77.625"
       x2="115.25"
       y1="-163.12"
       y2="-74.625"
       gradientUnits="userSpaceOnUse" /><linearGradient
       xlink:href="#linearGradient28964"
       id="B-3"
       x1="56.5"
       x2="125.72"
       y1="-50.438"
       y2="7.0625"
       gradientUnits="userSpaceOnUse" /><linearGradient
       xlink:href="#linearGradient28964"
       id="C-6"
       x1="35"
       x2="180.75"
       y1="-163.3"
       y2="-146.8"
       gradientUnits="userSpaceOnUse" /><linearGradient
       xlink:href="#linearGradient28964"
       id="D-1"
       x1="57"
       x2="179"
       y1="-141.11"
       y2="-41.609001"
       gradientUnits="userSpaceOnUse" /><linearGradient
       xlink:href="#linearGradient28964"
       id="E-7"
       x1="156"
       x2="208.25"
       y1="-26.5"
       y2="39.75"
       gradientUnits="userSpaceOnUse" /><linearGradient
       xlink:href="#linearGradient28964"
       id="F-7"
       x1="142.75"
       x2="235"
       y1="-169.3"
       y2="-77.296997"
       gradientUnits="userSpaceOnUse" /><linearGradient
       xlink:href="#b"
       id="q-3"
       x1="214.25"
       x2="166.5"
       y1="-161.36"
       y2="-113.72"
       gradientUnits="userSpaceOnUse" /><linearGradient
       xlink:href="#b"
       id="r-1"
       x1="53.25"
       x2="57.655998"
       y1="-126.5"
       y2="-62.469002"
       gradientUnits="userSpaceOnUse" /><linearGradient
       xlink:href="#b"
       id="s-5"
       x1="39.5"
       x2="75.719002"
       y1="6.625"
       y2="-17.125"
       gradientUnits="userSpaceOnUse" /><linearGradient
       xlink:href="#b"
       id="t-3"
       x1="102"
       x2="85.311996"
       y1="-162.34"
       y2="-121.44"
       gradientUnits="userSpaceOnUse" /><linearGradient
       xlink:href="#b"
       id="u-8"
       x1="117.75"
       x2="63.5"
       y1="-78.094002"
       y2="-14.75"
       gradientUnits="userSpaceOnUse" /><linearGradient
       xlink:href="#b"
       id="v-3"
       x1="180.69"
       x2="133.94"
       y1="-125.12"
       y2="-60.75"
       gradientUnits="userSpaceOnUse" /><linearGradient
       xlink:href="#b"
       id="w-7"
       x1="170.75"
       x2="130.22"
       y1="-23.5"
       y2="33.375"
       gradientUnits="userSpaceOnUse" /><linearGradient
       xlink:href="#b"
       id="x-9"
       x1="213.5"
       x2="181.75"
       y1="-76"
       y2="-5.6563001"
       gradientUnits="userSpaceOnUse" /><linearGradient
       id="I-6"
       x1="120"
       x2="136"
       y1="186.5"
       y2="186.5"
       gradientTransform="matrix(0.46547249,0.46547249,-0.46547249,0.46547249,-276.88958,-2.7796422)"
       gradientUnits="userSpaceOnUse"><stop
         offset="0"
         stop-color="#f9e295"
         id="stop32037" /><stop
         offset=".125"
         stop-color="#f7dd84"
         id="stop32039" /><stop
         offset=".20581"
         stop-color="#fff"
         id="stop32041" /><stop
         offset=".30113"
         stop-color="#f4ce51"
         id="stop32043" /><stop
         offset=".3412"
         stop-color="#f9e7aa"
         id="stop32045" /><stop
         offset="1"
         stop-color="#efbb0e"
         id="stop32047" /></linearGradient><linearGradient
       id="N-5"
       x1="123"
       x2="133"
       y1="150.38"
       y2="150.38"
       gradientTransform="matrix(-0.93092574,-0.93092574,-0.8238581,0.8238581,-26.625963,104.44164)"
       gradientUnits="userSpaceOnUse"><stop
         offset="0"
         stop-color="#2d3335"
         id="stop32050" /><stop
         offset=".5"
         stop-color="#4c464a"
         id="stop32052" /><stop
         offset="1"
         stop-color="#384042"
         id="stop32054" /></linearGradient><linearGradient
       id="M-8"
       x1="120"
       x2="136"
       y1="186.5"
       y2="186.5"
       gradientTransform="matrix(0.46547249,0.46547249,-0.46547249,0.46547249,-245.70205,-33.965322)"
       gradientUnits="userSpaceOnUse"><stop
         offset="0"
         stop-color="#f9e295"
         id="stop32057" /><stop
         offset=".125"
         stop-color="#f7dd84"
         id="stop32059" /><stop
         offset=".20581"
         stop-color="#fff"
         id="stop32061" /><stop
         offset=".30113"
         stop-color="#f4ce51"
         id="stop32063" /><stop
         offset=".3412"
         stop-color="#f9e7aa"
         id="stop32065" /><stop
         offset="1"
         stop-color="#efbb0e"
         id="stop32067" /></linearGradient><linearGradient
       xlink:href="#c"
       id="L-8"
       x1="123"
       x2="133"
       y1="150.38"
       y2="150.38"
       gradientTransform="matrix(-0.46547367,-0.46547367,-0.46547367,0.46547367,-126.54263,85.194158)"
       gradientUnits="userSpaceOnUse" /><linearGradient
       xlink:href="#c"
       id="K-1"
       x1="128"
       x2="130.88"
       y1="134.36"
       y2="143.36"
       gradientTransform="matrix(0.46547249,0.46547249,-0.46547249,0.46547249,-245.70205,-33.965322)"
       gradientUnits="userSpaceOnUse" /><linearGradient
       xlink:href="#linearGradient28964"
       id="O-4"
       x1="108"
       x2="133"
       y1="167.73"
       y2="150.38"
       gradientTransform="matrix(-0.93092574,-0.93092574,-0.8238581,0.8238581,-26.625963,104.44164)"
       gradientUnits="userSpaceOnUse" /><linearGradient
       id="P-7"
       x1="126.64"
       x2="179.96001"
       y1="29.815001"
       y2="137.2"
       gradientTransform="matrix(0.47290997,0,0,0.47290997,-308.57084,20.495185)"
       gradientUnits="userSpaceOnUse"><stop
         offset="0"
         stop-color="#fff"
         id="stop32073" /><stop
         offset="1"
         stop-color="#fff"
         stop-opacity="0"
         id="stop32075" /></linearGradient><linearGradient
       id="S-6"
       x1="126.64"
       x2="179.96001"
       y1="29.815001"
       y2="137.2"
       gradientTransform="matrix(-0.23784828,0.09382594,0.0932589,-0.20455503,-177.9717,83.590989)"
       gradientUnits="userSpaceOnUse"><stop
         offset="0"
         stop-color="#fff"
         id="stop32078" /><stop
         offset="1"
         stop-color="#fff"
         stop-opacity="0"
         id="stop32080" /></linearGradient><linearGradient
       id="p-2"
       x1="210.17"
       x2="9"
       y1="72.064003"
       y2="-213.25"
       gradientTransform="translate(0,192)"
       gradientUnits="userSpaceOnUse"><stop
         offset="0"
         id="stop32083" /><stop
         offset="1"
         stop-opacity="0"
         id="stop32085" /></linearGradient><linearGradient
       id="g-3"
       x1="122"
       x2="122"
       y1="245.45"
       y2="4.302"
       gradientUnits="userSpaceOnUse"><stop
         offset="0"
         id="stop32088" /><stop
         offset="1"
         stop-opacity="0"
         id="stop32090" /></linearGradient><clipPath
       id="j"
       clipPathUnits="userSpaceOnUse"><path
         fill="#ceeeab"
         d="m 9,12.25 c 0,0 7.5,13 11.75,27.75 C 25,54.75 27,65.5 27,65.5 c 0,0 -5.5,12.75 -8.25,24.75 -2.75,12 -5.75,23 -5.75,23 0,0 5.75,16 9.25,30 3.5,14 3.75,24.25 3.75,24.25 0,0 -4,10.25 -7.5,24.25 -3.5,14 -5,30.75 -5,30.75 0,0 9.25,-2 28.5,1.25 19.25,3.25 32.25,6 32.25,6 0,0 12.75,-2.75 24,-6.25 11.25,-3.5 16.25,-6.5 16.25,-6.5 0,0 5.5,0.5 22.5,6.25 17,5.75 29.25,8.5 29.25,8.5 0,0 13,-2.75 26,-5.75 13,-3 26.5,-8 26.5,-8 0,0 -0.75,-5 4.25,-24.5 5,-19.5 8.75,-28 8.75,-28 0,0 -0.5,-4.5 -3.75,-19.75 C 224.75,130.5 218,116 218,116 c 0,0 1.75,-10.5 6.75,-23.75 C 229.75,79 235,65.5 235,65.5 c 0,0 -4.75,-15.25 -7.5,-29.75 C 224.75,21.25 219.25,10 219.25,10 c 0,0 -24.25,9 -31.75,10.5 -7.5,1.5 -21,5.25 -21,5.25 0,0 -9.75,-4.25 -22,-8.5 -12.25,-4.25 -29.75,-5.5 -29.75,-5.5 0,0 -3.25,3.5 -22,8 -18.75,4.5 -27.5,5.75 -27.5,5.75 0,0 -18.5,-9 -31.5,-11.5 -13,-2.5 -24,-2 -24.75,-1.75 z"
         id="path32098" /></clipPath><clipPath
       id="k-6"
       clipPathUnits="userSpaceOnUse"><path
         fill="#ceeeab"
         d="m 9,12.25 c 0,0 7.5,13 11.75,27.75 C 25,54.75 27,65.5 27,65.5 c 0,0 -5.5,12.75 -8.25,24.75 -2.75,12 -5.75,23 -5.75,23 0,0 5.75,16 9.25,30 3.5,14 3.75,24.25 3.75,24.25 0,0 -4,10.25 -7.5,24.25 -3.5,14 -5,30.75 -5,30.75 0,0 9.25,-2 28.5,1.25 19.25,3.25 32.25,6 32.25,6 0,0 12.75,-2.75 24,-6.25 11.25,-3.5 16.25,-6.5 16.25,-6.5 0,0 5.5,0.5 22.5,6.25 17,5.75 29.25,8.5 29.25,8.5 0,0 13,-2.75 26,-5.75 13,-3 26.5,-8 26.5,-8 0,0 -0.75,-5 4.25,-24.5 5,-19.5 8.75,-28 8.75,-28 0,0 -0.5,-4.5 -3.75,-19.75 C 224.75,130.5 218,116 218,116 c 0,0 1.75,-10.5 6.75,-23.75 C 229.75,79 235,65.5 235,65.5 c 0,0 -4.75,-15.25 -7.5,-29.75 C 224.75,21.25 219.25,10 219.25,10 c 0,0 -24.25,9 -31.75,10.5 -7.5,1.5 -21,5.25 -21,5.25 0,0 -9.75,-4.25 -22,-8.5 -12.25,-4.25 -29.75,-5.5 -29.75,-5.5 0,0 -3.25,3.5 -22,8 -18.75,4.5 -27.5,5.75 -27.5,5.75 0,0 -18.5,-9 -31.5,-11.5 -13,-2.5 -24,-2 -24.75,-1.75 z"
         id="path32101" /></clipPath><clipPath
       id="i"
       clipPathUnits="userSpaceOnUse"><path
         fill="#ceeeab"
         d="m 9,12.25 c 0,0 7.5,13 11.75,27.75 C 25,54.75 27,65.5 27,65.5 c 0,0 -5.5,12.75 -8.25,24.75 -2.75,12 -5.75,23 -5.75,23 0,0 5.75,16 9.25,30 3.5,14 3.75,24.25 3.75,24.25 0,0 -4,10.25 -7.5,24.25 -3.5,14 -5,30.75 -5,30.75 0,0 9.25,-2 28.5,1.25 19.25,3.25 32.25,6 32.25,6 0,0 12.75,-2.75 24,-6.25 11.25,-3.5 16.25,-6.5 16.25,-6.5 0,0 5.5,0.5 22.5,6.25 17,5.75 29.25,8.5 29.25,8.5 0,0 13,-2.75 26,-5.75 13,-3 26.5,-8 26.5,-8 0,0 -0.75,-5 4.25,-24.5 5,-19.5 8.75,-28 8.75,-28 0,0 -0.5,-4.5 -3.75,-19.75 C 224.75,130.5 218,116 218,116 c 0,0 1.75,-10.5 6.75,-23.75 C 229.75,79 235,65.5 235,65.5 c 0,0 -4.75,-15.25 -7.5,-29.75 C 224.75,21.25 219.25,10 219.25,10 c 0,0 -24.25,9 -31.75,10.5 -7.5,1.5 -21,5.25 -21,5.25 0,0 -9.75,-4.25 -22,-8.5 -12.25,-4.25 -29.75,-5.5 -29.75,-5.5 0,0 -3.25,3.5 -22,8 -18.75,4.5 -27.5,5.75 -27.5,5.75 0,0 -18.5,-9 -31.5,-11.5 -13,-2.5 -24,-2 -24.75,-1.75 z"
         id="path32104" /></clipPath><clipPath
       id="m-9"
       clipPathUnits="userSpaceOnUse"><path
         fill="#ceeeab"
         d="m 9,12.25 c 0,0 7.5,13 11.75,27.75 C 25,54.75 27,65.5 27,65.5 c 0,0 -5.5,12.75 -8.25,24.75 -2.75,12 -5.75,23 -5.75,23 0,0 5.75,16 9.25,30 3.5,14 3.75,24.25 3.75,24.25 0,0 -4,10.25 -7.5,24.25 -3.5,14 -5,30.75 -5,30.75 0,0 9.25,-2 28.5,1.25 19.25,3.25 32.25,6 32.25,6 0,0 12.75,-2.75 24,-6.25 11.25,-3.5 16.25,-6.5 16.25,-6.5 0,0 5.5,0.5 22.5,6.25 17,5.75 29.25,8.5 29.25,8.5 0,0 13,-2.75 26,-5.75 13,-3 26.5,-8 26.5,-8 0,0 -0.75,-5 4.25,-24.5 5,-19.5 8.75,-28 8.75,-28 0,0 -0.5,-4.5 -3.75,-19.75 C 224.75,130.5 218,116 218,116 c 0,0 1.75,-10.5 6.75,-23.75 C 229.75,79 235,65.5 235,65.5 c 0,0 -4.75,-15.25 -7.5,-29.75 C 224.75,21.25 219.25,10 219.25,10 c 0,0 -24.25,9 -31.75,10.5 -7.5,1.5 -21,5.25 -21,5.25 0,0 -9.75,-4.25 -22,-8.5 -12.25,-4.25 -29.75,-5.5 -29.75,-5.5 0,0 -3.25,3.5 -22,8 -18.75,4.5 -27.5,5.75 -27.5,5.75 0,0 -18.5,-9 -31.5,-11.5 -13,-2.5 -24,-2 -24.75,-1.75 z"
         id="path32107" /></clipPath><clipPath
       id="n-2"
       clipPathUnits="userSpaceOnUse"><path
         fill="#ceeeab"
         d="m 9,12.25 c 0,0 7.5,13 11.75,27.75 C 25,54.75 27,65.5 27,65.5 c 0,0 -5.5,12.75 -8.25,24.75 -2.75,12 -5.75,23 -5.75,23 0,0 5.75,16 9.25,30 3.5,14 3.75,24.25 3.75,24.25 0,0 -4,10.25 -7.5,24.25 -3.5,14 -5,30.75 -5,30.75 0,0 9.25,-2 28.5,1.25 19.25,3.25 32.25,6 32.25,6 0,0 12.75,-2.75 24,-6.25 11.25,-3.5 16.25,-6.5 16.25,-6.5 0,0 5.5,0.5 22.5,6.25 17,5.75 29.25,8.5 29.25,8.5 0,0 13,-2.75 26,-5.75 13,-3 26.5,-8 26.5,-8 0,0 -0.75,-5 4.25,-24.5 5,-19.5 8.75,-28 8.75,-28 0,0 -0.5,-4.5 -3.75,-19.75 C 224.75,130.5 218,116 218,116 c 0,0 1.75,-10.5 6.75,-23.75 C 229.75,79 235,65.5 235,65.5 c 0,0 -4.75,-15.25 -7.5,-29.75 C 224.75,21.25 219.25,10 219.25,10 c 0,0 -24.25,9 -31.75,10.5 -7.5,1.5 -21,5.25 -21,5.25 0,0 -9.75,-4.25 -22,-8.5 -12.25,-4.25 -29.75,-5.5 -29.75,-5.5 0,0 -3.25,3.5 -22,8 -18.75,4.5 -27.5,5.75 -27.5,5.75 0,0 -18.5,-9 -31.5,-11.5 -13,-2.5 -24,-2 -24.75,-1.75 z"
         id="path32110" /></clipPath><clipPath
       id="o-7"
       clipPathUnits="userSpaceOnUse"><path
         fill="#ceeeab"
         d="m 9,12.25 c 0,0 7.5,13 11.75,27.75 C 25,54.75 27,65.5 27,65.5 c 0,0 -5.5,12.75 -8.25,24.75 -2.75,12 -5.75,23 -5.75,23 0,0 5.75,16 9.25,30 3.5,14 3.75,24.25 3.75,24.25 0,0 -4,10.25 -7.5,24.25 -3.5,14 -5,30.75 -5,30.75 0,0 9.25,-2 28.5,1.25 19.25,3.25 32.25,6 32.25,6 0,0 12.75,-2.75 24,-6.25 11.25,-3.5 16.25,-6.5 16.25,-6.5 0,0 5.5,0.5 22.5,6.25 17,5.75 29.25,8.5 29.25,8.5 0,0 13,-2.75 26,-5.75 13,-3 26.5,-8 26.5,-8 0,0 -0.75,-5 4.25,-24.5 5,-19.5 8.75,-28 8.75,-28 0,0 -0.5,-4.5 -3.75,-19.75 C 224.75,130.5 218,116 218,116 c 0,0 1.75,-10.5 6.75,-23.75 C 229.75,79 235,65.5 235,65.5 c 0,0 -4.75,-15.25 -7.5,-29.75 C 224.75,21.25 219.25,10 219.25,10 c 0,0 -24.25,9 -31.75,10.5 -7.5,1.5 -21,5.25 -21,5.25 0,0 -9.75,-4.25 -22,-8.5 -12.25,-4.25 -29.75,-5.5 -29.75,-5.5 0,0 -3.25,3.5 -22,8 -18.75,4.5 -27.5,5.75 -27.5,5.75 0,0 -18.5,-9 -31.5,-11.5 -13,-2.5 -24,-2 -24.75,-1.75 z"
         id="path32113" /></clipPath><clipPath
       id="l-1"
       clipPathUnits="userSpaceOnUse"><path
         fill="url(#d)"
         d="m 123.62,141.06 c 20.832,20.243 54.607,19.289 75.439,-2.132 20.832,-21.421 20.832,-55.196 0,-75.439 -20.832,-20.243 -54.607,-19.289 -75.439,2.132 -20.832,21.421 -20.832,55.196 0,75.439 z"
         id="path32116"
         style="fill:url(#d-7)" /></clipPath><clipPath
       id="G-8"
       clipPathUnits="userSpaceOnUse"><path
         fill="url(#e)"
         d="m 9,22.578 c 0,0 7.5,12.393 11.75,26.8 C 25,63.784 27,74.373 27,74.373 c 0,0 -5.5,13.195 -8.25,25.417 C 16,112.01 13,123.25 13,123.25 c 0,0 5.75,15.535 9.25,29.252 3.5,13.717 3.75,23.947 3.75,23.947 0,0 -4,10.574 -7.5,24.857 -3.5,14.283 -5,31.154 -5,31.154 0,0 9.25,-2.7481 28.5,-1.055 19.25,1.6931 32.25,3.3917 32.25,3.3917 0,0 12.75,-3.7812 24,-8.1911 11.25,-4.4099 16.25,-7.8143 16.25,-7.8143 0,0 5.5,0.0552 22.5,4.4302 17,4.3751 29.25,6.1343 29.25,6.1343 0,0 13,-3.8014 26,-7.8528 13,-4.0514 26.5,-10.143 26.5,-10.143 0,0 -0.75,-4.9393 4.25,-24.844 5,-19.904 8.75,-28.708 8.75,-28.708 0,0 -0.5145,-4.4553 -3.75,-19.447 -1.75,-8.1085 -2.25,-4.068 -2.25,-4.068 0,0 16.264,-26.155 16.5,-40.334 C 242.5,78.939 235,57.546 235,57.546 c 0,0 -4.75,-14.866 -7.5,-29.143 -2.75,-14.278 -8.25,-25.083 -8.25,-25.083 0,0 -24.25,10.961 -31.75,13.068 -7.5,2.1066 -21,6.9484 -21,6.9484 0,0 -9.75,-3.4614 -22,-6.7207 -12.25,-3.2592 -29.75,-3.0939 -29.75,-3.0939 0,0 -3.25,3.7629 -22,9.7793 -18.75,6.0165 -27.5,7.9741 -27.5,7.9741 0,0 -18.5,-7.5038 -31.5,-8.9524 -13,-1.4486 -24,-0.05894 -24.75,0.25172 z"
         opacity="0.03913"
         id="path32119" /></clipPath><radialGradient
       id="J-9"
       cx="128"
       cy="86"
       r="47"
       gradientTransform="matrix(0.47537254,0.47537254,0.47537254,-0.47537254,-327.88358,45.67912)"
       gradientUnits="userSpaceOnUse"><stop
         offset="0"
         stop-color="#d0e9f2"
         stop-opacity="0"
         id="stop32122" /><stop
         offset=".83933"
         stop-color="#d0e9f2"
         stop-opacity="0"
         id="stop32124" /><stop
         offset=".94309"
         stop-color="#d0e9f2"
         stop-opacity=".28185"
         id="stop32126" /><stop
         offset="1"
         stop-color="#d0e9f2"
         id="stop32128" /></radialGradient><radialGradient
       id="R-7"
       cx="159.61"
       cy="72.587997"
       r="38.417"
       gradientTransform="matrix(0.57340537,0,0,0.39684043,-330.67642,-11.219054)"
       gradientUnits="userSpaceOnUse"><stop
         offset="0"
         stop-color="#fff"
         id="stop32131" /><stop
         offset=".5"
         stop-color="#fff"
         stop-opacity=".9305"
         id="stop32133" /><stop
         offset="1"
         stop-color="#fff"
         stop-opacity="0"
         id="stop32135" /></radialGradient><radialGradient
       id="Q-7"
       cx="159.61"
       cy="72.587997"
       r="38.417"
       gradientTransform="matrix(0.57340537,0,0,0.39684043,-330.47401,-10.610891)"
       gradientUnits="userSpaceOnUse"><stop
         offset="0"
         stop-color="#fff"
         id="stop32138" /><stop
         offset="1"
         stop-color="#fff"
         stop-opacity="0"
         id="stop32140" /></radialGradient><radialGradient
       id="d-7"
       cx="128"
       cy="86"
       r="47"
       gradientTransform="matrix(0.80254,0.77986,0.80254,-0.82522,-10.402,73.423)"
       gradientUnits="userSpaceOnUse"><stop
         offset="0"
         stop-color="#d0e9f2"
         stop-opacity="0"
         id="stop32143" /><stop
         offset=".83933"
         stop-color="#d0e9f2"
         stop-opacity="0"
         id="stop32145" /><stop
         offset=".94309"
         stop-color="#d0e9f2"
         stop-opacity=".28185"
         id="stop32147" /><stop
         offset="1"
         stop-color="#d0e9f2"
         id="stop32149" /></radialGradient><filter
       id="H-6"
       x="-0.047999725"
       y="-0.047999926"
       width="1.0959994"
       height="1.096"><feGaussianBlur
         stdDeviation="4.2868936"
         id="feGaussianBlur32152" /></filter><filter
       id="f-1"
       x="-0.07066302"
       y="-0.070663318"
       width="1.141326"
       height="1.1413265"><feGaussianBlur
         stdDeviation="6.3109704"
         id="feGaussianBlur32155" /></filter><filter
       id="h-1"
       x="-0.047336284"
       y="-0.048682593"
       width="1.0946726"
       height="1.0973651"><feGaussianBlur
         stdDeviation="4.4575"
         id="feGaussianBlur32158" /></filter></defs><g
     inkscape:label="Calque 1"
     inkscape:groupmode="layer"
     id="layer1"
     transform="translate(577.36477,-111.30447)"><g
       id="g1785"
       transform="matrix(6.2563683,0,0,6.2563683,1275.4915,1132.8076)"><circle
         style="fill:#055845;fill-opacity:1;stroke-width:0.0399593;stroke-linecap:round;paint-order:markers stroke fill"
         id="path3056"
         cx="-176.16658"
         cy="-43.285473"
         r="119.98866" /><g
         id="g7131"
         transform="matrix(0.18441971,0,0,0.18441971,5.832052,-185.11456)"><path
           id="path5747"
           style="fill:#7ecf74;fill-opacity:1;stroke:none;stroke-width:47.9511;stroke-linecap:round;stroke-dasharray:none;stroke-opacity:1;paint-order:markers stroke fill"
           d="m -731.75564,439.81264 c -2.35266,0.0189 -4.73797,1.04624 -6.63899,2.84063 l -77.43839,73.09464 c 0,0 0.1935,19.46522 0.34195,38.70805 l -121.34904,142.32492 37.0076,31.55364 121.19136,-142.13999 c 19.03611,-2.92429 38.31329,-5.89788 38.4325,-5.96672 l 60.51122,-87.52709 c 2.64284,-3.82276 2.59565,-8.81083 -0.94079,-11.82607 l -45.93026,-39.16217 c -1.5472,-1.31917 -3.35732,-1.91452 -5.18716,-1.89984 z m -236.1953,293.45679 -15.3863,18.04587 c -23.65136,-10.39072 -47.64146,-7.2475 -60.60286,7.94016 -0.4273,0.50422 -0.8407,1.02009 -1.2402,1.54714 l -0.1438,-0.12257 c -0.1663,0.32994 -0.3333,0.65991 -0.5011,0.98994 -2.047,2.85313 -3.6903,6.00605 -4.9017,9.40429 -4.786,8.84851 -10.0562,17.66004 -15.7502,26.35995 l 87.75511,74.82218 c 7.68408,-6.99145 15.54508,-13.58255 23.51891,-19.70238 3.18058,-1.73968 6.04779,-3.87093 8.55163,-6.35659 0.28713,-0.20884 0.57426,-0.417 0.8615,-0.62452 l -0.13827,-0.11795 c 0.46231,-0.48258 0.91107,-0.97738 1.34602,-1.48412 12.94913,-15.20135 12.25773,-39.39083 -1.74612,-61.10346 l 15.38505,-18.04447 z m -127.21896,102.72068 c -0.6545,0.77951 -1.3054,1.56142 -1.9662,2.3367 -35.1232,41.18998 -76.9193,73.88074 -116.4956,91.1183 l -23.9233,28.05866 c -4.0494,3.98205 -7.9386,8.15866 -11.642,12.50206 -46.0755,54.03987 -54.6461,122.38717 -19.1433,152.65777 0.037,0.03 0.075,0.06 0.1118,0.09 l -0.01,0.011 c 0.092,0.084 0.1844,0.1678 0.2776,0.2506 35.503,30.2705 101.6356,11.0016 147.7111,-43.0384 3.7033,-4.3435 7.2124,-8.8441 10.5041,-13.4721 l 23.9235,-28.0587 c 10.7635,-41.80395 36.4352,-88.24248 71.5537,-129.43658 0.6657,-0.78044 1.3395,-1.55219 2.0103,-2.32704 z" /><path
           style="color:#000000;fill:#7ecf74;stroke-width:47.9511;stroke-linecap:round;-inkscape-stroke:none;paint-order:markers stroke fill"
           d="m -1249.4708,404.23261 91.142,77.70945 40.4975,120.81604 -38.0812,44.66377 -0.021,-0.0182 -37.7605,44.28759 -125.6993,-20.88654 -91.1196,-77.69038 a 200.31943,198.76414 40.451563 0 0 70.6271,158.32684 200.31943,198.76414 40.451563 0 0 216.2301,28.7514 l 368.32314,314.03952 c 33.87367,28.8814 84.395,24.8623 113.27627,-9.0113 28.88128,-33.8736 24.86225,-84.3949 -9.01142,-113.27635 L -1019.391,657.90504 a 200.31943,198.76414 40.451563 0 0 -62.5768,-208.96483 200.31943,198.76414 40.451563 0 0 -167.5033,-44.70786 z m 520.07504,606.52109 a 27.488655,27.488655 0 0 1 38.75237,-3.0829 27.488655,27.488655 0 0 1 3.08287,38.7524 27.488655,27.488655 0 0 1 -38.75244,3.0828 27.488655,27.488655 0 0 1 -3.0828,-38.7523 z"
           id="path7123" /></g></g></g></svg>
