<?xml version="1.0" encoding="UTF-8"?><svg id="_レイヤー_1" xmlns="http://www.w3.org/2000/svg" viewBox="0 0 366.84 125.06"><defs><style>.cls-1{fill:none;}.cls-2{fill-rule:evenodd;}.cls-2,.cls-3{fill:#e61e1e;}</style></defs><rect class="cls-1" x="0" y="0" width="366.84" height="125.06"/><path class="cls-2" d="M299.62,66.39l4.17-14.4h.07l4.17,14.4h-8.4ZM312.9,83.37h12.25l-12.63-41.69h-17.39l-12.63,41.69h12.24l2.24-7.72h13.7l2.23,7.72Z"/><path class="cls-2" d="M94.9,62.53c0-2.29.06-3.65.11-4.65.32-6.43,2.86-7.19,7.8-7.19s7.48.75,7.8,7.19c.05,1,.11,2.36.11,4.65s-.06,3.65-.11,4.65c-.32,6.43-2.86,7.19-7.8,7.19s-7.48-.75-7.8-7.19c-.05-1-.11-2.36-.11-4.65ZM102.81,84.13c12.57,0,18.65-2.21,19.51-13.56.21-2.7.25-5.47.25-8.04s-.04-5.34-.25-8.04c-.86-11.34-6.94-13.55-19.51-13.55s-18.65,2.21-19.51,13.55c-.2,2.7-.25,5.47-.25,8.04s.04,5.34.25,8.04c.86,11.34,6.94,13.56,19.51,13.56Z"/><polygon class="cls-2" points="41.69 41.69 41.69 52.08 54.15 52.08 54.15 83.37 66.62 83.37 66.62 52.08 79.08 52.08 79.08 41.69 41.69 41.69"/><rect class="cls-3" x="221.15" y="41.69" width="11.83" height="41.69"/><polygon class="cls-2" points="185.37 56.91 185.37 41.69 173.61 41.69 173.61 83.37 185.37 83.37 185.37 67.3 199.04 67.3 199.04 83.37 210.8 83.37 210.8 41.69 199.04 41.69 199.04 56.91 185.37 56.91"/><path class="cls-2" d="M255.22,51.22h8.15c2.13,0,3.45,1.01,3.45,3.44,0,2.08-1.3,3.37-3.45,3.37h-8.15v-6.81ZM255.22,66.25h8.15c3.3,0,3.99,1.45,3.99,3.79s-1.29,3.79-3.99,3.79h-8.15v-7.59ZM271.89,61.59c5.24-1.34,6.77-4.48,6.77-8.99,0-9.16-5.77-10.91-13.96-10.91h-21.24v41.69h22.3c10.26,0,13.71-4.42,13.71-11.22,0-4.74-1.09-8.93-7.58-10.57Z"/><path class="cls-2" d="M129.42,69.7h11.21c.01,2.02.27,3.38,1.25,4.12,1.12.84,2.12,1.12,5.43,1.12s6.68,0,6.68-3.92c0-3.1-1.95-3.81-5.55-4-8.93-.48-12.16-.73-15.5-3.2-2.27-1.68-3.44-4.97-3.44-9.41,0-7.55,2.63-10.19,6.43-12.04,3.92-1.91,19.3-1.91,23.44,0,5.21,2.4,5.36,7.59,5.36,12.4h-11.19c-.02-2.45-.58-3.14-1.03-3.6-1.16-1.03-2.81-1.24-5.2-1.24-2.89,0-6.24.13-6.24,3.64,0,2.68,1.16,3.79,4.2,3.99,4.17.27,12.4.54,15.34,2.27,4.12,2.44,5.18,5.73,5.18,11.1,0,7.76-2.78,10.04-6.64,11.75-4.46,1.97-19.36,1.97-24.2-.15-5.42-2.37-5.53-7.08-5.53-12.82Z"/></svg>