<svg xmlns="http://www.w3.org/2000/svg" height="60.757" viewBox="0 0 250 60.757271" width="250"><g transform="matrix(1.25 0 0 -1.25 -328.03 525.85)"><path d="m29.084 1.1191c-6.559 0-7.051 3.4851-7.051 7.0371v46.049c0 3.143 1.886 5.672 7.051 5.672s6.805-2.664 6.805-5.875v-13.188h-3.69v14.758c0 1.503-0.984 2.734-3.115 2.801-2.05 0-3.361-1.365-3.361-2.869v-49.26c0-1.7759 0.491-3.7577 3.361-3.7577 2.951 0.0691 3.115 2.0493 3.115 3.7578v12.776h3.69v-10.932c0-3.4839-0.411-6.9689-6.805-6.9689zm32.137 0c-6.396 0-6.887 3.485-6.887 6.9688v2.8031c0 2.458-0.002 3.963 0.49 6.353 0.492 2.461 0.903 3.895 2.133 6.149l3.607 6.902c1.394 2.594 2.296 4.098 3.034 6.9 0.491 1.845 0.9 2.937 0.9 4.85v12.641c0 1.706-0.163 3.755-3.195 3.826-2.788 0-3.362-1.983-3.362-3.826v-13.872h-3.607v12.024c0 3.553 0.491 7.039 7.051 7.039 6.394-0.068 6.804-3.486 6.804-6.969v-11.002c0-3.005-0.493-4.166-1.312-6.761-0.738-2.461-2.049-4.645-2.787-6.217l-3.444-6.561c-1.148-2.185-1.64-3.552-2.132-5.806-0.492-2.529-0.573-4.1-0.573-6.559v-0.3418-3.4161c0-1.7085 0.328-3.6888 3.362-3.7578 2.787 0 3.195 1.9818 3.195 3.7578v12.641h3.691v-10.729c0-3.4835-0.41-7.0369-6.968-7.0369zm21.642 0c-6.559 0-7.051 3.4851-7.051 7.0371v51.311h3.69v-29.789h6.477v29.789h3.607v-51.379c0-3.4839-0.327-6.9689-6.723-6.9689zm62.227 0c-6.56 0-7.05 3.4851-7.05 7.0371v51.311h3.69v-29.789h6.48v29.789h3.6v-51.379c0-3.4839-0.33-6.9689-6.72-6.9689zm32.79 0c-6.56 0-7.05 3.4851-7.05 7.0371v46.049c0 3.143 1.89 5.672 7.05 5.672 5.17 0 6.81-2.664 6.81-5.875v-13.188h-3.7v14.758c0 1.503-0.98 2.734-3.11 2.801-2.05 0-3.36-1.365-3.36-2.869v-49.26c0-1.7759 0.49-3.7577 3.36-3.7577 2.95 0.0691 3.11 2.0493 3.11 3.7578v12.776h3.7v-10.932c0-3.4839-0.41-6.9689-6.81-6.9689zm-80.341 0.2735v58.074h3.611v-42.223l6.56 31.154v11.069h3.6v-58.074l-3.6-0.0004v35.119l-6.89-35.119-3.281-0.0004zm138.39 0v2.1875h7.95l-8.61 55.887h13.61v-2.393h-9.1l8.61-55.681-12.46-0.0004zm-235.05 0.0703v52.539c0 3.211 1.7212 5.875 6.8867 5.875 5.1644 0 6.8044-2.529 6.8044-5.672v-52.742l-3.689-0.0001v54.041c0 1.504-1.0663 2.869-3.1154 2.869-2.132 0-3.1973-1.298-3.1973-2.801v-54.109l-3.6894-0.0001zm116.58 0v2.1172h5.25v55.887h3.69v-55.887l5.41 0.0001v-2.1172h-14.35zm96.66 0v52.539c0 3.211 1.72 5.875 6.89 5.875 5.16 0 6.8-2.529 6.8-5.672v-52.742l-3.69-0.0001v54.041c0 1.504-1.06 2.869-3.11 2.869-2.14 0-3.2-1.298-3.2-2.801v-54.109l-3.69-0.0001zm-21.24 0.0664v57.938h3.69v-29.858h1.64c1.4 0 2.22 0.206 3.36 1.026 1.15 0.751 1.4 2.529 1.4 4.238v24.594h3.69v-23.707-1.026c0-1.571-0.08-2.936-1.39-4.302-0.74-0.889-2.38-1.778-2.55-1.846 0.17-0.068 2.22-1.094 3.04-2.186 0.73-0.957 0.9-1.709 0.9-2.802v-15.03-0.4801c0-2.0492 0-3.8258-1.8-5.1231-1.73-1.2972-4.43-1.4355-5.42-1.4355h-0.41-6.15zm-110.1 0.957c3.032 0.0691 3.196 2.0493 3.196 3.7578v21.111h-6.477v-21.111c0-1.7759 0.493-3.7577 3.281-3.7577zm62.227 0c3.03 0.0691 3.2 2.0493 3.2 3.7578v21.111h-6.48v-21.111c0-1.7759 0.49-3.7577 3.28-3.7577zm51.56 0.6153h2.22c1.06 0 2.05 0.2738 2.7 0.5468 1.23 0.5479 1.48 1.6398 1.48 3.2793v15.51c0 1.571-0.33 3.414-0.9 4.029-0.66 0.82-2.22 1.504-3.77 1.504h-1.73v-24.869z" transform="matrix(.8 0 0 -.8 262.42 420.68)" fill="#003c6c"/></g></svg>
