<?xml version="1.0" encoding="utf-8"?>
<!-- Generator: Adobe Illustrator 15.1.0, SVG Export Plug-In . SVG Version: 6.00 Build 0)  -->
<!DOCTYPE svg PUBLIC "-//W3C//DTD SVG 1.0//EN" "http://www.w3.org/TR/2001/REC-SVG-20010904/DTD/svg10.dtd">
<svg version="1.0" id="Layer_1" xmlns="http://www.w3.org/2000/svg" xmlns:xlink="http://www.w3.org/1999/xlink" x="0px" y="0px"
	 width="556.159px" height="100px" viewBox="0 0 556.159 100" enable-background="new 0 0 556.159 100" xml:space="preserve">
<polyline fill="#D62A43" points="0,0 0,77.628 65.75,100 131.499,77.628 131.499,0 0,0 "/>
<path fill="#FFFFFF" d="M65.71,75.188H45.607v-6.946h-0.206c-3.892,5.475-9.475,8.314-17.79,8.314
	c-9.783,0-18.735-5.999-18.735-18.525v-37.47h20.841v28.63c0,6.319,0.73,10.733,6.839,10.733c3.579,0,8.314-1.788,8.314-10.522
	V20.562H65.71V75.188"/>
<path fill="#FFFFFF" d="M104.553,36.46c-0.104-1.792-1.048-3.16-2.417-4.107c-1.265-1.052-2.953-1.579-4.631-1.579
	c-2.955,0-6.32,0.635-6.32,4.212c0,1.582,1.265,2.315,2.422,2.837c3.475,1.476,11.366,1.896,18.314,4.208
	c6.947,2.212,13.052,6.318,13.052,15.267c0,15.15-14.523,19.259-27.788,19.259c-12.841,0-26.946-5.155-27.257-19.259h19.886
	c0.108,1.894,0.95,3.471,2.532,4.836c1.049,0.95,3.054,1.583,5.574,1.583c2.738,0,7.052-1.049,7.052-4.214
	c0-3.155-1.789-4.102-11.473-5.786c-15.89-2.734-22.31-7.785-22.31-17.149c0-13.789,14.842-17.376,25.787-17.376
	c11.788,0,25.997,3.273,26.516,17.269H104.553"/>
<path fill="#00458D" d="M138.978,0.04h20.839v26.525h0.213c3.155-4.631,8.732-7.373,14.942-7.373
	c18.313,0,23.26,15.583,23.26,28.422c0,13.684-7.471,28.942-22.94,28.942c-10.211,0-13.374-3.895-16-7.368h-0.213v5.999h-20.101
	V0.04 M168.236,34.353c-7.473,0-9.158,7.052-9.158,13.473c0,6.525,1.686,13.574,9.158,13.574c7.474,0,9.156-7.049,9.156-13.574
	C177.393,41.404,175.71,34.353,168.236,34.353z"/>
<path fill="#00458D" d="M256.327,62.984c0,4.101,0.205,8.735,2.527,12.204h-21.26c-0.524-1.471-0.846-3.684-0.739-5.159h-0.208
	c-4.42,5.051-10.838,6.528-17.571,6.528c-10.522,0-19.255-5.052-19.255-16.521c0-17.262,20.202-16.634,30.826-18.628
	c2.843-0.526,5.685-1.372,5.685-4.84c0-3.685-3.471-5.052-6.839-5.052c-6.416,0-7.681,3.26-7.788,5.57h-19.364
	c0.634-15.359,15.159-17.89,28.097-17.89c26.095,0,25.89,10.842,25.89,21.367V62.984 M236.332,50.669
	c-2.53,1.257-5.367,1.996-8.203,2.631c-4.632,1.053-7.052,2.21-7.052,5.891c0,2.526,2.733,5.05,6.522,5.05
	c4.735,0,8.418-2.842,8.733-8.525V50.669z"/>
<path fill="#00458D" d="M263.792,20.564h20.095v6.95h0.214c3.895-5.478,9.469-8.319,17.787-8.319c9.784,0,18.735,6,18.735,18.524
	v37.471h-20.836V46.56c0-6.31-0.742-10.734-6.84-10.734c-3.579,0-8.321,1.789-8.321,10.522v28.842h-20.833V20.564"/>
<path fill="#00458D" d="M362.093,41.301c-0.202-2.216-0.937-3.997-2.313-5.155c-1.258-1.16-3.055-1.793-5.259-1.793
	c-8.003,0-9.154,6.948-9.154,13.578c0,6.631,1.151,13.469,9.154,13.469c4.521,0,7.683-3.683,8.102-7.999h19.895
	c-2.001,14.842-13.681,23.156-28.424,23.156c-16.413,0-29.566-11.372-29.566-28.626c0-17.263,13.153-28.739,29.566-28.739
	c14.32,0,26.524,7.056,27.792,22.109H362.093"/>
<path fill="#00458D" d="M415.555,76.557c-20.521,0-29.781-13.577-29.781-28.731c0-15.161,9.26-28.633,29.781-28.633
	c20.522,0,29.79,13.472,29.79,28.633C445.345,62.98,436.077,76.557,415.555,76.557 M415.555,34.353
	c-7.891,0-8.941,7.679-8.941,13.473c0,5.791,1.051,13.574,8.941,13.574c7.899,0,8.952-7.783,8.952-13.574
	C424.507,42.031,423.454,34.353,415.555,34.353z"/>
<path fill="#00458D" d="M449.967,20.564h19.998v8.736h0.21c3.368-6.522,7.788-10.105,15.367-10.105c2.107,0,4.108,0.318,6.104,0.845
	v18.417c-2.097-0.738-3.997-1.369-8.213-1.369c-8.203,0-12.626,4.839-12.626,16.525v21.577h-20.841V20.564"/>
<path fill="#00458D" d="M496.897,20.564h20.105v6h0.211c2.635-3.47,5.787-7.371,15.996-7.371c15.475,0,22.949,15.262,22.949,28.946
	c0,12.843-4.948,28.417-23.261,28.417c-6.213,0-11.781-2.732-14.946-7.365h-0.218v23.676h-20.837V20.564 M526.155,61.399
	c7.482,0,9.168-7.049,9.168-13.471c0-6.521-1.686-13.576-9.168-13.576c-7.471,0-9.152,7.055-9.152,13.576
	C517.003,54.351,518.685,61.399,526.155,61.399z"/>
</svg>
