<?xml version="1.0" encoding="utf-8"?>
<!-- Generator: Adobe Illustrator 23.0.3, SVG Export Plug-In . SVG Version: 6.00 Build 0)  -->
<svg version="1.1" id="Layer_1" xmlns="http://www.w3.org/2000/svg" xmlns:xlink="http://www.w3.org/1999/xlink" x="0px" y="0px"
	 viewBox="0 0 612 493.3" style="enable-background:new 0 0 612 493.3;" xml:space="preserve">
<style type="text/css">
	.st0{fill:#005A85;}
	.st1{clip-path:url(#SVGID_2_);}
	.st2{fill:#81BD41;}
	.st3{fill:#FFFFFF;}
	.st4{display:none;}
	.st5{display:inline;}
</style>
<g>
	<g id="SHEILD_blue_1_">
		<path class="st0" d="M144.6,25.4v117c0,57.5,26,111.9,70.9,147.9l94.6,74.9l94.6-74.9c44.8-36,70.9-90.4,70.9-147.9v-117H144.6z"
			/>
	</g>
	<g id="HELMET_2_">
		<g>
			<defs>
				<path id="SVGID_1_" d="M144.6,25.4v117c0,57.5,26,111.9,70.9,147.9l94.6,74.9l94.6-74.9c44.8-36,70.9-90.4,70.9-147.9v-117
					H144.6z"/>
			</defs>
			<clipPath id="SVGID_2_">
				<use xlink:href="#SVGID_1_"  style="overflow:visible;"/>
			</clipPath>
			<g class="st1">
				<path class="st2" d="M310.1,250.2l-12.5-11.7l1.1-50.8l0,0c-25-0.5-48.5-1.6-65.5-3.6c6.7,45.4,28.4,47.9,34.6,57.1
					c6.2,9.2-11.1,46.4,15.7,69.8c6.3,4.4,11,10.8,13.2,18.2c1.4,6.3,0,12.9-3.9,18.1c-8.6,9.4-23.8,8-36.9-2.4l-0.6-0.8
					c-0.6-0.3-1.1-0.7-1.6-1.1c-5.4-4.8-10.1-10.3-14.2-16.3c-16.6-23.1-25-63-29.3-95.2c-8.9,0-17.7,0-25.3,0s-4.4-4.7-4.4-4.7
					c9.3-7.6,18.2-15.7,26.6-24.3c2.8-4.9,3.4-15-1.7-19.3c-3.9-3.4-26.7-18.2-26.7-18.2s-3.7-3.7,4.7-3.8h14.8
					c0.8-7.8,1.5-13.5,1.5-13.5H210c1.4-47.1,35.2-87,81.5-96V46c0-1.9,1.6-3.4,3.5-3.4c0,0,0,0,0,0h30.6c1.9,0,3.4,1.5,3.5,3.4v5.7
					c46.4,8.8,80.4,48.7,81.8,95.8h10.2c0,0,0.7,5.7,1.5,13.5h14.9c8.4,0,4.6,3.8,4.6,3.8s-22.7,14.8-26.7,18.2
					c-4.5,5.5-5.1,13.1-1.7,19.3c8.4,8.6,17.2,16.7,26.5,24.3c0,0,3.5,4.6-4.4,4.7c-7.9,0.1-16.4,0-25,0
					c-4.2,32.1-12.5,72.1-29.3,95.2c-4,6-8.8,11.5-14.2,16.3c-0.5,0.4-1,0.8-1.5,1.1l-0.9,0.8c-13,10.4-28.3,11.7-36.8,2.4
					c-4-5.2-5.5-11.8-4.2-18.2c2.2-7.4,6.9-13.8,13.2-18.2c26.8-23.3,9.6-60.6,15.7-69.8c6.1-9.2,27.9-11.4,34.6-56.8
					c-17,2-40.7,3.1-65.5,3.6l0,0l1.2,50.8l-12.5,11.7H310.1z M337.1,333.4c0,4.3,3.5,7.9,7.9,7.9c4.3,0,7.9-3.5,7.9-7.9
					c0-4.3-3.5-7.9-7.9-7.9l0,0c-4.3,0-7.8,3.4-7.9,7.7C337.1,333.4,337.1,333.4,337.1,333.4z M368.9,286.8c-4.3,0-7.9,3.5-7.9,7.9
					s3.5,7.9,7.9,7.9l0,0c4.3,0,7.9-3.5,7.9-7.9S373.3,286.8,368.9,286.8z M364.1,251c0,4.3,3.5,7.9,7.9,7.9c4.3,0,7.9-3.5,7.9-7.9
					c0-4.3-3.5-7.9-7.9-7.9h0C367.7,243.2,364.2,246.7,364.1,251z M243.8,294.7c0,4.3,3.5,7.9,7.9,7.9s7.9-3.5,7.9-7.9
					c0-4.3-3.5-7.9-7.9-7.9h0C247.4,286.9,243.9,290.4,243.8,294.7L243.8,294.7z M248.6,243.2c-4.4,0-8,3.5-8,7.9c0,4.4,3.5,8,7.9,8
					c4.4,0,8-3.5,8-7.9c0,0,0-0.1,0-0.1C256.5,246.7,253,243.2,248.6,243.2L248.6,243.2z M275.7,325.6c-4.3,0-7.9,3.5-7.9,7.9
					s3.5,7.9,7.9,7.9s7.9-3.5,7.9-7.9v0c0.1-4.3-3.4-7.9-7.7-7.9C275.9,325.6,275.8,325.6,275.7,325.6L275.7,325.6z"/>
			</g>
		</g>
	</g>
	<g id="SHEILD_outline_1_">
		<path class="st3" d="M310.1,382.4l-102.6-81.2c-47.6-38.2-75.3-96-75.3-157V13.2h355.8v131.1c-0.1,61.1-27.8,118.8-75.4,157
			L310.1,382.4z M144.6,25.4v117c0,57.5,26,111.9,70.9,147.9l94.6,74.9l94.6-74.9c44.8-36,70.9-90.4,70.9-147.9v-117H144.6z"/>
	</g>
	<g id="SHEILD_outline_positive_2_">
		<path class="st2" d="M488,13.4v131.1c-0.1,61-27.8,118.6-75.3,156.8l-102.6,81.2l-102.6-81.2c-47.6-38.2-75.3-96-75.3-157V13.2
			h355.8 M494.3,7H126v137.3c0,63.1,28.5,122.8,77.7,162.3l102.6,81.2l3.9,3.1l3.9-3.1l102.7-81.5c49-39.5,77.4-99.1,77.3-162
			L494.3,7L494.3,7z"/>
	</g>
	<g>
		<g>
			<path class="st0" d="M67.8,472c8.5-13.8,28.1-49.8,31.4-57.2c0.7-1.5,1.3-3,1.3-3.9c0-0.8-0.4-1.9-1.9-2.4
				c-1.8-0.4-4-0.4-5.6-0.4c-0.9,0-1.6-0.1-1.6-0.6c0-0.6,0.9-0.8,3.2-0.8c5.9,0,12.6,0.3,14.4,0.3c0.9,0,7.2-0.3,11.4-0.3
				c1.6,0,2.5,0.2,2.5,0.7c0,0.5-0.6,0.7-1.8,0.7c-1,0-4.2,0-7,1.2c-1.9,0.9-4.1,2.7-8.1,9.7c-1.6,2.9-8.9,15.3-16.4,28
				c-8.9,15.1-15.5,26.2-18.9,31.3c-4.1,6.2-4.7,7.8-6.2,7.8c-1.8,0-2.5-1.4-5.3-6.4l-35.9-63.2c-3.2-5.8-5.4-6.9-10.6-7.9
				c-2.2-0.4-4.7-0.4-5.6-0.4c-0.9,0-1.2-0.3-1.2-0.7c0-0.6,1.5-0.7,3.8-0.7c7,0,15.4,0.3,17.1,0.3c1.5,0,8.1-0.3,13.6-0.3
				c2.6,0,4,0.2,4,0.7c0,0.5-0.4,0.7-1.5,0.7c-1.6,0-4.2,0.1-5.6,0.5c-1.6,0.5-1.9,1.3-1.9,2.1c0,1.3,1.8,4.5,4,8.6L67.8,472z"/>
			<path class="st0" d="M152.3,454.7c0,9.9,0,18.1,0.8,22.4c0.5,3,1.4,5.3,6,5.7c2.2,0.2,5.6,0.4,7,0.4c0.9,0,1.2,0.3,1.2,0.6
				c0,0.5-0.8,0.8-2.5,0.8c-8.5,0-18.3-0.3-19-0.3c-0.8,0-10.5,0.3-15.2,0.3c-1.7,0-2.5-0.2-2.5-0.8c0-0.3,0.3-0.6,1.2-0.6
				c1.4,0,3.2-0.2,4.6-0.4c3.1-0.4,3.9-2.7,4.5-5.7c0.8-4.3,0.8-12.5,0.8-22.4v-18.2c0-16.1,0-19-0.3-22.3c-0.3-3.5-1.9-5.3-5.3-5.8
				c-1.7-0.3-3.7-0.4-4.8-0.4c-0.6,0-1.2-0.2-1.2-0.6c0-0.6,0.8-0.8,2.5-0.8c5.1,0,14.9,0.3,15.6,0.3c0.8,0,10.5-0.3,15.2-0.3
				c1.7,0,2.5,0.2,2.5,0.8c0,0.4-0.6,0.6-1.2,0.6c-1.1,0-2,0.1-3.9,0.3c-4.2,0.5-5.4,2.3-5.7,5.9c-0.3,3.3-0.3,6.2-0.3,22.3V454.7z"
				/>
			<path class="st0" d="M257.4,458.3c0-8.4-0.7-9.5-6.2-10.6c-1.1-0.2-3.5-0.3-4.7-0.3c-0.6,0-1.1-0.2-1.1-0.6
				c0-0.6,0.7-0.8,2.2-0.8c6.2,0,14.9,0.3,15.6,0.3c0.7,0,9.4-0.3,13.5-0.3c1.5,0,2.2,0.2,2.2,0.8c0,0.4-0.6,0.6-1.1,0.6
				c-1,0-1.8,0.1-3.5,0.3c-3.7,0.5-4.8,2.3-5.1,5.9c-0.3,3.3-0.3,6.4-0.3,10.7v11.6c0,4.6-0.1,4.8-1.8,5.6
				c-8.8,3.5-21.3,4.6-29.3,4.6c-10.5,0-30.1-1-45.4-11c-8.4-5.5-16.4-16.5-16.4-29.4c0-16.5,10.8-28.2,23.1-33.9
				c12.4-5.8,26.1-6.5,36.7-6.5c8.7,0,18.5,1.3,21.1,1.8c2.9,0.5,7.7,0.9,11.2,1c1.4,0.1,1.7,0.5,1.7,0.9c0,1.4-1,4.3-1,14.6
				c0,1.7-0.3,2.2-1.2,2.2c-0.7,0-0.8-0.6-1-1.5c-0.1-1.4-0.8-4.3-2.9-6.8c-3.5-3.9-14.6-8.4-32.5-8.4c-8.7,0-19.1,0.6-29.6,6.8
				c-8,4.7-13.7,14.1-13.7,26.2c0,14.5,9.8,25.1,14.6,28.6c10.9,7.9,23.5,11,36.2,11c5,0,12.2-0.6,15.7-2.2c1.8-0.7,2.8-1.9,2.8-3.6
				V458.3z"/>
			<path class="st0" d="M318,454.7c0,9.9,0,18.1,0.7,22.4c0.4,3,1.3,5.3,5.7,5.7c2.1,0.2,5.3,0.4,6.6,0.4c0.9,0,1.2,0.3,1.2,0.6
				c0,0.5-0.7,0.8-2.3,0.8c-8.1,0-17.3-0.3-18-0.3c-0.7,0-10,0.3-14.4,0.3c-1.6,0-2.3-0.2-2.3-0.8c0-0.3,0.3-0.6,1.2-0.6
				c1.3,0,3.1-0.2,4.4-0.4c2.9-0.4,3.7-2.7,4.3-5.7c0.7-4.3,0.7-12.5,0.7-22.4v-18.2c0-16.1,0-19-0.3-22.3c-0.3-3.5-1.8-5.3-5-5.8
				c-1.6-0.3-3.5-0.4-4.5-0.4c-0.6,0-1.2-0.2-1.2-0.6c0-0.6,0.7-0.8,2.3-0.8c4.8,0,14.1,0.3,14.8,0.3c0.7,0,10-0.3,14.4-0.3
				c1.6,0,2.3,0.2,2.3,0.8c0,0.4-0.6,0.6-1.2,0.6c-1,0-1.9,0.1-3.7,0.3c-4,0.5-5.1,2.3-5.4,5.9c-0.3,3.3-0.3,6.2-0.3,22.3V454.7z"/>
			<path class="st0" d="M376.1,454.9c0,15.2,0.6,21.8,3.2,23.6c2.4,1.7,6.2,2.4,17.6,2.4c7.8,0,14.3-0.1,17.8-3.1
				c1.9-1.7,3.4-4.2,3.8-6.2c0.1-0.8,0.4-1.3,1.3-1.3c0.7,0,0.9,0.4,0.9,1.5c0,1.1-1,7.3-2.2,10.3c-1,2.4-1.5,2.8-9.3,2.8
				c-10.6,0-18.2-0.2-24.4-0.3c-6.2-0.2-10.7-0.3-15-0.3c-0.6,0-3.1,0.1-6,0.1c-2.9,0.1-6.2,0.2-8.4,0.2c-1.6,0-2.4-0.2-2.4-0.8
				c0-0.3,0.3-0.6,1.2-0.6c1.3,0,3.1-0.2,4.4-0.4c2.9-0.4,3.7-2.7,4.3-5.7c0.7-4.3,0.7-12.5,0.7-22.4v-18.2c0-16.1,0-19-0.3-22.3
				c-0.3-3.5-1.5-5.2-6.3-5.9c-1.2-0.2-3.7-0.3-5-0.3c-0.6,0,0.8-0.2,0.8-0.6c0-0.6-1.3-0.8,0.4-0.8c6.6,0,15.9,0.3,16.6,0.3
				c0.7,0,11.5-0.3,15.9-0.3c1.6,0,2.4,0.2,2.4,0.8c0,0.4-0.6,0.6-1.2,0.6c-1,0-3.1,0.1-4.9,0.3c-4.3,0.5-5.4,2.3-5.7,5.9
				c-0.3,3.3-0.3,6.2-0.3,22.3V454.9z"/>
			<path class="st0" d="M442.3,436.5c0-16.1,0-19-0.3-22.3c-0.3-3.5-1.5-5.2-6.5-5.9c-1.2-0.2-3.8-0.3-5.1-0.3
				c-0.6,0-1.2-0.2-1.2-0.6c0-0.6,0.8-0.8,2.4-0.8c3.5,0,7.5,0,10.9,0.1l6.2,0.2c1.1,0,31,0,34.5-0.1c2.9-0.1,5.3-0.3,6.5-0.5
				c0.8-0.1,1.4-0.5,2.1-0.5c0.5,0,0.6,0.4,0.6,0.9c0,0.7-0.8,2-1.2,4.8c-0.2,1-0.5,5.6-0.8,6.8c-0.2,0.5-0.5,1.1-1.1,1.1
				c-0.9,0-1.2-0.5-1.2-1.3c0-0.7-0.2-2.5-0.9-3.7c-1.1-1.7-2.6-2.9-10.7-3.5c-2.6-0.2-19-0.3-20.6-0.3c-0.6,0-0.9,0.3-0.9,1v28.5
				c0,0.7,0.2,1,0.9,1c2,0,20.5,0,24-0.2c3.6-0.2,5.7-0.4,7.1-1.4c1.1-0.8,1.7-1.3,2.3-1.3c0.5,0,0.8,0.2,0.8,0.8
				c0,0.6-0.8,2.4-1.2,5.8c-0.3,2.1-0.6,5.9-0.6,6.6c0,0.8,0,2-1.1,2c-0.8,0-1.1-0.4-1.1-0.9c0-1,0-2.1-0.6-3.4
				c-0.6-1.4-2-3.2-7.8-3.6c-4.1-0.3-19-0.5-21.5-0.5c-0.8,0-1.1,0.3-1.1,0.7v9.1c0,3.5-0.2,15.5,0,17.6c0.5,7.1,2.7,8.5,17.5,8.5
				c3.9,0,10.5,0,14.5-1.1c3.9-1.1,5.7-3.2,6.8-7.4c0.3-1.1,0.6-1.5,1.4-1.5c0.9,0,0.9,0.8,0.9,1.5c0,0.8-1.2,7.8-2,10
				c-1.1,2.7-2.3,2.7-8.1,2.7c-11.3,0-19.6-0.2-25.5-0.3c-5.9-0.2-9.5-0.3-11.8-0.3c-0.3,0-2.9,0-6,0.1c-3,0-6.5,0.2-8.7,0.2
				c-1.7,0-2.4-0.2-2.4-0.8c0-0.3,0.3-0.6,1.2-0.6c1.4,0,3.2-0.2,4.5-0.4c3-0.4,3.8-2.7,4.4-5.7c0.8-4.3,0.8-12.5,0.8-22.4V436.5z"
				/>
			<path class="st0" d="M520.1,483.2c-2.1-0.7-2.3-1.1-2.3-3.9c0-5.2,0.6-9.3,0.8-10.9c0.2-1.1,0.5-1.7,1.2-1.7
				c0.9,0,1.1,0.3,1.1,1.1c0,0.9,0,2.4,0.5,3.8c2.3,7.6,12.2,10.5,22.3,10.5c14.5,0,21.6-7.1,21.6-13.7c0-7.1-4.4-11.2-17.3-18.6
				l-6.8-3.8c-16-9-19.6-15.4-19.6-22.4c0-11,12.1-18.6,31.2-18.6c5.9,0,10.3,0.4,14,1c2.9,0.4,4.1,0.5,5.3,0.5
				c1.2,0,1.5,0.2,1.5,0.7c0,0.5-0.6,3.9-0.6,10.9c0,1.7-0.3,2.4-1.1,2.4c-0.9,0-1.1-0.5-1.2-1.3c-0.2-1.2-1.1-4-2-5.2
				c-0.9-1.1-5-5.5-18.8-5.5c-10.4,0-18.5,4.4-18.5,12c0,5.9,3.9,9.6,18.4,17.3l4.2,2.3c17.8,9.6,22,16,22,24.2
				c0,4.2-2.4,12.1-12.8,17.1c-6.5,3.1-14.6,4.3-22.8,4.3C533.2,486,526.3,485.3,520.1,483.2z"/>
		</g>
	</g>
</g>
<g id="TM" class="st4">
	<g class="st5">
		<path class="st0" d="M586.8,418v-11.5h-4.3V405h10.3v1.5h-4.3V418H586.8z"/>
		<path class="st0" d="M594.5,418v-13h2.6l3.1,9.2c0.3,0.9,0.5,1.5,0.6,1.9c0.1-0.5,0.4-1.2,0.7-2.1l3.1-9h2.3v13h-1.7v-10.9
			l-3.8,10.9H600l-3.8-11.1V418H594.5z"/>
	</g>
</g>
<g>
	<path class="st0" d="M604.8,414.8c0,5.6-4.4,10-10.1,10c-5.6,0-10.1-4.4-10.1-10c0-5.5,4.5-9.8,10.1-9.8
		C600.4,405,604.8,409.4,604.8,414.8z M587.1,414.8c0,4.4,3.2,7.9,7.7,7.9c4.3,0,7.5-3.5,7.5-7.8c0-4.4-3.2-7.9-7.6-7.9
		S587.1,410.5,587.1,414.8z M593.2,420h-2.3v-9.8c0.9-0.2,2.2-0.3,3.8-0.3c1.9,0,2.7,0.3,3.4,0.7c0.5,0.4,1,1.2,1,2.2
		c0,1.1-0.8,1.9-2,2.3v0.1c1,0.4,1.5,1.1,1.8,2.4c0.3,1.5,0.5,2.1,0.7,2.5h-2.5c-0.3-0.4-0.5-1.3-0.8-2.4c-0.2-1.1-0.8-1.6-2-1.6
		h-1.1V420z M593.2,414.4h1.1c1.3,0,2.3-0.4,2.3-1.4c0-0.9-0.7-1.5-2.1-1.5c-0.6,0-1,0.1-1.3,0.1V414.4z"/>
</g>
</svg>
