<?xml version="1.0" encoding="UTF-8" standalone="no"?>
<!-- Generator: Adobe Illustrator 22.1.0, SVG Export Plug-In . SVG Version: 6.00 Build 0)  -->

<svg
   xmlns:dc="http://purl.org/dc/elements/1.1/"
   xmlns:cc="http://creativecommons.org/ns#"
   xmlns:rdf="http://www.w3.org/1999/02/22-rdf-syntax-ns#"
   xmlns:svg="http://www.w3.org/2000/svg"
   xmlns="http://www.w3.org/2000/svg"
   xmlns:sodipodi="http://sodipodi.sourceforge.net/DTD/sodipodi-0.dtd"
   xmlns:inkscape="http://www.inkscape.org/namespaces/inkscape"
   version="1.1"
   id="Layer_1"
   x="0px"
   y="0px"
   viewBox="0 0 100 103"
   xml:space="preserve"
   sodipodi:docname="Asset 3.svg"
   width="312"
   height="321"
   inkscape:version="0.92.4 (5da689c313, 2019-01-14)"><metadata
   id="metadata75"><rdf:RDF><cc:Work
       rdf:about=""><dc:format>image/svg+xml</dc:format><dc:type
         rdf:resource="http://purl.org/dc/dcmitype/StillImage" /><dc:title> World Health Organization  logo</dc:title><dc:date>14 sep 2019</dc:date></cc:Work></rdf:RDF></metadata><defs
   id="defs73" /><sodipodi:namedview
   pagecolor="#ffffff"
   bordercolor="#666666"
   borderopacity="1"
   objecttolerance="10"
   gridtolerance="10"
   guidetolerance="10"
   inkscape:pageopacity="0"
   inkscape:pageshadow="2"
   inkscape:window-width="1366"
   inkscape:window-height="705"
   id="namedview71"
   showgrid="false"
   inkscape:showpageshadow="false"
   inkscape:zoom="2.3685167"
   inkscape:cx="27.278535"
   inkscape:cy="27.257566"
   inkscape:window-x="-8"
   inkscape:window-y="-8"
   inkscape:window-maximized="1"
   inkscape:current-layer="Layer_1" />
<style
   type="text/css"
   id="style2">
	.st0{fill:#009edb;}
</style>
<title
   id="title4"> World Health Organization  logo</title>

<path
   style="fill:#009edb;fill-opacity:1;stroke-width:0.26967025"
   d="m 49.943564,0.6187184 c -3.011668,0 -1.740343,4.4834513 -1.506106,5.9558301 0,0.066925 0.234974,10.1413165 0.301899,12.4502775 0.46849,-0.13385 0.903834,-0.23582 1.372309,-0.336222 l 0.902308,-0.233293 C 51.047354,16.213297 51.281568,6.6105939 51.281568,6.543669 51.482342,5.0043644 53.055636,0.61873663 49.943564,0.6187184 Z m 2.343227,4.8511158 -0.03426,0.1371863 c -0.03338,0.2342371 -0.100302,0.4339046 -0.133849,0.6346965 5.186775,0.5019356 10.039577,2.778362 13.753973,6.425832 l -2.610824,2.607396 0.09943,-0.466594 -0.332779,-0.168103 -0.435713,0.03426 0.09943,-0.301917 -0.301898,-1.070392 -0.634697,-0.703307 -2.041311,-1.070411 -0.168102,0.198983 -0.367104,0.102939 c 0.702729,1.003889 1.070411,2.208939 1.070411,3.41362 V 15.7106 l 1.005207,1.272817 -0.470002,0.09943 0.301899,0.47002 -0.90229,0.902284 -0.370528,-0.668997 c -0.167402,0.468485 -0.401289,0.936441 -0.669005,1.337989 l 0.202425,0.168111 -2.778923,2.744615 c -0.167402,-0.167226 -0.333588,-0.302693 -0.500901,-0.469999 -0.267698,0.133849 -0.5351,0.235817 -0.802798,0.3362 l 0.233289,0.164582 -0.13385,0.13385 -0.33278,0.168117 -0.133849,0.336195 -0.202408,-0.202396 -0.569511,0.202396 0.168103,0.267618 0.401408,-0.102965 0.267593,0.03424 0.03426,-0.13385 0.198999,-0.09947 0.06868,-0.09947 0.367085,-0.102965 h 0.267611 l 0.168102,0.13385 -1.07041,1.104711 -0.06868,-0.09947 -1.13558,0.202406 -0.267611,0.267588 -0.236713,0.031 0.703307,-0.668996 -0.267611,-0.133849 -0.668984,0.871401 0.202408,-0.03424 v 0.336215 l 0.233289,0.09947 0.03426,0.33277 -0.401392,-0.06513 -0.401407,0.06513 -1.005207,-0.500868 c 0,0 -0.06868,2.6789 -0.06868,4.017428 2.34242,0.803119 4.854558,1.938917 4.854558,4.950598 0.03338,1.271593 -0.637718,2.477598 -1.708531,3.180324 l -0.06517,0.03424 -0.06868,0.06513 c -0.936965,0.635801 -2.174703,0.969078 -3.245518,1.303703 l -0.03426,2.109911 c 1.706617,0.836586 3.74819,2.074266 3.547416,5.554421 -0.03355,0.870044 -0.366979,1.102989 -0.634697,1.169914 -1.003888,0.234232 -2.042627,0.403069 -3.046516,0.470014 v 0.768486 c 4.417123,-0.301177 8.568814,-2.142183 11.781273,-5.187331 l 2.744619,2.744619 c -8.800785,8.499622 -22.756305,8.501313 -31.59057,0.06858 l 2.744619,-2.744629 c 3.178997,2.978233 7.293852,4.78409 11.64405,5.118725 V 47.266564 C 44.421477,46.93193 40.538926,45.224672 37.527241,42.346831 l 0.703307,-0.734168 1.005225,0.09947 0.535204,-0.569514 1.403172,0.06857 0.202427,-0.504322 -0.06517,-0.198981 c 2.074703,1.57278 4.549902,2.57641 7.160021,2.84411 V 42.58009 c -2.877822,-0.334644 -5.557026,-1.538796 -7.698655,-3.513115 l 2.744619,-2.744619 c 0.669265,0.602324 1.407142,1.104539 2.24372,1.506108 0.06693,-0.267699 0.133673,-0.499956 0.26761,-0.734198 -0.702728,-0.368082 -1.372959,-0.805155 -1.941819,-1.307117 l 2.744618,-2.741195 c 0.435011,0.334634 0.935541,0.635487 1.437495,0.802805 v -0.837113 c -0.334642,-0.13384 -0.634591,-0.334412 -0.902307,-0.535207 l 0.768493,-0.77191 c -0.2677,-0.06696 -0.535083,-0.167226 -0.802799,-0.267598 l -0.535187,0.53863 c -0.267717,-0.301177 -0.50169,-0.636268 -0.669003,-0.970912 -0.46849,-0.200775 -0.937298,-0.436465 -1.372308,-0.737622 -1.606231,-0.970416 -2.575673,-2.744721 -2.542211,-4.652125 -0.03338,-1.271583 0.335062,-2.543511 1.104715,-3.547414 l -2.744619,-2.74119 c 2.00778,-1.940871 4.584155,-3.181016 7.328123,-3.616046 v -0.768249 c -2.944743,0.435029 -5.7217,1.774612 -7.863326,3.84933 l -0.47002,-0.470015 c -0.100474,0.167397 -0.233236,0.402142 -0.367085,0.703309 l 0.301899,0.301919 c -2.442808,2.576643 -3.816698,5.987016 -3.88364,9.534096 h -3.914503 c 0.06693,-4.58443 1.84022,-8.966736 5.019218,-12.313042 l 1.238512,1.238513 h 0.168104 c 0.234236,-0.03338 0.502532,-0.102053 0.703307,-0.202409 l -1.574718,-1.57122 c 0.836578,-0.803116 1.739887,-1.539323 2.710313,-2.175109 0.06692,-0.200791 0.102053,-0.402198 0.202409,-0.56951 0.167224,-0.267716 0.366154,-0.535099 0.60039,-0.802799 -1.472381,0.803116 -2.80933,1.806688 -4.014011,2.977907 l -2.744619,-2.744618 c 3.680934,-3.5805456 8.466863,-5.8218231 13.620177,-6.3572201 0,-0.1003012 -0.03426,-0.1681023 -0.03426,-0.1681023 C 47.566689,5.972257 47.534019,5.8068957 47.500629,5.5726586 34.48348,6.9111714 25.080847,18.5222 26.452822,31.505861 c 1.271607,12.013254 11.376037,21.149873 23.456205,21.116405 13.050596,0 23.626888,-10.607993 23.593426,-23.658608 0,-12.113632 -9.169186,-22.2557895 -21.215894,-23.4939332 z M 32.309393,6.409872 c -4.24981,0.903502 -7.798633,4.64862 -8.769059,9.266516 1.338531,-1.572767 3.648981,-2.474707 4.954032,-4.014011 1.305068,-1.572748 1.740306,-3.7131994 3.815027,-5.252505 z m 35.134543,0 c 2.074721,1.5393056 2.509961,3.679757 3.81503,5.252505 1.30505,1.572768 3.581195,2.47555 4.919726,4.048317 -0.970427,-4.617897 -4.518406,-8.39732 -8.734756,-9.300822 z M 53.089591,7.8816723 52.787674,8.0806551 52.118672,8.0154826 v 0.1681033 c 0.435029,0.033376 0.869582,0.066925 1.204207,0.1338488 l 0.569511,-0.034258 0.569509,0.034258 0.233289,-0.2024248 -0.435714,-0.1989827 z M 52.01918,9.0172692 c 0,0.3680331 -0.03426,1.2076308 -0.03426,1.2076308 0,0.267647 -0.03426,1.236703 -0.03426,1.437477 0.267699,0.03338 0.569405,0.06604 0.837103,0.09943 2.509733,0.60227 3.413621,2.042471 3.413621,3.447926 0,2.30894 -1.975176,3.180052 -4.384522,3.84932 l -0.802798,0.19898 c -0.736191,0.1674 -1.504121,0.368731 -2.240293,0.569504 -0.267718,0.0669 -0.535101,0.132974 -0.802817,0.233293 -2.677043,0.803118 -4.988337,2.107769 -4.988337,5.420607 0,3.312847 2.644986,4.518022 5.221643,5.321141 0,-0.936969 -0.03513,-1.907152 -0.06868,-2.84411 -1.171201,-0.53542 -1.938378,-1.237194 -1.938378,-2.408415 0,-1.1712 0.73461,-1.841249 1.838887,-2.343201 0.234253,-0.100281 0.501637,-0.201514 0.802815,-0.301917 0.635734,-0.234191 1.373733,-0.399604 2.109922,-0.600369 l 0.802799,-0.202425 c 3.61401,-0.87004 7.694382,-2.005967 7.66092,-6.858102 0,-2.442807 -1.772892,-5.121782 -6.089628,-6.0587467 C 52.887889,9.1183673 52.454248,9.0505644 52.019218,9.01719 Z m -4.28503,0.3705097 c -0.803115,0.2677168 -1.604438,0.5693529 -2.37409,0.9709171 -0.836578,0.267701 -2.041697,0.332254 -3.279824,1.670783 -0.401567,0.468474 -0.770917,0.969849 -1.139022,1.471801 -0.368086,0.535417 -0.401284,1.4073 -0.669001,1.842329 -0.401548,0.669265 -0.3019,1.070392 -0.3019,1.070392 -0.06693,0.30118 -0.231495,0.602868 -0.432287,0.837123 -0.40155,0.46842 -1.0067,0.70076 -1.609024,0.600371 0.568862,0.267719 1.341431,-0.09943 1.341431,-0.09943 -0.133851,0.368103 -0.234975,0.736612 -0.301918,1.104714 0.635803,-1.438917 1.202415,-1.939184 1.403189,-2.106496 0.267717,0.06692 0.839284,0.03285 1.876635,-0.56951 1.171218,-0.669266 2.942546,-1.774298 3.4445,-2.477026 0.535415,-0.70271 1.239039,-1.273555 2.075617,-1.574717 0,-1.003889 -0.03426,-1.938077 -0.03426,-2.7411923 z M 24.209335,10.255764 c -5.655268,4.216347 -3.246256,10.97765 -3.547417,13.119266 2.91128,-6.324505 7.230493,-4.985129 9.070959,-10.975023 -1.070814,1.807004 -5.791152,2.575515 -7.966243,7.293818 1.137738,-2.810893 0.568772,-7.095644 2.442701,-9.438061 z m 51.365541,0 c 1.907391,2.308955 1.338426,6.627168 2.442701,9.438061 -2.208552,-4.718303 -6.925467,-5.488499 -7.962819,-7.362447 1.840467,6.023355 6.156255,4.683998 9.067536,10.975046 -0.301162,-2.108159 2.107831,-8.901237 -3.547418,-13.05066 z m -14.79006,0.871425 -0.401409,0.3019 0.5009,0.267611 0.56951,0.40139 0.06868,-0.336204 -0.233287,-0.367102 z m -17.867475,1.639903 0.837103,0.03426 -0.970901,1.036104 -0.603816,0.133849 z m -9.472368,0.435714 2.744617,2.741176 c -3.312846,3.446698 -5.185581,8.066444 -5.252505,12.85168 h -3.88364 c 0.06693,-5.856034 2.342508,-11.409969 6.391528,-15.592856 z m 32.997182,0.06517 c 4.015575,4.182887 6.255992,9.738555 6.322917,15.527664 h -3.880215 c -0.03338,-2.877809 -0.705362,-5.722385 -2.010431,-8.299038 l 0.03426,-0.06865 0.267611,0.13385 0.06869,-0.198981 -0.703308,-1.204212 -0.837104,-1.138998 -0.970919,-0.802816 c -0.33463,-0.401545 -0.668007,-0.802636 -1.036093,-1.204186 z m -14.556771,1.574719 v 0.768494 c 1.104275,0.167224 2.172999,0.466436 3.176888,0.867984 0.13385,-0.234236 0.23415,-0.465627 0.267613,-0.699882 -1.104294,-0.468473 -2.2733,-0.769282 -3.444501,-0.936596 z m -32.259553,1.036087 c -5.186793,7.328414 0.300107,11.711614 0.500883,14.38865 1.305067,-5.11985 4.418053,-5.152102 6.425849,-11.911627 -0.535416,0.736193 -0.903468,1.068249 -2.308923,2.205991 -2.108165,1.673151 -3.580668,4.04985 -4.082622,6.693429 0.133851,-3.27938 -1.873718,-7.963216 -0.535187,-11.376443 z m 60.535991,0 c 1.338513,3.413227 -0.669898,8.097063 -0.569509,11.376443 -0.535416,-2.643579 -1.974458,-5.020278 -4.082624,-6.693429 -1.405454,-1.171209 -1.773506,-1.469798 -2.308904,-2.205991 2.007779,6.759525 5.118183,6.791777 6.456712,11.911627 0.200775,-2.643579 5.691102,-7.026778 0.504325,-14.38865 z m -41.227613,2.274617 c -0.1674,0.03338 -0.302691,0.06781 -0.470019,0.03426 l 0.370527,0.401386 c 0.03338,-0.133849 0.06605,-0.301841 0.09943,-0.435692 z m 22.553914,0.09943 0.936595,0.03426 0.233289,0.267588 -0.09943,0.401415 1.307124,0.802797 0.267611,-0.03091 1.639902,1.907514 0.669003,-0.236726 c 1.070814,2.308959 1.63732,4.853543 1.670783,7.396739 h -3.880191 c 0,-1.003884 -0.132796,-1.973175 -0.367103,-2.943601 l 0.164589,-0.236734 0.236731,-1.2385 -0.168103,-1.303683 -0.470018,-1.5061 -1.070411,-1.571293 0.267613,0.13385 0.133848,-0.13385 -0.867983,-0.603837 -0.06869,0.202422 0.871428,1.235073 0.500881,1.005224 0.336224,1.005221 0.09943,0.669006 0.168102,1.135575 -0.336204,0.03424 c 0,0 -0.36705,-0.700599 -0.500899,-1.001776 l 0.168103,-0.267598 -0.336223,-0.470004 v -0.435716 l -0.233289,-0.301906 -0.301917,0.03424 C 62.358445,22.034964 62.256546,21.833562 62.122715,21.66624 l 0.202407,0.10297 0.06517,-0.06865 -0.09943,-0.233284 0.267594,-0.133849 -0.09943,-0.133849 -0.367084,0.133849 0.13385,-0.603817 -0.236732,-0.133849 -0.198981,0.470018 c -0.435006,-0.635804 -0.904656,-1.239147 -1.40661,-1.808023 z m -21.483504,1.506114 2.74462,2.744605 c -0.568879,0.635802 -1.069409,1.34027 -1.437495,2.109922 h -0.202428 l -0.401389,0.09947 h -0.133851 l -0.401407,0.367099 0.535205,-0.06513 0.466576,-0.102965 -0.09943,0.13385 -0.401389,0.267598 h -0.198982 l -0.603817,0.470014 -0.569512,-0.06513 -0.837121,1.571281 0.168102,0.301917 -0.466593,0.535196 -0.06868,0.669006 h -1.739394 c 0.03338,-3.379783 1.337952,-6.593828 3.646908,-9.036637 z m 19.843584,0.102969 c 0.635802,0.702735 1.206578,1.471518 1.708531,2.274608 l -0.336222,0.09947 0.03426,0.603803 1.001798,0.634687 c 0.2677,0.568867 0.47081,1.137055 0.638123,1.739399 l -0.168103,0.267588 -0.367086,0.267619 -0.102938,0.569494 -0.267611,0.13386 -0.198983,0.267578 -0.202407,-0.09947 h -0.367104 l 0.202426,-0.301916 0.164591,-0.768497 0.267593,-0.168097 -0.734189,-0.703314 -0.535186,0.202406 -0.133851,0.535216 -0.336204,0.367089 -0.367103,-0.301906 -0.133849,-0.332791 0.198982,-0.13385 0.102938,0.199002 0.16459,-0.06513 -0.06517,-0.336215 h -0.233305 v 0.13385 l -0.168102,0.03424 -0.837105,-1.005221 -0.301918,-0.2333 0.09943,-0.09947 0.267612,-0.09947 -0.267612,-0.102976 c 0,0 -0.299316,0.06858 -0.33278,0.06858 l 0.168103,0.23328 h -0.435703 c -0.267717,-0.435077 -0.536786,-0.804446 -0.871427,-1.13907 z m 0.470018,1.104717 -0.603816,0.298475 -0.198982,0.370524 -0.133849,0.332794 0.267593,0.435706 -0.102939,0.198972 -0.367101,0.133849 0.03426,0.301917 0.669002,-0.198982 0.199,-0.401407 -0.466593,-0.603803 0.233287,-0.367094 0.634696,0.4357 0.102938,-0.102975 -0.133848,-0.09947 -0.133849,-0.267616 0.26761,-0.13385 z m -9.403738,2.171687 c -0.702729,0.167389 -1.406423,0.369551 -2.075618,0.603803 0.03338,1.204648 0.202409,10.138395 0.202409,11.108842 0.334623,-0.100484 0.666314,-0.231558 0.967475,-0.298503 0.234237,-0.06696 0.438191,-0.13542 0.672427,-0.202396 0,-0.635801 0.199844,-9.605538 0.233307,-11.211746 z m 5.653914,0 c 0.267698,0.301157 0.503359,0.605383 0.737612,0.940008 l -0.133848,0.432282 -0.367104,-0.267609 -0.301899,0.06858 0.13385,0.267598 h 0.133848 l -0.168101,0.401418 -0.09943,-0.168117 -0.435715,-0.13385 0.33278,-0.06513 v -0.06858 l -0.33278,-0.23328 0.09943,-0.737642 z m -8.566653,0.90571 c -0.669265,0.401559 -1.002624,0.870317 -1.036087,1.506088 0,0.669269 0.401988,1.104569 1.104716,1.506139 v -0.301927 l -0.435714,-0.470024 0.233289,-0.432261 0.202425,-0.06858 c -0.03355,-0.769662 -0.03426,-1.605559 -0.03426,-1.739409 z m -31.453329,0.03424 c -2.108166,8.901181 3.512549,9.937489 4.984914,13.685343 -0.234239,-5.354072 3.180437,-6.426014 2.912737,-12.549747 -1.505843,2.911278 -3.883746,3.581965 -3.616045,9.571848 -1.27159,-5.320634 -4.315069,-7.327682 -4.281606,-10.707444 z m 66.6565,0 c 0.03338,3.41322 -3.010016,5.387671 -4.281604,10.741762 0.267697,-6.056828 -2.076742,-6.694888 -3.616047,-9.606166 -0.30116,6.123733 3.146975,7.195675 2.912739,12.549747 1.438899,-3.714387 7.093077,-4.784162 4.984912,-13.685343 z m -20.210686,1.337981 c 0.06692,0.200775 0.101172,0.399615 0.168102,0.600389 l -0.370528,1.104719 v 0.367089 l 0.47002,-0.768507 c 0.100474,0.669279 0.168982,1.372066 0.202426,2.041315 h -3.413621 l -0.06868,-0.301906 0.40141,-0.298483 0.06868,-0.202405 0.16459,-0.13385 0.470018,-0.06513 0.03426,-0.202436 -0.401392,-0.202406 0.703308,-0.367089 0.699882,-0.09947 0.168103,-0.336195 0.40139,-0.23332 0.168102,-0.332781 z m -23.589999,1.739409 0.833677,0.13385 0.13385,0.133849 c -0.06692,0.435027 -0.100302,0.902975 -0.13385,1.338012 h -0.936595 l -0.435714,-0.569515 0.06868,-0.768497 z m 12.179254,2.041325 c -0.03355,0.769641 -0.03513,1.872023 -0.06868,2.641674 0.903502,0.334645 1.506106,0.772528 1.506106,1.475245 0,0.870043 -0.902028,1.337899 -1.571293,1.605589 -0.267698,0.100281 -0.668949,0.234141 -0.802798,0.267598 -0.535398,0.167398 -1.070183,0.334432 -1.605598,0.535207 -0.267698,0.100483 -0.5351,0.198941 -0.802799,0.332791 -0.870039,0.468474 -1.842327,1.172851 -1.842327,2.37753 0,1.338507 0.971391,2.041943 1.941818,2.61082 0,-0.234253 -0.03426,-2.275457 -0.03426,-2.308914 0.03355,-0.401559 0.402988,-0.668955 0.737612,-0.802805 0.501952,-0.234242 1.035876,-0.436516 1.571292,-0.603823 0.301161,-0.100281 0.5351,-0.200663 0.802799,-0.267588 1.974333,-0.602344 4.250723,-1.337079 4.250723,-3.746405 0,-2.409347 -1.941029,-3.380755 -4.082604,-4.116919 z m -19.877907,0.332771 h 3.883641 c 0,0.368092 0.03251,0.73746 0.09943,1.139019 l -0.470019,0.09947 -0.09943,0.470024 -1.005225,1.272819 0.03426,1.739398 -1.001782,0.332771 h -0.56951 c -0.535398,-1.639685 -0.804486,-3.313445 -0.87141,-5.053522 z m 32.527164,0 h 3.880198 c -0.133851,4.550973 -1.939712,8.868149 -5.11871,12.114062 l -0.535204,-0.535197 0.301916,-0.332791 -0.301916,-1.506108 -0.202409,-0.06858 0.133849,-0.267619 -0.634696,-0.198972 -0.133849,0.535197 -0.06517,0.668996 -0.13385,0.133849 -1.173327,-1.169884 c 2.442808,-2.543185 3.849282,-5.859254 3.983131,-9.372876 z m 4.61781,0 h 3.880215 C 72.596917,35.285413 70.288767,40.807663 66.23973,44.923639 L 63.529434,42.17901 c 3.312848,-3.41324 5.220731,-7.930968 5.321117,-12.649258 z m -41.797106,0.03424 h 3.88364 c 0.03338,1.673163 0.335169,3.382122 0.837104,4.98835 l -0.236714,-0.03424 -0.233305,-0.23329 -1.104698,-0.102955 0.336204,0.469993 -1.005206,-0.202405 0.267594,-0.23329 -0.233289,-0.23329 -0.737612,0.301896 -0.267612,0.4666 0.102939,1.104701 0.833678,2.006997 0.401391,0.634698 0.236731,0.06858 -0.638122,-1.204213 -0.133849,-0.603823 0.133849,-0.133849 -0.09943,-0.332771 0.367085,0.06513 0.603816,0.871401 0.133848,0.06513 v -0.634698 l 0.233289,0.13385 0.06869,0.336215 0.600373,0.164582 0.267611,-0.198982 0.102937,0.06513 v 0.470024 l 0.267612,0.332771 0.332779,0.06858 0.737613,1.204202 0.435714,0.13385 0.133849,-0.569505 c 0.769653,1.238146 1.638639,2.410572 2.676008,3.447933 l -2.744621,2.744604 C 29.530843,40.875952 27.187544,35.352831 27.053694,29.563713 Z m 9.304265,0 h 1.169884 L 37.26,30.500586 l 0.336204,0.370533 -0.367085,0.566091 h -0.63812 l -0.03426,-0.031 c -0.100299,-0.602346 -0.165464,-1.239991 -0.19898,-1.842325 z m 2.175108,0 h 0.90229 l 0.13385,0.267598 -0.198982,0.90574 -0.09943,0.164582 0.33278,0.737623 -0.233289,0.133849 -0.168102,-0.202415 -0.06517,0.06858 0.164589,0.435715 0.267594,0.500879 h 0.13385 l 0.06868,-0.46657 -0.133854,-0.168118 v -0.301764 l -0.03426,-0.634698 0.202426,-1.139009 -0.202426,-0.301927 h 0.634697 c 0.133849,2.308964 1.073204,4.485091 2.679432,6.158244 l -2.744618,2.710321 c -0.267696,-0.301157 -0.568559,-0.601129 -0.802797,-0.902296 l 0.13385,-0.970912 -0.401391,-0.936604 -0.102938,-1.47179 -0.466576,-0.90573 0.09943,-0.569515 -0.56951,-1.070393 -0.466594,-0.23329 0.199001,-0.569514 -0.199001,-0.435716 0.199001,-0.500878 h 0.535187 z m 21.884895,0.03424 h 2.977906 C 63.261771,32.91108 61.924715,36.0566 59.64922,38.432479 l -0.40139,-0.401408 0.164588,-0.535196 -0.298491,-1.204202 -0.603816,0.902295 -0.367085,-0.367089 0.267594,-0.367099 0.367102,-0.737622 -0.133849,-0.202395 0.233289,-0.535217 -0.03426,-0.500899 -0.133849,-0.500878 -0.332798,-0.102965 -0.133849,0.271022 -0.202408,-0.06858 c 0.301162,-0.435027 0.568544,-0.938133 0.802799,-1.406628 l 0.336205,-0.13385 0.202425,-0.267598 0.09943,0.102966 0.233287,-0.267599 -0.198983,-0.236724 0.16459,-0.03424 0.301898,0.137172 h 0.603835 l 0.367085,-0.202425 0.936596,-0.267599 -0.168104,-0.301906 -0.06517,-0.367089 0.500901,0.2333 0.202407,-0.09947 -0.102938,-0.401397 -0.634695,0.23329 -0.669002,-0.13385 z m -19.407887,0.435706 0.569511,0.600399 h 0.535206 l 0.699881,0.470004 0.202408,-0.09947 0.500899,0.367099 -0.233289,0.168117 0.569494,0.367079 -0.03426,-0.401397 0.301917,-0.500898 0.332779,0.332801 0.336223,0.469993 -0.603816,0.168118 0.267593,0.535196 0.401409,-0.236734 -0.06517,-0.164582 0.301898,-0.202416 0.164591,-0.837123 c 0.234253,0.501962 0.537627,0.97077 0.905732,1.37232 l -2.744619,2.744619 C 42.079682,33.78162 41.244053,31.974891 41.009799,30.03405 Z m -16.83137,1.536993 c -0.200775,3.178998 -2.344634,4.719344 -0.905716,10.508452 -2.509733,-4.919075 -6.389385,-6.757306 -7.527124,-10.10361 0.06693,9.202348 7.461199,10.572632 9.335129,13.115828 -1.572751,-5.856034 1.205893,-7.898879 -0.902289,-13.52067 z m 51.39642,0 c -2.108183,5.621791 0.670459,7.664636 -0.90229,13.52067 1.873928,-2.543196 9.268203,-3.91348 9.335128,-13.115828 -1.137738,3.379772 -5.017392,5.184535 -7.527124,10.10361 1.438919,-5.789108 -0.704939,-7.329454 -0.905714,-10.508452 z m -24.025714,1.13902 c 0,0.167226 -0.03426,0.936442 -0.03426,1.338011 0.435029,-0.234252 0.737613,-0.433882 0.737613,-0.768496 0,-0.200795 -0.266592,-0.402198 -0.634679,-0.569515 z m 4.617826,3.681213 0.703308,0.500908 0.535204,0.267588 0.267594,0.267598 -0.133848,0.13384 -0.837105,-0.2333 -0.267611,0.09947 -0.466578,-0.3671 -0.435712,-0.168087 c 0.234237,-0.167408 0.433921,-0.333591 0.634696,-0.500908 z m -5.520117,1.70509 c 0,0 -0.30269,0.101193 -0.470019,0.168097 -0.100473,0.03333 -0.399599,0.166355 -0.600373,0.2333 -0.200793,0.06696 -0.435713,0.16986 -0.435713,0.236714 0,0 0.198981,10.304254 0.198981,10.505028 0,2.10818 1.073835,2.141637 1.073835,0 0,-0.133849 0.233289,-11.143149 0.233289,-11.143149 z m -24.76331,0.401418 c 0.535398,2.442803 -1.005311,6.023958 1.437495,9.40373 -2.509732,-2.810895 -7.863345,-3.545742 -10.038454,-7.829015 2.710507,10.473941 9.806483,8.332476 12.98548,10.607943 -2.610118,-3.781302 -0.46935,-6.293168 -4.384521,-12.182658 z m 47.951903,0 c -3.91517,5.88949 -1.774403,8.401356 -4.384522,12.182658 3.212459,-2.275467 10.274974,-0.134033 12.98548,-10.607943 -2.175109,4.283273 -7.494398,5.01812 -10.004131,7.829015 2.442791,-3.379772 0.901237,-6.927469 1.403173,-9.40373 z m -43.39928,0.53862 0.699883,1.101277 0.03426,-0.164592 -0.33278,-0.77191 z m 29.243915,0.432271 2.744619,2.74462 c -1.003889,0.970436 -2.14117,1.839487 -3.379314,2.542213 l 0.367102,-0.768486 -0.133849,-0.332801 0.535205,-0.470014 v -0.267599 l -0.466576,-0.301906 0.367085,-0.768486 0.56951,-0.737623 -0.56951,-0.600379 h -0.435714 l -0.267594,-0.435786 c 0.234237,-0.200775 0.468227,-0.403039 0.669002,-0.603823 z m -23.222898,1.005212 0.87141,0.500888 0.168103,0.13385 -0.638122,0.638121 C 36.55743,41.445457 36.289187,41.144665 36.021487,40.81002 Z m 14.892978,0.367089 -0.03426,1.540427 c 1.204682,0.602324 2.341332,1.471172 2.809804,3.0774 0.200775,-2.677046 -1.303117,-3.814718 -2.775497,-4.617827 z m -21.720217,3.883699 c 1.305049,2.007777 -0.03338,4.516807 4.082621,8.398521 -4.015574,-2.375869 -9.601702,-1.373637 -12.278746,-4.552634 4.617914,8.834256 12.713564,5.222065 14.98906,6.326361 -2.175109,-3.011691 -0.702658,-4.717774 -6.792935,-10.172248 z m 40.493408,0 c -6.12374,5.454474 -4.618671,7.160557 -6.827243,10.172248 2.308959,-1.104296 10.404609,2.507895 14.989062,-6.326361 -2.643582,3.212465 -8.228868,2.176765 -12.244442,4.552634 4.115962,-3.915182 2.777571,-6.424211 4.082623,-8.398521 z m -26.338045,9.602733 c -2.275478,0.06696 -4.514912,0.436344 -6.690002,1.00521 -3.680932,0.970426 -6.863039,1.738234 -9.64047,0.332791 2.643582,2.342402 5.756813,3.212253 10.240843,2.710311 3.714413,-0.401559 6.72724,-2.273774 10.240862,-2.240307 h 0.133849 c -2.20857,1.104296 -4.184923,2.644409 -5.791154,4.518336 l 1.708533,0.23329 c 0,0 1.77124,-3.581347 5.887201,-4.518316 4.115963,0.936969 5.890628,4.518316 5.890628,4.518316 l 1.708531,-0.23329 c -1.606229,-1.873927 -3.582582,-3.41404 -5.791135,-4.518336 h 0.133849 c 3.51362,-0.03343 6.526448,1.838748 10.240861,2.240307 4.484048,0.468484 7.563801,-0.367909 10.240844,-2.710311 -2.777432,1.405443 -5.95952,0.637635 -9.64047,-0.332791 -2.175091,-0.568866 -4.414506,-0.938285 -6.690002,-1.00521 -2.074721,-0.03343 -4.152198,0.299901 -6.093052,1.036095 -1.940854,-0.736194 -4.014907,-1.069562 -6.089628,-1.036095 z M 31.698709,65.635048 v 14.752323 h 2.456439 V 65.635048 Z m 9.952681,0 v 6.096475 h -0.0274 c -0.458408,-1.02473 -1.481619,-1.673244 -2.614246,-1.619315 -2.184348,0 -3.506244,1.914982 -3.506244,5.231922 -1.8e-5,2.804605 1.049788,5.20448 3.55771,5.20448 1.56409,0 2.292095,-0.86272 2.696576,-1.725673 h 0.05497 c 0,0.512375 0.02495,1.052069 0.07888,1.564434 h 2.295185 c -0.05393,-0.566304 -0.08239,-1.15937 -0.08239,-1.725674 V 65.635048 Z m 39.155405,0 v 14.752323 h 2.425558 V 65.635048 Z m 10.463857,0 v 14.752323 h 2.425557 V 74.48302 c 0,-1.294394 0.458268,-2.374106 1.725694,-2.374106 0.99781,0 1.403171,0.648777 1.403171,2.212866 v 6.065591 h 2.425556 v -6.525323 c 0,-2.04949 -0.699426,-3.74984 -2.991625,-3.74984 -1.510145,0 -2.07644,0.837833 -2.507904,1.458075 h -0.05481 V 65.635048 Z M 0.31056587,66.660811 3.113502,80.414791 H 6.0811325 L 8.2390804,69.141266 h 0.027396 l 2.0756186,11.273525 h 3.01908 L 16.19499,66.660811 H 13.903231 L 11.87908,77.258473 h -0.0274 L 9.8035209,66.660862 H 6.7261228 L 4.6504887,77.258523 H 4.6264212 L 2.684604,66.660862 Z m 51.04648113,0 V 80.38734 h 2.535343 v -6.06559 h 4.072328 v 6.093041 h 2.507889 V 66.660862 h -2.507889 v 5.581891 H 53.89239 v -5.581891 z m 37.107243,0.754781 -2.425559,0.754772 h -0.0274 v 2.103064 h -1.619316 v 1.780564 h 1.619316 v 5.52699 c 0,2.130383 1.023615,2.967598 2.830391,2.967598 0.566315,0 1.134403,-0.106612 1.646772,-0.322469 v -1.725674 c -0.269666,0.134721 -0.595823,0.216121 -0.919434,0.216121 -0.701147,0 -1.104716,-0.324485 -1.104716,-1.403194 v -5.286802 h 2.02415 v -1.780585 h -2.024146 z m -68.71153,2.672569 c -2.049498,0 -4.446739,1.078527 -4.47372,5.204481 0,4.233832 2.39726,5.228507 4.47372,5.228507 2.076459,0 4.449706,-0.967721 4.449706,-5.228507 0,-4.125954 -2.373247,-5.204481 -4.449706,-5.204481 z m 54.933545,0 c -1.105648,0 -2.213437,0.265947 -3.211213,0.751338 l 0.164589,1.941834 c 0.809017,-0.620243 1.777722,-0.967975 2.775499,-0.994939 1.402277,0 1.886927,0.944049 1.886927,1.941824 v 0.377371 h -0.487164 c -3.101216,0 -5.338296,0.700741 -5.338296,3.451377 0,1.887693 1.458434,2.964183 3.022525,2.964183 1.456219,0 2.210149,-0.701004 2.830391,-1.536983 h 0.02739 c -0.02686,0.458446 0.02616,0.917288 0.13385,1.375744 h 2.212857 c -0.08097,-0.593289 -0.133851,-1.187317 -0.133851,-1.780585 v -4.422259 c 0,-2.53488 -0.728513,-4.068905 -3.883639,-4.068905 z m -44.442235,0.02401 c -1.537161,0 -2.293587,1.214686 -2.590235,1.996715 h -0.0274 c 0,-0.620232 -0.05199,-1.242683 -0.07888,-1.862916 h -2.212838 c 0.05393,0.566304 0.08239,1.107912 0.08239,1.674216 l 0.0274,8.494598 h 2.425556 v -5.557845 c 0,-1.887683 1.105242,-2.504461 2.103055,-2.504461 0.215723,0 0.460113,0.05257 0.67587,0.106277 v -2.291754 c -0.134728,-0.02684 -0.270018,-0.055 -0.404834,-0.055 z m 35.625148,0 c -2.588829,0 -4.182112,2.348884 -4.182112,5.369174 0,2.723672 1.430276,5.067228 4.693289,5.067228 1.02474,0 2.075212,-0.213538 3.01908,-0.644979 l -0.08239,-1.890357 c -0.458462,0.323593 -1.185939,0.782222 -2.66914,0.782222 -1.887682,0 -2.58681,-1.049608 -2.58681,-2.775494 h 5.849472 v -0.487173 c 0,-4.152898 -1.857102,-5.420621 -4.041449,-5.420621 z m -0.0309,1.646775 c 1.105665,0 1.701664,0.916791 1.701664,2.696586 h -3.506244 c 0,-1.348333 0.510175,-2.696586 1.80458,-2.696586 z m -46.085579,0.07881 c 1.591052,0 1.94182,1.779886 1.94182,3.478807 0,1.698952 -0.37773,3.506248 -1.94182,3.506248 -1.564091,0 -1.941821,-1.807296 -1.941821,-3.506248 0,-1.698921 0.350767,-3.478807 1.941821,-3.478807 z m 19.984247,0.0549 c 1.348351,0 1.886928,1.431324 1.886928,3.399879 0,1.887714 -0.48509,3.447933 -1.914364,3.447933 -1.402277,0 -1.78106,-1.156705 -1.808023,-3.502814 0,-2.022555 0.487111,-3.344998 1.835459,-3.344998 z m 36.321607,3.533699 h 0.0034 0.212719 0.0274 v 0.590077 c 0,1.8068 -0.537048,2.88871 -1.99327,2.88871 h -0.192091 c -0.809,-0.05389 -1.426218,-0.755399 -1.372309,-1.564414 0,-1.483165 1.237669,-1.914373 3.314128,-1.914373 z m -28.098027,8.117207 v 2.398103 h 2.535323 v -2.398103 z m 28.828771,0 v 2.398103 h 2.507905 v -2.398103 z m -70.8969173,0.51124 c -2.8585312,0 -5.47551833,2.129036 -5.47551833,7.063974 0,4.934978 2.61698713,7.067387 5.47551833,7.067387 2.8584794,0 5.4755013,-2.132409 5.4755013,-7.067387 0,-4.934938 -2.6170219,-7.063974 -5.4755013,-7.063974 z m 67.3906713,0.970923 -2.425558,0.754771 -0.03091,2.075613 h -1.615891 v 1.780565 h 1.615891 v 5.557854 c 0,2.103419 1.027006,2.936753 2.833816,2.936753 0.566314,0.02684 1.130959,-0.07972 1.643345,-0.322509 v -1.725663 c -0.269665,0.161766 -0.592414,0.21613 -0.916008,0.21613 -0.701146,0 -1.104714,-0.324505 -1.104714,-1.403194 v -5.259371 h 2.020722 v -1.78057 H 73.283057 Z M 5.8924127,85.996591 c 1.5910354,0 2.8852669,1.319819 2.8852669,5.122149 0,3.802371 -1.2942315,5.153003 -2.8852669,5.153003 -1.5910706,0 -2.8852836,-1.377617 -2.8852836,-5.153003 0,-3.775386 1.294213,-5.122149 2.8852836,-5.122149 z m 26.3448963,1.698233 c -1.105647,0 -2.209994,0.24581 -3.20777,0.758195 l 0.161252,1.93839 c 0.808982,-0.620212 1.781165,-0.971388 2.778925,-0.998352 1.402311,0 1.886926,0.944049 1.886926,1.941834 v 0.377371 h -0.483737 c -3.101199,0 -5.341723,0.7007 -5.341723,3.451356 0,1.887683 1.455027,2.967628 3.019082,2.967628 1.456237,0 2.213577,-0.701025 2.833816,-1.536993 h 0.0274 c -0.02687,0.458426 0.02599,0.917338 0.13385,1.375733 h 2.209413 c -0.08097,-0.593258 -0.13385,-1.187286 -0.13385,-1.780564 v -4.422279 c 0,-2.53487 -0.728495,-4.072319 -3.883639,-4.072319 z m 32.09145,0 c -1.105628,0 -2.209993,0.24581 -3.207769,0.758195 l 0.161252,1.93839 c 0.809016,-0.620212 1.78113,-0.971388 2.778924,-0.998352 1.402275,0 1.886927,0.944049 1.886927,1.941834 v 0.377371 H 65.46093 c -3.1012,0 -5.338296,0.7007 -5.338296,3.451356 0,1.887683 1.458468,2.967628 3.022523,2.967628 1.456238,0 2.210133,-0.701025 2.830374,-1.536993 h 0.02739 c -0.02687,0.458426 0.02616,0.917338 0.13385,1.375733 h 2.209414 c -0.08079,-0.593258 -0.13385,-1.187286 -0.13385,-1.780564 v -4.422279 c 0,-2.53487 -0.728514,-4.072319 -3.88364,-4.072319 z m 20.763053,0 c -2.049514,0 -4.446756,1.105481 -4.473738,5.204481 0,4.260786 2.39726,5.231941 4.473738,5.231941 2.076459,0 4.453132,-0.971155 4.453132,-5.231941 0,-4.125964 -2.376673,-5.204481 -4.453132,-5.204481 z m -67.874426,0.02735 c -1.510163,0 -2.290145,1.214616 -2.586792,1.996685 h -0.0274 c 0,-0.620232 -0.0555,-1.242633 -0.08239,-1.862886 h -2.209426 c 0.05393,0.566304 0.07888,1.107892 0.07888,1.674196 v 8.494598 h 2.428984 v -5.554412 c 0,-1.887682 1.105259,-2.511339 2.103053,-2.511339 0.242686,0 0.48416,0.05602 0.699883,0.109783 v -2.291745 c -0.134729,-0.02684 -0.269983,-0.0549 -0.404834,-0.0549 z m 4.693306,0 c -2.669754,0 -3.667495,2.454797 -3.667495,5.259362 0,4.099 2.131387,5.043231 3.533682,5.043231 1.591051,0 2.264673,-0.943614 2.669156,-1.725663 h 0.0274 v 0.970892 c 0,1.591053 -0.380382,3.180324 -2.672565,3.180324 -1.051721,-0.0268 -2.074757,-0.32179 -2.991643,-0.861109 l -0.106448,2.157939 c 1.105682,0.40453 2.288828,0.61754 3.475381,0.61754 3.72144,0 4.693308,-2.23505 4.693308,-5.417174 v -7.472228 c 0,-0.53937 0.0555,-1.052565 0.08239,-1.591884 h -2.209414 c -0.02686,0.512344 -0.08239,1.025084 -0.08239,1.564434 h -0.08239 C 24.067295,88.55792 23.393709,87.722174 21.910526,87.722174 Z m 21.195307,0 c -1.644997,0 -2.346004,1.07798 -2.696576,1.698213 h -0.0274 c 0,-0.512355 -0.05198,-1.052059 -0.07888,-1.564414 h -2.295186 c 0.05393,0.566304 0.08239,1.107892 0.08239,1.674196 v 8.439707 h 2.429 v -5.904341 c 0,-1.294404 0.458233,-2.374086 1.725676,-2.374086 0.997812,0 1.399746,0.645313 1.399746,2.209413 v 6.096475 h 2.456439 V 91.46859 c 0,-2.04949 -0.702886,-3.746406 -2.995068,-3.746406 z m 53.393133,0 c -1.644997,0 -2.342596,1.07798 -2.693169,1.698213 h -0.0274 c 0,-0.512355 -0.05534,-1.052059 -0.08239,-1.564414 h -2.291744 c 0.05393,0.566304 0.08239,1.107892 0.08239,1.674196 l 0.02407,8.439707 h 2.429 v -5.904341 c 0,-1.294404 0.458232,-2.374086 1.725677,-2.374086 0.997794,0 1.403189,0.645313 1.403189,2.209413 v 6.096475 h 2.42556 V 91.46859 c 0,-2.04949 -0.702874,-3.746406 -2.995071,-3.746406 z m -48.483701,0.13385 V 97.997367 H 50.44099 V 87.856023 Z m 4.477162,0 v 1.862896 h 4.206127 l -4.343349,6.175393 h -0.02739 v 2.103054 h 6.933599 v -1.862896 h -4.39826 l 4.261018,-6.19941 v -2.079037 z m 24.348201,0 0.02739,10.141343 h 2.428983 V 87.856023 Z m 8.251018,1.591864 c 1.591035,0 1.94182,1.779886 1.94182,3.478808 0,1.698911 -0.37773,3.506258 -1.94182,3.506258 -1.564091,0 -1.938395,-1.807347 -1.938395,-3.506258 0,-1.698922 0.347325,-3.478808 1.938395,-3.478808 z m -62.56016,0.13385 c 1.159574,-0.02684 1.969275,1.104813 1.969275,3.235236 0,2.29218 -0.620838,3.399889 -2.157963,3.399889 -0.835963,0 -1.59188,-0.995942 -1.59188,-3.369025 0,-2.04951 0.486145,-3.239136 1.780568,-3.2661 z m 11.081409,3.451357 h 0.216127 l 0.0274,0.596955 c 0,1.80681 -0.540493,2.881852 -1.996714,2.881852 h -0.188688 c -0.808983,-0.05389 -1.429678,-0.755379 -1.375754,-1.564424 0,-1.483175 1.241114,-1.914383 3.317574,-1.914383 z m 32.09145,0 h 0.216127 0.0274 v 0.596955 c 0,1.80681 -0.540493,2.881852 -1.996712,2.881852 H 63.76264 c -0.808999,-0.05389 -1.429662,-0.755379 -1.375735,-1.564424 0,-1.483175 1.241113,-1.914383 3.317555,-1.914383 z"
   id="path6"
   inkscape:connector-curvature="0" /><g
   id="Layer_2_1_"
   transform="matrix(0.19050392,0,0,0.19050392,430.33125,221.54099)"
   style="fill:#009edb"><g
     id="Layer_1-2"
     style="fill:#009edb"><g
       id="g640"
       style="fill:#009edb" /><g
       id="g644"
       style="fill:#009edb" /><g
       id="g648"
       style="fill:#009edb" /><g
       id="g652"
       style="fill:#009edb" /><g
       id="g656"
       style="fill:#009edb" /><g
       id="g660"
       style="fill:#009edb" /><g
       id="g664"
       style="fill:#009edb" /><g
       id="g668"
       style="fill:#009edb" /></g></g></svg>
