<svg xmlns="http://www.w3.org/2000/svg" role="img" viewBox="-3.77 -3.65 189.80 56.30"><title>Alliander (Member) logo</title><path fill="#7db43c" fill-opacity="1" fill-rule="nonzero" stroke="none" d="M122.23721 36.97898h6.73332c1.22266 0 2.21466-.99226 2.21466-2.21613V7.86545h-4.34532v8.34638c-.56934-.59893-2-1.0688-3.64666-1.0688-4.90266 0-7.80398 4.03493-7.80398 10.98798 0 7.32705 3.71332 10.84797 6.84798 10.84797zm1.08933-4.40265c-2.38 0-3.54132-3.3812-3.54132-6.29679 0-5.03652 1.36666-6.73438 3.82399-6.73438 1.42 0 2.66799.62133 3.23066 1.44266v11.5885zm44.72256-11.64837c-1.45333-3.02613-3.01466-5.25-6.82665-5.25h-4.31866c-1.22266 0-2.21466.99107-2.21466 2.21507v19.08595h4.34399V20.07796h2.18933c1.30133 0 1.72532.62493 2.70666 2.58692zm-56.1852 16.05102V22.23675c0-3.81252-2.74932-6.55878-6.56131-6.55878h-7.16265c-1.22133 0-2.21466.99106-2.21466 2.21506v19.08595h4.34932V20.07796h5.02799c1.224 0 2.21599.99213 2.21599 2.21612v14.6849zM19.25133 30.2742c0-1.63013.32494-4.08586 7.48852-2.0452v4.34733H21.3528c-1.23907 0-2.10147-1.06093-2.10147-2.30213zm-4.34479.05733c0 3.4844 2.82133 6.64745 6.30466 6.64745h7.65624c1.2224 0 2.21453-.99226 2.21453-2.21613l.0052-12.5261c0-3.81252-2.75-6.55878-6.56092-6.55878h-8.16664v4.39999h8.16664c1.2224 0 2.2136.99213 2.2136 2.21612v1.89587c-5.31519-1.43653-11.8333-1.1188-11.8333 6.14158zm64.77211-.05733c0-1.63013.32667-4.08586 7.49065-2.0452v4.34733H81.7813c-1.24133 0-2.10266-1.06093-2.10266-2.30213zm-4.34666.05733c0 3.4844 2.824 6.64745 6.30532 6.64745h7.65732c1.22266 0 2.21599-.99226 2.21599-2.21613l.004-12.5261c0-3.81252-2.74933-6.55878-6.55998-6.55878h-8.16665v4.39999h8.16665c1.224 0 2.21466.99213 2.21466 2.21612v1.89587c-5.31466-1.43653-11.8373-1.1188-11.8373 6.14158zm-5.85691-23.1754c-1.41147 0-2.55827 1.14572-2.55827 2.55572 0 1.41146 1.1468 2.55626 2.55827 2.55626 1.41146 0 2.55466-1.1448 2.55466-2.55626 0-1.41-1.1432-2.55573-2.55466-2.55573zm-9.76665 8.52184v4.39999h7.59372v16.90102h4.34639V17.89303c0-1.224-.9948-2.21506-2.21613-2.21506zm2.94013 21.30101v-4.40265h-7.59532V15.67797h-4.34478v19.08488c0 1.22387.99226 2.21613 2.21612 2.21613zm-15.49636 0v-4.40265h-7.59478V15.67797h-4.3452v19.08488c0 1.22387.99214 2.21613 2.21507 2.21613zm92.24897-14.01196c0-1.40107 1.26266-3.42186 3.80665-3.42186 2.25067 0 3.30533 1.44533 3.30533 2.76972 0 2.04267-1.57066 2.36987-3.75066 2.36987-1.00933 0-2.32666-.13707-3.36132-.39587zm2.85866 9.6093c-1.53867 0-2.78533-1.33172-2.85866-2.84999v-1.32186c1.16.27867 2.376.388 3.63465.388 4.852 0 8.02132-1.82293 8.02132-6.42959 0-3.55839-2.52-7.21984-7.72798-7.21984-3.52533 0-8.32798 2.63906-8.27865 7.60784l.00533 6.83065c0 4.78906 3.77466 7.39745 7.20399 7.39745h7.35198v-4.40265h-7.35198zm40.18923-24.0338V40.5935c0 4.71718-3.824 8.54157-8.54131 8.54157H8.54083c-4.71706 0-8.54105-3.82439-8.54105-8.54157V.00094h173.90797c4.71732 0 8.5413 3.8244 8.5413 8.54158"/></svg>