<svg xmlns="http://www.w3.org/2000/svg" role="img" viewBox="-3.77 -3.65 189.80 56.30"><title>Alliander (Adopter) logo</title><path fill="#7db43c" d="M122.2331 36.98062h6.73316c1.22264 0 2.21462-.99225 2.21462-2.21608V7.86774h-4.34523v8.3462c-.56932-.59892-1.99995-1.06878-3.64658-1.06878-4.90254 0-7.8038 4.03483-7.8038 10.98773 0 7.32688 3.71324 10.84773 6.84783 10.84773zm1.0893-4.40256c-2.37994 0-3.54124-3.38112-3.54124-6.29664 0-5.03641 1.36663-6.73424 3.8239-6.73424 1.41997 0 2.66794.62132 3.2306 1.44264l-.00001 11.58824zm44.72155-11.64811c-1.4533-3.02606-3.01459-5.24987-6.8265-5.24987h-4.31855c-1.22264 0-2.21461.99104-2.21461 2.21501v19.08553h4.34389V20.07997h2.18928c1.3013 0 1.72529.62492 2.7066 2.58687zm-56.18393 16.05067v-14.7419c0-3.81244-2.74926-6.55864-6.56116-6.55864h-7.1625c-1.2213 0-2.2146.99104-2.2146 2.21501v19.08553h4.34922V20.07997h5.02788c1.22396 0 2.21594.99211 2.21594 2.21608v14.68457zm-92.61048-6.70464c0-1.63009.32493-4.08576 7.48835-2.04515v4.34723h-5.38694c-1.23903 0-2.10141-1.0609-2.10141-2.30208zm-4.3447.05734c0 3.4843 2.82127 6.6473 6.30452 6.6473h7.65607c1.22237 0 2.21448-.99225 2.21448-2.21608l.0052-12.52582c0-3.81244-2.74993-6.55864-6.56077-6.55864h-8.16646v4.3999h8.16646c1.22237 0 2.21355.9921 2.21355 2.21607v1.89582c-5.31507-1.4365-11.83304-1.11877-11.83304 6.14145zm64.77066-.05734c0-1.63009.32665-4.08576 7.49048-2.04515v4.34723H81.7781c-1.2413 0-2.10261-1.0609-2.10261-2.30208zm-4.34656.05734c0 3.4843 2.82393 6.6473 6.30517 6.6473h7.65715c1.22263 0 2.21594-.99225 2.21594-2.21608l.004-12.52582c0-3.81244-2.74926-6.55864-6.55984-6.55864H76.7849v4.3999h8.16646c1.22397 0 2.21462.9921 2.21462 2.21607v1.89582c-5.31454-1.4365-11.83704-1.11877-11.83704 6.14145zm-5.85679-23.1749c-1.41143 0-2.5582 1.14571-2.5582 2.55568 0 1.41143 1.14677 2.5562 2.5582 2.5562 1.41143 0 2.5546-1.14477 2.5546-2.5562 0-1.40997-1.14317-2.55567-2.5546-2.55567zm-9.76642 8.52166v4.3999h7.59354v16.90064h4.3463V17.89509c0-1.22397-.99478-2.215-2.21608-2.215zm2.94006 21.30054v-4.40256h-7.59514V15.68008h-4.3447v19.08446c0 1.22383.99225 2.21608 2.21608 2.21608zm-15.49601 0v-4.40256h-7.59461V15.68008h-4.3451v19.08446c0 1.22383.99211 2.21608 2.21502 2.21608zm92.24689-14.01165c0-1.40104 1.26263-3.42179 3.80657-3.42179 2.25061 0 3.30525 1.4453 3.30525 2.76967 0 2.04261-1.57063 2.3698-3.75057 2.3698-1.0093 0-2.3266-.13706-3.36125-.39585zm2.8586 9.60909c-1.53863 0-2.78527-1.3317-2.8586-2.84993V28.4063c1.15997.27866 2.37594.38799 3.63458.38799 4.85187 0 8.02113-1.8229 8.02113-6.42944 0-3.55831-2.51994-7.21969-7.7278-7.21969-3.52525 0-8.3278 2.639-8.27847 7.60768l.00534 6.8305c0 4.78894 3.77457 7.39728 7.20381 7.39728h7.35182v-4.40256h-7.35182zm40.18832-24.03327v32.05027c0 4.71708-3.8239 8.54139-8.54112 8.54139H8.53927c-4.71694 0-8.54085-3.8243-8.54085-8.5414V.00342h173.90405c4.71722 0 8.54112 3.8243 8.54112 8.54138"/></svg>