<svg xmlns="http://www.w3.org/2000/svg" role="img" viewBox="11.60 43.60 176.54 113.54"><title>AMD Xilinx (Adopter) logo</title><path d="M50.1458 105.703h-7.1614l-9.9157 17.823-9.9157-17.711-.1102-.112h-7.1614l13.6617 23.504L15 153.936h7.0512l11.0175-19.16 10.9073 19.16h7.1614l-14.7635-24.729 13.7719-23.504zm9.9156 0h-6.1698v48.233h6.1698v-48.233zm13.5518 0h-6.2799v48.233h25.5606v-5.793H73.6132v-42.44zm29.6368 0h-6.1699v48.233h6.1699v-48.233zm36.689 36.091l-23.578-35.979-.11-.112h-5.729v48.233h6.28v-36.203l23.577 36.091.111.112h5.618v-48.233h-6.169v36.091zm30.298-12.587l13.551-23.058.22-.446h-7.161l-9.916 17.823-9.915-17.711-.111-.112h-7.161l13.662 23.504-14.543 24.729h7.051l11.017-19.16 10.908 19.16H185l-14.763-24.729zM27.4496 78.5237h15.2042l2.8645 6.9063h9.9158L39.7892 49.7848H29.4328L15.2202 85.43h9.8056l2.4238-6.9063zm2.4239-6.6834L34.611 59.253l5.1782 12.5873h-9.9157zm47.7058-9.2455l-11.0175-12.81h-7.9326V85.43h9.2547V63.9315l8.9241 10.5821h1.6527l8.9241-10.5821V85.43h9.2547V49.7848h-7.9326l-11.1276 12.81zm60.1557 5.0125c0-10.9163-7.602-17.934-19.501-17.934h-15.535v35.6452h14.654c12.89.1114 20.382-6.3493 20.382-17.7112zm-9.475 0c0 10.0252-8.483 10.805-11.017 10.805h-5.399V56.691h5.288c7.052 0 11.128 4.0101 11.128 10.9163zm44.07-9.0226v18.0454l11.458 11.5846V47h-40.655l11.459 11.5847h17.738zm-29.197 13.2557v16.2631h16.196l11.789-11.9189h-16.196V59.9215l-11.789 11.9189z"/></svg>