<svg xmlns="http://www.w3.org/2000/svg" role="img" viewBox="15.64 12.64 850.72 208.72"><title>Augur logo</title><path d="M243 29.6c-27.7 3.5-46.3 7-76 14.4C103.7 59.9 50.4 80 36.8 93.2c-5.2 5-5.7 7.1-3.3 11.9 9.9 19.1 127.7 60.7 194 68.4 36.9 4.3 48.4.2 59.7-21.1l4.2-8.1 4.6 2.7c10.1 5.9 23.5 8.3 34.5 6 7-1.5 16-5.8 20.8-10 1.9-1.6 3.7-3 4.1-3 .3 0 .6 2.5.6 5.5v5.5h35l-.2-51.3-.3-51.2h-35l-.3 4.8-.3 4.7-3.7-2.9c-9-7.3-22.8-10.7-36-9.1-7 .9-17.7 4.4-18.7 6.1-1.3 2-3.2.7-5.3-3.7-3-6.2-10.4-13.8-15.9-16.5-3.8-1.9-6.6-2.3-16.7-2.5-6.7-.1-13.7 0-15.6.2zm14.6 10.6c-15.8 16.2-23.4 37.4-22.2 62.3 1.2 24.3 9.8 45.4 25.1 61.1 6.2 6.3 6.1 6.3-7.5 7.1-36.1 2-125.6-21-182.4-46.8-21.1-9.6-34.6-18.7-34.6-23.3 0-2.8 9.6-9.8 21.4-15.5 49.3-24 153.5-51.3 198.2-52l9.2-.1-7.2 7.2zm83.7 37.1c9.1 3.9 14.1 11.7 14.2 22.2 0 12.6-6.5 21.1-18.1 23.5-17.9 3.7-32.1-10.5-28.4-28.4 2.3-11.4 11.4-18.6 23.3-18.6 3.2 0 7.2.6 9 1.3zM557.5 46c-20.3 2.8-36.5 17.8-42 39-2.5 9.5-1.7 26.1 1.8 35.3 5.6 15.2 16.5 26 31.3 31.1 14.3 5 39 2 47.1-5.6l2.3-2.1v5.8c0 10.8-4.1 18.4-12.3 22.8-3.5 1.8-5.8 2.2-13.7 2.2-8.4 0-10.2-.3-15.2-2.8-3.1-1.5-7-4.3-8.7-6.3L545 162l-14 7c-7.7 3.9-14 7.3-14 7.8 0 .4 1.3 3 3 5.8 5.6 9.8 16.5 17.2 31 21.1 9.3 2.5 34 2.4 43-.1 19.3-5.3 31.1-15.7 37.2-32.6l2.3-6.5v-116h-35l-.3 4.2c-.2 2.4-.5 4.3-.8 4.3-.3 0-2-1.1-3.7-2.4-9.4-7-23.3-10.3-36.2-8.6zm26.8 31.3c9.1 3.9 14.1 11.7 14.2 22.2 0 12.6-6.5 21.1-18.1 23.5-17.9 3.7-32.1-10.5-28.4-28.4 2.3-11.4 11.4-18.6 23.3-18.6 3.2 0 7.2.6 9 1.3zM823 46.1c-7.1 1.4-14.1 5.4-20.3 11.6l-5.7 5.7V48h-35v103h34.9l.3-29.3.3-29.2 2.9-5.3c4.3-7.7 9.8-10.7 19.2-10.7 5.5.1 8.2.6 12.1 2.6l5.1 2.5 7.3-14.9c8.2-16.5 8.3-15.2-.6-18.6-6.2-2.3-14.6-3.1-20.5-2zM398.2 83.7c.4 33.9.5 36.2 2.6 42.6 4.3 12.9 14.3 21.5 29.6 25.4 9.8 2.5 37.2 2.5 46.4 0 17.7-4.8 26.9-13.7 30.7-29.9 1.1-4.9 1.5-13.8 1.5-40.1V48h-34.8l-.4 30.7-.3 30.8-2.7 5.8c-2.3 4.8-3.4 6.1-7 7.7-5.1 2.3-14.4 2.6-19.1.6-4.1-1.7-8.3-6.5-9.8-11.4-.7-2.3-1.3-15.4-1.6-34l-.5-30.2h-34.9l.3 35.7zm244 0c.4 33.9.5 36.2 2.6 42.6 4.3 12.9 14.3 21.5 29.6 25.4 9.8 2.5 37.2 2.5 46.4 0 17.7-4.8 26.9-13.7 30.7-29.9 1.1-4.9 1.5-13.8 1.5-40.1V48h-34.8l-.4 30.7-.3 30.8-2.7 5.8c-2.3 4.8-3.4 6.1-7 7.7-5.1 2.3-14.4 2.6-19.1.6-4.1-1.7-8.3-6.5-9.8-11.4-.7-2.3-1.3-15.4-1.6-34l-.5-30.2h-34.9l.3 35.7z"/></svg>