<svg xmlns="http://www.w3.org/2000/svg" role="img" xmlns:xlink="http://www.w3.org/1999/xlink" viewBox="-19.98 -19.98 1038.96 205.96"><title>Autodesk (Adopter) logo</title><defs><linearGradient id="c"><stop offset="0" stop-color="#29a5e3"/><stop offset=".515" stop-color="#356eb9"/><stop offset="1" stop-color="#394da5"/></linearGradient><linearGradient id="b"><stop offset="0" stop-color="#2b7a77"/><stop offset=".51" stop-color="#4ebaa9"/><stop offset="1" stop-color="#5cc2b1"/></linearGradient><linearGradient id="a"><stop offset="0" stop-color="#236736"/><stop offset=".493" stop-color="#6ba443"/><stop offset="1" stop-color="#86c146"/></linearGradient><linearGradient id="g" x1="908.368" x2="637.568" y1="189.12" y2="825.089" gradientUnits="userSpaceOnUse" xlink:href="#a"/><linearGradient id="f" x1="627.311" x2="1173.013" y1="939.974" y2="831.243" gradientUnits="userSpaceOnUse" xlink:href="#b"/><linearGradient id="h" x1="1012.995" x2="1410.989" y1="117.317" y2="1065.116" gradientUnits="userSpaceOnUse" xlink:href="#c"/><clipPath id="d" clipPathUnits="userSpaceOnUse"><path d="M637.5 36h117.711v19.516H637.5V36z"/></clipPath><clipPath id="e" clipPathUnits="userSpaceOnUse"><path d="M637.5 36h117.711v19.516H637.5V36z"/></clipPath></defs><g clip-path="url(#d)" transform="matrix(8.49547 0 0 -8.49547 -5416.366 472.243)"><path fill="#231f20" d="M755.057 42.025c0-.511-.369-.88-.869-.88-.498 0-.869.369-.869.88s.371.881.869.881c.5 0 .869-.37.869-.881m.153 0c0 .565-.457 1.023-1.022 1.023-.562 0-1.021-.458-1.021-1.023s.459-1.022 1.021-1.022c.565 0 1.022.457 1.022 1.022"/><path fill="#231f20" d="M754.377 42.263c0-.151-.125-.167-.246-.167h-.107v.335h.158c.143 0 .195-.069.195-.168m.254-.76l-.247.347c-.044.062-.075.104-.123.14.178.023.281.12.281.273 0 .157-.11.299-.324.299h-.346v-1.059h.152v.474c.083 0 .115-.026.166-.103l.256-.371h.185z"/></g><path fill="#0e0d0f" d="M256.664 47.419l-16.44723 38.39952h33.03888L256.664 47.419zm50.31017 76.5017h-17.815l-9.7358-23.15864h-45.3828l-9.87174 23.15865h-17.2713l42.23099-96.65296h15.61467l42.23098 96.65296z"/><path fill="#0e0d0f" d="M462.572 123.923h-17.00793V43.58134H415.1248V27.94968h79.24574l-6.53301 15.63166H462.572V123.923z"/><path fill="#0e0d0f" d="M785.426 43.58h-51.3976v24.40749h32.91995v15.09645h-32.91994v25.5034h51.42308v15.33432h-68.39703V27.94834H785.426V43.58z"/><path fill="#0e0d0f" d="M905.92665 123.92813h-16.08193V27.9548h16.08193v95.97333z"/><g clip-path="url(#e)" transform="matrix(8.49547 0 0 -8.49547 -5416.366 472.243)"><path fill="#0e0d0f" d="M736.147 50.667c-1.154 0-2.135-.349-2.14-1.115-.006-.897.557-1.208 2.682-1.899 2.348-.772 3.595-1.557 3.582-3.467-.012-2.153-1.676-3.381-4.106-3.381-1.72 0-3.262.558-4.438 1.592l.732 1.772c1.067-.894 2.36-1.528 3.757-1.534 1.223-.006 2.093.589 2.093 1.47 0 .737-.426 1.227-2.487 1.88-2.364.775-3.792 1.583-3.78 3.508.014 1.915 1.81 3.004 4.068 2.993 2.259-.011 3.531-.837 3.724-.949l-.71-1.611c-.461.249-1.472.741-2.977.741"/><path fill="#0e0d0f" d="M746.636 46.829l5.057 5.469h-2.423l-5.074-5.469 5.576-5.83h2.456l-5.592 5.83z"/><path fill="#0e0d0f" d="M701.87 42.629c-2.22 0-3.841 1.799-3.841 4.019s1.621 4.02 3.841 4.02 3.842-1.8 3.842-4.02c0-2.22-1.622-4.019-3.842-4.019m0 9.863c-3.227 0-5.842-2.617-5.842-5.844 0-3.227 2.615-5.842 5.842-5.842 3.226 0 5.843 2.615 5.843 5.842 0 3.227-2.617 5.844-5.843 5.844"/><path fill="#0e0d0f" d="M714.09 42.808l-2.282-.002v7.65h2.291c2.219 0 3.832-1.573 3.832-3.792s-1.623-3.856-3.841-3.856m0 9.489h-4.286V41l4.286.001c3.225 0 5.841 2.437 5.841 5.663 0 3.227-2.616 5.633-5.841 5.633"/><path fill="#0e0d0f" d="M684.241 46.006c0-3.368-1.976-5.184-4.842-5.184-2.865 0-4.841 1.816-4.841 5.184v6.291h2.001v-6.529c0-1.976 1.16-3.136 2.84-3.136 1.682 0 2.842 1.16 2.842 3.136v6.529h2v-6.291z"/></g><path fill="url(#f)" d="M733.24448 1068.3984c-27.14903 0-41.25735-10.2408-54.80078-34.0296L554.73214 805.04075c-8.52528-16.43458-8.66117-21.9083-8.66117-33.74957l194.42903 8.571 44.5 44.5h390L851.17979 1024.9618c-15.78381 9.3348-75.81488 43.4366-117.93531 43.4366z" transform="translate(-94.564 -19.409) scale(.17409)"/><path fill="url(#g)" d="M785.17857 824.36218H617c-50.79574 0-70.92903-26.56814-70.92903-53.071 0-16.77029 5.39638-25.91573 12.8576-44.554l245.0894-585.089 2.63382-5.13421 3.39286-5.26786 7.05357-6.875 10.35714-5.53572 15-3.30357 25.80357.66965 170.31247 63.30357-57.58925 181.60714z" transform="translate(-94.564 -19.409) scale(.17409)"/><path fill="url(#h)" fill-rule="evenodd" d="M1279 1068.3622L892.14286 152.54075c-6.66334-15.59413-17.34669-35.71428-45-35.71428-24.7078 0-36.47801 11.96365-43.12489 24.82171 3.43698-9.27263 13.8376-27.286 43.98203-27.286h267c24.6055 0 36.4092 14.48793 41.7884 27.75271L1548 1068.3622z" transform="translate(-94.564 -19.409) scale(.17409)"/></svg>