<svg xmlns="http://www.w3.org/2000/svg" role="img" viewBox="-24.84 -23.84 1053.68 1343.68"><title>Avanade (Adopter) logo</title><style>svg {shape-rendering:geometricPrecision;text-rendering:geometricPrecision;image-rendering:optimizeQuality;fill-rule:evenodd;clip-rule:evenodd}</style><g><path fill="#ffd600" d="M 470.5,5.5 C 475.322,22.456 479.989,39.456 484.5,56.5C 461.715,44.3002 438.048,42.3002 413.5,50.5C 410.236,36.3789 406.57,22.3789 402.5,8.5C 421.06,2.82703 440.06,0.993695 459.5,3C 463.392,3.41878 467.058,4.25212 470.5,5.5 Z" opacity=".983"/></g><g><path fill="#ffd100" d="M 470.5,5.5 C 478.74,7.02465 486.74,9.35798 494.5,12.5C 500.704,35.1109 506.704,57.7776 512.5,80.5C 504.025,71.3474 494.691,63.3474 484.5,56.5C 479.989,39.456 475.322,22.456 470.5,5.5 Z" opacity=".974"/></g><g><path fill="#ffd100" d="M 402.5,8.5 C 406.57,22.3789 410.236,36.3789 413.5,50.5C 398.494,56.6647 385.161,65.3313 373.5,76.5C 369.5,61.1674 365.5,45.8341 361.5,30.5C 373.821,20.8367 387.488,13.5033 402.5,8.5 Z" opacity=".977"/></g><g><path fill="#ffca00" d="M 494.5,12.5 C 503.718,16.5997 512.051,21.933 519.5,28.5C 527.344,58.8758 535.344,89.2092 543.5,119.5C 533.578,106.236 523.244,93.2363 512.5,80.5C 506.704,57.7776 500.704,35.1109 494.5,12.5 Z" opacity=".973"/></g><g><path fill="#ffc400" d="M 519.5,28.5 C 527.402,33.7303 534.402,40.0637 540.5,47.5C 550.657,85.7966 560.657,124.13 570.5,162.5C 561.253,148.343 552.253,134.01 543.5,119.5C 535.344,89.2092 527.344,58.8758 519.5,28.5 Z" opacity=".977"/></g><g><path fill="#ffcb00" d="M 361.5,30.5 C 365.5,45.8341 369.5,61.1674 373.5,76.5C 363.455,86.3077 354.122,96.641 345.5,107.5C 340.833,90.5 336.167,73.5 331.5,56.5C 340.589,46.7421 350.589,38.0754 361.5,30.5 Z" opacity=".973"/></g><g><path fill="#ffbe00" d="M 540.5,47.5 C 543.797,50.2956 546.964,53.2956 550,56.5C 554.336,61.1998 558.169,66.1998 561.5,71.5C 573.676,118.537 586.009,165.537 598.5,212.5C 588.774,196.094 579.441,179.427 570.5,162.5C 560.657,124.13 550.657,85.7966 540.5,47.5 Z" opacity=".978"/></g><g><path fill="#ffc400" d="M 331.5,56.5 C 336.167,73.5 340.833,90.5 345.5,107.5C 339.733,116.048 333.733,124.381 327.5,132.5C 322.518,114.583 317.518,96.5826 312.5,78.5C 318.115,70.5513 324.448,63.2179 331.5,56.5 Z" opacity=".977"/></g><g><path fill="#ffb800" d="M 561.5,71.5 C 569.808,80.7811 577.141,90.7811 583.5,101.5C 598.009,157.204 612.676,212.87 627.5,268.5C 617.327,250.155 607.66,231.488 598.5,212.5C 586.009,165.537 573.676,118.537 561.5,71.5 Z" opacity=".977"/></g><g><path fill="#ffbe00" d="M 312.5,78.5 C 317.518,96.5826 322.518,114.583 327.5,132.5C 322.133,140.856 316.799,149.189 311.5,157.5C 306.5,138.167 301.5,118.834 296.5,99.5C 301.097,91.9074 306.431,84.9074 312.5,78.5 Z" opacity=".977"/></g><g><path fill="#ffb800" d="M 296.5,99.5 C 301.5,118.834 306.5,138.167 311.5,157.5C 307.07,165.369 302.403,173.036 297.5,180.5C 292.769,160.235 287.435,140.235 281.5,120.5C 286.144,113.198 291.144,106.198 296.5,99.5 Z" opacity=".977"/></g><g><path fill="#ffb100" d="M 583.5,101.5 C 592.902,114.623 601.569,128.29 609.5,142.5C 625.525,203.936 641.859,265.269 658.5,326.5C 658.158,327.338 657.492,327.672 656.5,327.5C 647.103,307.706 637.436,288.039 627.5,268.5C 612.676,212.87 598.009,157.204 583.5,101.5 Z" opacity=".978"/></g><g><path fill="#ffb200" d="M 281.5,120.5 C 287.435,140.235 292.769,160.235 297.5,180.5C 293.083,189.003 288.417,197.336 283.5,205.5C 278.37,184.777 273.037,164.111 267.5,143.5C 271.916,135.667 276.582,128 281.5,120.5 Z" opacity=".978"/></g><g><path fill="#feab00" d="M 609.5,142.5 C 618.257,156.341 626.257,170.675 633.5,185.5C 644.566,229.106 656.233,272.439 668.5,315.5C 665.138,319.192 661.805,322.859 658.5,326.5C 641.859,265.269 625.525,203.936 609.5,142.5 Z" opacity=".988"/></g><g><path fill="#ffab00" d="M 267.5,143.5 C 273.037,164.111 278.37,184.777 283.5,205.5C 280.337,212.496 276.671,219.162 272.5,225.5C 266.961,204.882 261.627,184.216 256.5,163.5C 259.663,156.504 263.329,149.838 267.5,143.5 Z" opacity=".978"/></g><g><path fill="#ffa300" d="M 256.5,163.5 C 261.627,184.216 266.961,204.882 272.5,225.5C 266.085,238.664 259.418,251.664 252.5,264.5C 247.122,243.647 241.456,222.98 235.5,202.5C 241.741,189.014 248.741,176.014 256.5,163.5 Z" opacity=".975"/></g><g><path fill="#fea400" d="M 633.5,185.5 C 653.519,221.535 672.519,258.202 690.5,295.5C 690.672,296.492 690.338,297.158 689.5,297.5C 685.748,300.041 682.415,303.041 679.5,306.5C 675.748,309.041 672.415,312.041 669.5,315.5C 669.167,315.5 668.833,315.5 668.5,315.5C 656.233,272.439 644.566,229.106 633.5,185.5 Z" opacity=".981"/></g><g><path fill="#ff9800" d="M 235.5,202.5 C 241.456,222.98 247.122,243.647 252.5,264.5C 249.594,271.981 245.928,278.981 241.5,285.5C 236.009,264.536 230.676,243.536 225.5,222.5C 228.325,215.516 231.659,208.849 235.5,202.5 Z" opacity=".975"/></g><g><path fill="#ff8e00" d="M 225.5,222.5 C 230.676,243.536 236.009,264.536 241.5,285.5C 236.595,296.978 230.929,307.978 224.5,318.5C 219.011,298.209 213.677,277.876 208.5,257.5C 213.93,245.641 219.597,233.975 225.5,222.5 Z" opacity=".978"/></g><g><path fill="#ce0668" d="M 859.5,302.5 C 855.343,318.939 851.677,335.606 848.5,352.5C 834.822,336.334 818.156,324.167 798.5,316C 765.087,306.854 735.754,314.02 710.5,337.5C 706.564,339.766 703.231,342.766 700.5,346.5C 695.5,351.167 690.5,355.833 685.5,360.5C 684.876,360.083 684.543,359.416 684.5,358.5C 689.681,336.148 694.015,313.815 697.5,291.5C 714.857,278.429 734.523,270.929 756.5,269C 795.979,265.106 830.312,276.272 859.5,302.5 Z" opacity=".969"/></g><g><path fill="#ff8200" d="M 208.5,257.5 C 213.677,277.876 219.011,298.209 224.5,318.5C 219.085,329.664 213.418,340.664 207.5,351.5C 201.969,331.571 196.636,311.571 191.5,291.5C 196.659,279.849 202.325,268.516 208.5,257.5 Z" opacity=".976"/></g><g><path fill="#d20d5f" d="M 697.5,291.5 C 694.015,313.815 689.681,336.148 684.5,358.5C 684.543,359.416 684.876,360.083 685.5,360.5C 683.141,363.851 680.808,367.185 678.5,370.5C 676.395,373.027 674.061,375.36 671.5,377.5C 677.867,351.01 683.867,324.343 689.5,297.5C 690.338,297.158 690.672,296.492 690.5,295.5C 692.85,294.139 695.184,292.806 697.5,291.5 Z" opacity=".982"/></g><g><path fill="#d5125a" d="M 689.5,297.5 C 683.867,324.343 677.867,351.01 671.5,377.5C 667.822,382.206 664.156,386.872 660.5,391.5C 667.241,364.615 673.574,336.282 679.5,306.5C 682.415,303.041 685.748,300.041 689.5,297.5 Z" opacity=".983"/></g><g><path fill="#ff7500" d="M 191.5,291.5 C 196.636,311.571 201.969,331.571 207.5,351.5C 203.005,361.159 198.005,370.492 192.5,379.5C 187.015,359.893 181.681,340.227 176.5,320.5C 181.249,310.669 186.249,301.002 191.5,291.5 Z" opacity=".979"/></g><g><path fill="#d71654" d="M 679.5,306.5 C 673.574,336.282 667.241,364.615 660.5,391.5C 657.305,396.569 653.638,401.235 649.5,405.5C 655.026,375.198 661.693,345.198 669.5,315.5C 672.415,312.041 675.748,309.041 679.5,306.5 Z" opacity=".984"/></g><g><path fill="#d20d5f" d="M 859.5,302.5 C 869.479,310.479 878.479,319.479 886.5,329.5C 882.372,348.806 878.372,368.139 874.5,387.5C 866.576,375.336 857.91,363.67 848.5,352.5C 851.677,335.606 855.343,318.939 859.5,302.5 Z" opacity=".968"/></g><g><path fill="#db1b4d" d="M 668.5,315.5 C 668.833,315.5 669.167,315.5 669.5,315.5C 661.693,345.198 655.026,375.198 649.5,405.5C 645.215,412.448 640.549,419.115 635.5,425.5C 642.295,393.526 648.961,361.526 655.5,329.5C 655.833,328.833 656.167,328.167 656.5,327.5C 657.492,327.672 658.158,327.338 658.5,326.5C 661.805,322.859 665.138,319.192 668.5,315.5 Z" opacity=".975"/></g><g><path fill="#d51159" d="M 886.5,329.5 C 890.546,334.214 894.212,339.214 897.5,344.5C 892.676,364.275 888.343,384.275 884.5,404.5C 880.918,399.006 877.585,393.339 874.5,387.5C 878.372,368.139 882.372,348.806 886.5,329.5 Z" opacity=".969"/></g><g><path fill="#ff6900" d="M 176.5,320.5 C 181.681,340.227 187.015,359.893 192.5,379.5C 187.924,389.657 182.591,399.323 176.5,408.5C 171.658,388.797 166.658,369.13 161.5,349.5C 166.249,339.669 171.249,330.002 176.5,320.5 Z" opacity=".976"/></g><g><path fill="#de2047" d="M 655.5,329.5 C 648.961,361.526 642.295,393.526 635.5,425.5C 632.188,430.804 628.521,435.804 624.5,440.5C 631.167,407.833 637.833,375.167 644.5,342.5C 647.821,337.848 651.487,333.515 655.5,329.5 Z" opacity=".971"/></g><g><path fill="#fe9800" d="M 710.5,337.5 C 711.674,338.514 712.34,339.847 712.5,341.5C 725.009,389.87 737.676,438.203 750.5,486.5C 742.729,477.058 735.729,467.058 729.5,456.5C 719.52,419.913 709.853,383.246 700.5,346.5C 703.231,342.766 706.564,339.766 710.5,337.5 Z" opacity=".989"/></g><g><path fill="#ff9200" d="M 712.5,341.5 C 720.34,355.177 727.673,369.177 734.5,383.5C 745.324,424.463 755.991,465.463 766.5,506.5C 760.817,500.146 755.484,493.48 750.5,486.5C 737.676,438.203 725.009,389.87 712.5,341.5 Z" opacity=".977"/></g><g><path fill="#d71554" d="M 897.5,344.5 C 901.94,349.278 905.607,354.612 908.5,360.5C 904.069,381.667 899.402,402.667 894.5,423.5C 890.406,417.649 887.073,411.315 884.5,404.5C 888.343,384.275 892.676,364.275 897.5,344.5 Z" opacity=".97"/></g><g><path fill="#fea000" d="M 700.5,346.5 C 709.853,383.246 719.52,419.913 729.5,456.5C 710.989,428.824 693.989,400.157 678.5,370.5C 680.808,367.185 683.141,363.851 685.5,360.5C 690.5,355.833 695.5,351.167 700.5,346.5 Z" opacity=".981"/></g><g><path fill="#ff6000" d="M 161.5,349.5 C 166.658,369.13 171.658,388.797 176.5,408.5C 175.025,412.783 173.025,416.783 170.5,420.5C 164.878,401.354 159.544,382.02 154.5,362.5C 156.074,357.68 158.407,353.347 161.5,349.5 Z" opacity=".978"/></g><g><path fill="#e12540" d="M 644.5,342.5 C 637.833,375.167 631.167,407.833 624.5,440.5C 620.993,446.852 616.993,452.852 612.5,458.5C 619.757,424.55 626.757,390.55 633.5,356.5C 636.411,351.254 640.078,346.587 644.5,342.5 Z" opacity=".971"/></g><g><path fill="#e3293b" d="M 633.5,356.5 C 626.757,390.55 619.757,424.55 612.5,458.5C 608.993,464.852 604.993,470.852 600.5,476.5C 608.421,440.56 616.088,404.56 623.5,368.5C 626.486,364.183 629.82,360.183 633.5,356.5 Z" opacity=".974"/></g><g><path fill="#fe5700" d="M 154.5,362.5 C 159.544,382.02 164.878,401.354 170.5,420.5C 152.223,454.546 129.89,485.712 103.5,514C 109.514,512.834 115.514,511.334 121.5,509.5C 121.5,522.167 121.5,534.833 121.5,547.5C 106.311,550.547 91.3107,554.381 76.5,559C 86.5428,560.363 96.5428,561.863 106.5,563.5C 107.886,576.537 109.553,589.537 111.5,602.5C 93.4117,597.515 75.0783,594.015 56.5,592C 75.9465,642.37 103.113,687.87 138,728.5C 157.454,750.301 180.62,766.801 207.5,778C 252.18,792.362 293.513,785.862 331.5,758.5C 333.411,759.075 335.078,760.075 336.5,761.5C 343.751,770.924 351.584,779.924 360,788.5C 360.791,789.745 361.291,791.078 361.5,792.5C 305.84,831.856 246.174,839.356 182.5,815C 144.634,796.298 112.8,770.131 87,736.5C 45.7585,681.005 17.7585,619.338 3,551.5C 36.5856,527.915 65.5856,499.582 90,466.5C 112.948,432.722 134.448,398.055 154.5,362.5 Z" opacity=".978"/></g><g><path fill="#db1b4d" d="M 908.5,360.5 C 912.586,365.665 915.92,371.332 918.5,377.5C 914.088,399.891 909.422,422.225 904.5,444.5C 900.385,437.933 897.051,430.933 894.5,423.5C 899.402,402.667 904.069,381.667 908.5,360.5 Z" opacity=".969"/></g><g><path fill="#e62d35" d="M 623.5,368.5 C 616.088,404.56 608.421,440.56 600.5,476.5C 597.578,482.686 593.911,488.352 589.5,493.5C 597.167,456.832 604.834,420.165 612.5,383.5C 615.812,378.196 619.479,373.196 623.5,368.5 Z" opacity=".971"/></g><g><path fill="#de2047" d="M 918.5,377.5 C 921.669,381.833 924.336,386.5 926.5,391.5C 921.376,414.45 916.376,437.45 911.5,460.5C 908.649,455.459 906.316,450.125 904.5,444.5C 909.422,422.225 914.088,399.891 918.5,377.5 Z" opacity=".97"/></g><g><path fill="#ff8c00" d="M 734.5,383.5 C 741.152,394.798 747.818,406.131 754.5,417.5C 763.989,453.124 773.323,488.79 782.5,524.5C 776.824,518.823 771.491,512.823 766.5,506.5C 755.991,465.463 745.324,424.463 734.5,383.5 Z" opacity=".976"/></g><g><path fill="#e9332f" d="M 612.5,383.5 C 604.834,420.165 597.167,456.832 589.5,493.5C 585.244,501.687 580.244,509.354 574.5,516.5C 582.657,478.872 590.657,441.205 598.5,403.5C 602.785,396.552 607.451,389.885 612.5,383.5 Z" opacity=".973"/></g><g><path fill="#e02541" d="M 926.5,391.5 C 929.008,395.182 931.008,399.182 932.5,403.5C 927.755,427.558 922.755,451.558 917.5,475.5C 914.734,470.883 912.734,465.883 911.5,460.5C 916.376,437.45 921.376,414.45 926.5,391.5 Z" opacity=".97"/></g><g><path fill="#e3293b" d="M 932.5,403.5 C 935.284,407.405 937.284,411.738 938.5,416.5C 933.279,440.617 927.945,464.617 922.5,488.5C 920.598,484.345 918.931,480.011 917.5,475.5C 922.755,451.558 927.755,427.558 932.5,403.5 Z" opacity=".972"/></g><g><path fill="#e62d35" d="M 938.5,416.5 C 940.957,419.751 942.624,423.418 943.5,427.5C 937.804,451.968 932.471,476.635 927.5,501.5C 925.598,497.345 923.931,493.011 922.5,488.5C 927.945,464.617 933.279,440.617 938.5,416.5 Z" opacity=".972"/></g><g><path fill="#ff8600" d="M 754.5,417.5 C 760.486,426.797 766.486,436.13 772.5,445.5C 780.706,476.117 788.706,506.783 796.5,537.5C 791.226,533.895 786.559,529.562 782.5,524.5C 773.323,488.79 763.989,453.124 754.5,417.5 Z" opacity=".97"/></g><g><path fill="#ee3b24" d="M 598.5,403.5 C 590.657,441.205 582.657,478.872 574.5,516.5C 566.997,529.512 558.997,542.179 550.5,554.5C 558.706,515.468 567.04,476.468 575.5,437.5C 582.391,425.615 590.058,414.281 598.5,403.5 Z" opacity=".975"/></g><g><path fill="#e9332f" d="M 943.5,427.5 C 945.87,431.586 947.87,435.919 949.5,440.5C 943.706,465.471 938.039,490.471 932.5,515.5C 930.441,510.99 928.774,506.323 927.5,501.5C 932.471,476.635 937.804,451.968 943.5,427.5 Z" opacity=".971"/></g><g><path fill="#f1411c" d="M 575.5,437.5 C 567.04,476.468 558.706,515.468 550.5,554.5C 546.414,561.676 542.081,568.676 537.5,575.5C 545.706,535.806 554.039,496.139 562.5,456.5C 566.475,449.869 570.809,443.536 575.5,437.5 Z" opacity=".974"/></g><g><path fill="#ec3728" d="M 949.5,440.5 C 951.229,444.021 952.562,447.687 953.5,451.5C 947.833,476.833 942.167,502.167 936.5,527.5C 934.971,523.579 933.637,519.579 932.5,515.5C 938.039,490.471 943.706,465.471 949.5,440.5 Z" opacity=".974"/></g><g><path fill="#ff8000" d="M 772.5,445.5 C 778.802,454.143 785.135,462.81 791.5,471.5C 798.5,498.167 805.5,524.834 812.5,551.5C 806.273,547.945 800.94,543.278 796.5,537.5C 788.706,506.783 780.706,476.117 772.5,445.5 Z" opacity=".974"/></g><g><path fill="#f44715" d="M 562.5,456.5 C 554.039,496.139 545.706,535.806 537.5,575.5C 533.5,582.167 529.5,588.833 525.5,595.5C 525.167,595.5 524.833,595.5 524.5,595.5C 532.961,555.861 541.294,516.194 549.5,476.5C 553.338,469.484 557.672,462.817 562.5,456.5 Z" opacity=".976"/></g><g><path fill="#f0401e" d="M 953.5,451.5 C 956.733,457.852 959.4,464.518 961.5,471.5C 955.343,497.273 949.677,523.273 944.5,549.5C 941.658,542.313 938.991,534.98 936.5,527.5C 942.167,502.167 947.833,476.833 953.5,451.5 Z" opacity=".974"/></g><g><path fill="#f64a11" d="M 961.5,471.5 C 963.875,476.953 965.875,482.619 967.5,488.5C 962.323,515.391 956.657,542.057 950.5,568.5C 948.054,562.407 946.054,556.074 944.5,549.5C 949.677,523.273 955.343,497.273 961.5,471.5 Z" opacity=".978"/></g><g><path fill="#ff7500" d="M 791.5,471.5 C 800.399,482.739 810.066,493.405 820.5,503.5C 826.348,525.893 832.348,548.226 838.5,570.5C 832.387,566.938 826.387,563.104 820.5,559C 817.568,556.715 814.902,554.215 812.5,551.5C 805.5,524.834 798.5,498.167 791.5,471.5 Z" opacity=".97"/></g><g><path fill="#ff8a0b" d="M 232.5,492.5 C 246.211,492.411 259.877,493.078 273.5,494.5C 273.5,509.167 273.5,523.833 273.5,538.5C 259.878,536.961 246.212,535.961 232.5,535.5C 232.5,521.167 232.5,506.833 232.5,492.5 Z" opacity=".982"/></g><g><path fill="#ff7b07" d="M 232.5,492.5 C 232.5,506.833 232.5,521.167 232.5,535.5C 219.165,535.77 205.831,536.103 192.5,536.5C 192.5,522.5 192.5,508.5 192.5,494.5C 205.792,493.105 219.125,492.438 232.5,492.5 Z" opacity=".982"/></g><g><path fill="#ff920c" d="M 273.5,494.5 C 280.833,495.5 288.167,496.5 295.5,497.5C 295.5,512.5 295.5,527.5 295.5,542.5C 288.182,541.036 280.849,539.703 273.5,538.5C 273.5,523.833 273.5,509.167 273.5,494.5 Z" opacity=".981"/></g><g><path fill="#f94f0b" d="M 549.5,476.5 C 541.294,516.194 532.961,555.861 524.5,595.5C 517.167,607.167 509.833,618.833 502.5,630.5C 501.861,629.903 501.528,629.07 501.5,628C 509.742,589.869 517.742,551.703 525.5,513.5C 532.766,500.619 540.766,488.286 549.5,476.5 Z" opacity=".989"/></g><g><path fill="#ff6f05" d="M 192.5,494.5 C 192.5,508.5 192.5,522.5 192.5,536.5C 180.991,537.964 169.324,539.298 157.5,540.5C 157.5,527.167 157.5,513.833 157.5,500.5C 169.009,497.76 180.676,495.76 192.5,494.5 Z" opacity=".98"/></g><g><path fill="#ff990e" d="M 295.5,497.5 C 304.908,499.519 314.241,501.852 323.5,504.5C 323.5,519.833 323.5,535.167 323.5,550.5C 314.151,547.83 304.818,545.163 295.5,542.5C 295.5,527.5 295.5,512.5 295.5,497.5 Z" opacity=".98"/></g><g><path fill="#ff6202" d="M 157.5,500.5 C 157.5,513.833 157.5,527.167 157.5,540.5C 145.474,542.572 133.474,544.905 121.5,547.5C 121.5,534.833 121.5,522.167 121.5,509.5C 133.16,505.585 145.16,502.585 157.5,500.5 Z" opacity=".976"/></g><g><path fill="#ff9f0f" d="M 323.5,504.5 C 331.972,506.769 340.306,509.435 348.5,512.5C 348.5,528.167 348.5,543.833 348.5,559.5C 340.016,556.674 331.682,553.674 323.5,550.5C 323.5,535.167 323.5,519.833 323.5,504.5 Z" opacity=".979"/></g><g><path fill="#fe5700" d="M 967.5,488.5 C 981.39,527.343 993.39,566.843 1003.5,607C 968.509,646.478 934.509,686.644 901.5,727.5C 899.541,709.451 897.207,691.451 894.5,673.5C 901.297,666.202 908.297,659.035 915.5,652C 872.151,666.839 827.484,675.339 781.5,677.5C 781.5,663.167 781.5,648.833 781.5,634.5C 833.784,631.721 885.117,623.221 935.5,609C 914.462,604.375 894.128,597.875 874.5,589.5C 869.681,571.892 865.014,554.225 860.5,536.5C 889.372,554.02 920.039,567.687 952.5,577.5C 951.833,574.5 951.167,571.5 950.5,568.5C 956.657,542.057 962.323,515.391 967.5,488.5 Z" opacity=".979"/></g><g><path fill="#ffa510" d="M 348.5,512.5 C 358.277,515.889 367.944,519.556 377.5,523.5C 377.5,539.5 377.5,555.5 377.5,571.5C 367.662,567.742 357.995,563.742 348.5,559.5C 348.5,543.833 348.5,528.167 348.5,512.5 Z" opacity=".978"/></g><g><path fill="#ff6900" d="M 820.5,503.5 C 829.539,511.874 838.872,519.874 848.5,527.5C 853.034,546.639 858.034,565.639 863.5,584.5C 859.402,582.952 855.402,581.119 851.5,579C 846.76,576.64 842.426,573.807 838.5,570.5C 832.348,548.226 826.348,525.893 820.5,503.5 Z" opacity=".974"/></g><g><path fill="#ffab12" d="M 377.5,523.5 C 389.289,528.894 400.956,534.561 412.5,540.5C 412.5,556.5 412.5,572.5 412.5,588.5C 400.641,583.07 388.975,577.403 377.5,571.5C 377.5,555.5 377.5,539.5 377.5,523.5 Z" opacity=".979"/></g><g><path fill="#ff6000" d="M 848.5,527.5 C 852.538,530.512 856.538,533.512 860.5,536.5C 865.014,554.225 869.681,571.892 874.5,589.5C 870.407,588.618 866.74,586.951 863.5,584.5C 858.034,565.639 853.034,546.639 848.5,527.5 Z" opacity=".973"/></g><g><path fill="#fe5700" d="M 525.5,513.5 C 517.742,551.703 509.742,589.869 501.5,628C 501.528,629.07 501.861,629.903 502.5,630.5C 501.833,631.5 501.167,632.5 500.5,633.5C 471.109,680.888 436.443,724.221 396.5,763.5C 385.774,753.44 376.108,742.44 367.5,730.5C 402.997,695.347 433.997,656.681 460.5,614.5C 463.797,611.264 466.63,607.597 469,603.5C 474.441,594.943 479.608,586.277 484.5,577.5C 498.18,556.13 511.847,534.797 525.5,513.5 Z" opacity=".979"/></g><g><path fill="#ffb113" d="M 412.5,540.5 C 436.5,552.833 460.5,565.167 484.5,577.5C 479.608,586.277 474.441,594.943 469,603.5C 466.63,607.597 463.797,611.264 460.5,614.5C 444.146,606.326 428.146,597.659 412.5,588.5C 412.5,572.5 412.5,556.5 412.5,540.5 Z" opacity=".977"/></g><g><path fill="#f64900" d="M 106.5,563.5 C 126.489,566.431 146.156,570.764 165.5,576.5C 167.466,592.593 169.799,608.593 172.5,624.5C 152.902,615.204 132.569,607.871 111.5,602.5C 109.553,589.537 107.886,576.537 106.5,563.5 Z" opacity=".976"/></g><g><path fill="#f04100" d="M 165.5,576.5 C 172.61,578.889 179.61,581.556 186.5,584.5C 188.555,601.552 190.888,618.552 193.5,635.5C 186.308,632.072 179.308,628.405 172.5,624.5C 169.799,608.593 167.466,592.593 165.5,576.5 Z" opacity=".974"/></g><g><path fill="#feab12" d="M 524.5,595.5 C 524.833,595.5 525.167,595.5 525.5,595.5C 531.5,597.833 537.5,600.167 543.5,602.5C 543.5,618.167 543.5,633.833 543.5,649.5C 529.012,644.56 514.679,639.227 500.5,633.5C 501.167,632.5 501.833,631.5 502.5,630.5C 509.833,618.833 517.167,607.167 524.5,595.5 Z" opacity=".98"/></g><g><path fill="#ffa510" d="M 543.5,602.5 C 552.426,605.698 561.426,608.698 570.5,611.5C 570.5,626.833 570.5,642.167 570.5,657.5C 561.263,655.608 552.263,652.941 543.5,649.5C 543.5,633.833 543.5,618.167 543.5,602.5 Z" opacity=".978"/></g><g><path fill="#e73200" d="M 186.5,584.5 C 206.246,592.201 224.579,602.201 241.5,614.5C 244.26,634.487 246.927,654.487 249.5,674.5C 240.395,667.907 231.395,661.074 222.5,654C 212.927,647.576 203.26,641.409 193.5,635.5C 190.888,618.552 188.555,601.552 186.5,584.5 Z" opacity=".977"/></g><g><path fill="#ff9f0f" d="M 570.5,611.5 C 578.012,614.295 585.679,616.629 593.5,618.5C 593.5,633.833 593.5,649.167 593.5,664.5C 585.611,662.615 577.945,660.282 570.5,657.5C 570.5,642.167 570.5,626.833 570.5,611.5 Z" opacity=".978"/></g><g><path fill="#ff990e" d="M 593.5,618.5 C 601.622,621.28 609.955,623.28 618.5,624.5C 618.5,639.5 618.5,654.5 618.5,669.5C 610.197,667.706 601.863,666.039 593.5,664.5C 593.5,649.167 593.5,633.833 593.5,618.5 Z" opacity=".98"/></g><g><path fill="#ff8e0b" d="M 618.5,624.5 C 631.739,627.391 645.073,629.725 658.5,631.5C 658.5,645.833 658.5,660.167 658.5,674.5C 645.095,673.394 631.761,671.728 618.5,669.5C 618.5,654.5 618.5,639.5 618.5,624.5 Z" opacity=".981"/></g><g><path fill="#ff8209" d="M 658.5,631.5 C 671.508,632.44 684.508,633.44 697.5,634.5C 697.5,648.833 697.5,663.167 697.5,677.5C 684.391,677.261 671.391,676.261 658.5,674.5C 658.5,660.167 658.5,645.833 658.5,631.5 Z" opacity=".984"/></g><g><path fill="#ff6202" d="M 781.5,634.5 C 781.5,648.833 781.5,663.167 781.5,677.5C 770.521,678.32 759.521,678.653 748.5,678.5C 748.5,664.167 748.5,649.833 748.5,635.5C 759.499,635.128 770.499,634.794 781.5,634.5 Z" opacity=".979"/></g><g><path fill="#ff7506" d="M 697.5,634.5 C 708.833,634.833 720.167,635.167 731.5,635.5C 731.5,649.833 731.5,664.167 731.5,678.5C 720.136,678.743 708.802,678.41 697.5,677.5C 697.5,663.167 697.5,648.833 697.5,634.5 Z" opacity=".993"/></g><g><path fill="#ff6d04" d="M 731.5,635.5 C 737.167,635.5 742.833,635.5 748.5,635.5C 748.5,649.833 748.5,664.167 748.5,678.5C 742.833,678.5 737.167,678.5 731.5,678.5C 731.5,664.167 731.5,649.833 731.5,635.5 Z" opacity=".994"/></g><g><path fill="#db1f00" d="M 241.5,614.5 C 257.92,624.713 273.254,636.38 287.5,649.5C 290.834,673.17 294.167,696.837 297.5,720.5C 281.777,704.775 265.777,689.441 249.5,674.5C 246.927,654.487 244.26,634.487 241.5,614.5 Z" opacity=".979"/></g><g><path fill="#d10f00" d="M 287.5,649.5 C 301.136,661.468 314.136,674.135 326.5,687.5C 329.553,712.205 332.886,736.872 336.5,761.5C 335.078,760.075 333.411,759.075 331.5,758.5C 320.537,745.535 309.204,732.869 297.5,720.5C 294.167,696.837 290.834,673.17 287.5,649.5 Z" opacity=".979"/></g><g><path fill="#c80000" d="M 326.5,687.5 C 340.532,701.53 354.198,715.864 367.5,730.5C 376.108,742.44 385.774,753.44 396.5,763.5C 434.186,807.361 473.186,850.194 513.5,892C 525.571,904.075 538.237,915.408 551.5,926C 559.806,932.153 568.472,937.653 577.5,942.5C 580.108,958.088 582.441,973.754 584.5,989.5C 569.105,986.804 554.771,981.304 541.5,973C 526.111,962.634 511.444,951.301 497.5,939C 483,924.5 468.5,910 454,895.5C 422.931,861.27 392.097,826.937 361.5,792.5C 361.291,791.078 360.791,789.745 360,788.5C 351.584,779.924 343.751,770.924 336.5,761.5C 332.886,736.872 329.553,712.205 326.5,687.5 Z" opacity=".98"/></g><g><path fill="#f64900" d="M 894.5,673.5 C 897.207,691.451 899.541,709.451 901.5,727.5C 884.853,750.141 867.853,772.475 850.5,794.5C 847.577,774.7 844.577,755.033 841.5,735.5C 857.755,713.677 875.422,693.01 894.5,673.5 Z" opacity=".975"/></g><g><path fill="#ee3d00" d="M 841.5,735.5 C 844.577,755.033 847.577,774.7 850.5,794.5C 834.853,816.14 818.853,837.473 802.5,858.5C 799.814,838.323 796.814,818.323 793.5,798.5C 808.784,776.922 824.784,755.922 841.5,735.5 Z" opacity=".975"/></g><g><path fill="#e63100" d="M 793.5,798.5 C 796.814,818.323 799.814,838.323 802.5,858.5C 786.019,881.124 768.353,902.791 749.5,923.5C 747.482,904.039 744.815,884.705 741.5,865.5C 758.603,842.947 775.936,820.614 793.5,798.5 Z" opacity=".975"/></g><g><path fill="#de2400" d="M 741.5,865.5 C 744.815,884.705 747.482,904.039 749.5,923.5C 734.649,940.693 717.983,955.693 699.5,968.5C 697.632,951.423 695.298,934.423 692.5,917.5C 710.297,901.374 726.631,884.041 741.5,865.5 Z" opacity=".973"/></g><g><path fill="#d61800" d="M 692.5,917.5 C 695.298,934.423 697.632,951.423 699.5,968.5C 681.941,980.468 662.608,988.134 641.5,991.5C 639.499,977.163 637.499,962.83 635.5,948.5C 657.136,942.83 676.136,932.496 692.5,917.5 Z" opacity=".977"/></g><g><path fill="#d00d00" d="M 577.5,942.5 C 596.397,949.439 615.73,951.439 635.5,948.5C 637.499,962.83 639.499,977.163 641.5,991.5C 622.25,994.556 603.25,993.889 584.5,989.5C 582.441,973.754 580.108,958.088 577.5,942.5 Z" opacity=".977"/></g><g><path fill="#fe5800" d="M 816.5,1093.5 C 827.833,1093.5 839.167,1093.5 850.5,1093.5C 850.833,1157.84 850.5,1222.17 849.5,1286.5C 820.357,1295.73 791.024,1296.56 761.5,1289C 735.593,1278.73 721.759,1259.56 720,1231.5C 717.391,1209.19 722.391,1188.85 735,1170.5C 757.27,1146.68 784.27,1139.01 816,1147.5C 816.5,1129.5 816.667,1111.5 816.5,1093.5 Z M 787.5,1172.5 C 797.033,1171.88 806.366,1172.88 815.5,1175.5C 816.828,1205.07 816.828,1234.57 815.5,1264C 803.078,1266.25 790.745,1265.92 778.5,1263C 768.604,1258.77 761.771,1251.6 758,1241.5C 752.366,1221.8 754.699,1203.13 765,1185.5C 771.151,1178.68 778.651,1174.35 787.5,1172.5 Z" opacity=".972"/></g><g><path fill="#fe5800" d="M 44.5,1144.5 C 60.2353,1143.24 75.5687,1145.07 90.5,1150C 106.218,1157.07 115.052,1169.23 117,1186.5C 117.667,1219.83 117.667,1253.17 117,1286.5C 90.212,1294.77 63.0453,1296.27 35.5,1291C 9.02157,1282.9 -1.81176,1265.07 3,1237.5C 8.96952,1217.24 22.4695,1205.41 43.5,1202C 57.1569,1200.23 70.8235,1200.06 84.5,1201.5C 85.9654,1189.26 81.2988,1180.42 70.5,1175C 52.9852,1171.27 35.6519,1172.1 18.5,1177.5C 17.5581,1177.39 16.7247,1177.06 16,1176.5C 15.3858,1169.31 14.5525,1162.14 13.5,1155C 13.8333,1154.17 14.1667,1153.33 14.5,1152.5C 24.2517,1148.42 34.2517,1145.76 44.5,1144.5 Z M 64.5,1225.5 C 70.8981,1225.71 77.2314,1226.37 83.5,1227.5C 84.4991,1240.48 84.8325,1253.48 84.5,1266.5C 73.5234,1268.76 62.5234,1268.93 51.5,1267C 41.23,1264.56 35.8967,1258.06 35.5,1247.5C 35.5245,1238.28 39.8578,1232.11 48.5,1229C 53.8706,1227.36 59.2039,1226.2 64.5,1225.5 Z" opacity=".974"/></g><g><path fill="#fe5800" d="M 322.5,1144.5 C 338.235,1143.24 353.569,1145.07 368.5,1150C 383.799,1157.42 392.632,1169.58 395,1186.5C 395.667,1219.83 395.667,1253.17 395,1286.5C 366.812,1295.33 338.312,1296.5 309.5,1290C 284.976,1280.46 275.476,1262.63 281,1236.5C 284.413,1222.75 292.58,1212.92 305.5,1207C 317.649,1201.92 330.316,1199.75 343.5,1200.5C 349.867,1200.56 356.2,1200.9 362.5,1201.5C 363.675,1185.32 356.342,1175.82 340.5,1173C 333.167,1172.33 325.833,1172.33 318.5,1173C 310.11,1174.31 301.777,1175.81 293.5,1177.5C 293.347,1170.12 292.68,1162.79 291.5,1155.5C 291.833,1154.5 292.167,1153.5 292.5,1152.5C 302.252,1148.42 312.252,1145.76 322.5,1144.5 Z M 341.5,1225.5 C 348.236,1225.64 354.903,1226.31 361.5,1227.5C 362.499,1240.48 362.832,1253.48 362.5,1266.5C 353.237,1268.23 343.904,1268.73 334.5,1268C 314.879,1264.59 309.046,1253.76 317,1235.5C 323.917,1228.95 332.083,1225.62 341.5,1225.5 Z" opacity=".975"/></g><g><path fill="#fe5800" d="M 477.5,1144.5 C 493.892,1143.2 509.892,1145.03 525.5,1150C 545.353,1159.85 554.853,1176.01 554,1198.5C 554.5,1229.16 554.667,1259.83 554.5,1290.5C 543.167,1290.5 531.833,1290.5 520.5,1290.5C 520.667,1261.16 520.5,1231.83 520,1202.5C 519.624,1181.63 508.957,1171.96 488,1173.5C 480.051,1173.69 472.218,1174.69 464.5,1176.5C 464.5,1214.5 464.5,1252.5 464.5,1290.5C 453.5,1290.5 442.5,1290.5 431.5,1290.5C 431.167,1245.16 431.5,1199.83 432.5,1154.5C 447.232,1149.36 462.232,1146.02 477.5,1144.5 Z" opacity=".982"/></g><g><path fill="#fe5800" d="M 621.5,1144.5 C 637.235,1143.24 652.569,1145.07 667.5,1150C 683.091,1157.67 691.925,1170.17 694,1187.5C 694.667,1220.5 694.667,1253.5 694,1286.5C 665.812,1295.33 637.312,1296.5 608.5,1290C 586.932,1282.07 577.098,1266.57 579,1243.5C 582.614,1220.22 596.114,1206.38 619.5,1202C 633.49,1200.23 647.49,1200.06 661.5,1201.5C 662.576,1185.42 655.242,1175.92 639.5,1173C 631.833,1172.33 624.167,1172.33 616.5,1173C 608.465,1174.44 600.465,1175.94 592.5,1177.5C 592.237,1170.3 591.571,1163.13 590.5,1156C 590.833,1154.83 591.167,1153.67 591.5,1152.5C 601.252,1148.42 611.252,1145.76 621.5,1144.5 Z M 640.5,1225.5 C 647.236,1225.64 653.903,1226.31 660.5,1227.5C 661.499,1240.48 661.832,1253.48 661.5,1266.5C 652.237,1268.23 642.904,1268.73 633.5,1268C 613.847,1264.52 608.013,1253.69 616,1235.5C 622.922,1228.95 631.089,1225.62 640.5,1225.5 Z" opacity=".972"/></g><g><path fill="#fe5800" d="M 931.5,1144.5 C 962.639,1140.48 984.806,1152.48 998,1180.5C 999.156,1184.12 1000.16,1187.79 1001,1191.5C 1002.4,1204.11 1002.9,1216.78 1002.5,1229.5C 971.833,1229.5 941.167,1229.5 910.5,1229.5C 910.248,1246.85 918.248,1258.35 934.5,1264C 946.417,1266.92 958.417,1267.25 970.5,1265C 977.244,1263.64 983.911,1262.31 990.5,1261C 991.968,1268.77 993.301,1276.6 994.5,1284.5C 992.531,1287.01 989.864,1288.51 986.5,1289C 961.225,1296.9 936.225,1296.24 911.5,1287C 891.96,1277.11 880.46,1261.28 877,1239.5C 873.606,1219.25 875.606,1199.59 883,1180.5C 892.791,1159.87 908.958,1147.87 931.5,1144.5 Z M 937.5,1170.5 C 959.233,1171.24 970.233,1182.57 970.5,1204.5C 950.5,1204.5 930.5,1204.5 910.5,1204.5C 911.499,1186.53 920.499,1175.2 937.5,1170.5 Z" opacity=".975"/></g><g><path fill="#fe5800" d="M 131.5,1147.5 C 143.851,1147.17 156.185,1147.5 168.5,1148.5C 180.099,1184.13 191.599,1219.8 203,1255.5C 215.011,1219.64 226.511,1183.64 237.5,1147.5C 249.518,1147.17 261.518,1147.5 273.5,1148.5C 255.765,1195.54 237.932,1242.54 220,1289.5C 208.247,1290.49 196.414,1290.82 184.5,1290.5C 167.03,1242.76 149.363,1195.09 131.5,1147.5 Z" opacity=".964"/></g></svg>