<svg xmlns="http://www.w3.org/2000/svg" role="img" viewBox="-1.00 -1.06 51.94 32.00"><title>AWS (Member) logo</title><defs><style>.cls-1{fill:#252f3e}.cls-2{fill:#f90;fill-rule:evenodd}</style></defs><path d="M14.09 10.85a4.7 4.7 0 0 0 .19 1.48 7.73 7.73 0 0 0 .54 1.19.77.77 0 0 1 .12.38.64.64 0 0 1-.32.49l-1 .7a.83.83 0 0 1-.44.15.69.69 0 0 1-.49-.23 3.8 3.8 0 0 1-.6-.77q-.25-.42-.51-1a6.14 6.14 0 0 1-4.89 2.3 4.54 4.54 0 0 1-3.32-1.19 4.27 4.27 0 0 1-1.22-3.2 4.28 4.28 0 0 1 1.46-3.4 6.06 6.06 0 0 1 4.08-1.29 12.47 12.47 0 0 1 1.76.13q.92.13 1.91.36V5.73a3.65 3.65 0 0 0-.79-2.66 3.81 3.81 0 0 0-2.71-.77 7.71 7.71 0 0 0-1.79.22 12.78 12.78 0 0 0-1.79.57 4.55 4.55 0 0 1-.58.22h-.26q-.35 0-.35-.52V2a1.09 1.09 0 0 1 .12-.58 1.2 1.2 0 0 1 .47-.35A10.88 10.88 0 0 1 5.77.32 10.19 10.19 0 0 1 8.36 0a6 6 0 0 1 4.35 1.35 5.49 5.49 0 0 1 1.38 4.09zm-6.75 2.53a5.36 5.36 0 0 0 1.72-.31A3.63 3.63 0 0 0 10.63 12a2.62 2.62 0 0 0 .56-1 5.63 5.63 0 0 0 .16-1.44v-.7a14.35 14.35 0 0 0-1.53-.28 12.37 12.37 0 0 0-1.56-.1 3.84 3.84 0 0 0-2.47.67A2.34 2.34 0 0 0 5 11a2.35 2.35 0 0 0 .61 1.76 2.4 2.4 0 0 0 1.73.62zm13.35 1.8a1 1 0 0 1-.64-.16 1.3 1.3 0 0 1-.35-.65L15.81 1.51a3 3 0 0 1-.15-.67.36.36 0 0 1 .41-.41h1.63a1 1 0 0 1 .65.16 1.4 1.4 0 0 1 .33.65l2.79 11 2.59-11a1.17 1.17 0 0 1 .33-.64 1.1 1.1 0 0 1 .67-.16h1.34a1.1 1.1 0 0 1 .67.16 1.17 1.17 0 0 1 .32.65L30 12.39l2.88-11.14a1.39 1.39 0 0 1 .34-.65 1 1 0 0 1 .65-.16h1.54a.36.36 0 0 1 .41.41 1.36 1.36 0 0 1 0 .26 3.64 3.64 0 0 1-.12.41l-4 12.86a1.3 1.3 0 0 1-.35.65 1 1 0 0 1-.64.16h-1.46a1 1 0 0 1-.67-.17 1.26 1.26 0 0 1-.32-.67L25.67 3.64l-2.56 10.7a1.26 1.26 0 0 1-.32.67 1 1 0 0 1-.67.17zm21.36.44a11.28 11.28 0 0 1-2.56-.29 7.44 7.44 0 0 1-1.92-.67 1 1 0 0 1-.61-.93v-.84q0-.52.38-.52a.9.9 0 0 1 .31.06l.42.17a8.77 8.77 0 0 0 1.83.58 9.78 9.78 0 0 0 2 .2 4.48 4.48 0 0 0 2.43-.55 1.76 1.76 0 0 0 .86-1.57 1.61 1.61 0 0 0-.45-1.16A4.29 4.29 0 0 0 43 9.22l-2.41-.76A5.15 5.15 0 0 1 38 6.78a3.94 3.94 0 0 1-.83-2.41 3.7 3.7 0 0 1 .45-1.85 4.47 4.47 0 0 1 1.19-1.37 5.27 5.27 0 0 1 1.7-.86A7.4 7.4 0 0 1 42.6 0a8.87 8.87 0 0 1 1.12.07q.57.07 1.08.19t.95.26a4.27 4.27 0 0 1 .7.29 1.59 1.59 0 0 1 .49.41.94.94 0 0 1 .15.55v.79q0 .52-.38.52a1.76 1.76 0 0 1-.64-.2 7.74 7.74 0 0 0-3.2-.64 4.37 4.37 0 0 0-2.21.47 1.6 1.6 0 0 0-.79 1.48 1.58 1.58 0 0 0 .49 1.18 4.94 4.94 0 0 0 1.83.92l2.36.71a5.08 5.08 0 0 1 2.57 1.6 3.76 3.76 0 0 1 .78 2.4 4.21 4.21 0 0 1-.44 1.93 4.4 4.4 0 0 1-1.21 1.47 5.43 5.43 0 0 1-1.85.93 8.25 8.25 0 0 1-2.35.29z" class="cls-1"/><path d="M45.19 23.81C39.72 27.85 31.78 30 25 30A36.64 36.64 0 0 1 .22 20.57c-.51-.46-.06-1.09.56-.74a49.78 49.78 0 0 0 24.75 6.57 49.23 49.23 0 0 0 18.87-3.87c.92-.39 1.7.61.79 1.28z" class="cls-2"/><path d="M47.47 21.21c-.7-.9-4.63-.42-6.39-.21-.53.06-.62-.4-.14-.74 3.13-2.2 8.27-1.57 8.86-.83s-.16 5.89-3.09 8.35c-.45.38-.88.18-.68-.32.66-1.66 2.14-5.35 1.44-6.25z" class="cls-2"/><path d="M14.09 10.85a4.7 4.7 0 0 0 .19 1.48 7.73 7.73 0 0 0 .54 1.19.77.77 0 0 1 .12.38.64.64 0 0 1-.32.49l-1 .7a.83.83 0 0 1-.44.15.69.69 0 0 1-.49-.23 3.8 3.8 0 0 1-.6-.77q-.25-.42-.51-1a6.14 6.14 0 0 1-4.89 2.3 4.54 4.54 0 0 1-3.32-1.19 4.27 4.27 0 0 1-1.22-3.2 4.28 4.28 0 0 1 1.46-3.4 6.06 6.06 0 0 1 4.08-1.29 12.47 12.47 0 0 1 1.76.13q.92.13 1.91.36V5.73a3.65 3.65 0 0 0-.79-2.66 3.81 3.81 0 0 0-2.71-.77 7.71 7.71 0 0 0-1.79.22 12.78 12.78 0 0 0-1.79.57 4.55 4.55 0 0 1-.58.22h-.26q-.35 0-.35-.52V2a1.09 1.09 0 0 1 .12-.58 1.2 1.2 0 0 1 .47-.35A10.88 10.88 0 0 1 5.77.32 10.19 10.19 0 0 1 8.36 0a6 6 0 0 1 4.35 1.35 5.49 5.49 0 0 1 1.38 4.09zm-6.75 2.53a5.36 5.36 0 0 0 1.72-.31A3.63 3.63 0 0 0 10.63 12a2.62 2.62 0 0 0 .56-1 5.63 5.63 0 0 0 .16-1.44v-.7a14.35 14.35 0 0 0-1.53-.28 12.37 12.37 0 0 0-1.56-.1 3.84 3.84 0 0 0-2.47.67A2.34 2.34 0 0 0 5 11a2.35 2.35 0 0 0 .61 1.76 2.4 2.4 0 0 0 1.73.62zm13.35 1.8a1 1 0 0 1-.64-.16 1.3 1.3 0 0 1-.35-.65L15.81 1.51a3 3 0 0 1-.15-.67.36.36 0 0 1 .41-.41h1.63a1 1 0 0 1 .65.16 1.4 1.4 0 0 1 .33.65l2.79 11 2.59-11a1.17 1.17 0 0 1 .33-.64 1.1 1.1 0 0 1 .67-.16h1.34a1.1 1.1 0 0 1 .67.16 1.17 1.17 0 0 1 .32.65L30 12.39l2.88-11.14a1.39 1.39 0 0 1 .34-.65 1 1 0 0 1 .65-.16h1.54a.36.36 0 0 1 .41.41 1.36 1.36 0 0 1 0 .26 3.64 3.64 0 0 1-.12.41l-4 12.86a1.3 1.3 0 0 1-.35.65 1 1 0 0 1-.64.16h-1.46a1 1 0 0 1-.67-.17 1.26 1.26 0 0 1-.32-.67L25.67 3.64l-2.56 10.7a1.26 1.26 0 0 1-.32.67 1 1 0 0 1-.67.17zm21.36.44a11.28 11.28 0 0 1-2.56-.29 7.44 7.44 0 0 1-1.92-.67 1 1 0 0 1-.61-.93v-.84q0-.52.38-.52a.9.9 0 0 1 .31.06l.42.17a8.77 8.77 0 0 0 1.83.58 9.78 9.78 0 0 0 2 .2 4.48 4.48 0 0 0 2.43-.55 1.76 1.76 0 0 0 .86-1.57 1.61 1.61 0 0 0-.45-1.16A4.29 4.29 0 0 0 43 9.22l-2.41-.76A5.15 5.15 0 0 1 38 6.78a3.94 3.94 0 0 1-.83-2.41 3.7 3.7 0 0 1 .45-1.85 4.47 4.47 0 0 1 1.19-1.37 5.27 5.27 0 0 1 1.7-.86A7.4 7.4 0 0 1 42.6 0a8.87 8.87 0 0 1 1.12.07q.57.07 1.08.19t.95.26a4.27 4.27 0 0 1 .7.29 1.59 1.59 0 0 1 .49.41.94.94 0 0 1 .15.55v.79q0 .52-.38.52a1.76 1.76 0 0 1-.64-.2 7.74 7.74 0 0 0-3.2-.64 4.37 4.37 0 0 0-2.21.47 1.6 1.6 0 0 0-.79 1.48 1.58 1.58 0 0 0 .49 1.18 4.94 4.94 0 0 0 1.83.92l2.36.71a5.08 5.08 0 0 1 2.57 1.6 3.76 3.76 0 0 1 .78 2.4 4.21 4.21 0 0 1-.44 1.93 4.4 4.4 0 0 1-1.21 1.47 5.43 5.43 0 0 1-1.85.93 8.25 8.25 0 0 1-2.35.29z" class="cls-1"/><path d="M45.19 23.81C39.72 27.85 31.78 30 25 30A36.64 36.64 0 0 1 .22 20.57c-.51-.46-.06-1.09.56-.74a49.78 49.78 0 0 0 24.75 6.57 49.23 49.23 0 0 0 18.87-3.87c.92-.39 1.7.61.79 1.28z" class="cls-2"/><path d="M47.47 21.21c-.7-.9-4.63-.42-6.39-.21-.53.06-.62-.4-.14-.74 3.13-2.2 8.27-1.57 8.86-.83s-.16 5.89-3.09 8.35c-.45.38-.88.18-.68-.32.66-1.66 2.14-5.35 1.44-6.25z" class="cls-2"/></svg>