<svg xmlns="http://www.w3.org/2000/svg" role="img" viewBox="45.57 -5.43 308.36 253.86"><title>Bitergia Analytics logo</title><style>svg {enable-background:new 0 0 400 245}</style><style>.st1{stroke:#000;stroke-width:9.4164}.st1,.st2,.st6{stroke-linejoin:round}.st2{fill:#fff;stroke:#fff;stroke-width:9.4164}.st6{stroke:#000;stroke-width:2.173}.st7{fill:orange}</style><path id="path4006" fill="#fff" stroke="#000" stroke-linejoin="round" stroke-width="9.417" d="M195 46.6c0 13.5-13.1 24.5-29.2 24.5s-29.1-11-29.1-24.5 13-24.5 29.1-24.5 29.2 11 29.2 24.5c0 0 0 0 0 0z"/><path id="path4017" d="M176.9 46.6c0 5.4-4.8 9.8-10.7 9.8-5.9 0-10.8-4.4-10.8-9.8s4.8-9.8 10.7-9.8c6 0 10.8 4.4 10.8 9.8z" class="st1"/><path id="path4019" d="M164.4 44.8c0 1.4-.8 2.4-1.7 2.4-1 0-1.7-1.1-1.7-2.4s.8-2.4 1.7-2.4c1-.1 1.7 1 1.7 2.4z" class="st2"/><path id="path4028" fill="#fff" stroke="#000" stroke-linejoin="round" stroke-width="9.416" d="M261 46.6c0 13.5-13.1 24.5-29.2 24.5s-29.1-11-29.1-24.5 13-24.5 29.1-24.5c16.2 0 29.2 11 29.2 24.5 0 0 0 0 0 0z"/><path id="path4030" d="M243 46.6c0 5.4-4.8 9.8-10.8 9.8-5.9 0-10.8-4.4-10.8-9.8s4.8-9.8 10.8-9.8c6 0 10.8 4.4 10.8 9.8z" class="st1"/><path id="path4032" d="M230.5 44.8c0 1.4-.8 2.5-1.7 2.5-1 0-1.7-1.1-1.7-2.4 0-1.4.8-2.5 1.7-2.5.9-.1 1.7 1 1.7 2.4z" class="st2"/><path id="path4036" stroke="#000" stroke-linejoin="round" stroke-width="5.723" d="M239 101.7c0 15.4-17.9 66.1-40.1 66.1s-40.1-50.7-40.1-66.1 17.9-27.9 40.1-27.9S239 86.2 239 101.7z"/><path id="path4045" fill="#fff" stroke="#fff" stroke-linejoin="round" stroke-width=".886" d="M212.8 65.7h-26.6l6.7 7 6.7 7 6.7-7 6.5-7z"/><path id="rect4049" d="M224.6 19.5L287 2.9c4.4 21.8-41.8 21.2-63.1 21.2l.7-4.6z" class="st6"/><path id="path4052" d="M172.8 19.5L110.4 2.9c-4.4 21.8 41.8 21.2 63.1 21.2l-.7-4.6z" class="st6"/><path id="path4076" d="M178.6 165.1c0 2.1-1.9 3.7-4.3 3.7-2.3 0-4.2-1.7-4.2-3.7 0-2.1 1.9-3.7 4.2-3.8s4.3 1.8 4.3 3.8z" class="st7"/><path id="path4078" d="M187.1 165.1c0 2.1-1.9 3.7-4.3 3.7-2.3 0-4.2-1.7-4.2-3.7 0-2.1 1.9-3.7 4.2-3.8 2.4.1 4.3 1.8 4.3 3.8z" class="st7"/><path id="path4080" d="M195.6 165.1c0 2.1-1.9 3.7-4.3 3.7-2.3 0-4.2-1.7-4.2-3.7 0-2.1 1.9-3.7 4.2-3.8s4.3 1.8 4.3 3.8z" class="st7"/><path id="path4082" d="M214.3 165.1c0 2.1-1.9 3.7-4.3 3.7-2.3 0-4.2-1.7-4.2-3.7 0-2.1 1.9-3.7 4.2-3.8 2.4.1 4.3 1.8 4.3 3.8z" class="st7"/><path id="path4084" d="M222.8 165.1c0 2.1-1.9 3.7-4.3 3.7-2.3 0-4.2-1.7-4.2-3.7 0-2.1 1.9-3.7 4.2-3.8s4.3 1.8 4.3 3.8z" class="st7"/><path id="path4086" d="M231.3 165.1c0 2.1-1.9 3.7-4.3 3.7-2.3 0-4.2-1.7-4.2-3.7 0-2.1 1.9-3.7 4.2-3.8s4.3 1.8 4.3 3.8z" class="st7"/><path id="path3427" d="M198.7 55c-2.2 3-3.6 6.8-6.3 9.6-1.7 1.2-5.1-.6-6.6 1.2 4.1 5 8.8 9.9 13.5 14.2 2.8-1.5 4.7-4.6 7.1-6.7 2.2-2.5 4.9-4.8 6.7-7.5-1.6-1.5-4.5-.3-6.5-.9-3.4-1.1-4.4-5.3-6.2-8-.6-.6-.8-1.9-1.7-1.9z" class="st7"/><path id="path3782" fill="#f0f" fill-opacity="0" stroke="#000" stroke-width="3.4" d="M162.2 75.4c-8.5-1-16.9-5-22.2-10.4-8.7-9-10.1-21.2-3.8-31.8 1-1.7 3.3-4.4 5-6.1 1.8-1.7 3-3.1 2.6-3.1-1.4 0-9-1.1-12.3-1.7-14.7-3-22.2-8.5-22.2-16.6 0-1.5.2-3 .5-3.3.3-.3 11.2 2.4 30.1 7.4 16.3 4.3 31.7 8.3 34.2 8.9 2.5.6 6.4 1.9 8.6 3 7.2 3.5 14.2 11.6 15.6 18l.4 1.7 1.1-2.9c2.2-5.9 5.6-10.5 11.1-14.4 3.7-2.6 7.4-4.2 13.9-5.7 2.8-.7 18-4.7 33.8-8.9 22.4-6 28.8-7.5 29.1-7 .2.3.4 1.8.4 3.3 0 7.7-7.4 13.4-21.3 16.3-3.8.8-11.4 1.9-13 1.9-.3 0 1.2 1.8 3.3 4 4.4 4.5 6.6 8.4 7.8 13.9 2.4 11.2-4.1 23.3-15.5 29.2-10.8 5.6-22.7 5.8-33.4.8-5.5-2.6-5.4-2.4-3.8-4.5.7-1 1.2-1.9 1-2-.2-.2-1.9-.4-3.8-.6-1.9-.2-3.9-.6-4.3-1-1.2-1-4.7-7.1-5.6-9.8-.5-1.3-.8-1.9-.9-1.4 0 1.4-3.5 8.2-5.3 10.3-1.3 1.6-1.7 1.8-3.8 1.8-3.9 0-4.7.7-2.8 2.7l1 1.1-1.5 1c-2.3 1.6-8.1 4.1-11.5 5-3.4.7-9.8 1.2-12.5.9zm10.5-9.7c7.6-1.8 13.2-6 16-11.9 1.3-2.7 1.5-3.6 1.5-7.2s-.2-4.4-1.5-7.2c-3.8-7.7-12.6-12.5-22.9-12.5-10.2 0-19.1 4.8-22.9 12.5-1.4 2.8-1.5 3.6-1.5 7.2s.2 4.5 1.5 7.2c2.8 5.9 8.4 10.1 15.8 11.9 4.9 1.1 9 1.1 14 0h0zm66 0c6.6-1.6 11.6-4.8 14.6-9.2 9.1-13.7-2.5-29.7-21.4-29.7-17.4 0-29.2 14-22.8 27.2 2.8 5.7 8.4 9.9 15.6 11.7 4.9 1.1 9.1 1.1 14 0h0z"/><g id="text3141" transform="translate(-188.141 .799) scale(.67449)"><path id="path4328" stroke="red" stroke-opacity="0" stroke-width="1.326" d="M380.4 244.6c-.6 0-1.3 0-1.9.1-.6 0-1.3 0-1.9.1v32h2.3c5.1 0 9.2-.5 12.3-1.5 3.2-1 5.6-2.3 7.3-3.9s2.9-3.3 3.5-5.3c.6-2 .9-3.9.9-5.8 0-2.2-.4-4.3-1.1-6.2-.7-1.9-1.9-3.6-3.7-4.9-1.7-1.4-4-2.5-6.9-3.3-2.9-.9-6.5-1.3-10.8-1.3h0zm7.2 37.1c-2.1 0-4.1.1-5.9.3-1.8.2-3.5.4-5.1.7v35.4c0 .4.2.7.6 1 .8.3 1.6.5 2.6.7l3 .3c1 .1 2 .2 3.1.2 1 0 2 .1 2.9.1 3.2 0 6.1-.4 8.7-1.2 2.6-.8 4.8-2 6.6-3.5 1.9-1.5 3.3-3.2 4.3-5.3 1-2.1 1.5-4.4 1.5-6.9 0-2.4-.4-5-1.3-7.5-.8-2.6-2.2-4.9-4-7-1.8-2.1-4.1-3.9-6.9-5.2-3-1.4-6.3-2.1-10.1-2.1h0zm33.1 19.6c0 3.8-.8 7.2-2.3 10.3-1.5 3-3.6 5.6-6.3 7.7-2.7 2.1-5.9 3.8-9.6 4.9-3.7 1.2-7.9 1.7-12.3 1.7-1.3 0-2.9 0-4.9-.1s-4-.1-6.1-.2c-2.1 0-4.3-.1-6.5-.2-2.1-.1-4.1-.2-5.8-.3-1.7 0-3.1-.1-4.2-.1s-1.6-.1-1.6-.1h-4.9V322c3-.6 5.4-1.3 7.1-2 1.7-.8 2.6-1.4 2.6-2.1v-72.5c-1.7.2-3.4.5-5 .7-1.6.2-3.2.5-4.7.7l-.6-4.1c1.7-.5 3.7-1 6-1.4 2.3-.5 4.7-.9 7.3-1.3 2.5-.4 5.1-.7 7.7-.9 2.6-.3 5.1-.4 7.5-.4 4.4 0 8.5.4 12.1 1.3 3.6.8 6.7 2 9.1 3.5 2.5 1.6 4.5 3.4 5.8 5.7 1.4 2.2 2.1 4.7 2.1 7.5 0 4.8-1.1 8.9-3.4 12.4-2.3 3.4-5.4 5.9-9.3 7.4 2.8.5 5.5 1.5 7.9 3 2.4 1.5 4.6 3.3 6.3 5.5 1.8 2.1 3.2 4.6 4.3 7.3 1.1 3 1.7 5.9 1.7 9h0z"/><path id="path4330" d="M454.2 240.9c0 1.2-.2 2.4-.6 3.5-.4 1.1-1 2.1-1.7 2.9-.7.8-1.5 1.4-2.4 1.9-.9.5-2 .7-3.1.7-2 0-3.4-.6-4.3-1.7-.8-1.1-1.3-2.7-1.3-4.7 0-1.2.2-2.4.6-3.5.4-1.1 1-2.1 1.7-2.9.7-.8 1.5-1.5 2.4-1.9.9-.5 1.9-.7 3-.7 3.8.1 5.7 2.2 5.7 6.4zM432.8 325v-2.9c3-.6 5.3-1.3 6.9-2 1.6-.8 2.4-1.4 2.4-2.1v-37.8c0-2.3 0-4.1-.1-5.5-.1-1.4-.4-2.5-1-3.3-.6-.8-1.5-1.4-2.8-1.7-1.2-.4-3-.6-5.4-.9v-2.7c1.4-.3 2.8-.6 4.3-.9 1.6-.4 3.1-.8 4.6-1.3 1.5-.5 3-1 4.3-1.5 1.4-.5 2.6-1.1 3.8-1.6h2.3v57.1c0 .5.7 1.2 2.2 2 1.5.8 3.9 1.4 7.1 2.1v2.9h-28.6z"/><path id="path4332" d="M510.4 317.2c-2.2 1.6-4.3 3-6.5 4.3-2.1 1.2-4.2 2.2-6.1 3.1-1.9.8-3.7 1.4-5.3 1.8-1.6.4-3 .7-4.2.7-1.6 0-3-.3-4.5-.9-1.4-.6-2.6-1.5-3.7-2.8-1.1-1.3-1.9-3.1-2.5-5.2-.6-2.1-.9-4.8-.9-7.9v-41H468l-1.4-1.9 5.2-4.4h4.8v-16.4l7.9-6.9 2.1 1.7V263h21.8l1.9 1.9c-.4.6-.9 1.3-1.5 2s-1.2 1.3-1.8 2c-.6.6-1.2 1.2-1.9 1.7-.6.5-1.1.8-1.5 1-1.1-.5-2.7-1-4.9-1.5s-5.1-.8-8.7-.8h-3.5v35.3c0 2.7.1 4.9.3 6.7.3 1.7.7 3.1 1.3 4.2.6 1 1.3 1.8 2.2 2.2.9.4 2.1.6 3.4.6 1.6 0 3.5-.3 5.9-.9 2.4-.6 5.3-1.8 8.7-3.5l2.1 3.3z"/><path id="path4334" d="M545.3 267.9c-2.3 0-4.4.4-6.3 1.3-1.9.9-3.6 2.1-5.1 3.7-1.5 1.6-2.7 3.5-3.7 5.8s-1.7 4.8-2.1 7.5h28.5c1 0 1.7-.2 2-.5.4-.4.5-1 .5-1.9 0-.8-.1-1.8-.2-2.9s-.4-2.2-.8-3.4c-.4-1.2-.9-2.4-1.5-3.5-.6-1.2-1.4-2.2-2.5-3.1-1-.9-2.3-1.7-3.7-2.3-1.5-.4-3.2-.7-5.1-.7zm24.7 20c-.8.9-1.9 1.7-3.2 2.5-1.3.8-2.7 1.4-4.1 2h-35.1v.2c0 3.3.4 6.6 1.3 9.7.9 3.1 2.2 5.8 3.9 8.2 1.7 2.4 3.8 4.2 6.2 5.7 2.4 1.4 5.2 2.1 8.3 2.1 1.4 0 2.7-.1 4-.2 1.3-.2 2.8-.6 4.3-1.1 1.5-.6 3.2-1.5 5-2.7 1.9-1.2 4-2.8 6.5-4.9.6.3 1.1.8 1.5 1.3.4.6.8 1 1 1.4-3 3.2-5.6 5.9-7.9 7.9-2.2 2-4.3 3.5-6.3 4.5-2 1.1-3.9 1.8-5.9 2.1-1.9.4-4 .5-6.3.5-3.4 0-6.7-.7-9.8-2.2-3.1-1.5-5.8-3.5-8.1-6.2-2.4-2.7-4.2-6-5.7-9.7-1.4-3.8-2.1-8.1-2.1-12.8 0-3 .3-5.9 1-8.8.7-2.9 1.6-5.6 2.9-8.2 1.3-2.6 2.8-5 4.7-7.1 1.8-2.2 3.9-4.1 6.2-5.7 1-.7 2.1-1.3 3.3-1.9 1.2-.7 2.5-1.2 3.9-1.7 1.3-.5 2.6-.9 3.9-1.1 1.3-.3 2.6-.5 3.8-.5 2.9 0 5.5.4 7.7 1.2 2.3.8 4.2 1.9 5.9 3.3 1.7 1.3 3.1 2.9 4.3 4.7 1.2 1.8 2.1 3.7 2.8 5.7.8 2 1.3 4 1.6 6.1.4 1.8.5 3.8.5 5.7z"/><path id="path4336" d="M626.9 263.4c.4.3.6 1 .5 2.3 0 1.3-.2 2.8-.5 4.5-.3 1.7-.7 3.4-1.3 5.2-.5 1.8-1.1 3.3-1.6 4.5h-2.9c-.3-1.8-.6-3.3-1.1-4.5-.5-1.2-1.1-2.2-1.7-2.9-.6-.8-1.3-1.3-2.1-1.6-.8-.4-1.6-.5-2.4-.5-1 0-2.1.4-3.5 1.3-1.3.8-2.6 2.1-4 3.9-1.4 1.7-2.8 4-4.1 6.7-1.3 2.7-2.5 6-3.6 9.7v26.2c0 .7.8 1.4 2.5 2.1 1.7.7 4.6 1.4 8.8 2v2.9h-30.6v-2.9c2.9-.7 5.2-1.3 6.9-1.9 1.6-.7 2.5-1.4 2.5-2.1v-38.8c0-1.5 0-2.7-.1-3.7s-.2-1.8-.3-2.5c-.1-.6-.3-1.1-.5-1.5-.2-.4-.4-.6-.5-.9-.3-.3-.7-.6-1.1-.7-.4-.2-.8-.4-1.5-.5-.6-.1-1.3-.2-2.1-.3-.8-.1-1.9-.2-3.1-.3v-2.7c2.9-.8 5.7-1.5 8.5-2.3 2.8-.8 5.3-1.8 7.5-3.1l2.3 2.3.9 15.1c1.2-2.4 2.5-4.7 3.9-6.9 1.4-2.1 2.9-4 4.5-5.5 1.6-1.6 3.3-2.8 5-3.7 1.8-.9 3.6-1.3 5.5-1.3 1.4 0 3 .2 4.6.5 1.4.4 3 1 4.7 1.9z"/><path id="path4338" d="M675.7 285c0-2.4-.4-4.6-1.2-6.7-.8-2.1-1.9-3.9-3.5-5.5-1.5-1.6-3.4-2.8-5.7-3.7-2.3-.9-4.9-1.4-7.9-1.4-1.1 0-2.4.3-3.7.9-1.3.5-2.6 1.4-3.8 2.5s-2.2 2.5-3 4.2c-.8 1.6-1.2 3.6-1.2 5.7 0 2.4.4 4.6 1.1 6.7.8 2.1 1.9 3.9 3.3 5.5 1.5 1.6 3.4 2.8 5.7 3.7 2.3.9 5 1.3 8.2 1.3 1.3 0 2.6-.3 4-.9 1.4-.6 2.7-1.4 3.8-2.5 1.2-1.1 2.1-2.5 2.8-4.1.8-1.5 1.1-3.5 1.1-5.7zm-11.4 40.3c-1.7-.2-3.2-.4-4.7-.6-1.4-.2-2.8-.5-4-.7-3.2 1.7-5.7 3.3-7.6 4.7-1.8 1.4-3.2 2.6-4.1 3.7-.9 1.1-1.5 2.1-1.8 3-.2.9-.3 1.7-.3 2.4 0 1.9.6 3.6 1.9 5.3 1.2 1.7 2.9 3.2 5 4.4 2.1 1.2 4.5 2.2 7.3 2.9 2.8.8 5.7 1.1 8.7 1.1 3 0 5.7-.4 8.1-1.2 2.4-.8 4.5-1.9 6.3-3.3 1.7-1.4 3.1-3.1 4-5.1 1-1.9 1.5-4 1.5-6.3 0-1.2-.3-2.4-.9-3.5-.6-1-1.6-2-3.1-2.8-1.5-.8-3.6-1.6-6.2-2.3-2.8-.7-6.1-1.2-10.1-1.7zm20.8-43c0 3.4-.8 6.6-2.3 9.4-1.5 2.8-3.5 5.2-6 7.3-2.5 2-5.3 3.6-8.5 4.8-3.2 1.1-6.4 1.7-9.6 1.7h-.3c-2.1 1.7-3.5 3.2-4.3 4.4-.8 1.2-1.2 1.9-1.2 2.1 0 .5.2 1.1.7 1.6.5.5 1.4 1 2.6 1.5 1.3.4 3 .9 5.3 1.4 2.2.4 5.1.9 8.5 1.3 4.8.5 8.9 1.3 12 2.4 3.2 1.1 5.7 2.3 7.5 3.7 1.9 1.4 3.2 2.9 3.9 4.5.8 1.6 1.1 3.2 1.1 4.7 0 2.4-.5 4.8-1.4 6.9-.9 2.2-2.2 4.3-3.8 6.1-1.6 1.9-3.5 3.6-5.7 5.1-2.2 1.5-4.5 2.8-7 3.9s-5.1 1.9-7.7 2.5c-2.7.6-5.3.9-7.9.9-2.1 0-4.2-.2-6.5-.5-2.2-.3-4.4-.7-6.6-1.3-2.2-.6-4.2-1.4-6.2-2.4-1.9-.9-3.6-2.1-5.1-3.5-1.5-1.3-2.6-2.9-3.5-4.6-.8-1.7-1.3-3.6-1.3-5.8 0-1.2.2-2.4.6-3.7.4-1.2 1.3-2.6 2.6-4.1s3.1-3 5.4-4.7c2.3-1.7 5.4-3.6 9.2-5.6-2.9-1-4.9-2.2-6-3.5-1.1-1.3-1.7-2.6-1.7-3.9 0-.4.1-.8.3-1.4.2-.6.7-1.4 1.3-2.2.7-.8 1.7-1.8 2.9-2.9 1.2-1.1 2.9-2.4 4.9-3.8-2.3-.6-4.3-1.5-6.2-2.7-1.8-1.2-3.4-2.6-4.7-4.3-1.3-1.7-2.3-3.6-3-5.7-.7-2.1-1.1-4.4-1.1-6.9 0-3.2.7-6.3 2.2-9.2 1.5-2.9 3.4-5.5 5.8-7.6 2.4-2.2 5.1-3.9 8.2-5.1 3.1-1.3 6.2-1.9 9.5-1.9 2.7 0 5.2.4 7.5 1.1 2.4.8 4.5 1.8 6.4 3.2 2.3-.2 4.4-.5 6.3-.9 1.9-.4 3.5-.7 5-1.1 1.5-.4 2.8-.8 4-1.2 1.2-.4 2.2-.8 3.1-1.1l1.3 2c-.5 1.2-1 2.4-1.5 3.5-.5 1-1.2 2.1-2.3 3.2-1.7.3-3.4.6-5 .7-1.6.2-3.4.3-5.5.4 1.2 1.7 2 3.5 2.7 5.4.7 1.7 1.1 3.7 1.1 5.9z"/><path id="path4340" d="M722.5 240.9c0 1.2-.2 2.4-.6 3.5-.4 1.1-1 2.1-1.7 2.9-.7.8-1.5 1.4-2.4 1.9-.9.5-2 .7-3.1.7-2 0-3.4-.6-4.3-1.7-.8-1.1-1.3-2.7-1.3-4.7 0-1.2.2-2.4.6-3.5.4-1.1 1-2.1 1.7-2.9.7-.8 1.5-1.5 2.4-1.9.9-.5 1.9-.7 3-.7 3.8.1 5.7 2.2 5.7 6.4zM701.1 325v-2.9c3-.6 5.3-1.3 6.9-2 1.6-.8 2.4-1.4 2.4-2.1v-37.8c0-2.3 0-4.1-.1-5.5-.1-1.4-.4-2.5-1-3.3-.6-.8-1.5-1.4-2.8-1.7-1.2-.4-3-.6-5.4-.9v-2.7c1.4-.3 2.8-.6 4.3-.9 1.6-.4 3.1-.8 4.6-1.3 1.5-.5 3-1 4.3-1.5 1.4-.5 2.6-1.1 3.8-1.6h2.3v57.1c0 .5.7 1.2 2.2 2 1.5.8 3.9 1.4 7.1 2.1v2.9h-28.6z"/><path id="path4342" d="M757 318.4c2.7 0 5.5-.7 8.5-2 3-1.4 6.2-3.5 9.6-6.5v-17.4l-7.9 1.5c-3 .5-5.7 1.3-7.9 2.3-2.2 1-4 2.2-5.4 3.6s-2.5 2.9-3.1 4.6c-.7 1.6-1 3.4-1 5.2 0 1.8.3 3.2.8 4.3.5 1.1 1.2 2 1.9 2.7.8.6 1.6 1 2.4 1.3.8.3 1.5.4 2.1.4zm38.3 1.2c-3.8 2.6-6.9 4.5-9.4 5.7-2.4 1.2-4.3 1.8-5.5 1.8-1.5 0-2.7-1-3.7-3.1-1-2-1.5-4.9-1.6-8.5-2 2-4 3.7-6 5.2s-4 2.7-5.9 3.6c-1.9.9-3.7 1.6-5.5 2.1-1.7.4-3.2.7-4.7.7-1.6 0-3.2-.3-4.9-.8-1.7-.5-3.2-1.4-4.6-2.5-1.3-1.2-2.4-2.6-3.3-4.5-.9-1.8-1.3-4-1.3-6.6 0-2.6.5-5.1 1.4-7.5 1-2.4 2.4-4.6 4.3-6.5 1.9-2 4.3-3.6 7.1-5.1 2.8-1.5 6.1-2.6 9.8-3.3l13.7-2.7v-9.3c0-1.5-.2-2.9-.5-4.2-.4-1.3-1-2.5-1.8-3.4-.8-1-2-1.7-3.5-2.2-1.4-.5-3.2-.8-5.4-.7-1.4 0-2.8.3-4.2.7-1.4.4-2.6 1.1-3.6 1.9-1 .8-1.8 1.8-2.4 2.9-.6 1.1-.8 2.3-.7 3.6 0 .4-.4.9-1.4 1.4-.9.5-2.1.9-3.4 1.3-1.3.4-2.6.7-3.9.9-1.2.2-2.1.3-2.7.1l-.9-2.6c1-2.2 2.6-4.4 4.7-6.4s4.5-3.8 7.1-5.4c2.7-1.6 5.6-2.8 8.5-3.7 3-.9 5.9-1.4 8.7-1.4 4.9 0 8.7 1.3 11.3 3.9 2.7 2.5 4 6.1 4 10.7v37.6c0 1.9.2 3.2.7 4 .5.8 1.1 1.2 1.9 1.2.6 0 1.4-.1 2.4-.3 1-.2 2.4-.7 4.1-1.5l1.1 2.9z"/></g></svg>