<svg xmlns="http://www.w3.org/2000/svg" role="img" viewBox="-7.17 -7.17 372.84 372.84"><title>BMW (Adopter) logo</title><style>.st0{fill:#6f6f6f}</style><style>.st0{fill:#6f6f6f}</style><style>.st0{fill:#6f6f6f}</style><style>.st0{fill:#6f6f6f}</style><style id="style2" type="text/css">.st0{fill:#6f6f6f}</style><g id="bmwlogo" transform="scale(1.05434)"><g id="g1880"><path id="path1867" d="M170.07873 0C76.14685 0 0 76.14686 0 170.07872s76.14685 170.07869 170.07873 170.07869c93.93189 0 170.07874-76.14685 170.07874-170.07869S264.01062 0 170.07873 0zm159.01795 170.07872c0 87.8232-71.19476 159.01796-159.01794 159.01796-87.82319 0-159.01796-71.19476-159.01796-159.01796 0-87.8232 71.19477-159.01796 159.01795-159.01796 87.82318 0 159.01795 71.19477 159.01795 159.01796z" class="st0"/><path id="path1869" d="M170.07873 69.22062v5.5304c52.56389 0 95.32773 42.76385 95.32773 95.32772h5.5304c0-55.70242-45.1557-100.85812-100.85813-100.85812m0 196.18581c-52.56388 0-95.32772-42.76385-95.32772-95.3277h-5.5304c0 55.7024 45.15574 100.8581 100.85812 100.8581" class="st0"/><g id="g1874"><path id="W_61_-3" d="M252.50635 97.92375c2.30742 2.48216 5.63519 6.4842 7.50574 8.91023l34.44198-21.86443c-1.72107-2.25129-4.45731-5.67012-6.51214-8.07609l-21.80674 14.42359-1.48568 1.283 1.11224-1.62337 9.62756-19.22264-6.80548-6.80567-19.22787 9.63019-1.61991 1.1078 1.29003-1.49198L263.45752 52.393c-2.5376-2.16155-4.97632-4.14108-8.09134-6.54315L233.49783 80.264c2.77083 2.13475 6.42052 5.26095 8.74642 7.3909l20.5814-10.67902 1.31681-.96765-.96769 1.31836z" class="st0"/><path id="M_61_-8" d="M174.3641 54.31413l9.40938-21.07612.59954-1.86676-.17023 1.9502.99035 28.1654c3.30028.31422 6.70928.77054 10.07409 1.32747l-1.5311-41.72007c-4.70421-.5191-9.38474-.89167-14.06462-1.08939l-9.26712 23.00837-.32648 1.7072-.32646-1.7072-9.26712-23.00837c-4.67989.19772-9.36041.57028-14.06464 1.08939l-1.53108 41.72007c3.36481-.55693 6.77379-1.01325 10.07407-1.32748l.99037-28.16538-.17023-1.95021.59953 1.86677 9.40937 21.07611z" class="st0"/><path id="B_x5F_22d_61_-8" d="M98.24594 87.5575c5.43754-5.72997 8.52477-12.35187 3.07598-18.67312-2.9609-3.43498-7.92632-4.18434-12.05346-2.48709l-.40854.16308.13404-.35958c.61072-1.62717.99743-6.82539-3.4347-10.4182-2.15822-1.74945-4.86559-2.39695-7.61257-2.11881-5.10637.51703-9.04243 4.00711-19.7448 15.94461-3.22541 3.59764-7.92616 9.27998-10.75274 12.96293-.00072.00093 29.38757 27.88164 29.38757 27.88164C86.60232 99.65681 90.5696 95.6467 98.24594 87.5575zm-38.3425-6.81575c5.91832-7.23958 12.21024-13.80594 15.06398-16.41003.90106-.82224 1.87995-1.63533 3.06942-1.96356 1.93047-.53272 3.92277.84072 4.37269 2.82102.45237 1.99106-.80018 3.87666-2.1855 5.43699-3.13143 3.527-14.60582 15.53871-14.60582 15.53871s-5.71488-5.423-5.71478-5.42313zm11.50182 10.91483s11.18305-11.8159 14.82617-15.59909c1.44792-1.50359 2.3788-2.40895 3.38127-2.9018 1.28886-.63367 2.69574-.75831 3.95683.0818 1.23842.82504 1.81335 2.26457 1.49944 3.67882-.3743 1.68631-1.74624 3.2982-2.89194 4.52676-1.54091 1.65236-14.80089 15.84207-14.81966 15.86185z" class="st0"/></g><path id="path1876" d="M170.07945 69.22159V170.0795H69.2216c0-55.74224 45.11561-100.85792 100.85785-100.85792z" class="st1"/><path id="path1878" d="M270.93738 170.07951c0 55.74225-45.11568 100.85787-100.85793 100.85787V170.07951z" class="st1"/></g></g><style id="style1865" type="text/css">.st0{fill:#6f6f6f}.st1{fill:#0066b1}</style></svg>