<svg xmlns="http://www.w3.org/2000/svg" role="img" viewBox="-2.27 -2.77 176.41 45.41"><title>Boeing (Adopter) logo</title><defs><style>.cls-2{fill:#0033a1}</style></defs><path d="M27 24.16a13.54 13.54 0 0 0-4.79-17c2.17-2.23 4.52-4.44 7-6.55A61 61 0 0 0 21 6.46 13.54 13.54 0 0 0 4.47 27.29c-2.59 5.61-3 10.11-.76 11.63 2.45 1.63 7.77-1.33 11-6.14 0 0-4.94 4.45-7.65 3.43-1.67-.63-1.67-3.19-.3-6.85a13.54 13.54 0 0 0 17.52-1.28l.48.9c5.9-.48 23.51-.95 23.51-.95-.04-.83-11.7-.03-21.27-3.87zM2.82 18.45A11.92 11.92 0 0 1 19.67 7.61 64.92 64.92 0 0 0 5.26 25.68a11.86 11.86 0 0 1-2.44-7.23zm11.91 11.91a11.86 11.86 0 0 1-7.37-2.55c2.36-5.32 7.16-12.46 13.71-19.44a11.91 11.91 0 0 1 4.43 15.15 21.76 21.76 0 0 1-5.66-3.69l3.59 6.74a11.87 11.87 0 0 1-8.7 3.79zm93.03-13.15l2.2-2.93h-7.68l1.89-2.51h7.69l2.21-2.93H98.73l-10.55 14h15.34l2.2-2.93h-7.68l2.03-2.7h7.69zm10.65-8.37l-10.55 14h7.66l10.54-14h-7.65zm25.5 0l-5.35 7.1-1.64-7.1h-5.98l-10.55 14h5.06l5.3-7.03 1.63 7.03h6.04l10.55-14h-5.06zm25.02 0h-12.3a6.43 6.43 0 0 0-5.15 2.57l-6.35 8.43a1.85 1.85 0 0 0-.38 1.13 1.88 1.88 0 0 0 1.87 1.88h12.3a6.44 6.44 0 0 0 5.16-2.57l1.53-2h1.78l2.22-3h-9.42l-3 3.95a1.67 1.67 0 0 1-1.34.67h-2.17a.49.49 0 0 1-.49-.49.46.46 0 0 1 .1-.29l5-6.7a1.66 1.66 0 0 1 1.34-.67h2.17a.49.49 0 0 1 .49.49.51.51 0 0 1-.1.29l-.82 1.09h7.64l1.35-1.8a1.87 1.87 0 0 0-1.5-3zm-76.48 1.88a1.87 1.87 0 0 0-1.87-1.87h-12.3a6.44 6.44 0 0 0-5.16 2.57l-6.35 8.43a1.88 1.88 0 0 0 1.5 3h12.3a6.44 6.44 0 0 0 5.16-2.57l6.35-8.43a1.86 1.86 0 0 0 .37-1.13zm-8.55 1.83l-5 6.69a1.66 1.66 0 0 1-1.34.67h-2.21a.49.49 0 0 1-.39-.78l5-6.7a1.69 1.69 0 0 1 1.34-.67h2.17a.49.49 0 0 1 .49.49.51.51 0 0 1-.1.29z" class="cls-2"/><path d="M63.52 16.18a6.43 6.43 0 0 0 3.72-2.41l1.46-1.93a1.87 1.87 0 0 0-1.5-3H51.68l-10.55 14h16.06a6.44 6.44 0 0 0 5.16-2.57l1.49-2a1.47 1.47 0 0 0 .3-.9 1.51 1.51 0 0 0-.61-1.21zM56.42 18l-.95 1.26a1.67 1.67 0 0 1-1.34.67H51l2-2.7h3a.49.49 0 0 1 .49.49.47.47 0 0 1-.1.29zm4.1-5.44l-.81 1.07a1.68 1.68 0 0 1-1.34.66h-3.13l1.89-2.51h3a.49.49 0 0 1 .49.49.51.51 0 0 1-.1.29z" class="cls-2"/></svg>