<svg xmlns="http://www.w3.org/2000/svg" role="img" viewBox="-15.79 -15.29 795.08 264.08"><title>Change Healthcare (Member) logo</title><path fill="#1f2150" d="M501.16214.25784c-5.12787 0-9.2971 4.1719-9.2971 9.29843v82.8686L421.97612 3.73909c-2.4626-3.0746-6.61317-4.25857-10.33708-2.95993-3.72124 1.3093-6.21984 4.83321-6.21984 8.77178v109.34887c0 5.13 4.17056 9.29656 9.29843 9.29656 5.13054 0 9.29844-4.16656 9.29844-9.29656V35.20763l69.89025 89.5055c1.77729 2.215 4.41989 3.48324 7.25582 3.48324 1.0453 0 2.08128-.176 3.07725-.52238 3.71858-1.30464 6.21851-4.83055 6.21851-8.77418V9.55627c0-5.12654-4.17056-9.29843-9.29576-9.29843m-400.83865 105.4975c-1.59996-2.00316-3.94617-3.1042-6.60703-3.1042-1.32397 0-3.31819.25893-5.25987 1.47144-7.18569 4.34615-15.05376 6.46077-24.04513 6.46077-27.04786 0-45.2198-18.66114-45.2198-46.42978 0-27.33398 17.67249-46.42683 42.98132-46.42683 9.26537 0 16.98344 1.73062 23.60554 5.29853l.04693.02267c1.63276.8173 3.30046 1.23063 4.95975 1.23063 3.07752 0 5.45666-1.3413 7.04835-3.92257.85145-1.28397 1.34264-2.84393 1.34264-4.29322 0-2.92926-1.58596-5.55986-4.49682-7.43048C86.00772 3.3111 74.09348.25917 62.00005.25917 25.4967.25917 0 26.53185 0 64.15357c0 38.21852 25.32963 63.89694 63.0339 63.89694 12.8418 0 25.54362-3.76804 34.86992-10.35174 2.48167-1.80889 4.0291-4.62549 4.0291-7.34782 0-1.74422-.56612-3.34151-1.60943-4.59562m503.0041 22.44211c14.56096 0 31.51387-5.49466 42.17227-13.65286 1.47597-1.10984 4.91188-4.26656 4.91188-9.65589v-37.6632c0-5.05987-4.11723-9.17976-9.17577-9.17976h-40.17233c-4.69322 0-8.66245 4.04656-8.66245 8.83578 0 4.79054 3.96923 8.8371 8.66245 8.8371h31.68054v25.22378c-6.16118 5.5004-18.45154 9.58256-29.0726 9.58256-26.76334 0-44.0589-18.17341-44.0589-46.29804 0-27.68998 17.49956-46.29751 43.54157-46.29751 8.1798 0 16.08627 1.88928 22.83677 5.44253 1.70795.94797 3.5839 1.45063 5.41986 1.45063 3.12792 0 5.87985-1.5213 7.37582-4.08123.8533-1.49863 1.29063-3.03993 1.29063-4.58256 0-2.92659-1.76529-5.75318-4.57455-7.35848C625.92568 3.13243 614.4633.26051 601.4303.26051c-35.46712 0-61.20914 26.89932-61.20914 63.9664 0 38.86182 24.77138 63.97053 63.10642 63.97053m151.58421-18.98233h-56.08126V73.78133h45.22287c4.95587 0 8.9891-4.03323 8.9891-8.9931 0-4.95988-3.86523-8.99178-8.9891-8.99178h-45.2842V19.59602h56.1426c5.12787 0 9.29843-4.17056 9.29843-9.29577 0-5.12653-4.17056-9.2971-9.29844-9.2971h-65.43836c-5.12787 0-9.2971 4.17057-9.2971 9.2971v108.2125c0 5.12494 4.16923 9.29403 9.2971 9.29403h65.43836c5.12788 0 9.29844-4.1691 9.29844-9.29403 0-5.12747-4.17056-9.29764-9.29844-9.29764m-527.13348 9.48417V9.43228c0-4.97455-4.28123-9.17444-9.3531-9.17444-5.25054 0-9.52377 4.11456-9.52377 9.17444v46.39484h-60.19716V9.43228c0-4.97455-4.28522-9.17444-9.35043-9.17444-5.2532 0-9.52643 4.11456-9.52643 9.17444v109.267c0 5.15454 4.27323 9.35123 9.52643 9.35123 5.1572 0 9.35043-4.1967 9.35043-9.35123V73.82h60.19716v44.87928c0 5.15454 4.27323 9.35123 9.52377 9.35123 5.15587 0 9.3531-4.1967 9.3531-9.35123"/><path fill="#ee1d4a" d="M324.52655 4.6844C323.04125 1.81112 320.08.01117 316.85341.0085h-.00933c-3.22792 0-6.18785 1.79729-7.67314 4.66122l-57.43323 110.5223c-1.39597 2.68167-1.2893 5.89359.28132 8.47846 1.56796 2.58167 4.36923 4.1587 7.39182 4.1587h41.78962c4.77721 0 8.64912-3.87124 8.64912-8.6482 0-4.77587-3.8719-8.6487-8.64912-8.6487h-27.54998l43.17359-83.0858 42.96426 83.0858h-27.58198c-4.77855 0-8.64912 3.87283-8.64912 8.6487 0 4.77696 3.87057 8.6482 8.64912 8.6482h41.79229c3.01592 0 5.81452-1.57437 7.38248-4.1499 1.57463-2.57807 1.6853-5.79146.29733-8.4722L324.52656 4.6844M142.44976 174.55721c-3.27725 0-5.84385 2.56554-5.84385 5.84253v17.45423h-23.6994v-17.45423c0-3.27699-2.56608-5.84253-5.8436-5.84253-3.32125 0-5.92012 2.56554-5.92012 5.84253v47.315c0 3.27752 2.59887 5.84412 5.92012 5.84412 3.27752 0 5.8436-2.5666 5.8436-5.84412v-18.73385h23.6994v18.73385c0 3.27752 2.5666 5.84412 5.84385 5.84412 3.27459 0 5.84119-2.5666 5.84119-5.84412v-47.315c0-3.27699-2.5666-5.84253-5.84119-5.84253m56.21593 47.23216h-17.93022v-12.56902h14.72763c3.0506 0 5.44387-2.46087 5.44387-5.59986 0-3.10246-2.39328-5.52746-5.44387-5.52746h-14.72763v-12.00797h17.13157c3.05193 0 5.43987-2.46407 5.43987-5.60346 0-3.09739-2.38794-5.5244-5.43987-5.5244h-23.46074c-2.9986 0-5.43853 2.44154-5.43853 5.44254v47.0749c0 3.00148 2.43993 5.44517 5.43853 5.44517h24.25939c3.05192 0 5.4452-2.46503 5.4452-5.6061 0-3.09732-2.39328-5.52434-5.4452-5.52434m53.10534-13.68873H238.2207l6.80783-16.59278zm-.176-28.96327c-1.64529-3.78538-4.30256-4.58016-6.2465-4.58016-2.92527 0-5.07988 1.54157-6.40518 4.58682l-19.92884 46.82805c-.31065.72028-.47865 1.4812-.47865 2.1416 0 3.05461 2.4266 5.44518 5.5212 5.44518 2.43993 0 4.31189-1.21612 5.1332-3.32022l4.47855-11.0076h22.64877l4.3959 10.67947c.54265 1.363 2.00794 3.64835 5.69452 3.64835 3.04525 0 5.5212-2.44005 5.5212-5.44517 0-.69113-.15067-1.4307-.476-2.2963l-19.85817-46.68002m67.82364 42.652h-19.37285v-41.38963c0-3.27592-2.56793-5.84093-5.84519-5.84093-3.32125 0-5.92251 2.565-5.92251 5.84093v46.6749c0 3.27753 2.56927 5.84517 5.84652 5.84517h25.29403c3.22392 0 5.84652-2.51451 5.84652-5.6061 0-2.99473-2.67726-5.52434-5.84652-5.52434m53.01068-46.83323h-37.22707c-3.05326 0-5.4412 2.42647-5.4412 5.52546 0 3.14099 2.38794 5.6024 5.4412 5.6024h12.73168v41.6323c0 3.277 2.60127 5.8436 5.92518 5.8436 3.27459 0 5.8412-2.5666 5.8412-5.8436V186.084h12.729c3.05326 0 5.44387-2.46141 5.44387-5.6024 0-3.09899-2.3906-5.52546-5.44386-5.52546m63.65707-.39893c-3.27325 0-5.84119 2.56554-5.84119 5.84253v17.45423h-23.69807v-17.45423c0-3.27699-2.5706-5.84253-5.84785-5.84253-3.32125 0-5.91986 2.56554-5.91986 5.84253v47.315c0 3.27752 2.5986 5.84412 5.91986 5.84412 3.27725 0 5.84785-2.5666 5.84785-5.84412v-18.73385h23.69807v18.73385c0 3.27752 2.56794 5.84412 5.8412 5.84412 3.27724 0 5.84518-2.5666 5.84518-5.84412v-47.315c0-3.27699-2.56794-5.84253-5.84519-5.84253m62.19978 46.04833c-2.85726 1.38954-5.65453 2.06556-8.54379 2.06556-11.01172 0-18.41554-7.52797-18.41554-18.73435 0-11.20399 6.95183-18.73394 17.29157-18.73394 2.6986 0 5.27454.56092 8.09047 1.7557.9573.43585 1.95061.64678 3.03859.64678 2.04661 0 3.7399-.96291 4.78388-2.77233.51465-1.02491.74131-1.87702.74131-2.7514 0-2.06822-1.33997-3.95097-3.56524-5.01867-3.69724-1.89742-8.46912-2.98686-13.089-2.98686-17.71423 0-29.6166 11.99863-29.6166 29.86072 0 17.86095 11.9957 29.86325 29.85658 29.86325 6.79317 0 11.49705-1.1984 15.73561-3.9973 1.6493-1.06924 2.6786-2.88117 2.6786-4.7306 0-1.1427-.32666-2.19057-.9893-3.13587-1.7453-2.31708-4.13857-2.9864-7.99714-1.33069m53.28667-12.5049h-13.549l6.80783-16.59278zm-.17467-28.96327c-1.64262-3.78538-4.30255-4.58016-6.24384-4.58016-2.92793 0-5.08254 1.54157-6.40784 4.58682l-19.92883 46.82805c-.31066.72028-.47866 1.4812-.47866 2.1416 0 3.05461 2.4226 5.44518 5.5172 5.44518 2.44127 0 4.31589-1.21612 5.1412-3.32022l4.47456-11.0076h22.65143l4.39189 10.67947c.54532 1.363 2.00928 3.64835 5.69586 3.64835 3.04525 0 5.5212-2.44005 5.5212-5.44517 0-.69113-.15067-1.4307-.47733-2.2963l-19.85684-46.68002m46.45084 6.91849l.26533-.0052c2.11861-.06826 3.95057-.12706 5.49853-.12706 6.35717 0 9.45043 2.35874 9.45043 7.20662 0 5.67065-5.26387 7.68514-9.77176 7.68514h-5.44253zm17.30757 23.43541c5.15054-2.25314 10.23174-7.58007 10.23174-16.43972 0-8.32899-3.6959-18.25527-21.29546-18.25527-1.1213 0-7.45582.08226-12.16903.16092-3.27725 0-5.84386 2.5666-5.84386 5.84146v46.91764c0 3.277 2.60127 5.84516 5.92386 5.84516 3.27725 0 5.84518-2.56816 5.84518-5.84516V211.9432h5.4412l13.55966 18.4251c1.41597 1.91558 2.86393 3.19315 5.3332 3.19315 3.18926 0 5.68653-2.39473 5.68653-5.44517 0-1.24268-.42533-2.464-1.23464-3.54523l-11.47838-15.07979m59.08252 12.2981H656.3076v-12.56902h14.72763c3.0506 0 5.44387-2.46087 5.44387-5.59986 0-3.10246-2.39328-5.52746-5.44387-5.52746H656.3076v-12.00797h17.13024c3.05326 0 5.4412-2.46407 5.4412-5.60346 0-3.09739-2.38794-5.5244-5.4412-5.5244h-23.45941c-2.9986 0-5.4412 2.44154-5.4412 5.44254v47.0749c0 3.00148 2.4426 5.44517 5.4412 5.44517h24.26072c3.0506 0 5.4412-2.46503 5.4412-5.6061 0-3.09732-2.3906-5.52434-5.4412-5.52434"/></svg>