<svg xmlns="http://www.w3.org/2000/svg" role="img" viewBox="-19.98 -19.98 1038.96 247.96"><title>chaoss (Associate) logo</title><style>svg {enable-background:new 0 0 1000 208.2}</style><path fill="#231f20" d="M93.4 195.7c-12.9 0-25-2.5-36.3-7.4-11.3-4.9-21.2-11.6-29.6-20.1-8.5-8.3-15.2-18.2-20.1-29.5C2.5 127.4 0 115.4 0 102.5c0-12.9 2.5-24.9 7.4-36.2C12.3 55 19 45.1 27.5 36.7c8.5-8.4 18.3-15.1 29.6-20.1 11.3-4.9 23.4-7.4 36.3-7.4 16.6 0 32 4.1 46.4 12.2 2.8 1.5 4.6 3.7 5.4 6.6.8 2.9.4 5.7-1.1 8.4-1.5 2.8-3.8 4.6-6.8 5.4-3 .8-5.9.4-8.5-1.1-5.4-3.2-11-5.5-16.9-7-5.9-1.5-12.1-2.3-18.5-2.3-9.9 0-19.1 1.9-27.7 5.7-8.6 3.8-16.1 8.8-22.5 15.2-6.4 6.2-11.4 13.8-15.2 22.5-3.8 8.7-5.6 17.9-5.6 27.6 0 9.9 1.9 19.1 5.6 27.7 3.8 8.6 8.8 16.2 15.2 22.6 6.4 6.4 13.8 11.5 22.5 15.3 8.6 3.8 17.9 5.6 27.7 5.6 6.9 0 13.5-1 20-2.9 6.4-1.9 12.5-4.6 18.2-8.2 2.7-1.8 5.5-2.4 8.5-1.8 3 .7 5.3 2.3 7 5 1.7 2.7 2.2 5.5 1.5 8.4-.7 2.9-2.3 5.3-5 7.2-15.4 9.7-32.2 14.4-50.2 14.4zm78.8-185.4c3 0 5.7 1 7.9 3.1 2.3 2.1 3.4 4.7 3.4 7.9V184c0 3-1.1 5.6-3.4 7.8s-4.9 3.3-7.9 3.3c-3.2 0-5.8-1.1-7.9-3.3-2.1-2.2-3.1-4.8-3.1-7.8V21.3c0-3.2 1-5.8 3.1-7.9 2.1-2.1 4.7-3.1 7.9-3.1zm119.5 0c3.2 0 5.8 1 7.9 3.1 2.1 2.1 3.1 4.7 3.1 7.9V184c0 3-1 5.6-3.1 7.8s-4.7 3.3-7.9 3.3c-3 0-5.6-1.1-7.9-3.3-2.3-2.2-3.4-4.8-3.4-7.8v-70.3h-70.8c-3 0-5.6-1-7.8-3.1s-3.3-4.7-3.3-7.8c0-3.1 1.1-5.8 3.3-7.9 2.2-2.2 4.8-3.2 7.8-3.2h70.8V21.3c0-3.2 1.1-5.8 3.4-7.9 2.2-2.1 4.9-3.1 7.9-3.1zM491 187.8c-1 2.8-2.9 4.8-5.8 6.1-2.8 1.3-5.7 1.5-8.5.5s-4.9-2.9-6.3-5.8L450.6 146h-50.5c-3.2 0-5.8-1-7.9-3.1-2.1-2.1-3.1-4.7-3.1-7.9 0-3 1-5.6 3.1-7.8s4.7-3.3 7.9-3.3H440l-35.1-75.3-62 139.8c-1 2.2-2.4 3.8-4.3 4.9-1.8 1.1-3.8 1.6-6 1.6-1.5 0-3-.2-4.5-.8-2.9-1.3-4.8-3.4-5.9-6.3-1.1-2.8-1-5.7.4-8.5l72-161.9c.8-2 2.2-3.6 4-4.8 1.8-1.2 3.8-1.8 6-1.8s4.2.5 6 1.6c1.8 1.1 3.2 2.6 4 4.6l75.8 162.2c1.4 3.1 1.6 5.9.6 8.6zm304.3 9.2H791c-7.9 0-15.7-1.2-23.4-3.5-7.7-2.3-14.7-5.9-20.9-10.7-6.2-4.8-11.2-10.8-15.1-18.2-3.9-7.4-5.8-16.1-5.8-26.1 0-3 1.1-5.6 3.3-7.8 2.2-2.2 4.9-3.3 8-3.3 3 0 5.6 1.1 7.8 3.3 2.2 2.2 3.3 4.8 3.3 7.8 0 5.9 1 10.8 2.9 14.9s4.3 7.5 7.3 10.2c2.9 2.7 6.1 4.8 9.5 6.3 3.4 1.5 6.7 2.6 9.9 3.4 3.2.8 6 1.2 8.4 1.4 2.4.2 4 .2 4.6.2h4.3c4.5 0 9-.8 13.6-2.3 4.5-1.5 8.6-3.6 12.3-6.3 3.7-2.7 6.7-5.8 9-9.4 2.3-3.6 3.5-7.5 3.5-11.7 0-6.7-3.2-12.5-9.7-17.4-6.4-4.9-17.4-9.8-32.8-14.7l-4.5-1.5c-7-2.5-14.2-5.2-21.5-8-7.3-2.8-13.8-6.4-19.6-10.5-5.8-4.2-10.5-9.2-14.2-14.9-3.7-5.8-5.5-12.8-5.5-21.2 0-7 1.6-13.5 4.7-19.5 3.1-5.9 7.4-11.1 13-15.4 5.5-4.3 12.1-7.7 19.6-10.2 7.5-2.4 15.7-3.6 24.4-3.6 4.5 0 9.4.3 14.7.8 5.3.5 10.6 1.6 15.8 3.3 5.3 1.7 10.4 4.1 15.3 7.3s9.3 7.4 13.2 12.8c1 1.5 2.1 3.4 3.3 5.5 1.2 2.2 2.2 4.4 3 6.8.8 2.4 1.6 4.6 2.1 6.8.6 2.2.9 4.1.9 5.8 0 3-1.1 5.6-3.2 7.8s-4.8 3.3-8 3.3c-3 0-5.7-1.1-7.9-3.3-2.2-2.2-3.3-4.8-3.3-7.8-.2-.8-.8-2.6-1.9-5.4-1.1-2.8-2.2-5-3.4-6.7-6.9-9.9-20.5-14.8-40.9-14.8-4.9 0-9.6.6-14.2 1.8-4.6 1.2-8.8 2.9-12.6 5.1-3.8 2.3-6.8 5-9 8.3-2.3 3.3-3.4 7.1-3.4 11.4 0 4.2 1 7.8 3.1 10.9s5.1 5.9 9.1 8.5c3.9 2.6 8.8 5 14.5 7.2 5.7 2.2 12.1 4.5 19.1 7l4.3 1.5c5 1.7 10.9 3.7 17.5 6.1 6.6 2.4 12.9 5.7 18.9 9.8 6 4.1 11 9.2 15.1 15.2s6.2 13.4 6.2 22.1c0 7.5-1.8 14.5-5.4 20.8-3.6 6.4-8.3 11.8-14.1 16.4-5.8 4.6-12.3 8.2-19.5 10.7-7 2.4-14.2 3.7-21.4 3.7zm144.1 0h-4.3c-7.9 0-15.7-1.2-23.4-3.5-7.7-2.3-14.7-5.9-20.9-10.7s-11.2-10.8-15.1-18.2c-3.9-7.4-5.8-16.1-5.8-26.1 0-3 1.1-5.6 3.3-7.8 2.2-2.2 4.9-3.3 8-3.3 3 0 5.6 1.1 7.8 3.3 2.2 2.2 3.3 4.8 3.3 7.8 0 5.9 1 10.8 2.9 14.9s4.3 7.5 7.3 10.2c2.9 2.7 6.1 4.8 9.5 6.3 3.4 1.5 6.7 2.6 9.9 3.4 3.2.8 6 1.2 8.4 1.4 2.4.2 4 .2 4.6.2h4.3c4.5 0 9-.8 13.6-2.3 4.5-1.5 8.6-3.6 12.3-6.3 3.7-2.7 6.7-5.8 9-9.4 2.3-3.6 3.5-7.5 3.5-11.7 0-6.7-3.2-12.5-9.7-17.4-6.4-4.9-17.4-9.8-32.8-14.7l-4.5-1.5c-7-2.5-14.2-5.2-21.5-8-7.3-2.8-13.8-6.4-19.6-10.5-5.8-4.2-10.5-9.2-14.2-14.9-3.7-5.8-5.5-12.8-5.5-21.2 0-7 1.6-13.5 4.7-19.5 3.1-5.9 7.4-11.1 13-15.4 5.5-4.3 12.1-7.7 19.6-10.2 7.5-2.4 15.7-3.6 24.4-3.6 4.5 0 9.4.3 14.7.8 5.3.5 10.6 1.6 15.8 3.3 5.3 1.7 10.4 4.1 15.3 7.3s9.3 7.4 13.2 12.8c1 1.5 2.1 3.4 3.3 5.5 1.2 2.2 2.2 4.4 3 6.8.8 2.4 1.6 4.6 2.1 6.8.6 2.2.9 4.1.9 5.8 0 3-1.1 5.6-3.2 7.8s-4.8 3.3-8 3.3c-3 0-5.7-1.1-7.9-3.3-2.2-2.2-3.3-4.8-3.3-7.8-.2-.8-.8-2.6-1.9-5.4-1.1-2.8-2.2-5-3.4-6.7-6.9-9.9-20.5-14.8-40.9-14.8-4.9 0-9.6.6-14.2 1.8-4.6 1.2-8.8 2.9-12.6 5.1-3.8 2.3-6.8 5-9 8.3-2.3 3.3-3.4 7.1-3.4 11.4 0 4.2 1 7.8 3.1 10.9s5.1 5.9 9.1 8.5c3.9 2.6 8.8 5 14.5 7.2 5.7 2.2 12.1 4.5 19.1 7l4.3 1.5c5 1.7 10.9 3.7 17.5 6.1 6.6 2.4 12.9 5.7 18.9 9.8 6 4.1 11 9.2 15.1 15.2s6.2 13.4 6.2 22.1c0 7.5-1.8 14.5-5.4 20.8-3.6 6.4-8.3 11.8-14.1 16.4-5.8 4.6-12.3 8.2-19.5 10.7-7 2.4-14.2 3.7-21.4 3.7z"/><path fill="#66c9ba" d="M648.4 47.2l-.5.9c1.7 1.4 3.4 2.9 5 4.4 6.6 6.6 11.9 14.3 15.7 23.2.5 1.2 1 2.5 1.5 3.7l.3.9c.4 1 .7 2 1 3.1.1.2.1.5.2.7.3 1.1.6 2.3.9 3.4 0 .1.1.3.1.4.3 1.3.6 2.6.8 3.9h31.1c-.2-1.6-.4-3.2-.6-4.7-.1-.4-.1-.7-.2-1.1-.3-1.5-.5-3.1-.9-4.6 0-.2-.1-.4-.2-.7-1.1-4.8-2.5-9.5-4.2-14.1-.1-.3-.2-.5-.3-.8-.5-1.4-1.1-2.8-1.7-4.2-.1-.3-.3-.7-.4-1-2.7-5.9-5.9-11.6-9.7-16.8l-.6-.9-2.7-3.6c-.2-.2-.3-.4-.5-.6-3.1-3.8-6.5-7.3-10.1-10.7-.2-.1-.3-.3-.5-.5-1.2-1-2.3-2-3.5-3-.3-.2-.6-.5-.9-.7-1.2-1-2.5-2-3.8-2.9l-15.3 26.3z"/><path fill="#009ade" d="M575.9 35.8c1.9-.7 3.8-1.3 5.8-1.9.2 0 .3-.1.5-.1 1.9-.5 3.8-.9 5.7-1.3.3 0 .5-.1.8-.1 1.9-.3 3.8-.6 5.8-.8.2 0 .5 0 .7-.1 2-.2 4.1-.3 6.1-.3 2.1 0 4.1.1 6.1.3.2 0 .5 0 .7.1 1.9.2 3.8.4 5.7.8.3 0 .6.1.8.1 1.9.3 3.8.8 5.6 1.3.2.1.4.1.6.2 1.9.5 3.8 1.1 5.7 1.9l.5-.8 15-26.3c-1.4-.6-2.9-1.2-4.4-1.8-.4-.2-.8-.3-1.2-.5L632.2 5c-.5-.1-.9-.3-1.4-.4-2.6-.8-5.3-1.5-7.9-2.1-.4-.1-.9-.2-1.3-.3-1-.2-2-.4-2.9-.5-1.1-.2-2.1-.4-3.2-.5-.9-.1-1.7-.2-2.6-.3-1.3-.2-2.5-.3-3.8-.4-.7-.1-1.4-.1-2.1-.2-2-.1-4-.2-6-.2s-4 .1-6 .2c-.7 0-1.4.1-2.1.2-1.3.1-2.5.2-3.8.4-.9.1-1.7.2-2.6.3-1.1.2-2.1.3-3.2.5-1 .2-2 .3-2.9.5-.4.1-.9.2-1.3.3-2.6.6-5.3 1.3-7.9 2.1-.5.1-.9.3-1.4.4-1.4.5-2.8.9-4.2 1.5-.4.1-.8.3-1.2.5-1.5.6-2.9 1.2-4.4 1.8L575.4 35l.5.8z"/><path fill="#d50057" d="M537.5 141.6l.8-.7c-.8-1.3-1.5-2.6-2.2-4-.7-1.4-1.4-2.9-2.1-4.3-1-2.2-1.8-4.5-2.5-6.7-.7-2.3-1.3-4.6-1.8-7-1-4.7-1.4-9.6-1.4-14.7 0-5 .5-9.9 1.4-14.6.5-2.4 1.1-4.7 1.8-7s1.6-4.6 2.5-6.8c3.8-8.9 9.1-16.6 15.7-23.2 1.5-1.5 3.1-2.9 4.8-4.3l-.5-.9-15.1-26.2c-.6.4-1.2.9-1.8 1.4-.9.7-1.8 1.4-2.7 2.2l-.1.1c-1.3 1.1-2.6 2.2-3.8 3.4l-1.2 1.2-2.4 2.4c-.5.5-.9 1-1.4 1.5-.7.7-1.4 1.5-2 2.2-.5.5-.9 1.1-1.4 1.7-.6.7-1.2 1.4-1.8 2.2-.5.6-.9 1.2-1.4 1.8-.6.7-1.1 1.4-1.6 2.2-.5.6-.9 1.3-1.3 1.9-.5.7-1 1.4-1.5 2.2-.4.7-.9 1.3-1.3 2-.5.7-.9 1.4-1.3 2.2l-1.2 2.1c-.4.7-.8 1.4-1.2 2.2-.4.7-.8 1.4-1.1 2.2-.4.7-.7 1.4-1 2.1-.4.8-.7 1.5-1.1 2.3l-.9 2.1c-.3.8-.7 1.6-1 2.4-.2.6-.5 1.3-.7 1.9-.3.9-.7 1.8-1 2.7-.2.5-.3.9-.4 1.4-1.7 5.3-2.9 10.7-3.8 16.1 0 .2-.1.5-.1.7-.2 1.2-.3 2.5-.5 3.7 0 .3-.1.6-.1 1-.1 1.2-.2 2.4-.3 3.7 0 .3 0 .7-.1 1-.1 1.2-.1 2.4-.1 3.7V108.7c0 1.3.1 2.5.2 3.8 0 .3 0 .5.1.8.1 1.3.2 2.6.4 3.9 0 .2.1.4.1.6.2 1.4.4 2.8.6 4.1 0 .1 0 .2.1.3 2.3 13.7 7.5 27 15.4 39.2l23.3-19.8z"/><path fill="#c19ade" d="M686 164.2c.8-1.1 1.5-2.2 2.2-3.3.1-.2.2-.3.3-.5.8-1.2 1.5-2.4 2.2-3.6 0-.1.1-.2.1-.2 7-12 11.7-25.5 13.4-39.9h-31.1c-.2 1.3-.5 2.6-.8 3.9 0 .1 0 .2-.1.3-.3 1.2-.6 2.3-.9 3.4-.1.2-.1.4-.2.6-.3 1-.6 2.1-1 3.1-.1.3-.2.5-.3.8-.5 1.2-.9 2.5-1.5 3.7-1 2.2-2 4.3-3.1 6.4-3.4 6.2-7.6 11.8-12.6 16.7-3.3 3.3-6.9 6.2-10.8 8.8-3.9 2.6-8.1 4.9-12.5 6.8-3.3 1.4-6.7 2.6-10.2 3.5-5.8 1.5-11.9 2.2-18.1 2.2-10 0-19.4-1.9-28.2-5.7-2-.9-3.9-1.8-5.7-2.8-.7-.4-1.5-.8-2.2-1.2-1.1-.6-2.1-1.2-3.1-1.9-.9-.6-1.8-1.2-2.6-1.8-.8-.5-1.5-1.1-2.3-1.7-.9-.7-1.9-1.4-2.8-2.2l-.9.7-23.2 19.8c2.1 2.1 4.4 4 6.6 5.8.3.2.6.5.9.8.9.7 1.8 1.3 2.7 2 .5.4 1 .8 1.6 1.1.8.6 1.7 1.2 2.6 1.8.6.4 1.2.8 1.8 1.1.8.5 1.7 1.1 2.6 1.6.6.4 1.3.7 1.9 1.1.8.5 1.7.9 2.5 1.4.7.4 1.4.7 2.1 1 .8.4 1.7.8 2.5 1.2.8.4 1.6.7 2.4 1 .8.3 1.6.7 2.4 1 1.5.6 3.1 1.2 4.6 1.7.7.2 1.4.4 2.1.7 1 .3 1.9.6 2.9.9.7.2 1.5.4 2.2.6 1 .2 1.9.5 2.9.7.8.2 1.5.3 2.3.5l3 .6c.7.1 1.5.2 2.3.4 1.1.2 2.1.3 3.2.4.7.1 1.4.2 2.1.2l3.6.3c.6 0 1.2.1 1.8.1 1.8.1 3.7.1 5.6.1 1.7 0 3.4 0 5.2-.1.6 0 1.1-.1 1.7-.1 1.1-.1 2.3-.1 3.4-.3.7-.1 1.4-.2 2-.2 1-.1 2-.2 3-.4.7-.1 1.4-.2 2.1-.4.9-.2 1.9-.3 2.8-.5.7-.1 1.5-.3 2.2-.5l2.7-.6c.7-.2 1.5-.4 2.2-.6.8-.2 1.7-.5 2.5-.7.8-.2 1.5-.5 2.2-.7.8-.3 1.6-.5 2.4-.8.7-.3 1.5-.5 2.2-.8.8-.3 1.5-.6 2.3-.9.8-.3 1.5-.6 2.2-.9.7-.3 1.5-.6 2.2-1 .8-.4 1.5-.7 2.3-1.1.7-.3 1.3-.7 2-1 .8-.4 1.6-.8 2.3-1.2.6-.3 1.2-.7 1.7-1 .8-.5 1.7-.9 2.5-1.4.4-.3.8-.5 1.2-.8 4.7-3 9.1-6.3 13.2-9.9.2-.2.4-.3.6-.5.9-.8 1.8-1.7 2.7-2.6l.7-.7 2.6-2.6c.2-.3.5-.5.7-.8l2.4-2.7c.2-.3.5-.5.7-.8.8-.9 1.6-1.9 2.3-2.9.2-.3.4-.5.6-.8.8-1 1.5-2 2.3-3 .4-.2.6-.5.7-.7z"/></svg>