<svg xmlns="http://www.w3.org/2000/svg" role="img" viewBox="-5.00 -4.50 338.00 113.75"><title>China Mobile (Adopter) logo</title><defs><style>.cls-1{fill:#0081cc}</style></defs><path d="M167.48012 17.14855h-18.13145V8.35442h-4.77156v8.79413h-17.9646v24.80051h17.9646v13.49207h4.77156V41.94906h18.13145zm-36.20079 20.42762V21.52642h13.29778v16.04975zm31.53908 0h-13.46974V21.52642h13.46974zm15.81183-27.63834V54.0085h41.50431V9.93783zM215.55984 49.83h-32.492V14.24962h32.492z" class="cls-1"/><path d="M201.424 41.863v-9.662h10.007v-4.143h-10.007V22.01h10.863v-4.14h-26.166v4.14h10.91v6.048h-10.056v4.143h10.056v9.662h-11.635v4.142h27.616v-4.142h-11.588z" class="cls-1"/><path d="M207.66637 41.37715L211.253 38.523c-1.8762-2.19882-5.33823-6.06831-5.33823-6.06831l-3.34007 2.52642a64.58771 64.58771 0 0 1 5.09167 6.39604zm37.81418-2.17764l3.0473-3.56549-7.7016-6.54186v-2.255h6.45957V22.695h-6.45957v-6.6539c2.98873-.74757 6.60908-1.44015 6.60908-1.44015l-.92195-4.4215c-3.90816 1.26207-16.89568 2.64111-16.89568 2.64111l.6353 4.36907 6.03221-.97669v6.482h-7.29045v4.14224h6.82456a57.59935 57.59935 0 0 1-7.63935 15.407l3.33624 3.62034a82.98657 82.98657 0 0 0 4.769-8.98115v18.52421h4.541V34.73949z" class="cls-1"/><path d="M263.47755 32.13078a21.35494 21.35494 0 0 0 1.0503-2.18517l-4.3031-.699c.64907-.36256 1.27826-.73251 1.885-1.13118 8.62727-5.67092 11.47262-12.01836 11.47262-12.01836v-3.791h-14.86246a27.92735 27.92735 0 0 0 1.58584-2.87278l-4.308-1.67067a38.13373 38.13373 0 0 1-10.4051 12.87679l3.73619 2.87278a69.79038 69.79038 0 0 0 6.45829-7.07h12.68a25.123 25.123 0 0 1-6.91309 6.94039l-5.61481-4.64436-2.93273 3.04972 4.70547 3.973a55.05247 55.05247 0 0 1-11.19859 4.58963l2.874 3.6178a102.514 102.514 0 0 0 9.8295-4.1735 30.66056 30.66056 0 0 1-5.81288 7.04623 38.25422 38.25422 0 0 1-7.90343 5.56262l3.39225 3.39365a42.47345 42.47345 0 0 0 11.72559-9.49322h9.50059a15.73341 15.73341 0 0 1-7.42261 10.02137l-5.12517-5.002-3.22667 2.64494s2.88656 2.722 4.40262 4.38769a44.36448 44.36448 0 0 1-14.23578 3.06985l1.94713 3.83581c9.27507-.72129 15.53908-3.27271 19.89691-6.58663a24.94917 24.94917 0 0 0 8.9823-12.50544v-4.03896zM283.429 12.716h19.655v4.398h-19.655zm15.85081 35.64773l4.50238-1.74914c-.94926-2.29985-5.45419-12.25131-5.45419-12.25131l-4.14607 1.80144c1.15121 2.41441 2.301 5.13028 3.21544 7.38765-2.05556.47342-7.44124 1.73293-10.116 2.61241a57.5518 57.5518 0 0 0 3.70007-8.7505c1.96473-5.40686 2.296-7.02765 3.0797-8.04924h10.7202v-4.39892h-23.29926V29.365h7.50235a79.511 79.511 0 0 1-3.62661 11.13876 30.168 30.168 0 0 1-3.92932 7.3092l1.10387 3.44966s11.78415-3.57047 16.32888-4.00281c.26905.69403.41856 1.10392.41856 1.10392z" class="cls-1"/><path d="M314.07758 18.11159l.20181-9.69492H309.331s0 4.32416.05613 9.69492h-6.08337v4.40274h6.1307c.03483 3.37987-.05856 6.85938-.25424 9.25134a32.04231 32.04231 0 0 1-1.3006 7.79882 22.27412 22.27412 0 0 1-9.55162 13.14712l3.55184 3.35C314.5797 47.91276 313.8297 29.7637 313.8297 29.7637l.15449-7.24937h7.89463l-.94925 23.9482a2.70981 2.70981 0 0 1-2.90277 2.853h-5.49653l.89822 4.74654h5.20376c6.69878 0 6.94665-6.847 6.94665-6.847l1.05029-29.10348zM174.573 73.036h3.713v18.702h-3.713zm0-7.484h3.713v4.185h-3.713zm121.283 7.484h3.715v18.702h-3.715zm7.714-9.503h3.714v28.205h-3.714zm-7.714 2.019h3.715v4.185h-3.715zm-129.5207 7.20094s-4.36779-1.1262-7.2694 2.19015V63.5377h-3.71743V91.738h3.71743V78.94589a5.43859 5.43859 0 0 1 5.99611-3.0834s1.966.31893 1.966 3.60542V91.738h3.77228V79.58375s.48082-5.5949-4.46499-6.83081zm26.68779 0s-4.54843-1.1623-7.44749 2.42067l-.58427-2.2126h-2.83668V91.733h3.58667V79.098l-.005-.03993c.68149-1.14865 2.63116-3.74983 6.01474-3.19554 0 0 1.966.31893 1.966 3.60542V91.738h3.76973V79.58375s.48221-5.5949-4.4637-6.83081zm17.90234.32276c-4.44254-1.62335-9.23769.5793-9.23769.5793v3.44213s9.85807-4.40887 9.85807 3.36l-.0398.19315s-5.3719-1.62335-8.34572.19186a6.05311 6.05311 0 0 0-2.554 7.734 6.288 6.288 0 0 0 5.83665 3.62774 10.36463 10.36463 0 0 0 5.21754-2.00695l.309 1.54476h3.20791V79.80177s.41486-5.02185-4.25196-6.72607zm.46092 13.91318a7.47423 7.47423 0 0 1-4.94339 1.89367 2.7131 2.7131 0 0 1-2.58995-3.208c.46333-3.13073 4.36778-2.89766 7.53334-1.85374zM239.066 84.832l-7.98-19.154h-5.06v26.055h3.761V71.882l8.336 19.851h1.836l8.338-19.713v19.713h3.809V65.678h-5.02l-8.02 19.154zm25.22507-12.31825a9.7679 9.7679 0 1 0 9.72617 9.766 9.743 9.743 0 0 0-9.72617-9.766zm0 16.26419a6.48089 6.48089 0 1 1 6.4384-6.482 6.45831 6.45831 0 0 1-6.4384 6.482zm24.06672-15.45807a7.152 7.152 0 0 0-8.07169 1.02771V63.63733h-3.806v28.14045h2.91271l.4946-1.65689a7.11379 7.11379 0 0 0 4.61326 2.10911 7.93424 7.93424 0 0 0 5.91894-2.64366 11.25529 11.25529 0 0 0 2.55015-5.42548c.35005-2.89886.28024-8.48768-4.61197-10.84099zm-3.58424 15.59253c-3.406.07859-4.52981-2.10543-4.52981-2.10543v-9.09941a6.29046 6.29046 0 0 1 4.43757-1.87862c2.777 0 4.07756 2.19257 4.43515 5.42178.35886 3.22411-.4946 7.572-4.34291 7.66168zm39.4462-13.63533a7.01563 7.01563 0 0 0-5.77554-2.67862 8.32788 8.32788 0 0 0-5.31844 1.98833 9.35581 9.35581 0 0 0-2.62364 4.31178c-1.64822 6.56546 1.31807 10.15966 1.31807 10.15966 1.45138 1.9609 4.35784 2.98121 6.64392 3.1158a14.93838 14.93838 0 0 0 6.88438-1.191v-3.19426c-11.60236 4.0389-11.74064-4.36664-11.74064-4.36664H326.142c.13331-4.01901-.74119-6.54301-1.92225-8.14505zM313.943 80.1619s.77-4.333 4.46882-4.333c3.69511 0 3.82957 4.333 3.82957 4.333zm-174.06128 8.29826a9.95081 9.95081 0 1 1 8.56119-14.85007h3.9505a13.46606 13.46606 0 1 0 .05855 9.59656h-3.88952a9.83824 9.83824 0 0 1-8.68072 5.25351z" class="cls-1"/><path fill="#9dc815" d="M5.46338 36.50355S15.68771 50.002 26.95366 58.98047a6.61605 6.61605 0 0 0 8.83151-.492c4.56718-4.11992 23.42631-21.291 23.42631-21.291s7.09743-7.05125 15.03951-.051c0 0 16.67638 14.84267 25.807 27.2958a.94677.94677 0 0 1 .09836 1.242c-.44727.7949-1.33925 2.97879-1.33925 2.97879S88.7908 55.70775 77.22965 46.12868c0 0-4.51858-3.42351-8.39177.19939-3.86949 3.62277-22.2316 20.40019-25.158 22.5342-2.92891 2.13287-7.74766 4.35044-14.59225-1.7379C23.74945 62.3791 9.77133 49.16105 4.27237 40.8203a1.13736 1.13736 0 0 1-.09963-1.34179c.47584-1.07632 1.29064-2.97496 1.29064-2.97496z"/><path d="M7.55261 32.42356l5.82912 6.42832s.73124.93561 2.09791-.24787c1.368-1.18233 19.35627-18.64494 26.21195-23.55337a24.74842 24.74842 0 0 1 12.84057-4.94709 22.99311 22.99311 0 0 1 11.332 1.9447c4.39267 1.9734 11.08276 7.3851 17.3654 13.89328a161.02431 161.02431 0 0 1 12.56529 14.61215c2.5078 3.33382 4.91226 6.68755 6.7461 9.61888a17.629 17.629 0 0 0-1.78408-7.48984 112.42111 112.42111 0 0 0-21.67093-27.27335C77.68572 14.12 65.463 1.87737 53.5866 2.14272A33.32582 33.32582 0 0 0 32.43515 9.807c-1.66188 1.36789-19.3536 16.62543-24.88254 22.61656z" class="cls-1"/><path d="M20.11405 45.96921l6.63154 6.406a2.48554 2.48554 0 0 0 3.27144-.48962s6.36364-6.22906 11.8154-11.21977c5.14266-4.70675 10.319-9.53673 12.25-10.91577 0 0 8.33322-8.651 18.95506-.22555a171.52319 171.52319 0 0 1 28.6737 30.76166l.47456-2.28608a4.56691 4.56691 0 0 0-.74119-3.6627S90.312 37.9076 76.59307 26.09232c0 0-6.83323-7.22577-15.57021-9.0309a17.72833 17.72833 0 0 0-14.0627 3.66142c-3.35869 2.63741-10.65794 9.437-16.74131 15.23011-5.65218 5.37943-10.1048 10.01626-10.1048 10.01626zm76.54038 26.75758L90.829 66.29847s-.73507-.93688-2.10046.24787c-1.3654 1.18233-19.35 18.64864-26.207 23.55209a24.78212 24.78212 0 0 1-12.84181 4.94837 23.03663 23.03663 0 0 1-11.33191-1.94712c-4.39394-1.971-11.08021-7.38281-17.36284-13.88716A160.03255 160.03255 0 0 1 8.41971 64.59667c-2.514-3.33255-4.91723-6.68882-6.74865-9.619a17.64222 17.64222 0 0 0 1.78281 7.48983 112.35861 112.35861 0 0 0 21.67335 27.27335c1.39665 1.28694 13.62181 13.53456 25.49807 13.25926a33.277 33.277 0 0 0 21.14775-7.658c1.6657-1.36921 19.3587-16.62419 24.88139-22.61532z" class="cls-1"/><path d="M84.09414 59.17986l-6.63269-6.406a2.483 2.483 0 0 0-3.269.49089S67.83249 59.49381 62.37958 64.482C57.23693 69.1937 52.063 74.02 50.12827 75.39915c0 0-8.33449 8.6496-18.95136.2267a171.68078 171.68078 0 0 1-28.6774-30.76039l-.47457 2.28481a4.56522 4.56522 0 0 0 .73877 3.66015S13.90005 67.24275 27.61639 79.058c0 0 6.83451 7.22322 15.57519 9.02963A17.71656 17.71656 0 0 0 57.248 84.42751c3.36255-2.63741 10.6618-9.43824 16.74759-15.23011 5.6472-5.37815 10.09855-10.01754 10.09855-10.01754z" class="cls-1"/></svg>