<svg xmlns="http://www.w3.org/2000/svg" role="img" viewBox="-14.99 -14.99 779.48 162.48"><title>Debricked License Compliance logo</title><style>svg {enable-background:new 0 0 749.6 132.9}</style><style>.st0{enable-background:new}</style><path d="M68 118.8h-.8c-6.5 9.4-16.1 14.1-29 14.1-12.1 0-21.5-4.1-28.2-12.4-6.6-8.3-10-20-10-35.3 0-15.2 3.4-27 10.1-35.5s16.1-12.6 28.2-12.6c12.5 0 22.1 4.6 28.8 13.7h1.1l-.6-6.7-.3-6.5V0h14v131.2H69.9L68 118.8zm-28 2.3c9.6 0 16.5-2.6 20.8-7.8 4.3-5.2 6.4-13.6 6.4-25.2v-3c0-13.1-2.2-22.4-6.5-28-4.4-5.6-11.3-8.4-20.9-8.4-8.2 0-14.5 3.2-18.8 9.6-4.4 6.4-6.5 15.4-6.5 27 0 11.8 2.2 20.7 6.5 26.7 4.3 6.1 10.7 9.1 19 9.1zm110 11.8c-13.7 0-24.4-4.2-32.3-12.5-7.9-8.3-11.8-19.9-11.8-34.6 0-14.9 3.7-26.7 11-35.5s17.2-13.2 29.5-13.2c11.6 0 20.7 3.8 27.5 11.4 6.7 7.6 10.1 17.7 10.1 30.1v8.9h-63.6c.3 10.8 3 19.1 8.2 24.7 5.2 5.6 12.5 8.4 22 8.4 9.9 0 19.8-2.1 29.5-6.2v12.5c-4.9 2.1-9.6 3.7-14 4.6-4.6.9-9.9 1.4-16.1 1.4zm-3.8-84.1c-7.4 0-13.3 2.4-17.7 7.2-4.4 4.8-7 11.5-7.8 20.1H169c0-8.8-2-15.6-5.9-20.3-4-4.6-9.6-7-16.9-7z" class=""/><path d="M247 37.8c12.8 0 22.5 4 29 12.1s9.7 19.9 9.7 35.4c0 15.2-3.4 27-10.2 35.2-6.8 8.3-16.4 12.4-28.8 12.4-6.5 0-12.4-1.3-17.6-4-5.2-2.7-9.4-6.5-12.4-11.5h-.8l-2.4 13.8h-5.2V0h8.3v33c0 4.9-.1 9.5-.3 13.7l-.3 7.2h.6c3.5-5.5 7.7-9.6 12.6-12.1 5-2.7 10.9-4 17.8-4zm-.2 7.6c-10.8 0-18.5 3.1-23.2 9.3-4.7 6.2-7 16.4-7 30.6v1.4c0 13.8 2.4 23.7 7.3 29.8 4.9 6 12.4 9 22.7 9 10 0 17.5-3.5 22.6-10.5 5.1-7 7.6-17 7.6-29.9 0-26.5-10-39.7-30-39.7zm100.3-7.6c3.9 0 8 .4 12.5 1.2l-1.6 8c-3.8-1-7.8-1.4-11.9-1.4-7.8 0-14.2 3.3-19.2 9.9-5 6.6-7.5 15-7.5 25.1v50.6h-8.3V39.5h7.1L319 56h.6c3.8-6.7 7.8-11.5 12.1-14.2 4.2-2.7 9.4-4 15.4-4zm30-23.7c0-5.4 1.8-8.1 5.3-8.1 1.7 0 3.1.7 4.1 2.1 1 1.4 1.5 3.4 1.5 6 0 2.5-.5 4.5-1.5 6s-2.3 2.2-4.1 2.2c-3.6 0-5.3-2.8-5.3-8.2zm9.5 117.1h-8.3V39.5h8.3v91.7zm67.3 1.7c-13.1 0-23.4-4.1-30.8-12.4-7.4-8.3-11.1-19.8-11.1-34.6 0-15.2 3.8-27 11.5-35.4 7.7-8.5 18.2-12.7 31.6-12.7 7.9 0 15.5 1.4 22.8 4.1l-2.3 7.4c-7.9-2.6-14.8-4-20.7-4-11.2 0-19.8 3.5-25.5 10.4-5.8 6.9-8.7 16.9-8.7 30 0 12.4 2.9 22 8.7 29 5.8 7 13.9 10.5 24.3 10.5 8.3 0 16-1.5 23.2-4.5v7.8c-5.9 2.9-13.5 4.4-23 4.4zM507.5 91l46.8-51.4h10.1l-36.1 39.1 39.2 52.5h-10l-34.8-46.3-15 13.7v32.6h-8.3V0h8.3v65.8l-.6 25.2h.4zm112.4 41.9c-13.3 0-23.7-4.1-31.1-12.3-7.4-8.2-11.2-19.7-11.2-34.5 0-14.6 3.6-26.3 10.8-35.1 7.2-8.8 16.9-13.2 29.1-13.2 10.8 0 19.3 3.8 25.5 11.3 6.2 7.5 9.4 17.8 9.4 30.7v6.7h-66c.1 12.6 3 22.2 8.8 28.8 5.8 6.6 14 9.9 24.7 9.9 5.2 0 9.8-.4 13.8-1.1 4-.7 9-2.3 15-4.7v7.6c-5.2 2.2-9.9 3.8-14.3 4.6-4.4.8-9.3 1.3-14.5 1.3zm-2.5-87.7c-8.8 0-15.9 2.9-21.2 8.7-5.3 5.8-8.5 14.2-9.4 25.2h56.6c0-10.6-2.3-18.9-6.9-24.9-4.6-6-10.9-9-19.1-9zm93.8-7.4c6.6 0 12.4 1.2 17.2 3.6 4.8 2.4 9.2 6.5 13 12.4h.5c-.3-7.1-.5-14-.5-20.8V0h8.3v131.2h-5.5l-2.1-14h-.7c-7 10.5-17 15.7-30 15.7-12.6 0-22.3-3.9-29-11.8-6.7-7.9-10-19.3-10-34.4 0-15.8 3.3-28 9.9-36.3 6.6-8.4 16.2-12.6 28.9-12.6zm0 7.6c-10 0-17.5 3.5-22.5 10.5s-7.5 17.2-7.5 30.6c0 26 10.1 38.9 30.3 38.9 10.3 0 17.9-3 22.8-9 4.8-6 7.2-15.9 7.2-29.8v-1.4c0-14.2-2.4-24.3-7.1-30.6-4.9-6.1-12.6-9.2-23.2-9.2z" class=""/></svg>