<svg xmlns="http://www.w3.org/2000/svg" role="img" viewBox="-8.59 -8.59 446.68 262.93"><title>Dell Technologies (Member) logo</title><path fill="#3d70c0" d="M28.79928 110.20906v-76.3981h22.5989c19.10886 0 34.59967 17.10225 34.59967 38.19905 0 21.0968-15.49081 38.19905-34.59967 38.19905zm22.5989 25.19923c29.50393 0 54.29971-20.1531 61.37447-47.444l71.7334 56.04379 71.68755-56.00913v47.40934h81.79795v-25.19923h-52.99867V8.6116H256.1936v47.40948l-68.76495 53.72532-15.37828-12.0157 32.9205-25.72069 35.84444-28.00463-20.46482-15.98893-68.76628 53.72532-15.37828-12.0157 68.76495-53.72532L184.50605.0118l-71.7334 56.04394C105.69789 28.76576 80.9021 8.6116 51.39818 8.6116H0v126.7967zm378.19108-25.19923v25.19923H347.7913V8.6116h28.79928v101.59747h52.99868"/><path fill="#7a7b7c" d="M45.49366 172.57817v-2.529l-.84118-.84172H.8453L0 170.04916v2.529l.8453.84118h18.53182l.8417.84158v53.07481l.84519.84105h3.36978l.84158-.84105v-53.0748l.84118-.84159h18.53593zm22.69944 32.0112H42.92133l-.84118-.84265c0-5.89732 3.36978-14.32098 13.47526-14.32098 10.11268 0 13.48246 8.42366 13.48246 14.32098zm5.05667 4.21456l.84478-.84532v-2.52553c0-11.79544-6.74263-20.2219-18.53914-20.2219-11.78877 0-18.53127 8.42646-18.53127 20.2219v1.68436c0 11.79143 5.89719 21.90051 19.37712 21.90051 11.79184 0 16.0032-7.581 16.8485-12.63661l-.8453-.84172h-3.36659l-.84477.84172c-1.68276 5.0556-5.05295 8.42632-11.79184 8.42632-10.95133 0-14.32111-10.10921-14.32111-15.16269l.84118-.84104zm9.2679-1.6865c0-11.79703 5.89412-17.69169 14.32058-17.69169 8.42219 0 11.79183 5.05294 12.63355 10.10642l.84158.84531h3.37338l.84158-.84531c-.84158-8.4226-7.58515-14.32098-17.6901-14.32098-10.95079 0-19.37404 6.74357-19.37404 21.90626 0 15.16215 8.42325 21.90051 19.37405 21.90051 10.10494 0 16.8485-5.89731 17.69009-14.3195l-.84158-.84105h-3.37338l-.84158.84105c-.84172 5.052-4.21136 10.10921-12.63355 10.10921-8.42646 0-14.32058-5.89879-14.32058-17.69022m72.44512 20.21829v-25.2755c0-10.95066-5.89852-16.84905-15.16229-16.84905-5.89851 0-10.95159 2.5318-13.4802 6.74357h-.84117v-21.90559l-.84158-.84171h-3.36978l-.84531.84171v57.28657l.8453.84105h3.3698l.84157-.84105v-22.74636c0-9.26897 4.21496-15.16363 13.47873-15.16363 6.73983 0 10.95173 4.2119 10.95173 12.63449v25.2755l.8413.84105h3.37326zm42.96426 0v-25.2755c0-10.95066-5.89452-16.84905-15.16095-16.84905-5.89852 0-10.95573 2.5318-13.47967 6.74357h-.8453l-.83732-5.05974-.84531-.84265h-2.52927l-.84131.84265v40.44072l.8413.84105h3.37459l.83731-.84105v-22.74636c0-9.26897 4.21456-15.16363 13.47833-15.16363 6.74117 0 10.95173 4.2119 10.95173 12.63449v25.2755l.84531.84105h3.36925zm24.43006 1.68222c10.95039 0 19.37685-7.581 19.37685-21.90051 0-14.32098-8.42646-21.90626-19.37685-21.90626-10.9504 0-19.37685 7.58528-19.37685 21.90626 0 14.3195 8.42645 21.90051 19.37685 21.90051m0-39.5922c8.42245 0 14.32097 6.73983 14.32097 17.69169 0 10.95025-5.89852 17.69022-14.32097 17.69022-8.42513 0-14.32364-6.73997-14.32364-17.69022 0-10.95186 5.89851-17.6917 14.32364-17.6917m30.32457 37.90999v-57.28657l-.8413-.84171h-3.3706l-.84397.84171v57.28657l.84398.84105h3.37058zm25.27537 1.68222c10.9504 0 19.37285-7.581 19.37285-21.90051 0-14.32098-8.42246-21.90626-19.37285-21.90626-10.9544 0-19.37818 7.58528-19.37818 21.90626 0 14.3195 8.42379 21.90051 19.37818 21.90051m0-39.5922c8.42246 0 14.31698 6.73983 14.31698 17.69169 0 10.95025-5.89452 17.69022-14.31698 17.69022-8.42646 0-14.32497-6.73997-14.32497-17.69022 0-10.95186 5.89851-17.6917 14.32497-17.6917m54.75463 32.85385c0 10.95022-2.52927 19.3771-12.63835 19.3771-7.58114 0-10.10908-3.37075-10.9504-7.58158l-.8413-.8453h-3.37059l-.8413.8453c.8413 6.7389 5.89451 11.79189 16.0036 11.79189 10.95438 0 17.69022-6.73994 17.69022-23.58741v-35.38458l-.84132-.84265h-2.52793l-.84132.84265-.8413 5.05974h-.84532c-1.68396-3.37018-5.89452-6.74357-13.47966-6.74357-11.7917 0-17.69023 9.2675-17.69023 21.90626 0 12.63301 5.89852 21.90051 17.69023 21.90051 7.58514 0 11.7957-3.36658 13.47966-6.73836zm-13.47566 2.52807c-8.42646 0-13.48366-5.89879-13.48366-17.69022 0-11.79704 5.0572-17.6917 13.48366-17.6917 8.41846 0 13.47566 5.89466 13.47566 17.6917 0 11.79143-5.0572 17.69022-13.47566 17.69022m32.0072-46.33484v-5.05348l-.84131-.84117h-3.37059l-.8413.84117v5.05348l.8413.84371h3.37059zm0 48.86291v-40.44072l-.84131-.84265h-3.37059l-.8413.84265v40.44072l.8413.84105h3.37059zm37.06707-22.74636h-25.27137l-.8453-.84265c0-5.89732 3.37057-14.32098 13.47965-14.32098 10.10909 0 13.47833 8.42366 13.47833 14.32098zm5.0572 4.21456l.83732-.84532v-2.52553c0-11.79544-6.73983-20.2219-18.53154-20.2219-11.79303 0-18.53287 8.42646-18.53287 20.2219v1.68436c0 11.79143 5.89852 21.90051 19.37819 21.90051 11.7917 0 16.0036-7.581 16.8489-12.63661l-.8453-.84172h-3.37059l-.8413.84172c-1.68663 5.0556-5.05588 8.42632-11.79171 8.42632-10.9544 0-14.32498-10.10921-14.32498-15.16269l.84531-.84104zm36.22177 8.42259c0-7.58155-4.21456-10.95173-12.64102-12.63715-8.42379-1.68383-13.47566-2.52914-13.47566-8.4238 0-4.21082 3.37058-6.73983 9.26777-6.73983 7.58114 0 10.11041 3.37072 10.11041 7.58101l.83998.84265h3.37058l.84532-.84265c0-8.42218-6.74384-11.79557-15.1663-11.79557-9.26776 0-14.32097 5.05721-14.32097 10.9544 0 6.73996 5.05321 10.10921 13.47567 11.79303 8.42645 1.68636 12.63701 2.52807 12.63701 9.2679 0 4.21043-2.52393 7.58115-10.95039 7.58115-7.58114 0-10.95173-4.21603-10.95173-9.26804l-.83997-.84117h-3.37059l-.84131.84117c0 7.58102 5.89452 13.47833 16.0036 13.47833 10.9504 0 16.0076-5.052 16.0076-11.79143"/></svg>