<svg xmlns="http://www.w3.org/2000/svg" role="img" xmlns:xlink="http://www.w3.org/1999/xlink" viewBox="98.34 70.34 304.58 359.58"><title>Docsy logo</title><style>svg {enable-background:new 0 0 500 500}</style><path fill="#fff" d="M116.8525 421.9722c-5.7041 0-10.3442-4.3127-10.3442-9.6129V88.183c0-5.3002 4.6401-9.6117 10.3442-9.6117H320.858c3.0347 0 9.3959.5498 11.7506 2.6302l.3545.3442 58.905 63.2912c2.3101 2.491 2.9202 8.4928 2.9202 11.3184v256.2039c0 5.3002-4.6407 9.6129-10.3436 9.6129H116.8525z"/><path fill="#767676" d="M384.4445 423.2066H116.852c-6.3839 0-11.5786-4.8658-11.5786-10.8474V88.1831c0-5.9804 5.1947-10.8461 11.5786-10.8461h204.0062c.377 0 9.2786.0329 12.568 2.9389l.3947.3833 58.9508 63.337c3.2135 3.4652 3.2514 11.7924 3.2514 12.1593v256.2036c0 5.9817-5.1947 10.8475-11.5786 10.8475zm-267.9366-11.2877c.0848.0278.1999.0531.3441.0531h267.5925c.1442 0 .2581-.0253.3441-.0531V156.1556c-.0076-.9033-.3593-3.7347-.7034-5.0037l-57.6527-61.9416c-1.4651-.3176-4.4533-.6389-5.5742-.6389H116.852c-.143 0-.2594.024-.3441.0531v323.2944zm267.4533-261.149zM327.0321 89.371v.0013-.0013z"/><path fill="#5b7fc0" d="M189.0874 210.1754l.0012-.0012c7.7751.0012 15.0295 4.1862 18.932 10.9234 1.9177 3.3159 2.9305 7.1011 2.9293 10.9378 0 5.8394-2.2733 11.3304-6.4032 15.4604-4.1288 4.1288-9.6186 6.4032-15.458 6.4032s-11.328-2.2733-15.458-6.4032-6.4032-9.6186-6.4056-15.4628c.0012-6.025 2.454-11.4897 6.4116-15.4473 3.9586-3.9587 9.4234-6.4115 15.4507-6.4103zm7.993 21.8576c.0012-1.4042-.3687-2.7868-1.063-3.9887-1.4293-2.4684-4.0833-3.9995-6.9299-4.0019-4.4077.0024-7.993 3.5877-7.993 7.993 0 2.1356.832 4.1431 2.3427 5.6539 1.5083 1.5083 3.5159 2.3403 5.6503 2.3415 2.1356 0 4.1443-.8308 5.6539-2.3403s2.3402-3.5183 2.339-5.6575z"/><path fill="#fff" d="M189.0898 210.176c7.7763 0 15.0283 4.1826 18.926 10.9151 1.9201 3.3136 2.9377 7.0988 2.9353 10.9462.0024 12.0643-9.8065 21.8636-21.8613 21.8613-12.0547.0024-21.8636-9.8066-21.8612-21.8613 0-6.0285 2.4516-11.4921 6.4116-15.452 3.9575-3.9577 9.421-6.4093 15.4496-6.4093zm7.9941 21.8612c0-1.4078-.3711-2.7892-1.0702-3.9959-1.4269-2.466-4.0797-3.9983-6.924-3.9983-4.4005-.0048-7.9918 3.5817-7.9942 7.9942.0024 4.4077 3.5865 7.9918 7.9942 7.9942 2.2027 0 4.2018-.8978 5.6479-2.3439 1.4485-1.4485 2.3463-3.4476 2.3463-5.6503z" opacity=".3"/><defs><path id="a" d="M194.7376 237.6875c-1.4461 1.4461-3.4452 2.3439-5.6479 2.3439-4.4077-.0024-7.9918-3.5865-7.9942-7.9942.0024-4.4125 3.5937-7.999 7.9942-7.9942 2.8443 0 5.497 1.5323 6.924 3.9983.6991 1.2067 1.0702 2.5881 1.0702 3.9959 0 2.2027-.8978 4.2018-2.3463 5.6503z"/></defs><clipPath id="b"><use overflow="visible" xlink:href="#a"/></clipPath><path fill="#fff" d="M190.0704 225.0237c-4.4005-.0048-7.9918 3.5817-7.9942 7.9942.0011 1.9546.7088 3.7452 1.8782 5.1354-1.7447-1.4674-2.8575-3.663-2.8588-6.116.0024-4.4125 3.5936-7.999 7.9942-7.9942 2.3802-.0001 4.616 1.0833 6.1218 2.8788-1.4231-1.1972-3.2342-1.8982-5.1412-1.8982z" clip-path="url(#b)"/><path fill="#020202" d="M190.0704 225.0237c-4.4005-.0048-7.9918 3.5817-7.9942 7.9942.0011 1.9546.7088 3.7452 1.8782 5.1354-1.7447-1.4674-2.8575-3.663-2.8588-6.116.0024-4.4125 3.5936-7.999 7.9942-7.9942 2.3802-.0001 4.616 1.0833 6.1218 2.8788-1.4231-1.1972-3.2342-1.8982-5.1412-1.8982z" clip-path="url(#b)" opacity=".13"/><g><defs><path id="c" d="M189.0898 210.176c7.7763 0 15.0283 4.1826 18.926 10.9151 1.9201 3.3136 2.9377 7.0988 2.9353 10.9462.0024 12.0643-9.8065 21.8636-21.8613 21.8613-12.0547.0024-21.8636-9.8066-21.8612-21.8613 0-6.0285 2.4516-11.4921 6.4116-15.452 3.9575-3.9577 9.421-6.4093 15.4496-6.4093zm7.9941 21.8612c0-1.4078-.3711-2.7892-1.0702-3.9959-1.4269-2.466-4.0797-3.9983-6.924-3.9983-4.4005-.0048-7.9918 3.5817-7.9942 7.9942.0024 4.4077 3.5865 7.9918 7.9942 7.9942 2.2027 0 4.2018-.8978 5.6479-2.3439 1.4485-1.4485 2.3463-3.4476 2.3463-5.6503z"/></defs><clipPath id="d"><use overflow="visible" xlink:href="#c"/></clipPath><path fill="#5b7fc0" d="M172.6595 215.6045c-3.96 3.96-6.4116 9.4235-6.4116 15.452-.0024 12.0547 9.8066 21.8636 21.8613 21.8612 12.0547.0024 21.8636-9.797 21.8613-21.8612.0024-3.8475-1.0151-7.6326-2.9353-10.9462-3.8977-6.7324-11.1497-10.9151-18.926-10.9151-6.0286.0001-11.4921 2.4518-15.4497 6.4093z" clip-path="url(#d)"/></g><path fill="#5b7fc0" d="M198.895 225.104h122.627v13.867H198.895z"/><g><path fill="#d95140" d="M189.0874 155.7611l.0012-.0012c7.7751.0012 15.0295 4.1862 18.932 10.9234 1.9177 3.3159 2.9305 7.1011 2.9293 10.9378 0 5.8394-2.2733 11.3304-6.4032 15.4604-4.1288 4.1288-9.6186 6.4032-15.458 6.4032s-11.328-2.2733-15.458-6.4032-6.4032-9.6186-6.4056-15.4628c.0012-6.0249 2.454-11.4897 6.4116-15.4473 3.9586-3.9586 9.4234-6.4115 15.4507-6.4103zm7.993 21.8577c.0012-1.4042-.3687-2.7868-1.063-3.9887-1.4293-2.4684-4.0833-3.9995-6.9299-4.0019-4.4077.0024-7.993 3.5877-7.993 7.993 0 2.1356.832 4.1431 2.3427 5.6539 1.5083 1.5083 3.5159 2.3403 5.6503 2.3415 2.1356 0 4.1443-.8308 5.6539-2.3403 1.5094-1.5096 2.3402-3.5183 2.339-5.6575z"/><path fill="#fff" d="M189.0898 155.7617c7.7763 0 15.0283 4.1826 18.926 10.9151 1.9201 3.3135 2.9377 7.0987 2.9353 10.9462.0024 12.0643-9.8065 21.8636-21.8613 21.8613-12.0547.0024-21.8636-9.8066-21.8612-21.8613 0-6.0285 2.4516-11.4921 6.4116-15.452 3.9575-3.9576 9.421-6.4093 15.4496-6.4093zm7.9941 21.8613c0-1.4078-.3711-2.7892-1.0702-3.9959-1.4269-2.466-4.0797-3.9983-6.924-3.9983-4.4005-.0048-7.9918 3.5817-7.9942 7.9942.0024 4.4077 3.5865 7.9918 7.9942 7.9942 2.2027 0 4.2018-.8978 5.6479-2.3439 1.4485-1.4485 2.3463-3.4477 2.3463-5.6503z" opacity=".3"/><defs><path id="e" d="M194.7376 183.2733c-1.4461 1.4461-3.4452 2.3439-5.6479 2.3439-4.4077-.0024-7.9918-3.5865-7.9942-7.9942.0024-4.4125 3.5937-7.9989 7.9942-7.9942 2.8443 0 5.497 1.5323 6.924 3.9983.6991 1.2067 1.0702 2.5881 1.0702 3.9959 0 2.2026-.8978 4.2018-2.3463 5.6503z"/></defs><clipPath id="f"><use overflow="visible" xlink:href="#e"/></clipPath><path fill="#fff" d="M190.0704 170.6095c-4.4005-.0048-7.9918 3.5817-7.9942 7.9942.0011 1.9546.7088 3.7452 1.8782 5.1354-1.7447-1.4674-2.8575-3.663-2.8588-6.116.0024-4.4125 3.5936-7.999 7.9942-7.9942 2.3802-.0001 4.616 1.0833 6.1218 2.8788-1.4231-1.1973-3.2342-1.8982-5.1412-1.8982z" clip-path="url(#f)"/><path fill="#020202" d="M190.0704 170.6095c-4.4005-.0048-7.9918 3.5817-7.9942 7.9942.0011 1.9546.7088 3.7452 1.8782 5.1354-1.7447-1.4674-2.8575-3.663-2.8588-6.116.0024-4.4125 3.5936-7.999 7.9942-7.9942 2.3802-.0001 4.616 1.0833 6.1218 2.8788-1.4231-1.1973-3.2342-1.8982-5.1412-1.8982z" clip-path="url(#f)" opacity=".13"/><g><defs><path id="g" d="M189.0898 155.7617c7.7763 0 15.0283 4.1826 18.926 10.9151 1.9201 3.3135 2.9377 7.0987 2.9353 10.9462.0024 12.0643-9.8065 21.8636-21.8613 21.8613-12.0547.0024-21.8636-9.8066-21.8612-21.8613 0-6.0285 2.4516-11.4921 6.4116-15.452 3.9575-3.9576 9.421-6.4093 15.4496-6.4093zm7.9941 21.8613c0-1.4078-.3711-2.7892-1.0702-3.9959-1.4269-2.466-4.0797-3.9983-6.924-3.9983-4.4005-.0048-7.9918 3.5817-7.9942 7.9942.0024 4.4077 3.5865 7.9918 7.9942 7.9942 2.2027 0 4.2018-.8978 5.6479-2.3439 1.4485-1.4485 2.3463-3.4477 2.3463-5.6503z"/></defs><clipPath id="h"><use overflow="visible" xlink:href="#g"/></clipPath><path fill="#d95140" d="M172.6595 161.1903c-3.96 3.96-6.4116 9.4235-6.4116 15.452-.0024 12.0547 9.8066 21.8636 21.8613 21.8613 12.0547.0024 21.8636-9.797 21.8613-21.8613.0024-3.8474-1.0151-7.6326-2.9353-10.9462-3.8977-6.7324-11.1497-10.9151-18.926-10.9151-6.0286.0001-11.4921 2.4517-15.4497 6.4093z" clip-path="url(#h)"/></g><path fill="#d95140" d="M198.895 170.69h122.627v13.867H198.895z"/></g><g><path fill="#56a55c" d="M189.5379 264.6147l.0012-.0012c7.7751.0012 15.0294 4.1862 18.932 10.9235 1.9177 3.3159 2.9305 7.1011 2.9293 10.9378 0 5.8394-2.2733 11.3304-6.4032 15.4604-4.1288 4.1288-9.6186 6.4032-15.458 6.4032-5.8394 0-11.3281-2.2733-15.458-6.4032-4.13-4.13-6.4032-9.6186-6.4056-15.4628.0012-6.0249 2.454-11.4897 6.4116-15.4472 3.9586-3.9589 9.4233-6.4117 15.4507-6.4105zm7.993 21.8576c.0012-1.4042-.3687-2.7868-1.063-3.9887-1.4293-2.4684-4.0833-3.9995-6.9299-4.0019-4.4077.0024-7.993 3.5877-7.993 7.993 0 2.1356.832 4.1431 2.3427 5.6538 1.5083 1.5083 3.5159 2.3403 5.6503 2.3415 2.1356 0 4.1443-.8308 5.6539-2.3403 1.5094-1.5095 2.3402-3.5182 2.339-5.6574z"/><path fill="#fff" d="M189.5403 264.6153c7.7763 0 15.0283 4.1826 18.926 10.9151 1.9201 3.3135 2.9377 7.0987 2.9353 10.9462.0024 12.0643-9.8065 21.8636-21.8613 21.8613-12.0547.0024-21.8636-9.8065-21.8612-21.8613 0-6.0285 2.4516-11.492 6.4116-15.452 3.9575-3.9577 9.421-6.4093 15.4496-6.4093zm7.9941 21.8612c0-1.4078-.3711-2.7892-1.0702-3.9959-1.4269-2.466-4.0797-3.9983-6.924-3.9983-4.4005-.0048-7.9918 3.5817-7.9942 7.9941.0024 4.4077 3.5865 7.9918 7.9942 7.9942 2.2027 0 4.2018-.8978 5.6479-2.3439 1.4485-1.4484 2.3463-3.4475 2.3463-5.6502z" opacity=".3"/><defs><path id="i" d="M195.1881 292.1268c-1.4461 1.4461-3.4452 2.3439-5.6479 2.3439-4.4077-.0024-7.9918-3.5865-7.9942-7.9942.0024-4.4125 3.5937-7.9989 7.9942-7.9941 2.8443 0 5.497 1.5323 6.924 3.9983.6991 1.2067 1.0702 2.5881 1.0702 3.9959 0 2.2026-.8978 4.2017-2.3463 5.6502z"/></defs><clipPath id="j"><use overflow="visible" xlink:href="#i"/></clipPath><path fill="#fff" d="M190.5209 279.463c-4.4005-.0048-7.9918 3.5817-7.9942 7.9941.0011 1.9547.7088 3.7452 1.8782 5.1354-1.7446-1.4674-2.8575-3.6631-2.8588-6.1161.0024-4.4125 3.5936-7.999 7.9942-7.9941 2.3802-.0001 4.616 1.0833 6.1218 2.8788-1.4231-1.1971-3.2342-1.8981-5.1412-1.8981z" clip-path="url(#j)"/><path fill="#020202" d="M190.5209 279.463c-4.4005-.0048-7.9918 3.5817-7.9942 7.9941.0011 1.9547.7088 3.7452 1.8782 5.1354-1.7446-1.4674-2.8575-3.6631-2.8588-6.1161.0024-4.4125 3.5936-7.999 7.9942-7.9941 2.3802-.0001 4.616 1.0833 6.1218 2.8788-1.4231-1.1971-3.2342-1.8981-5.1412-1.8981z" clip-path="url(#j)" opacity=".13"/><g><defs><path id="k" d="M189.5403 264.6153c7.7763 0 15.0283 4.1826 18.926 10.9151 1.9201 3.3135 2.9377 7.0987 2.9353 10.9462.0024 12.0643-9.8065 21.8636-21.8613 21.8613-12.0547.0024-21.8636-9.8065-21.8612-21.8613 0-6.0285 2.4516-11.492 6.4116-15.452 3.9575-3.9577 9.421-6.4093 15.4496-6.4093zm7.9941 21.8612c0-1.4078-.3711-2.7892-1.0702-3.9959-1.4269-2.466-4.0797-3.9983-6.924-3.9983-4.4005-.0048-7.9918 3.5817-7.9942 7.9941.0024 4.4077 3.5865 7.9918 7.9942 7.9942 2.2027 0 4.2018-.8978 5.6479-2.3439 1.4485-1.4484 2.3463-3.4475 2.3463-5.6502z"/></defs><clipPath id="l"><use overflow="visible" xlink:href="#k"/></clipPath><path fill="#56a55c" d="M173.11 270.0439c-3.96 3.96-6.4116 9.4235-6.4116 15.452-.0024 12.0547 9.8066 21.8636 21.8613 21.8613 12.0547.0024 21.8636-9.797 21.8613-21.8613.0024-3.8474-1.0151-7.6326-2.9353-10.9462-3.8977-6.7325-11.1497-10.9151-18.926-10.9151-6.0286 0-11.4921 2.4517-15.4497 6.4093z" clip-path="url(#l)"/></g><path fill="#56a55c" d="M199.346 279.544h122.627v13.867H199.346z"/></g><g><path fill="#f1bc42" d="M189.0874 318.7208l.0012-.0012c7.7751.0012 15.0295 4.1862 18.932 10.9234 1.9177 3.3159 2.9305 7.1011 2.9293 10.9378 0 5.8394-2.2733 11.3305-6.4032 15.4604-4.1288 4.1288-9.6186 6.4032-15.458 6.4032s-11.328-2.2733-15.458-6.4032-6.4032-9.6186-6.4056-15.4628c.0012-6.025 2.454-11.4897 6.4116-15.4472 3.9586-3.9588 9.4234-6.4116 15.4507-6.4104zm7.993 21.8576c.0012-1.4042-.3687-2.7868-1.063-3.9887-1.4293-2.4684-4.0833-3.9995-6.9299-4.0019-4.4077.0024-7.993 3.5877-7.993 7.993 0 2.1356.832 4.1431 2.3427 5.6539 1.5083 1.5083 3.5159 2.3403 5.6503 2.3415 2.1356 0 4.1443-.8308 5.6539-2.3403s2.3402-3.5183 2.339-5.6575z"/><path fill="#fff" d="M189.0898 318.7214c7.7763 0 15.0283 4.1826 18.926 10.915 1.9201 3.3136 2.9377 7.0988 2.9353 10.9462.0024 12.0643-9.8065 21.8636-21.8613 21.8612-12.0547.0024-21.8636-9.8065-21.8612-21.8612 0-6.0285 2.4516-11.4921 6.4116-15.452 3.9575-3.9576 9.421-6.4092 15.4496-6.4092zm7.9941 21.8612c0-1.4078-.3711-2.7892-1.0702-3.9959-1.4269-2.466-4.0797-3.9983-6.924-3.9983-4.4005-.0048-7.9918 3.5817-7.9942 7.9942.0024 4.4077 3.5865 7.9918 7.9942 7.9942 2.2027 0 4.2018-.8978 5.6479-2.3439 1.4485-1.4485 2.3463-3.4476 2.3463-5.6503z" opacity=".3"/><defs><path id="m" d="M194.7376 346.2329c-1.4461 1.4461-3.4452 2.3439-5.6479 2.3439-4.4077-.0024-7.9918-3.5865-7.9942-7.9942.0024-4.4125 3.5937-7.999 7.9942-7.9942 2.8443 0 5.497 1.5323 6.924 3.9983.6991 1.2067 1.0702 2.5881 1.0702 3.9959 0 2.2027-.8978 4.2018-2.3463 5.6503z"/></defs><clipPath id="n"><use overflow="visible" xlink:href="#m"/></clipPath><path fill="#fff" d="M190.0704 333.5691c-4.4005-.0048-7.9918 3.5817-7.9942 7.9942.0011 1.9547.7088 3.7452 1.8782 5.1354-1.7447-1.4674-2.8575-3.6631-2.8588-6.1161.0024-4.4125 3.5936-7.999 7.9942-7.9942 2.3802-.0001 4.616 1.0834 6.1218 2.8788-1.4231-1.1971-3.2342-1.8981-5.1412-1.8981z" clip-path="url(#n)"/><path fill="#020202" d="M190.0704 333.5691c-4.4005-.0048-7.9918 3.5817-7.9942 7.9942.0011 1.9547.7088 3.7452 1.8782 5.1354-1.7447-1.4674-2.8575-3.6631-2.8588-6.1161.0024-4.4125 3.5936-7.999 7.9942-7.9942 2.3802-.0001 4.616 1.0834 6.1218 2.8788-1.4231-1.1971-3.2342-1.8981-5.1412-1.8981z" clip-path="url(#n)" opacity=".13"/><g><defs><path id="o" d="M189.0898 318.7214c7.7763 0 15.0283 4.1826 18.926 10.915 1.9201 3.3136 2.9377 7.0988 2.9353 10.9462.0024 12.0643-9.8065 21.8636-21.8613 21.8612-12.0547.0024-21.8636-9.8065-21.8612-21.8612 0-6.0285 2.4516-11.4921 6.4116-15.452 3.9575-3.9576 9.421-6.4092 15.4496-6.4092zm7.9941 21.8612c0-1.4078-.3711-2.7892-1.0702-3.9959-1.4269-2.466-4.0797-3.9983-6.924-3.9983-4.4005-.0048-7.9918 3.5817-7.9942 7.9942.0024 4.4077 3.5865 7.9918 7.9942 7.9942 2.2027 0 4.2018-.8978 5.6479-2.3439 1.4485-1.4485 2.3463-3.4476 2.3463-5.6503z"/></defs><clipPath id="p"><use overflow="visible" xlink:href="#o"/></clipPath><path fill="#f1bc42" d="M172.6595 324.15c-3.96 3.96-6.4116 9.4235-6.4116 15.452-.0024 12.0547 9.8066 21.8636 21.8613 21.8612 12.0547.0024 21.8636-9.797 21.8613-21.8612.0024-3.8474-1.0151-7.6327-2.9353-10.9462-3.8977-6.7324-11.1497-10.9151-18.926-10.9151-6.0286 0-11.4921 2.4517-15.4497 6.4093z" clip-path="url(#p)"/></g><path fill="#f1bc42" d="M198.895 333.65h122.627v13.867H198.895z"/></g></svg>