<svg xmlns="http://www.w3.org/2000/svg" role="img" viewBox="-5.75 17.25 455.00 137.00"><title>Dropbox (Member) logo</title><g><g fill="#007EE5"><path d="M40.8 26.1L3 50.8 29.1 71.7 67.2 48.2zM3 92.6L40.8 117.3 67.2 95.2 29.1 71.7zM67.2 95.2L93.7 117.3 131.4 92.6 105.3 71.7zM131.4 50.8L93.7 26.1 67.2 48.2 105.3 71.7z"/><path d="M67.3 100L40.8 122 29.4 114.6 29.4 122.9 67.3 145.6 105.2 122.9 105.2 114.6 93.8 122z"/></g></g><g><g fill="#007EE5"><path d="M150.7 117.3h17.5c5.1 0 12.3 0 18.2-4.6 7.2-5.5 10.9-16.6 10.9-29.1 0-32.7-20.7-32.8-30.8-32.8h-15.7V117.3zM165.3 62.3h2.5c5.9 0 14 .7 14 21.1 0 21.7-8.2 22.4-14 22.4h-2.5V62.3zM202.2 68.2v49.1h13.7V96c0-3.8 0-15.1 10.1-15.1.5 0 1.1 0 2.3.2V67.8c-.7-.2-1.4-.3-2.4-.3-8 0-10.4 8.4-11.6 12.6V68.2L202.2 68.2 202.2 68.2zM250.2 67.1c-14.7 0-20.1 10.3-20.1 25.6 0 15.8 5.8 25.6 20 25.6 14.4 0 20.1-9.9 20.1-25.6C270.2 77.3 264.8 67.1 250.2 67.1zM250.2 76.6c4.2 0 5.8 3.4 5.8 16 0 13.2-1.8 16-5.8 16-4.1 0-5.9-3-5.9-16C244.3 80.6 245.7 76.6 250.2 76.6L250.2 76.6zM274.2 68.2v65.8h13.5v-20.2c1.5 1.6 4 4.3 9.4 4.3 15.7 0 16.7-18.9 16.7-25.9 0-8.3-1.6-15.9-6.4-20.8-2.4-2.4-6.1-3.8-9.4-3.8-6.7 0-9.4 4.9-11.1 8.1v-7.4C286.9 68.2 274.2 68.2 274.2 68.2zM287.7 87.9c0-4.4 0-11.4 6.2-11.4 5.3 0 5.7 6.9 5.7 15.5 0 10.4-.5 16.4-6.1 16.4-5.8 0-5.8-4.2-5.8-11.3L287.7 87.9 287.7 87.9zM317.8 50.8v66.5h8.1c1.1-3.5 1.6-4.5 2.6-6.4 1.2 2.5 3.5 7.4 11.4 7.4 2.6 0 5.3-.5 8-1.9 9-4.7 9.6-19.4 9.6-24 0-11.9-3.8-24.9-15.9-24.9-5.9 0-8.6 3.2-10.3 5.3V50.8H317.8zM331.3 85.5c0-2.5 0-5 1.6-6.9 1-1.3 2.6-2.1 4.4-2.1 3.9 0 6 3.3 6 16.2 0 12.7-1.9 16-6.2 16-5.8 0-5.8-6.4-5.8-12L331.3 85.5 331.3 85.5zM381 67.1c-14.7 0-20.1 10.3-20.1 25.6 0 15.8 5.8 25.6 20 25.6 14.4 0 20.1-9.9 20.1-25.6C400.9 77.3 395.5 67.1 381 67.1zM381 76.6c4.2 0 5.8 3.4 5.8 16 0 13.2-1.8 16-5.8 16-4.1 0-5.9-3-5.9-16 0-12.1 1.4-16 5.8-16H381z"/><path d="M400.4,68.2l12.7,24l-14.6,25.1h11.9l8.3-14.7l7.2,14.7h14.9l-14.7-27.5l12.7-21.6h-11.9l-6.3,11.4 l-5.3-11.4L400.4,68.2L400.4,68.2z"/></g></g></svg>