<svg xmlns="http://www.w3.org/2000/svg" role="img" viewBox="29.71 22.96 92.33 106.08"><title>Eclipse Steady logo</title><rect width="152" height="152" fill="none" rx="12"/><path fill="#ff0e49" d="M1570.18,496.62l0-44.38-35.32-35-26.13,24.95s6.14,6,10.75,3,15.12-12.6,15.12-12.6l21.56,20.81-6.81,7-14.83-14-7.72,6.68Z" transform="translate(-1458.1 -392.24)"/><path fill="#5b5c5c" d="M1497.15,439.45l.88,45.08,35,34.85,26.14-24.95s-6.14-6-10.75-3-15.13,12.59-15.13,12.59l-21.55-20.82,6.81-7,14.83,14,7.72-6.68Z" transform="translate(-1458.1 -392.24)"/><path fill="#5b5c5c" d="M35.92 44.14L31.78 40 31.8 84.14 35.92 88.22" opacity=".5"/><path fill="#ff0e49" d="M116.08 108.39L120.09 112.31 120.09 68 116.08 64" opacity=".5"/></svg>