<svg xmlns="http://www.w3.org/2000/svg" role="img" viewBox="306.63 283.38 447.98 225.23"><title>Equinix (Adopter) logo</title><defs><clipPath id="a" clipPathUnits="userSpaceOnUse"><path d="M0 612h792V0H0z"/></clipPath></defs><g transform="matrix(1.33333 0 0 -1.33333 0 816)"><path fill="#231f20" fill-opacity="1" fill-rule="nonzero" stroke="none" d="M236.587 272.312v-32.945h29.399v4.245h-24.587v10.726h15.927v4.326h-15.927v9.335h23.747v4.313z"/><g clip-path="url(#a)"><path fill="#231f20" fill-opacity="1" fill-rule="nonzero" stroke="none" d="M367.038 252.49c0-5.887-3.896-9.775-9.683-9.775-5.625 0-9.131 3.934-9.131 9.775v19.734h-4.763v-19.956c0-8.981 6.487-13.879 13.859-13.879 10.893 0 14.438 7.442 14.438 13.879v19.956h-4.72z"/><path fill="#231f20" fill-opacity="1" fill-rule="nonzero" stroke="none" d="M398.284 239.373h4.731v32.947h-4.731z"/><path fill="#231f20" fill-opacity="1" fill-rule="nonzero" stroke="none" d="M459.475 272.306v-25.81l-23.38 25.81h-4.674v-32.939h4.734v26.021l23.414-26.021h4.618v32.939z"/><path fill="#231f20" fill-opacity="1" fill-rule="nonzero" stroke="none" d="M492.872 239.373h4.72v32.947h-4.72z"/><path fill="#231f20" fill-opacity="1" fill-rule="nonzero" stroke="none" d="M551.46 272.352l-10.888-11.841-10.591 11.841h-6.173l13.232-15.119-16.548-17.858h6.039l13.577 14.661 12.943-14.661h6.553l-16.029 17.866 13.723 15.111z"/><path fill="#231f20" fill-opacity="1" fill-rule="nonzero" stroke="none" d="M314.568 255.861c0-4.658-1.507-7.688-4.256-10.275l-2.557 2.965-5.484.008 4.49-5.155c-1.099-.529-3.076-.958-4.615-.966-7.056-.046-12.662 5.649-12.662 13.385l-.008.119c0 7.882 5.26 13.45 12.349 13.486 7.097.056 12.743-5.604 12.743-13.437zm-12.632 17.785c-9.819-.065-17.385-7.491-17.385-17.863v-.127c0-10.294 7.75-17.552 17.493-17.488 2.506.019 5.465.673 7.69 1.815l2.679-3.095 5.498.017-4.699 5.381c3.848 2.941 6.27 7.772 6.27 13.748v.127c0 10.237-7.771 17.558-17.546 17.485"/><path fill="#ed1c24" fill-opacity="1" fill-rule="nonzero" stroke="none" d="M400.647 392.988l-13.421-4.674v-70.409l-8.946 3.113v64.163l-26.842-9.373v-45.417l-8.943 3.127v39.172l-8.955-3.133v-42.398l26.845-9.368v51.669l8.951 3.119v-57.915l26.842-9.367v76.657l4.469 1.561 4.472-1.561v-76.657l26.855 9.367v57.915l8.933-3.119v-51.669l26.841 9.368v42.398l-8.949 3.133v-39.172l-8.938-3.127v45.417l-26.847 9.373v-64.163l-8.952-3.113v70.409z"/><path fill="#ed1c24" fill-opacity="1" fill-rule="nonzero" stroke="none" d="M483.586 338.514v2.317h1.763c.875 0 1.44-.421 1.44-1.156 0-.696-.511-1.161-1.44-1.161zm-2.036-4.304h2.036v2.638h1.299l1.809-2.638h2.455l-2.134 3.008c1.115.373 1.855 1.248 1.855 2.59 0 1.898-1.441 2.786-3.383 2.786h-3.937zm3.335-3.197c-4.072 0-7.129 3.237-7.129 7.18v.04c0 3.94 3.097 7.229 7.129 7.229 4.074 0 7.131-3.238 7.131-7.177v-.052c0-3.929-3.102-7.22-7.131-7.22m0-.886c4.496 0 8.06 3.715 8.06 8.106v.052c0 4.401-3.524 8.066-8.06 8.066-4.494 0-8.058-3.713-8.058-8.118v-.04c0-4.399 3.516-8.066 8.058-8.066"/></g></g></svg>