<svg xmlns="http://www.w3.org/2000/svg" role="img" viewBox="-1.28 -1.28 66.56 58.56"><title>Ericsson (Member) logo</title><path fill="#00285e" d="M22.89539 14.92337a3.78649 3.78649 0 1 1-2.6048-7.1109L41.04425.2313a3.744 3.744 0 0 1 4.86621 2.256 3.64463 3.64463 0 0 1-2.2533 4.73932zm0 11.25141a3.78643 3.78643 0 1 1-2.6048-7.11078l20.75366-7.57251a3.73082 3.73082 0 0 1 4.86621 2.248 3.63723 3.63723 0 0 1-2.2533 4.73611zm0 11.24951a3.78631 3.78631 0 1 1-2.6048-7.1105l20.75366-7.57169a3.72937 3.72937 0 0 1 4.86621 2.2457 3.63853 3.63853 0 0 1-2.2533 4.7373zM0 46.781h6.882v1.893H2.379v1.54h4.384v2.01H2.379v1.658h4.62v2.02H0v-9.121zm17.794 0h2.497v9.121h-2.497zm11.5113.23539l-.1183 1.89289c-2.0152-1.05908-5.10175-.7063-5.10175 2.256-.11835 3.0795 3.08655 3.55029 5.22009 2.4812l.1178 2.01071c-3.6767 1.069-7.95325 0-7.95325-4.49191-.00004-4.2665 4.39431-5.45348 7.83541-4.14889zm7.35309-.11761l-.1178 1.89291c-1.30774-.7063-3.67682-.7063-3.67682.35321 0 1.65729 4.26648.48029 4.26648 3.91318 0 3.315-4.0304 3.43271-6.64569 2.59912l.12793-2.01071c1.65161.716 4.03076.95139 4.03076-.353 0-1.53992-4.27649-.70621-4.27649-3.91351 0-2.7168 3.32282-3.43268 6.29163-2.4812zm7.47021 0l-.11584 1.89291c-1.30646-.7063-3.67957-.7063-3.67957.35321 0 1.65729 4.26691.48029 4.26691 3.91318 0 3.315-4.02722 3.43271-6.63409 2.59912l.11786-2.01071c1.66162.716 4.03113.95139 4.03113-.353 0-1.53992-4.26678-.70621-4.26678-3.91351-.00001-2.7168 3.31194-3.43268 6.28038-2.4812zM55.643 46.781h3.076l2.968 5.806v-5.806h2.369v9.121h-2.96l-3.204-6.041v6.041h-2.249v-9.121zm-7.719 4.5019c0 1.42209.5993 2.96188 1.89771 2.96188 1.42633 0 2.01361-1.53979 2.01361-2.96188 0-1.18661-.58728-2.96191-2.01361-2.96191-1.29846.00001-1.89771 1.5397-1.89771 2.96191zm1.89771-4.7373c2.61694 0 4.63049 1.42218 4.63049 4.7373 0 3.1973-2.01355 4.73709-4.63049 4.73709-2.489 0-4.5025-1.53979-4.5025-4.73709-.00006-3.31512 2.01349-4.7373 4.50245-4.7373zm-41.04296.23559h4.39441c1.29761 0 2.9588.4707 2.9588 2.36371a2.1819 2.1819 0 0 1-1.66119 2.25558 1.28353 1.28353 0 0 1 .83539.82391c0 .11768 1.30762 3.56027 1.30762 3.678H13.9989l-.944-2.8443a.90869.90869 0 0 0-.83539-.5983c-.47192 0-1.06189-.11771-1.06189 0v3.4426H8.77875zm2.37885 3.7858h1.2976a1.08689 1.08689 0 0 0 1.1898-1.05942c0-.5983-.4718-.95148-1.18976-.95148h-1.29765z"/></svg>