<svg xmlns="http://www.w3.org/2000/svg" role="img" viewBox="-16.75 -17.25 949.00 836.00"><title>Ericsson (Member) logo</title><style>svg {enable-background:new 0 0 916 802}</style><style>.st0{fill:#181818}</style><path d="M654 36.6c-4.7-13.9-14.5-24.5-26.6-30.6-12.2-6-26.6-7.5-50.5.5L305.7 96.9c-24 8-34.6 17.8-40.7 29.9-6.1 12.1-7.5 26.5-2.9 40.4 4.7 13.9 14.5 24.5 26.6 30.6 12.2 6 26.6 7.5 50.5-.5l271.2-90.4c23.9-8 34.6-17.8 40.7-29.9 6.1-12.1 7.5-26.5 2.9-40.4zm0 167.4c-4.7-13.9-14.5-24.5-26.6-30.6-12.2-6-26.6-7.5-50.5.5l-271.2 90.4c-24 8-34.6 17.8-40.7 29.9-6.1 12.1-7.5 26.5-2.9 40.4 4.7 13.9 14.5 24.5 26.6 30.6 12.2 6 26.6 7.5 50.5-.5l271.2-90.4c23.9-8 34.6-17.8 40.7-29.9 6.1-12.1 7.5-26.5 2.9-40.4zm0 167.5c-4.7-13.9-14.5-24.5-26.6-30.6-12.2-6-26.6-7.5-50.5.5l-271.2 90.4c-24 8-34.6 17.8-40.7 29.9-6.1 12.1-7.5 26.5-2.9 40.4 4.7 13.9 14.5 24.5 26.6 30.6 12.2 6 26.6 7.5 50.5-.5l271.2-90.4c23.9-8 34.6-17.8 40.7-29.9 6.1-12.1 7.5-26.5 2.9-40.4z" class="st0"/><path d="M1.8 667.7h99.5v27.1H37v23.5h61.7v28H37v24.2h65.4v27.3H1.8zm254 0h35.4v130.1h-35.4zm164.4 4.2l-2.4 27.8c-28.6-16.5-72.4-11.3-73.1 32.1-.8 43.3 45.1 49.7 74.2 34.9l1.8 28.4c-51.4 16-112.8-.3-112.5-63.4.3-61.6 62.2-78.7 112-59.8zm104.2-2L522 697c-17.8-9.8-51.7-10.1-51.7 5.3 0 22.8 60.3 6.4 60.3 55.2 0 48.1-57.4 48.6-94.7 37.5l2.6-28.7c23.3 10.9 56.4 13.3 56.4-5.6 0-20.7-60.6-9-60.6-55.5.1-38.1 47.3-48.3 90.1-35.3zm106.7 0l-2.3 27.1c-17.8-9.8-51.7-10.1-51.7 5.3 0 22.8 60.3 6.4 60.3 55.2 0 48.1-57.5 48.6-94.7 37.5l2.7-28.7c23.3 10.9 56.4 13.3 56.4-5.6 0-20.7-60.6-9-60.6-55.5-.1-38.1 47.1-48.3 89.9-35.3zm162.9-2.2h44.8l42.8 84v-84h32.6v130.1h-42.3l-45.1-85.5v85.5H794zm-81.6-3.1c36.7 0 64.8 21.5 64.8 68.5 0 44.9-28.2 67.9-64.8 67.9-36.5 0-64.5-22.5-64.5-67.9 0-47 27.8-68.5 64.5-68.5zm-28.3 68.5c0 19.8 8.5 42.3 28.3 42.2 19.8 0 28.2-22.4 28.3-42.2.1-17.9-8.5-42.2-28.3-42.2-19.8-.1-28.3 22.4-28.3 42.2zm-523.2-10.5h19.4c8.7.1 16.6-5.1 16.5-14.7-.1-8.5-7-14.5-16-14.4h-19.9v29.1zM127 667.7h63.7c17.3 0 41.4 7.6 41.4 34.6 0 17.3-7.8 27-22.7 31.5.7-.1 8.5 3.4 11.7 13.1.1.3 18.2 50.8 18.4 50.9H202l-13.4-39.1c-2.1-6-6.5-10-12.9-10-5.5 0-14.2-.4-14.2 0v49.1H127V667.7z" class="st0"/></svg>