<svg xmlns="http://www.w3.org/2000/svg" role="img" viewBox="94.40 270.90 863.20 201.70"><title>ESOP (Associate) logo</title><g fill="#adbf2a" fill-opacity="1" fill-rule="nonzero" stroke="none" stroke-opacity="1" stroke-width="1.525" transform="translate(0 -308.268) translate(9702.787 -988.658) scale(6.36312)"><path d="M-1381.6691 249.03902a9.74492 9.74492 0 0 0-.3351.003c-6.7935-.002-13.5871.003-20.3799-.003-2.5338 7.16924-5.0635 14.33845-7.6031 21.50519-.564 1.66506-1.2012 3.30598-1.7326 4.98197 2.3531.008 4.707.00083 7.0601.005.1832.0476.2324-.14987.2873-.27814 1.197-3.38429 2.4107-6.76371 3.6084-10.14876.039-.0817.056-.24164.1841-.22164 5.7482.005 11.4973-.00003 17.2455.003.9779-.0558 1.8967-.58218 2.5172-1.32934.4473-.50643.7288-1.13034.9812-1.7509.8555-2.46721 1.7659-4.91526 2.6163-7.38413.2191-.738.3731-1.52509.2349-2.29142-.078-.703-.4015-1.37194-.9096-1.86255-.4448-.354-.9229-.68128-1.4643-.86536-.742-.25437-1.5279-.35566-2.3104-.36195zm-5.7269 6.26694c.4532-.001.9074.0396 1.3512.13143.394.0866.8037.42054.787.85533.018.37817-.1632.72225-.2798 1.07125-.1524.38567-.2889.84123-.6838 1.04614-.5015.23907-1.072.20993-1.6101.27657-3.5692-.005-7.1384.0122-10.7076-.009.2623-.52976.3806-1.11539.6172-1.6568.1657-.57974.4248-1.1287.5838-1.71094 3.2494-.002 6.4988.001 9.7481-.00078.065-.001.1293-.003.194-.003z"/><path d="M-1477.292 249.11269c-6.4671.003-12.935.002-19.402.00092-.9879-.0107-2.0474.0849-2.8762.67794-.4973.33568-.8346.86294-1.0353 1.42018-1.86 5.4167-3.7433 10.82518-5.6016 16.24195-.4073 1.14441-.8172 2.29397-1.0704 3.48501-.024.1424-.048.28562-.076.42806-.097.92375.064 1.92501.6722 2.65635.5456.62147 1.326.98207 2.1082 1.20531.6147.15575 1.2428.26144 1.8758.30142 7.1659.002 14.3335.00007 21.5002.00091.1424.025.2591-.0599.2891-.19899.5181-1.52681 1.0653-3.0437 1.5984-4.56641.1457-.50394.3831-.97865.4914-1.49425-6.4562-.008-12.9132.001-19.3694-.005-.369-.008-.7386-.25823-.8854-.52307-.1468-.26484-.1185-.51148-.044-.76553.184-.83879.5031-1.6409.7714-2.45461 6.9476.006 13.8961-.003 20.8437.005.409-1.04371.7506-2.11157 1.1404-3.16276.5955-1.71672 1.2227-3.42333 1.8183-5.14089.3865-1.06202.7746-2.12664 1.0162-3.23447.1075-.68552.24-1.38604.1008-2.07822-.1016-.84544-.5165-1.68579-1.2753-2.12142-.7614-.5131-1.6984-.614-2.5905-.6773zm-15.1593 6.25874c.084-.00033.1684.00096.2528.005h8.0813c.5423-.0122 1.097-.008 1.6167.16411.6122.1641.9105.93041.6864 1.49516-.239.74383-.5039 1.48016-.7288 2.22815-4.513 0-9.0267.005-13.5397-.003.2016-.70635.4664-1.39276.6846-2.0941.1407-.41398.2831-.93456.5206-1.20701.2375-.27245.3016-.33737.6673-.42805.3657-.0907 1.1695-.15754 1.7588-.16009z"/><path d="M-1466.7533 249.59169c.5397-.33152 1.1786-.40981 1.7958-.47645 7.5449-.005 15.0906.00084 22.6364-.003-.5698 1.64842-1.1562 3.29101-1.7268 4.93859-.179.43229-.3173.88043-.4531 1.32772-4.5412-.008-9.0833-.00083-13.6254-.003-1.0471.0137-2.405-.0392-3.1361.15079-.7311.18999-.9012.38393-1.1511.7305-.2499.34657-.402.61289-.499 1.03704-.097.42415-.2406 1.09218.1181 1.43268.3037.27744.7597.33984 1.1762.32568 4.1364-.005 8.2729 0 12.4093 0 .3982.0209.7913.0933 1.187.14987.9004.20491 1.7908.62055 2.3972 1.33606.6222.81795.8471 1.91579.6414 2.91867-.098.79714-.4165 1.54013-.6997 2.2848-.663 1.80583-1.3377 3.60752-2.0083 5.41086-.4831 1.16946-.7579 2.4797-1.6384 3.4376-.5472.57974-1.3435.89793-2.1315.94124-7.639-.005-15.2789.003-22.9179-.003.713-2.09488 1.501-4.1631 2.2023-6.26132 5.3526.005 10.7052-.00084 16.0577.003.6655-.0209 1.3738-.28222 1.8142-.72217.4404-.43995.5539-1.01537.7838-1.54505.2474-.5468.32-.87436.228-1.14586-.092-.2715-.2314-.28931-.6483-.40101-.4169-.1117-1.5668-.12411-2.3506-.14073-3.8341-.0107-7.6698.02-11.5039-.0159-.1424-.0291-.2874-.0534-.4306-.075-1.097-.2249-2.2149-.78465-2.7713-1.80001-.3248-.53726-.4564-1.17031-.4173-1.79419-.043-.743.1525-1.46849.3882-2.16568.3232-.85961.578-1.74254.9079-2.59965.5647-1.73088 1.2086-3.4351 1.7325-5.17931.2741-.85878.8005-1.68923 1.6335-2.09321"/><path d="M-1432.3042 249.1106c-.7436.006-1.4983.11466-2.163.45864-.7646.35235-1.4001.99115-1.7333 1.76496-1.7841 5.08102-3.5475 10.16959-5.3292 15.25061-.2916.94707-.7514 1.83159-1.0437 2.777-.3616 1.24285-.6689 2.57637-.3633 3.86412.1967.92208.903 1.71009 1.7917 2.0207.504.17492 1.0329.30991 1.5718.28658 6.5813-.006 13.1624-.003 19.7435-.002 1.1379.0691 2.3141-.39727 3.0646-1.2618.6472-.69226.8254-1.65769 1.1709-2.50979 1.6352-4.65621 3.2928-9.30572 4.9279-13.96109.589-1.61676 1.2177-3.25768 1.3136-4.99357.052-.99537-.1784-2.09076-.938-2.78962-.7605-.68134-1.8174-.83626-2.7978-.90206-6.2997.00084-12.5994 0-18.8982 0-.1055-.003-.2113-.005-.3175-.003zm4.2673 6.26187c.3214-.003.6439.008.9606.003 2.6663 0 5.3325.00088 7.9979-.00078.4432.0107.9705.13737 1.1921.56303.1907.40815.2316.89048.081 1.31945-1.0979 3.14356-2.2007 6.28464-3.3002 9.42813-.2358.65637-.4206 1.36771-.9029 1.89496-.014.0334-.043.0991-.057.13234-.4532.28329-.953.55318-1.5011.55652-3.3659-.001-6.7327-.003-10.0987.00092-.3131.008-.5946-.19418-.7787-.4325-.245-.35975-.2083-.82029-.1675-1.23095.3332-1.10033.7572-2.16989 1.107-3.26439.3099-.74883.5031-1.53849.8088-2.28816.3057-.94623.6606-1.87493.9696-2.82032.3648-.91458.5738-1.89828 1.0887-2.74707.2823-.34816.6071-.68802 1.0344-.85378.4982-.21291 1.0309-.25571 1.5666-.26068z"/></g></svg>