<svg xmlns="http://www.w3.org/2000/svg" role="img" viewBox="-2.09 -2.09 160.55 62.67"><title>ESRI (Adopter) logo</title><defs><radialGradient id="a" cx="0" cy="0" r="1" fx="0" fy="0" gradientTransform="translate(20.724 26.35) scale(16.51261)" gradientUnits="userSpaceOnUse" spreadMethod="pad"><stop offset="0" stop-color="#bfe6f9"/><stop offset="1" stop-color="#1478c7"/></radialGradient><radialGradient id="b" cx="0" cy="0" r="1" fx="0" fy="0" gradientTransform="translate(131.126 151.54) scale(20.25662)" gradientUnits="userSpaceOnUse" spreadMethod="pad"><stop offset="0" stop-color="#a6d71c"/><stop offset=".961" stop-color="#23a03d"/><stop offset="1" stop-color="#23a03d"/></radialGradient><radialGradient id="c" cx="0" cy="0" r="1" fx="0" fy="0" gradientTransform="translate(136.247 150.217) scale(25.74596)" gradientUnits="userSpaceOnUse" spreadMethod="pad"><stop offset="0" stop-color="#a6d71c"/><stop offset=".961" stop-color="#23a03d"/><stop offset="1" stop-color="#23a03d"/></radialGradient><radialGradient id="d" cx="0" cy="0" r="1" fx="0" fy="0" gradientTransform="translate(138.134 139.23) scale(34.03128)" gradientUnits="userSpaceOnUse" spreadMethod="pad"><stop offset="0" stop-color="#a6d71c"/><stop offset=".961" stop-color="#23a03d"/><stop offset="1" stop-color="#23a03d"/></radialGradient></defs><path fill="#231f20" d="M150.4131.98817c-2.85772 0-4.93202 2.27182-4.93202 4.80701 0 2.5352 2.0743 4.80897 4.93202 4.80897 2.85522 0 5.06289-2.07125 5.06289-4.80897 0-2.73646-2.20767-4.80701-5.06289-4.80701zM79.42712 15.40335c-9.07946 0-16.34503 6.3237-16.34503 15.78443 0 9.45824 7.26557 15.78834 16.34503 15.78834 4.14282 0 8.0425-1.28853 11.29775-4.46128l-4.74255-4.74256c-1.77014 1.86265-4.0404 3.1897-7.2994 3.1897-4.20033 0-7.58403-2.70029-8.08657-7.14314H93.5239v-2.0646c0-10.46582-5.69614-16.35089-14.0968-16.35089zm29.1585 0c-6.07797 0-12.09273 3.00423-12.09273 9.70975 0 11.46589 16.22392 6.5766 16.22392 12.77833 0 2.38019-2.81749 3.44363-5.01016 3.44363-3.18525 0-5.18791-1.55606-7.12555-3.67998l-4.85389 4.8539c3.04774 3.304 6.9878 4.46714 11.5419 4.46714 6.13548 0 12.96976-2.50738 12.96976-9.64918 0-11.71716-16.22782-7.33042-16.22782-12.71584 0-2.25643 2.38135-3.19751 4.38901-3.19751 2.5502 0 4.42683 1.0575 5.8657 3.04516l4.77967-4.77577c-2.47519-3.09024-6.577-4.27963-10.45981-4.27963zm31.65091 0c-3.95031 0-7.27221 2.06602-8.90109 5.50629h-.1211v-4.75623h-7.51621v30.06875h7.51621V30.1213c0-1.62763.9989-7.57872 8.0807-7.57872 1.09009 0 2.17603.2151 3.31862.48637l.29299-7.19392c-.86881-.24627-1.74005-.43168-2.67012-.43168zm6.48292.75006v30.06875h7.51426V16.1534h-7.51426zM78.36453 21.0366c4.69787 0 7.58083 2.7603 7.64708 7.14314H70.59635c.56504-4.32284 3.32284-7.14314 7.76818-7.14314z"/><path fill="url(#a)" d="M4.89135 30.66905c0 12.85975 10.42831 23.28556 23.28431 23.28556 12.85975 0 23.28557-10.42581 23.28557-23.28556 0-12.85725-10.42582-23.28306-23.28557-23.28306-12.856 0-23.2843 10.4258-23.2843 23.28306"/><path fill="url(#b)" d="M129.66793 137.30904c-1.795.0737-3.51375.31375-5.22875.56875-4.85625 4.12375-7.995 10.19875-8.20625 17.0175 1.3725 1.4475 3.185 4.715 5.275 6.605.27625-.1225.57625-.2275.8975-.325-1.02625-1.19125-2.46-2.77125-2.67625-3.49875-1.05625-3.56125.1675-6.89625 2.81-7.15875 2.37-.23875 4.4025-3.76375 6.0725-6.075 3.43625-4.755 8.7175-3.96125 8.45125-6.34125-.30375-1.39-1.1275-1.81375-2.175-1.81375-1.57625-.002-3.655.96-5.22 1.02125" transform="translate(-111.332 -124.97) scale(1.00008)"/><path fill="url(#c)" d="M123.40293 160.89154c-.34375.0987-.6775.18875-.9975.28375-.28625.0775-.51.19-.8975.325-.85375.38125-1.4725.965-1.6175 2.21375-.26 2.26125 1.89125 4.0375 3.7025 4.55625 2.30125.65875 2.49375-.11125 3.7 1.51875.8425 1.14 1.005 3.25375 1.43625 4.645.24.7775.56625 1.55125.95625 2.3075 1.64375.765 3.3875 1.3475 5.21125 1.71125.4525-2.68.24875-6.30125.84625-7.865 1.23125-3.2025 1.92375-4.615.26625-7.92-3.65875-1.03375-4.7675-1.36125-8.45375-2.11625-.75-.155-1.21875-.2325-1.64125-.2325-.655 0-1.195.18875-2.51125.5725" transform="translate(-111.332 -124.97) scale(1.00008)"/><path fill="url(#d)" d="M146.04418 142.32904c-1.0775 1.54-4.86125 1.9625-6.075 3.69625-.945 1.35375.0325 4.0125-.79125 5.54625-.38.7075-.205 2.76.2575 3.42875 1.4575 2.12 3.87875.94125 5.7 1.705 2.22125.9275 2.47625 3.505 4.32 5.39125 1.84625 1.8875-2.35625 4.7975 1.07375 11.6625.36625.7375.79375 1.2775 1.25125 1.64625 2.32-1.4425 4.36125-3.28125 6.04125-5.42375.52-3.46625-.65125-4.57625.81375-7.75.90125-1.9575 2.45-5.34625 4.11875-7.64375-.28375-6.43-3.17125-12.18125-7.63625-16.22375-.41875.11625-.95125.13625-1.67875.004-.625-.11375-1.18625-.165-1.69625-.165-3.445 0-4.47 2.37125-5.69875 4.12625" transform="translate(-111.332 -124.97) scale(1.00008)"/><path fill="#231f20" d="M25.51608 55.37972c-.77131-.44253-1.73889-1.12759-2.64146-1.72513-.37378.33127-.6763.81756-.97507 1.2076 1.03383.35377 2.42893.38377 3.61653.51753m-4.07282-2.76646c-1.65138-1.23135-5.7392-5.1079-7.43308-7.44558-.62255.36628-1.31635 1.36385-2.21767 1.53637-.35503.065-1.15134.16376-1.3876.065-.23503-.09751.0537-.59505.30877-.92758.44128-.57629 1.08383-1.32385 2.02515-2.05266-2.01515-2.95273-2.97148-5.1104-4.34158-8.67067-.79257.49379-1.36761.93507-2.05766 1.48512-.23252.18251-.87257.29877-1.1826.02-.56379-.50629-.57254-1.3951.21877-1.9589.32628-.23377 1.9364-1.3451 2.31268-1.65888-.99133-2.85522-1.82014-6.60926-2.0389-8.55441-.66006.57379-1.58888 1.22634-1.85015 1.40386-.37503.10625-.6263-.0138-.7338-.0325-.37629 4.03906.0575 8.48566 1.25884 12.50097 2.0639 6.90304 7.85311 13.4873 15.66497 15.93624.18251-.27252 1.08008-1.31135 1.45386-1.64638M5.40826 22.3534c-.0987-1.49386-.21751-3.53902-.21751-3.53902-1.09759 2.38518-1.75389 3.82405-2.05891 6.60926.76756-1.3601 2.27642-3.07024 2.27642-3.07024M17.13042 5.27082c4.53786-1.8789 8.95445-2.91022 14.05485-2.21267.5663.0775.51879.5588-.08251.5638l-.72006.0188c-4.10782.0637-10.14829 1.36885-13.27478 3.13899-.065 2.08391.33003 5.39667.74756 8.00687 2.84022-1.19384 7.23181-2.42143 10.56707-2.78771-1.8939-2.01141-4.4691-3.91531-4.77662-4.13658-.30877-.22001-.46253-.5963-.46253-1.08258.0438-.90882.82381-1.02133 1.2426-.91382 1.3876-.27127 2.7677-.5713 5.1179-.50254 9.93576-.43379 19.01397 5.18665 22.47799 11.59465 8.77693 13.87983.004 33.03007-11.48964 38.12922-4.91414 2.18267-9.12946 3.12274-16.90007 2.0389-7.78436-1.08633-14.1486-4.89162-19.09148-12.891-6.08923-9.85826-2.66146-21.3429-1.8064-23.7506 3.66654-8.64441 9.6745-13.22477 14.39612-15.21368M6.85962 15.7742c-.13375 1.04008.005 2.95898.26628 5.2504 2.11266-1.89014 6.19548-4.35533 9.60824-5.8617-.39503-2.6002-.81506-6.74802-.7713-7.85186-3.1565 1.73138-6.62052 5.2129-9.15947 8.78193m.52004 7.02305c.29878 2.06016 1.2876 6.50426 2.17892 8.75818 2.11392-1.59137 6.90054-4.5441 9.6095-5.7392-.94757-3.45151-1.58512-5.63043-2.11517-9.1132-3.82904 1.70263-7.8781 4.34909-9.67325 6.09422M10.3274 33.8681c1.2551 3.58028 2.46894 6.31299 4.05406 8.56817 1.85264-1.61263 5.65294-4.15783 8.55942-5.54919-.95758-2.05766-2.33893-5.9042-3.30151-8.78443-3.7428 1.83764-6.538 3.62903-9.31197 5.76545m5.2379 10.13204c1.97016 2.52644 5.0554 5.73294 7.20181 7.50433 2.03141-1.63263 4.3341-3.159 6.24924-4.08907-1.65263-2.56145-4.09407-6.28299-5.11665-8.57066-3.66528 1.62512-5.7467 2.98648-8.3344 5.1554m8.46566 8.62067c.78131.79006 3.8778 2.84022 3.8778 2.84022 2.06141.0888 4.66287-.15376 6.52176-.47754-1.02508-1.17009-3.58278-4.79162-4.35909-6.01047-1.9814.83132-4.4891 2.36019-6.04047 3.64779M36.6007 54.4547c1.04383-.33503 3.70404-1.54262 4.25783-1.9064.13126-2.14516.11001-4.58035.0213-6.03922-2.79647 0-6.73427.81882-8.9907 1.76389 1.30885 2.10766 3.11524 4.43034 4.71162 6.18173m5.73294-2.70146c2.09892-1.3101 4.07157-2.81522 5.50293-4.62536-1.23134-.31002-3.98406-.6838-5.34916-.5963 0 0-.0437 3.27276-.15377 5.22166m6.16298-5.46668c.39628-.39628.99008-1.23634 1.22135-1.72638.23127-1.9889.23877-6.06797.15376-7.25807-2.39894-.97382-6.10673-1.74388-8.81569-1.94265.88007 3.2315 1.32136 7.98562 1.38761 9.5345 1.29885.1325 4.57786.79756 6.05297 1.3926m3.52153-9.22446c-.10876.37628-.77131.75505-1.08009.66005.0463.6688-.10876 3.98906-.28502 5.2704.46129-.94632 1.34135-3.29775 1.60638-4.29158l.37377-1.4601c.37128-1.24136 1.57388-5.53044.4838-11.17213-1.2076-6.26799-3.47653-8.50566-4.26909-9.50074-2.01516-1.09508-5.0629-2.09016-5.0629-2.09016 2.76272 3.7403 3.71905 5.50043 5.37167 9.95452.95883.49754 2.69646 1.46137 2.91273 1.72639.17501.20751.17751.58254-.36753.5738-.45503-.004-1.3351-.43754-2.01765-.62006.7263 2.4277 1.2876 6.95805 1.24634 9.99453 0 0 1.1976.58005 1.08759.95508m-4.62161-22.58426c-3.83155-4.69162-12.50222-8.68193-22.15547-8.08188 2.15641 1.42261 3.9528 3.57028 5.52543 5.33792 2.41018-.22127 7.47308.17751 9.37572.7038-.32377-.38253-.7213-.76256-.82506-.98883-.27002-.58004.38003-.70505.90132-.37253.6613.42129 1.42261.92633 2.02766 1.54262 1.11884.25127 3.8728 1.1951 5.1504 1.8589m2.45394 21.1554c-.16626-3.02649-.6288-7.06805-1.75014-9.88202-2.97273-1.1926-7.03304-1.9389-10.59832-1.97266 1.10009 2.5652 2.37893 6.85429 3.00398 9.61325 2.5752.30877 6.60302 1.03758 9.34448 2.24143m-8.3544-21.64294c-2.6852-.48629-6.60176-.79631-9.50824-.6213 1.9814 2.74522 3.43402 5.13415 4.79787 8.53942 3.67654.0912 8.67193 1.18884 10.71959 1.9939-1.22135-3.259-3.54403-7.39682-6.00922-9.91202m-16.8388 22.09922c4.38033-2.01266 9.1907-2.91898 14.03233-2.78772-1.32135-4.57785-2.0789-6.70302-3.20275-9.48948-5.38041.23376-9.97077 1.56012-14.15235 3.54152 0 0 1.54012 4.95289 3.32276 8.73568m14.52863-.86132c-5.48167-.0662-10.2658 1.2451-13.53605 2.85273 1.3851 2.98648 4.12532 6.93804 5.1504 8.56691 1.78139-.66255 3.69779-1.16134 5.1829-1.39386 1.48637-.23126 3.46652-.44878 4.80913-.42503-.24252-3.47527-.65005-5.8192-1.60638-9.60075m-18.47269-9.75826c3.96281-1.68263 8.2569-3.02898 14.04735-3.51527-1.47512-3.53902-3.10274-6.03797-5.01914-8.32815-4.26784.34253-8.16439 1.49262-11.5334 2.88523.49504 2.6227 1.43136 5.79545 2.5052 8.9582"/></svg>