<svg xmlns="http://www.w3.org/2000/svg" role="img" viewBox="-4.34 -4.34 225.94 46.44"><title>Fannie Mae (Adopter) logo</title><path fill="#258165" d="M20.5625 11.03125l-9.15625 3.4375V12.875H8.0625v2.78125l-3.125 1.1875L.53125 24.375l13.125-1.1875L20.125 12.875l5.5 11.59375H27l-6.4375-13.4375zm24.3125 2.625v.90625h3.78125v21.90625H44.875v.875h12.5v-.875h-3.8125V25.625c4.1375-.10625 5.5.75125 5.84375 4.6875h1.0625v-9.90625h-1.0625C59.215 24.20125 57.24 24.75 53.5625 24.75V14.5625H57.75c1.57125 0 3.095.11375 3.9375.46875 2.5275 1.06375 3.12 3.53375 3.65625 5.875H66.375l-.28125-7.25H44.875zm103.15625 0v.90625h3.78125v21.90625h-3.78125v.875H156.75v-.875h-3.71875v-21.3125h.09375l7.625 22.1875h1.28125l7.6875-22.1875h.09375v21.3125h-3.78125v.875H178.5v-.875h-3.78125V14.5625H178.5v-.90625h-9.6875L163.28125 29.875l-5.375-16.21875h-9.875zm-21.59375 1.0625c-1.03375 0-2.0625.98-2.0625 1.9375 0 1.02875.875 2.125 2.0625 2.125 1.3025 0 2.25-.91875 2.25-2.125-.00001-1.06375-1.13875-1.9375-2.25-1.9375zm-109.15625 4.4375v2.53125l1.6875.34375V19.5l-1.6875-.34375zm54.09375 3.9375c-2.33625 0-6.09375.96125-6.09375 3.65625 0 1.13375.89625 1.6875 1.96875 1.6875.88125 0 1.84375-.64125 1.84375-1.5625 0-.67375-.30125-1.435-.53125-1.71875-.575-.67375 1.23125-1.34375 2.6875-1.34375.65125 0 2.53125.36 2.53125 1.28125v4.4375c-3.4475-.17875-9.59375.68625-9.59375 4.90625 0 2.26875 1.70125 3.46875 4 3.46875 2.14375 0 4.215-.97 5.59375-2.53125.23 1.56125 1.28375 2.53125 2.96875 2.53125 1.60875 0 2.66-.77125 3.65625-1.90625l-.46875-.5c-.30625.28375-.885.84375-1.34375.84375-.46 0-.90625-.2275-.90625-.6875v-9.4375c0-1.1-.335-1.66125-1.40625-2.15625-1.495-.71-3.26-.96875-4.90625-.96875zm22.375 0c-2.7575 0-4.4625 1.2075-5.6875 3.40625h-.09375v-3.3125c-2.375.07125-4.7025.19625-6.65625.125v.875h2.59375v12.28125H81.3125v.875h9.09375v-.875h-2.4375v-4.6875c0-1.6675.00125-3.2975.5-4.46875C89.0425 26 90.54 24.375 92.1875 24.375c2.565 0 2.1875 2.42125 2.1875 5.71875v6.375h-2.40625v.875h8.875v-.875H98.4375v-6.5625c0-3.51.40625-6.8125-4.6875-6.8125zm20.5 0c-2.7575 0-4.4625 1.2075-5.6875 3.40625h-.09375v-3.3125c-2.37375.07125-4.7025.19625-6.65625.125v.875h2.59375v12.28125h-2.59375v.875h9.0625v-.875h-2.40625v-4.6875c0-1.6675.00125-3.2975.5-4.46875C109.5425 26 111.04 24.375 112.6875 24.375c2.56625 0 2.1875 2.42125 2.1875 5.71875v6.375h-2.40625v.875h8.875v-.875h-2.40625v-6.5625c0-3.51.40625-6.8125-4.6875-6.8125zm25.78125 0c-4.17375 0-7.625 3.5675-7.625 7.46875-.00001 3.6175 3.01375 7.34375 7.1875 7.34375 3.71625 0 6.34875-1.52875 7.34375-4.96875H146c-.76499 2.41125-2.8675 4.25-5.625 4.25-3.25626 0-3.40625-2.36125-3.40625-4.84375v-2.8125h8.9375c.6125 0 .96875.08875.96875-.65625 0-3.51125-3.28125-5.78125-6.84375-5.78125zm46.59375 0c-2.33625 0-6.0625.96125-6.0625 3.65625 0 1.13375.89625 1.6875 1.96875 1.6875.88126 0 1.84375-.64125 1.84375-1.5625 0-.67375-.3025-1.435-.53125-1.71875-.575-.67375 1.23125-1.34375 2.6875-1.34375.65126 0 2.53125.36 2.53125 1.28125v4.4375c-3.44625-.17875-9.59375.68625-9.59375 4.90625-.00001 2.26875 1.70125 3.46875 4 3.46875 2.14499 0 4.21625-.97 5.59375-2.53125.23125 1.56125 1.2825 2.53125 2.96875 2.53125 1.60749 0 2.66-.77125 3.65625-1.90625l-.46875-.5c-.30625.28375-.88375.84375-1.34375.84375-.45875 0-.90625-.2275-.90625-.6875v-9.4375c0-1.1-.365-1.66125-1.4375-2.15625-1.49374-.71-3.25875-.96875-4.90625-.96875zm17.34375 0c-4.17499 0-7.625 3.5675-7.625 7.46875 0 3.6175 3.045 7.34375 7.21875 7.34375 3.71501 0 6.3475-1.52875 7.34375-4.96875h-.96875c-.76625 2.41125-2.8675 4.25-5.625 4.25-3.25624 0-3.40625-2.36125-3.40625-4.84375v-2.8125h8.96875c.6125 0 .96875.08875.96875-.65625 0-3.51125-3.31375-5.78125-6.875-5.78125zm-75.15625.09375c-2.33625.07125-4.67875.19625-6.9375.125v.875h2.78125v12.28125H121.875v.875h9.78125v-.875h-2.84375V23.1875zm10.96875.625c3.40876 0 2.78125 2.4375 2.78125 4.8125h-5.59375c0-2.23375-.36625-4.8125 2.8125-4.8125zm63.96875 0c3.40875 0 2.75 2.4375 2.75 4.8125h-5.59375c-.00001-2.23375-.33375-4.8125 2.84375-4.8125zm-185.65625.40625l.03125 3.875s-8.76-4-18.125-2.15625v11.375h5.5c-3.86151-6.1093-.29535-7.17949 5.4375-6.9375 3.065.12875 6.92625.5475 8.09375-1.75.04-.0775 1.71875.84375 1.71875.84375V24.875l-2.59375-.5625-.0625-.09375zm54.75 6.0625c.31421-.01334.64063 0 .9375 0v1.9375c0 .67375-.0525 1.31125-.28125 1.84375-.46 1.135-1.44125 2.09375-2.78125 2.09375-1.8 0-2.5-1.1575-2.5-2.71875 0-2.51344 2.4255-3.0629 4.625-3.15625zm115.28125 0c.31409-.01334.64078 0 .9375 0v1.9375c0 .67375-.05125 1.31125-.28125 1.84375-.46 1.135-1.44125 2.09375-2.78125 2.09375-1.80125 0-2.5-1.1575-2.5-2.71875 0-2.51344 2.42634-3.0629 4.625-3.15625zm-166.1875.0625c-.28875.2475.65625.905-5.21875 1.5625-6.70375.75125-6.29 2.35875-2.6875 5.46875h13.75c-1.06875-3.11-5.55625-7.2775-5.84375-7.03125zm193.125 2.59375c-1.34251 0-2.59375.95-2.59375 2.6875.00001 1.26 1.2375 2.34375 2.59375 2.34375 1.31124 0 2.4375-1.09 2.4375-2.34375 0-1.7325-1.13875-2.6875-2.4375-2.6875zm-.03125.53125C216.1325 33.46875 217 34.15 217 35.625c0 1.07125-.8675 1.84375-1.96875 1.84375-1.1225 0-2.0625-.7725-2.0625-1.84375 0-1.475.94-2.15625 2.0625-2.15625zm-1.03125.5v2.9375h.5v-.9375h.21875c.29375 0 .37875.11875.65625.59375l.25.34375h.53125l-.3125-.4375c-.35749-.4375-.4925-.49-.625-.5625V35.875c.53375-.04625.78125-.5975.78125-.96875.00001-.27125-.11125-.51-.28125-.6875-.23874-.26-.5475-.25-.8125-.25H214zm.5.5h.40625c.22375 0 .59375.0025.59375.5-.00001.50625-.38875.5-.5625.5H214.5v-1z"/><path fill="#2966b7" d="M35.4875 37.23156h1.14375V.00031H.12875L.13 7.48781c-.01625-4.57875 3.04875-3.12 3.23625-3.12 0 0 .81125-1.0425 1.88625-.34625 1.07625-1.9025 2.5575-2.9625 4.74-2.9625 2.13625 0 3.80375 1.48125 4.1475 3.61625.3125-.32625 2.525-.94 3.1775 1.34875h.0125c2.34125-.13875 5.35375.93 6.10125 3.325 1.41875-1.41875 3.16125-1.6275 4.28625-1.6275 1.76125 0 4.87375 1.25625 6.05375 4.17625 1.38625 3.435.43625 6.1975-.81625 7.66375-1.0475 1.2275-2.35375 1.96625-3.215 2.09375 0 0 1.8375 1.88875.09125 3.635 0 0 1.63125.975 2.635 2.61125.9675 1.5775 1.305 2.71 1.5225 4.30875 1.76125.70375 2.21875 2.37625 1.49875 5.02125"/></svg>