<svg xmlns="http://www.w3.org/2000/svg" role="img" viewBox="-15.78 -15.78 668.56 820.56"><title>FOSSLight logo</title><g data-name="Layer 2"><g data-name="Layer 8"><path fill="#ac1e35" d="M.09 0l264.1 628.67h373.2L.09 0z" opacity=".8"/><path fill="#ac1e35" d="M.09 0l264.1 628.67 373.27-245.66L.09 0z" opacity=".7"/><path d="M58.36 721.51H20v39.64H0v-97h63.15v16.18H20v25h38.36zm96.06-6.66q0 14.32-5.06 25.12a38.21 38.21 0 0 1-14.49 16.65 40.08 40.08 0 0 1-21.62 5.86 40.4 40.4 0 0 1-21.52-5.79 38.51 38.51 0 0 1-14.65-16.56q-5.2-10.75-5.27-24.75v-4.79q0-14.33 5.17-25.22a38.46 38.46 0 0 1 14.58-16.72 40.21 40.21 0 0 1 21.56-5.83 40.2 40.2 0 0 1 21.55 5.83 38.55 38.55 0 0 1 14.59 16.72q5.16 10.89 5.16 25.15zm-20.25-4.4q0-15.26-5.47-23.18t-15.58-7.93q-10.07 0-15.53 7.83t-5.53 23v4.73q0 14.85 5.47 23t15.72 8.19q10.05 0 15.45-7.89t5.47-23zm85.07 25.25a10.27 10.27 0 0 0-4-8.69q-4-3-14.39-6.4A101.19 101.19 0 0 1 184.4 714q-16.53-8.93-16.53-24a23.47 23.47 0 0 1 4.43-14 29 29 0 0 1 12.7-9.71 47.86 47.86 0 0 1 18.62-3.47 43.58 43.58 0 0 1 18.52 3.77 29.5 29.5 0 0 1 12.62 10.62 27.8 27.8 0 0 1 4.5 15.59h-20q0-6.66-4.19-10.36t-11.8-3.7q-7.32 0-11.39 3.1a9.78 9.78 0 0 0-4.06 8.16q0 4.74 4.76 7.93t14 6q17 5.13 24.84 12.72a25.33 25.33 0 0 1 7.8 18.92q0 12.58-9.53 19.75t-25.65 7.16a49.37 49.37 0 0 1-20.38-4.1 32.24 32.24 0 0 1-14-11.22 28.74 28.74 0 0 1-4.83-16.52h20.05q0 16.05 19.18 16.05c4.76 0 8.46-1 11.13-2.89a9.45 9.45 0 0 0 4.05-8.1zm83.87 0a10.27 10.27 0 0 0-4-8.69q-4-3-14.39-6.4a101.19 101.19 0 0 1-16.45-6.61q-16.53-8.93-16.52-24a23.4 23.4 0 0 1 4.43-14 28.91 28.91 0 0 1 12.72-9.62 47.86 47.86 0 0 1 18.62-3.47 43.58 43.58 0 0 1 18.48 3.68 29.5 29.5 0 0 1 12.62 10.62 27.8 27.8 0 0 1 4.5 15.59h-20q0-6.66-4.19-10.36t-11.79-3.7q-7.33 0-11.4 3.1a9.78 9.78 0 0 0-4.06 8.16q0 4.74 4.76 7.93t14 6q17 5.13 24.84 12.72a25.33 25.33 0 0 1 7.8 18.92q0 12.58-9.53 19.75T288 762.48a49.37 49.37 0 0 1-20.38-4.1 32.24 32.24 0 0 1-14-11.22 28.74 28.74 0 0 1-4.83-16.52h20.01q0 16.05 19.18 16.05 7.14 0 11.13-2.89a9.45 9.45 0 0 0 4-8.1zm53.56 9.39h42.43v16.06h-62.42v-97h20zm52.49-74.67a9.48 9.48 0 0 1 2.9-7.13 12.47 12.47 0 0 1 15.75 0 10.18 10.18 0 0 1 0 14.32 12.33 12.33 0 0 1-15.65 0 9.43 9.43 0 0 1-3-7.19zm20.45 90.73h-19.32v-72.08h19.32zm13.06-36.57q0-16.59 7.89-26.72t21.29-10.12q11.85 0 18.45 8.12l.8-6.79h17.45v69.68a30.87 30.87 0 0 1-4.29 16.46 27.64 27.64 0 0 1-12.09 10.65 42.45 42.45 0 0 1-18.26 3.67 39.52 39.52 0 0 1-15.45-3.17q-7.53-3.17-11.39-8.16l8.52-11.72a22.58 22.58 0 0 0 17.46 8.06q7.65 0 11.92-4.1t4.26-11.62V755q-6.66 7.53-17.52 7.53a25.48 25.48 0 0 1-21-10.16q-8-10.16-8-26.94zm19.25 1.42q0 9.81 3.93 15.38a12.51 12.51 0 0 0 10.79 5.62q8.81 0 12.59-6.61V710q-3.86-6.6-12.45-6.61a12.58 12.58 0 0 0-10.89 5.67q-3.97 5.69-3.97 16.94zm80.21-29.07a24 24 0 0 1 19.25-9.19q23.45 0 23.78 27.24v46.17h-19.25v-45.63c0-4.13-.89-7.19-2.66-9.16s-4.73-3-8.86-3q-8.46 0-12.26 6.53v51.23h-19.25V658.83h19.25zm80.6-25.58v17.72h12.33v14.12h-12.33v36q0 4 1.54 5.73t5.86 1.73a30.72 30.72 0 0 0 5.66-.47v14.59a39.76 39.76 0 0 1-11.66 1.73q-20.25 0-20.65-20.45v-38.86H593v-14.12h10.52v-17.72z"/></g></g></svg>