<svg xmlns="http://www.w3.org/2000/svg" role="img" xmlns:xlink="http://www.w3.org/1999/xlink" viewBox="0.60 0.60 64.31 66.43"><title>FossID logo</title><use x="1.89" y="1.89" xlink:href="#a"/><symbol id="a" overflow="visible"><g fill="#3a3a3a"><path d="M42.77 39.523c-1.259.03-3.477.442-3.919.454-1.965.057-4.471 4.838-3.024 6.161.831-.446 2.343-1.38 3.477-.593.816.567 2.782 1.663 2.608 3.628-.153 1.524.467 3.024 1.652 3.995l9.986 9.441a4.84 4.84 0 0 0 6.898-.144c1.852-1.965 1.739-5.08-.257-6.909l-9.986-9.449c-.937-.907-1.954-1.637-3.235-1.387-2.362.453-3.16-.643-4.573-2.291-.348-.408-.189-1.047 1.202-2.797-.106-.102-.416-.136-.839-.125z"/><path d="M24.477 0C10.971.029.029 10.971 0 24.477c.027 13.509 10.972 24.453 24.481 24.48 13.509-.027 24.453-10.971 24.481-24.48C48.932 10.968 37.986.025 24.477 0zm0 5.133c5.134-.009 10.06 2.027 13.691 5.657s5.666 8.557 5.657 13.691c.008 5.133-2.028 10.059-5.658 13.688s-8.556 5.665-13.69 5.656c-5.133.008-10.058-2.027-13.687-5.657s-5.665-8.554-5.657-13.687c-.009-5.133 2.026-10.059 5.656-13.69s8.555-5.666 13.689-5.658z"/></g><path fill="#27a0f2" d="M21.657 7.189a2.68 2.68 0 0 0-.45.053A17.56 17.56 0 0 0 7.136 21.846c-.159.955.208 1.922.961 2.53s1.775.764 2.675.407 1.535-1.176 1.663-2.136c.771-5.11 4.724-9.184 9.767-10.129 1.383-.244 2.344-1.513 2.204-2.91s-1.34-2.447-2.744-2.408z"/></symbol></svg>