<svg id="Layer_1" data-name="Layer 1" xmlns="http://www.w3.org/2000/svg" viewBox="0 0 1418 1242">
  <title>Logo</title>
  <g>
    <g>
      <path d="M267.964,996.637a16.646,16.646,0,0,1-12.254-4.7,15.946,15.946,0,0,1-4.7-11.739V822.131a15.78,15.78,0,0,1,4.862-11.775,16.137,16.137,0,0,1,11.57-4.663H372.6a16.236,16.236,0,0,1,11.692,4.535,15.23,15.23,0,0,1,4.739,11.382,14.644,14.644,0,0,1-4.742,10.868A16.221,16.221,0,0,1,372.6,837H284.4v50.7h71.115a15.641,15.641,0,0,1,11.69,4.526,15.266,15.266,0,0,1,4.742,11.39,14.65,14.65,0,0,1-4.741,10.869,16.226,16.226,0,0,1-11.691,4.527H284.4V980.2a15.756,15.756,0,0,1-4.865,11.778A16.132,16.132,0,0,1,267.964,996.637Z" fill="#3b3b63"/>
      <path d="M676.385,996.638c-12.777,0-24.333-1.812-34.346-5.387a87.01,87.01,0,0,1-28.757-17.68,16.271,16.271,0,0,1-5.152-6.186,17.074,17.074,0,0,1-1.735-7.459,15.692,15.692,0,0,1,4.5-11.013,15.038,15.038,0,0,1,11.419-4.9,15.58,15.58,0,0,1,9.755,3.535,72.266,72.266,0,0,0,19.966,13.363c6.76,2.932,14.866,4.418,24.1,4.418a49.325,49.325,0,0,0,17.953-3.164,32.951,32.951,0,0,0,12.711-8.273,15.9,15.9,0,0,0,4.376-11.126c0-5.415-1.531-9.916-4.552-13.38-3.192-3.662-7.948-6.785-14.136-9.283a136.973,136.973,0,0,0-23.487-6.717,120.852,120.852,0,0,1-23.832-6.672,64.427,64.427,0,0,1-18.446-11.085,46.385,46.385,0,0,1-12-16.315,53.95,53.95,0,0,1-4.171-21.82c0-11.207,3.007-21.022,8.94-29.172A57.24,57.24,0,0,1,643.393,809.6a83.374,83.374,0,0,1,33.514-6.5,94.838,94.838,0,0,1,31.731,5.252c9.912,3.514,18.086,8.347,24.294,14.364,4.761,4.159,7.2,8.881,7.2,13.979a15.681,15.681,0,0,1-4.625,10.878,14.689,14.689,0,0,1-11.027,5.039,12.826,12.826,0,0,1-8.222-2.773l-.087-.07-.164-.151a36.462,36.462,0,0,0-10.368-7.348,88.082,88.082,0,0,0-14.427-5.645,50.72,50.72,0,0,0-14.31-2.213c-7.368,0-13.716,1.02-18.867,3.031a26.519,26.519,0,0,0-11.408,7.853,17.319,17.319,0,0,0-3.729,11.158c0,5.07,1.437,9.261,4.269,12.455,3.026,3.412,7.379,6.229,12.936,8.373a168.319,168.319,0,0,0,20.411,6.248,232.006,232.006,0,0,1,25.889,7.1,68.818,68.818,0,0,1,20.034,10.51,43.73,43.73,0,0,1,12.885,16.389c2.952,6.473,4.447,14.527,4.447,23.939A47.37,47.37,0,0,1,734.3,970.68a62.262,62.262,0,0,1-24.511,19.176A80.786,80.786,0,0,1,676.385,996.638Z" fill="#3b3b63"/>
      <path d="M841.488,996.638c-12.779,0-24.333-1.812-34.34-5.387a86.879,86.879,0,0,1-28.757-17.68,16.352,16.352,0,0,1-5.155-6.179,17.082,17.082,0,0,1-1.738-7.466,15.721,15.721,0,0,1,4.494-11.009,15.042,15.042,0,0,1,11.422-4.908,15.547,15.547,0,0,1,9.759,3.538,72.174,72.174,0,0,0,19.97,13.36c6.754,2.932,14.857,4.418,24.088,4.418a49.4,49.4,0,0,0,17.961-3.164,33,33,0,0,0,12.71-8.273,15.9,15.9,0,0,0,4.369-11.126c0-5.415-1.532-9.916-4.553-13.38-3.193-3.664-7.946-6.788-14.128-9.283a137.452,137.452,0,0,0-23.5-6.717,120.935,120.935,0,0,1-23.825-6.672,64.515,64.515,0,0,1-18.453-11.085,46.339,46.339,0,0,1-11.989-16.317,53.815,53.815,0,0,1-4.171-21.818c0-11.2,3-21.016,8.93-29.171A57.256,57.256,0,0,1,808.5,809.6a83.376,83.376,0,0,1,33.513-6.5,94.908,94.908,0,0,1,31.737,5.252c9.923,3.519,18.094,8.353,24.291,14.366,4.764,4.16,7.21,8.882,7.21,13.977a15.708,15.708,0,0,1-4.623,10.875,14.729,14.729,0,0,1-11.037,5.042,12.823,12.823,0,0,1-8.221-2.773l-.252-.222a36.286,36.286,0,0,0-10.365-7.346,88.017,88.017,0,0,0-14.429-5.646,50.721,50.721,0,0,0-14.311-2.213c-7.36,0-13.709,1.02-18.868,3.031-4.984,1.948-8.819,4.589-11.4,7.85a17.3,17.3,0,0,0-3.738,11.161c0,5.063,1.438,9.254,4.273,12.458,3.02,3.4,7.372,6.222,12.933,8.372a169.793,169.793,0,0,0,20.412,6.248,231.85,231.85,0,0,1,25.894,7.1,68.68,68.68,0,0,1,20.029,10.511,43.772,43.772,0,0,1,12.89,16.385c2.953,6.475,4.448,14.529,4.448,23.942a47.367,47.367,0,0,1-9.48,29.218,62.2,62.2,0,0,1-24.5,19.176A80.855,80.855,0,0,1,841.488,996.638Z" fill="#3b3b63"/>
      <path d="M959.334,996.64a16.321,16.321,0,0,1-12-4.7,16,16,0,0,1-4.7-11.74V819.526a15.768,15.768,0,0,1,4.869-11.768,17.12,17.12,0,0,1,12.349-4.663,16.287,16.287,0,0,1,11.395,4.624,15.569,15.569,0,0,1,5.037,11.807V980.2a16.937,16.937,0,0,1-16.954,16.439Z" fill="#0299da"/>
      <path d="M494.954,996.594A96.749,96.749,0,1,1,591.7,899.841,96.858,96.858,0,0,1,494.954,996.594Zm0-161.317a64.564,64.564,0,1,0,64.564,64.564A64.637,64.637,0,0,0,494.954,835.277Z" fill="#3b3b63"/>
      <path d="M1072.82,805.694h-43.18a16.145,16.145,0,0,0-11.571,4.664,15.783,15.783,0,0,0-4.861,11.775V977.606a15.752,15.752,0,0,0,4.862,11.77,16.119,16.119,0,0,0,11.57,4.662h43.18a94.172,94.172,0,0,0,0-188.344Zm0,157.013v.018h-25.97V837.006h25.97v.013a62.844,62.844,0,1,1,0,125.688Z" fill="#0299da"/>
    </g>
    <g>
      <path d="M605.639,461.194a17.738,17.738,0,0,1-22.76-14.833A121.688,121.688,0,0,1,666.949,315.4a18.779,18.779,0,0,1,11.9-.059,17.879,17.879,0,0,1,7.22,29.025,18.128,18.128,0,0,1-8.179,4.985,85.915,85.915,0,0,0-59.649,92.285,17.859,17.859,0,0,1-12.313,19.467Z" fill="#0299da"/>
      <path d="M716.9,318.318a21.947,21.947,0,1,1,9.1,29.673A21.976,21.976,0,0,1,716.9,318.318Z" fill="#0299da"/>
      <path d="M709.558,216.758c-118.141,0-213.913,95.772-213.913,213.912a212.964,212.964,0,0,0,42.771,128.346,14.184,14.184,0,0,1-1.806,16.327l-68.459,76.871a29.13,29.13,0,1,0,43.273,39.008L579.746,614.5a14.074,14.074,0,0,1,13.637-4.192,212.9,212.9,0,0,0,116.175,34.278c118.141,0,213.913-95.772,213.913-213.914S827.7,216.758,709.558,216.758Zm0,380.869A166.956,166.956,0,1,1,876.515,430.67,166.956,166.956,0,0,1,709.558,597.627Z" fill="#3b3b63"/>
    </g>
  </g>
</svg>
