<svg xmlns="http://www.w3.org/2000/svg" role="img" viewBox="-4.62 -4.62 239.98 84.98"><title>Google (Member) logo</title><path fill="#4285F4" d="M29.95 59.05C13.68 59.05 0 45.8 0 29.52S13.68 0 29.95 0c9 0 15.41 3.53 20.23 8.14l-5.69 5.69c-3.46-3.24-8.14-5.76-14.55-5.76-11.88 0-21.17 9.58-21.17 21.46s9.29 21.46 21.17 21.46c7.71 0 12.1-3.1 14.91-5.9 2.3-2.3 3.82-5.65 4.39-10.18h-19.3v-8H57.1c.29 1.44.43 3.13.43 5.01 0 6.05-1.66 13.54-6.99 18.87-5.18 5.38-11.8 8.26-20.59 8.26z"/><path fill="#E94235" d="M98.49 40.04c0 10.94-8.51 19.01-18.95 19.01s-18.95-8.07-18.95-19.01c0-11.02 8.51-19.01 18.95-19.01s18.95 7.99 18.95 19.01zm-8.3 0c0-6.84-4.93-11.52-10.66-11.52-5.72 0-10.65 4.68-10.65 11.52 0 6.77 4.93 11.52 10.65 11.52 5.73 0 10.66-4.76 10.66-11.52z"/><path fill="#FABB05" d="M139.49 40.04c0 10.94-8.51 19.01-18.95 19.01s-18.95-8.07-18.95-19.01c0-11.02 8.51-19.01 18.95-19.01s18.95 7.99 18.95 19.01zm-8.3 0c0-6.84-4.93-11.52-10.66-11.52-5.72 0-10.65 4.68-10.65 11.52 0 6.77 4.93 11.52 10.65 11.52 5.73 0 10.66-4.76 10.66-11.52z"/><path fill="#4285F4" d="M178.54 22.18v33.81c0 14.04-8.28 19.8-18.07 19.8-9.22 0-14.76-6.19-16.85-11.23l7.27-3.02c1.3 3.1 4.46 6.77 9.58 6.77 6.26 0 10.15-3.89 10.15-11.16v-2.42h-.29c-1.87 2.3-5.47 4.32-10.01 4.32-9.5 0-17.78-8.28-17.78-18.94 0-10.73 8.28-19.08 17.78-19.08 4.54 0 8.14 2.02 10.01 4.25h.29v-3.1h7.92zm-7.35 17.93c0-6.7-4.42-11.59-10.06-11.59-5.71 0-10.25 4.9-10.25 11.59 0 6.62 4.54 11.45 10.25 11.45 5.64 0 10.06-4.83 10.06-11.45z"/><path fill="#34A853" d="M192.31 2.02V57.9h-8.35V2.02h8.35z"/><path fill="#E94235" d="M224.07 46.3l6.48 4.32c-2.09 3.1-7.13 8.42-15.84 8.42-10.8 0-18.87-8.35-18.87-19.01 0-11.31 8.14-19.01 17.93-19.01 9.86 0 14.69 7.85 16.27 12.1l.86 2.16-25.41 10.52c1.94 3.82 4.97 5.76 9.22 5.76s7.2-2.09 9.36-5.26zm-19.95-6.84l16.99-7.06c-.94-2.38-3.75-4.03-7.06-4.03-4.24 0-10.15 3.75-9.93 11.09z"/></svg>