<svg xmlns="http://www.w3.org/2000/svg" role="img" viewBox="-3.75 -3.75 193.25 195.00"><title>GrimoireLab logo</title><g fill="#f4bc00"><path d="M109.57872 76.69019s55.875-12.792 75.166 20.99999c5.834 7.666-10.5 44.998-24.5 50.166-3 11-18.162 42.035-28.5 39.167 0 0-8.986-1.313-9.166-36 0 0 6.129 47.452 14.834 22 11.273-32.964 9.297-85.429-7.5-91.667 0 0 5.666-3 16.832 0 0 0 17.502 12.334 15.168 58.334 0 0 7.438-29.292-8.396-57.292 0 0 7.229.792 13.063 3.625-.001 0-16.667-15.16699-57.001-9.33299zm-33.198.491s-55.875-12.792-75.166 20.99999c-5.83399 7.666 10.5 45 24.5 50.166 3 11 18.162 42.037 28.50001 39.168 0 0 8.987-1.313 9.166-36 0 0-6.129 47.453-14.834 22-11.273-32.963-9.297-85.43 7.5-91.667 0 0-5.666-3-16.832 0 0 0-17.502 12.334-15.168 58.333 0 0-7.438-29.291 8.396-57.292 0 0-7.229.792-13.063 3.625.001 0 16.667-15.16699 57.00099-9.33299z"/><path d="M108.52372 49.53619c.646 6.076 5.848 9.273 5.848 9.273-5.15 9.72-20.813 10.83-20.813 10.83s-15.296-1.207-20.646-10.818c0 0 5.133-3.304 5.652-9.393 0 0-31.51999-1.756-57.587 28.057 0 0 27.26701-12.266 72.761-.754 45.248-12.452 72.941-.338 72.941-.338-26.68-29.267-58.156-26.857-58.156-26.857z"/><path d="M80.82872 47.64819s1.749-23.417 11.417-45.833c0 0 1.666-4.084 3.166 0 1.5 4.082 8.502 24.334 11.418 45.833-.001 0-12.741 5.99-26.001 0zm11.463 43.54199c-1.659-17.94999-22.167-7.586-25.896-6.959-7.50099 1.26-10.52099.625-10.52099.625-3.167 3.5-4.416 6.334-4.416 6.334s33.29099-4.854 40.83299 0zm2.089 0c1.66-17.94999 22.169-7.586 25.896-6.959 7.5 1.26 10.521.625 10.521.625 3.166 3.5 4.416 6.334 4.416 6.334s-33.289-4.854-40.833 0z"/><path d="M100.82372 91.19018s-2.041 1.651-7.448 1.688c-5.407-.036-7.448-1.688-7.448-1.688-18.667-1.524-38.30199 1.609-38.30199 1.609l9.968 53.874c8.25 5 27.74999 5.996 27.74999 5.996 2.36 3.2 13.704 3.2 16.064 0 0 0 19.5-.996 27.75-5.996l8.968-53.874c-.001.001-18.635-3.133-37.302-1.609zm-43.15699 25.424l19.11699-21.063.733 10.834-3.924.041-.028-1.803-11.00599 12.52 11.85699 15.55-.303-13.94-4.061-.281.076-3.711 7.477.467.717 29.849-20.65499-28.463zm50.04899 28.461l.717-29.85 7.477-.465.076 3.711-4.061.28-.304 13.94 11.856-15.549-11.006-12.521-.027 1.804-3.924-.041.732-10.835 19.117 21.063-20.653 28.463z"/></g></svg>