<svg xmlns="http://www.w3.org/2000/svg" role="img" viewBox="14.88 12.88 369.98 338.48"><title>Here Technologies (Member) logo</title><style>svg {display:block}</style><g fill-rule="evenodd"><path fill="#00007f" d="M53.496 191.417l-4.663 4.75 4.75-4.663c2.613-2.564 4.75-4.701 4.75-4.75 0-.238-.506.25-4.837 4.663"/><path fill="#393e47" d="M307.212 20.378c-25.338 3.254-46.522 30.556-42.768 55.118.28 1.831.469 3.369.419 3.418-.049.05-2.926-3.126-6.393-7.056-3.951-4.48-6.543-7.155-6.944-7.169-1.131-.04-6.817 6.106-8.616 9.311-4.7 8.376-5.005 17.494-.89 26.593.521 1.151.788 1.995.595 1.875-.194-.12-3.509-2.837-7.368-6.04l-7.016-5.822-10.449 10.445c-5.747 5.745-10.449 10.595-10.449 10.779 0 .183 5.738 6.078 12.75 13.099 10.963 10.976 12.423 12.549 10.417 11.226-18.962-12.511-40.505-10.329-57.58 5.832-18.279 17.298-21.287 40.208-8.044 61.255l1.211 1.925-1.46-1.36c-11.887-11.067-24.525-14.492-37.794-10.244-14.017 4.488-26.199 19.897-25.773 32.601l.107 3.17-21.334-21.32-21.333-21.32-11.599 11.403c-6.379 6.272-11.591 11.553-11.583 11.737.008.183 19.178 19.496 42.599 42.916l42.584 42.583h46.312l-17.349-17.416c-22.244-22.331-25.318-26.161-26.795-33.378-1.473-7.197 5.332-16.022 12.331-15.992 7.141.031 12.019 3.795 36.51 28.176l18.009 17.928 11.489-11.492 11.489-11.493-13.332-13.362c-12.248-12.275-13.142-13.246-10.998-11.945 19.329 11.732 39.756 10.342 57.481-3.913 10.556-8.488 24.167-25.875 24.01-30.669-.025-.746-17.445-11.852-17.8-11.347-.197.28-1.588 2.285-3.091 4.456-14.532 20.986-26.721 26.279-38.025 16.512l-1.426-1.231 21.842-21.832 21.841-21.833 13.834 13.831 13.833 13.83 12.001-11.996c6.6-6.598 12-12.145 12-12.325 0-.181-8.228-8.581-18.285-18.668-20.802-20.866-21.769-22.027-23.742-28.516-2.017-6.635.049-14.997 5.187-20.991 2.389-2.787 2.435-2.786 3.973.079 7.457 13.893 22.511 27.049 36.323 31.742 18.593 6.319 35.786 1.294 53.002-15.488 8.207-8.001 16.902-20.352 16.87-23.966-.004-.477-18.552-12.294-18.804-11.98-.05.062-.889 1.313-1.865 2.779-14.801 22.242-28.564 28.735-39.756 18.757l-1.597-1.423 21.988-21.974 21.988-21.974-3.502-3.859c-16.606-18.301-32.643-26.113-49.235-23.982m2.53 27.283c2.425.907 5.39 2.746 8.282 5.137l2.377 1.964-10.27 10.274c-11.789 11.793-10.125 11-13.553 6.464-6.113-8.089-6.408-13.685-1.029-19.495 4.595-4.963 8.964-6.3 14.193-4.344M203 156.864c2.575 1.24 7.122 4.487 8.309 5.934.435.529-19.087 20.869-20.03 20.869-.524 0-4.779-6.283-6.057-8.944-5.556-11.563 6.241-23.413 17.778-17.859"/><path fill="#65c1c2" d="M22 295.251c0 .138 10.988 11.238 24.418 24.667l24.417 24.415L95.5 319.667 120.165 295H71.082c-26.995 0-49.082.113-49.082.251"/><path fill="#0ff" d="M92.999 322.25L77.5 337.833l15.583-15.498c8.571-8.525 15.584-15.537 15.584-15.584 0-.234-1.263 1.014-15.668 15.499"/><path fill="#7fffff" d="M114.163 301.083l-5.663 5.75 5.75-5.663c3.162-3.114 5.75-5.702 5.75-5.75 0-.237-.576.321-5.837 5.663"/></g></svg>