<svg xmlns="http://www.w3.org/2000/svg" role="img" viewBox="228.02 306.02 401.96 158.21"><title>Infosys (Member) logo</title><defs id="defs6"><clipPath id="clipPath16" clipPathUnits="userSpaceOnUse"><path id="path14" d="M 0,792 H 612 V 0 H 0 Z"/></clipPath></defs><g id="g8" transform="matrix(1.33333 0 0 -1.33333 0 1056)"><g id="g10"><g id="g12" clip-path="url(#clipPath16)"><g id="g18" transform="translate(456.348 551.015)"><path id="path20" fill="#287ac8" fill-opacity="1" fill-rule="evenodd" stroke="none" d="m 0,0 h 1.865 c 1.008,0 1.567,-0.41 1.567,-1.23 0,-0.821 -0.633,-1.194 -1.416,-1.194 H 0 Z M -1.678,-7.646 H 0 v 3.73 h 1.979 l 1.453,-3.73 h 1.865 l -1.715,3.99 c 0.596,0.299 1.604,0.635 1.604,2.275 0,2.686 -2.014,2.985 -3.768,2.985 h -3.096 z m -4.14,4.4 c 0,4.103 3.357,7.461 7.461,7.461 4.101,0 7.459,-3.358 7.459,-7.461 0,-4.102 -3.358,-7.459 -7.459,-7.459 -4.104,0 -7.461,3.357 -7.461,7.459 m 7.461,-8.766 c 4.81,0 8.765,3.918 8.765,8.766 0,4.812 -3.955,8.767 -8.765,8.767 -4.813,0 -8.768,-3.955 -8.768,-8.767 0,-4.848 3.955,-8.766 8.768,-8.766"/></g><g id="g22" transform="translate(176.857 543.843)"><path id="path24" fill="#287ac8" fill-opacity="1" fill-rule="nonzero" stroke="none" d="M 0,0 -0.002,0.129 V 10.455 H 10.371 V 0.107 0 -65.289 l 0.004,-0.234 V -75.746 H -0.002 v 10.328 L 0,-65.289 Z"/></g><g id="g26" transform="translate(332.418 480.812)"><path id="path28" fill="#287ac8" fill-opacity="1" fill-rule="nonzero" stroke="none" d="m 0,0 c 6.412,-5.816 12.184,-8.824 19.564,-8.824 7.557,-0.059 14.272,3.637 14.272,10.746 0,5.93 -5.26,9.4 -14.662,13.375 -7.965,3.445 -13.895,5.859 -16.994,10.849 0.379,-2.167 0.576,-4.406 0.576,-6.697 0,-19.242 -13.961,-34.836 -31.184,-34.836 -17.22,0 -31.181,15.594 -31.181,34.836 0,11.598 5.072,21.873 12.875,28.205 H -67.836 V -2.258 l 0.002,-0.199 v -10.258 h -9.373 v 9.926 c 0.006,0.172 0.008,0.351 0.008,0.531 v 49.912 h -8.262 v 6.284 h 8.383 c 1.084,12.671 8.937,19.839 19.81,19.839 7.051,0 10.922,-0.734 13.157,-1.769 v -8.59 c -0.032,-0.641 -0.034,-1.031 -0.034,-1.031 -0.095,0.009 -0.328,0.011 -0.328,0.011 -3.392,3.131 -6.742,5.459 -14.56,5.452 -6.227,0 -10.348,-5.057 -8.906,-13.912 h 35.078 c 1.449,0.228 2.929,0.347 4.433,0.347 12.494,0 23.272,-8.209 28.248,-20.062 -0.045,0.658 -0.068,1.343 -0.068,2.062 0,12.367 11.978,17.629 24.422,17.604 0.476,0.002 0.943,-0.002 1.398,-0.01 4.381,0.07 10.621,-1.359 14.43,-2.359 l 3.459,-8.495 3.926,-9.638 10.554,-25.735 1.241,-4.132 1.377,4.132 13.349,33.03 c 2.461,9.093 12.209,13.029 22.975,13.007 5.351,0.024 9.305,-0.619 14.043,-2.287 v -9.988 c -5.836,4.24 -10.014,6.703 -16.637,6.703 -5.82,0 -12.816,-2.574 -12.816,-11.137 -0.112,-6.435 3.75,-7.611 15.084,-13.232 9.316,-4.043 17.91,-8.506 17.961,-18.842 0,-17.234 -16.987,-20.215 -25.254,-20.242 -7.381,0 -14.147,1.82 -17.91,4.949 V 0.988 l 0.605,-0.5 c 6.715,-6.265 12.648,-9.511 20.316,-9.511 7.555,-0.059 14.27,3.636 14.27,10.746 0,5.929 -5.26,9.4 -14.662,13.375 C 82.896,18.984 77.002,21.561 74.592,28 70.928,19.068 53.883,-22.422 49.871,-31.289 h -9.189 l 2.17,4.051 1.923,3.593 0.065,0.118 c 2.303,4.535 5.658,11.648 8.635,18.457 L 35.781,37.621 c -0.117,0.262 -0.408,0.916 -1,2.26 -1.357,3.092 -2.621,5.947 -6.441,7.389 -2.047,0.685 -4.225,1.046 -6.76,1.046 -5.82,0 -13.264,-2.574 -13.264,-11.136 -0.113,-6.436 4.198,-7.612 15.532,-13.233 9.316,-4.043 17.908,-8.506 17.961,-18.842 0,-17.234 -16.989,-20.214 -25.256,-20.242 -6.565,0 -12.641,1.438 -16.553,3.961 z m 43.461,43.025 c 0.125,-0.345 0.269,-0.711 0.434,-1.093 l 3.492,-8.545 z m -0.609,-70.263 c 0.476,0.808 1.136,2.047 1.923,3.593 z m -7.071,64.859 c 0.272,-0.598 -0.371,0.893 -0.371,0.893 z M -50.096,18.678 c 0.268,-15.666 10.024,-28.194 21.791,-27.987 11.768,0.211 21.09,13.082 20.825,28.75 -0.268,15.666 -10.026,28.196 -21.793,27.985 -11.768,-0.211 -21.09,-13.08 -20.823,-28.748"/></g><g id="g30" transform="translate(206.584 534.105)"><path id="path32" fill="#287ac8" fill-opacity="1" fill-rule="nonzero" stroke="none" d="M 0,0 0.115,-7.537 0.109,-8.045 h 0.1 c 0.119,0.316 0.283,0.584 0.437,0.781 3.809,4.082 8.612,8.139 20.026,8.139 10.922,0 17.994,-9.277 18.277,-15.117 l 0.01,-41.309 0.002,-0.207 v -10.25 h -9.363 l 0.002,12.317 -0.004,35.17 c 0,7.279 -6.393,12.542 -14.217,12.542 -6.506,0 -14.858,-5.849 -15.131,-11.773 V -55.559 L 0.25,-55.84 v -10.176 h -9.365 v 10.457 46.877 L -9.113,0 h 1.685 5.1 z"/></g></g></g></g></svg>