<svg xmlns="http://www.w3.org/2000/svg" role="img" viewBox="-7.36 -7.36 382.46 99.96"><title>ITRenew (Adopter) logo</title><defs><linearGradient id="a" x2="1" y1=".5" y2=".5" gradientUnits="objectBoundingBox"><stop offset="0" stop-color="#41bcdf"/><stop offset=".331" stop-color="#50bcc3"/><stop offset="1" stop-color="#74bd82"/></linearGradient></defs><g data-name="Group 108"><g data-name="Group 1" transform="translate(-140 -59) translate(140 59)"><path fill="url(#a)" d="M61.466 135.3a13.759 13.759 0 0 1-6.028-1.229c-3.312-1.6-7-5.522-5.744-15.089a59.7 59.7 0 0 1 2.447-8.337 11.645 11.645 0 0 1-7.417-6.264c-3.782-7.462-2.006-18.6-.61-24.571C46.306 70.42 50.3 61.53 54.8 56.026c5.191-6.35 9.786-6.718 12.728-5.908a5.807 5.807 0 0 1 3.621 3c3.809 7.2-2.383 27.406-10.535 51.4 7.015-1.167 12.311-4.04 18.284-7.279 3.031-1.644 6.164-3.344 9.8-5 11.987-5.46 17.043-.709 18.659 1.587 3.771 5.354 1.667 14.222-5 21.087-4.738 4.879-26.616 20.382-40.891 20.387zm-3.026-24.391a88.889 88.889 0 0 0-2.742 8.855c-.63 4.8.17 7.783 2.377 8.851 3.523 1.7 11.217-.123 20.584-4.889 8.287-4.216 16.347-9.935 19.352-13.027 4.948-5.093 6.134-10.911 4.395-13.382-1.534-2.177-5.825-2.009-11.2.437-3.441 1.567-6.481 3.216-9.42 4.81-7.027 3.813-13.686 7.427-23.346 8.345zm6.81-55.043c-2.238 0-4.728 2.727-5.761 3.991-7.883 9.644-14.069 32.5-9.362 41.782a5.507 5.507 0 0 0 3.966 3.257c2.937-8.6 6.924-20.3 9.5-30.264 3.853-14.889 2.5-18.2 2.19-18.711a2.55 2.55 0 0 0-.533-.055z" data-name="Path 1" transform="translate(-42.455 -49.804)"/><path fill="#fff" d="M84.462 66.635V23.882h4.921v42.753z" data-name="Path 2"/><path fill="#fff" d="M113.404 66.635v-38.55H98.513v-4.2h34.767v4.2h-14.891v38.551z" data-name="Path 3"/><path fill="#fff" d="M175.132 66.635h-2.582l-5.224-14.231a7.423 7.423 0 0 0-3.032-4.174 11.861 11.861 0 0 0-5.615-1.051H145.41v19.455h-2.462V23.882h15.912q6.6 0 10.208 2.972t3.6 8.557a10.77 10.77 0 0 1-2.191 6.906 11.441 11.441 0 0 1-6.216 3.843 5.76 5.76 0 0 1 3.183 1.59 9.457 9.457 0 0 1 2.162 3.753zM158.92 44.778q5.464 0 8.256-2.4t2.792-7.025q0-9.128-11.048-9.127h-13.45V44.78z" data-name="Path 4"/><path fill="#fff" d="M187.141 66.635V23.882h25.7v2.342h-23.178v17.535h21.976v2.4h-21.976v18.134h23.178v2.342z" data-name="Path 5"/><path fill="#fff" d="M255.596 23.882h2.342v42.753h-2.042l-28.343-38.491v38.491h-2.342V23.882h2.1l28.285 38.369z" data-name="Path 6"/><path fill="#fff" d="M272.708 66.635V23.882h25.7v2.342h-23.179v17.535h21.977v2.4h-21.977v18.134h23.179v2.342z" data-name="Path 7"/><path fill="#fff" d="M365.418 23.882h2.581l-14.831 42.753h-2.342l-13.45-38.61-13.512 38.61h-2.282l-14.83-42.753h2.524l13.45 39.15 13.51-39.15 2.222.06 13.451 39.03z" data-name="Path 8"/></g></g></svg>