<svg xmlns="http://www.w3.org/2000/svg" role="img" viewBox="-23.98 -23.98 1246.96 550.96"><title>JiHu(GitLab) (Adopter) logo</title><g clip-path="url(#clip0)"><path fill="#E44E2E" d="M268.836 495.308l99.062-304.766h-197.98l98.918 304.766z"/><path fill="#FBAC29" d="M31.1678 190.542l-30.16442 92.58c-1.33668 4.117-1.33878 8.551-.00601 12.67 1.33277 4.118 3.93231 7.711 7.42768 10.264L268.836 495.308 31.1678 190.542z"/><path fill="#E44E2E" d="M31.1678 190.542H169.918L110.21 7.03942c-.686-2.0483-1.998-3.82918-3.752-5.09096-1.753-1.26178-3.859-1.94065-6.019-1.94065-2.1598 0-4.2653.67887-6.0186 1.94065a10.30388 10.30388 0 0 0-3.7518 5.09096L31.1678 190.542z"/><path fill="#FBAC29" d="M506.648 190.542l30.069 92.58c1.344 4.117 1.35 8.553.017 12.673-1.334 4.12-3.938 7.712-7.439 10.261L268.836 495.308l237.812-304.766z"/><path fill="#E44E2E" d="M506.648 190.542h-138.75L427.51 7.03944a10.29192 10.29192 0 0 1 3.744-5.09789c1.752-1.264 3.858-1.94424 6.019-1.94424s4.266.68024 6.019 1.94424a10.29192 10.29192 0 0 1 3.744 5.09789L506.648 190.542z"/><path fill="#F4782E" d="M268.836 495.261l99.062-304.719h138.75L268.836 495.261zm0 0L31.1678 190.542H169.918l98.918 304.719z"/><path fill="#969CA6" d="M635.81 183.997v-27.441h33.095v-52.557h27.441v52.557h29.719v27.441H696.41v26.23c13.782 9.2 26.78 19.523 38.86 30.866l-13.712 25.147c-4.446-3.524-8.65-7.345-12.582-11.435-3.943-4.068-8.14-7.882-12.566-11.419v132.603h-27.505V244.58c-9.906 25.929-20.194 47.652-30.865 65.171a305.4631 305.4631 0 0 0-9.142-38.876c17.127-26.761 29.859-56.092 37.714-86.878H635.81zm133.781 192.055c-6.859-12.199-12.958-20.964-18.299-26.294 25.907-12.189 47.248-25.907 64.024-41.154-16.765-21.327-29.9-45.272-38.876-70.872-3.823 50.295-21.342 94.889-52.557 133.781-1.593-2.277-4.587-6.482-9.158-12.566-4.576-5.308-8.005-9.502-10.288-12.581 33.519-34.284 49.525-90.303 48.018-168.055l1.146-33.159h-22.902v-27.456h145.248v29.718l-25.211 46.887h45.724v30.865c-12.199 35.038-26.294 62.856-42.284 83.454 16.795 13.965 35.218 25.847 54.866 35.388-5.309 9.163-11.026 18.693-17.152 28.588-22.86-15.257-41.531-29.357-56.013-42.3a500.90585 500.90585 0 0 1-66.302 45.756h.016zm76.59-230.931h-65.17v32.012c12.167 46.504 29.686 83.087 52.556 109.748 14.258-19.345 25.086-40.996 32.012-64.008h-44.593v-28.572l25.195-49.18zm84.123 72.034c-1.075-1.345-1.851-2.903-2.278-4.571-6.115-9.906-10.288-16.754-12.581-20.592 11.154-8.153 21.841-16.927 32.012-26.279-7.327-15.201-16.547-29.414-27.442-42.3l21.724-15.926c9.739 11.221 18.176 23.509 25.148 36.63a257.7986 257.7986 0 0 0 24.016-31.04l21.707 17.137c-10.62 14.492-21.664 28.21-33.142 41.153 11.435 35.038 17.148 82.674 17.137 142.907 1.529 38.096-12.189 57.149-41.154 57.16h-27.425c0-2.278-.398-6.865-1.146-13.713-.472-4.994-1.238-9.956-2.294-14.859 8.378.743 16.383 1.12 24.017 1.13 14.461 1.529 21.32-8.377 20.577-29.718 0-16.755-.382-32.378-1.147-46.871-10.78 13.89-23.065 26.543-36.63 37.729-3.838-9.128-8.425-17.922-13.713-26.294 18.333-14.467 34.168-31.846 46.871-51.442-1.026-3.366-1.793-6.805-2.293-10.288-.908-7.709-2.421-15.335-4.523-22.807-9.142 8.388-18.289 16.006-27.441 22.854zm138.336 149.708l-14.88-22.855c4.59-4.576 8.02-11.435 10.29-20.576 7.62-23.603 11.43-65.543 11.44-125.818v-49.053c-4.59.129-9.17.512-13.71 1.146-4.6-.136-9.2.243-13.72 1.131v77.752c0 38.861-2.29 67.82-6.86 86.878-3.82 19.112-12.21 38.924-25.15 59.437-2.76-3.679-5.82-7.12-9.16-10.288-3.64-4.009-7.074-8.203-10.285-12.566 10.175-14.796 17.175-31.534 20.575-49.164 3.05-16.012 4.58-41.159 4.59-75.443V125.69c63.25-4.576 113.15-9.884 149.71-15.926l11.43 27.441-28.59 3.424c0 54.882 2.66 95.659 7.97 122.33 5.31 27.436 16.74 54.113 34.29 80.03l-15.93 29.719c-20.58-30.483-34.3-61.349-41.15-92.596-7.63-30.483-11.44-75.83-11.44-136.043-4.59.122-9.17.5-13.71 1.131-4.23-.102-8.45.283-12.58 1.147v49.164c0 37.342-1.53 65.543-4.57 84.601v3.376c-1.53 9.907-4.96 24.771-10.29 44.594-.68 1.835-1.07 3.764-1.15 5.718l28.67-11.42-14.86-48.017 18.28-5.718c3.04 9.906 7.61 25.148 13.73 45.724 6.85 21.342 11.8 36.966 14.86 46.872l-21.72 7.963c-2.3-6.87-4.59-14.875-6.87-24.017-9.14 3.047-19.05 6.859-29.72 11.435-2.73.946-5.39 2.09-7.96 3.424-4.22 1.569-8.13 3.895-11.51 6.864l-.02-.047zM737.978 455.62c0-30.993 20.592-48.973 45.517-48.973 5.478-.08 10.916.953 15.983 3.036 5.067 2.084 9.659 5.174 13.497 9.084l-11.149 13.553c-4.634-4.268-9.556-7.438-17.63-7.438-14.334 0-24.59 11.292-24.59 30.021 0 19.207 8.695 30.372 26.278 30.372 3.507.123 6.964-.851 9.89-2.787v-16.134h-15.385v-17.232h34.242v43.001c-6.45 6.371-17.79 11.324-30.833 11.324-25.801.063-45.82-16.357-45.82-47.827zm99.444-47.253h21.118v93.423h-21.118v-93.423zm64.995 17.71h-25.705v-17.71h72.496v17.71h-25.657v75.713h-21.134v-75.713zm65.011-17.71h21.118v75.793h36.874v17.71h-57.992v-93.503zm94.352 0h25.27l29.38 93.423h-22.29l-12.23-47.317c-2.6-9.332-5.08-20.385-7.58-30.132h-.58c-2.26 9.874-4.78 20.8-7.36 30.132l-12.26 47.317h-21.69l29.34-93.423zm-9.99 54.754h44.94v16.42h-44.94v-16.42zm77.18-54.754h31.96c19.4 0 34.47 5.335 34.47 23.172 0 8.378-4.78 17.296-12.31 20.163v.605c9.55 2.485 16.91 9.556 16.91 21.995 0 19-16.07 27.52-36.39 27.52h-34.64v-93.455zm30.99 37.411c10.26 0 14.78-4.316 14.78-11.149 0-7.199-4.78-10.002-14.62-10.002h-10.03v21.151h9.87zm1.93 39.72c11.51 0 17.52-4.109 17.52-12.598 0-8.186-5.85-11.531-17.52-11.531h-11.8v24.129h11.8z"/></g><defs><clipPath id="clip0"><path fill="#fff" d="M0 0h1200v503.51H0z"/></clipPath></defs></svg>