<svg xmlns="http://www.w3.org/2000/svg" role="img" viewBox="-1.13 -0.13 332.02 100.02"><title>Juniper (Adopter) logo</title><defs><clipPath id="c" clipPathUnits="userSpaceOnUse"><path d="M44.936 724.66h116.15v31.739H44.936V724.66z"/></clipPath><clipPath id="b" clipPathUnits="userSpaceOnUse"><path d="M44.946 725h114.9v31.4h-114.9V725z"/></clipPath><clipPath id="a" clipPathUnits="userSpaceOnUse"><path d="M44.936 724.66h116.15v31.739H44.936V724.66z"/></clipPath></defs><path fill="#61849c" d="M161.949 76.433h1.96045l10.09937 13.92585V76.433h1.73274v16.88874h-1.64388l-10.41593-14.33682v14.33682H161.949V76.433z"/><path fill="#61849c" d="M180.048 76.433h11.16845v1.71053h-9.36906v5.58145h9.14136v1.68832h-9.14136v6.26733h9.4607v1.64111H180.048V76.433z"/><path fill="#61849c" d="M200.265 78.143h-6.33675v-1.71053h14.47567V78.143h-6.33675v15.18098H200.265V78.143z"/><path fill="#61849c" d="M210.59 76.433h1.8466l4.44294 13.97028L221.4169 76.433h1.54948l4.51236 13.97028 4.46794-13.97028h1.73274l-5.42594 17.0026h-1.5467l-4.55957-14.06193-4.53736 14.06192h-1.57169L210.59 76.433z"/><g clip-path="url(#a)" transform="matrix(2.77684 0 0 -2.77684 -119.342 2106.802)"><path fill="#61849c" d="M133.188 728.136c0 1.642-.763 2.528-2.422 2.528-1.65 0-2.405-.886-2.405-2.528 0-1.65.755-2.537 2.405-2.537 1.659 0 2.422.887 2.422 2.537m-5.475.008c0 2.167 1.108 3.135 3.053 3.135 1.954 0 3.07-.968 3.07-3.135 0-2.175-1.116-3.144-3.07-3.144-1.945 0-3.053.969-3.053 3.144"/><path fill="#61849c" d="M137.793 728.168c.862 0 1.395.263 1.395 1.223 0 .944-.517 1.19-1.419 1.19h-1.979v-2.413h2.003zm-.18-.591h-1.823v-2.479h-.632v6.082h2.627c1.412 0 2.052-.566 2.052-1.773 0-1.05-.501-1.666-1.56-1.805l1.469-2.504h-.689l-1.444 2.479z"/><path fill="#61849c" d="M143.063 728.324l-1.215-1.329v-1.897h-.632v6.082h.632v-3.357l3.078 3.357h.747l-2.183-2.388 2.479-3.694h-.731l-2.175 3.226z"/><path fill="#61849c" d="M146.51 725.714l.328.492c.73-.459 1.445-.615 2.175-.615 1.256 0 1.814.353 1.814 1.19 0 .862-.722.985-1.814 1.182-1.313.23-2.2.452-2.2 1.682 0 1.175.755 1.634 2.2 1.634.953 0 1.634-.213 2.118-.542l-.345-.525c-.435.287-1.083.476-1.773.476-1.091 0-1.559-.304-1.559-1.026 0-.772.632-.919 1.716-1.116 1.329-.238 2.289-.435 2.289-1.74 0-1.207-.771-1.789-2.429-1.789-.919 0-1.749.188-2.52.697"/><path fill="#231f20" d="M157.819 756.32c-8.551 0-8.914-3.831-8.914-9.236v-13.269h2.016v13.269c0 4.074-.161 7.341 6.898 7.341.756 0 1.427-.04 2.031-.111v1.921c-.623.055-1.295.085-2.031.085"/><path fill="#231f20" d="M58.087 742.445v13.431h2.057v-13.471c0-3.872-.04-7.139 7.058-7.139 7.058 0 6.897 3.267 6.897 7.341v13.269h2.017v-13.269c0-5.405-.364-9.237-8.914-9.237-8.591 0-9.115 3.832-9.115 9.075"/><path fill="#231f20" d="M97.557 747.245v-13.431H95.5v13.471c0 3.872.04 7.139-7.058 7.139-7.059 0-6.897-3.267-6.897-7.341v-13.269h-2.016v13.269c0 5.405.363 9.236 8.913 9.236 8.591 0 9.115-3.831 9.115-9.074"/><path fill="#231f20" d="M101.3 755.84h1.974v-22.021H101.3v22.021z"/><path fill="#231f20" d="M117.31 743.446c3.562 0 5.332 1.736 5.332 5.243 0 3.505-1.91 5.17-5.42 5.17h-8.277v-10.413h8.365zm-10.339 12.389h10.309c5.112 0 7.43-2.541 7.43-7.058 0-4.547-2.288-7.311-7.458-7.311h-8.307v-7.652h-1.974v22.021z"/></g><g clip-path="url(#b)" transform="matrix(2.77684 0 0 -2.77684 -119.342 2106.802)"><path fill="#231f20" d="M129.025 746.398h15.003c-.201 4.396-.484 8.147-6.897 8.147-6.17 0-7.864-3.348-8.106-8.147m-2.017-1.493c0 6.493 1.856 11.495 10.165 11.495 8.59 0 8.872-5.767 8.832-11.857h-17.02c.04-5.365 1.37-9.358 8.348-9.358 3.711 0 5.405 1.009 7.22 2.339l1.128-1.492c-2.016-1.492-4.395-2.662-8.348-2.662-8.711 0-10.325 5.042-10.325 11.535"/><path fill="#231f20" d="M45.703 729.036c8.55 0 8.914 3.831 8.914 9.236v17.604H52.6v-17.604c0-4.073.161-7.341-6.897-7.341-.267 0-.52.007-.767.017v-1.902c.248-.006.503-.01.767-.01"/></g><g clip-path="url(#c)" transform="matrix(2.77684 0 0 -2.77684 -119.342 2106.802)"><path fill="#231f20" d="M155.336 736.323c-.669 0-1.213-.544-1.213-1.212s.544-1.212 1.213-1.212c.667 0 1.211.544 1.211 1.212s-.544 1.212-1.211 1.212m0-2.604c-.768 0-1.393.624-1.393 1.392 0 .767.625 1.392 1.393 1.392s1.391-.625 1.391-1.392c0-.768-.623-1.392-1.391-1.392"/><path fill="#231f20" d="M155.475 735.125c.218 0 .344.063.344.297 0 .231-.122.284-.351.284h-.489v-.581h.496zm-.05-.2h-.446v-.615h-.213v1.599h.712c.405 0 .561-.166.561-.482 0-.258-.11-.436-.386-.487l.361-.63h-.231l-.358.615z"/></g></svg>