<svg xmlns="http://www.w3.org/2000/svg" role="img" viewBox="-5.45 8.80 283.14 37.14"><title>Khan Academy (Adopter) logo</title><path d="M87.33 14.79h-5.4l-.107.295-9.201 25.322h3.391c.902 0 1.592-.111 2.148-.504.555-.396.877-1 1.164-1.811l1.426-4.021h7.723l1.428 4.02c.289.814.621 1.422 1.186 1.814.562.391 1.258.502 2.16.502h3.355L87.33 14.79zm-2.719 6.959c.176.686.385 1.459.584 2.059l1.922 5.607h-5.014l1.922-5.605c.201-.602.412-1.375.586-2.061zM47.183 35.103l-.402.193.398-.201-3.131-6.303c-.422-.826-.883-1.312-1.244-1.59.334-.307.775-.807 1.199-1.58l5.936-10.832H43.9l-5.105 9.498c-.162.269-.314.377-.555.463-.242.082-.594.104-1.035.101h-2.189v-7.246c0-.873-.186-1.602-.686-2.111-.506-.508-1.238-.705-2.131-.705h-2.715v25.619h5.531V29.614h1.91c.482 0 .885.016 1.16.1.279.09.438.197.601.496l4.035 8.103c.416.844.887 1.41 1.535 1.729.646.315 1.375.365 2.314.367h3.35l-.342-.656c-.002-.006-2.057-3.941-2.395-4.65zm23.445-20.311h-2.191c-.877-.002-1.607.195-2.115.701-.504.506-.705 1.236-.701 2.113v7.664h-8.207v-7.664c0-.873-.184-1.602-.685-2.111-.508-.508-1.238-.705-2.133-.703h-2.641v25.617h5.459V30.034h8.207v10.375h5.457V14.792h-.45zm46.985-.002h-2.193c-.895 0-1.627.197-2.129.705-.504.51-.689 1.238-.689 2.111v11.316c0 .379.018.797.043 1.209-.338-.656-.725-1.354-1.104-1.91l-8.139-13.432h-5.258v25.619h2.65c.887 0 1.615-.186 2.119-.69.506-.508.689-1.236.689-2.129V26.312c0-.373-.016-.785-.039-1.191.336.658.725 1.352 1.105 1.899l8.17 13.391h5.221V14.79h-.446zm11.916.149h2.713l9.652 25.434h-.752c-1.809 0-2.301-.361-2.953-2.098l-2.258-6.006h-10.092l-2.295 6.006c-.65 1.736-1.105 2.098-2.918 2.098h-.734l9.637-25.434zm5.715 15.123l-3.363-9.082c-.436-1.193-.977-3.291-.977-3.291h-.072s-.543 2.098-.977 3.291l-3.33 9.082h8.719zm37.724-15.123h2.713l9.652 25.434h-.752c-1.809 0-2.301-.361-2.951-2.098l-2.258-6.006h-10.094l-2.295 6.006c-.65 1.736-1.105 2.098-2.916 2.098h-.738l9.639-25.434zm5.717 15.123l-3.365-9.082c-.434-1.193-.977-3.291-.977-3.291h-.072s-.543 2.098-.979 3.291l-3.328 9.082h8.721zm50.098-15.123h2.568l6.729 14.797c.615 1.303 1.268 3.002 1.268 3.002h.072s.65-1.699 1.229-3.002l6.73-14.797h2.568l2.215 25.434h-.73c-1.557 0-2.1-.652-2.207-2.207l-1.193-15.447c-.111-1.377-.111-3.547-.111-3.547h-.072s-.688 2.244-1.303 3.547l-6.039 12.914h-2.277l-6.008-12.914c-.58-1.268-1.338-3.619-1.338-3.619h-.072s0 2.242-.109 3.619l-1.195 15.447c-.107 1.555-.65 2.207-2.207 2.207h-.592l2.074-25.434zm32.178 14.363l-8.857-14.363h.752c1.736 0 2.387.252 3.473 2.025l4.307 7.199c.795 1.338 1.553 2.859 1.553 2.859h.074s.76-1.521 1.555-2.859l4.305-7.199c1.086-1.774 1.736-2.025 3.475-2.025h.752l-8.855 14.363v11.07h-2.531v-11.07zm-100.112-8.188c-.98-2.088-3.752-4.477-7.818-4.477-5.643 0-9.982 4.414-9.982 10.564 0 6.078 4.305 10.963 10.094 10.963 2.756 0 4.965-.916 6.34-1.93 1.672-1.23 3.428.193 3.428.193s-3.51 4.121-9.805 4.121c-7.453 0-12.699-5.932-12.699-13.348 0-7.344 5.391-12.951 12.555-12.951 3.617 0 8.078 1.606 9.768 5.441.791 1.74.893 2.566.893 2.566s-2.116.257-2.774-1.142zm33.947-6.175h-7.851v23.226c0 1.555.652 2.207 2.207 2.207h5.644c7.67 0 12.772-4.633 12.772-12.736 0-8.029-5.102-12.697-12.772-12.697zm-.251 23.189h-4.27c-.506 0-.795-.252-.795-.797v-20.15h5.064c6.223 0 10.383 3.691 10.383 10.455 0 6.803-4.125 10.492-10.382 10.492zm27.398 0h-8.933c-.508 0-.797-.252-.797-.797v-8.645h9.551v-2.242h-9.551V17.18h11.868v-.033c0-1.559-.652-2.209-2.209-2.209h-12.191v23.226c0 1.555.652 2.207 2.207 2.207h11c1.553 0 2.205-.652 2.205-2.207v-.037h-3.15z" fill="#26303D"/><path fill="#9DB63B" d="M1.127 38.792s-4.051-9.692 3.21-16.919c6.597-6.561 16.55-7.575 18.277-7.623 0 0 2.673 8.773-4 18.717-6.666 9.947-15.912 7.249-15.912 7.249s9.134-11.644 8.03-11.574c-.767.047-5.561 5.323-9.605 10.15z"/></svg>