<svg xmlns="http://www.w3.org/2000/svg" role="img" viewBox="-14.78 -5.78 1028.56 161.56"><title>LF Energy (Associate) logo</title><style>svg {enable-background:new 0 0 1000 151.07}</style><style>.st209{fill:#1b98d5}</style><path d="M29.35 111.99V63.54H5.05v72.75h72.74v-24.3z" class="st209"/><path fill="#173963" d="M126.23 14.94H5.05v36.37h24.14V39.4h72.91v72.59H89.86v24.3h36.37zm32.14 1.46h37.02v89.23h53.01v30.66h-90.03zm105.85 0h92.65v30.67h-55.78v15h47.79v28.55h-47.79v45.67h-37.03V16.4z"/><path d="M452.29 136.94h-67.04V16.08h67.04v7.83h-58.4v45.67h55.14v7.83h-55.14v51.87h58.4zm116.78 0h-8.65L487.84 29.62h-.65c.65 12.73.98 22.35.98 28.87v78.29h-8.16V16.08h8.48l72.58 107.16h.49c-.49-9.95-.82-19.41-.82-28.22V16.08h8.32v120.86zm101.78 0h-67.03V16.08h67.03v7.83h-58.39v45.67h55.13v7.83h-55.13v51.87h58.39zm36.21-52.68v52.69h-8.48V16.08h29.2c15.17 0 26.43 2.77 33.77 8.32 7.34 5.55 10.93 13.87 10.93 24.96 0 8.15-2.12 15-6.52 20.55-4.41 5.55-10.93 9.62-19.74 11.91l33.27 54.97h-10.44l-31.65-52.7h-30.34v.17zm0-7.18h23.33c10.28 0 18.43-2.28 23.98-6.85 5.7-4.57 8.48-11.25 8.48-20.06 0-9.13-2.77-15.82-8.32-20.06-5.55-4.24-14.68-6.36-27.4-6.36h-20.06v53.33zm140.44-2.45h44.2v53.83c-11.58 4.89-24.63 7.34-39.15 7.34-18.92 0-33.43-5.22-43.39-15.82-9.94-10.6-15.16-25.45-15.16-44.69 0-12.07 2.45-22.67 7.5-31.97 5.05-9.3 12.23-16.48 21.53-21.53 9.3-5.05 20.06-7.67 32.13-7.67 13.05 0 24.79 2.44 35.23 7.18l-3.42 7.5c-10.44-4.73-21.2-7.18-32.3-7.18-15.82 0-28.38 4.73-37.51 14.35-9.13 9.62-13.87 22.51-13.87 38.82 0 17.78 4.41 31.15 13.21 40.12 8.81 8.97 21.69 13.37 38.82 13.37 11.09 0 20.39-1.47 28.05-4.56V82.3h-35.72v-7.67h-.15zm102.6 7.18l35.72-65.73h9.13l-40.61 73.73v46.48h-8.81V90.46l-40.78-74.38h9.79z" class="st209"/></svg>