<svg xmlns="http://www.w3.org/2000/svg" role="img" viewBox="-5.37 -3.37 408.98 87.73"><title>LFX Insights logo</title><defs><style>.cls-1{fill:#009ade}</style></defs><path d="M11.38 55.29V38.02H2.73v25.91h25.92v-8.64H11.38z" class="cls-1"/><path fill="#003764" d="M45.91 20.74H2.74V33.7h8.63v-4.28h25.91v25.87h-4.31v8.64h12.94V20.74zm8.7-.14h13.32v32.17h19.15v11.08H54.61zm40.98-.04h33.47v11.1h-20.13v5.39h17.28v10.31h-17.28v16.49H95.59z"/><path d="M148.79 40.91L134.6 20.74h15.58l6.52 11.71 6.4-11.71h14.73L164 41l15.4 22.82h-16L156 51l-7.61 12.86h-15.18zm55.92-20.13h4.08v42.84h-4.08zM217 32.66h3.78V38h.12c1.44-3.72 5.52-6.24 9.9-6.24 8.71 0 11.35 4.56 11.35 11.94v19.92h-3.78V44.3c0-5.28-1.74-9.36-7.87-9.36s-9.54 4.56-9.72 10.62v18.06H217zm50.78 9.06c-.18-4.68-3.78-6.78-8.1-6.78-3.36 0-7.32 1.32-7.32 5.34 0 3.3 3.78 4.56 6.42 5.22l5 1.14c4.32.66 8.82 3.18 8.82 8.58 0 6.72-6.66 9.3-12.42 9.3-7.26 0-12.06-3.3-12.72-10.92h3.78c.3 5.1 4.08 7.74 9.12 7.74 3.6 0 8.46-1.56 8.46-5.88 0-3.6-3.36-4.8-6.78-5.64l-4.86-1.08c-4.92-1.26-8.64-3.06-8.64-8.28 0-6.3 6.18-8.7 11.64-8.7 6.24 0 11 3.24 11.34 10zm10.39-20.94H282v6.06h-3.78zm0 11.88H282v31h-3.78zm37.2 28.44c0 9.3-3.72 14.88-13.74 14.88-6.18 0-12.36-2.82-12.84-9.36h3.78c.78 4.56 4.92 6.18 9.06 6.18 7 0 10-4.08 10-11.7v-4.2h-.12a10.57 10.57 0 0 1-9.84 6.36c-9.9 0-14-7-14-15.9 0-8.52 5-15.6 14-15.6a10.83 10.83 0 0 1 9.8 6.24h.12v-5.34h3.78zm-3.78-13.32c0-6.06-2.76-12.84-10-12.84s-10.2 6.42-10.2 12.84c0 6.24 3.18 12.3 10.2 12.3 6.58 0 10-6.08 10-12.3zm10.93-27h3.78V38h.12c1.44-3.72 5.52-6.24 9.9-6.24 8.7 0 11.34 4.56 11.34 11.94v19.92h-3.78V44.3c0-5.28-1.74-9.36-7.86-9.36s-9.54 4.56-9.72 10.62v18.06h-3.78zm38.29 11.88h6.3v3.18h-6.3v20.88c0 2.46.36 3.9 3.06 4.08a29.32 29.32 0 0 0 3.24-.18v3.24c-1.14 0-2.22.12-3.36.12-5 0-6.78-1.68-6.72-7V35.84h-5.4v-3.18H357v-9.3h3.78zm30.31 9.06c-.18-4.68-3.78-6.78-8.1-6.78-3.36 0-7.33 1.32-7.33 5.34 0 3.3 3.79 4.56 6.43 5.22l5 1.14c4.32.66 8.82 3.18 8.82 8.58 0 6.72-6.66 9.3-12.42 9.3-7.27 0-12.07-3.3-12.73-10.92h3.78c.3 5.1 4.09 7.74 9.13 7.74 3.6 0 8.46-1.56 8.46-5.88 0-3.6-3.36-4.8-6.78-5.64l-4.86-1.08c-4.93-1.26-8.65-3.06-8.65-8.28 0-6.3 6.18-8.7 11.65-8.7 6.24 0 11 3.24 11.34 10z" class="cls-1"/><path fill="none" stroke="#003764" stroke-miterlimit="10" stroke-width=".91" d="M191.01 76.6v-72"/></svg>