<svg xmlns="http://www.w3.org/2000/svg" role="img" viewBox="27.92 120.91 264.42 78.42"><title>Markdoc logo</title><path fill="#fff" d="M0 0h319v319H0z"/><rect width="122.982" height="68.333" x="164.336" y="126" fill="#FFD848" rx="3.482"/><path fill="#18181B" d="M180.397 142.259v35.39h11.215c8.972 0 14.705-7.377 14.705-17.944 0-10.368-5.284-17.446-14.605-17.446h-11.315zm10.817 30.505h-4.686v-25.62h4.785c5.832 0 8.723 5.184 8.723 12.561 0 7.526-3.09 13.059-8.822 13.059zm34.099 5.732c8.872 0 13.209-6.33 13.209-16.747v-3.589c0-10.418-4.337-16.748-13.209-16.748s-13.209 6.33-13.209 16.748v3.589c0 10.417 4.337 16.747 13.209 16.747zm0-5.034c-4.785 0-6.928-3.589-6.928-11.564v-3.888c0-7.975 2.143-11.564 6.928-11.564s6.928 3.589 6.928 11.564v3.888c0 7.975-2.143 11.564-6.928 11.564zm31.857 5.034c8.174 0 12.61-5.184 13.109-12.66l-6.081-1.147c-.299 5.683-2.592 8.723-6.779 8.723-4.686 0-6.978-4.137-6.978-11.863v-3.539c0-7.776 2.193-11.514 6.978-11.514 4.137 0 6.48 3.09 6.779 8.673l6.13-.947c-.648-8.723-5.283-12.81-12.859-12.81-8.873 0-13.309 6.38-13.309 16.698v3.688c0 10.318 4.287 16.698 13.01 16.698zm-209.9145-9.47l2.5421-12.561c.4486-2.044 1.0965-5.732 1.3458-7.975h.3489c-.1496 2.891-.2493 7.227-.2493 10.019v19.14h5.4829v-35.39H49l-3.3395 16c-.2492 1.496-.5483 3.44-.648 4.486h-.2991c-.0997-1.046-.3987-2.99-.6479-4.486l-3.3396-16H33v35.39h5.4829v-19.14c0-2.792-.0997-7.128-.2492-10.019h.3489c.299 2.243.8972 5.931 1.3458 7.975l2.542 12.561h4.7851zm35.5947-.399l2.5919 9.022h6.0312l-10.6667-35.39h-7.0779l-10.6667 35.39h6.0312l2.542-9.022h11.215zm-5.6822-21.284h.1994c.7975 4.337 2.0934 9.62 4.0872 16.349h-8.4237c1.9938-6.729 3.3396-12.012 4.1371-16.349zm31.906 15.801l7.128 14.505h6.729l-7.875-15.552c4.286-1.445 6.729-4.785 6.729-9.271 0-6.729-4.437-10.567-12.212-10.567H97.5103v35.39h6.1307v-14.505h5.433zm-5.433-4.386v-11.763h5.383c4.137 0 6.331 2.093 6.331 5.881 0 3.788-2.194 5.882-6.331 5.882h-5.383zm36.306 1.744l8.523 17.147h7.078l-11.065-21.383 10.019-14.007h-7.078l-11.415 16.648v-16.648h-6.13v35.39h6.13v-11.664l3.938-5.483z"/></svg>