<svg xmlns="http://www.w3.org/2000/svg" role="img" viewBox="-3.11 -3.11 161.85 29.10"><title>Morgan Stanley (Adopter) logo</title><path d="M150.789 14.804l-.034.211-.038-.211-3.431-9.852h-1.962l4.474 12.715v.102c-.268 1.218-1.031 2.711-1.725 3.18-.61.415-1.274.468-1.785.468-.246 0-.768-.087-.985-.139v1.532c.276.068.931.191 1.338.191.954 0 1.747-.238 2.423-.729.809-.588 1.715-2.113 2.145-3.426l4.461-13.895h-1.959l-2.922 9.853zm-6.813-3.075V10.52c0-2.102-.546-3.65-1.581-4.604-.882-.812-2.129-1.205-3.77-1.205-.854 0-1.628.154-2.302.456-.661.298-1.271.741-1.728 1.319-.907 1.137-1.409 2.822-1.409 4.865 0 2.273.643 4.01 1.828 5.164 1.248 1.219 2.85 1.477 3.955 1.477 2.869 0 4.275-1.57 4.864-2.99l-1.609-.771c-.388.864-1.264 2.174-3.255 2.174-1.139 0-2.091-.453-2.75-1.312-.639-.83-.977-1.993-.979-3.364h8.736zm-1.953-1.585h-6.73c.175-2.623 1.248-3.846 3.382-3.846 2.291 0 3.341 1.221 3.348 3.846zM27.362 6.64c-.993-1.268-2.409-1.94-4.097-1.94-1.687 0-3.104.672-4.1 1.939-.926 1.182-1.434 2.852-1.434 4.701s.508 3.517 1.434 4.7c.996 1.271 2.413 1.94 4.1 1.94 1.688 0 3.104-.67 4.098-1.94.926-1.184 1.437-2.851 1.437-4.7s-.512-3.519-1.438-4.7zm-4.097 9.756c-2.15 0-3.435-1.891-3.435-5.055 0-3.165 1.284-5.055 3.435-5.055s3.431 1.89 3.431 5.055c-.001 3.164-1.281 5.055-3.431 5.055zm10.006-5.861c.493-2.632 1.872-3.876 4.256-3.876V4.788c-2.029 0-3.218.793-4.257 2.654l-.018.023.019-.163V4.985h-2.003v12.792h2.003v-7.242zm49-5.973c.009-.85.286-1.519.822-1.979.545-.47 1.326-.706 2.327-.706 1.052 0 1.983.302 2.698.873.655.521 1.135 1.277 1.353 2.147l1.866-.229c-.816-2.789-2.821-4.49-5.869-4.49-1.506 0-2.871.47-3.839 1.321-.939.83-1.46 1.97-1.46 3.209 0 1.365.559 2.437 1.71 3.276 1.015.74 2.349 1.212 3.641 1.668 2.246.799 4.37 1.551 4.37 3.59 0 .906-.307 1.666-.889 2.197-.642.584-1.586.879-2.805.879-2.138 0-3.691-1.197-4.565-3.5l-1.904.512c.411.935 1.11 2.293 2.128 3.201 1.118 1.002 2.507 1.487 4.244 1.487 2.062 0 3.624-.54 4.647-1.604 1.063-1.106 1.285-2.519 1.285-3.508 0-1.419-.589-2.53-1.798-3.395-1.059-.758-2.439-1.23-3.771-1.687-2.166-.741-4.213-1.44-4.191-3.262zM95.199 6.53h-1.922V4.944h1.922V.759h2.003v4.186h2.152V6.53h-2.152v8.742c0 .584.137 1.123 1.48 1.123.222 0 .45-.008.672-.021v1.408s-.758.199-1.329.199c-.902 0-1.584-.145-2.041-.451-.424-.29-.785-.754-.785-1.543V6.53zm34.516 8.742c0 .584.186 1.123 1.528 1.123.222 0 .447-.008.673-.021v1.408s-.759.199-1.33.199c-.902 0-1.585-.145-2.04-.451-.425-.29-.833-.754-.833-1.543V0h2.004l-.002 15.272zM66.67 8.282c.682-.728 2.196-1.955 3.586-1.955 1.391 0 2.01.686 2.01 2.219v9.236h2.003V8.497c0-2.768-1.974-3.754-3.842-3.754-1.304 0-2.634.686-3.757 1.957V4.989h-2.003v12.793h2.003v-9.5zm-7.343 7.916c.053.707.306 1.117.863 1.411.525.281 1.391.216 1.761.126v-1.359c-.446-.021-.739-.229-.739-.779V9.416l-.007-.815c0-1.277-.508-2.309-1.467-2.984-.79-.561-1.883-.868-3.068-.868-2.84 0-4.195 1.687-4.767 2.741l1.615.842c.225-.604 1.017-1.998 3.176-1.998 1.703 0 2.563.758 2.563 2.25l.002.46s.005.133-.035.183c-.063.08-.23.141-.664.186-2.386.266-3.97.669-5.136 1.418-1.265.813-2.061 1.947-2.061 3.508 0 1.109.54 2.053 1.246 2.727.656.621 1.564.936 2.553.965 2.105.064 3.493-.803 4.165-1.833zm-.012-2.14c-.093 1.119-2.176 2.48-3.884 2.384-.941-.052-1.868-.798-1.964-2.042-.156-2.078 1.428-2.957 4.915-3.34.242-.022.699-.107.933-.242v3.24zm49.951 2.14c.053.707.307 1.117.864 1.411.525.281 1.391.216 1.76.126v-1.359c-.445-.021-.738-.229-.738-.779V9.416l-.009-.815c0-1.277-.506-2.309-1.465-2.984-.792-.561-1.883-.868-3.068-.868-2.84 0-4.195 1.687-4.768 2.741l1.616.842c.224-.604 1.017-1.998 3.176-1.998 1.703 0 2.563.758 2.563 2.25l.002.46s.005.133-.035.183c-.063.08-.23.141-.664.186-2.386.266-3.969.669-5.136 1.418-1.265.813-2.06 1.947-2.06 3.508 0 1.109.539 2.053 1.246 2.727.656.621 1.563.936 2.552.965 2.103.064 3.493-.803 4.164-1.833zm-.012-2.14c-.092 1.119-2.176 2.48-3.884 2.384-.94-.052-1.868-.798-1.963-2.042-.157-2.078 1.428-2.957 4.915-3.34.242-.022.699-.107.932-.242v3.24zm-101.683.299L3.329.416H0v17.361h2.003V1.899l.043.059 4.758 15.819H8.36l4.758-15.819.044-.059v15.878h2.003V.416h-3.334L7.594 14.357l-.012.073-.011-.073zm109.037-6.075c.681-.728 2.196-1.955 3.587-1.955 1.388 0 2.009.686 2.009 2.219v9.236h2.003V8.497c0-2.768-1.973-3.754-3.843-3.754-1.304 0-2.634.686-3.757 1.957h.001-.001l.001-1.711h-2.002v12.793h2.002v-9.5zM47.391 4.976l-.427 1.35c-.735-.956-1.693-1.594-3.215-1.594-2.257 0-5.451 1.521-5.451 6.623 0 4.955 3.194 6.623 5.354 6.623 1.259 0 2.405-.69 3.19-1.695l.099-.049v2.431c0 1.706-1.466 2.747-3.044 2.747-1.533 0-2.894-.291-4.001-.809v1.732c.933.4 2.451.658 3.756.658 3.548 0 5.238-1.959 5.238-4.789V4.976h-1.499zm-.451 9.082c-.519 1.474-1.989 2.334-3.044 2.334-2.061 0-3.499-1.285-3.499-5.136 0-3.238 1.292-4.938 3.499-4.938 1.129 0 2.108.491 3.044 1.652v6.088z"/></svg>