<svg xmlns="http://www.w3.org/2000/svg" role="img" viewBox="-4.55 -4.55 236.34 63.84"><title>National Instruments (Member) logo</title><path d="M76.13021 18.4937h-3.57c-2.6575-3.215-6.2525-7.4425-7.94875-10.37876h-.05V18.4937h-4.2025V.7737h3.87375c2.55625 3.13875 6.37875 7.74625 7.645 10.15125h.05V.7737h4.2025v17.72m12.3775-17.72l6.73375 17.72h-5.67l-1.3925-4.2275h-5.4925l-1.69625 4.2275h-4.1775l7.215-17.72h4.48zm-1.18875 10.6825c-.5825-2.10125-1.08875-3.7975-1.7225-6.32875h-.05c-.68375 2.53125-1.29125 4.2275-1.94875 6.32875h3.72125m9.61875 7.0375V4.08994h-5.11375V.7737h15.56875v3.31625h-5.11375V18.4937h-5.34125m12.175 0V.7737h5.34125v17.72h-5.34125zm6.6275-9.0625c0-4.96125 3.72125-8.96125 8.80875-8.96125 5.08875 0 8.81 4 8.81 8.96125 0 5.29-3.36625 9.36625-8.81 9.36625-5.4425 0-8.80875-4.07625-8.80875-9.36625zm12.05 0c0-3.13875-.9625-5.265-3.24125-5.265-2.2775 0-3.24 2.12625-3.24 5.265 0 3.34125.86125 5.67 3.24 5.67 2.38 0 3.24125-2.32875 3.24125-5.67m22.6275 9.0625h-3.56875c-2.65875-3.215-6.2525-7.4425-7.94875-10.37875h-.05125V18.4937h-4.20125V.7737h3.8725c2.55625 3.13875 6.37875 7.74625 7.645 10.15125h.05125V.7737h4.20125v17.72m12.125-17.72l6.73375 17.72h-5.67l-1.3925-4.2275h-5.49375l-1.69625 4.2275h-4.17625l7.215-17.72h4.48zm-1.19 10.6825c-.58125-2.10125-1.08875-3.7975-1.72125-6.32875h-.05c-.68375 2.53125-1.29125 4.2275-1.95 6.32875h3.72125M170.46646.7737h5.34125v14.40375h6.48v3.31625h-11.82125V.7737M52.38521 41.69994v-17.72h5.34125v17.72h-5.34125zm23.38625 0h-3.56875c-2.6575-3.215-6.2525-7.4425-7.94875-10.37875h-.05v10.37875h-4.2025v-17.72h3.8725c2.5575 3.14 6.38 7.74625 7.645 10.15125h.05125V23.97994h4.20125v17.72m11.265-14.04875c-.70875-.43-1.62-.65875-2.6075-.65875-1.0375 0-1.56875.50625-1.56875 1.08875 0 .9875 1.4925 1.7975 3.215 3.3925 2.2775 2.12625 2.835 3.4675 2.835 5.31625 0 1.56875-1.29125 5.215-6.6075 5.215-2.07625 0-4.15125-.48125-5.56875-1.62125l1.62-2.93625c.75875.5825 1.77125 1.24 3.0375 1.24 1.0625 0 2.2275-.53125 2.2275-1.8475 0-1.4175-1.72125-2.455-3.11375-3.67-1.8475-1.62-2.93625-2.5575-2.93625-4.73375 0-2.83625 2.86-4.76 6.2025-4.76 2.2525 0 4.025.81 4.6325 1.19l-1.3675 2.785m7.1375 14.04875V27.2962h-5.11375v-3.31625h15.5675v3.31625h-5.1125v14.40375h-5.34125m12.17375-17.72h7.8975c4.1775 0 6.43 1.82375 6.43 4.735 0 2.7075-1.34125 4.3025-2.9875 5.1125l3.92375 7.595-5.72.5825-2.81-7.0125h-1.3925v6.7075h-5.34125v-17.72zm5.34125 7.67125h1.51875c1.4175 0 2.12625-1.215 2.12625-2.1775 0-1.74625-1.08875-2.1775-2.2275-2.1775h-1.4175v4.355m15.92375-7.67125v9.26625c0 3.18875.48125 5.0625 2.73375 5.0625 1.7725 0 2.785-1.7725 2.785-5.13875v-9.19h4.6075V34.6887c0 5.29-3.595 7.31625-7.645 7.31625-4.53125 0-7.8225-1.89875-7.8225-7.19v-10.835h5.34125m33.99625 17.72h-5.34125V29.2962h-.05c-1.3675 4.6325-2.785 8.53125-4.2025 12.40375h-3.36625c-1.44375-3.8725-2.88625-7.77125-4.27875-12.40375h-.05v12.40375h-4.2025v-17.72h7.24c1.215 3.3925 2.43 6.76 3.62 10.91125h.05c1.13875-4.15125 2.32875-7.51875 3.49375-10.91125h7.0875v17.72m13.03875-14.40375h-5.4175v3.49375h5.29125v3.31625h-5.29125v4.2775h6.50625v3.31625h-11.84625v-17.72h10.7575v3.31625m17.82 14.40375h-3.56875c-2.65875-3.215-6.2525-7.4425-7.94875-10.37875h-.05v10.37875h-4.2025v-17.72h3.8725c2.5575 3.14 6.37875 7.74625 7.645 10.15125h.05125V23.97994h4.20125v17.72m6.075 0V27.2962h-5.1125v-3.31625h15.5675v3.31625h-5.1125v14.40375h-5.3425m20.9075-14.04875c-.7075-.43-1.61875-.65875-2.60625-.65875-1.03875 0-1.57.50625-1.57 1.08875 0 .9875 1.49375 1.7975 3.215 3.3925 2.27875 2.12625 2.835 3.4675 2.835 5.31625 0 1.56875-1.29125 5.215-6.60625 5.215-2.07625 0-4.1525-.48125-5.57-1.62125l1.62-2.93625c.76.5825 1.7725 1.24 3.0375 1.24 1.06375 0 2.22875-.53125 2.22875-1.8475 0-1.4175-1.72125-2.455-3.11375-3.67-1.84875-1.62-2.9375-2.5575-2.9375-4.73375 0-2.83625 2.86125-4.76 6.2025-4.76 2.25375 0 4.025.81 4.6325 1.19l-1.3675 2.785m2.835-.62125v-2.505h-.95125v-.32125h2.385v.32125h-.945v2.505h-.48875zm5.15625 0h-.49v-2.085h-.01375l-1.12 2.085h-.23125l-1.04125-2.085h.00625-.01375v2.085h-.39875V24.2037h.56625l1.06375 2.11875 1.15375-2.11875h.51875v2.82625"/><path fill="#065fa3" stroke="#1465af" stroke-width=".262" d="M33.01146 7.46244c.155-2.7 2.485-4.98875 4.88125-5.67C43.87396.09494 47.07396.4062 57.79771.3187c-6.4275 5.75375-11.56 14.81875-10.41 23.6875-2.31125-1.88875-3.86875-4.59375-5.875-6.755.7425-1.4475 1.5025-2.8725 1.935-4.51.70875-2.68375 2.64375-3.3175 5.09375-3.2425.185.005-.14375-2.06625-.8225-2.25-1.825-.49375-3.3725.09375-5.4925-.7275-.68375-.265-1.4525.09375-2.025.38625-1.74.88875-2.84125 2.78875-4.79875 3.39125l-2.39125-2.83625zm-32.7875-1.735c3.6625-2.5 7.205-4.225 11.54875-5.01875 5.47375-1 11.40125-1.07375 15.49125 2.8675 7.71875 7.435 13.97125 15.23875 20.74375 23.73625.2675.335.245 1.24875.01125 1.3825-4.81 2.74-9.575 4.99375-14.705 6.88375-.81625.30125-1.845-.0575-2.355-.52-7.72-7.015-13.00875-15.4125-20.4175-22.7125-2.85625-2.815-6.28875-4.825-10.1225-6.01625-.30625-.095-.3625-.48875-.195-.6025z"/><path fill="#065fa3" stroke="#1465af" stroke-width=".262" d="M27.20646 39.9587c-5.57125 3.96624-10.32625 8.9075-13.85125 14.75874-1.34625-5.73875-1.43625-11.7975.55625-17.37125 1.93875-5.42375 2.30875-10.695 2.56625-16.34875 3.52125 4.0575 7.52125 8.54 10.815 12.60875l-.08625 6.3525z"/><path fill="#fff" d="M41.51271 17.2512c.7425-1.4475 1.5025-2.8725 1.935-4.51.70875-2.68376 2.64375-3.3175 5.09375-3.2425.185.005-.14375-2.06626-.8225-2.25-1.825-.49376-3.3725.09374-5.4925-.7275-.68375-.265-1.4525.09374-2.025.38624-1.74.88875-2.84125 2.78875-4.79875 3.39125l6.11 6.9525"/></svg>