<svg xmlns="http://www.w3.org/2000/svg" role="img" viewBox="-19.98 -19.98 1038.96 140.96"><title>openchain (Associate) logo</title><style>svg {enable-background:new 0 0 1000 102.2}</style><style>.st0{fill:#e0592a}.st1{fill:#00adbb}.st2{fill:#00829b}</style><g id="XMLID_2_"><g id="XMLID_17_"><g id="XMLID_20_"><path id="XMLID_21_" d="M78.8 87.7c-.4 0-.8-.2-1-.5-.5-.6-.4-1.4.1-1.9 9.8-8.6 15.3-21 15.3-33.9 0-7.9-2.1-15.8-6.1-22.6-.4-.7-.2-1.5.5-1.9.7-.4 1.5-.2 1.9.5 4.2 7.3 6.4 15.6 6.4 24 0 13.8-5.9 26.9-16.3 36-.2.1-.5.3-.8.3z" class="st0"/></g><g id="XMLID_18_"><path id="XMLID_19_" d="M48 99.3c-26.5 0-48-21.5-48-48s21.5-48 48-48c5.4 0 10.6.9 15.6 2.6.7.2 1.1 1 .9 1.8-.2.7-1 1.1-1.8.9C58 6.9 53 6.1 48 6.1 23 6.1 2.8 26.4 2.8 51.3 2.8 76.2 23 96.5 48 96.5c.8 0 1.4.6 1.4 1.4s-.7 1.4-1.4 1.4z" class="st0"/></g></g><g id="XMLID_10_"><g id="XMLID_15_"><path id="XMLID_16_" d="M169 99.3c-22.7 0-42.5-16.1-47-38.3-.2-.7.3-1.5 1.1-1.6.7-.2 1.5.3 1.6 1.1 4.3 20.9 22.9 36.1 44.3 36.1.8 0 1.4.6 1.4 1.4s-.6 1.3-1.4 1.3z" class="st1"/></g><g id="XMLID_12_"><path id="XMLID_13_" d="M199.9 87.6c-.4 0-.8-.2-1-.5-.5-.6-.4-1.4.1-1.9 9.7-8.6 15.3-20.9 15.3-33.9 0-24.9-20.3-45.2-45.2-45.2-16.1 0-31.1 8.7-39.2 22.6-.4.7-1.2.9-1.9.5s-.9-1.2-.5-1.9c8.6-14.8 24.5-24 41.6-24 26.5 0 48 21.5 48 48 0 13.8-5.9 26.9-16.2 36-.4.2-.7.3-1 .3z" class="st1"/></g></g><g id="XMLID_5_"><g id="XMLID_8_"><path id="XMLID_9_" d="M146.7 23.4c0 .1 0 .1 0 0-.5.4-.5 1-.2 1.5 5.1 7.4 8.1 16.3 8.1 25.8 0 9.9-3.2 19.1-8.5 26.5-.3.5-.3 1.1.2 1.4.5.4 1.2.3 1.6-.2 5.6-7.8 8.9-17.4 8.9-27.8 0-10.1-3.1-19.4-8.4-27.1-.5-.4-1.2-.4-1.7-.1z" class="st2"/></g><g id="XMLID_6_"><path id="XMLID_7_" d="M129 92.5c-.3-.3-.8-.4-1.2-.2-5.8 2.6-12.2 4.1-19 4.1-6.9 0-13.5-1.6-19.4-4.3-.4-.2-.9-.1-1.2.2-.5.5-.4 1.4.3 1.7 6.2 2.9 13.1 4.6 20.4 4.6 7.1 0 13.8-1.6 19.9-4.3.6-.4.8-1.3.2-1.8z" class="st2"/></g></g><g id="XMLID_3_"><path id="XMLID_4_" d="M72 79.1c-.4 0-.8-.2-1.1-.5-.2-.3-22.3-28.2-1-56.3C93.9-9 129.6 7.3 130 7.5c.7.3 1 1.1.7 1.8-.3.7-1.1 1-1.8.7-1.5-.7-34.2-15.6-56.7 14-20 26.3.7 52.6.9 52.8.5.6.4 1.5-.2 1.9-.3.3-.6.4-.9.4z" class="st2"/></g></g><g id="XMLID_22_"><g id="XMLID_1_"><path id="XMLID_208_" d="M228.8 51.2c0-6.5 1.2-12.7 3.7-18.5 2.5-5.8 5.9-10.9 10.2-15.3C247.1 13 252.2 9.6 258 7c5.8-2.5 12-3.8 18.6-3.8 6.5 0 12.7 1.3 18.5 3.8 5.8 2.5 10.9 6 15.3 10.4s7.8 9.5 10.4 15.3c2.5 5.8 3.8 12 3.8 18.5 0 6.6-1.3 12.8-3.8 18.6-2.5 5.8-6 10.9-10.4 15.2-4.4 4.3-9.5 7.7-15.3 10.2-5.8 2.5-12 3.7-18.5 3.7-6.6 0-12.8-1.2-18.6-3.7-5.8-2.5-10.9-5.9-15.2-10.2-4.3-4.3-7.7-9.4-10.2-15.2-2.5-5.8-3.8-12-3.8-18.6zm11.1 0c0 5.2 1 10 2.9 14.5s4.5 8.4 7.9 11.8 7.2 6 11.7 8c4.5 2 9.2 2.9 14.3 2.9 5.1 0 9.9-1 14.3-2.9 4.5-2 8.4-4.6 11.7-8s6-7.3 7.9-11.8c1.9-4.5 2.9-9.3 2.9-14.5s-1-10-2.9-14.5-4.5-8.4-7.9-11.8c-3.3-3.4-7.2-6.1-11.7-8-4.5-2-9.2-2.9-14.3-2.9-5.1 0-9.9 1-14.3 2.9-4.5 2-8.4 4.6-11.7 8-3.3 3.4-6 7.3-7.9 11.8-1.9 4.5-2.9 9.4-2.9 14.5z" class="st0"/><path id="XMLID_205_" d="M340.6 97.9V4.3h22.1c3 0 6.4.5 10.1 1.4 3.7.9 7.2 2.4 10.4 4.5s5.9 4.7 8 7.9c2.1 3.2 3.2 7.1 3.2 11.6 0 8.1-2.4 14.6-7.2 19.3-4.8 4.8-11.8 7.2-20.9 7.2h-14.6v41.7h-11.1zm11.1-52.4h11.6c3.9 0 7.2-.5 9.7-1.5 2.5-1 4.6-2.3 6.1-3.8s2.6-3.2 3.2-5.1c.6-1.9.9-3.7.9-5.4 0-2-.5-3.9-1.5-5.7-1-1.8-2.4-3.4-4.1-4.8-1.7-1.4-3.8-2.5-6.3-3.3-2.5-.8-5.1-1.2-7.8-1.2h-11.8v30.8z" class="st0"/><path id="XMLID_203_" d="M407.5 97.9V4.3h57.7v10.6h-46.6v30.6H460v10.6h-41.3v31.3h48.4V98h-59.6z" class="st0"/><path id="XMLID_201_" d="M573.8 4.3v97.9c-11.5-12.2-22.9-24.3-34.2-36.4-11.3-12-22.7-24.2-34.2-36.4-.4-.6-.9-1.2-1.3-1.7s-.8-1.1-1.3-1.7c.1.7.2 1.4.2 2.1 0 .7.1 1.4.2 2.1v67.7h-11.1V0c11.5 12.5 22.9 24.9 34.2 37.1 11.3 12.3 22.7 24.6 34.2 37.1.4.6.9 1.2 1.3 1.7s.8 1.1 1.3 1.7c-.1-.7-.2-1.4-.2-2.1 0-.7-.1-1.4-.2-2.1V4.3h11.1z" class="st0"/><path id="XMLID_199_" d="M663.3 85.6l4.5 6.7c-3.6 2.1-7.4 3.7-11.4 4.9-4.1 1.2-8.4 1.8-12.9 1.8-6.6 0-12.8-1.2-18.6-3.7-5.8-2.5-10.9-5.9-15.2-10.2-4.3-4.3-7.7-9.4-10.2-15.2-2.5-5.8-3.7-12-3.7-18.6s1.2-12.8 3.7-18.7c2.5-5.8 5.9-10.9 10.2-15.3C614 13 619.1 9.6 624.9 7c5.8-2.5 12-3.8 18.6-3.8 4.5 0 8.9.6 12.9 1.7 4.1 1.2 7.9 2.8 11.6 4.9-.7 1.2-1.5 2.3-2.3 3.4-.8 1.1-1.6 2.3-2.4 3.4-6-3.7-12.6-5.5-19.8-5.5-5.4 0-10.5 1-15.3 3.1-4.8 2.1-8.9 5-12.5 8.6-3.6 3.7-6.4 7.9-8.5 12.8-2.1 4.9-3.1 10-3.1 15.5s1 10.7 3.1 15.5c2.1 4.8 4.9 9 8.4 12.6 3.6 3.6 7.7 6.5 12.5 8.6 4.8 2.1 9.9 3.1 15.3 3.1 3.7 0 7.1-.5 10.4-1.4 3.3-.7 6.5-2.1 9.5-3.9z" class="st1"/><path id="XMLID_197_" d="M688.6 97.9V4.3h8.3v42.5h54V4.3h8.4c0 15.7 0 31.3-.1 46.8 0 15.5-.1 31.1-.1 46.8h-8.3V54.7h-54v43.2h-8.2z" class="st1"/><path id="XMLID_194_" d="M861.8 97.9h-8.4c-2.8-6.4-5.5-12.9-8.2-19.3-2.7-6.5-5.4-12.9-8.2-19.3h-33.6c-2.7 6.4-5.4 12.9-8.1 19.3-2.7 6.5-5.5 12.9-8.2 19.3h-8.3c7-16.4 13.9-32.7 20.7-49 6.9-16.2 13.8-32.6 20.7-49 7 16.4 13.9 32.7 20.7 49 7 16.3 14 32.6 20.9 49zm-40.3-75.3l-.6-2.1-.6-2.1c-1.8 5.6-3.9 11.1-6.3 16.6-2.4 5.4-4.8 10.9-7.1 16.3h26.6c-2.1-4.8-4.1-9.6-6-14.4-1.9-4.7-3.9-9.5-6-14.3z" class="st1"/><path id="XMLID_192_" d="M883.2 4.3h8.4v93.6h-8.4V4.3z" class="st1"/><path id="XMLID_190_" d="M1000 4.3v97.9c-12-13.3-23.8-26.5-35.6-39.5-11.8-13.1-23.7-26.2-35.7-39.5-.4-.6-.9-1.2-1.3-1.7s-.8-1.1-1.3-1.7c.1.7.2 1.4.2 2.1 0 .7.1 1.4.2 2.1v74h-8.3V0c11.9 13.5 23.8 26.8 35.6 40.1s23.7 26.7 35.7 40.1c.4.6.9 1.2 1.3 1.7s.8 1.1 1.3 1.7c-.1-.7-.2-1.4-.2-2.1 0-.7-.1-1.4-.2-2.1V4.3h8.3z" class="st1"/></g></g></svg>