<svg xmlns="http://www.w3.org/2000/svg" role="img" viewBox="-7.48 38.77 414.70 167.20"><title>OpenSSF (Associate) logo</title><style>svg {enable-background:new 0 0 400 245}</style><style>.st0,.st2{fill:#0a3655}.st2,.st3,.st4,.st5,.st6,.st8,.st9{fill-rule:evenodd;clip-rule:evenodd}.st3{fill:#6998b8}.st4{fill:#f7c37a}.st5{fill:#a2c9d2}.st6{fill:#fbe6ad}.st8{fill:#d2e5ea}.st9{fill:#fff}</style><g><g><g><path d="M144.9 140.8c0 4.7-2.3 7-7 7H113c-4.5 0-6.8-2.3-6.8-7V78.1c0-4.7 2.3-7.1 6.8-7.1h24.9c4.6 0 7 2.4 7 7.1V140.8zM133.4 138v-57h-15.8v57L133.4 138 133.4 138zM186.6 137.8c0 4-1.4 6.8-4.3 8.4-2.1 1.2-5.3 1.7-9.5 1.7-1 0-2.4 0-4.1-.1-1.8-.1-3-.1-3.8-.1v18.1h-11.2V98.3h11.2v1.8c2.6-.4 5.2-.8 7.9-1.2 3.3-.5 5.9-.8 7.9-.8 4.1 0 6.1 2 6.1 6L186.6 137.8 186.6 137.8zM175.3 134.8v-27.1l-10.5.2v30.6h7C174.1 138.5 175.3 137.2 175.3 134.8zM226.5 141.7c0 4.1-2.1 6.1-6.3 6.1h-19.4c-4.2 0-6.3-2-6.3-6.1v-37.3c0-4.1 2.1-6.1 6.3-6.1h19.4c4.2 0 6.3 2 6.3 6.1v18.2l-3.1 3.1h-18.2v13.9h10.5v-8.2h10.7V141.7zM215.8 118.4v-11.9h-10.5v11.9H215.8zM267.7 147.8h-11.3v-40.1l-10.5.2v40h-11.2V98.3h11.2v1.8c2.6-.4 5.2-.8 7.8-1.2 3.2-.5 5.9-.8 7.9-.8 4.1 0 6.1 2 6.1 6V147.8L267.7 147.8zM313.1 140.8c0 4.7-2.3 7-7 7H283c-4.6 0-6.9-2.3-6.9-7v-18.3h11.5v15.6h14v-15.1l-23-21.8c-1.7-1.6-2.5-3.6-2.5-6.1V78.1c0-4.7 2.3-7.1 6.9-7.1h23.1c4.6 0 7 2.3 7 7v17.2h-11.5V80.7h-14v13.9l23 21.7c1.7 1.6 2.5 3.6 2.5 6.2V140.8zM359 140.8c0 4.7-2.3 7-7 7h-23.1c-4.6 0-6.9-2.3-6.9-7v-18.3h11.5v15.6h14v-15.1l-23-21.8c-1.7-1.6-2.5-3.6-2.5-6.1V78.1c0-4.7 2.3-7.1 6.9-7.1H352c4.6 0 7 2.3 7 7v17.2h-11.5V80.7h-14v13.9l23 21.7c1.7 1.6 2.5 3.6 2.5 6.2L359 140.8 359 140.8zM399.4 81.2h-19.8v22.7h17v9.9h-17v33.9h-11.5V71.1h31.3L399.4 81.2 399.4 81.2z" class="st0"/></g><g><path fill="#a2c9d2" d="M115.5 186.6c0 1.6-.4 2.8-1.2 3.7-.8.9-2 1.3-3.4 1.3-1.4 0-2.5-.4-3.3-1.3s-1.2-2.1-1.2-3.7V183c0-1.6.4-2.8 1.2-3.7.8-.9 1.9-1.3 3.3-1.3 1.4 0 2.5.4 3.3 1.3.8.9 1.2 2.1 1.2 3.7V186.6zM113.7 182.9c0-1.2-.2-2-.7-2.6-.5-.6-1.1-.9-2-.9-.8 0-1.5.3-2 .9-.4.6-.7 1.5-.7 2.6v3.7c0 1.2.2 2 .7 2.6.4.6 1.1.9 2 .9.9 0 1.5-.3 2-.9s.7-1.5.7-2.6V182.9zM119.6 186.2v5.3h-1.9v-13.3h4.4c1.3 0 2.2.4 3 1.1.7.7 1.1 1.7 1.1 2.9 0 1.2-.4 2.2-1.1 2.9-.7.7-1.7 1.1-3 1.1H119.6zM119.6 184.8h2.6c.7 0 1.2-.2 1.6-.7.4-.5.6-1.1.6-1.8 0-.8-.2-1.4-.6-1.9-.4-.5-.9-.8-1.6-.8h-2.6L119.6 184.8 119.6 184.8zM135.2 185.3h-5.1v4.8h5.9v1.4h-7.7v-13.3h7.7v1.4h-5.8v4.3h5.1V185.3zM146.7 191.4h-1.9l-5.1-9.9h0v9.9h-1.9v-13.3h1.9l5.1 9.8h0v-9.8h1.9L146.7 191.4 146.7 191.4zM159.8 188.1c0-.6-.2-1.1-.5-1.5s-1-.8-1.9-1c-1.3-.4-2.3-.9-3-1.5-.7-.6-1-1.4-1-2.4 0-1 .4-1.9 1.2-2.6.8-.7 1.8-1 3-1 1.2 0 2.3.4 3 1.2.8.8 1.1 1.7 1.1 2.8v0h-1.8c0-.8-.2-1.4-.6-1.9-.4-.5-1-.7-1.7-.7-.7 0-1.2.2-1.6.6-.4.4-.6.9-.6 1.6 0 .6.2 1 .6 1.4.4.4 1.1.7 2 1 1.2.4 2.2.9 2.8 1.5.6.6 1 1.5 1 2.5 0 1.1-.4 2-1.2 2.6-.8.6-1.8 1-3 1-1.2 0-2.3-.4-3.2-1-.9-.7-1.3-1.7-1.3-3v0h1.8c0 .9.2 1.6.7 2s1.1.6 1.9.6c.7 0 1.3-.2 1.7-.6C159.6 189.2 159.8 188.7 159.8 188.1zM172.3 186.6c0 1.6-.4 2.8-1.2 3.7-.8.9-2 1.3-3.4 1.3-1.4 0-2.5-.4-3.3-1.3-.8-.9-1.2-2.1-1.2-3.7V183c0-1.6.4-2.8 1.2-3.7.8-.9 1.9-1.3 3.3-1.3 1.4 0 2.5.4 3.3 1.3.8.9 1.2 2.1 1.2 3.7V186.6zM170.4 182.9c0-1.2-.2-2-.7-2.6-.5-.6-1.1-.9-2-.9-.8 0-1.5.3-2 .9-.4.6-.7 1.5-.7 2.6v3.7c0 1.2.2 2 .7 2.6.4.6 1.1.9 2 .9.9 0 1.5-.3 2-.9.5-.6.7-1.5.7-2.6V182.9zM182.9 178.2v9.2c0 1.4-.4 2.4-1.2 3.2-.8.7-1.8 1.1-3.2 1.1-1.3 0-2.3-.4-3.1-1.1-.8-.7-1.2-1.8-1.2-3.2v-9.2h1.9v9.2c0 1 .2 1.6.6 2.1.4.5 1 .7 1.8.7.8 0 1.4-.2 1.8-.7.4-.5.7-1.2.7-2.2v-9.2H182.9L182.9 178.2zM187.2 185.7v5.7h-1.9v-13.3h4.2c1.3 0 2.3.3 3 1 .7.6 1 1.6 1 2.8 0 .7-.2 1.3-.5 1.8s-.8.9-1.4 1.2c.7.2 1.2.6 1.5 1.2.3.5.4 1.2.4 2v1.2c0 .4 0 .8.1 1.1.1.4.2.6.4.8v.2h-2c-.2-.2-.4-.5-.4-.9 0-.4-.1-.8-.1-1.3v-1.1c0-.8-.2-1.3-.5-1.8-.4-.4-.8-.6-1.4-.6L187.2 185.7 187.2 185.7zM187.2 184.3h2.2c.8 0 1.3-.2 1.7-.6s.6-1 .6-1.7c0-.8-.2-1.4-.5-1.8-.4-.4-.9-.6-1.6-.6h-2.3L187.2 184.3 187.2 184.3zM204.2 187.4L204.2 187.4c0 1.4-.3 2.4-1 3.1s-1.7 1.1-3 1.1c-1.3 0-2.4-.4-3.2-1.3-.8-.9-1.2-2.1-1.2-3.6v-3.7c0-1.6.4-2.8 1.2-3.7.8-.9 1.8-1.3 3.2-1.3 1.3 0 2.4.4 3.1 1.1.7.7 1.1 1.8 1.1 3.1l0 0h-1.8c0-1-.2-1.7-.6-2.1-.4-.4-1-.7-1.8-.7-.8 0-1.4.3-1.8.9-.4.6-.6 1.5-.6 2.6v3.7c0 1.2.2 2 .6 2.6s1 .9 1.8.9 1.4-.2 1.7-.7.6-1.2.6-2.1L204.2 187.4 204.2 187.4zM213.2 185.3h-5.1v4.8h5.9v1.4h-7.7v-13.3h7.7v1.4h-5.8v4.3h5.1V185.3zM226.1 188.1c0-.6-.2-1.1-.5-1.5-.4-.4-1-.8-1.9-1-1.3-.4-2.3-.9-3-1.5-.7-.6-1-1.4-1-2.4 0-1 .4-1.9 1.2-2.6.8-.7 1.8-1 3-1 1.2 0 2.3.4 3 1.2.8.8 1.1 1.7 1.1 2.8v0h-1.8c0-.8-.2-1.4-.6-1.9-.4-.5-1-.7-1.7-.7-.7 0-1.2.2-1.6.6-.4.4-.6.9-.6 1.6 0 .6.2 1 .6 1.4s1.1.7 2 1c1.2.4 2.2.9 2.8 1.5s1 1.5 1 2.5c0 1.1-.4 2-1.2 2.6-.8.6-1.8 1-3 1-1.2 0-2.3-.4-3.2-1-.9-.7-1.3-1.7-1.3-3v0h1.8c0 .9.2 1.6.7 2 .5.4 1.1.6 1.9.6.7 0 1.3-.2 1.7-.6C225.9 189.2 226.1 188.7 226.1 188.1zM237 185.3h-5.1v4.8h5.9v1.4H230v-13.3h7.7v1.4h-5.8v4.3h5.1L237 185.3 237 185.3zM247.5 187.4L247.5 187.4c0 1.4-.3 2.4-1 3.1-.7.7-1.7 1.1-3 1.1-1.3 0-2.4-.4-3.2-1.3-.8-.9-1.2-2.1-1.2-3.6v-3.7c0-1.6.4-2.8 1.2-3.7.8-.9 1.8-1.3 3.2-1.3 1.3 0 2.4.4 3.1 1.1.7.7 1.1 1.8 1.1 3.1l0 0h-1.8c0-1-.2-1.7-.6-2.1-.4-.4-1-.7-1.8-.7-.8 0-1.4.3-1.8.9-.4.6-.6 1.5-.6 2.6v3.7c0 1.2.2 2 .6 2.6.4.6 1 .9 1.8.9.8 0 1.4-.2 1.7-.7.4-.4.6-1.2.6-2.1L247.5 187.4 247.5 187.4zM258 178.2v9.2c0 1.4-.4 2.4-1.2 3.2-.8.7-1.8 1.1-3.2 1.1-1.3 0-2.3-.4-3.1-1.1-.8-.7-1.2-1.8-1.2-3.2v-9.2h1.9v9.2c0 1 .2 1.6.6 2.1.4.5 1 .7 1.8.7.8 0 1.4-.2 1.8-.7.4-.5.7-1.2.7-2.2v-9.2H258L258 178.2zM262.3 185.7v5.7h-1.9v-13.3h4.2c1.3 0 2.3.3 3 1 .7.6 1 1.6 1 2.8 0 .7-.2 1.3-.5 1.8-.3.5-.8.9-1.4 1.2.7.2 1.2.6 1.5 1.2.3.5.4 1.2.4 2v1.2c0 .4 0 .8.1 1.1.1.4.2.6.4.8v.2h-2c-.2-.2-.4-.5-.4-.9 0-.4-.1-.8-.1-1.3v-1.1c0-.8-.2-1.3-.5-1.8-.4-.4-.8-.6-1.4-.6L262.3 185.7 262.3 185.7zM262.3 184.3h2.2c.8 0 1.3-.2 1.7-.6s.6-1 .6-1.7c0-.8-.2-1.4-.5-1.8-.4-.4-.9-.6-1.6-.6h-2.3L262.3 184.3 262.3 184.3zM273.3 191.4h-1.9v-13.3h1.9V191.4zM283.7 179.6h-3.5v11.9h-1.9v-11.9h-3.5v-1.4h8.9L283.7 179.6 283.7 179.6zM289.2 184.6L289.2 184.6l2.8-6.5h2.1l-4 8.5v4.8h-1.9v-4.9l-3.9-8.4h2.1L289.2 184.6zM306.8 185.5h-5.1v5.9h-1.9v-13.3h7.7v1.4h-5.9v4.6h5.1V185.5zM318 186.6c0 1.6-.4 2.8-1.2 3.7-.8.9-2 1.3-3.4 1.3-1.4 0-2.5-.4-3.3-1.3-.8-.9-1.2-2.1-1.2-3.7V183c0-1.6.4-2.8 1.2-3.7.8-.9 1.9-1.3 3.3-1.3 1.4 0 2.5.4 3.3 1.3.8.9 1.2 2.1 1.2 3.7V186.6L318 186.6zM316.1 182.9c0-1.2-.2-2-.7-2.6-.5-.6-1.1-.9-2-.9-.8 0-1.5.3-2 .9-.4.6-.7 1.5-.7 2.6v3.7c0 1.2.2 2 .7 2.6.4.6 1.1.9 2 .9.9 0 1.5-.3 2-.9s.7-1.5.7-2.6V182.9zM328.6 178.2v9.2c0 1.4-.4 2.4-1.2 3.2-.8.7-1.8 1.1-3.2 1.1-1.3 0-2.3-.4-3.1-1.1-.8-.7-1.2-1.8-1.2-3.2v-9.2h1.9v9.2c0 1 .2 1.6.6 2.1.4.5 1 .7 1.8.7.8 0 1.4-.2 1.8-.7.4-.5.7-1.2.7-2.2v-9.2H328.6L328.6 178.2zM340 191.4h-1.9l-5.1-9.9h0v9.9H331v-13.3h1.9l5.1 9.8h0v-9.8h1.9V191.4zM342.6 191.4v-13.3h3.7c1.4 0 2.6.5 3.5 1.6.9 1.1 1.4 2.4 1.4 4.1v1.9c0 1.7-.4 3-1.4 4.1-.9 1-2.1 1.6-3.5 1.6L342.6 191.4 342.6 191.4zM344.5 179.6V190h1.8c1 0 1.7-.4 2.2-1.2.6-.8.8-1.8.8-3.1v-1.9c0-1.2-.3-2.3-.8-3.1-.6-.8-1.3-1.2-2.2-1.2L344.5 179.6 344.5 179.6zM359.4 188.1H355l-1 3.4h-1.9l4.2-13.3h1.8l4.1 13.3h-1.9L359.4 188.1zM355.5 186.6h3.4l-1.7-5.8h0L355.5 186.6zM370.4 179.6h-3.5v11.9h-1.9v-11.9h-3.5v-1.4h8.9V179.6L370.4 179.6zM374.1 191.4h-1.9v-13.3h1.9V191.4zM385.5 186.6c0 1.6-.4 2.8-1.2 3.7-.8.9-2 1.3-3.4 1.3-1.4 0-2.5-.4-3.3-1.3s-1.2-2.1-1.2-3.7V183c0-1.6.4-2.8 1.2-3.7.8-.9 1.9-1.3 3.3-1.3 1.4 0 2.5.4 3.3 1.3.8.9 1.2 2.1 1.2 3.7L385.5 186.6 385.5 186.6zM383.6 182.9c0-1.2-.2-2-.7-2.6-.5-.6-1.1-.9-2-.9-.8 0-1.5.3-2 .9-.4.6-.7 1.5-.7 2.6v3.7c0 1.2.2 2 .7 2.6.4.6 1.1.9 2 .9.9 0 1.5-.3 2-.9.5-.6.7-1.5.7-2.6V182.9zM396.6 191.4h-1.9l-5.1-9.9h0v9.9h-1.9v-13.3h1.9l5.1 9.8h0v-9.8h1.9V191.4z"/></g><g><g><g><path d="M50.5,94.7c1,0.1,1.8,0.4,2.5,1.1c0.8,0.8,1.3,1.9,1.4,3.1c1,0.6,2,1.2,2.8,1.8c1.4-0.1,3,0.1,4.2,0.7 c0.1-0.1,0.2-0.2,0.2-0.2c0.4-0.4,0.9-0.8,1.2-1.3c0.3-0.4,0.7-0.6,1.2-0.6c0.5,0,0.9,0.2,1.2,0.6c0.4,0.5,0.8,0.9,1.2,1.3 c1.1,1,2.4,2,3.7,2.7c4.4,2.4,9.1,2.8,13.9,1.4c0.4-0.1,0.8-0.1,1.2,0.2c0.4,0.2,0.6,0.5,0.7,1c1.5,5.6,2.3,11.3,2.4,17.1 c0,3-0.1,6-0.4,8.9c-0.3,2.9-0.9,5.9-1.6,8.7c-0.7,2.8-1.6,5.6-3,8.1c-1.1,2.1-2.5,4-4.2,5.6c-1.8,1.8-4,3.2-6.2,4.4 c-1.2,0.7-2.5,1.4-3.8,2c-1.4,0.6-2.7,1.3-4,1.9l1.2,5.9c0.7,0.1,1.3,0.6,1.6,1.2c0.7,1,1,2.9,1.1,4.2c2.7,2,5.3,4.2,7.7,6.5 c2.6,1.8,5.2,4.3,6.3,7.3c0.5,1.3,0.8,2.8,0.5,4.2c-0.2,1-0.5,1.9-1.1,2.7c-0.9,1.2-2.2,2-3.6,2.4c-2.7,0.8-5.5,0.5-8-0.6 c-4-1.7-7.2-5.3-9.6-8.9c-0.1-0.2-0.2-0.4-0.2-0.5c-0.4-0.7-0.9-1.3-1.3-2c-1-1.5-2.1-3.6-1.8-5.4c0.1-0.3,0.2-0.6,0.2-0.9 c0,0,0-0.1,0-0.1c0.1-1.1,0.6-2.3,1.5-3c0.1-0.2,0.3-0.4,0.4-0.5c-0.1-0.7-0.3-1.4-0.4-2.1c-0.2-1-0.4-2.1,0.4-3 c0.1-0.2,0.3-0.3,0.5-0.4c-0.4-1.6-0.9-3.2-1.3-4.9c-0.4-1.4-0.8-2.9-1.2-4.4c-3.8-1.9-7.5-4-10.3-7.1c0,0-0.1,0-0.1,0 c-1.7,0-3.4-0.2-5.1-0.6c-0.2,1-0.8,1.8-1.6,2.3l2.3,9.6c0.2,0.1,0.4,0.3,0.6,0.4c1.6,1.3,2.4,3.5,2.8,5.5 c0.2,1.2,0.3,2.4,0.4,3.5c0,1.1,0,2.3-0.2,3.4c-0.1,0.8-0.8,1.4-1.6,1.4H15.1c-0.5,0-1-0.2-1.3-0.6c-0.3-0.4-0.4-0.9-0.3-1.4 c0.2-0.9,0.5-1.8,0.7-2.7c0,0,0-0.1,0-0.2s0-0.1,0-0.2s0-0.1,0-0.2s0-0.1,0.1-0.2c0,0,0-0.1,0.1-0.2c0,0,0-0.1,0.1-0.2 c0,0,0-0.1,0.1-0.2c0,0,0-0.1,0.1-0.2c0,0,0-0.1,0.1-0.2c0,0,0-0.1,0.1-0.2c0,0,0-0.1,0.1-0.2c0,0,0-0.1,0.1-0.2 c0,0,0.1-0.1,0.1-0.2c0,0,0.1-0.1,0.1-0.1c0,0,0.1-0.1,0.1-0.1c0,0,0.1-0.1,0.1-0.1c0,0,0.1-0.1,0.1-0.1c0,0,0.1-0.1,0.1-0.1 c0,0,0.1-0.1,0.1-0.1c0,0,0.1-0.1,0.1-0.1c0,0,0.1-0.1,0.1-0.1c0,0,0.1-0.1,0.1-0.1c0,0,0.1-0.1,0.1-0.1c0,0,0.1-0.1,0.1-0.1 c0,0,0.1-0.1,0.1-0.1c0,0,0.1-0.1,0.1-0.1c0,0,0.1-0.1,0.1-0.1c0,0,0.1-0.1,0.1-0.1c0,0,0.1-0.1,0.1-0.1c0,0,0.1-0.1,0.1-0.1 c0,0,0.1-0.1,0.1-0.1c0,0,0.1-0.1,0.1-0.1c0,0,0.1-0.1,0.2-0.1c0,0,0.1-0.1,0.2-0.1c0,0,0.1,0,0.2-0.1c0,0,0.1,0,0.2-0.1 c0,0,0.1,0,0.2-0.1c0,0,0.1,0,0.2-0.1c0,0,0.1,0,0.2-0.1c0,0,0.1,0,0.2-0.1c0,0,0.1,0,0.2-0.1c0,0,0.1,0,0.2-0.1s0.1,0,0.2-0.1 c0,0,0.1,0,0.2-0.1c0,0,0.1,0,0.2-0.1s0.1,0,0.2-0.1c0,0,0.1,0,0.2-0.1c0,0,0.1,0,0.2-0.1c0,0,0.1,0,0.2-0.1s0.1,0,0.2-0.1 c0,0,0.1,0,0.2,0c0,0,0.1,0,0.2,0s0.1,0,0.2,0c0,0,0.1,0,0.2,0c0,0,0.1,0,0.2,0s0.1,0,0.2,0c0,0,0.1,0,0.2,0c0,0,0.1,0,0.2,0 c0,0,0.1,0,0.2,0s0.1,0,0.2,0c0,0,0.1,0,0.2,0c0,0,0.1,0,0.2,0s0.1,0,0.2,0c0,0,0.1,0,0.2,0c0,0,0.1,0,0.1,0l0.1,0h0h0h0h0h0h0 H23l0,0c1-0.2,2-0.3,3-0.3c1.1,0,2.1,0,3.2,0c1.2,0,2.5,0.1,3.8,0.2c1.1,0,2.3,0.1,3.4,0.2v0c0.2-0.8,0.6-1.6,1.1-2.3 c-1-3.3-2-6.6-2.9-9.9c-1.5-0.6-2.9-1.8-2.9-3.5l0,0c-0.8-0.6-1.4-1.3-2-2c-1.5-1.8-2.6-4.1-3-6.4c-0.6,0.4-1.2,0.8-1.9,1.1 c-1.2,0.6-2.7,0-3.8-0.6c-0.2,0-0.3-0.1-0.4-0.2l-0.1-0.1c-0.2-0.2-0.5-0.3-0.7-0.4c-0.4-0.2-0.7-0.5-1-0.8 c-1.1-0.8-2.2-1.6-3.2-2.4c-1.2-1-2.4-1.9-3.5-3c-0.4-0.4-0.7-0.7-1-1.1c-0.6-0.8-1-1.7-0.5-2.7c0.4-0.8,1.1-1.1,1.9-1.1 c0-0.4,0.1-0.8,0.3-1.1c0.2-0.4,0.6-0.6,1-0.8c0,0,0,0,0-0.1c-1.1-1.7-2.2-3.5-3-5.4c-0.9-2-1.9-4.4-1.4-6.7 c0.3-1.1,0.9-2.1,1.6-3c0.8-1.1,1.8-2.2,2.6-3.3c1.1-1.5,2.5-2.8,3.8-4.2c1.6-1.6,3.4-3,5.2-4.4c1.7-1.2,3.4-2.4,5.3-3.4 c1.5-0.8,3.2-1.6,4.8-2c0.3-2.6,1.2-4.5,4.1-5c0.3,0,0.6-0.1,0.8,0c0.6-1.5,1.2-3,1.9-4.4c0.8-1.6,1.7-3.2,2.6-4.8 c1.5-2.6,3.1-5.1,4.9-7.6c-1-0.1-2-0.4-3-0.7c-1.4,0.4-2.7,0.9-4.1,1.3c-3.4,1-6.8,1.9-10.4,1.3c-0.1,0-0.2,0-0.2,0 c-0.7,0.1-1.4,0.2-2,0.2c-1.7,0.1-4.6,0.2-5.3-1.8c-0.1-0.3-0.1-0.6-0.1-0.9c0.1-1.2,1-2.2,1.8-3c1.2-1.1,2.4-2.1,3.7-3.1 c0.3-0.2,0.6-0.4,0.8-0.7c1.1-0.9,2.1-1.8,3.2-2.7c0.6-0.6,1.2-1.1,1.8-1.7c0.3-0.4,0.8-0.9,1-1.3c-0.1-0.6-0.1-1.2-0.1-1.8 c-0.1-8.3,6.6-15,14.8-15c8.3,0,15,6.7,15,15c0,4.3-1.8,8.4-5.1,11.2c-0.7,1.6-1.5,3.1-2.2,4.7c-1.3,2.8-2.5,5.8-3.6,8.7 C51.8,89.2,51,91.9,50.5,94.7z" class="st2"/><g><path d="M14.5,131.3c2.2,0.2,4.6,1.8,6.3,3.3c1.5,1.4,3.1,2.7,4.6,4l0.9,0.8l-3.8,4.3l-0.9-0.7 c-1.6-1.4-3.2-2.8-4.7-4.2c-1.1-1-2.2-2.1-3.2-3.3c-0.7-0.9-1.8-2.3-1.1-3.4C13.1,131.4,13.9,131.3,14.5,131.3z" class="st2"/><path d="M14.5,132.5c1.8,0.2,4,1.6,5.6,3s4.7,4,4.7,4l-2.3,2.6C20.8,140.7,10.9,132.2,14.5,132.5z" class="st3"/><path d="M12.3,133.3c2.2,0,4.8,1.5,6.5,2.8c1.2,0.9,2.4,1.8,3.6,2.7c0.6,0.4,0.9,1,1,1.6c0.2,1.3-0.6,2.4-1.2,3.4 c-0.2,0.3-0.4,0.5-0.8,0.6c-0.3,0.1-0.6,0-0.9-0.2c-1.7-1.2-3.4-2.4-5.1-3.8c-1.2-0.9-2.4-1.9-3.4-3c-0.8-0.8-2-2.1-1.4-3.3 C10.9,133.5,11.6,133.3,12.3,133.3z" class="st2"/><path d="M12.3,134.5c1.8,0,4.1,1.2,5.8,2.6c1,0.8,2.6,1.9,3.6,2.7c1.3,1,0,2.5-0.5,3.5 C19.5,142,8.7,134.5,12.3,134.5z" class="st3"/><path d="M33.5,145.1l4.5,1.5c0.4,0.1,0.7,0.4,0.8,0.8l5.3,22c0.1,0.4,0,0.7-0.2,1c-0.2,0.3-0.6,0.4-0.9,0.4h-2.8 c-0.5,0-1-0.3-1.1-0.8c-2.3-7.8-4.6-15.7-6.9-23.5c-0.1-0.4,0-0.9,0.3-1.2C32.7,145,33.1,144.9,33.5,145.1z" class="st2"/><path d="M33.1,146.2c6.9,23.5,6.9,23.5,6.9,23.5h2.8l-5.3-22L33.1,146.2z" class="st4"/><path d="M37.1,149.1c2.9,0,5.3,1.6,5.3,3.6s-2.4,3.6-5.3,3.6c-2.9,0-5.3-1.6-5.3-3.6 C31.9,150.7,34.3,149.1,37.1,149.1z" class="st2"/><path d="M37.1,150.3c2.2,0,4.1,1.1,4.1,2.4c0,1.3-1.8,2.4-4.1,2.4c-2.2,0-4.1-1.1-4.1-2.4 C33.1,151.3,34.9,150.3,37.1,150.3z" class="st5"/><path d="M35.1,130.3c0.4,0,0.7,0,1,0.1c2.6,0.3,4.9,1.9,6.6,3.9c1.8,2.2,3,5.1,3.2,7.9c0.2,2.3,0,4.8-1,6.9 c-0.9,1.9-2.3,3.6-4.2,4.5c-1,0.5-2.2,0.8-3.3,0.8c-0.4,0-0.7,0-1-0.1c-2.6-0.3-4.9-1.9-6.6-3.9c-1.8-2.2-3-5.1-3.2-7.9 c-0.2-2.3,0-4.8,1-6.9c0.9-1.9,2.3-3.6,4.2-4.5C32.8,130.5,33.9,130.3,35.1,130.3z" class="st2"/><ellipse cx="36.2" cy="142.3" class="st3" rx="8.4" ry="11" transform="rotate(-14.828 36.227 142.332)"/><path d="M20.6,140.3c0-0.2-0.2-0.5-0.2-0.7c-0.7-0.8-1.4-1.8-2.1-2.6c-1.6-2-3.1-4-4.4-6.2 c-1.1-1.7-2.2-3.5-3-5.3c-0.8-1.9-1.8-4.3-1.3-6.5c0.3-1.1,0.8-2,1.5-2.9c0.8-1.1,1.8-2.2,2.6-3.3c4-5.1,14.3-13.9,21-14.2 l0.9,0l0.3,0.8c0.6,1.6,0.1,4.2-0.2,5.8c-0.5,2.6-1.3,5.3-2.1,7.8c-0.8,2.7-1.8,5.4-2.7,8.1c-0.3,1-0.7,1.9-1,2.9 c-0.2,0.5-0.4,1-0.5,1.5c-0.1,0.3-0.1,0.7-0.1,1c0,0.6-0.1,1.2-0.1,1.8c0,1.6,0,3.2,0,4.8c0,2.7,0,5.5,0.1,8.2v0.6l-0.5,0.4 c-0.7,0.5-1.4,1-2.1,1.4c-0.6,0.4-1.4,1-2.1,1.2c-1.5,0.7-3.5-0.5-4.7-1.3c-0.7-0.4-1.5-1.1-1.2-2s1.2-1,2-1.3 C20.4,140.3,20.5,140.3,20.6,140.3z" class="st2"/><path d="M34.6,99.7c-6,0.3-16.1,8.6-20.1,13.8c-4,5.1-5.3,5.5-2.6,11.5c2.6,6,9.5,13.9,9.5,13.9 c2,3.7-3.8,2.1-1,3.8c1,0.6,2.7,1.6,3.6,1.2c0.9-0.4,4.1-2.6,4.1-2.6s-0.4-13.8,0.1-16.2C28.6,122.8,36.1,103.9,34.6,99.7z" class="st5"/><path d="M22.7,124.4c-0.8-2.7-1.8-4.3-4.5-5.5c-1.6-0.7-2.9-0.8-4.6-0.9l1.6-0.4c1.6-0.2,3.5,0.4,4.9,1.1 c2.5,1.4,3.3,2.9,4.2,5.5c0.1,0.4-0.2,0.9-0.6,1C23.2,125.1,22.8,124.9,22.7,124.4z" class="st2"/><path d="M43.6,97.6c-12.7,0-21.9,12.6-21,28.1c1.8,32.4,47.7,38,45.6,0C67.4,110.1,56.3,97.6,43.6,97.6z" class="st2"/><path d="M24.8,131.2c8.1,6.8,25.4,5,34.6,1.7c1.9-0.7,5.3-1.8,7.2-0.5c0.6,0.4,1,1,1.2,1.7c0,0.1,0.1,0.3,0.1,0.4 c0.2,0,0.3,0.1,0.4,0.2c0.4,0.3,0.5,0.7,0.4,1.2c-1.5,7.3-5.5,13.5-12.6,16.2c-6,2.3-12.8,1.5-18.6-1.2 c-6.3-2.9-11.5-8-14.3-14.4c-0.3-0.6-0.6-1.3-0.9-1.9c-0.2-0.5-0.5-0.9-0.7-1.4c-0.2-0.3-0.4-0.8-0.4-1.1c0-0.5,0.2-1,0.4-1.4 c0.5-0.8,1.5-1.3,2.4-0.7C24.5,130.3,24.6,130.7,24.8,131.2z" class="st2"/><path d="M24.3,136c8.5,19.4,38.3,23.8,43.3-0.4c-2,0.9,1.6-5-7.7-1.6c-9.1,3.2-27.2,5.4-35.9-2 c-0.2-0.2-0.4-0.9-0.6-1c-0.4-0.3-1.1,0.6-1,1.1C22.3,132.1,24,135.3,24.3,136z" class="st5"/><path d="M29.5,136.3c9,3.2,22.2,1.5,29.9-1.2c1.9-0.7,5.4-1.9,7.3-0.6c0.6,0.4,1,1,1.2,1.7 c0.1,0.2,0.1,0.4,0.2,0.7c0,0.1,0,0.2,0,0.2c0.2,0.3,0.2,0.6,0.1,0.9c-2.7,9.9-10.2,15.4-20.4,15.4c-4.9,0-9.9-1.9-14-4.6 c-4.6-3-8.4-7.3-10.6-12.3c-0.3-0.6-0.6-1.3-0.9-1.9c-0.2-0.4-0.4-0.7-0.6-1.1c-0.2-0.4-0.2-0.9,0.1-1.2s-0.2-1.1,0.3-1 c0,0.1,0.1,0.2,0.1,0.3c0.4,0.9,1.6,2,3.3,2.9C26.8,135.2,28.7,136,29.5,136.3z" class="st2"/><path d="M24.3,136c4.4,10,14.9,16.2,23.6,16.2c9.4,0,16.6-5,19.2-14.5c-0.6-0.7,0.7-4.4-7.3-1.6 c-8.9,3.2-26.7,5.3-35.7-1.5c-1.1-0.8-1.1-1.1-0.4,0.4C24,135.4,24.2,135.8,24.3,136z" class="st5"/><path d="M68.1,120.5C68.1,120.6,68.1,120.6,68.1,120.5c-2.1,1.9-6,3.1-8.6,3.8c-2,0.5-4.1,1-6.2,1.3 c-0.8,0.1-1.6,0.2-2.4,0.3c-0.5,0-1,0.1-1.6,0.1c-1.6,0-3.3-2-4.2-3.2c-0.8-1-1.5-2.2-2.2-3.3l-10.2-0.9l-4,4.5 c-0.2,0.2-0.5,0.4-0.8,0.4c-0.6,0-1.2-0.1-1.7-0.2c-1.4-0.2-2.8-0.7-4.2-1.2c-0.5-0.2-0.8-0.7-0.7-1.2 c0.5-5.9,2.5-11.8,6.1-16.4c2-2.6,7.9-4.5,11.4-4.2c2.7-1.3,1.7-3.9,4.7-3.9c2.5,0,5,0.4,7.4,1.3c9.2,3.4,15.3,12.3,17.5,21.7 C68.6,119.8,68.5,120.2,68.1,120.5z" class="st2"/><path d="M43.6,97.6c-11.3,0-19.9,10.1-21,23.4c3.2,1.3,5.5,1.3,5.5,1.3l4.4-5l11.4,1c0,0,3.6,6.5,5.7,6.5 s14.1-1.8,17.9-5.1l0,0C64.4,107,54.9,97.6,43.6,97.6z" class="st5"/><path d="M60.9,67.1c-4.9,10.8-11.7,23-11.1,33.7c0.2,4.3-8.5,4.5-11.6,3.2c-6.4-2.7,4.2-21.2,11.1-29.9 c2-2.5,3.9-4,4.7-4.4C57,68.3,60.9,67.6,60.9,67.1z" class="st2"/><path d="M58.9,68.9c-1.2,0.4-2.4,0.7-3.5,1.1c-0.4,0.1-0.7,0.3-1.1,0.4c-0.5,0.2-1.2,0.8-1.7,1.2 c-1,0.9-1.9,1.8-2.7,2.9C47.4,77.8,45,81.4,43,85c-1.1,1.8-2.1,3.7-3,5.7c-0.8,1.7-1.6,3.5-2.1,5.3c-0.5,1.6-1.4,5.2-0.1,6.7 c0.2,0.2,0.4,0.4,0.7,0.5c1.4,0.6,3.5,0.7,4.9,0.6c1.6-0.1,5.5-0.6,5.3-2.8c-0.2-4,0.6-7.9,1.7-11.7c1.2-4,2.9-8,4.6-11.9 C56.3,74.5,57.6,71.7,58.9,68.9z" class="st2"/><path d="M37.7,95.7c-0.2,0.3-0.1,0.9,0,1.2c0.3,0.4,1.4,0.9,1.8,1c1.3,0.5,2.7,0.8,4,0.8c0.6,0,1.2,0,1.8,0 c0.8-0.1,2.8-0.4,3.2-1.2c0-0.1,0-0.2,0.1-0.2c0-0.2,0-0.4,0.1-0.7c0-0.1,0-0.2,0-0.4c0.1-0.6,0.5-1.1,1.1-1.2 c1.1-0.1,2.1,0.3,2.9,1c0.9,0.9,1.3,2.2,1.2,3.4c-0.1,1.4-1,2.7-2.1,3.6c-2.2,1.7-5.3,2.3-8,2.4c-2.2,0-4.7-0.3-6.8-1.1 c-1.8-0.7-3.6-2-4.2-3.9c-0.2-0.5-0.2-1-0.2-1.5c0.2-2.6,1-4.5,3.8-5c0.5-0.1,1.2-0.1,1.4,0.3C38.2,94.6,38,95.3,37.7,95.7 L37.7,95.7z" class="st2"/><path d="M36.7,95.1c-2.2,0.4-2.7,1.8-2.8,3.9c-0.4,5.2,11.9,7.2,17.3,3.1c2.9-2.2,1.6-6.1-1.2-5.9 c-0.1,0,0,1-0.3,1.7c-0.8,1.6-3.8,2.1-6.1,2c-3.6-0.1-6.7-1.6-6.9-2.6C36.2,95.8,36.7,95.1,36.7,95.1z" class="st5"/><circle cx="48.7" cy="61.8" r="14.5" class="st2"/><circle cx="48.7" cy="61.9" r="13.4" class="st3"/><path d="M48.7,48.5c-6.4,0-11.7,4.5-13.1,10.5c1,6.5,6.5,11.4,13.2,11.4c6.4,0,11.7-4.5,13.1-10.5 C61,53.4,55.4,48.5,48.7,48.5z" class="st5"/><path d="M37.8 53.1c-2.1 2.4-2.9 6.8-2.9 8.7 0 1.8.4.6.4.9 2.9-2.9 3.8-2 5.2-1.2 1.4.8 1.6 3.6 5.5 4.2 3.8.6 8.9-5.4 6.1-8.5-2.2-2.4-8.1-4.4-12.7-4.3C39.2 52.9 38 53.1 37.8 53.1zM36.5 168.8c0-.1.1-.2.1-.4 1-3.6 4.3-4.9 7.1-2.6 1.6 1.3 2.3 3.4 2.7 5.3.4 2.1.4 4.7.2 6.8-.1.6-.6 1.1-1.2 1.1H15.1c-.4 0-.8-.2-1-.5-.2-.3-.3-.7-.2-1.1.2-.9.5-1.8.7-2.7 1-3.6 4.6-5.2 7.9-6.1 1.9-.5 4.6-.4 6.5-.4C31.1 168.4 34.4 168.5 36.5 168.8z" class="st2"/><path d="M37.9,168.7c-0.4,1.4-0.4,1.4-0.4,1.4s-2,0-3.4-0.2c-3.2-0.3-8.7-0.8-11.2-0.1c-3.6,1-6.3,2.5-7,5.2 c-0.7,2.7-0.7,2.7-0.7,2.7h30.3C46.6,167.6,39.7,161.9,37.9,168.7z" class="st5"/><path d="M28.5,168.4c1.7,0.6,3.4,1.2,4.8,2.3c2.1,1.7,3,4.1,3.3,6.7c0,0.2,0,0.4,0,0.5c0,0.7-0.6,1.2-1.2,1.2 H15.1c-0.4,0-0.8-0.2-1-0.5c-0.2-0.3-0.3-0.7-0.2-1.1c0.2-0.9,0.5-1.8,0.7-2.7c1-3.6,4.6-5.2,7.9-6.1c1.7-0.4,3.9-0.4,5.7-0.4 C28.3,168.3,28.4,168.3,28.5,168.4z" class="st2"/><path d="M28.1,169.5c-2.1-0.1-4,0-5.3,0.3c-3.6,1-6.3,2.5-7,5.2c-0.7,2.7-0.7,2.7-0.7,2.7h20.3c0-0.1,0-0.2,0-0.3 C34.6,172,31.9,170.8,28.1,169.5z" class="st6"/><path d="M26.4,177.8h8.9c0-0.1,0-0.2,0-0.3c-0.2-1.3-0.5-2.4-0.9-3.2c-1.2-0.2-2.8-0.2-4.2,0.3 c-1.5,0.5-2.9,1.4-3.7,3C26.5,177.6,26.5,177.7,26.4,177.8z" class="st4"/><path d="M63.8,178.1c0,0-0.1,0-0.1,0c-0.6,0-1.1-0.6-1.1-1.2c0-0.1,0-0.2,0.1-0.4c0-0.3-0.1-0.7-0.2-0.9 c-0.2-1.2-0.5-2.4-0.8-3.5c-0.6-2.3-1.2-4.6-1.8-6.9c-1-3.8-2.2-7.6-3.3-11.4c-0.1-0.4,0-0.9,0.3-1.2s0.8-0.4,1.2-0.3l4.5,1.5 c0.4,0.1,0.7,0.4,0.8,0.9l4.4,21.9c0.1,0.4,0,0.7-0.2,1c-0.2,0.3-0.6,0.4-0.9,0.4L63.8,178.1L63.8,178.1z" class="st2"/><path d="M57.7,153.5c6.9,23.5,6.1,23.4,6.1,23.4h2.8L62.2,155L57.7,153.5z" class="st4"/><path d="M60.9,175.8c-0.1-0.8-0.3-1.5-0.5-2.3c-0.2-0.9-0.4-1.9,0.3-2.6c0.4-0.5,1-0.7,1.7-0.7c1.4,0,1.9,2,2.2,3 c0.1,0.4,0.2,0.8,0.3,1.2l0.6-0.2l-0.6-3.2c0-0.2,0-0.4,0-0.6c0.2-0.4,0.5-0.8,0.9-0.9c0.9-0.4,1.7,0.2,2.2,1 c0.6,1,0.9,2.8,1,4.2c2.8,2.1,5.5,4.3,7.9,6.7c2.6,2.6,7.5,7.7,6.2,11.7c-0.6,1.9-2.3,3-4,3.6c-2.7,0.9-5.4,1-8-0.2 c-3.4-1.6-6-5.2-8.5-7.9c0-0.1-0.1-0.1-0.2-0.2c-0.6-1-1.4-2-2-3c-0.9-1.4-2-3.4-1.7-5.1C59,178.7,59.8,177.1,60.9,175.8z" class="st2"/><path d="M62.1,176.2c-1.4,1.4-2,3.2-2.3,4.3c-0.4,2,2.4,5.5,3.6,7.3c4.6,5,7.7,10.3,15.3,7.7 c10.7-3.6-6.5-17-10.8-20.2c0,0-0.2-3.1-0.8-4.2c-0.7-1.1-1-0.3-1-0.3l0.8,4.2l-2.8,0.8c0,0-0.9-4.5-1.6-4.5 C60.6,171.3,61.7,173.2,62.1,176.2z" class="st5"/><path d="M60.7,153.1c2.9,0,5.3,1.6,5.3,3.6s-2.4,3.6-5.3,3.6c-2.9,0-5.3-1.6-5.3-3.6S57.8,153.1,60.7,153.1z" class="st2"/><path d="M60.7,154.3c2.2,0,4.1,1.1,4.1,2.4c0,1.3-1.8,2.4-4.1,2.4c-2.2,0-4.1-1.1-4.1-2.4 C56.6,155.4,58.4,154.3,60.7,154.3z" class="st5"/><path d="M76.7,181.3c2.6,1.8,5.2,4.2,6.3,7.2c0.8,2.2,0.9,4.6-0.5,6.5c-0.8,1.2-2,1.9-3.4,2.3 c-2.6,0.7-5.3,0.4-7.7-0.6c-4-1.7-7.1-5.3-9.4-8.8c-0.3-0.4-0.2-1,0.1-1.4c3.6-4.2,8.7-6.9,14.3-5.4 C76.5,181.2,76.6,181.2,76.7,181.3z" class="st2"/><path d="M63,187.3c6.2,9.4,12.3,9.9,15.8,8.9c4.9-1.4,5.7-8.1-2.8-13.9C70.9,180.9,66.2,183.4,63,187.3z" class="st4"/><path d="M56.9,134.2c2.8,0,5.4,1.5,7.3,3.6c2.1,2.3,3.4,5.3,3.8,8.3c0.3,2.3,0,4.7-0.9,6.9 c-0.8,1.9-2.2,3.6-4,4.5c-1.1,0.6-2.2,0.8-3.4,0.8c-2.8,0-5.4-1.5-7.3-3.6c-2.1-2.3-3.4-5.3-3.8-8.3c-0.3-2.3,0-4.7,0.9-6.9 c0.8-1.9,2.2-3.6,4-4.5C54.5,134.5,55.7,134.2,56.9,134.2z" class="st2"/><ellipse cx="58.2" cy="146.3" class="st5" rx="8.4" ry="11.1" transform="rotate(-17.067 58.24 146.293)"/><path d="M61.3,122.6c-0.6-0.4-1.2-0.9-1.8-1.4c-2.2-1.8-4.3-4-6-6.4c-1.6-2.4,5.3-2.8,5.5-5.8c0,0,0-1,0-1.1 c0.2-2-5.2-4.2-3.4-5.3c-2.6-0.9,2.5-2.4,5.9-0.7c2.2,1.1,4.4,2.8,6.1,4.5c4.3,4,14.3,13.9,14.5,20.1c0.1,2.9-3.1,4.8-5.4,5.9 c-3.4,1.6-7.4,2.5-11.1,3c-2,0.3-4,0.4-6,0.4c-1.2,0-2.4,0-3.6,0.2c-0.1,0-0.3,0-0.4,0.1c0.1,0.1,0.2,0.1,0.2,0.2 c0.5,0.3,0.8,0.9,0.6,1.4c-0.2,0.6-0.7,0.9-1.3,0.8c-0.8-0.1-1.7-0.5-2.4-1c-1.6-1-2.6-2.5-2.9-4.4c-0.2-1.5,0.9-2.9,1.8-3.9 c1.2-1.2,2.7-2.4,4.1-3.3c1.6-1.1,3.2-2,4.8-3C60.9,122.8,61.1,122.6,61.3,122.6z" class="st2"/><path d="M52.1 106.6c.3-2.6 1.5-4.2 3.4-4.7 2.7-.7 6.9 1.1 11.4 5.4 7.7 7.1 13.9 14.8 14.1 19.3.2 4.5-11.8 8.1-21.2 8.1s-4.3 2.6-4.3 2.6-3.8-.7-4.3-4.3c-.5-3.6 12.5-10.3 12.5-10.3S51.7 115.2 52.1 106.6zM48.5 76.5c.9 0 2 .2 3.2.4 1 .2 2 .6 3 1.1-.1.2-.2.5-.3.7-.9-.5-1.9-.8-2.8-1.1-1.4-.3-2.7-.4-3.5-.4C48.2 77 48.4 76.7 48.5 76.5L48.5 76.5zM45.8 80.3c-.2.3-.4.6-.5.8 1-.1 2.1 0 3.3.3 1.3.3 2.6.9 3.9 1.7.1-.2.2-.5.3-.7-1.3-.8-2.7-1.4-4-1.7C47.8 80.4 46.8 80.3 45.8 80.3L45.8 80.3zM42.8 85.3c-.2.2-.3.5-.4.8 1.5 0 3 .2 4.4.5 1.4.3 2.7.8 4 1.4.1-.2.2-.5.2-.8-1.3-.6-2.7-1-4-1.4C45.6 85.5 44.3 85.3 42.8 85.3L42.8 85.3zM40.2 90.1c-.1.2-.2.3-.2.4 0 .1-.1.2-.1.2.8.2 1.9.5 3.2.7 2.2.4 4.8.8 6.5 1 0-.2.1-.5.2-.8-1.6-.2-4.2-.5-6.5-1C42 90.6 41 90.3 40.2 90.1L40.2 90.1zM38.3 94.8c-.1.2-.2.5-.2.8 1.2.6 2.9 1.1 4.8 1.3 2.2.3 4.4.2 6.1-.1 0-.3 0-.6.1-.8-1.5.4-3.8.4-6.1.1C41 95.9 39.3 95.4 38.3 94.8zM48.6 58.6c-1.2 0-2.2 1-2.2 2.2 0 1.2 1 2.2 2.2 2.2s2.2-1 2.2-2.2C50.8 59.6 49.8 58.6 48.6 58.6z" class="st5"/><path d="M48.5,67.9c0.4,0.1,1.3,0.1,1.7,0.2c1.1,0.1,3,0.1,3.3,1.4c0.1,0.3,0.1,0.6,0,0.9 c-0.5,1.3-2.5,2.3-3.7,2.8c-2,0.9-4,1.7-6.1,2.4c-1.4,0.4-2.8,0.9-4.2,1.3c-3.4,1-6.7,1.9-10.3,1.3c-1-0.2-2.2-0.5-2.6-1.6 c-0.3-1,0.2-1.9,0.8-2.6c0.7-0.9,1.6-1.7,2.5-2.4c1.6-1.3,4-3.4,5-5.4c0.5-1.1,1.2-2.3,2.1-3.2c0.7-0.8,1.7-1.4,2.8-1.3 c1.8,0.2,2.7,2.2,3.1,3.7C43.6,67.3,46.8,67,48.5,67.9z" class="st2"/><path d="M41.9,65.6c0.8,2.9,4.6,2.4,6.1,3.3c0.7,0.4,4.8,0.1,4.4,1c-0.7,1.7-7.9,4.2-13.2,5.8 c-3.2,0.9-6.4,1.8-9.7,1.3c-2.8-0.4-1.9-2,1.3-4.6c3.2-2.7,4.6-4.4,5.3-5.8C38.1,62.2,40.6,61.2,41.9,65.6z" class="st4"/><path d="M48.8,69.1c-0.2,0.6-0.7,1.1-1.2,1.5c-0.8,0.6-1.8,1.1-2.7,1.6c-2.6,1.4-5.5,2.7-8.4,3.8 c-2.9,1.1-6.5,2.2-9.6,2.4c-1.4,0.1-4.3,0.3-4.9-1.5c-0.4-1.3,0.8-2.6,1.6-3.4c1.1-1.1,2.4-2.1,3.6-3.1 c0.3-0.2,0.6-0.4,0.8-0.7c1.4-1.2,5.3-4.3,6.1-5.9c0.5-1,1.2-2.1,2-2.9c0.8-0.7,1.7-1.1,2.7-1c0.5,0,1,0.2,1.4,0.5 c0.8,0.5,1.5,1.2,2.2,1.8c0.5,0.5,1,1,1.5,1.5c0.6,0.5,1.2,0.8,2,1c1.3,0.2,2.8,0,4-0.2c0.8-0.2,1.9-0.2,2.3,0.8 c0.3,0.8-0.3,1.5-0.9,2c-0.4,0.4-0.9,0.7-1.4,1c-0.3,0.2-0.7,0.4-1,0.7C49,68.9,48.9,69,48.8,69.1z" class="st2"/><path d="M47.2,69.3c-2.2,1.9-13.9,7.5-20.4,7.9c-7.4,0.5-2.2-3.2,2.1-6.7c3.2-2.7,5.7-4.9,6.4-6.3 c1.4-2.8,3-3.8,4.4-2.9c3.5,2.4,3.4,5.6,10.5,4.3C53.2,65,48.1,68.5,47.2,69.3z" class="st6"/><path d="M51.3,64.2c1.9,0,3.5,1.6,3.5,3.5s-1.6,3.5-3.5,3.5s-3.5-1.6-3.5-3.5C47.8,65.7,49.3,64.2,51.3,64.2z" class="st2"/><g><path d="M51.3,65c-1.4,0-2.6,1.2-2.6,2.6s1.2,2.6,2.6,2.6s2.6-1.2,2.6-2.6C53.9,66.2,52.7,65,51.3,65z" class="st5"/><path d="M52.7,66.2c0.8,0.8,0.8,2.1,0,2.9s-2.1,0.8-2.9,0c-0.8-0.8-0.8-2.1,0-2.9C50.6,65.4,51.9,65.4,52.7,66.2 z" class="st2"/><path d="M52.5,66.5c-0.6-0.6-1.7-0.6-2.4,0s-0.6,1.7,0,2.4s1.7,0.6,2.4,0C53.1,68.2,53.1,67.1,52.5,66.5z" class="st5"/><path d="M52.5,66.5c-0.1-0.1-0.2-0.2-0.2-0.2l-2.3,2.3c0,0.1,0.1,0.2,0.2,0.2s0.2,0.2,0.2,0.2l2.3-2.3 C52.6,66.6,52.5,66.5,52.5,66.5z" class="st2"/></g><path d="M49.5,59.4c-0.5,0-0.9,0.4-0.9,0.9s0.4,0.9,0.9,0.9s0.9-0.4,0.9-0.9S50.1,59.4,49.5,59.4z" class="st2"/><path d="M37.7,57.3c-0.5-0.2-1.1,0.4-1.4,1.4c-0.3,0.9-0.1,1.7,0.3,1.9c0.5,0.2,1.1-0.4,1.4-1.4 C38.3,58.3,38.2,57.4,37.7,57.3z" class="st5"/><path d="M37.9 58c-.2-.1-.5.2-.6.6-.1.4 0 .8.2.8.2.1.5-.2.6-.6C38.2 58.4 38.1 58 37.9 58zM23.4 178c.1-.8.4-1.6.7-2.2 1-1.8 2.6-3 4.4-3.5 1.7-.6 3.6-.6 4.9-.3.7.1 1.2.4 1.6.6l-.6 1.1c-.3-.2-.8-.4-1.3-.5-1.2-.2-2.9-.2-4.4.3-1.5.5-2.9 1.4-3.7 3-.3.5-.5 1.2-.6 1.8L23.4 178z" class="st2"/><path d="M17.1 178.2c0-.2 0-.4 0-.6.3-2.2 1.6-4.3 4-5.8 2.2-1.4 5.4-2.3 9.2-2.2.6 0 1.3.1 1.9.2l-.2 1.2c-.6-.1-1.2-.1-1.8-.2-3.5-.1-6.4.6-8.5 2-2 1.2-3.2 3-3.4 4.8 0 .2 0 .3 0 .4L17.1 178.2zM73.4 196.4c.6-1.9.1-4-.9-6-1.6-3.2-4.4-6-5.6-6.7l.6-1c1.3.8 4.3 3.8 6 7.2 1.1 2.2 1.7 4.7.9 6.9L73.4 196.4zM79.2 196.2c.8-2.3.2-4.8-1-7.1-1.7-3.5-5.1-6.7-6.5-7.4l.9-.6c1.5.7 4.8 3.8 6.6 7.5 1.2 2.5 1.9 5.3 1 7.9L79.2 196.2z" class="st2"/><path d="M31.3,121.1c-1,2.8-0.8,5.5-0.4,7.5c0.7,3.1,2,3.8,5.1,5.5c3-1,4.4-1.5,5.4-4.4c0.6-1.9,1-4.6,0.2-7.7 c-3.2,0.6-5.1-1.8-5.1-1.8S34.5,122.2,31.3,121.1z" class="st6"/><path fill="#fae6ab" fill-rule="evenodd" d="M40.5,123.4c-1.2,0-2.3-0.4-3.4-1c-0.2-0.2-0.5-0.3-0.7-0.5c-0.2,0.2-0.5,0.3-0.8,0.4 c-1.1,0.4-2.2,0.6-3.3,0.4c-0.4,1.8-0.4,3.7,0,5.6c0.2,0.8,0.5,1.7,1,2.4c0.6,0.8,1.8,1.4,2.8,1.9c1-0.3,2.1-0.7,2.8-1.3 c0.6-0.5,0.9-1.2,1.2-2C40.7,127.4,40.8,125.4,40.5,123.4z" clip-rule="evenodd"/><path d="M40 123.9c-.5 0-1-.1-1.4-.2-.6-.2-1.2-.4-1.7-.8-.1-.1-.3-.2-.4-.2 0 0-.1-.1-.1-.1 0 0-.1 0-.1 0-.1.1-.3.1-.4.2-.6.2-1.2.4-1.8.4-.4 0-.9.1-1.4 0-.2.7-.2 1.5-.2 2.2 0 .9.1 1.8.3 2.6.1.4.2.8.4 1.2.2.4.3.7.6 1 .3.3.7.6 1.2.9s.9.5 1.3.7c.4-.1.8-.3 1.3-.5s.9-.4 1.2-.7c.2-.2.4-.5.6-.8.2-.3.3-.6.4-1 .3-.9.4-1.8.5-2.7C40.2 125.5 40.2 124.7 40 123.9L40 123.9zM38.9 122.7c.5.2 1.1.2 1.6.2h.4l.1.4c.2 1 .2 2 .2 3.1-.1 1-.2 2-.6 3-.1.4-.3.8-.5 1.2-.2.4-.5.8-.8 1-.4.3-.9.6-1.4.8-.5.2-1 .4-1.6.6l-.2.1-.2-.1c-.5-.2-1-.6-1.6-.9-.5-.3-1-.7-1.4-1.1-.3-.4-.6-.8-.8-1.2-.2-.4-.3-.9-.4-1.3-.2-.9-.3-1.9-.3-2.9s.1-2 .3-2.9l.1-.4.4.1c.5.1 1 .1 1.6 0s1-.2 1.5-.4c.1 0 .2-.1.4-.2.1-.1.2-.1.4-.2l.3-.2.2.2c.1.1.2.2.4.2.1.1.2.2.4.2C37.8 122.3 38.4 122.5 38.9 122.7zM35.6 98.7c.4 0 .8.4.7.8 0 .4-.4.8-.8.7-.4 0-.8-.4-.7-.8C34.9 99 35.2 98.7 35.6 98.7L35.6 98.7zM50.9 99.3c.4 0 .8.4.7.8 0 .4-.4.8-.8.7-.4 0-.8-.4-.7-.8C50.1 99.6 50.5 99.3 50.9 99.3L50.9 99.3zM48.2 100.9c.4 0 .8.4.7.8 0 .4-.4.8-.8.7-.4 0-.8-.4-.7-.8C47.4 101.2 47.8 100.8 48.2 100.9L48.2 100.9zM44.9 101.6c.4 0 .8.4.7.8 0 .4-.4.8-.8.7-.4 0-.8-.4-.7-.8C44.1 101.9 44.5 101.6 44.9 101.6L44.9 101.6zM41.4 101.3c.4 0 .8.4.7.8 0 .4-.4.8-.8.7-.4 0-.8-.4-.7-.8C40.6 101.6 40.9 101.3 41.4 101.3L41.4 101.3zM38.2 100.3c.4 0 .8.4.7.8 0 .4-.4.8-.8.7-.4 0-.8-.4-.7-.8C37.4 100.6 37.8 100.3 38.2 100.3zM23.3 139.4c.8 1.5.4 3.3-.8 4-1.2.7-2.8 0-3.6-1.5-.8-1.5-.4-3.3.8-4C20.9 137.3 22.5 137.9 23.3 139.4z" class="st2"/><path d="M22.8,139.8c-0.6-1.2-1.8-1.6-2.7-1.1c-0.9,0.5-1.2,1.9-0.6,3c0.6,1.2,1.8,1.6,2.7,1.1 C23.1,142.2,23.4,140.9,22.8,139.8z" class="st5"/><path d="M22.6,141.3c-0.2,0.9-1,1.4-1.8,1s-1.4-1.4-1.2-2.3c0.2-0.9,1-1.4,1.8-1 C22.3,139.4,22.8,140.4,22.6,141.3z" class="st2"/><path d="M22.3,141.2c0.2-0.8-0.3-1.6-1-1.8c-0.7-0.3-1.3,0.1-1.5,0.8c-0.2,0.8,0.3,1.6,1,1.8 C21.5,142.3,22.2,142,22.3,141.2z" class="st5"/><path d="M22.3 141.2c0-.1 0-.2 0-.3l-2.4-1c0 .1 0 .2-.1.2 0 .1 0 .2 0 .3l2.4 1C22.3 141.4 22.3 141.3 22.3 141.2zM44.2 172.5c.2 1.8-1.1 3.4-2.9 3.6-1.8.2-3.4-1.1-3.6-2.9-.2-1.8 1.1-3.4 2.9-3.6C42.4 169.4 44 170.7 44.2 172.5z" class="st2"/><path d="M43.5,172.6c-0.2-1.4-1.4-2.4-2.8-2.2c-1.4,0.2-2.4,1.4-2.2,2.8c0.2,1.4,1.4,2.4,2.8,2.2 C42.6,175.2,43.6,174,43.5,172.6z" class="st5"/><path d="M42.5,174.1c-0.7,0.8-1.9,1-2.8,0.3c-0.8-0.7-1-1.9-0.3-2.8c0.7-0.8,1.9-1,2.8-0.3 C43.1,172,43.2,173.3,42.5,174.1z" class="st2"/><path d="M42.2,173.9c0.6-0.7,0.4-1.7-0.2-2.2c-0.7-0.6-1.7-0.4-2.2,0.2c-0.6,0.7-0.4,1.7,0.2,2.2 C40.7,174.7,41.7,174.6,42.2,173.9z" class="st5"/><path d="M42.2 173.9c.1-.1.1-.2.2-.2l-2.4-1.9c-.1.1-.2.1-.2.2-.1.1-.1.2-.2.2l2.4 1.9C42.1 174 42.2 174 42.2 173.9zM64.4 179.8c-.1 1.9-1.4 3.2-2.9 3.1s-2.6-1.8-2.5-3.7c.1-1.9 1.4-3.2 2.9-3.1C63.3 176.3 64.4 178 64.4 179.8z" class="st2"/><path d="M63.7,179.8c0.1-1.4-0.8-2.7-1.9-2.8c-1.1-0.1-2.1,0.9-2.2,2.4s0.8,2.7,1.9,2.8 C62.6,182.2,63.6,181.2,63.7,179.8z" class="st5"/><path d="M62.3,181.1c-0.7,0.7-1.7,0.6-2.3-0.2c-0.6-0.9-0.5-2.2,0.2-2.9c0.7-0.7,1.7-0.6,2.3,0.2 C63,179.1,63,180.4,62.3,181.1z" class="st2"/><path d="M62.1,180.8c0.6-0.6,0.6-1.6,0.1-2.3c-0.5-0.7-1.3-0.8-1.8-0.2c-0.6,0.6-0.6,1.6-0.1,2.3 C60.7,181.2,61.5,181.3,62.1,180.8z" class="st5"/><path d="M62.1 180.8c.1-.1.1-.2.2-.2l-1.7-2.4c-.1 0-.2.1-.2.2-.1.1-.1.2-.2.2l1.7 2.4C62 180.9 62 180.8 62.1 180.8zM22.7 119.2c2.6 1.1 4.4 1.3 4.9 1.3l4.6-5.1 11.8 1 .1.2c0 0 1.3 2.4 2.8 4.3l-.6.5c-1.3-1.6-2.3-3.9-2.6-4.5l-11.3-.9-4.5 4.9h-.2c0 0-2.1.3-5.4-1L22.7 119.2z" class="st2"/><path d="M58.5,61.2c0-5.8-3.4-9.5-8.7-11.3c-3.1-1,0.8,0.4-2.4-0.8c1.8-0.3,2.1-0.3,4,0.1c6,1.4,9.4,6,9.9,12 c0,0.7-0.6,1.3-1.3,1.3C59.1,62.5,58.5,61.9,58.5,61.2z" class="st8"/><path d="M38.8,63.4c-2,3.9-3.1,4.3-6.6,6.8c-2.4,1.7-4.8,3.6-7.4,4.8c1.7-2.4,4-4.3,6.3-6.3 c2.8-2.5,3.8-2.8,5.3-6.4c0.3-0.7,1-1,1.7-0.7C38.8,62,39.1,62.8,38.8,63.4z" class="st9"/><path d="M86.4,106.5c1.5,5.6,2.3,11.3,2.4,17.1c0,3-0.1,6-0.4,8.9c-0.3,2.9-0.9,5.9-1.6,8.7 c-3.5,13.7-9.7,16.7-21.8,22.2c-0.4,0.2-0.9,0.2-1.3,0c-12.5-5.8-18.5-8.8-22-23c-1.4-5.6-2-11.5-1.8-17.2 c0.1-5.6,0.9-11.3,2.4-16.7c0.1-0.4,0.4-0.8,0.7-1c0.4-0.2,0.8-0.3,1.2-0.2c4.8,1.4,9.6,1,13.9-1.4c1.4-0.7,2.6-1.6,3.7-2.7 c0.4-0.4,0.9-0.8,1.2-1.3c0.3-0.4,0.7-0.6,1.2-0.6c0.5,0,0.9,0.2,1.2,0.6c0.4,0.5,0.8,0.9,1.2,1.3c1.1,1,2.4,2,3.7,2.7 c4.4,2.4,9.1,2.8,13.9,1.4c0.4-0.1,0.8-0.1,1.2,0.2C86,105.7,86.3,106.1,86.4,106.5z" class="st2"/><path d="M86,106.6c3,11.1,3.2,23.4,0.3,34.5c-3.5,13.5-9.5,16.4-21.5,22c-0.3,0.2-0.7,0.2-1,0 c-12.5-5.8-18.3-8.7-21.7-22.8c-2.6-10.9-2.4-22.8,0.5-33.7c0.1-0.3,0.3-0.6,0.6-0.7c0.3-0.2,0.6-0.2,0.9-0.1 c4.9,1.4,9.8,1,14.2-1.5c1.4-0.8,2.6-1.7,3.8-2.7c0.4-0.4,0.9-0.9,1.3-1.4c0.2-0.3,0.6-0.4,0.9-0.4s0.7,0.2,0.9,0.4 c0.4,0.5,0.8,1,1.3,1.4c1.2,1,2.4,2,3.8,2.7c4.5,2.5,9.3,2.9,14.2,1.5c0.3-0.1,0.6,0,0.9,0.1C85.7,106.1,85.9,106.3,86,106.6z" class="st2"/><path d="M43.7,106.9c-3.4,12.9-2.5,24.7-0.5,33.1c3.2,13.4,8.5,16.2,21.1,22c12.1-5.6,17.6-8.3,20.9-21.2 c2.2-8.5,3.2-20.7-0.3-33.9c-12.9,3.6-20.6-6-20.6-6S56.6,110.5,43.7,106.9z" class="st5"/><path d="M46.1,108.9c4.6,0.7,9.3,0,13.4-2.3c1.3-0.7,2.6-1.6,3.8-2.6c0.6-0.5,1.4-0.5,2,0c1.2,1,2.4,1.9,3.8,2.6 c4.1,2.3,8.7,3,13.4,2.3c0.8-0.1,1.6,0.4,1.8,1.2c1.8,8.3,2.1,17,0.7,25.3c-0.6,3.4-1.4,6.7-2.6,9.9 c-3.2,8.5-9.8,11.3-17.4,15c-0.4,0.2-0.9,0.2-1.4,0c-7.6-3.7-14.2-6.4-17.4-15c-1.2-3.2-2-6.5-2.6-9.9 c-1.4-8.4-1.2-17,0.7-25.3C44.5,109.3,45.3,108.7,46.1,108.9z" class="st3"/><path d="M46,109.6c4.8,0.8,9.6,0,13.9-2.4c1.4-0.8,2.7-1.7,3.9-2.7c0.3-0.2,0.7-0.2,1,0c1.2,1,2.5,2,3.9,2.7 c4.3,2.4,9.1,3.2,13.9,2.4c0.4-0.1,0.8,0.2,0.9,0.6c1.8,8.2,2,16.8,0.7,25c-0.6,3.3-1.4,6.6-2.5,9.7c-3,8.3-9.6,10.9-17,14.5 c-0.2,0.1-0.4,0.1-0.7,0c-7.4-3.6-13.9-6.2-17-14.5c-1.2-3.1-2-6.4-2.5-9.7c-1.4-8.3-1.1-16.8,0.7-25 C45.2,109.8,45.6,109.6,46,109.6z" class="st2"/><path d="M82.7,110.4c-4.9,0.8-9.9,0-14.4-2.5c-1.3-0.7-2.7-1.7-4-2.8c-1.3,1.1-2.7,2.1-4,2.8 c-4.5,2.5-9.4,3.3-14.4,2.5c-1.8,8.1-2,16.6-0.6,24.7c0.5,3.2,1.3,6.5,2.5,9.6c2.9,7.9,9.1,10.5,16.6,14.1 c7.5-3.6,13.7-6.1,16.6-14.1c1.1-3.1,1.9-6.3,2.5-9.6C84.7,127,84.5,118.5,82.7,110.4z" class="st6"/><path fill="#fff6d2" fill-rule="evenodd" d="M82.7,110.4c-4.9,0.8-9.9,0-14.4-2.5c-1.3-0.7-2.7-1.7-4-2.8c-1.3,1.1-2.7,2.1-4,2.8 c-4.5,2.5-9.4,3.3-14.4,2.5c-1.2,5.3-1.7,10.7-1.5,16c8,5.6,20.4,9.1,34.3,9.1c1.6,0,3.1,0,4.6-0.1c0-0.1,0-0.2,0-0.3 C84.7,127,84.5,118.5,82.7,110.4z" clip-rule="evenodd"/><path d="M26.4 106c-4.2 3.8-8.8 8.5-9.7 10-.4.7-.7 1.2-.9 1.4 1.4 0 3.1.5 4.3 1.1.5.3 1 .6 1.4.9C22.1 114.7 23.8 109.9 26.4 106zM21.1 135.3c-.5-.1-1.4-1-2.5-2.4-2.7-3.4-6.5-9.8-7.7-14.4-.7 1.6-.5 3.2 1 6.5.9 2.1 2.4 4.4 3.8 6.5.4.6.8 1.2 1.2 1.8.9 1.3 1.8 2.5 2.6 3.4.3.4.6.8.8 1.1.2 0 .4 0 .6 0 .9.1 1.9.7 2.4 1.8.2.4.3.8.4 1.3.1 1.1-.3 2.2-1.2 2.7h0c0 0-.1 0-.1.1-.1 0-.2.1-.3.1.1 0 .2.1.3.1.6.2 1.2.3 1.6.2.5-.2 1.7-1 2.6-1.6 0 0 .1 0 .1-.1 0 0-.1-.1-.1-.2-.4-.5-.7-1-1.1-1.5-.8-1.2-1.5-2.4-2.1-3.8 0-.1-.1-.2-.1-.3-.2-.5-.4-.9-.7-1.4-.3.1-.6.2-.9.2C21.4 135.3 21.2 135.3 21.1 135.3z" class="st3"/><path d="M12.9,116.1c2.6-4.3,8.1-9.2,12.4-11.9c1-0.6,0.8-0.5,1.8-0.9c-4.5,4-9.8,7.9-12.9,13.3 c-0.2,0.4-0.6,0.6-1,0.4C12.9,116.9,12.7,116.5,12.9,116.1z" class="st8"/><path d="M40.2 116.8l-7.9-.6 0 0-2 2.2-2.5 2.7h-.2c0 0-1.9.3-5-.9 0 0-.1 0-.1 0 0 .2 0 .3 0 .4 0 .2 0 .4 0 .5 0 0 .1 0 .1 0 .2.1.3.1.5.2 2.9 1.1 4.9 1.1 4.9 1.1l1.6-1.8 2-2.3.7-.8 7.7.7C40.2 117.6 40.2 117.2 40.2 116.8zM43.2 145.9c-4.6 0-9.7-1.7-14.1-4.8-.4-.3-.8-.6-1.2-.9-.1-.1-.2-.2-.3-.2-.4-.3-.7-.6-1.1-.9-.1-.1-.2-.2-.3-.3-.4-.4-.8-.7-1.2-1.1.2.4.4.8.6 1.2.2.3.3.6.5.8.1.1.2.2.2.4.4.6.8 1.1 1.2 1.6 0 0 0 0 0 0 .2.3.5.6.7.9 1.1 1.3 2.3 2.5 3.6 3.5.5.4 1 .8 1.4 1.1.8.6 1.7 1.2 2.6 1.7.2.1.3.2.5.3.5.3 1.1.6 1.6.8.4.2.9.4 1.4.6.8.3 1.6.6 2.4.8 0 0 0 0 .1 0 .4.1.8.2 1.2.3 1.1.2 2.2.4 3.3.5-1.3-1.8-2.4-3.8-3.3-6.3C43.3 145.9 43.2 145.9 43.2 145.9z" class="st3"/><path d="M31.8,147.4c-1.4-1.1-2.7-2.3-3.9-3.6c0.6,3.1,2.3,5.8,4.4,7.5c0.3,0.2,0.6,0.5,1,0.7 c0.1,0.1,0.3,0.2,0.4,0.2c0.4,0.2,0.9,0.5,1.4,0.6c0.7,0.2,1.5,0.4,2.3,0.4h0c-1-0.4-1.9-1-2.7-1.8c-0.2-0.2-0.3-0.3-0.4-0.4 c-0.3-0.3-0.5-0.6-0.8-0.9c-0.2-0.3-0.4-0.6-0.6-0.9C32.5,148.7,32.1,148.1,31.8,147.4z" class="st5"/><path d="M23.4,118.4c0.6-4.5,3.4-11,6.5-14.3l1.4-1.2c-2.5,5.6-5,9.3-5.4,15.7c0,0.7-0.6,1.2-1.3,1.1 C23.8,119.7,23.3,119.1,23.4,118.4z" class="st8"/><path d="M20,177.8h3.4c0.2-0.7,0.4-1.4,0.7-2c1-1.8,2.6-3,4.4-3.5c1.4-0.5,3-0.6,4.2-0.4 c-0.1-0.1-0.2-0.1-0.2-0.2c-0.3,0-0.5,0-0.8,0c-3.5-0.1-6.4,0.6-8.5,2C21.5,174.7,20.4,176.2,20,177.8z" class="st4"/><path d="M72.7 194.5c-.4-3-3.2-6.7-6.8-10-1 .8-2 1.7-2.8 2.7 0 0 0 0-.1.1 3.4 5.2 6.8 7.7 9.7 8.7 0 0 0 0 0-.1C72.7 195.5 72.7 195 72.7 194.5zM78.4 193.2c-.3-3.7-3.6-8.6-7-11.2-1.1.2-2.2.6-3.2 1 1.4 1.2 3.9 3.8 5.4 6.8 1 2.1 1.6 4.3 1.1 6.4 0 .1 0 .2 0 .2 1.4.2 2.6.1 3.6-.1 0-.2.1-.4.1-.6C78.4 195 78.4 194.2 78.4 193.2z" class="st6"/><path d="M81.4 191.6c-.2-3.8-3-6.4-6.5-9.6-.4-.1-.8-.1-1.2-.1 1.7 1.3 4 3.8 5.5 6.7 1 1.9 1.5 4 1.4 6.1 0 .2 0 .5-.1.8.2-.2.4-.3.6-.5.1-.3.2-.6.2-.9C81.4 193.3 81.5 192.5 81.4 191.6zM62.4 170.2c.8 0 1.3.8 1.6 1.6-.5-2.1-1.3-5.1-2.5-9.3-.5-.2-1-.4-1.4-.7C61.2 165.4 61.9 168.1 62.4 170.2zM39.8 164.8c-.6-2-1.4-4.7-2.5-8.5 0 0-.1 0-.1 0-.4 0-.7 0-1.1-.1 1.2 4.2 2.1 7.1 2.7 9.1C39.1 165.1 39.4 164.9 39.8 164.8z" class="st6"/><path d="M36.5 96.4c-.4 3.7 9.7 4.8 12.7 2.6l.3-.2c-1.4 3.2-14.6 3.2-14.3-2.6 0-.4.4-.6.7-.5C36.4 95.7 36.6 96.1 36.5 96.4zM38.7 169.1c.2-.6.5-1.1.8-1.4.8-1 1.8-1.1 2.8-.6.5.3 1 .7 1.5 1.3.1.1.1.2.2.3-.1-.2-.2-.3-.2-.4-.5-.8-1.1-1.5-1.7-1.9-1-.7-2.2-.8-3 0-.3.3-.6.7-.8 1.2-.2.3-.3.7-.4 1.1-.4 1.4-.4 1.4-.4 1.4s-2 0-3.4-.2c-.6-.1-1.3-.1-2.1-.2.4.2.9.5 1.3.8.1.1.2.2.3.2.4 0 .8.1 1.1.1 1.4.2 3.4.2 3.4.2s0 0 .4-1.4C38.6 169.5 38.6 169.3 38.7 169.1z" class="st8"/><path d="M58,149.7c-3.2-1.4-6.1-3.6-8.3-6.7c-0.3-0.4-0.6-0.9-1-1.4c-0.6-0.9-1-1.8-1.4-2.8 c-0.1-0.2-0.2-0.4-0.3-0.7c0-0.1-0.1-0.2-0.1-0.4c-0.1-0.3-0.2-0.6-0.3-1c-0.1-0.4-0.2-0.8-0.4-1.2c-0.7-2.3-1.2-4.7-1.6-7.1 c0-0.3-0.1-0.6-0.1-0.8c0.1,2.5,0.4,5,0.8,7.5c0,0.2,0.1,0.4,0.1,0.6c0.1,0.4,0.1,0.8,0.2,1.2c0.1,0.3,0.1,0.6,0.2,1 s0.2,0.7,0.2,1c0.5,2,1,4,1.7,5.9c0.3,0.7,0.6,1.4,0.9,2c0.6,1.2,1.3,2.3,2.1,3.2c0.5,0.6,1.1,1.2,1.6,1.8l0,0l0,0 c0.4,0.3,0.7,0.6,1.1,0.9c0,0,0,0,0.1,0c0.9,0.7,1.8,1.3,2.8,1.9c0.2,0.1,0.4,0.2,0.6,0.4c0.1,0.1,0.3,0.2,0.4,0.2 c0.4,0.2,0.7,0.4,1,0.6c0.8,0.4,1.5,0.8,2.3,1.2c0.5,0.2,1,0.5,1.6,0.8c0.2,0.1,0.3,0.2,0.5,0.2c0.2,0.1,0.5,0.2,0.7,0.4 c0.2,0.1,0.4,0.2,0.6,0.3c0,0,0.1,0,0.1,0c0.4-0.2,0.8-0.4,1.2-0.6c6.6-3.2,12.1-5.7,15-12.4c-3.3,3.7-8,5.5-12.8,5.7 c-0.4,0-0.8,0-1.2,0c-2.3,0-4.6-0.5-6.9-1.3h0c-0.4-0.2-0.9-0.3-1.3-0.5c0,0,0,0,0,0C58,149.7,58,149.7,58,149.7z" class="st4"/></g><path d="M74.5,180.8c-2.6-2.4-5.3-4.4-6.6-5.4c0,0-0.2-3.1-0.8-4.2c-0.2-0.2-0.3-0.4-0.4-0.5 c-0.1,0-0.2-0.1-0.2-0.1c0.9,5.1,0.9,5.1,0.9,5.1l0.4,0.4l5.4,4.7C73.5,180.7,74,180.7,74.5,180.8z" class="st8"/></g><path d="M1.3 178h54.3c.4 0 .8.3.8.8l0 0c0 .4-.3.8-.8.8H1.3c-.4 0-.8-.3-.8-.8l0 0C.5 178.3.8 178 1.3 178zM78 178h9.5c.4 0 .8.3.8.8l0 0c0 .4-.3.8-.8.8H78c-.4 0-.8-.3-.8-.8l0 0C77.2 178.3 77.6 178 78 178z" class="st2"/></g><path d="M46.8,111.8c-1.2,7.6-1.6,14.8-0.6,18.8c1.1,4,1.1,4,1.1,4l17.2-28.1C64.4,106.4,58.2,113.1,46.8,111.8z" class="st9"/></g></g><g><path d="M30.5 109.3c-.2-.1-.4-.2-.5-.2.2-.3.3-.6.5-1-.3-.2-.7-.3-1-.4-.2.3-.3.6-.5.9-.2-.1-.3-.2-.5-.2.4-.8.8-1.5 1.2-2.2.2.1.3.2.5.2-.2.3-.3.6-.5 1 .3.2.6.3 1 .4.2-.3.3-.7.4-1 .2.1.3.1.5.2C31.3 107.7 30.9 108.5 30.5 109.3zM33.5 109.3c-.1.3-.3.5-.6.6-.3.1-.6.1-.9 0-.3-.1-.6-.3-.7-.6-.1-.3-.1-.5 0-.8.1-.2.1-.3.2-.4.1-.3.3-.5.6-.6.3-.1.6-.1.8 0 .3.1.5.3.6.6.1.2.2.5 0 .8C33.7 108.9 33.6 109.1 33.5 109.3zM33.2 108.7c.1-.2.1-.4 0-.5 0-.2-.2-.2-.3-.3s-.3 0-.5 0c-.2.1-.2.2-.3.4 0 .2-.1.3-.2.4-.1.2-.1.4 0 .5 0 .2.2.3.3.3.2.1.4 0 .5 0 .2-.1.3-.2.3-.4C33.1 108.9 33.1 108.8 33.2 108.7zM35.9 110.9c-.2 0-.4-.1-.6-.1-.2-.6-.4-1.3-.6-2l0 0c-.2.6-.4 1.1-.6 1.6-.2 0-.4-.1-.6-.2.3-.8.6-1.6.9-2.4.2 0 .4.1.5.2.2.6.4 1.3.6 2l0 0c.2-.6.4-1.1.5-1.7.2 0 .4.1.5.1C36.3 109.3 36.1 110.1 35.9 110.9zM37.6 110.2c-.1 0-.2 0-.3 0-.1.4-.2.7-.3 1-.2 0-.4-.1-.6-.1.2-.8.5-1.6.7-2.5.2 0 .4.1.6.1-.1.3-.2.7-.2 1 .1 0 .2 0 .2 0 .3-.3.6-.6 1-.9.2 0 .4.1.7.1-.4.4-.8.7-1.2 1 .2.5.5 1 .7 1.5-.2 0-.5-.1-.7-.1C37.9 110.9 37.8 110.6 37.6 110.2z" class="st0"/></g></g></svg>