<svg xmlns="http://www.w3.org/2000/svg" role="img" viewBox="2.53 219.03 648.44 213.94"><title>Optum (Adopter) logo</title><style>svg {enable-background:new 0 0 652 652}</style><style>.st0{fill:#ef7e09}.st1{fill:#e05e00}.st2{fill:#f9bb00}.st3{fill:#bbb9b5}.st4{fill:#939190}.st6{fill:#e5a900}.st8{fill:#f5be00}</style><path d="M135.1 352.8c-2.9 11.3-5.8 23-8.6 34.9 12.6 8.1 25 16.2 37.3 23.1-9.4-17.9-18.9-37.6-28.7-58" class="st0"/><path d="M135.1 352.8c11.3 8 22.3 16.2 33.1 23.7-1.5 11-3 22.4-4.5 34.2-9.3-17.8-18.8-37.5-28.6-57.9m0 0c-2.9 11.3-5.8 23-8.6 34.9-12.6-8.1-25.4-16.4-38.4-23.7 15.5-5 31.4-9 47-11.2" class="st1"/><path d="M135.1 352.8c-11.3-8-22.8-16-34.4-23.1-4.3 11.3-8.5 22.8-12.5 34.3 15.4-5 31.3-9 46.9-11.2" class="st2"/><path d="M147.9 306.5c-1.9 6.5-3.9 13.2-5.8 20.1 10.1 8.1 19.9 16.4 29.5 24.5-7.7-14.1-15.6-29.1-23.7-44.6" class="st0"/><path d="M147.9 306.5c9.1 8.2 17.9 16.7 26.4 25-.9 6.3-1.7 12.8-2.7 19.5-7.7-14-15.6-29-23.7-44.5" class="st1"/><path d="M135.1 352.8c2.3-9 4.7-17.8 7.1-26.3 10.1 8.1 19.9 16.4 29.5 24.5-11.8-.7-24.1 0-36.6 1.8" class="st2"/><path d="M135.1 352.8c11.3 8 22.3 16.2 33.1 23.7 1.2-8.8 2.3-17.3 3.4-25.5-11.7-.7-24 0-36.5 1.8" class="st0"/><path d="M147.9 306.5c1.6-5.4 3.2-10.6 4.8-15.6 8.2 8.3 16.1 16.8 23.7 25.3-9-4.4-18.5-7.6-28.5-9.7" class="st3"/><path d="M147.9 306.5c9.1 8.2 17.9 16.7 26.4 25 .7-5.2 1.4-10.3 2.1-15.3-9-4.4-18.5-7.6-28.5-9.7m0 0c1.6-5.4 3.2-10.6 4.8-15.6-8.2-8.3-16.7-16.2-25.4-23.7 7 13.2 13.9 26.4 20.6 39.3" class="st4"/><path fill="#dad8d5" d="M147.9 306.5c-9.1-8.2-18.5-16.1-28.1-23.5 2.4-5.4 4.9-10.7 7.4-15.8 7.1 13.2 14 26.4 20.7 39.3"/><path d="M65.8 311.3c-5.5 11.4-10.8 22.9-15.9 34.2 12.4 4.6 25.4 11.1 38.3 18.4-7.5-18-15-35.7-22.4-52.6" class="st1"/><path d="M65.8 311.3c11.5 4.9 23.3 11.2 34.9 18.3-4.3 11.3-8.5 22.8-12.5 34.3-7.5-18-15-35.7-22.4-52.6" class="st0"/><path d="M65.8 311.3c-5.5 11.4-10.8 22.9-15.9 34.2-12.4-4.6-24.3-7.4-34.7-7.3 14.8-11.8 32.1-20.9 50.6-26.9" class="st6"/><path fill="#ffdb00" d="M65.8 311.3c-11.5-4.9-22.7-8.2-33-9.5-6.1 12.3-11.9 24.5-17.6 36.4 14.8-11.8 32.1-20.9 50.6-26.9m24.8-47.9c-3.9 6.8-7.7 13.8-11.5 21-10.6-5.3-21.2-9.3-31.2-11.7 13.5-5.7 28-8.8 42.7-9.3"/><path d="M90.6 263.4c-9.8-5.7-19.7-10.3-29.2-13.7-4.6 7.4-9.1 15.1-13.4 22.9 13.4-5.6 27.9-8.7 42.6-9.2m-24.8 47.9c4.4-9.1 8.8-18.1 13.4-26.9-10.6-5.3-21.2-9.3-31.2-11.7 5.9 12.2 11.8 25.2 17.8 38.6" class="st8"/><path d="M65.8 311.3c-11.5-4.9-22.7-8.2-33-9.5 4.9-9.8 9.9-19.6 15.2-29.2 5.9 12.3 11.8 25.3 17.8 38.7" class="st6"/><path d="M90.6 263.4c3.2-5.7 6.5-11.1 9.8-16.4 9.1 6 18 12.9 26.8 20.3-12-3.1-24.3-4.4-36.6-3.9" class="st4"/><path d="M90.6 263.4c9.8 5.7 19.6 12.3 29.2 19.7 2.5-5.4 4.9-10.7 7.4-15.8-12-3.1-24.3-4.4-36.6-3.9" class="st3"/><path d="M90.6 263.4c3.2-5.7 6.5-11.1 9.8-16.4-9.1-6-18.2-11.2-27.2-15.2 5.9 10.1 11.7 20.7 17.4 31.6" class="st8"/><path d="M90.6 263.4c-9.8-5.7-19.7-10.3-29.2-13.7 3.8-6.2 7.8-12.2 11.8-17.9 5.9 10.1 11.7 20.7 17.4 31.6" class="st6"/><path fill="#58575a" d="M241.8 421c-24.2 0-41.1-18.4-41.1-40.7 0-22.3 17.1-40.9 41.4-40.9 24.2 0 41.1 18.4 41.1 40.7 0 22.3-17.2 40.9-41.4 40.9m0-68.9c-15.7 0-26.6 12.5-26.6 28s11.2 28.2 26.8 28.2c15.7 0 26.6-12.5 26.6-28s-11.1-28.2-26.8-28.2m83.7 42.1h-15.7v25.4H296v-78.9h31.1c18.4 0 30 10.4 30 26.5 0 17.8-14.2 27-31.6 27m.5-40.9h-16.1v28.4H326c10.5 0 17-5.7 17-14.2 0-9.3-6.6-14.2-17-14.2m76.4 66.3h-14v-66h-25v-12.9h64v12.9h-25zm104.9-34.1c0 23.6-13.3 35.4-33.9 35.4-20.5 0-33.6-11.8-33.6-34.7v-45.4h13.9v44.9c0 14.7 7.6 22.5 20 22.5 12.3 0 19.8-7.4 19.8-22v-45.4h13.9v44.7zm53.8 14.7h-.4l-24.7-37v56.4h-13.6v-78.9h14.7l24 37.3 24.1-37.3h14.7v78.9h-13.8V363zm54-50.1c0-6.5 5.2-12 11.8-12 6.7 0 11.8 5.4 11.8 11.8v.1c0 6.5-5.2 11.9-11.8 11.9-6.6 0-11.8-5.4-11.8-11.8m22.3-.1c0-5.9-4.5-10.6-10.5-10.6-5.9 0-10.5 4.8-10.5 10.6v.1c0 5.8 4.5 10.6 10.5 10.6 6-.1 10.5-4.9 10.5-10.7m-14.9-6.2h5.3c2.5 0 4.4 1.3 4.4 3.7 0 2-1.3 3.1-2.9 3.6l3.3 4.6h-2.4l-3-4.4h-2.9v4.4h-1.9v-11.9zm5.1 6c1.7 0 2.7-.9 2.7-2.2 0-1.4-1-2.1-2.7-2.1h-3.2v4.3h3.2z"/></svg>