<svg xmlns="http://www.w3.org/2000/svg" role="img" viewBox="-5.18 -5.18 269.36 269.36"><title>OSS Review Toolkit logo</title><style>.st7{fill:#fff}.st57{fill:#52a3db}.st95{fill:#383c45}</style><style>.st7{fill:#fff}.st57{fill:#52a3db}.st95{fill:#383c45}</style><style>.st7{fill:#fff}.st57{fill:#52a3db}.st95{fill:#383c45}</style><style>.st7{fill:#fff}.st57{fill:#52a3db}.st95{fill:#383c45}</style><style id="style2" type="text/css">.st7{fill:#fff}.st57{fill:#52a3db}.st95{fill:#383c45}</style><path id="polygon4" fill="#fff" stroke="#fff" stroke-miterlimit="10" stroke-width="1.5" d="M.75 172.55v85.9h85.9l85.9-.1 85.9-85.8V.75H86.65L.75 86.65z"/><g id="g111" transform="translate(-2.05 -.55)"><defs id="defs9"><filter id="Adobe_OpacityMaskFilter" width="257.7" height="257.7" x="2.8" y="1.3" filterUnits="userSpaceOnUse"><feColorMatrix id="feColorMatrix6" type="matrix" values="1 0 0 0 0 0 1 0 0 0 0 0 1 0 0 0 0 0 1 0"/></filter></defs><mask id="SVGID_1_" width="257.7" height="257.7" x="2.8" y="1.3" maskUnits="userSpaceOnUse"><g id="g56" filter="url(#Adobe_OpacityMaskFilter)"><linearGradient id="SVGID_2_" x1="-1103.395" x2="-1314.505" y1="463.1" y2="679.008" gradientTransform="translate(1333.97 -435.53)" gradientUnits="userSpaceOnUse"><stop id="stop11" offset="0" stop-color="#fff"/><stop id="stop13" offset=".113" stop-color="#f9f9f9"/><stop id="stop15" offset=".262" stop-color="#e8e8e8"/><stop id="stop17" offset=".432" stop-color="#cdcdcd"/><stop id="stop19" offset=".617" stop-color="#a6a6a6"/><stop id="stop21" offset=".812" stop-color="#767676"/><stop id="stop23" offset="1" stop-color="#404040"/></linearGradient><path id="rect26" fill="url(#SVGID_2_)" d="M1.5-2.9h259v264.7H1.5z"/><radialGradient id="SVGID_3_" cx="-2704.321" cy="2026.374" r="80.678" fx="-2726.777" fy="2028.386" gradientTransform="matrix(-2.882 -2.1339 .6264 -.8836 -8820.787 -3807.837)" gradientUnits="userSpaceOnUse"><stop id="stop28" offset="0" stop-color="#0d0d0d"/><stop id="stop30" offset=".145" stop-color="#303030" stop-opacity=".956"/><stop id="stop32" offset="1" stop-color="#fff" stop-opacity=".7"/></radialGradient><path id="rect35" fill="url(#SVGID_3_)" d="M1.5-2.9h259v264.7H1.5z" opacity=".4"/><linearGradient id="SVGID_4_" x1="1722.29" x2="1468.968" y1="-2853.857" y2="-2707.602" gradientTransform="rotate(90 -590.23 -2063.64)" gradientUnits="userSpaceOnUse"><stop id="stop37" offset="0" stop-color="#fff" stop-opacity="0"/><stop id="stop39" offset=".108" stop-color="#f9f9f9" stop-opacity=".108"/><stop id="stop41" offset=".252" stop-color="#e8e8e8" stop-opacity=".252"/><stop id="stop43" offset=".415" stop-color="#cdcdcd" stop-opacity=".415"/><stop id="stop45" offset=".593" stop-color="#a6a6a6" stop-opacity=".593"/><stop id="stop47" offset=".782" stop-color="#757575" stop-opacity=".782"/><stop id="stop49" offset=".979" stop-color="#3a3a3a" stop-opacity=".979"/><stop id="stop51" offset="1" stop-color="#333"/></linearGradient><path id="polygon54" fill="url(#SVGID_4_)" d="M260.5 261.7V-2.9H1.5v264.6z" opacity=".9"/></g></mask><g id="g103" mask="url(#SVGID_1_)"><g id="g63"><path id="polygon59" fill="#fab800" d="M88.3 86.8H3.7L88.3 2.2z"/><path id="path61" d="M88 3.1v83.3H4.6L88 3.1m.7-1.8L2.8 87.2h85.9z" class="st7"/></g><g id="g71"><path id="polygon65" fill="#59cbc8" d="M259.6 172.7H89.1V2.2z"/><g id="g69"><path id="path67" d="M89.5 3.1l169.2 169.2H89.5V3.1m-.8-1.8v171.8h171.8z" class="st7"/></g></g><g id="g77"><path id="polygon73" fill="#00afaa" d="M260.1 172.2L89.6 1.7h170.5z"/><path id="path75" d="M259.7 2v169.2L90.5 2h169.2m.8-.7H88.7l171.8 171.8z" class="st7"/></g><g id="g83"><path id="rect79" fill="#ec610e" d="M3.2 87.6h85.1v85.1H3.2z"/><path id="path81" d="M88 87.9v84.4H3.6V87.9H88m.7-.7H2.8v85.9h85.9z" class="st7"/></g><g id="g89"><path id="polygon85" d="M87.8 258.6H3.2V174z" class="st57"/><path id="path87" d="M3.6 174.9l83.3 83.3H3.6v-83.3m-.8-1.8V259h85.9z" class="st7"/></g><g id="g95"><path id="polygon91" fill="#673a93" d="M259.6 173.4l-85.2 85.2H89.6l85.2-85.2z"/><path id="path93" d="M258.7 173.8l-84.4 84.4H90.5l84.4-84.4h83.8m1.8-.7h-85.9L88.7 259h85.9z" class="st7"/></g><g id="g101"><path id="polygon97" fill="#c41c33" d="M88.7 258.4l-85-85h170z"/><path id="path99" d="M172.8 173.8l-84.1 84.1-84.1-84.1h168.2m1.8-.7H2.8L88.7 259z" class="st7"/></g></g><g id="g109" opacity=".5"><path id="polygon105" d="M87.8 258.6H3.2V174z" class="st57"/><path id="path107" d="M3.6 174.9l83.3 83.3H3.6v-83.3m-.8-1.8V259h85.9z" class="st7"/></g></g><g id="g145" transform="matrix(.3 0 0 .3 -97.17 91.035)"><path id="path113" d="M422.8 72.6c0 27.7-14.2 43.4-35.2 43.4-20.9 0-35.2-15.1-35.2-43.2 0-27.7 14.4-43.7 35.2-43.7 20.9-.2 35.2 15.1 35.2 43.5zm-59.2.1c0 24.4 9.8 34.4 23.9 34.4 14.7 0 23.9-10 23.9-34.6s-9.2-34.8-23.9-34.8c-14.3 0-23.9 10.3-23.9 35z" class="st95"/><path id="path115" d="M488.2 38.6l-5.7 6.5c-6.4-5.1-12.2-7.3-19.3-7.3-8.9 0-15.6 4.3-15.6 12.5 0 7.5 3.5 11 18.7 15.6 13.8 4.2 24.7 9.5 24.7 25.3 0 14.7-11 24.8-29.4 24.8-12 0-21.3-4-28.2-10.8l5.9-6.6c6.4 5.3 12.9 8.6 22.2 8.6 10.3 0 18.6-5.3 18.6-15.6 0-8.7-4.2-12.5-18.6-16.9-16.5-5-24.7-11.2-24.7-24.1 0-12.6 10.8-21.6 26-21.6 11.4-.1 18.6 3.4 25.4 9.6z" class="st95"/><path id="path117" d="M553.2 38.6l-5.7 6.5c-6.4-5.1-12.2-7.3-19.3-7.3-8.9 0-15.6 4.3-15.6 12.5 0 7.5 3.5 11 18.7 15.6 13.8 4.2 24.7 9.5 24.7 25.3 0 14.7-11 24.8-29.4 24.8-12 0-21.3-4-28.2-10.8l5.9-6.6c6.4 5.3 12.9 8.6 22.2 8.6 10.3 0 18.6-5.3 18.6-15.6 0-8.7-4.2-12.5-18.6-16.9-16.5-5-24.7-11.2-24.7-24.1 0-12.6 10.8-21.6 26-21.6 11.4-.1 18.6 3.4 25.4 9.6z" class="st95"/><path id="path119" d="M381.1 193.6h-7.8V226h-20v-84.7H381c23 0 34.8 8.2 34.8 25.8 0 11.1-5.3 17.8-16.2 22.8l21.5 36h-22.6zm-7.8-13.8h8.4c8.8 0 13.4-3.8 13.4-12.7 0-8.2-4.8-11.7-14.7-11.7h-7.2v24.4z" class="st95"/><path id="path121" d="M483.1 199.2h-40.2c1.3 11.6 6.8 14.8 14.8 14.8 5.3 0 9.9-1.8 15.5-5.7l7.9 10.8c-6.5 5.1-14.8 9-25.3 9-21.6 0-32.6-13.9-32.6-34.2 0-19.4 10.6-34.8 30.3-34.8 18.6 0 29.9 12.2 29.9 33.2.1 2 0 5-.3 6.9zm-18.6-12.4c-.1-8.8-2.8-14.9-10.5-14.9-6.5 0-10.3 4.2-11.1 15.8h21.6z" class="st95"/><path id="path123" d="M529 226h-22.8l-20.9-64.9h21l11.5 50.2 12-50.2h19.7z" class="st95"/><path id="path125" d="M577.2 137.9c0 6.2-4.8 11-11.5 11s-11.4-4.8-11.4-11 4.6-11 11.4-11c6.8 0 11.5 4.8 11.5 11zm-1.7 88.1h-19.3v-64.9h19.3z" class="st95"/><path id="path127" d="M646.7 199.2h-40.2c1.3 11.6 6.8 14.8 14.8 14.8 5.3 0 9.9-1.8 15.5-5.7l7.9 10.8c-6.5 5.1-14.8 9-25.3 9-21.6 0-32.6-13.9-32.6-34.2 0-19.4 10.6-34.8 30.3-34.8 18.6 0 29.9 12.2 29.9 33.2 0 2-.1 5-.3 6.9zm-18.6-12.4c-.1-8.8-2.8-14.9-10.5-14.9-6.5 0-10.3 4.2-11.1 15.8h21.6z" class="st95"/><path id="path129" d="M728 226h-23.1l-8.7-47.6-8.6 47.6h-22.8L651 161.1h19.5l6.7 50.5 10.1-50.5h18.8l8.9 50.5 7.8-50.5h18.4z" class="st95"/><path id="path131" d="M834.9 156.7H814V226h-20v-69.3h-21.9v-15.4h64.7z" class="st95"/><path id="path133" d="M897.7 193.6c0 20.8-12 34.5-31.8 34.5-19.7 0-31.8-12.7-31.8-34.6 0-20.8 12-34.4 31.8-34.4 19.8-.1 31.8 12.6 31.8 34.5zm-43.5-.1c0 14.4 3.9 20.4 11.7 20.4 7.8 0 11.7-6.2 11.7-20.3 0-14.4-3.9-20.4-11.7-20.4-7.8 0-11.7 6.2-11.7 20.3z" class="st95"/><path id="path135" d="M969.1 193.6c0 20.8-12 34.5-31.8 34.5-19.7 0-31.8-12.7-31.8-34.6 0-20.8 12-34.4 31.8-34.4 19.8-.1 31.8 12.6 31.8 34.5zm-43.5-.1c0 14.4 3.9 20.4 11.7 20.4 7.8 0 11.7-6.2 11.7-20.3 0-14.4-3.9-20.4-11.7-20.4-7.8 0-11.7 6.2-11.7 20.3z" class="st95"/><path id="path137" d="M979.6 209.5v-74.2l19.3-2.1v75.5c0 2.7 1.1 4 3.4 4 1.2 0 2.3-.2 3.2-.6l3.7 13.7c-2.8 1.2-7 2.2-11.7 2.2-11.3.1-17.9-6.7-17.9-18.5z" class="st95"/><path id="path139" d="M1036.4 226h-19.3v-90.6l19.3-2.1zm20.4-36.4L1078 226h-21.7l-19.3-35.4 19.8-29.4h19.7z" class="st95"/><path id="path141" d="M1105.4 137.9c0 6.2-4.8 11-11.5 11s-11.4-4.8-11.4-11 4.6-11 11.4-11c6.8 0 11.5 4.8 11.5 11zm-1.7 88.1h-19.3v-64.9h19.3z" class="st95"/><path id="path143" d="M1159.4 222.9c-4.9 3.4-11.7 5.1-17.6 5.1-14.3-.1-21.3-8.2-21.3-23.5v-30.1h-9.2V161h9.2v-14l19.3-2.2V161h14.9l-2.1 13.4h-12.8v29.8c0 6.2 2.1 8.4 6.1 8.4 2.2 0 4.4-.6 7-2.1z" class="st95"/></g></svg>