<svg xmlns="http://www.w3.org/2000/svg" role="img" viewBox="-2.47 -2.47 128.44 35.06"><title>Paypal (Adopter) logo</title><path fill="#253B80" d="M46.211 6.749h-6.839c-.468 0-.866.34-.939.802l-2.766 17.537c-.055.346.213.658.564.658h3.265c.468 0 .866-.34.939-.803l.746-4.73c.072-.463.471-.803.938-.803h2.165c4.505 0 7.105-2.18 7.784-6.5.306-1.89.013-3.375-.872-4.415-.972-1.142-2.696-1.746-4.985-1.746zM47 13.154c-.374 2.454-2.249 2.454-4.062 2.454h-1.032l.724-4.583c.043-.277.283-.481.563-.481h.473c1.235 0 2.4 0 3.002.704.359.42.469 1.044.332 1.906zm19.654-.079h-3.275c-.279 0-.52.204-.563.481l-.145.916-.229-.332c-.709-1.029-2.29-1.373-3.868-1.373-3.619 0-6.71 2.741-7.312 6.586-.313 1.918.132 3.752 1.22 5.031.998 1.176 2.426 1.666 4.125 1.666 2.916 0 4.533-1.875 4.533-1.875l-.146.91c-.055.348.213.66.562.66h2.95c.469 0 .865-.34.939-.803l1.77-11.209c.056-.345-.211-.658-.561-.658zm-4.565 6.374c-.316 1.871-1.801 3.127-3.695 3.127-.951 0-1.711-.305-2.199-.883-.484-.574-.668-1.391-.514-2.301.295-1.855 1.805-3.152 3.67-3.152.93 0 1.686.309 2.184.892.499.589.697 1.411.554 2.317zm22.007-6.374h-3.291c-.314 0-.609.156-.787.417l-4.539 6.686-1.924-6.425c-.121-.402-.492-.678-.912-.678h-3.234c-.393 0-.666.384-.541.754l3.625 10.638-3.408 4.811c-.268.379.002.9.465.9h3.287c.312 0 .604-.152.781-.408l10.946-15.8c.262-.378-.007-.895-.468-.895z"/><path fill="#179BD7" d="M94.992 6.749h-6.84c-.467 0-.865.34-.938.802l-2.766 17.537c-.055.346.213.658.562.658h3.51c.326 0 .605-.238.656-.562l.785-4.971c.072-.463.471-.803.938-.803h2.164c4.506 0 7.105-2.18 7.785-6.5.307-1.89.012-3.375-.873-4.415-.971-1.142-2.694-1.746-4.983-1.746zm.789 6.405c-.373 2.454-2.248 2.454-4.062 2.454h-1.031l.725-4.583c.043-.277.281-.481.562-.481h.473c1.234 0 2.4 0 3.002.704.359.42.468 1.044.331 1.906zm19.653-.079h-3.273c-.281 0-.52.204-.562.481l-.145.916-.23-.332c-.709-1.029-2.289-1.373-3.867-1.373-3.619 0-6.709 2.741-7.311 6.586-.312 1.918.131 3.752 1.219 5.031 1 1.176 2.426 1.666 4.125 1.666 2.916 0 4.533-1.875 4.533-1.875l-.146.91c-.055.348.213.66.564.66h2.949c.467 0 .865-.34.938-.803l1.771-11.209c.054-.345-.214-.658-.565-.658zm-4.565 6.374c-.314 1.871-1.801 3.127-3.695 3.127-.949 0-1.711-.305-2.199-.883-.484-.574-.666-1.391-.514-2.301.297-1.855 1.805-3.152 3.67-3.152.93 0 1.686.309 2.184.892.501.589.699 1.411.554 2.317zm8.426-12.219l-2.807 17.858c-.055.346.213.658.562.658h2.822c.469 0 .867-.34.939-.803l2.768-17.536c.055-.346-.213-.659-.562-.659h-3.16c-.279.001-.519.205-.562.482z"/><path fill="#253B80" d="M7.266 29.154l.523-3.322-1.165-.027H1.061L4.927 1.292c.012-.074.051-.143.108-.192.057-.049.13-.076.206-.076h9.38c3.114 0 5.263.648 6.385 1.927.526.6.861 1.227 1.023 1.917.17.724.173 1.589.007 2.644l-.012.077v.676l.526.298c.443.235.795.504 1.065.812.45.513.741 1.165.864 1.938.127.795.085 1.741-.123 2.812-.24 1.232-.628 2.305-1.152 3.183-.482.809-1.096 1.48-1.825 2-.696.494-1.523.869-2.458 1.109-.906.236-1.939.355-3.072.355h-.73c-.522 0-1.029.188-1.427.525-.399.344-.663.814-.744 1.328l-.055.299-.924 5.855-.042.215c-.011.068-.03.102-.058.125-.025.021-.061.035-.096.035H7.266z"/><path fill="#179BD7" d="M23.048 7.667c-.028.179-.06.362-.096.55-1.237 6.351-5.469 8.545-10.874 8.545H9.326c-.661 0-1.218.48-1.321 1.132L6.596 26.83l-.399 2.533c-.067.428.263.814.695.814h4.881c.578 0 1.069-.42 1.16-.99l.048-.248.919-5.832.059-.32c.09-.572.582-.992 1.16-.992h.73c4.729 0 8.431-1.92 9.513-7.476.452-2.321.218-4.259-.978-5.622-.362-.411-.811-.752-1.336-1.03z"/><path fill="#222D65" d="M21.754 7.151c-.189-.055-.384-.105-.584-.15-.201-.044-.407-.083-.619-.117-.742-.12-1.555-.177-2.426-.177h-7.352c-.181 0-.353.041-.507.115-.339.163-.591.484-.652.877L8.05 17.605l-.045.289c.103-.652.66-1.132 1.321-1.132h2.752c5.405 0 9.637-2.195 10.874-8.545.037-.188.068-.371.096-.55-.313-.166-.652-.308-1.017-.429-.09-.03-.183-.059-.277-.087z"/><path fill="#253B80" d="M9.614 7.699c.061-.393.313-.714.652-.876.155-.074.326-.115.507-.115h7.352c.871 0 1.684.057 2.426.177.212.034.418.073.619.117.2.045.395.095.584.15.094.028.187.057.278.086.365.121.704.264 1.017.429.368-2.347-.003-3.945-1.272-5.392C20.378.682 17.853 0 14.622 0h-9.38c-.66 0-1.223.48-1.325 1.133L.01 25.898c-.077.49.301.932.795.932h5.791l1.454-9.225 1.564-9.906z"/></svg>