<svg xmlns="http://www.w3.org/2000/svg" role="img" viewBox="-2.27 -2.27 124.54 19.04"><title>Progressive Insurance (Adopter) logo</title><defs id="defs2"><style id="style47">.cls-1{fill:#2480fe}</style></defs><g id="layer1" transform="translate(-66.212 -137.77)"><g id="g98" transform="translate(66.345 137.904) scale(.26259)"><path id="path53" fill="#2480fe" d="M222.81 30.52c4.9-.51 8.41-2.82 10.39-6.92 1.62-3.34 4.12-8.75 4.14-8.81 2.48-5.12 1.72-8.25.64-10-1.62-2.59-4.79-3.51-7.2-3.51h-24.55l-25.41 54h12.76l9.73-21.21h6.84a3.87 3.87 0 0 1 2.9 1.59c.82 1.36.6 3.44-.69 6.18-3.08 6.61-5.53 13.46-5.53 13.46h12.94a29 29 0 0 1 1.57-5.22c1-2.36 4-9.82 4-9.89 2.47-6.05-.59-8.47-2.53-9.67zm-1.35-8.91c-1.08 2.28-2.74 3.44-4.95 3.44h-8.9l6.75-14.7h9.74a1.75 1.75 0 0 1 1.32.7c.39.64.25 1.71-.4 3.1l-2.23 4.68z" class="cls-1" transform="translate(-1.27 -1)"/><path id="path55" fill="#2480fe" d="M86.61 30.52C91.51 30 95 27.69 97 23.59c1.62-3.34 4.12-8.75 4.15-8.81 2.48-5.12 1.72-8.25.64-10-1.62-2.55-4.79-3.47-7.21-3.47H70l-25.41 54h12.79l9.73-21.21h6.85a3.87 3.87 0 0 1 2.9 1.59c.83 1.36.6 3.44-.69 6.18-3.08 6.61-5.53 13.46-5.53 13.46h12.94a28.74 28.74 0 0 1 1.56-5.22c1-2.36 4-9.82 4-9.89 2.48-6.08-.59-8.5-2.53-9.7zm-1.35-8.92c-1.08 2.29-2.74 3.4-4.94 3.4h-8.9l6.94-14.7h9.54a1.75 1.75 0 0 1 1.32.7c.39.64.25 1.71-.4 3.1l-2.23 4.68z" class="cls-1" transform="translate(-1.27 -1)"/><path id="path57" fill="#2480fe" d="M146.53 14.74C151 5.16 145.94 1 139.5 1H124c-6.52 0-11.12 3.08-14.08 9.41-1.59 3.4-4.24 9-7.31 15.39l-6.48 13.66c-6.51 13.7 3.23 16 8 16h9.79c9.81.1 14.64-2.67 18.43-10.57 2.54-5.28 6.06-12.82 9.8-20.81zm-12.73-1.52l-13 27.69c-1.81 3.82-3 4.47-5.81 4.47h-5.62c-1 0-3-.27-1.5-3.54 2.18-4.7 11.32-24.4 13.19-28.36 1.27-2.7 2.59-3.24 4.31-3.24h7c1.33-.06 2.52.67 1.43 2.98z" class="cls-1" transform="translate(-1.27 -1)"/><path id="path59" fill="#2480fe" d="M167.79 25.33l-4.24 9h6.72l-3.78 8.17c-1.1 2.37-1.85 2.85-4.44 2.85h-6.68c-2 0-2.7-1-1.5-3.54 1.52-3.22 13.52-28.28 13.52-28.28 1.36-2.85 2.17-3.28 4.27-3.28h6.9c1.67 0 2.57.77 1.45 3-.25.49-3 6.5-3 6.5l12.17.09 2.77-5.95C196 5.19 192.38 1.12 184 1h-13.22a16 16 0 0 0-15 9.41C153.37 15.54 142 39.46 142 39.46c-4.16 8.75-1.75 16 9.63 16h10.16c8.12.08 12.11-1.19 15.82-9.31l9.47-20.75z" class="cls-1" transform="translate(-1.27 -1)"/><path id="polygon61" fill="#2480fe" d="M349.96.14l-25.44 54.08h13.11L363.23.14z" class="cls-1"/><path id="polygon63" fill="#2480fe" d="M366.04 47.79L381.06.15h-13.75l-12.6 54.07h17.74L409.52.15h-13.79z" class="cls-1"/><path id="path65" fill="#2480fe" d="M295.45 36.46l-1.1-20c-.13-2.41.46-5.68 4.87-5.68h8.86l4.55-9.64h-15.1c-12 0-16 7.31-15.57 15.9.28 5.25 1 22.33 1 22.33.18 4.12-1.4 6-5.25 6h-10.1l-4.53 9.81h16.1c10.68.06 16.97-6.91 16.27-18.72z" class="cls-1" transform="translate(-1.27 -1)"/><path id="path67" fill="#2480fe" d="M324.54 16.48c-.13-2.41.46-5.68 4.87-5.68h8.86l4.55-9.64h-15.1c-9.92 0-16.14 5.42-15.57 15.9.29 5.25 1 22.33 1 22.33.19 4.12-1.39 6-5.25 6h-9.84l-4.53 9.81h15.84c11.74 0 16.88-8.4 16.26-18.78z" class="cls-1" transform="translate(-1.27 -1)"/><path id="path69" fill="#2480fe" d="M250.43 31.05h16.41l4.21-9h-16.47l5.24-11.22h17l4.46-9.59h-29.62l-25.27 54h32l4.61-9.79h-19.41z" class="cls-1" transform="translate(-1.27 -1)"/><path id="path71" fill="#2480fe" d="M389.88 55.23h32l4.65-9.78h-19.45l6.84-14.4h16.41l4.21-9h-16.47l5.24-11.22h17l4.45-9.59h-29.61z" class="cls-1" transform="translate(-1.27 -1)"/><path id="path73" fill="#2480fe" d="M51.7 27.13c1.07-2.21 3.19-6.79 5.6-12.11 4.23-9.36-1-13.69-6.55-13.71H26.47L1.27 55.39h13.1l8.8-18.94h12.76c8.17.06 12.44-2.45 15.77-9.32zm-6.76-12.54c-2.36 5-4.16 8.74-4.36 9.15C39.52 26 38 27 35.71 27h-8.22l7.77-16.83h8.24c1.81.01 3.1.92 1.44 4.42z" class="cls-1" transform="translate(-1.27 -1)"/><path id="path75" fill="#2480fe" d="M455.35 4.91a1.2 1.2 0 0 0-.55-1.06 2.28 2.28 0 0 0-1.2-.24h-2.14v4.92h.6V6.26h1.1l1.41 2.27h.71l-1.48-2.27c.87-.02 1.55-.38 1.55-1.35zm-2.35.88h-.92V4h1.41c.61 0 1.28.09 1.28.85-.03 1.05-1.1.94-1.77.94z" class="cls-1" transform="translate(-1.27 -1)"/><path id="path77" fill="#2480fe" d="M453.1 1.67a4.4 4.4 0 1 0 4.39 4.39 4.4 4.4 0 0 0-4.39-4.39zm0 8.27a3.87 3.87 0 1 1 3.9-3.87 3.87 3.87 0 0 1-3.9 3.88z" class="cls-1" transform="translate(-1.27 -1)"/></g></g></svg>