<svg xmlns="http://www.w3.org/2000/svg" role="img" viewBox="-5.37 -5.37 279.24 79.99"><title>Qingcloud (Adopter) logo</title><g data-name="图层 2"><g data-name="图层 1"><path fill="#00a971" d="M28.75 62.8l11.26-6.5v13l-11.26-6.5zm13.04-22.59l11.27 6.5-11.27 6.51V40.21zm.89-1.53l11.26-6.5v12.99l-11.26-6.49zm-.89-14.56l11.27 6.51-11.27 6.51V24.12zM.89 14.54l11.26-6.5v13.01L.89 14.54zM0 16.09l11.26 6.5L0 29.09v-13zm0 16.08l11.27 6.51L0 45.18V32.17zM41.79 8.04l11.27 6.5-11.27 6.51V8.04zm.89 14.55l11.26-6.5v13l-11.26-6.5zm-13.93-8.05l11.26-6.5v13.01l-11.26-6.51zm0 32.17l11.26-6.5v13.01l-11.26-6.51zM14.82 6.51L26.08 0v13L14.82 6.51zM27.86 0l11.27 6.51-11.27 6.5V0zm0 48.26l11.27 6.5-11.27 6.51V48.26zm-13.93-8.05l11.26 6.5-11.26 6.51V40.21zm0-32.18l11.26 6.51-11.26 6.51V8.03zM.89 30.63l11.26-6.5v13L.89 30.63zm0 16.08l11.26-6.49v13L.89 46.71zm13.93 8.05l11.26-6.5v13.01l-11.26-6.51z"/><path fill="#3e3d49" d="M89.61 39.58c0 2.35-3 5.2-5.55 6.57a40 40 0 0 1 4.53 2.5c.82.51 1.08 1 .77 1.83-.2.66-1.23 2.13-2 2.13s-1-.2-1.89-.85A55.73 55.73 0 0 0 77 47.23c-3.27-1.34-7.34-4.85-7.34-7.65V21.65c0-3.51 6.52-8.25 9.93-8.25s10 4.74 10 8.25zm-14.92-.66c0 1.78 3.31 4.22 4.89 4.22s5-2.44 5-4.22v-16.6c0-1.79-3.25-4.23-5-4.23-1.58 0-4.89 2.44-4.89 4.23zm25.82 7.34a1.09 1.09 0 0 1-1.12 1.11h-2.8a1.13 1.13 0 0 1-1.12-1.11V15a1.13 1.13 0 0 1 1.12-1.12h2.8a1.09 1.09 0 0 1 1.12 1.12zm11.3-21.4v21.4a1.12 1.12 0 0 1-1.22 1.11h-2.54a1.14 1.14 0 0 1-1.17-1.11V15a1.18 1.18 0 0 1 1.17-1.12h2.14c.81 0 1.17.4 1.58 1.12l10.29 21.6V15a1.06 1.06 0 0 1 1.11-1.12h2.6a1.11 1.11 0 0 1 1.17 1.12v31.26a1.11 1.11 0 0 1-1.17 1.11h-2.09a1.9 1.9 0 0 1-1.58-1.11zm31.89 4.43a1.18 1.18 0 0 1 1.17-1.12h6.21a2.08 2.08 0 0 1 1.64 1.58v9.83c0 3.41-6.42 8.25-9.94 8.25s-10-4.84-10-8.25V21.65c0-3.51 6.62-8.25 10-8.25 2.2 0 5.45 1.68 7.84 3.16a1.26 1.26 0 0 1 .52 1.68l-.87 1.68a1.32 1.32 0 0 1-1.79.4c-1.83-1-4.33-2.23-5.7-2.23-1.53 0-4.94 2.44-4.94 4.23v16.6c0 1.73 3.36 4.22 4.94 4.22s4.89-2.54 4.89-4.22V32.6h-2.8a1.18 1.18 0 0 1-1.17-1.12zm18.69 9.63c0 1.83 3.52 4.27 4.88 4.27s3.52-1.11 5.35-2.13a1.36 1.36 0 0 1 1.89.51l.82 1.68a1.27 1.27 0 0 1-.46 1.68c-2.35 1.42-5.2 2.9-7.6 2.9-3.3 0-9.93-4.53-9.93-8.25V21.65c0-3.61 6.57-8.25 10-8.25 2.14 0 5.1 1.48 7.48 2.85a1.25 1.25 0 0 1 .47 1.74l-.77 1.62a1.28 1.28 0 0 1-1.78.46c-1.83-.91-4-2-5.4-2s-4.94 2.44-4.94 4.28zm17.21 6.36V15a1.18 1.18 0 0 1 1.17-1.12h2.65a1.2 1.2 0 0 1 1.23 1.12v28h9.57a1.14 1.14 0 0 1 1.17 1.12v2.2a1.13 1.13 0 0 1-1.17 1.11h-12.63c-.71-.06-1.99-1.43-1.99-2.15zm37.9-5.7c0 3.51-6.53 8.25-10 8.25s-9.93-4.69-9.93-8.25V21.65c0-3.51 6.52-8.25 9.93-8.25s10 4.74 10 8.25zm-14.93-.66c0 1.78 3.31 4.22 4.89 4.22s5-2.44 5-4.22v-16.6c0-1.79-3.26-4.23-5-4.23s-4.89 2.44-4.89 4.23zM233 47.83c-3.37 0-9.93-4.53-9.93-8.19V15a1.17 1.17 0 0 1 1.17-1.12H227a1.15 1.15 0 0 1 1.14 1.12v24c0 1.78 3.31 4.22 4.89 4.22s4.89-2.44 4.89-4.22V15a1.08 1.08 0 0 1 1.08-1.14h2.8A1.18 1.18 0 0 1 243 15v24.64c0 3.55-6.62 8.19-10 8.19zm35.63-8.35c0 3.05-5.71 7.89-9.17 7.89h-7.95c-1.42 0-2.44-.87-2.44-1.88V15.84a2.28 2.28 0 0 1 2.44-2h7.85c3.56 0 9.27 4.48 9.27 7.89zm-5-17c0-1.68-3.06-4.23-4.89-4.23h-4.59V43h4.69c1.78 0 4.79-2.59 4.79-4.23z"/></g></g></svg>