<svg xmlns="http://www.w3.org/2000/svg" role="img" viewBox="-7.99 29.75 415.74 184.99"><title>Qualcomm (Adopter) logo</title><style>svg {enable-background:new 0 0 400 245}</style><path fill="#0047ba" d="M107.9 59h-5.2c-1 0-1.9.9-1.9 1.9v21.8c0 6.8-4.2 11.6-11.3 11.6-7.3 0-10.9-4.6-10.9-11.7V61c0-1.1-.9-1.9-1.9-1.9h-5.2c-1 0-2 .9-2 1.9v23.2c0 10.8 6.7 18.1 17.7 18.1 6.6 0 11-2.6 13.6-6.5v3.5c0 1.1 1 1.8 1.9 1.8h5.2c1 0 2-.9 2-1.9V61c.1-1.1-.9-2-2-2m-76-21.1C14.2 37.9 0 51.7 0 70.1s14.2 32.2 31.9 32.2c3 0 5.9-.4 8.7-1.2l3.4 9c.3 1 1 1.6 2.4 1.6h5.5c1.3 0 2.3-.9 1.7-2.5l-4.5-11.7C58 91.9 63.8 82 63.8 70.2c0-18.5-14.2-32.3-31.9-32.3m13.9 50.8l-4-10.5c-.3-.9-1-1.7-2.6-1.7H34c-1.3 0-2.4.9-1.8 2.5l5.3 13.8c-1.8.4-3.6.7-5.6.7C19 93.6 9.8 83.4 9.8 70.1c0-13.3 9.2-23.5 22.1-23.5S54 56.7 54 70.1c0 7.7-3.1 14.4-8.2 18.6m354 10.3l-14.6-38.3c-.4-1.1-1.2-1.7-2.3-1.7h-6.3c-1 0-1.8.5-2.3 1.7l-10.2 28-10.5-28c-.4-1.1-1.2-1.7-2.3-1.7h-6.2c-1 0-1.8.5-2.3 1.7l-10.3 28-10.3-28c-.4-1.1-1.2-1.7-2.3-1.7h-6.2c-1 0-1.8.5-2.3 1.7l-10.4 28-10.3-28c-.4-1.1-1.2-1.7-2.3-1.7h-6.3c-1 0-1.8.5-2.3 1.7L265.4 99c-.4 1.1.1 2.1 1.4 2.1h5.6c1 0 1.9-.5 2.3-1.6l10.8-28.9 10.8 28.9c.4 1.1 1.2 1.6 2.3 1.6h5.2c1 0 1.8-.4 2.3-1.6l11-28.9 10.7 28.9c.4 1.1 1.2 1.6 2.3 1.6h5.4c1 0 1.8-.5 2.3-1.6l10.8-28.9 10.9 28.9c.4 1.1 1.2 1.6 2.3 1.6h5.2c1 0 1.8-.4 2.3-1.6l10.8-28.8 10.7 28.8c.3 1.1 1.2 1.6 2.3 1.6h5.8c.9 0 1.4-1 .9-2.1M157.9 59h-5.2c-1 0-2 .9-2 2v3.5c-2.6-3.9-7.7-6.7-13.7-6.7-11.4 0-21.2 9-21.2 22.2 0 13.3 9.8 22.3 21.1 22.3 6.1 0 11.1-2.8 13.8-6.7v3.7c0 1.1 1 1.9 2 1.9h5.2c1 0 1.9-.9 1.9-1.9V61c.1-1.1-.8-2-1.9-2M138 93.8c-7.5 0-12.8-6.1-12.8-13.8 0-7.7 5.3-13.7 12.8-13.7 7.4 0 12.8 6 12.8 13.7.1 7.7-5.4 13.8-12.8 13.8m78.8-2c-1-1.4-2.1-1-3.1-.4-2.3 1.3-4.8 2.5-8 2.5-7.6 0-12.7-6-12.7-13.9 0-7.8 5.1-13.9 12.7-13.9 3.1 0 5.9 1.1 8.1 2.5 1 .6 2.1 1 3.1-.3l2.4-3.4c1.1-1.5.2-2.5-.4-2.9-3.6-2.7-8.3-4.2-13.5-4.2-13 0-21.7 9.6-21.7 22.3 0 12.6 8.7 22.2 21.7 22.2 5.2 0 9.9-1.5 13.5-4.2.6-.4 1.6-1.5.4-2.9l-2.5-3.4zm27-33.9c-12.2 0-22 9.6-22 22.2s9.8 22.2 22 22.2 22-9.6 22-22.2-9.8-22.2-22-22.2m0 35.9c-7.5 0-12.8-6.1-12.8-13.7 0-7.7 5.3-13.7 12.8-13.7 7.5 0 12.8 6 12.8 13.7 0 7.6-5.3 13.7-12.8 13.7M176 39h-5.2c-1 0-2 1-2 2v58c0 1.1 1 2 2 2h5.2c1.1 0 1.9-1 1.9-2V41c.1-1-.7-2-1.9-2M13.6 155.9c.7 0 1.4-.1 2-.2l-1.9-5c-.3-.7.2-1.1.7-1.1h2.9c.7 0 1 .3 1.1.7l1.1 3c1.5-1.6 2.4-3.8 2.4-6.3 0-5-3.5-8.8-8.4-8.8s-8.4 3.9-8.4 8.8c.1 5.1 3.6 8.9 8.5 8.9m9.2 8.5h-3.1c-.6 0-.8-.3-1-.7l-1.4-3.7c-1.2.3-2.4.5-3.7.5-7.5 0-13.5-5.8-13.5-13.4 0-7.6 6-13.4 13.5-13.4 7.6 0 13.5 5.8 13.5 13.4 0 4.6-2.2 8.6-5.7 11l2 5.2c.3.7-.1 1.1-.6 1.1m11.7-12.3c0 2.6 1.3 4.3 4 4.3 2.6 0 4.1-1.8 4.1-4.2v-9.3c0-.4.4-.7.7-.7h3.2c.4 0 .8.3.8.8v16.2c0 .4-.3.7-.8.7h-3.2c-.4 0-.7-.3-.7-.7v-1.4c-1.1 1.5-2.7 2.6-5.5 2.6-4.5 0-7.3-3.1-7.3-7.5v-10c0-.4.4-.7.8-.7h3.2c.4 0 .8.3.8.7v9.2zm25 4c2.7 0 4.7-2.2 4.7-5s-2-5-4.7-5-4.8 2.2-4.8 5 2.1 5 4.8 5m-.7-14.4c2.5 0 4.5 1.1 5.4 2.7V143c0-.4.4-.8.7-.8h3.2c.4 0 .7.3.7.8v16.2c0 .4-.3.7-.7.7H65c-.4 0-.7-.3-.7-.7v-1.4c-.9 1.5-2.9 2.7-5.4 2.7-4.6 0-8.9-3.7-8.9-9.4-.1-5.7 4.1-9.4 8.8-9.4m13.6 13.9V135c0-.4.3-.8.8-.8h3.2c.4 0 .8.4.8.8v19.6c0 .8.4 1.4 1.3 1.4h1.1c.4 0 .7.2.7.7v2.3c0 .8-.6.9-1 .9h-2.4c-3.1.1-4.5-1.7-4.5-4.3m18.3 4.9c-5.3 0-9.5-4.1-9.5-9.4 0-5.3 4.1-9.4 9.5-9.4 3.6 0 6.5 1.8 8 4.2.3.5.1 1-.3 1.3l-1.8 1.4c-.6.5-1.2.3-1.5-.2-1.2-1.4-2.3-2.3-4.2-2.3-2.8 0-4.7 2.2-4.7 5s2 5 4.7 5c1.9 0 3.1-.8 4.2-2.3.4-.5.9-.7 1.5-.2l1.8 1.4c.4.3.6.8.3 1.3-1.5 2.4-4.4 4.2-8 4.2m19-4.4c2.7 0 4.7-2.2 4.7-5s-2-5-4.7-5-4.7 2.2-4.7 5 2 5 4.7 5m0-14.4c5.3 0 9.5 4.1 9.5 9.4 0 5.3-4.2 9.3-9.5 9.3s-9.5-4.1-9.5-9.3c0-5.2 4.2-9.4 9.5-9.4m16.9 17.6c0 .4-.4.7-.8.7h-3.2c-.4 0-.7-.3-.7-.7V143c0-.4.3-.8.7-.8h3.2c.4 0 .8.3.8.7v1.4c1-1.5 3.1-2.6 5.5-2.6 2.6 0 4.7 1.2 5.7 3.1 1.7-2.2 4-3.1 6.3-3.1 5.2 0 7.6 3.7 7.6 7.5v10c0 .4-.4.7-.8.7h-3.2c-.4 0-.8-.3-.8-.7v-8.9c0-2.4-1.2-4.3-3.8-4.3s-4 1.9-4 4.3v8.9c0 .4-.4.7-.8.7h-3.2c-.4 0-.8-.3-.8-.7v-8.9c0-2.4-1.2-4.3-3.8-4.3-2.6 0-4 1.9-4 4.3v9zm33.1 0c0 .4-.4.7-.8.7h-3.2c-.4 0-.7-.3-.7-.7V143c0-.4.3-.8.7-.8h3.2c.4 0 .8.3.8.7v1.4c1-1.5 3.1-2.6 5.5-2.6 2.6 0 4.7 1.2 5.7 3.1 1.7-2.2 4-3.1 6.3-3.1 5.2 0 7.6 3.7 7.6 7.5v10c0 .4-.4.7-.8.7h-3.2c-.4 0-.8-.3-.8-.7v-8.9c0-2.4-1.2-4.3-3.8-4.3s-4 1.9-4 4.3v8.9c0 .4-.4.7-.8.7h-3.2c-.4 0-.8-.3-.8-.7v-8.9c0-2.4-1.2-4.3-3.8-4.3-2.6 0-4 1.9-4 4.3v9zm-157 14.4c0-.4.3-.8.8-.8h20.4c.4 0 .8.4.8.8v2.9c0 .4-.3.8-.8.8h-7.6v20.4c0 .4-.4.8-.8.8H12c-.4 0-.8-.4-.8-.8v-20.4H3.5c-.4 0-.8-.3-.8-.8v-2.9zm28.9 10.5c-2.1 0-3.9 1.5-4.4 3.7H36c-.5-2.4-2.3-3.7-4.4-3.7m9 5.1v.9c0 .4-.2.8-.8.8H27.1c.3 2.5 2.2 4.2 4.6 4.2 1.9 0 3.1-.7 4.2-1.9.3-.3.6-.5 1-.2l2.3 1.6c.4.3.4.8.1 1.1-1.5 1.9-3.8 3.4-7.7 3.4-5.6 0-9.4-4-9.4-9.3 0-5.3 3.9-9.4 9.3-9.4 5.6-.1 9.1 4.1 9.1 8.8m11 9.9c-5.3 0-9.5-4.1-9.5-9.4 0-5.3 4.1-9.4 9.5-9.4 3.6 0 6.5 1.8 8 4.2.3.5.1 1-.3 1.3l-1.8 1.4c-.6.5-1.2.3-1.5-.2-1.2-1.4-2.3-2.3-4.2-2.3-2.8 0-4.7 2.2-4.7 5s2 5 4.7 5c1.9 0 3.1-.8 4.2-2.3.4-.5.9-.7 1.5-.2l1.8 1.4c.4.3.6.8.3 1.3-1.5 2.4-4.4 4.2-8 4.2m24-9.8c0-2.8-1.6-4.6-4.3-4.6-2.7 0-4.5 1.9-4.5 4.6v8.6c0 .4-.4.7-.8.7h-3.2c-.4 0-.7-.3-.7-.7v-24.3c0-.4.3-.7.7-.7H66c.4 0 .8.3.8.7v9.4c1-1.4 3.1-2.6 5.9-2.6 4.7 0 7.6 3.3 7.6 7.7v9.9c0 .4-.4.7-.8.7h-3.2c-.4 0-.8-.3-.8-.7v-8.7zm21.6 0c0-2.8-1.6-4.6-4.3-4.6-2.7 0-4.5 1.9-4.5 4.6v8.6c0 .4-.4.7-.8.7h-3.2c-.4 0-.7-.3-.7-.7v-16.2c0-.4.3-.8.7-.8h3.2c.4 0 .8.3.8.7v1.4c1-1.4 3.1-2.6 5.9-2.6 4.7 0 7.6 3.3 7.6 7.7v9.9c0 .4-.4.7-.8.7h-3.2c-.4 0-.8-.3-.8-.7v-8.7zm16.7 5.3c2.7 0 4.7-2.2 4.7-5s-2-5-4.7-5-4.7 2.2-4.7 5c-.1 2.8 1.9 5 4.7 5m0-14.3c5.3 0 9.5 4.1 9.5 9.4 0 5.3-4.2 9.3-9.5 9.3s-9.5-4.1-9.5-9.3c-.1-5.3 4.2-9.4 9.5-9.4m12 13.8v-20.6c0-.4.3-.8.8-.8h3.2c.4 0 .8.4.8.8v19.6c0 .8.4 1.4 1.3 1.4h1.1c.4 0 .7.2.7.7v2.3c0 .8-.6.9-1 .9h-2.4c-3.1.1-4.5-1.6-4.5-4.3m18.5.5c2.7 0 4.7-2.2 4.7-5s-2-5-4.7-5-4.7 2.2-4.7 5c-.1 2.8 2 5 4.7 5m0-14.3c5.3 0 9.5 4.1 9.5 9.4 0 5.3-4.2 9.3-9.5 9.3s-9.5-4.1-9.5-9.3c0-5.3 4.2-9.4 9.5-9.4m20.8 14.2c2.7 0 4.7-2.1 4.7-4.9 0-2.8-2-4.9-4.7-4.9s-4.7 2.1-4.7 4.9c-.1 2.8 2 4.9 4.7 4.9m4.8 4v-2.4c-.9 1.4-2.9 2.5-5.4 2.5-4.9 0-8.9-3.5-8.9-9.2 0-5.7 4.1-9.2 8.8-9.2 2.5 0 4.6 1.2 5.6 2.7v-1.4c0-.4.3-.7.7-.7h3.2c.4 0 .8.3.8.7v17.1c0 4.9-3.6 8.3-9.5 8.3-4.7 0-8.2-2.1-9-5.5-.1-.3 0-.6.4-.7l3.4-.9c.4-.1.7 0 .8.3.5 1.3 1.8 2.7 4.4 2.7 3.1.1 4.7-1.7 4.7-4.3m9 0c-.4 0-.8-.4-.8-.8v-16.2c0-.4.3-.8.8-.8h3.2c.4 0 .8.3.8.8v16.2c0 .4-.3.8-.8.8H179zm-1.2-22.9c0-1.5 1.2-2.8 2.8-2.8 1.5 0 2.8 1.2 2.8 2.8 0 1.5-1.2 2.8-2.8 2.8-1.5-.1-2.8-1.3-2.8-2.8m17.2 8.5c-2.1 0-3.9 1.5-4.4 3.7h8.7c-.4-2.4-2.3-3.7-4.3-3.7m9 5.1v.9c0 .4-.2.8-.8.8h-12.7c.3 2.5 2.2 4.2 4.6 4.2 1.9 0 3.1-.7 4.2-1.9.3-.3.6-.5 1-.2l2.3 1.6c.4.3.4.8.1 1.1-1.5 1.9-3.8 3.4-7.7 3.4-5.6 0-9.4-4-9.4-9.3 0-5.3 3.9-9.4 9.3-9.4 5.5-.1 9.1 4.1 9.1 8.8m16.1-6.7c.5.4.4 1 0 1.5l-1.2 1.4c-.4.5-1 .6-1.7.1-1.1-.8-2.6-1.5-4.2-1.5s-2.6.7-2.6 1.6c0 .8.6 1.4 2.2 1.7l2.9.6c3.1.6 5.4 2 5.4 5.2 0 3.4-3.2 6-7.9 6-3.1 0-5.4-1-6.8-2.1-1.4-1-1.3-1.9-.6-2.5l1.4-1.1c.7-.6 1.2-.3 1.7.1 1.2 1 2.6 1.8 4.5 1.8s2.8-.8 2.8-1.8-1-1.3-2.8-1.7l-2.8-.6c-2.9-.6-4.7-2.4-4.7-5.2 0-3.2 2.9-5.8 7.4-5.8 3.5.1 5.9 1.4 7 2.3m5.8 11.3c.1-.4.3-.6.8-.6h3.8c.5 0 .6.5.5.8l-3.2 8.3c-.1.4-.3.6-.8.6h-2.8c-.5 0-.6-.5-.5-.8l2.2-8.3zm17.5 4.7c-.4 0-.8-.4-.8-.8v-24.2c0-.4.3-.8.8-.8h3.4c.4 0 .8.4.8.8v24.2c0 .4-.3.8-.8.8h-3.4zm21.8-9.2c0-2.8-1.6-4.6-4.3-4.6-2.7 0-4.5 1.9-4.5 4.6v8.6c0 .4-.4.7-.8.7h-3.2c-.4 0-.7-.3-.7-.7v-16.2c0-.4.3-.8.7-.8h3.2c.4 0 .8.3.8.7v1.4c1-1.4 3.1-2.6 5.9-2.6 4.7 0 7.6 3.3 7.6 7.7v9.9c0 .4-.4.7-.8.7H266c-.4 0-.8-.3-.8-.7v-8.7zm16.6 9.8c-5.3 0-9.5-4.1-9.5-9.4 0-5.3 4.1-9.4 9.5-9.4 3.6 0 6.5 1.8 8 4.2.3.5.1 1-.3 1.3l-1.8 1.4c-.6.5-1.2.3-1.5-.2-1.2-1.4-2.3-2.3-4.2-2.3-2.8 0-4.7 2.2-4.7 5s2 5 4.7 5c1.9 0 3.1-.8 4.2-2.3.4-.5.9-.7 1.5-.2l1.8 1.4c.4.3.6.8.3 1.3-1.5 2.4-4.3 4.2-8 4.2m10-3.3c0-1.7 1.4-3.1 3.1-3.1 1.7 0 3.1 1.4 3.1 3.1s-1.4 3.1-3.1 3.1c-1.7 0-3.1-1.4-3.1-3.1"/></svg>