<svg xmlns="http://www.w3.org/2000/svg" role="img" viewBox="-8.78 19.72 508.56 208.06"><title>Repo Linter logo</title><circle cx="95.2" cy="124" r="94.1" fill="#A1D33C"/><path d="M72.1 160.9c-1.5 4.9-3.5 7.6-10 7.6-5.6 0-8-2.1-8-5.6 0-1.1.2-2.3.6-3.5l22.4-78.6c1.5-5 3.5-7.6 9.9-7.6 5.7 0 8.2 2.1 8.2 5.5 0 1.2-.4 2.4-.7 3.7l-22.4 78.5zm43 0c-1.5 4.9-3.5 7.6-10 7.6-5.6 0-8-2.1-8-5.6 0-1.1.2-2.3.6-3.5l22.4-78.6c1.5-5 3.5-7.6 9.9-7.6 5.7 0 8.2 2.1 8.2 5.5 0 1.2-.4 2.4-.7 3.7l-22.4 78.5z" fill="#FFF"/><path d="M249.8 156.6c0 1.2 0 2.1-.5 2.9-.5.8-1.7 1.3-3.2 1.3-1.6 0-2.8-.5-3.3-1.3s-.5-1.7-.5-2.9v-46H227c-1.1 0-2-.1-2.8-.6-.7-.5-1.1-1.4-1.1-2.7 0-1.4.4-2.3 1.1-2.8.8-.5 1.7-.6 2.8-.6h38c1.1 0 2 .1 2.8.6.7.5 1.1 1.4 1.1 2.7 0 1.4-.4 2.3-1.1 2.8-.8.5-1.7.6-2.8.6h-15.2v46zm64.3-54.1c17.8 0 28.9 12.3 28.9 29.4 0 17.4-11.4 29.6-29.2 29.6-17.8 0-28.9-12.3-28.9-29.4 0-17.4 11.4-29.6 29.2-29.6zm0 52.5c12.9 0 21.1-8.4 21.1-23 0-14.7-8.4-23.2-21.3-23.2s-21.1 8.4-21.1 23c0 14.8 8.3 23.2 21.3 23.2zm86.9.2c-7 4.6-15.9 5.6-23.7 5.6-5.2 0-9.5-.4-11.7-1.1s-2.5-1.9-2.5-4.4v-46.4c0-2.8.7-4 4.1-4.7 2.5-.5 6.8-.9 11.7-.9 9.1 0 16.9 1.2 23 5.5 6 4.2 10.6 11.5 10.6 22.9-.1 12.4-5.5 19.5-11.5 23.5zm-30.3-1.3s2.9.4 7.8.4c7.7 0 26.1-1 26.1-22.1 0-8.8-3.2-14.4-7.7-17.8-4.4-3.4-10.1-4.6-17.8-4.6-5.4 0-8.5.6-8.5.6v43.5zm90.7-51.4c17.8 0 28.9 12.3 28.9 29.4 0 17.4-11.4 29.6-29.2 29.6-17.8 0-28.9-12.3-28.9-29.4.1-17.4 11.5-29.6 29.2-29.6zm0 52.5c12.9 0 21.1-8.4 21.1-23 0-14.7-8.4-23.2-21.3-23.2s-21.1 8.4-21.1 23c0 14.8 8.4 23.2 21.3 23.2z" fill="#231F20"/></svg>