<svg xmlns="http://www.w3.org/2000/svg" role="img" viewBox="-16.70 -15.70 1232.40 1231.40"><title>Rochester Institute of Technology (Member) logo</title><g><g><g><path fill="none" stroke="#231f20" stroke-miterlimit="3.864" stroke-width="8" d="m 0,0 c 0,45.966 37.262,83.227 83.228,83.227 45.966,0 83.226,-37.261 83.226,-83.227 0,-45.966 -37.26,-83.227 -83.226,-83.227 C 37.262,-83.227 0,-45.966 0,0 Z" transform="matrix(6.79225 0 0 -6.79225 34.833 600.462)"/></g><g><path fill="none" stroke="#fff" stroke-miterlimit="3.864" stroke-width="4" d="m 0,0 c 0,45.966 37.262,83.227 83.228,83.227 45.966,0 83.226,-37.261 83.226,-83.227 0,-45.966 -37.26,-83.227 -83.226,-83.227 C 37.262,-83.227 0,-45.966 0,0 Z" transform="matrix(6.79225 0 0 -6.79225 34.833 600.462)"/></g><g><path fill="#fff" d="m 0,0 c 0,45.966 37.262,83.227 83.228,83.227 45.966,0 83.226,-37.261 83.226,-83.227 0,-45.966 -37.26,-83.227 -83.226,-83.227 C 37.262,-83.227 0,-45.966 0,0" transform="matrix(6.79225 0 0 -6.79225 34.833 600.462)"/></g><g><path fill="none" stroke="#231f20" stroke-miterlimit="3.864" stroke-width=".5" d="m 0,0 c 0,45.966 37.262,83.227 83.228,83.227 45.966,0 83.226,-37.261 83.226,-83.227 0,-45.966 -37.26,-83.227 -83.226,-83.227 C 37.262,-83.227 0,-45.966 0,0 Z" transform="matrix(6.79225 0 0 -6.79225 34.833 600.462)"/></g><g><path fill="none" stroke="#231f20" stroke-miterlimit="3.864" stroke-width="2.476" d="m 0,0 c 0,33.141 26.865,60.006 60.006,60.006 33.141,0 60.007,-26.865 60.007,-60.006 0,-33.141 -26.866,-60.006 -60.007,-60.006 C 26.865,-60.006 0,-33.141 0,0 Z" transform="matrix(6.79225 0 0 -6.79225 192.553 600.462)"/></g><g><path fill="none" stroke="#231f20" stroke-miterlimit="3.864" stroke-width=".606" d="m 0,0 c 0,31.483 25.522,57.006 57.006,57.006 31.485,0 57.006,-25.523 57.006,-57.006 0,-31.484 -25.521,-57.006 -57.006,-57.006 C 25.522,-57.006 0,-31.484 0,0 Z" transform="matrix(6.79225 0 0 -6.79225 212.934 600.462)"/></g><g><path fill="#231f20" d="m 0,0 c -1.212,0 -2.232,1.021 -2.232,2.232 0,1.237 1.02,2.256 2.232,2.256 1.236,0 2.256,-1.019 2.256,-2.256 C 2.256,1.021 1.236,0 0,0" transform="matrix(6.79225 0 0 -6.79225 349.29 1041.056)"/></g><g><path fill="#231f20" d="m 0,0 c -1.212,0 -2.232,1.021 -2.232,2.232 0,1.237 1.02,2.256 2.232,2.256 1.236,0 2.256,-1.019 2.256,-2.256 C 2.256,1.021 1.236,0 0,0" transform="matrix(6.79225 0 0 -6.79225 855.248 1041.275)"/></g></g><g><g><path fill="#231f20" d="m 0,0 10.631,-12.206 c 1.65,-1.909 2.424,-2.253 5.056,-2.666 v -1.565 c -1.548,0.053 -3.096,0.155 -4.644,0.207 -1.29,-0.052 -2.58,-0.154 -3.869,-0.207 l -2.425,2.992 -8.564,10.628 c -1.703,1.961 -1.496,2.271 -4.23,2.271 v -6.088 c 0,-1.652 0,-5.091 0.464,-6.484 0.619,-1.805 2.734,-1.754 4.385,-1.754 v -1.565 c -2.373,0.053 -4.798,0.155 -7.274,0.207 -2.58,-0.052 -5.159,-0.154 -7.739,-0.207 v 1.565 c 1.651,0 3.818,0 4.385,1.754 0.465,1.393 0.465,4.832 0.465,6.862 V 7.915 c 0,1.273 0,5.09 -0.465,6.482 -0.567,1.807 -2.734,1.755 -4.385,1.755 v 1.565 c 2.941,-0.051 5.933,-0.155 8.874,-0.206 2.167,0.051 4.385,0.155 6.552,0.206 5.882,0 11.814,-1.342 11.814,-8.512 C 9.031,3.632 5.107,0.465 0,0 M -8.045,13.934 V 1.225 c 6.448,0 11.144,-0.224 11.144,7.257 0,4.54 -2.58,7.36 -7.224,7.36 -0.619,0 -2.889,0.155 -3.353,-0.051 -0.67,-0.31 -0.567,-1.29 -0.567,-1.857" transform="matrix(6.79225 0 0 -6.79225 413.195 592.287)"/></g><g><path fill="#231f20" d="M 0,0 -0.305,0.01 C -1.081,0.036 -1.87,0.075 -2.631,0.113 -3.388,0.15 -4.169,0.189 -4.937,0.216 -5.576,0.189 -6.226,0.15 -6.855,0.113 -7.491,0.075 -8.148,0.036 -8.796,0.01 l -0.147,-0.006 -2.518,3.106 -8.565,10.629 c -0.241,0.278 -0.449,0.529 -0.632,0.749 -0.988,1.193 -1.155,1.395 -3.074,1.411 v -5.793 c 0,-1.636 0,-5.043 0.449,-6.39 0.533,-1.556 2.361,-1.561 3.972,-1.553 h 0.429 v -2.16 l -0.301,0.007 c -1.151,0.025 -2.338,0.062 -3.486,0.099 -1.235,0.039 -2.513,0.08 -3.789,0.107 C -27.734,0.19 -29.045,0.15 -30.312,0.113 -31.581,0.075 -32.894,0.035 -34.185,0.01 l -0.3,-0.006 v 2.159 h 0.295 c 1.605,0 3.603,0 4.105,1.551 0.45,1.349 0.45,4.743 0.45,6.77 v 14.172 c 0,1.247 0,5.042 -0.45,6.389 -0.489,1.557 -2.333,1.563 -3.971,1.553 h -0.429 v 2.16 l 0.3,-0.006 c 1.468,-0.025 2.974,-0.065 4.43,-0.103 1.461,-0.038 2.971,-0.077 4.443,-0.103 1.072,0.026 2.188,0.065 3.268,0.103 1.077,0.038 2.19,0.078 3.273,0.103 3.618,0 6.318,-0.524 8.262,-1.604 2.557,-1.419 3.854,-3.843 3.854,-7.203 0,-5.159 -3.331,-8.732 -8.735,-9.436 L -5.128,4.729 c 1.637,-1.895 2.386,-2.178 4.879,-2.57 L 0,2.12 Z m -24.321,16.489 h 0.295 c 2.4,0 2.689,-0.258 3.822,-1.625 0.18,-0.218 0.385,-0.466 0.63,-0.747 L -11.003,3.48 -8.672,0.604 c 0.594,0.026 1.197,0.062 1.781,0.097 0.636,0.038 1.293,0.077 1.942,0.104 l 0.01,0.001 0.011,-0.001 c 0.776,-0.027 1.564,-0.066 2.326,-0.104 0.661,-0.032 1.34,-0.067 2.013,-0.092 V 1.617 C -3.02,2.012 -3.876,2.38 -5.573,4.343 l -11.009,12.639 0.574,0.052 c 5.405,0.492 8.763,3.906 8.763,8.911 0,5.607 -3.66,8.218 -11.519,8.218 -1.073,-0.025 -2.185,-0.065 -3.259,-0.102 -1.081,-0.039 -2.2,-0.078 -3.287,-0.104 -1.486,0.026 -2.999,0.065 -4.461,0.104 -1.355,0.035 -2.754,0.071 -4.125,0.097 v -0.97 c 1.635,-0.001 3.774,-0.06 4.372,-1.961 0.428,-1.284 0.478,-4.366 0.478,-6.571 V 10.484 c 0,-2.063 0,-5.516 -0.479,-6.954 -0.598,-1.844 -2.705,-1.949 -4.371,-1.955 v -0.97 c 1.191,0.026 2.397,0.062 3.566,0.097 1.269,0.037 2.581,0.077 3.873,0.104 1.291,-0.028 2.57,-0.069 3.807,-0.108 1.046,-0.034 2.126,-0.068 3.178,-0.093 v 0.969 c -1.611,10e-4 -3.72,0.061 -4.369,1.953 -0.48,1.441 -0.48,4.911 -0.48,6.579 z m 1.368,1.181 h -0.528 l -0.84,10e-4 v 13.003 c 0,0.062 -0.002,0.128 -0.003,0.199 -0.012,0.625 -0.03,1.57 0.741,1.926 0.387,0.173 1.496,0.146 2.798,0.099 0.289,-0.011 0.532,-0.02 0.679,-0.02 4.708,0 7.518,-2.862 7.518,-7.655 0,-3.48 -1.003,-5.584 -3.154,-6.622 -1.829,-0.883 -4.323,-0.931 -7.211,-0.931 m -0.779,0.59 0.251,-0.001 c 3.038,-0.002 5.666,-0.005 7.483,0.872 1.951,0.942 2.821,2.82 2.821,6.092 0,4.49 -2.526,7.066 -6.929,7.066 -0.152,0 -0.402,0.009 -0.701,0.02 -0.728,0.027 -2.243,0.082 -2.533,-0.046 -0.417,-0.193 -0.404,-0.879 -0.395,-1.379 0.002,-0.074 0.003,-0.145 0.003,-0.21 z" transform="matrix(6.79225 0 0 -6.79225 521.745 705.994)"/></g><g><path fill="#231f20" d="m 0,0 c 0,-1.65 0,-5.468 -0.516,-6.861 -0.671,-1.754 -2.786,-1.754 -4.437,-1.754 v -1.566 c 2.579,0.052 5.211,0.156 7.791,0.207 2.476,-0.051 5.005,-0.155 7.43,-0.207 v 1.566 c -1.652,0 -3.767,0 -4.438,1.754 C 5.314,-5.468 5.314,-1.65 5.314,0 v 13.793 c 0,1.651 0,5.469 0.516,6.861 0.671,1.754 2.786,1.754 4.438,1.754 v 1.565 C 7.687,23.922 5.107,23.819 2.478,23.767 0,23.819 -2.476,23.922 -4.953,23.973 v -1.565 c 1.651,0 3.766,0 4.437,-1.754 C 0,19.262 0,15.444 0,13.793 Z" transform="matrix(6.79225 0 0 -6.79225 588.274 634.781)"/></g><g><path fill="#231f20" d="M 0,0 -0.301,0.007 C -1.497,0.032 -2.741,0.071 -3.945,0.108 -5.189,0.146 -6.476,0.187 -7.729,0.213 -9.003,0.187 -10.324,0.148 -11.602,0.11 -12.887,0.072 -14.214,0.032 -15.508,0.007 l -0.301,-0.006 v 2.16 h 0.295 c 1.587,0 3.563,0 4.162,1.564 0.496,1.341 0.496,5.136 0.496,6.756 v 13.793 c 0,1.621 0,5.416 -0.497,6.759 -0.598,1.562 -2.574,1.562 -4.161,1.562 h -0.295 v 2.161 l 0.301,-0.006 c 1.243,-0.026 2.505,-0.066 3.726,-0.104 1.214,-0.038 2.469,-0.077 3.703,-0.103 1.319,0.026 2.656,0.066 3.949,0.105 1.256,0.037 2.555,0.076 3.83,0.102 L 0,34.755 v -2.16 h -0.294 c -1.588,0 -3.563,0 -4.162,-1.565 -0.496,-1.34 -0.496,-5.135 -0.496,-6.756 V 10.481 c 0,-1.62 0,-5.415 0.497,-6.758 0.598,-1.562 2.573,-1.562 4.161,-1.562 L 0,2.161 Z M -15.22,1.572 V 0.603 c 1.196,0.025 2.417,0.061 3.6,0.096 1.28,0.038 2.601,0.077 3.891,0.103 1.269,-0.027 2.557,-0.067 3.802,-0.105 1.102,-0.034 2.238,-0.069 3.338,-0.094 v 0.969 c -1.639,0.006 -3.717,0.111 -4.418,1.943 -0.534,1.445 -0.534,5.174 -0.534,6.966 v 13.793 c 0,1.793 0,5.521 0.533,6.964 0.702,1.834 2.78,1.94 4.419,1.946 v 0.97 c -1.175,-0.026 -2.367,-0.061 -3.523,-0.095 -1.295,-0.039 -2.633,-0.079 -3.967,-0.105 -1.249,0.026 -2.506,0.065 -3.721,0.103 -1.121,0.035 -2.277,0.071 -3.42,0.097 v -0.97 c 1.639,-0.006 3.718,-0.111 4.418,-1.943 0.535,-1.446 0.535,-5.174 0.535,-6.967 V 10.481 c 0,-1.792 0,-5.521 -0.534,-6.963 -0.701,-1.834 -2.78,-1.94 -4.419,-1.946" transform="matrix(6.79225 0 0 -6.79225 660.01 705.974)"/></g><g><path fill="#231f20" d="m 0,0 h -31.928 v -8.427 h 1.565 c 0.206,6.139 2.682,6.398 7.79,6.398 2.064,0 3.956,0.154 3.956,-1.393 V -27.12 c 0,-3.818 -0.723,-5.263 -5.727,-5.469 v -1.565 c 2.785,0.052 5.468,0.154 8.203,0.207 2.836,-0.053 5.727,-0.155 8.565,-0.207 v 1.565 c -5.005,0.206 -5.729,1.651 -5.729,5.469 v 23.698 c 0,1.65 2.718,1.393 4.627,1.393 4.85,0 6.811,-1.342 7.12,-6.398 H 0 Z" transform="matrix(6.79225 0 0 -6.79225 910.747 471.947)"/></g><g><path fill="#231f20" d="m 0,0 v 2.147 l 0.282,0.012 c 4.952,0.204 5.445,1.657 5.445,5.175 v 23.697 c 0,0.284 -0.076,0.498 -0.232,0.653 -0.467,0.464 -1.653,0.457 -2.91,0.449 C 2.413,32.132 2.24,32.13 2.065,32.13 c -5.054,0 -7.298,-0.247 -7.496,-6.113 L -5.44,25.733 h -2.144 v 9.016 h 32.518 v -9.016 h -2.129 l -0.018,0.276 C 22.5,30.7 20.905,32.13 15.961,32.13 c -0.223,0 -0.457,0.004 -0.696,0.007 C 14,32.157 12.427,32.18 11.856,31.618 11.703,31.467 11.629,31.276 11.629,31.031 V 7.334 c 0,-3.518 0.493,-4.971 5.445,-5.175 L 17.356,2.147 V 0 L 17.057,0.005 C 15.633,0.032 14.173,0.07 12.761,0.109 11.357,0.147 9.906,0.187 8.492,0.212 7.159,0.187 5.801,0.148 4.486,0.11 3.124,0.072 1.716,0.032 0.3,0.005 Z M 8.492,0.802 C 9.92,0.775 11.372,0.736 12.777,0.698 14.088,0.663 15.441,0.626 16.768,0.601 V 1.584 C 11.914,1.838 11.04,3.34 11.04,7.334 v 23.697 c 0,0.405 0.136,0.743 0.403,1.007 0.746,0.734 2.384,0.711 3.83,0.688 0.237,-0.003 0.468,-0.007 0.688,-0.007 5.141,0 7.038,-1.621 7.395,-6.397 h 0.988 V 34.16 H -6.994 v -7.838 h 0.986 c 0.285,6.109 2.987,6.397 8.073,6.397 0.173,0 0.346,10e-4 0.516,0.003 1.44,0.011 2.689,0.017 3.329,-0.62 0.269,-0.267 0.405,-0.627 0.405,-1.071 V 7.334 C 6.315,3.34 5.441,1.838 0.589,1.584 V 0.601 C 1.9,0.626 3.205,0.664 4.47,0.699 5.785,0.737 7.145,0.775 8.492,0.802" transform="matrix(6.79225 0 0 -6.79225 743.395 705.967)"/></g></g><g><g><path fill="#231f20" d="m 0,0 c -1.058,-0.761 -1.167,-1.796 -0.435,-2.812 0.222,-0.308 0.473,-0.657 0.682,-0.891 l 3.293,2.37 C 3.374,-1.046 3.249,-0.873 2.979,-0.497 2.227,0.546 1.084,0.78 0,0 M 5.204,4.091 C 4.996,3.251 4.508,1.924 3.637,0.058 3.896,-0.304 4.07,-0.546 4.236,-0.832 l 2.061,1.483 c 0.83,0.598 0.883,0.92 0.676,1.321 L 6.601,2.658 7.069,2.995 C 7.297,2.651 7.935,1.708 8.359,1.12 8.792,0.517 9.417,-0.294 9.67,-0.618 L 9.203,-0.956 8.765,-0.519 C 8.461,-0.208 8.129,-0.143 7.299,-0.741 L 2.186,-4.421 C 1.356,-5.019 1.326,-5.345 1.51,-5.741 L 1.787,-6.294 1.318,-6.631 c -0.228,0.344 -0.728,1.04 -1.114,1.575 -0.453,0.629 -0.984,1.284 -1.553,2.073 -1.165,1.621 -1.333,3.349 0.193,4.447 C -0.125,2.207 1.365,2.142 2.401,1.321 3.035,2.672 3.466,4.02 3.699,5.081 3.827,5.722 3.863,6.46 3.567,6.956 L 3.973,7.27 C 4.201,7.149 4.476,6.88 4.688,6.586 5.295,5.741 5.396,4.839 5.204,4.091" transform="matrix(6.79225 0 0 -6.79225 187.976 885.577)"/></g><g><path fill="#231f20" d="m 0,0 c -2.557,-1.307 -3.56,-3.004 -2.607,-4.87 0.878,-1.72 3.069,-1.692 5.302,-0.552 2.308,1.178 3.546,3.033 2.615,4.856 C 4.432,1.152 2.233,1.141 0,0 M 3.69,-7.045 C 1.076,-8.38 -1.983,-7.941 -3.394,-5.18 -4.834,-2.358 -3.676,0.233 -1.002,1.6 1.599,2.928 4.723,2.505 6.127,-0.242 7.575,-3.078 6.321,-5.701 3.69,-7.045" transform="matrix(6.79225 0 0 -6.79225 159.919 804.09)"/></g><g><path fill="#231f20" d="m 0,0 c -2.854,-0.935 -5.946,0.398 -6.978,3.551 -0.359,1.097 -0.438,2.027 -0.413,2.799 0.795,0.277 1.308,0.463 2.087,0.788 L -5.078,6.447 C -6.13,5.895 -6.588,5.016 -6.111,3.557 -5.46,1.564 -3.162,0.962 -0.747,1.752 1.668,2.543 3.166,4.334 2.504,6.357 2.048,7.754 1.138,8.516 -0.027,8.309 L -0.252,8.998 C 0.604,9.191 1.278,9.36 1.859,9.55 2.356,8.828 2.996,7.561 3.376,6.4 4.366,3.373 2.887,0.943 0,0" transform="matrix(6.79225 0 0 -6.79225 150.427 780.57)"/></g><g><path fill="#231f20" d="M 0,0 -0.19,0.588 C -0.321,1.002 -0.586,1.211 -1.598,1.057 L -7.827,0.098 c -1.011,-0.156 -1.185,-0.433 -1.202,-0.869 l -0.005,-0.62 -0.57,-0.087 c -0.047,0.41 -0.186,1.423 -0.3,2.158 -0.11,0.716 -0.272,1.66 -0.35,2.066 l 0.57,0.088 0.188,-0.572 C -9.349,1.85 -9.099,1.639 -8.088,1.793 L -5.593,2.178 -6.336,7.004 -8.831,6.621 C -9.842,6.465 -10.016,6.187 -10.032,5.752 l -0.006,-0.619 -0.57,-0.088 c -0.046,0.41 -0.186,1.424 -0.299,2.157 -0.111,0.718 -0.272,1.661 -0.351,2.067 l 0.571,0.087 0.187,-0.572 c 0.147,-0.411 0.397,-0.623 1.408,-0.468 l 6.23,0.959 c 1.01,0.156 1.202,0.436 1.201,0.87 l 0.008,0.602 0.57,0.087 c 0.047,-0.41 0.16,-1.361 0.271,-2.078 C -0.7,8.021 -0.511,7.016 -0.433,6.61 L -1.003,6.521 -1.194,7.11 C -1.325,7.525 -1.59,7.734 -2.601,7.578 l -2.92,-0.448 0.744,-4.827 2.919,0.449 c 1.011,0.155 1.201,0.436 1.201,0.869 l 0.008,0.602 0.57,0.088 C -0.032,3.9 0.081,2.95 0.191,2.232 0.304,1.498 0.492,0.493 0.571,0.088 Z" transform="matrix(6.79225 0 0 -6.79225 157.865 707.208)"/></g><g><path fill="#231f20" d="M 0,0 C 0,-0.165 -0.026,-2.871 -0.027,-3.104 -0.029,-3.647 -0.016,-4.77 0,-5.133 l -0.578,0.002 -0.097,0.611 c -0.065,0.429 -0.294,0.677 -1.318,0.682 l -6.304,0.02 C -9.32,-3.815 -9.552,-4.062 -9.62,-4.491 l -0.101,-0.61 -0.578,0.001 c 0.019,0.364 0.039,1.469 0.041,2.03 10e-4,0.545 -0.011,2.047 -0.007,3.136 0.004,0.974 -0.043,2.163 -0.058,2.294 0.742,-0.003 1.7,0.028 2.327,0.058 L -7.998,1.775 -8.757,1.612 C -9.154,1.531 -9.402,1.301 -9.404,0.724 l -0.026,-2.822 3.713,-0.012 0.007,2.046 c 0.002,0.578 -0.146,0.677 -0.443,0.728 l -0.726,0.15 0.002,0.61 c 0.446,-0.018 1.023,-0.052 1.551,-0.053 0.445,-0.002 1.172,0.028 1.584,0.043 l -0.002,-0.61 -0.66,-0.13 C -4.701,0.625 -4.9,0.512 -4.901,-0.067 l -0.007,-2.046 3.234,-0.01 c 0.545,-0.003 0.826,0.111 0.829,1.201 l 0.006,1.766 c 0.002,0.593 -0.212,0.826 -0.64,0.976 l -0.94,0.317 0.002,0.66 C -1.559,2.662 -0.603,2.527 0.074,2.491 0.039,1.881 0.001,0.527 0,0" transform="matrix(6.79225 0 0 -6.79225 150.722 590.93)"/></g><g><path fill="#231f20" d="m 0,0 c -0.915,0.138 -1.461,0.16 -2.469,0.211 l 0.094,0.719 c 1.39,-0.067 2.168,0.529 2.361,1.986 C 0.148,4.143 -0.473,4.99 -1.552,5.133 -3.957,5.45 -3.765,0.482 -7.365,0.958 -9.033,1.178 -9.995,2.837 -9.742,4.751 -9.6,5.83 -9.215,6.846 -8.919,7.455 -8.086,7.328 -7.493,7.283 -6.634,7.236 L -6.729,6.516 C -7.917,6.591 -8.743,6.018 -8.922,4.659 -9.063,3.596 -8.524,2.76 -7.592,2.637 -5.171,2.315 -5.047,7.275 -1.808,6.848 0.024,6.605 1.086,4.817 0.818,2.789 0.68,1.741 0.293,0.711 0,0" transform="matrix(6.79225 0 0 -6.79225 150.423 562.608)"/></g><g><path fill="#231f20" d="m 0,0 0.073,0.663 c 0.044,0.433 -0.112,0.746 -1.1,1.007 l -7.21,1.897 C -8.384,3.076 -8.552,2.438 -8.661,2.023 -8.879,1.194 -8.659,0.864 -8.217,0.661 L -7.564,0.354 -7.737,-0.3 c -0.518,0.17 -1.494,0.479 -2.276,0.684 0.353,1.084 0.889,3.057 1.192,4.205 0.301,1.15 0.81,3.147 1.036,4.265 0.782,-0.205 1.783,-0.417 2.318,-0.525 L -5.644,7.659 -6.358,7.728 C -6.842,7.771 -7.196,7.591 -7.415,6.761 -7.523,6.347 -7.692,5.708 -7.805,5.21 L -0.596,3.313 C 0.394,3.054 0.68,3.233 0.853,3.631 L 1.116,4.243 1.675,4.097 C 1.554,3.702 1.262,2.722 1.082,2.036 0.888,1.302 0.647,0.257 0.559,-0.146 Z" transform="matrix(6.79225 0 0 -6.79225 158.19 498.366)"/></g><g><path fill="#231f20" d="m 0,0 c -0.063,-0.151 -1.117,-2.644 -1.206,-2.857 -0.21,-0.503 -0.625,-1.544 -0.749,-1.887 l -0.532,0.223 0.142,0.6 c 0.104,0.423 -0.014,0.738 -0.958,1.131 l -5.819,2.42 c -0.944,0.392 -1.253,0.252 -1.478,-0.119 l -0.326,-0.525 -0.533,0.222 c 0.155,0.328 0.594,1.342 0.81,1.86 0.208,0.503 0.769,1.896 1.187,2.902 0.373,0.898 0.784,2.013 0.819,2.142 C -7.957,5.827 -7.061,5.49 -6.47,5.28 L -6.717,4.687 -7.48,4.824 C -7.878,4.9 -8.195,4.782 -8.416,4.249 l -1.098,-2.598 3.427,-1.424 0.784,1.887 c 0.223,0.533 0.123,0.682 -0.132,0.842 l -0.613,0.416 0.234,0.563 C -5.409,3.749 -4.888,3.497 -4.401,3.294 -3.99,3.124 -3.307,2.876 -2.919,2.732 L -3.155,2.169 -3.814,2.3 C -4.107,2.368 -4.333,2.338 -4.556,1.804 l -0.785,-1.889 2.985,-1.24 c 0.503,-0.209 0.807,-0.211 1.225,0.795 l 0.676,1.63 c 0.229,0.547 0.12,0.843 -0.22,1.145 l -0.747,0.651 0.253,0.609 C -0.428,3.054 0.405,2.564 1.017,2.274 0.752,1.724 0.203,0.487 0,0" transform="matrix(6.79225 0 0 -6.79225 188.647 418.53)"/></g><g><path fill="#231f20" d="m 0,0 c -1.119,0.669 -2.112,0.357 -2.755,-0.719 -0.195,-0.326 -0.414,-0.694 -0.546,-0.98 l 3.485,-2.08 C 0.381,-3.514 0.49,-3.328 0.728,-2.934 1.387,-1.828 1.147,-0.686 0,0 M 5.824,-3.15 C 4.97,-3.294 3.558,-3.374 1.499,-3.315 1.27,-3.698 1.118,-3.953 0.92,-4.22 l 2.182,-1.301 c 0.877,-0.526 1.195,-0.446 1.48,-0.097 l 0.482,0.615 0.497,-0.296 C 5.334,-5.645 4.723,-6.605 4.35,-7.229 3.969,-7.866 3.473,-8.762 3.276,-9.124 l -0.495,0.296 0.227,0.575 C 3.172,-7.852 3.1,-7.52 2.222,-6.996 l -5.411,3.232 c -0.878,0.524 -1.189,0.421 -1.481,0.095 l -0.397,-0.474 -0.496,0.297 c 0.226,0.346 0.665,1.082 1.003,1.649 0.398,0.666 0.787,1.414 1.286,2.25 1.024,1.715 2.544,2.554 4.159,1.59 1.092,-0.651 1.623,-2.045 1.283,-3.322 1.491,-0.046 2.9,0.095 3.967,0.302 0.638,0.139 1.332,0.398 1.67,0.868 L 8.252,-0.757 C 8.234,-1.014 8.096,-1.375 7.91,-1.686 7.376,-2.578 6.588,-3.03 5.824,-3.15" transform="matrix(6.79225 0 0 -6.79225 176.939 332.268)"/></g><g><path fill="#231f20" d="M 0,0 0.332,0.521 C 0.568,0.887 0.561,1.224 -0.203,1.904 L -4.909,6.1 c -0.763,0.68 -1.089,0.638 -1.435,0.373 l -0.48,-0.39 -0.431,0.384 c 0.286,0.298 0.98,1.051 1.473,1.605 0.484,0.541 1.109,1.267 1.37,1.586 L -3.98,9.273 -4.302,8.765 C -4.525,8.389 -4.53,8.062 -3.767,7.381 L 0.939,3.186 C 1.702,2.506 2.04,2.536 2.375,2.813 L 2.844,3.189 3.274,2.807 C 2.988,2.509 2.326,1.816 1.843,1.275 1.349,0.72 0.693,-0.064 0.431,-0.385 Z" transform="matrix(6.79225 0 0 -6.79225 252.685 307.54)"/></g><g><path fill="#231f20" d="M 0,0 0.421,0.498 C 0.702,0.828 0.693,1.215 0.035,1.975 L -4.063,6.697 C -4.733,7.47 -5.061,7.47 -5.438,7.252 l -0.54,-0.337 -0.377,0.437 c 0.321,0.257 0.609,0.505 1.02,0.863 0.298,0.259 0.635,0.551 0.986,0.877 L 5.209,7.011 1.415,11.385 c -0.649,0.747 -1.018,0.82 -1.409,0.592 l -0.55,-0.348 -0.378,0.435 c 0.321,0.258 0.831,0.678 1.392,1.165 0.549,0.476 0.973,0.867 1.274,1.149 L 2.122,13.942 1.751,13.489 C 1.481,13.146 1.489,12.759 2.138,12.012 L 7.608,5.706 6.811,5.014 -3.232,7.199 0.757,2.602 C 1.417,1.842 1.798,1.779 2.165,2.011 L 2.679,2.325 3.057,1.889 C 2.735,1.631 2.215,1.224 1.679,0.758 1.118,0.271 0.679,-0.152 0.378,-0.436 Z" transform="matrix(6.79225 0 0 -6.79225 277.075 278.912)"/></g><g><path fill="#231f20" d="m 0,0 c -0.483,0.787 -0.817,1.221 -1.428,2.023 l 0.612,0.391 C 0.026,1.309 0.983,1.098 2.22,1.887 3.263,2.553 3.512,3.573 2.927,4.49 1.621,6.534 -2.055,3.189 -4.007,6.248 c -0.906,1.418 -0.256,3.222 1.37,4.26 0.918,0.586 1.94,0.945 2.598,1.111 C 0.4,10.9 0.747,10.418 1.265,9.73 L 0.652,9.34 C -0.056,10.296 -1.025,10.559 -2.179,9.821 -3.083,9.245 -3.376,8.294 -2.871,7.502 -1.557,5.445 2.316,8.543 4.073,5.79 5.068,4.232 4.383,2.27 2.659,1.169 1.77,0.601 0.732,0.233 0,0" transform="matrix(6.79225 0 0 -6.79225 341.399 228.593)"/></g><g><path fill="#231f20" d="m 0,0 0.553,0.372 c 0.36,0.243 0.5,0.565 0.063,1.489 L -2.571,8.602 C -3.041,8.397 -3.637,8.116 -4.024,7.932 -4.8,7.565 -4.912,7.184 -4.783,6.717 L -4.598,6.019 -5.21,5.73 c -0.203,0.506 -0.595,1.452 -0.94,2.182 1.057,0.428 2.913,1.287 3.986,1.795 1.074,0.508 2.931,1.404 3.932,1.95 0.346,-0.731 0.827,-1.634 1.09,-2.112 L 2.232,9.249 1.824,9.841 C 1.545,10.238 1.179,10.395 0.404,10.027 0.017,9.844 -0.581,9.561 -1.036,9.328 L 2.152,2.588 C 2.589,1.662 2.912,1.56 3.328,1.684 L 3.966,1.877 4.213,1.355 C 3.834,1.193 2.895,0.786 2.253,0.482 1.567,0.158 0.612,-0.33 0.247,-0.521 Z" transform="matrix(6.79225 0 0 -6.79225 395.664 193.107)"/></g><g><path fill="#231f20" d="M 0,0 0.545,0.289 C 0.931,0.491 1.09,0.79 0.76,1.758 L -1.277,7.723 C -1.608,8.691 -1.913,8.814 -2.344,8.754 L -2.955,8.65 -3.141,9.197 c 0.396,0.117 1.37,0.432 2.072,0.672 0.687,0.235 1.588,0.561 1.972,0.709 L 1.09,10.031 0.56,9.746 C 0.181,9.529 0.016,9.246 0.346,8.277 L 2.384,2.313 C 2.714,1.345 3.022,1.205 3.45,1.282 L 4.044,1.381 4.23,0.834 C 3.835,0.716 2.919,0.437 2.231,0.203 1.529,-0.037 0.571,-0.398 0.187,-0.547 Z" transform="matrix(6.79225 0 0 -6.79225 442.49 172.332)"/></g><g><path fill="#231f20" d="m 0,0 0.624,0.24 c 0.404,0.156 0.611,0.44 0.39,1.439 L -0.603,8.961 C -1.106,8.865 -1.75,8.723 -2.17,8.629 -3.007,8.442 -3.201,8.096 -3.177,7.611 L -3.152,6.89 -3.813,6.743 C -3.898,7.281 -4.072,8.291 -4.247,9.081 -3.122,9.263 -1.12,9.69 0.04,9.948 1.2,10.206 3.21,10.67 4.307,10.98 4.482,10.19 4.752,9.203 4.903,8.678 L 4.226,8.527 3.96,9.195 C 3.775,9.645 3.453,9.877 2.615,9.691 2.196,9.599 1.552,9.455 1.057,9.328 L 2.674,2.047 C 2.896,1.048 3.187,0.877 3.62,0.904 L 4.286,0.951 4.411,0.388 C 4.004,0.314 2.999,0.125 2.306,-0.029 1.565,-0.194 0.525,-0.459 0.125,-0.564 Z" transform="matrix(6.79225 0 0 -6.79225 490.433 157.155)"/></g><g><path fill="#231f20" d="m 0,0 -0.328,5.054 c -0.065,1.02 -0.326,1.218 -0.759,1.272 l -0.534,0.067 -0.037,0.574 c 0.413,0.012 1.353,0.054 2.109,0.103 0.708,0.047 1.745,0.131 2.155,0.174 L 2.643,6.668 1.974,6.525 C 1.534,6.43 1.302,6.184 1.368,5.164 L 1.68,0.357 c 0.112,-1.746 1.328,-2.642 2.907,-2.539 1.565,0.101 2.647,1.245 2.54,2.924 L 6.82,5.467 C 6.756,6.455 6.505,6.752 6.057,6.789 L 5.409,6.846 5.371,7.422 C 5.784,7.434 6.46,7.461 7.216,7.51 7.909,7.555 8.451,7.605 8.861,7.648 L 8.897,7.072 8.362,6.938 C 7.938,6.829 7.711,6.517 7.774,5.529 L 8.092,0.64 C 8.231,-1.517 6.463,-3.053 4.29,-3.193 1.919,-3.348 0.139,-2.14 0,0" transform="matrix(6.79225 0 0 -6.79225 545.936 127.81)"/></g><g><path fill="#231f20" d="M 0,0 0.666,0.039 C 1.099,0.066 1.383,0.273 1.474,1.292 L 2.137,8.72 C 1.628,8.782 0.971,8.841 0.544,8.878 -0.311,8.954 -0.6,8.683 -0.726,8.213 L -0.919,7.519 -1.593,7.577 C -1.511,8.118 -1.371,9.132 -1.3,9.938 -0.171,9.771 1.864,9.572 3.048,9.466 4.23,9.361 6.286,9.194 7.426,9.157 7.354,8.354 7.312,7.331 7.297,6.786 L 6.606,6.847 6.555,7.563 C 6.515,8.048 6.278,8.366 5.425,8.442 4.997,8.481 4.34,8.54 3.829,8.568 L 3.165,1.141 C 3.075,0.122 3.301,-0.13 3.723,-0.233 L 4.371,-0.392 4.319,-0.966 c -0.408,0.053 -1.424,0.177 -2.131,0.24 -0.755,0.068 -1.828,0.13 -2.24,0.151 z" transform="matrix(6.79225 0 0 -6.79225 630.003 143.578)"/></g><g><path fill="#231f20" d="m 0,0 c -0.162,0.037 -2.795,0.658 -3.021,0.709 -0.531,0.122 -1.628,0.357 -1.986,0.422 l 0.13,0.562 0.617,-0.039 c 0.434,-0.032 0.725,0.138 0.953,1.135 l 1.411,6.145 c 0.228,0.997 0.039,1.277 -0.365,1.437 l -0.573,0.233 0.129,0.562 c 0.35,-0.097 1.425,-0.359 1.971,-0.485 C -0.203,10.56 1.264,10.239 2.326,9.998 3.275,9.779 4.443,9.563 4.576,9.548 4.41,8.824 4.229,7.884 4.119,7.266 L 3.492,7.409 3.502,8.187 C 3.51,8.59 3.34,8.883 2.777,9.012 L 0.03,9.66 -0.799,6.041 1.195,5.584 C 1.758,5.454 1.888,5.576 2.002,5.855 L 2.31,6.529 2.904,6.393 C 2.789,5.963 2.628,5.407 2.51,4.893 2.41,4.459 2.28,3.743 2.203,3.337 L 1.608,3.475 1.627,4.146 C 1.646,4.447 1.578,4.666 1.014,4.795 L -0.979,5.253 -1.703,2.101 C -1.824,1.568 -1.775,1.271 -0.714,1.027 L 1.008,0.633 C 1.586,0.5 1.859,0.656 2.1,1.042 L 2.616,1.889 3.26,1.741 C 2.939,0.934 2.596,0.031 2.412,-0.621 1.826,-0.453 0.514,-0.118 0,0" transform="matrix(6.79225 0 0 -6.79225 713.865 160.233)"/></g><g><path fill="#231f20" d="M 0,0 C 1.234,2.591 0.996,4.549 -0.895,5.449 -2.637,6.279 -4.359,4.926 -5.437,2.662 -6.551,0.323 -6.404,-1.902 -4.558,-2.781 -2.816,-3.611 -1.078,-2.265 0,0 m -7.215,3.344 c 1.264,2.65 3.957,4.164 6.758,2.83 C 2.402,4.812 3.06,2.05 1.769,-0.66 0.514,-3.297 -2.224,-4.862 -5.008,-3.535 -7.884,-2.167 -8.484,0.678 -7.215,3.344" transform="matrix(6.79225 0 0 -6.79225 833.326 168.644)"/></g><g><path fill="#231f20" d="m 0,0 0.562,-0.258 c 0.392,-0.183 0.726,-0.129 1.297,0.72 L 5.368,5.695 C 5.937,6.546 5.86,6.875 5.541,7.168 L 5.089,7.591 5.411,8.07 C 5.702,7.854 6.611,7.225 7.077,6.914 7.927,6.344 9.169,5.53 9.909,5.033 10.685,4.533 11.225,4.212 11.617,3.968 11.213,3.365 10.689,2.525 10.377,1.999 L 9.829,2.367 10.128,3.08 C 10.28,3.455 10.226,3.789 9.746,4.111 L 7.427,5.686 5.231,2.411 6.875,1.309 C 7.354,0.987 7.507,1.064 7.712,1.284 L 8.254,1.795 8.747,1.464 C 8.503,1.131 8.146,0.656 7.851,0.218 7.603,-0.152 7.227,-0.773 7.011,-1.125 l -0.494,0.33 0.235,0.617 C 6.876,0.097 6.904,0.316 6.425,0.638 L 4.78,1.74 3.283,-0.493 C 2.714,-1.343 2.782,-1.687 3.124,-1.975 L 3.837,-2.572 3.515,-3.052 C 3.182,-2.809 2.104,-2.047 1.528,-1.66 0.912,-1.247 0.03,-0.695 -0.321,-0.479 Z" transform="matrix(6.79225 0 0 -6.79225 838.4 206.545)"/></g><g><path fill="#231f20" d="M 0,0 0.532,-0.402 C 0.88,-0.662 1.229,-0.689 1.96,0.027 L 7.285,5.25 C 6.937,5.626 6.476,6.098 6.177,6.404 5.575,7.016 5.178,6.996 4.778,6.721 L 4.18,6.318 3.706,6.801 C 4.118,7.158 4.882,7.84 5.46,8.406 6.21,7.547 7.632,6.074 8.463,5.227 9.294,4.379 10.751,2.918 11.595,2.15 11.019,1.586 10.321,0.833 9.956,0.428 L 9.471,0.923 9.896,1.502 C 10.181,1.896 10.208,2.293 9.606,2.904 9.308,3.212 8.844,3.684 8.475,4.035 L 3.15,-1.186 C 2.42,-1.902 2.429,-2.241 2.682,-2.594 L 3.073,-3.135 2.661,-3.539 c -0.277,0.307 -0.971,1.06 -1.467,1.566 -0.531,0.541 -1.306,1.286 -1.607,1.567 z" transform="matrix(6.79225 0 0 -6.79225 920.305 269.294)"/></g><g><path fill="#231f20" d="m 0,0 c -0.099,0.133 -1.702,2.312 -1.841,2.498 -0.325,0.438 -1.01,1.328 -1.24,1.608 L -2.618,4.451 -2.173,4.02 C -1.864,3.717 -1.53,3.656 -0.71,4.268 L 4.346,8.037 C 5.165,8.648 5.202,8.984 4.999,9.369 L 4.714,9.917 5.177,10.263 C 5.38,9.962 6.028,9.064 6.364,8.615 6.688,8.179 7.601,6.984 8.251,6.111 8.833,5.33 9.583,4.406 9.676,4.312 9.079,3.867 8.333,3.269 7.849,2.867 L 7.464,3.383 7.974,3.969 C 8.243,4.271 8.304,4.605 7.958,5.068 L 6.284,7.341 3.307,5.121 4.53,3.48 C 4.874,3.018 5.054,3.027 5.321,3.164 L 5.992,3.479 6.356,2.99 C 5.989,2.736 5.507,2.418 5.084,2.103 4.727,1.836 4.165,1.375 3.843,1.115 L 3.479,1.604 3.929,2.105 C 4.136,2.322 4.228,2.533 3.882,2.997 L 2.657,4.639 0.065,2.704 C -0.372,2.379 -0.528,2.118 0.123,1.244 l 1.056,-1.415 c 0.355,-0.476 0.665,-0.534 1.097,-0.395 l 0.942,0.31 0.395,-0.529 C 2.847,-1.193 1.999,-1.658 1.438,-2.037 1.099,-1.527 0.315,-0.422 0,0" transform="matrix(6.79225 0 0 -6.79225 973.29 336.38)"/></g><g><path fill="#231f20" d="M 0,0 C 2.633,1.445 5.918,0.711 7.516,-2.197 8.072,-3.209 8.32,-4.107 8.439,-4.871 7.71,-5.291 7.24,-5.566 6.534,-6.031 l -0.348,0.636 c 0.93,0.739 1.218,1.687 0.479,3.033 -1.009,1.837 -3.38,2.003 -5.606,0.778 -2.227,-1.225 -3.366,-3.262 -2.34,-5.127 0.707,-1.287 1.74,-1.867 2.847,-1.448 l 0.35,-0.636 C 1.109,-9.145 0.479,-9.435 -0.057,-9.729 -0.68,-9.11 -1.543,-7.984 -2.131,-6.914 -3.665,-4.123 -2.66,-1.463 0,0" transform="matrix(6.79225 0 0 -6.79225 1017.526 340.387)"/></g><g><path fill="#231f20" d="m 0,0 0.296,-0.543 c 0.206,-0.384 0.505,-0.541 1.471,-0.2 L 7.715,1.349 C 8.682,1.687 8.801,1.992 8.738,2.425 L 8.627,3.034 9.172,3.226 C 9.295,2.831 9.618,1.86 9.865,1.158 c 0.24,-0.683 0.574,-1.582 0.727,-1.967 L 10.046,-1 9.756,-0.473 C 9.535,-0.095 9.252,0.068 8.285,-0.271 l -2.383,-0.838 1.621,-4.61 2.383,0.838 c 0.966,0.338 1.086,0.644 1.022,1.076 l -0.11,0.61 0.545,0.191 c 0.122,-0.394 0.447,-1.366 0.693,-2.066 0.241,-0.685 0.573,-1.583 0.726,-1.968 l -0.546,-0.191 -0.29,0.528 c -0.219,0.377 -0.505,0.539 -1.469,0.199 L 4.527,-8.594 C 3.563,-8.934 3.426,-9.243 3.506,-9.67 l 0.103,-0.594 -0.545,-0.191 c -0.122,0.394 -0.408,1.309 -0.649,1.994 -0.247,0.701 -0.617,1.656 -0.769,2.039 l 0.543,0.192 0.298,-0.543 c 0.204,-0.383 0.504,-0.539 1.471,-0.201 l 2.786,0.982 -1.621,4.609 -2.787,-0.98 C 1.371,-2.703 1.234,-3.014 1.314,-3.44 L 1.419,-4.034 0.874,-4.226 c -0.122,0.395 -0.408,1.31 -0.649,1.995 -0.246,0.7 -0.618,1.655 -0.771,2.04 z" transform="matrix(6.79225 0 0 -6.79225 1023.761 413.788)"/></g><g><path fill="#231f20" d="m 0,0 0.2,-0.619 c 0.134,-0.412 0.468,-0.61 1.462,-0.447 l 6.172,1.004 c 1.01,0.166 1.182,0.445 1.195,0.88 L 9.025,1.453 9.596,1.547 C 9.646,1.137 9.707,0.762 9.795,0.225 9.857,-0.166 9.93,-0.606 10.023,-1.076 l -6.796,-7.041 5.717,0.93 c 0.977,0.16 1.234,0.435 1.244,0.888 l -0.006,0.652 0.57,0.092 c 0.05,-0.41 0.14,-1.063 0.259,-1.797 0.117,-0.716 0.227,-1.284 0.307,-1.688 l -0.568,-0.093 -0.191,0.555 c -0.151,0.41 -0.483,0.605 -1.461,0.447 L 0.856,-9.473 0.687,-8.43 7.826,-1.031 1.815,-2.01 C 0.822,-2.172 0.568,-2.465 0.572,-2.898 L 0.57,-3.501 0,-3.594 c -0.051,0.41 -0.124,1.068 -0.238,1.768 -0.119,0.732 -0.249,1.33 -0.332,1.734 z" transform="matrix(6.79225 0 0 -6.79225 1050.174 491.209)"/></g><g><path fill="#231f20" d="M 0,0 C 2.871,-0.02 4.545,1.023 4.559,3.119 4.573,5.049 2.617,6.035 0.109,6.055 -2.48,6.073 -4.436,4.998 -4.449,2.951 -4.463,1.021 -2.508,0.019 0,0 M -0.025,7.953 C 2.911,7.932 5.423,6.133 5.4,3.029 5.377,-0.139 3.154,-1.902 0.152,-1.882 c -2.92,0.021 -5.498,1.839 -5.474,4.923 0.021,3.184 2.343,4.934 5.297,4.912" transform="matrix(6.79225 0 0 -6.79225 1092.52 624.494)"/></g><g><path fill="#231f20" d="M 0,0 C 0.089,0.586 0.311,1.937 0.428,2.721 0.51,3.26 0.66,4.371 0.697,4.732 L 1.27,4.646 1.275,4.027 C 1.277,3.594 1.469,3.314 2.479,3.162 L 8.711,2.221 c 1.011,-0.153 1.26,0.06 1.405,0.471 l 0.19,0.589 0.57,-0.086 C 10.799,2.789 10.629,1.781 10.518,1.047 10.41,0.329 10.262,-0.766 10.217,-1.176 L 9.646,-1.09 9.658,-0.342 C 9.659,0.109 9.465,0.371 8.455,0.523 L 1.913,1.512 C 1.375,1.594 1.08,1.521 0.918,0.445 L 0.731,-0.795 C 0.642,-1.383 0.82,-1.643 1.223,-1.854 L 2.105,-2.304 2.006,-2.957 C 1.178,-2.697 0.043,-2.376 -0.412,-2.291 -0.288,-1.692 -0.079,-0.522 0,0" transform="matrix(6.79225 0 0 -6.79225 1051.686 676.762)"/></g><g><path fill="#231f20" d="M 0,0 C 2.751,-0.815 4.648,-0.278 5.244,1.729 5.793,3.579 4.189,5.071 1.785,5.784 -0.696,6.521 -2.871,6.03 -3.454,4.071 -4.003,2.221 -2.403,0.714 0,0 M 2.184,7.644 C 4.998,6.81 6.909,4.384 6.027,1.411 5.126,-1.624 2.5,-2.703 -0.377,-1.849 c -2.799,0.83 -4.769,3.291 -3.893,6.248 0.907,3.051 3.623,4.085 6.454,3.245" transform="matrix(6.79225 0 0 -6.79225 1066.518 759.775)"/></g><g><path fill="#231f20" d="m 0,0 c 2.839,-1.367 3.999,-4.36 2.61,-7.244 -0.5,-1.041 -1.136,-1.869 -1.69,-2.409 -0.766,0.35 -1.493,0.664 -2.265,0.962 l 0.315,0.654 c 1.209,-0.455 2.289,-0.113 2.941,1.24 0.922,1.916 -0.162,3.85 -2.6,5.024 -2.378,1.143 -4.603,0.859 -5.533,-1.074 -0.236,-0.491 -0.463,-1.114 -0.441,-1.6 l 1.576,-0.758 c 0.921,-0.443 1.237,-0.321 1.483,0.037 l 0.333,0.462 0.52,-0.251 c -0.194,-0.363 -0.603,-1.138 -0.976,-1.91 -0.307,-0.641 -0.635,-1.397 -0.799,-1.776 l -0.52,0.25 0.147,0.497 c 0.126,0.452 -0.055,0.722 -0.916,1.138 l -2.143,1.029 c 0.078,0.769 0.477,2.244 1.056,3.448 C -5.542,0.543 -2.839,1.366 0,0" transform="matrix(6.79225 0 0 -6.79225 1057.503 783.475)"/></g><g><path fill="#231f20" d="m 0,0 -0.258,-0.561 c -0.186,-0.392 -0.134,-0.726 0.715,-1.298 l 1.859,-1.256 4.987,-0.219 c 0.718,-0.027 1.236,-0.057 1.593,0.298 l 0.249,0.249 0.479,-0.322 C 9.379,-3.441 8.859,-4.186 8.48,-4.746 8.102,-5.307 7.396,-6.382 7.179,-6.732 L 6.7,-6.41 7.001,-5.817 c 0.13,0.251 0.126,0.512 -0.147,0.696 -0.151,0.101 -0.411,0.158 -0.663,0.168 l -3.71,0.254 1.607,-3.313 c 0.137,-0.269 0.303,-0.523 0.48,-0.642 0.207,-0.139 0.422,-0.084 0.638,0.147 l 0.378,0.443 0.478,-0.325 C 5.818,-8.721 5.316,-9.437 4.983,-9.93 4.65,-10.421 4.342,-10.909 4.125,-11.26 l -0.479,0.322 0.111,0.284 c 0.2,0.503 0.024,1.098 -0.346,1.906 l -1.89,4.1 -2.024,1.365 c -0.848,0.573 -1.177,0.498 -1.472,0.178 l -0.423,-0.45 -0.479,0.323 c 0.244,0.333 0.816,1.121 1.213,1.71 0.424,0.627 0.969,1.495 1.185,1.846 z" transform="matrix(6.79225 0 0 -6.79225 991.777 844.592)"/></g><g><path fill="#231f20" d="M 0,0 1.066,-0.143 C 1.46,-0.192 1.633,-0.094 1.874,1.036 L 3.235,7.443 C 3.277,7.637 3.224,7.783 3.03,7.824 2.9,7.852 2.681,7.849 2.461,7.844 L 1.302,7.787 1.337,8.353 c 0.367,0.056 3.6,0.82 3.992,0.922 L 3.503,0.69 C 3.263,-0.44 3.413,-0.606 3.761,-0.715 L 4.81,-1.022 4.696,-1.555 c -0.4,0.102 -1.798,0.433 -2.41,0.563 -0.63,0.135 -1.993,0.389 -2.4,0.46 z" transform="matrix(6.79225 0 0 -6.79225 481.323 1112.454)"/></g><g><path fill="#231f20" d="M 0,0 C 0.073,0.937 -0.503,1.61 -1.523,1.69 -2.395,1.758 -3.098,1.233 -3.168,0.312 -3.24,-0.608 -2.514,-1.261 -1.55,-1.849 -0.813,-1.524 -0.066,-0.855 0,0 m -0.31,-5.7 c 0.068,0.871 -0.615,1.668 -2.108,2.463 -0.76,-0.405 -1.584,-1.002 -1.668,-2.087 -0.093,-1.185 0.722,-1.991 1.808,-2.077 1.035,-0.08 1.887,0.665 1.968,1.701 m -5.306,0.279 c 0.102,1.316 1.105,2.098 2.508,2.684 -1.165,0.753 -1.844,1.599 -1.748,2.833 0.11,1.414 1.701,2.514 3.559,2.371 C 0.577,2.32 1.609,1.33 1.507,0.015 1.414,-1.186 0.213,-1.937 -0.792,-2.321 0.726,-3.233 1.512,-4.187 1.41,-5.487 1.279,-7.181 -0.434,-8.354 -2.522,-8.191 c -2.204,0.17 -3.197,1.455 -3.094,2.77" transform="matrix(6.79225 0 0 -6.79225 578.57 1074.739)"/></g><g><path fill="#231f20" d="M 0,0 C 2.731,3.021 4.252,4.994 4.123,7.185 4.057,8.321 3.229,8.9 1.994,8.828 1.27,8.786 0.608,8.498 -0.029,8.099 L -0.147,8.702 C 0.396,9.313 1.436,9.903 2.753,9.98 4.548,10.086 5.873,9.204 5.965,7.64 6.097,5.399 4.189,3.255 1.826,0.703 l 3.623,0.23 c 0.693,0.04 0.902,0.416 1.05,0.986 L 7.092,1.954 C 6.883,1.017 6.802,0.416 6.729,-0.299 L 0.041,-0.691 Z" transform="matrix(6.79225 0 0 -6.79225 609.912 1126.37)"/></g><g><path fill="#231f20" d="M 0,0 -0.107,0.517 C -0.451,2.181 -1.36,3.812 -2.717,3.531 -3.589,3.351 -4.084,2.238 -3.816,0.946 -3.529,-0.442 -2.639,-1.253 -1.508,-1.019 -0.862,-0.886 -0.336,-0.491 0,0 m -3.441,-6.572 -0.048,0.799 c 0.404,0 0.721,0.014 1.028,0.079 1.744,0.359 2.957,2.31 2.601,4.932 -0.338,-0.643 -1.123,-1.243 -1.915,-1.407 -1.632,-0.337 -3.28,0.384 -3.693,2.387 -0.394,1.905 0.61,3.729 2.806,4.183 2.197,0.454 3.877,-1.236 4.371,-3.627 0.754,-3.65 -0.828,-6.587 -3.816,-7.205 -0.501,-0.103 -0.914,-0.138 -1.334,-0.141" transform="matrix(6.79225 0 0 -6.79225 714.276 1079.753)"/></g></g></g></svg>