<svg xmlns="http://www.w3.org/2000/svg" role="img" viewBox="-1.95 -1.82 94.77 33.77"><title>Samsung (Member) logo</title><path fill="#034EA2" d="M90.969 7.196c1.24 7.106-18.105 16.412-43.213 20.785-25.105 4.373-46.462 2.154-47.7-4.955-1.237-7.107 18.113-16.41 43.218-20.782C68.38-2.131 89.733.088 90.969 7.196z"/><path d="M67.34 17.745l-.129-7.389h2.33v9.313h-3.35l-2.325-7.643h-.05l.129 7.643H61.63v-9.313h3.495l2.163 7.389zm-42.353-6.517l-1.289 8.539h-2.541l1.745-9.411h4.186l1.737 9.411h-2.531l-1.254-8.539zm10.975 6.322l1.163-7.194h3.838l.204 9.411h-2.352l-.062-8.461h-.049l-1.573 8.461h-2.388l-1.574-8.461h-.051l-.059 8.461h-2.357l.208-9.411h3.84l1.162 7.194zm-18.768-.438c.092.228.064.521.021.698-.079.313-.291.632-.917.632-.59 0-.948-.338-.948-.855v-.911h-2.524l-.002.729c0 2.098 1.652 2.731 3.422 2.731 1.702 0 3.104-.582 3.327-2.15.114-.813.029-1.345-.01-1.546-.397-1.97-3.969-2.558-4.235-3.66-.045-.189-.032-.389-.01-.496.065-.3.271-.631.86-.631.55 0 .875.34.875.854v.581H19.4v-.661c0-2.05-1.84-2.37-3.173-2.37-1.674 0-3.042.553-3.292 2.085-.068.423-.078.8.021 1.272.411 1.923 3.754 2.48 4.238 3.698zm30.602-.017c.093.226.063.511.021.688-.077.312-.287.626-.909.626-.582 0-.937-.338-.937-.843l-.002-.903h-2.498l-.003.719c0 2.077 1.637 2.704 3.389 2.704 1.684 0 3.073-.574 3.292-2.128.114-.807.033-1.332-.008-1.529-.395-1.952-3.931-2.534-4.194-3.625-.045-.188-.032-.386-.009-.487.067-.302.269-.625.852-.625.545 0 .863.332.863.842v.575h2.329v-.654c0-2.028-1.825-2.346-3.145-2.346-1.655 0-3.012.546-3.257 2.067-.068.417-.075.787.022 1.257.405 1.903 3.715 2.456 4.194 3.662zm7.905 1.264c.653 0 .857-.452.902-.683.019-.102.024-.238.022-.36v-6.964h2.38v6.751c.005.173-.012.529-.02.618-.167 1.757-1.556 2.327-3.285 2.327-1.731 0-3.121-.57-3.286-2.327-.008-.089-.025-.445-.02-.618v-6.751h2.378v6.964c0 .122.004.259.022.36.051.231.249.683.907.683zm19.632-.099c.682 0 .92-.431.964-.682.017-.108.022-.239.021-.358v-1.366h-.966V14.48h3.337v2.526c-.002.176-.006.306-.034.62-.157 1.712-1.642 2.323-3.31 2.323-1.671 0-3.154-.611-3.313-2.323-.027-.314-.031-.444-.034-.62L72 13.043c0-.167.021-.463.039-.62.209-1.759 1.635-2.325 3.306-2.325 1.669 0 3.13.563 3.303 2.325.031.3.021.62.021.62v.314h-2.373v-.527c.002.001-.003-.224-.031-.358-.04-.208-.221-.686-.938-.686-.686 0-.887.452-.937.686-.029.124-.04.292-.04.444v4.304c-.002.119.005.25.024.358.041.252.278.682.959.682z" fill="#FFF"/></svg>