<svg xmlns="http://www.w3.org/2000/svg" role="img" viewBox="-14.26 -13.76 715.52 164.52"><title>Sandisk (Member) logo</title><path d="M331.33114 1.19549h-21.70389s-2.58853 1.5929-2.58853 5.5753c0 4.77884 2.58853 5.7744 2.58853 5.7744h19.31445c27.87657 0 45.59805 18.7171 45.59805 55.55398 0 39.6245-17.32326 56.74863-48.18658 56.74863h-12.54442c-1.79206 0-3.385-2.19028-3.385-3.385V63.71855c0-19.11533-13.14183-29.6686-34.24834-29.6686-14.33648 0-24.4915 6.37178-30.2659 17.3233V39.42617c0-1.79206-1.19472-2.78769-2.58853-2.78769H207.4797s-2.3894 1.99119-2.3894 5.77443c0 3.98237 2.1903 5.57531 2.1903 5.57531h8.16384c1.99115 0 4.38059 2.19031 4.38059 4.77884v68.69574c0 1.59294-1.99119 3.18587-3.385 3.18587h-7.76561l-3.385 9.9559h51.17332s1.79203-1.59293 1.79203-5.17709c0-3.385-1.79203-4.7788-1.79203-4.7788h-6.17265c-1.79206 0-2.98677-1.39382-2.98677-2.98678V68.09917c4.97793-13.73914 14.73473-21.70389 22.89857-21.70389 7.56649 0 12.34533 5.7744 12.34533 14.33649v60.13366c0 2.1903-1.59297 3.78324-2.98678 3.78324h-7.36737s-1.99118 1.39382-1.99118 4.77881c0 3.58416 1.99118 5.1771 1.99118 5.1771h60.33275c59.93457 0 75.46577-36.04035 75.46577-66.50541 0-48.3857-33.45184-66.90368-76.66045-66.90368m-134.8029 123.45318c-6.57093-.59734-7.3674-4.38058-7.3674-8.76117V63.3203c0-7.56646-2.78765-16.5268-9.15943-21.90298-8.16383-6.77-19.91179-8.56205-30.06684-8.56205-13.3409 0-23.69504 1.5929-34.4474 5.17705-1.19472.59735-1.59297 1.59294-1.59297 3.18588v14.53564c0 1.19472.7965 1.99115 1.79206 1.99115h5.5753c1.19472 0 2.38944-.59734 3.1859-1.79206 3.18588-4.18146 6.96916-7.56646 10.15503-9.35855 2.78765-1.39381 7.3674-3.18587 11.94708-3.18587 10.95152 0 15.5312 7.96474 15.5312 17.32326v14.53561c-41.21745-2.3894-58.14247 9.7568-58.14247 29.07125 0 22.30123 15.33211 31.65978 30.46507 31.65978 13.54001 0 23.8942-5.17705 29.4695-13.1418 1.19468 6.96912 5.37618 11.74796 10.75236 11.74796H196.13l3.58412-9.9559h-3.18587zm-34.44747-14.53564c-4.18146 5.5753-10.95148 10.15506-18.31882 10.15506-9.35858 0-14.73477-4.57975-14.73477-15.13299 0-12.34533 5.77444-18.9162 33.0536-18.9162v23.89413m312.21712 14.53564h-11.34974c-1.79203 0-2.78765-.99559-2.78765-2.58852V40.42173c0-2.3894-.79644-3.78325-3.58412-3.78325h-34.84566s-2.38943 2.19028-2.38943 5.5753c0 3.18591 2.38943 5.57532 2.38943 5.57532h9.7568c.59735 0 1.19473.39825 1.19473 1.39384v72.67808c0 1.59294-1.39385 2.78765-2.58857 2.78765h-11.15058s-2.19034 1.39382-2.19034 4.77881c0 3.18594 2.19034 5.1771 2.19034 5.1771h55.35479s1.7921-1.99116 1.7921-5.1771c0-3.18587-1.7921-4.7788-1.7921-4.7788M44.99936 49.38205c-19.11536-6.5709-22.8986-12.1462-22.8986-19.91179 0-8.363 7.76565-16.92508 24.49154-16.92508 5.77443 0 11.74799 1.99119 17.52239 5.57531 3.38502 2.19031 7.16827 5.77446 11.34973 12.94267.39825.79647 1.39385 1.19472 1.99119 1.19472h5.97352c.79647 0 1.19472-.59734 1.19472-1.59297V7.96552c0-1.19473-.79647-1.9912-1.99118-2.58854C71.28297 1.79283 60.13235.00077 45.3976.00077 18.11841.00077-.0013 15.53197-.0013 39.227c0 23.29685 17.72148 33.0536 40.62008 40.22187 14.73474 4.38059 32.058 10.55327 32.058 24.88975 0 8.56209-7.9647 18.51798-23.69504 18.51798-11.94711 0-19.91179-4.38058-24.49154-9.15942-4.7788-4.77881-9.1594-9.35856-13.34089-18.11974-.39825-.99562-1.19472-1.99118-2.1903-1.99118-2.38945 0-6.96913-.19913-6.96913-.19913-.99562.19913-1.79209.7965-1.79209 2.19035v26.48269c0 .9956.59738 2.58853 1.59297 3.1859 13.73914 7.76559 31.46062 10.75237 46.19539 10.75237 26.28357-.19913 46.39452-17.5224 46.39452-45.39893 0-29.86772-27.47829-33.65093-49.3813-41.21742m484.65336 23.29675c-19.9118-4.77884-24.09329-8.36293-24.09329-15.33208 0-5.97352 5.17706-12.3453 15.73033-12.3453 10.35415 0 19.9118 6.17262 24.49154 13.14177.59734.9956 1.3938 1.39384 2.58853 1.39384h4.97793c.99562 0 1.39384-.59737 1.39384-1.19471V41.0191c0-1.19471-.59737-2.38943-1.99118-2.78765-7.5665-2.19031-19.11533-3.78328-31.65979-3.78328-16.925 0-35.2439 9.7568-35.2439 30.4651 0 17.9206 14.33652 27.6774 26.68182 30.86328 21.10654 5.7744 27.2792 8.76118 27.2792 17.72151 0 7.76559-6.17266 12.54443-16.72593 12.54443-10.75236 0-20.70826-7.76562-26.4827-21.90298-.99558-1.39385-1.59293-1.79206-2.58855-1.79206-2.78762-.19913-5.7744 0-6.57087 0-.9956 0-1.79206.39821-1.79206 1.79206v20.50916c0 1.59294 2.19031 3.1859 2.19031 3.1859s5.97352 3.78322 12.74355 6.17266c5.7744 1.79206 12.74355 3.385 22.50032 3.385 24.88976 0 36.63771-15.33208 36.63771-33.45185 0-16.12858-9.1594-26.28356-30.06681-31.26153m-94.78019-49.77951h24.88976c1.39384 0 2.3894-.59734 2.78765-1.79206l5.77444-17.92064c.39821-1.39381-.59738-2.19031-1.99119-2.19031h-26.08447c-1.39381 0-2.19028.7965-2.3894 1.99122l-4.77888 16.32767c-.79643 1.99118.19913 3.58412 1.7921 3.58412m247.902 101.94846c-5.97356 0-10.35415-1.99119-12.94268-5.77443-1.19472-1.79206-32.25712-49.18214-33.05359-50.37686 7.96468-10.7524 11.94708-14.93386 18.9162-18.51798 4.57968-2.38943 13.14177-4.1815 19.51354-4.1815 0 0 1.39384-1.19471 1.39384-4.57971 0-3.58412-1.39384-4.97793-1.39384-4.97793l-31.26153.19912c-1.19469 0-2.58853.79647-3.78321 2.38944-.59738.99556-25.08889 36.04037-31.65978 45.39892V4.58052c0-1.99119-1.19472-3.385-3.385-3.385-2.38944 0-39.02715-.19913-39.02715-.19913s-1.99115 1.59297-1.99115 4.77884c0 3.38503 1.99115 5.17713 1.99115 5.17713h12.54442c1.59294 0 2.19028.79643 2.19028 2.38937v108.9176c0 1.59291-.79643 2.38941-1.79206 2.38941H567.0869s-1.99115 1.59294-1.99115 4.7788c0 3.18594 1.99115 5.1771 1.99115 5.1771h51.96982s1.59297-2.19031 1.59297-5.1771c0-2.98674-1.59297-4.7788-1.59297-4.7788h-8.36292c-1.19472 0-2.19031-.9956-2.19031-2.19031v-25.288c2.3894-2.58854 6.96911-7.16822 7.36736-7.7656 1.59294-1.59296 3.385-.99558 4.1815.39826 1.19472 1.59293 20.90735 32.058 21.3056 32.8545.99563 1.3938.39822 2.19028-.59734 2.19028h-6.17265s-1.59297 2.3894-1.59297 4.77883c0 2.58853 1.39384 4.97794 1.39384 4.97794h51.9698s1.59296-1.99116 1.59296-4.77884c0-2.78762-1.99118-4.97793-1.99118-4.97793h-3.18587" fill="#ec1b24"/></svg>