<svg xmlns="http://www.w3.org/2000/svg" role="img" viewBox="-2.71 -2.59 134.42 58.17"><title>SAS (Member) logo</title><g fill-opacity="1" fill-rule="nonzero" stroke="none" transform="translate(-310.376 -505.828)"><path fill="#007cc2" d="M328.84475 505.828c-1.82988-.04138-3.72031.1725-5.65625.65625-8.9525 2.23625-18.97375 13.7525-8.03125 27.03125l6.53125 7.90625 1.84375 2.25c1.2375 1.47125 3.2625 1.445 4.75.21875 1.495-1.2325 1.92-3.25375.6875-4.75-.00158-.0021-.52263-.63275-.75-.90625h.03125c-.47206-.56789-.57453-.66312-1.0625-1.25-2.36375-2.84284-5.0625-6.125-5.0625-6.125-4.75125-5.76625-2.63125-12.89 3.8125-16.9375 5.6775-3.56625 16.09625-2.2925 19.6875 3.5625-2.2618-6.6757-8.85175-11.47695-16.78125-11.65625zm1.3125 13.9375c-.84422-.02875-1.72563.29312-2.46875.90625-1.4975 1.23375-1.91875 3.2575-.6875 4.75.0025.00375.15125.18875.40625.5 2.83236 3.4029 6.59375 7.96875 6.59375 7.96875 4.7525 5.76625 2.63125 12.85875-3.8125 16.90625-5.67625 3.565-16.09625 2.28875-19.6875-3.5625 2.78375 8.2125 12.11375 13.58125 22.4375 11 8.955-2.24 18.97375-13.72375 8.03125-27l-7.65625-9.25-.875-1.09375c-.61875-.73563-1.43703-1.09625-2.28125-1.125z"/><path fill="#000" d="M363.90725 512.1405c-5.66875 0-12.15625 2.92375-12.15625 9.96875 0 6.70625 5.33375 8.58875 10.625 9.875 5.355 1.28625 10.65625 2.03125 10.65625 6.5 0 4.4025-4.535 5.21875-7.875 5.21875-4.40875 0-8.5625-1.60375-8.75-6.75h-5.34375c.3125 8.66875 6.47375 11.84375 13.78125 11.84375 6.61625 0 13.875-2.6975 13.875-11.03125 0-6.77375-5.3025-8.68125-10.65625-9.96875-4.975-1.28625-10.65625-1.9625-10.65625-6.09375 0-3.5225 3.725-4.46875 6.9375-4.46875 3.53 0 7.1825 1.40375 7.5625 5.875h5.34375c-.44-8.535-6.1625-10.96875-13.34375-10.96875zm30.875 0c-7.24625 0-13.5 3.05-13.8125 11.71875h5.34375c.2525-5.1475 3.59-6.625 8.125-6.625 3.40375 0 7.25.8 7.25 5.8125 0 4.335-5.015 3.93625-10.9375 5.15625-5.54125 1.15125-11.03125 2.855-11.03125 10.78125 0 6.9775 4.8575 9.8125 10.78125 9.8125 4.53125 0 8.4775-1.71375 11.4375-5.4375 0 3.79125 1.79 5.4375 4.5625 5.4375 1.69875 0 2.8675-.36 3.8125-.96875v-4.46875c-.6925.27125-1.185.34375-1.625.34375-1.7 0-1.6875-1.195-1.6875-3.90625V521.7655c0-8.195-6.36-9.625-12.21875-9.625zm28 0c-5.66875 0-12.15625 2.92375-12.15625 9.96875 0 6.70625 5.36625 8.58875 10.65625 9.875 5.35625 1.28625 10.65625 2.03125 10.65625 6.5 0 4.4025-4.53625 5.21875-7.875 5.21875-4.41 0-8.5625-1.60375-8.75-6.75h-5.375c.31375 8.66875 6.50625 11.84375 13.8125 11.84375 6.6125 0 13.84375-2.6975 13.84375-11.03125 0-6.77375-5.3025-8.68125-10.65625-9.96875-4.97375-1.28625-10.625-1.9625-10.625-6.09375 0-3.5225 3.69375-4.46875 6.90625-4.46875 3.52625 0 7.18125 1.40375 7.5625 5.875h5.375c-.43875-8.535-6.19125-10.96875-13.375-10.96875zm-21.15625 17.75v5.90625c0 3.18375-2.88125 7.90625-9.9375 7.90625-3.2725 0-6.3125-1.36125-6.3125-5.15625 0-4.26625 3.0375-5.60375 6.5625-6.28125 3.59125-.67625 7.61-.75 9.6875-2.375zm-53.03125 15.34375c-1.13 0-2.09375.8775-2.09375 2.0625 0 1.19.96375 2.0625 2.09375 2.0625 1.12 0 2.0625-.8725 2.0625-2.0625 0-1.185-.9425-2.0625-2.0625-2.0625zm88.9375 0c-1.13375 0-2.09375.87875-2.09375 2.0625 0 1.19125.96 2.0625 2.09375 2.0625 1.11875 0 2.09375-.87125 2.09375-2.0625 0-1.18375-.975-2.0625-2.09375-2.0625zm-88.9375.34375c.9275 0 1.65625.74 1.65625 1.71875 0 .9875-.72875 1.71875-1.65625 1.71875-.945 0-1.6875-.73125-1.6875-1.71875 0-.97875.7425-1.71875 1.6875-1.71875zm88.9375 0c.9275 0 1.6875.74125 1.6875 1.71875 0 .98875-.76 1.71875-1.6875 1.71875-.94625 0-1.65625-.73-1.65625-1.71875 0-.9775.71-1.71875 1.65625-1.71875zm-89.75.53125v2.375h.375V547.453h.40625l.625 1.03125h.40625l-.6875-1.0625c.3525-.04.625-.19875.625-.625 0-.47-.27875-.6875-.84375-.6875h-.90625zm88.96875 0v2.375h.34375V547.453h.4375l.625 1.03125h.40625l-.6875-1.0625c.34625-.03875.625-.19875.625-.625 0-.47-.2825-.6875-.84375-.6875h-.90625zm-88.59375.3125h.5c.2475 0 .5.04875.5.34375 0 .3625-.25375.375-.5625.375h-.4375v-.71875zm88.9375 0h.5c.2525 0 .53125.0475.53125.34375 0 .3625-.2875.375-.59375.375h-.4375v-.71875z"/></g></svg>