<svg xmlns="http://www.w3.org/2000/svg" role="img" viewBox="-5.98 -5.98 310.70 71.70"><title>Sauce Labs (Member) logo</title><g fill-rule="evenodd" clip-path="url(#clip0_235_2342)" clip-rule="evenodd"><path fill="#3DDC91" d="M17.9158 29.9985h12.1045l-5.0014 15.0007h12.1004l5.0023-15.0007H30.0203l5.0023-15.0008h17.5268a7.50623 7.50623 0 0 1 3.419.8252 7.5017 7.5017 0 0 1 2.6672 2.2916 7.48991 7.48991 0 0 1 1.323 3.2551 7.48748 7.48748 0 0 1-.3071 3.5L49.6468 54.8681c-.4979 1.4937-1.4536 2.7929-2.7317 3.7134-1.278.9206-2.8136 1.4158-4.389 1.4154H20.0125l5.0044-14.9946H7.5066a7.51016 7.51016 0 0 1-3.42064-.8244 7.50476 7.50476 0 0 1-2.66893-2.2916 7.49908 7.49908 0 0 1-1.3308-3.2553 7.49748 7.49748 0 0 1 .29973-3.5037L10.3937 5.12884a7.49358 7.49358 0 0 1 2.7296-3.71373c1.2776-.92063 2.8129-1.41576 4.388-1.4151h22.5106L35.0195 14.9977H22.9182l-5.0024 15.0008z"/><path fill="#132322" d="M267.783 49.2301c-3.467 0-6.209-1.8516-7.451-4.7061h-.519v4.1876h-3.155V11.4828h3.208v16.3555h.466c1.294-2.8453 4.036-4.6536 7.451-4.6536h.207c4.66 0 8.436 3.4655 8.436 11.7914v2.4317c0 8.2734-3.829 11.8439-8.383 11.8439l-.26-.0216zm-.673-2.9471c3.573 0 6.108-2.225 6.108-8.7425v-2.7403c0-6.5175-2.535-8.69-6.108-8.69h-.207c-3.517 0-7.037 2.1601-7.037 8.7424v2.6879c0 6.57 3.52 8.7425 7.037 8.7425h.207zM88.5045 49.2301c-7.2441 0-12.2125-3.518-12.2125-11.3779h5.694c0 4.8603 2.0164 6.2058 6.5185 6.2058h.3088c4.2952 0 6.2622-1.293 6.2622-4.811 0-3.5925-3.7047-4.7663-7.1546-5.8593-.5242-.1661-1.0424-.3303-1.5408-.5008-6.1048-2.0707-9.5199-4.811-9.4705-10.449.105-6.2583 4.814-9.5171 10.9218-9.5171h.3088c6.9878 0 11.8018 3.518 11.8018 11.418h-5.6909c0-4.9128-1.8528-6.2583-6.1079-6.2583h-.3087c-3.3658 0-5.1259 1.3455-5.1259 4.3451 0 3.5704 3.1064 4.6566 6.6266 5.7429 6.4845 2.0151 11.4248 4.4993 11.4248 11.0662 0 6.7242-4.8662 9.983-11.956 9.983l-.2995.0124zm37.5235-5.5856h3.829l-1.689 5.0671h-7.213l-.414-3.413h-.617c-1.14 2.4687-3.363 3.9315-6.985 3.9315h-.21c-4.916 0-8.124-2.9471-8.124-7.2921v-.2593c0-4.2925 3.001-6.6193 9.056-7.292l6.883-.8271v-.7252c0-4.0333-1.707-5.4312-4.397-5.4312h-.207c-2.433 0-4.4.9258-4.659 4.4468h-5.799c.617-6.6193 4.968-9.5664 10.662-9.5664h.207c6.105 0 9.677 3.4655 9.677 10.4922v10.8687zm-12.215.7221c5.073 0 6.728-2.7773 6.728-6.5669v-.1049l-6.015.7252c-3.468.4135-4.502 1.4998-4.502 3.1044v.2006c0 1.6541 1.294 2.6354 3.569 2.6354l.22.0062zm39.231 4.3543v-25.922h-5.682v14.8465c0 3.8266-1.862 6.2583-5.434 6.2583h-.207c-2.492 0-4.036-1.4998-4.036-5.0177V22.7989h-5.756v16.5006c0 6.3601 3.156 9.9306 7.97 9.9306h.207c3.208 0 5.441-1.6541 6.676-4.2926h.568v3.7834h5.694zm15.319.5092c-6.315 0-10.712-3.9315-10.712-11.7914v-3.3113c0-7.8629 4.397-11.8438 10.712-11.8438h.105c5.796 0 10.144 3.4655 10.403 9.9306h-5.592c-.102-3.1045-1.81-4.811-4.863-4.811h-.105c-3.468 0-5.071 1.9133-5.071 6.7242v3.3113c0 4.7554 1.603 6.7212 5.071 6.7212h.105c3.053 0 4.761-1.756 4.863-4.808h5.592c-.259 6.4805-4.607 9.8751-10.403 9.8751l-.105.0031zm19.5-11.9488h16.366l.009-3.1539c0-7.8629-4.348-11.8438-10.764-11.8438h-.309c-6.469 0-10.768 3.9809-10.768 11.8438v3.3143c0 7.8599 4.348 11.7914 10.87 11.7914h.441c5.382 0 9.418-3.0026 10.246-8.332h-5.691c-.466 2.4317-2.121 3.4161-4.709 3.4161h-.309c-3.838 0-5.382-1.759-5.382-6.8785v-.1574zm.012-4.0333c.207-4.4993 1.76-5.9991 5.281-5.9991h.308c3.468 0 5.074 1.4998 5.281 5.9991h-10.87zm24.583 12.5165h15.526v2.9471h-18.682V13.4393h3.156v32.3252zm41.353.0525h-3.882V33.0258c0-6.101-2.742-9.8751-9.057-9.8751h-.105c-5.95 0-9.421 3.4131-9.729 8.5327h3.365c.207-3.5149 2.069-5.638 6.263-5.638h.206c4.191 0 5.951 2.5983 5.951 6.789v1.6016l-7.504 1.0369c-5.743.7221-9.316 2.5336-9.316 6.931v.3086c0 4.8635 4.502 6.5176 7.763 6.5176h.207c4.246 0 7.046-1.8115 8.282-4.5518h.568l.259 4.0333h5.762l.967-2.8946zm-6.976-8.4833c0 7.2921-4.141 8.9986-8.485 8.9986l-.207-.003c-3.116 0-4.969-1.3949-4.969-3.6723v-.3086c0-2.4317 2.069-3.5704 6.624-4.2432l7.037-.9258v.1543zm33.114 3.518c0 5.1196 3.619 8.3784 9.573 8.3784h.318c5.28 0 9.007-2.6385 9.007-7.036 0-5.2214-3.986-6.3601-9.056-7.7581-.08-.0222-.16-.0443-.24-.0663-3.064-.8482-5.816-1.6099-5.816-4.4823 0-2.2775 1.81-3.8791 5.277-3.8791h.309c3.891 0 5.744 2.2219 5.744 5.2739h3.106c0-5.0332-3.727-8.1191-8.85-8.1191h-.309c-5.027 0-8.337 2.7403-8.337 6.7243 0 4.8603 3.882 6.1009 8.797 7.4988.122.0334.244.0666.366.0997 3.074.8382 5.949 1.6218 5.949 4.6588 0 2.4287-1.606 4.2401-5.953 4.2401h-.309c-4.502 0-6.42-2.3268-6.42-5.5331h-3.156z"/></g><defs><clipPath id="clip0_235_2342"><path fill="#fff" d="M0 0h298.835v60H0z"/></clipPath></defs></svg>