<svg xmlns="http://www.w3.org/2000/svg" role="img" viewBox="-2.81 -2.81 165.49 44.99"><title>Seagate (Adopter) logo</title><style>.s0{fill:#979e96;}.s1{fill:#fff;}</style><style/><style/><style/><style/><style/><path fill="#70bf4e" d="M15.4 1.2c.5-.3 1-.6 1.5-.8.2.5.5 1 .7 1.5-1.1.6-2.2 1.1-3.2 1.8C11.6 5.4 9 7.4 6.8 9.9c-1.7 2-3.1 4.4-3.4 7.1-.1 1.6.2 3.3 1.2 4.6.9 1.1 2.3 1.9 3.7 2.1 1.6.3 3.3.1 4.8-.3 3.1-.8 5.9-2.3 8.6-3.9 1.6-1 3.2-2 4.5-3.4.5-.6.9-1.3.9-2.1 0-.6-.4-1.2-.9-1.4-.5-.3-1.2-.4-1.8-.3-.8.2-1.6.6-2.4 1-2.3 1.2-4.3 2.8-6.6 4-1.4.7-2.9 1.4-4.5 1.4-1 0-2-.4-2.6-1.2-.5-.6-.7-1.3-.6-2.1.1-1.2.6-2.4 1.3-3.3 1.3-1.8 3.1-3.1 5-4.2 3.2-2.1 6.7-3.8 10.4-4.8 2-.5 4-.8 6-.7 2.9.1 5.8 1 8.2 2.7 2.8 2 4.9 5.2 5.1 8.7.3 2.9-.6 5.8-1.9 8.4-1 2-2.4 3.8-3.9 5.4-1.2 1.3-2.5 2.5-3.8 3.6-1.7 1.5-3.6 2.8-5.5 4-1.9 1.2-4 2.2-6.1 3.1-.6.3-1.3.6-1.9.8-.4-1.8-1-3.6-1.4-5.4 1.7-.8 3.4-1.5 5.1-2.4 1.9-1 3.7-2.3 5.4-3.6 1.5-1.2 2.9-2.4 4.2-3.8 2.2-2.3 4-5.3 4.4-8.5.1-1.2.1-2.3-.2-3.5-.7-2.4-2.4-4.5-4.7-5.7-1.9-1-4.1-1.4-6.2-1.2-3.1.2-6 1.4-8.7 2.8-1.3.7-2.5 1.4-3.7 2.2-1.2.7-2.3 1.5-3.2 2.6-.4.5-.7 1.1-.7 1.7 0 .4.3.9.7 1 .7.3 1.5 0 2.2-.3 3.3-1.6 6.1-4.1 9.6-5.3 1.7-.6 3.7-.7 5.4 0 1.4.6 2.5 1.9 2.8 3.4.1.9.1 1.8-.2 2.6-.5 1.3-1.3 2.4-2.3 3.4-1.2 1.2-2.6 2.2-4 3.1-2 1.1-3.9 2.4-6 3.3-1.8.8-3.8 1.5-5.7 2-2.2.6-4.5.7-6.7.2-2.2-.5-4-1.7-5-3.4C.8 22.9.4 21.2.4 19.6c.1-1.9.5-3.8 1.3-5.5 1.4-2.9 3.5-5.5 6-7.6 2.4-2.1 5-3.9 7.8-5.4z"/><path fill="#979e96" d="M38.4 15v-1.8c.1.6.1 1.2 0 1.8zm15.4-.3c1.2-.7 2.6-.7 3.9-.4.7.1 1.3.6 1.8 1.1-.4.4-.8.8-1.3 1.2-.8-1.1-2.5-1.3-3.6-.6-.7.5-.9 1.6-.4 2.3.5.6 1.3.8 2.1 1.1.9.2 1.9.5 2.6 1.3.7.7.8 1.7.7 2.6-.1 1-.7 1.9-1.6 2.4-.9.5-1.9.7-2.9.6-1.2-.1-2.4-.6-3.1-1.6.4-.4.9-.8 1.3-1.1.9 1.3 2.9 1.7 4.1.7.7-.5.9-1.6.3-2.3-.6-.6-1.5-.8-2.3-1-.9-.3-1.8-.7-2.4-1.5-.5-.6-.6-1.5-.6-2.3.1-1 .7-1.8 1.5-2.3zm50.3 0c1.3-.7 2.9-.8 4.3-.5 1.1.2 2.1.6 2.8 1.4-.4.4-.7.8-1.1 1.2-1.6-1.5-4.4-1.7-6-.1-1.7 1.5-1.9 4.3-.7 6.1.7 1 1.7 1.7 2.9 1.9 1.2.1 2.4 0 3.5-.5V21h-2.5v-1.5h4.1V25c0 .2-.2.3-.4.4-1.5.7-3.1.9-4.7.8-1.7-.1-3.3-1-4.2-2.4-1-1.4-1.3-3.2-1-4.8.3-1.8 1.4-3.4 3.1-4.2zM68 14.3h7.4v1.5h-5.9v3.4h5.4v1.5h-5.4c0 1.2-.1 2.4 0 3.6.4.1.9 0 1.3 0h4.8v1.5h-7.7V14.3zm19.7 0h1.4c1.6 3.8 3.3 7.6 4.9 11.5-.6 0-1.2.1-1.8 0-.4-.9-.8-1.9-1.2-2.8h-5.4c-.4.9-.7 1.9-1.1 2.8h-1.8c1.6-3.8 3.4-7.7 5-11.5zm36.3 0h1.4c1.6 3.8 3.3 7.6 4.9 11.5-.6 0-1.2.1-1.8 0-.5-.9-.8-1.9-1.2-2.8h-5.4c-.4.9-.7 1.9-1.1 2.8-.6.1-1.2 0-1.8 0 1.7-3.8 3.4-7.7 5.1-11.5zm11.1 0h9v1.5h-3.7v10h-1.6v-10h-3.7v-1.5zm16.8 0h7.4v1.5h-5.8v3.4h5.5v1.5h-5.5v3.6h6.1v1.5h-7.7V14.3z"/><path fill="#fff" d="M86.2 21.6c.7-1.7 1.4-3.5 2.2-5.2.7 1.7 1.4 3.5 2.1 5.2h-4.3zm36.3 0c.7-1.7 1.4-3.5 2.2-5.2.7 1.7 1.4 3.5 2.1 5.2h-4.3z"/></svg>