<svg xmlns="http://www.w3.org/2000/svg" role="img" viewBox="-0.42 -0.42 67.47 35.97"><title>Snyk Open Source License Compliance Management logo</title><path fill="#3A3667" d="M55.25 19.618h-.414v7.158h-5.123V8.954L54.836.92v16.629c1.02-1.254 4.456-6.014 4.456-6.014h6.326l-5.998 6.367 6.204 8.887h-6.471l-4.104-7.17zM40.97 18.45l2.1-6.866h5.076l-5.95 15.144c-1.772 4.553-4.31 7.633-8.098 7.633-1.457 0-2.683-.378-3.327-.743l2.04-3.165c.304.036.62.049.935.049 1.748 0 3.06-1.705 3.91-3.726l-6.241-15.192h5.743l2.246 6.78c.437 1.29.752 3.75.752 3.75s.401-2.374.814-3.664zm-15.48-.353c0-1.985-.874-2.922-2.538-2.922-.813 0-1.663.231-2.246.584v11.017h-5.123V11.73l5.014-.414-.121 2.46h.17a6.36 6.36 0 0 1 5.099-2.57c2.622 0 4.893 1.632 4.893 5.49v10.08H25.49v-8.68zm-24.574 7.9l.461-3.506c1.603.792 3.412 1.169 4.93 1.169 1.105 0 1.833-.377 1.833-1.047 0-1.923-6.908-1.46-6.908-6.488 0-3.214 2.938-4.906 6.617-4.906 1.833 0 3.727.499 4.953.937l-.498 3.445c-1.287-.499-3.035-.962-4.492-.962-.898 0-1.627.317-1.627.901 0 1.9 7.054 1.522 7.054 6.428 0 3.262-2.89 5.137-6.847 5.137-2.186 0-3.958-.377-5.476-1.108z"/></svg>