<svg xmlns="http://www.w3.org/2000/svg" role="img" viewBox="-13.33 -13.33 693.16 143.66"><title>Sony (Adopter) logo</title><g fill="#102d5d" fill-opacity="1" fill-rule="nonzero" stroke="none" transform="matrix(1.33333 0 0 -1.33333 0 117.373) scale(.1)"><path d="M1781.28 0c-181.12 0-349.24 54.3359-461.47 155.039-84.8 76.094-125.54 179.492-125.54 285.875 0 105.137 42.5 209.207 125.54 284.902 104.18 94.981 288.23 154.473 461.47 154.473 191.72 0 345.18-48.293 462.49-154.726 83.47-75.754 123.84-179.375 123.84-284.649 0-102.047-42.85-210.719-123.84-285.875C2134.54 53.6719 1962.89 0 1781.28 0v116.113c96.15 0 185.31 33.203 247.58 95.137 61.86 61.543 90.68 137.227 90.68 229.664 0 88.613-31.09 171.406-90.68 230.137-61.46 60.547-152.74 94.597-247.58 94.597-95.12 0-186.5-33.718-247.98-94.597-59.26-58.692-90.42-141.778-90.42-230.137 0-88.062 31.49-171.031 90.42-229.664 61.51-61.211 152.58-95.137 247.98-95.137V0"/><path d="M457.453 879.867c-96.875 0-206.973-18.133-300.469-59.89C70.6758 781.441 0 719.176 0 615.914c-.04688-92.988 59.0625-147.441 57.4531-145.957 25.1563-23.144 65.6249-62.555 171.4259-85.719 47.293-10.332 148.398-26.191 249.101-36.758 99.903-10.527 198.29-20.527 238.321-30.683 31.824-8.106 85.332-19.141 85.332-79.102 0-59.746-56.328-77.988-66.125-81.914-9.793-3.906-77.371-34.883-198.817-34.883-89.687 0-197.48 26.973-236.796 41.016-45.274 16.133-92.817 37.461-137.129 91.582-11.028 13.457-28.411 50.352-28.411 86.914H24.4063V32.3633H146.613v41.6406c0 4.7266 5.907 24.2383 26.426 14.9414 25.527-11.6015 100.438-41.4258 178.77-57.793C416.035 17.7539 457.453 8.125 537.297 8.125c130.273 0 200.273 21.1914 248.652 35.0195 45.586 13.0274 101.883 36.4844 147.664 72.9685 24.758 19.727 79.097 70.313 79.097 162.11 0 88.086-47.269 142.773-63.909 159.41-22.656 22.664-50.352 40.273-79.199 53.808-25.118 11.817-64.786 26.016-97.231 33.965-62.984 15.469-205.387 34.532-273.512 41.649-71.398 7.472-195.293 17.746-244.765 33.058-15.012 4.649-45.547 19.219-45.547 54.696 0 25.254 13.953 46.671 41.601 63.976 43.868 27.469 132.481 44.59 224.883 44.59 109.199.379 201.699-24.602 260.535-50.879 20.032-8.926 43.411-21.789 62.024-36.973 20.957-17.109 50.469-52.636 61.082-102.226h98.699v268.125H847.18v-31.133c0-10.098-10.383-23.164-30.012-12.336-49.336 25.84-188.789 81.672-359.715 81.914"/><path d="M2872.45 831.137l537.58-485.121-5.51 326.617c-.57 42.84-8.46 60.722-54.77 60.722h-101.09v97.704h459.67v-97.704h-98.64c-47.22 0-50.19-15.128-50.8-60.722l8.34-624.1369h-157.42L2790.69 601.109l.1-392.164c.56-42.656 2.54-62.715 46.46-62.715h110.41V48.5352h-451.42V146.23h105.52c39.42 0 37.86 37.579 37.86 64.922V668.93c0 29.543-4.16 64.367-66.04 64.367h-85.61v97.84h384.48"/><path d="M4233.54 146.406c4.3 0 23.48.567 27.19 1.699 10.62 3.301 17.83 10.879 21.17 18.77 1.41 3.301 2.11 17.988 2.11 21.133 0 0 .06 149.277.06 154.433 0 3.711-.28 5.332-6.56 13.575-6.94 9.062-281.57 320.289-294.14 333.98-15.61 17.039-43.01 43.34-84.69 43.34h-95.49v97.762h539v-97.625h-64.98c-15 0-24.98-14.258-12.17-30.098 0 0 181.37-216.945 183.09-219.238 1.7-2.285 3.15-2.852 5.43-.715 2.27 2.148 185.9 217.941 187.34 219.66 8.73 10.457 2.86 30.254-15.99 30.254h-66.7v97.762h441.8v-97.762h-98.7c-35.82 0-50.39-6.602-77.32-37.07-12.32-13.926-289.88-330.758-297.44-339.352-3.97-4.492-3.59-10.762-3.59-14.473V188.066c0-3.125.7-17.812 2.1-21.113 3.32-7.93 10.55-15.488 21.18-18.769 3.71-1.153 22.63-1.719 26.93-1.719h100.96V48.7305h-536.25v97.7345l95.66-.059"/></g></svg>