<svg xmlns="http://www.w3.org/2000/svg" role="img" viewBox="-9.73 3.77 557.96 243.96"><title>Stripe (Member) logo</title><path d="M471.8 118.3c1.1-17.6 5.9-25.8 14.9-25.8 8.9 0 13.5 8.4 14.1 25.8h-29zm65.9 10.5c0-19.6-4.3-35.2-12.7-46.1-8.6-11.1-21.4-16.8-37.7-16.8-33.4 0-54.2 24.7-54.2 64.3 0 22.2 5.5 38.8 16.5 49.4 9.8 9.5 23.9 14.3 42.1 14.3 16.8 0 32.3-4 42.1-10.5l-4.3-26.9c-9.7 5.2-20.9 8.1-33.6 8.1-7.6 0-12.8-1.6-16.6-4.9-4.1-3.5-6.5-9.2-7.3-17.3h65.1c.3-1.9.6-10.8.6-13.6zm-157.2 26.6c-3.2 6-8.1 9.2-13.8 9.2-4 0-7.4-.8-10.6-2.4v-58.6c6.7-7 12.7-7.8 14.9-7.8 10 0 14.9 10.8 14.9 31.8 0 12.1-1.7 21.5-5.4 27.8zm32.7-76c-7-9-16.6-13.5-29-13.5-11.4 0-21.4 4.8-30.7 14.7l-2.1-12.4h-34.5v168.9l39.3-6.5V191c6 1.9 12.2 2.9 17.7 2.9 9.8 0 24.1-2.5 35.2-14.6 10.6-11.6 16-29.5 16-53.1-.1-20.9-4-36.7-11.9-46.8zM261.9 68.3h39.4v123.3h-39.4V68.3zm19.8-12.2c11.4 0 20.6-9.3 20.6-20.8 0-11.6-9.2-20.8-20.6-20.8-11.6 0-20.8 9.2-20.8 20.8.1 11.4 9.3 20.8 20.8 20.8zM245 66.6c-11.1 0-20 5.8-23.4 16.3l-2.4-14.6h-34.4v123.3h39.3v-80c4.9-6 11.9-8.2 21.4-8.2 2.1 0 4.3 0 7 .5V67.5c-2.8-.6-5.2-.9-7.5-.9zm-75.4 30.8l4.8-29.2h-25.1V32.9l-33.7 5.6-4.9 29.8-11.9 1.9-4.4 27.2h16.3v57.2c0 14.9 3.8 25.2 11.6 31.5 6.5 5.2 15.8 7.8 29 7.8 10.1 0 16.3-1.7 20.6-2.9v-30.9c-2.4.6-7.8 1.7-11.4 1.7-7.8 0-11.1-4-11.1-13V97.4h20.2zM57.1 114.7c-11.6-4.3-17.9-7.6-17.9-12.8 0-4.4 3.6-7 10.1-7 11.9 0 24.1 4.6 32.5 8.7l4.8-29.3c-6.7-3.2-20.3-8.4-39.1-8.4-13.3 0-24.4 3.5-32.3 10-8.3 6.8-12.6 16.6-12.6 28.5 0 21.5 13.1 30.7 34.5 38.5 13.8 4.9 18.4 8.4 18.4 13.8 0 5.2-4.4 8.2-12.5 8.2-10 0-26.5-4.9-37.2-11.2L1 183.3c9.2 5.2 26.3 10.6 44 10.6 14.1 0 25.8-3.3 33.7-9.7 8.9-7 13.5-17.3 13.5-30.6 0-22-13.4-31.2-35.1-38.9z"/></svg>