<svg xmlns="http://www.w3.org/2000/svg" role="img" viewBox="36.76 25.01 155.48 181.48"><title>Tern logo</title><style>svg {enable-background:new 0 0 232.4 245.2}</style><style>.st1{fill:#717074}</style><circle cx="119.2" cy="81.3" r="50.8" fill="#fff"/><path d="M119.2 134.2c-29.2 0-52.9-23.7-52.9-52.9S90 28.5 119.2 28.5 172 52.2 172 81.3s-23.7 52.9-52.8 52.9zm0-96C95.4 38.2 76 57.5 76 81.3s19.4 43.1 43.1 43.1 43.1-19.4 43.1-43.1-19.3-43.1-43-43.1z" class="st1"/><linearGradient id="SVGID_1_" x1="88.908" x2="234.932" y1="67.771" y2="67.771" gradientUnits="userSpaceOnUse"><stop offset="0" stop-color="#0194d3"/><stop offset="1" stop-color="#006a91"/></linearGradient><path fill="url(#SVGID_1_)" d="M88.9 64.8h60.4v6H88.9z"/><linearGradient id="SVGID_2_" x1="88.908" x2="234.932" y1="58.917" y2="58.917" gradientUnits="userSpaceOnUse"><stop offset="0" stop-color="#0194d3"/><stop offset="1" stop-color="#006a91"/></linearGradient><path fill="url(#SVGID_2_)" d="M88.9 55.9h60.4v6H88.9z"/><linearGradient id="SVGID_3_" x1="88.908" x2="234.932" y1="76.626" y2="76.626" gradientUnits="userSpaceOnUse"><stop offset="0" stop-color="#f08c21"/><stop offset="1" stop-color="#9e313a"/></linearGradient><path fill="url(#SVGID_3_)" d="M88.9 73.6h60.4v6H88.9z"/><linearGradient id="SVGID_4_" x1="88.908" x2="234.932" y1="85.481" y2="85.481" gradientUnits="userSpaceOnUse"><stop offset=".002" stop-color="#0194d3"/><stop offset="1" stop-color="#006a91"/></linearGradient><path fill="url(#SVGID_4_)" d="M88.9 82.5h60.4v6H88.9z"/><linearGradient id="SVGID_5_" x1="88.908" x2="234.932" y1="94.335" y2="94.335" gradientUnits="userSpaceOnUse"><stop offset="0" stop-color="#0194d3"/><stop offset="1" stop-color="#006a91"/></linearGradient><path fill="url(#SVGID_5_)" d="M88.9 91.3h60.4v6H88.9z"/><linearGradient id="SVGID_6_" x1="88.908" x2="234.932" y1="103.19" y2="103.19" gradientUnits="userSpaceOnUse"><stop offset="0" stop-color="#0194d3"/><stop offset="1" stop-color="#006a91"/></linearGradient><path fill="url(#SVGID_6_)" d="M88.9 100.2h60.4v6H88.9z"/><g><path d="M54.3 166.3H40.4v-4.4h32.4v4.4H59v36.8h-4.7v-36.8zm28.5 0v13.6h22.4v4.4H82.8v14.3h24.8v4.4H78.1v-41.2h29.6v4.4H82.8zm62.3 15c-1.1 1.9-2.6 3.4-4.6 4.6s-4.2 1.9-6.6 2.2l10.5 14.9H139l-10.4-14.8h-9.1V203h-4.7v-41.2h16.7c2.8 0 5.4.6 7.7 1.7s4.1 2.7 5.5 4.7c1.3 2 2 4.3 2 6.8 0 2.4-.5 4.5-1.6 6.3zm-25.6 2.6h11.2c3.4 0 6.1-.8 8.2-2.3 2.1-1.6 3.1-3.7 3.1-6.4s-1-4.9-3.1-6.4c-2.1-1.6-4.8-2.3-8.2-2.3h-11.2v17.4zm34.3-22h4.7l25.6 33.5v-33.5h4.7v41.2h-4.7l-25.6-33.5v33.5h-4.7v-41.2z" class="st1"/></g></svg>