<svg xmlns="http://www.w3.org/2000/svg" role="img" viewBox="119.09 53.09 723.32 121.82"><title>TomTom (Adopter) logo</title><defs><radialGradient id="a" cx="0" cy="0" r="1" fx="0" fy="0" gradientTransform="matrix(-58.24504 -46.08144 -46.55992 60.1645 610.132 112.018)" gradientUnits="userSpaceOnUse" spreadMethod="pad"><stop offset="0" stop-color="#fff" stop-opacity="1"/><stop offset=".678" stop-color="#fff" stop-opacity="1"/><stop offset="1" stop-color="#bebebe" stop-opacity="1"/><stop offset="1" stop-color="#bebebe" stop-opacity="1"/></radialGradient><clipPath id="b" clipPathUnits="userSpaceOnUse"><path d="M0 172.342h695.481V0H0z"/></clipPath></defs><g transform="matrix(1.33333 0 0 -1.33333 0 229.79)"><path fill="#fff" fill-opacity="1" fill-rule="nonzero" stroke="none" d="M0 0h695.242v172.342H0z"/><path fill="url(#a)" stroke="none" d="M574.294 124.069c-20.37-4.226-33.412-23.805-29.075-43.644 4.337-19.842 24.437-32.548 44.808-28.322 20.369 4.224 33.414 23.803 29.076 43.645-3.775 17.268-19.492 29.131-36.935 29.131-2.598 0-5.234-.263-7.874-.81"/><g clip-path="url(#b)"><path fill="#000" fill-opacity="1" fill-rule="nonzero" stroke="none" d="M153.29 114.895h-50.169c-2.073 0-3.107-3.603-3.107-7.204 0-3.6 1.034-7.2 3.107-7.2h17.69V60.474c0-2.02 3.697-3.026 7.395-3.026 3.697 0 7.395 1.006 7.395 3.026v40.017h17.689c2.071 0 3.107 3.6 3.107 7.2 0 3.601-1.036 7.204-3.107 7.204"/><path fill="#000" fill-opacity="1" fill-rule="nonzero" stroke="none" d="M188.776 71.85c8.263 0 14.962 6.526 14.962 14.574 0 8.051-6.699 14.576-14.962 14.576-8.266 0-14.965-6.525-14.965-14.576 0-8.048 6.699-14.574 14.965-14.574m-29.754 14.574c0 16.008 13.32 28.981 29.754 28.981 16.431 0 29.752-12.973 29.752-28.981 0-16.003-13.321-28.977-29.752-28.977-16.434 0-29.754 12.974-29.754 28.977"/><path fill="#000" fill-opacity="1" fill-rule="nonzero" stroke="none" d="M314.164 90.696c0 13.646-11.356 24.709-25.368 24.709-7.024 0-13.379-2.786-17.973-7.276-4.594 4.492-10.949 7.276-17.974 7.276-14.012 0-25.37-11.063-25.37-24.709l-.001-30.223c0-2.02 3.699-3.026 7.397-3.026 3.696 0 7.392 1.006 7.392 3.026v30.223c0 5.691 4.738 10.304 10.582 10.304 5.842 0 10.58-4.613 10.58-10.304l-.001-30.223c0-2.02 3.698-3.026 7.392-3.026 3.698 0 7.394 1.006 7.394 3.026v30.223c0 5.691 4.74 10.304 10.582 10.304 5.844 0 10.58-4.613 10.58-10.304V60.473c0-2.02 3.697-3.026 7.394-3.026s7.394 1.006 7.394 3.026z"/><path fill="#000" fill-opacity="1" fill-rule="nonzero" stroke="none" d="M533.001 90.696c0 13.646-11.356 24.709-25.369 24.709-7.025 0-13.377-2.786-17.972-7.276-4.593 4.492-10.95 7.276-17.975 7.276-14.009 0-25.37-11.063-25.37-24.709V60.473c0-2.02 3.699-3.026 7.395-3.026 3.697 0 7.394 1.006 7.394 3.026v30.223c0 5.691 4.737 10.304 10.581 10.304 5.843 0 10.58-4.613 10.58-10.304V60.473c0-2.02 3.699-3.026 7.395-3.026 3.696 0 7.395 1.006 7.395 3.026v30.223c0 5.691 4.737 10.304 10.577 10.304 5.846 0 10.582-4.613 10.582-10.304V60.473c0-2.02 3.697-3.026 7.393-3.026 3.697 0 7.394 1.006 7.394 3.026z"/><path fill="#000" fill-opacity="1" fill-rule="nonzero" stroke="none" d="M372.184 114.895h-50.171c-2.07 0-3.106-3.603-3.106-7.204 0-3.6 1.036-7.2 3.106-7.2h17.691V60.474c0-2.02 3.697-3.026 7.394-3.026 3.696 0 7.393 1.006 7.393 3.026v40.017h17.693c2.068 0 3.106 3.6 3.106 7.2 0 3.601-1.038 7.204-3.106 7.204"/><path fill="#000" fill-opacity="1" fill-rule="nonzero" stroke="none" d="M407.614 71.85c8.263 0 14.965 6.526 14.965 14.574 0 8.051-6.702 14.576-14.965 14.576-8.268 0-14.962-6.525-14.962-14.576 0-8.048 6.694-14.574 14.962-14.574M377.86 86.424c0 16.008 13.323 28.981 29.754 28.981 16.43 0 29.751-12.973 29.751-28.981 0-16.003-13.321-28.977-29.751-28.977-16.431 0-29.754 12.974-29.754 28.977"/><path fill="#df1b12" fill-opacity="1" fill-rule="nonzero" stroke="none" d="M592.234 71.837c-.997.773-2.926 1.12-4.782-.449l-.177-.156c-2.601-2.327-6.955-6.219-10.428-5.427-2.589.59-2.901 2.865-2.742 5.117.029.588.1 1.173.186 1.724l.007.048-.004-.036c.069.447.148.873.224 1.255.335 1.651 3.087 13.469 4.516 19.539.211.878.415 1.988.297 2.826-.181 1.299-1.239 1.745-2.682 2.1-1.719.364-4.012-.295-4.639-2.205-.682-2.226-1.446-5.272-3.319-14.422-.104-.432-.21-.937-.367-1.406l.026.07c-.318-.974-.637-1.954-1.991-1.695-1.232.342-1.31 1.704-1.365 2.699l-.012.206-.088 2.28c-.179 3.443-.176 7.075.009 11.103l.133 2.368.184 3.889c.046 1.083-.077 1.636-.646 2.106-.537.442-1.409.539-2.475.355-.854-.156-1.687-.501-2.273-1.143-.539-.632-.762-1.432-.84-2.237-.19-1.983-.332-3.971-.429-5.961-.188-3.983-.201-7.971-.053-11.957.011-.291.019-.557.019-.806l.001.048v-.088c.026-2.003-.267-2.683-1.39-2.74-1.234-.037-1.595 1.062-1.817 1.943l-.145.585c-.482 2.335-.897 4.683-1.236 6.976l-.235 1.388c-.404 2.372-.67 3.939-.919 6.045-.058.407-.183 1.161-.753 1.412-.287.126-.81.245-1.694-.226-2.229-1.218-2.028-3.571-2.028-3.571.045-1.796.194-3.932.404-5.715.492-4.145 1.01-6.847 1.749-10.172.021-.102.043-.207.061-.316.18-.964.142-1.658-.283-1.967-.247-.176-.608-.213-.97-.092-.718.241-1.379 1.479-1.653 2.089l-.064.137c-1.075 2.485-1.926 5.268-2.708 8.011l-.057.191s-.161.541-.615.628c-.414.079-.851.02-1.538-.761-.958-1.166-.185-4.016.138-5.626 1.663-8.254 8.447-21.158 20.982-26.041 9.662-3.764 15.662 1.021 27.821 11.412.984.841 2.113 2.225 2.411 3.542.123.64.028 1.128-.485 1.832-.407.553-.862.951-1.266 1.291"/><path fill="#df1b12" fill-opacity="1" fill-rule="nonzero" stroke="none" d="M619.791 101.26c-3.729 10.785-10.072 15.588-11.151 16.411-.38.29-2.443 1.903-3.641 2.186-.402.096-.602.146-1.021.155l-.098-.001c-.161-.003-.35-.02-.494-.094-.181-.094-.205-.26-.198-.441.023-.413.581-1.093 1.419-1.885 1.759-1.664 4.364-4.417 5.256-5.641.541-.742.819-1.689-.04-2.195-.189-.098-.553-.234-1.105.055-.28.142-.637.399-1.11.848-2.646 2.514-8.802 7.679-12.569 10.122-1.716 1.112-3.168 1.253-4.57.97 0 0-.865-.2-1.124-.809-.26-.609.42-1.251.42-1.251 1.654-1.432 9.736-8.343 11.116-9.866 1.306-1.44 1.329-2.224.821-2.729-.731-.727-1.885-.043-2.203.153l.087-.046c-.275.161-.586.376-.946.661-3.94 3.118-12.743 8.628-14.8 9.63-2.257 1.099-3.07 1.453-5.084.395 0 0-1.311-.661-1.403-1.677-.071-.779.343-1.354 1.116-1.864 8.549-5.64 10.392-6.583 17.175-11.581.521-.384 1.724-1.465.639-2.521-.333-.323-.925-.325-1.364-.229-.732.191-1.383.511-2.033.89-3.719 2.166-10.191 5.427-13.608 6.703-2.359.879-3.814-.018-4.712-1.17-.679-.929-.866-2.032-.692-2.741.218-.884 1.124-1.442 1.735-1.792 4.807-2.723 8.521-4.321 13.247-7.171 1.496-.885 1.747-1.006 3.204-1.951 1.667-1.09 4.228-2.672 4.852-4.7.143-.355.229-.971.224-1.344-.013-.933-.284-1.853-1.593-2.721-2.31-1.533-6.424-1.083-10.029-.847-.762.049-2.07.138-2.856.141-1.881.007-2.888-.451-3.458-1.308-.51-.772-.557-2.113-.557-2.777 0-.063.019-.377.06-.674.058-.421.203-.674.331-.851.849-1.054 2.519-1.385 4.403-1.597 3.357-.19 6.892-.253 10.985-.331 9.581-.183 20.449.392 24.71 6.065 3.072 4.091 2.869 13.148.659 19.42"/></g></g></svg>