<svg xmlns="http://www.w3.org/2000/svg" role="img" viewBox="284.33 508.33 710.84 273.34"><title>Uber (Member) logo</title><style>svg {isolation:isolate}</style><defs><clipPath id="a"><path d="M0 0h1280v1280.001H0z"/></clipPath></defs><g clip-path="url(#a)"><path fill="#8EDBF8" d="M463.679 600.251c-5.712-10.903-17.924-12.338-37.896-14.47-11.039-1.182-21.142 1.983-28.482.744-10.837 12.095-7.585 23.207-6.278 34.787.336 2.981 1.046 5.568 2.061 7.835 4.659 2.828 8.755 6.806 12.135 11.718 14.558 7.015 36.449 6.183 47.606 15.942 8.703-4.427 22.384-30.394 10.854-56.556z"/><path fill="#F36418" d="M411.344 615.295c1.248 11.064 11.225 19.018 22.28 17.768 11.063-1.244 19.015-11.223 17.772-22.286-1.253-11.053-11.225-19.01-22.284-17.761-11.063 1.243-19.017 11.223-17.768 22.279z"/><path fill="#C02124" d="M433.529 632.24c-10.58 1.195-20.168-6.447-21.364-17.039-1.189-10.586 6.455-20.168 17.035-21.36 10.587-1.196 20.179 6.446 21.371 17.035 1.192 10.585-6.455 20.169-17.042 21.364zm-4.673-41.472c-12.279 1.384-21.144 12.503-19.757 24.781 1.38 12.286 12.498 21.144 24.781 19.762 12.283-1.39 21.144-12.504 19.76-24.784-1.388-12.278-12.501-21.144-24.784-19.759z"/><path fill="#F9DE0C" d="M417.336 614.617c.872 7.747 7.864 13.328 15.612 12.456 7.753-.877 13.324-7.872 12.447-15.617-.867-7.752-7.86-13.323-15.607-12.451-7.751.872-13.328 7.867-12.452 15.612z"/><path fill="#231F20" d="M424.107 613.856c.45 4.012 4.072 6.895 8.082 6.447 4.008-.451 6.894-4.072 6.439-8.083-.449-4.013-4.065-6.903-8.077-6.451-4.014.454-6.898 4.076-6.444 8.087z"/><path fill="#FFF" d="M422.557 610.491c.167 1.477 1.504 2.537 2.98 2.369 1.472-.16 2.538-1.493 2.374-2.967-.166-1.478-1.508-2.54-2.976-2.369-1.476.16-2.539 1.487-2.378 2.967zm3.104 5.065c.076.645.655 1.113 1.304 1.04.642-.072 1.11-.655 1.034-1.299-.07-.652-.655-1.116-1.298-1.041-.648.073-1.113.659-1.04 1.3z"/><path fill="#8EDBF8" d="M464.725 683.5c.426-12.229-3.22-22.828-5.038-27.559-1.395 2.036-3.454 3.866-6.463 5.49-4.671-3.7-12.349-8.458-21.852-10.64 13.899 13.236 13.543 35.405 7.179 56.473-7.184 23.773-25.37 39.541-42.719 50.1 44.737-8.896 67.603-37.148 68.893-73.864"/><path fill="#1C2D51" d="M463.679 600.251c-12.988-30.015-51.866-33.364-69.098-14.218-8.606 9.563-11.477 26.978-7.286 39.928l4.092 2.216c6.364 3.384 11.762 8.859 15.84 15.876 9.341 3.347 14.409 3.524 21.59 8.855-13.138-16.295-14.798-13.243-20.042-20.636-11.984-16.913-5.338-35.699 15.224-37.287 11.702-.901 25.784 15.158 32.744 28.894 6.454-6.628-1.388-15.82 6.936-23.628"/><path fill="#1C2D51" d="M448.129 601.973c4.968 1.26 19.972-3.054 13.728-16.461 11.922 14.079 8.99 26.564-.396 33.337 3.931 5.76 2.163 20.736-2.764 25.722-.554-8.64-3.14-19.28-14.34-27.918-5.366-4.134-12.281-8.5-18.981-12.88-15.384-10.077-31.645-25.258-24.225-42.77.652 15.741 32.142 37.205 46.978 40.97m-36.836 33.48c-2.86-2.381-10.434-3-14.585-3.782 7.132 5.62 12.644 14.18 15.808 24.702 4.161 13.874 3.824 29.618-.989 45.535-5.467 18.099-17.57 33.741-35.978 46.493l-2.544 1.767c-.852 5.861-2.894 11.78-6.729 17.915 21.237-9.311 59.44-25.952 68.731-61.888 9.245-35.768.194-50.823-23.714-70.742"/><path fill="#1C2D51" d="M364.985 738.191s-.546-.239-1.604-.7c-.53-.228-1.186-.516-1.965-.852-.781-.34-1.693-.718-2.685-1.247-1-.509-2.122-1.079-3.355-1.705-1.249-.619-2.517-1.42-3.944-2.222-.705-.416-1.459-.817-2.193-1.289-.742-.48-1.506-.973-2.291-1.485-.784-.522-1.603-1.042-2.42-1.61-.805-.594-1.64-1.202-2.488-1.83-3.447-2.47-6.988-5.566-10.737-9.083-.899-.919-1.823-1.853-2.756-2.807-.47-.482-.936-.968-1.415-1.458-.449-.516-.908-1.032-1.359-1.556-.912-1.054-1.857-2.116-2.781-3.226-.892-1.138-1.795-2.302-2.713-3.48-3.582-4.786-7.055-10.181-10.126-16.214-3.052-6.06-5.661-12.655-7.769-19.922-.241-.861-.481-1.724-.721-2.589-.118-.444-.252-.852-.356-1.327l-.31-1.422c-.21-.962-.418-1.918-.634-2.886-.099-.477-.212-.969-.3-1.449l-.242-1.441c-.293-1.927-.692-3.864-.876-5.848-.213-1.979-.496-3.975-.581-6.003-.569-8.097-.215-16.564 1.097-25.148 1.275-8.593 3.776-17.244 7.234-25.725 1.684-4.262 3.774-8.408 6.018-12.522 2.363-4.045 4.839-8.096 7.714-11.918 2.798-3.88 5.926-7.571 9.256-11.124 1.717-1.718 3.384-3.515 5.226-5.135.907-.828 1.806-1.668 2.724-2.487.946-.789 1.895-1.577 2.844-2.368 7.608-6.321 16.258-11.581 25.458-15.773 1.137-.56 2.332-.984 3.493-1.488 1.177-.467 2.333-.993 3.532-1.409 2.399-.828 4.772-1.754 7.229-2.428l1.832-.546.914-.27.458-.136.234-.064c-.124.021.422-.116.442-.123l3.442-.832 1.72-.416c.597-.131 1.286-.248 1.93-.375l3.919-.721c5.107-.759 10.195-1.348 15.349-1.445 5.142-.202 10.299.052 15.427.538 20.505 2.154 40.316 9.883 56.637 21.814 16.362 11.892 29.187 27.92 37.078 45.362.969 2.191 1.946 4.366 2.749 6.594.415 1.112.857 2.209 1.244 3.321.356 1.121.721 2.24 1.084 3.359.772 2.213 1.291 4.488 1.913 6.72l.219.841.101.397.038.2.088.399.329 1.584c.212 1.056.439 2.105.655 3.156.372 2.293.786 4.668 1.069 6.932.12 1.125.237 2.245.353 3.365l.174 1.676.102 1.676c.119 2.231.275 4.446.243 6.652v3.296c-.053 1.091-.108 2.18-.159 3.266-.476 8.672-1.868 17.034-4.088 24.84-2.254 7.802-5.208 15.077-8.7 21.689-6.99 13.231-15.876 23.816-24.896 31.665-.561.49-1.104.999-1.669 1.466-.575.461-1.144.918-1.701 1.369-1.132.901-2.204 1.824-3.358 2.624-1.122.819-2.225 1.623-3.31 2.409-1.124.731-2.224 1.45-3.299 2.147-1.068.719-2.155 1.355-3.228 1.965-1.065.614-2.092 1.232-3.119 1.795-1.046.539-2.068 1.063-3.064 1.569-.496.255-.985.506-1.468.752-.489.235-.989.447-1.469.666-1.939.853-3.741 1.717-5.512 2.357-1.759.671-3.389 1.329-4.959 1.797-1.56.492-2.978.994-4.316 1.363-1.334.355-2.538.683-3.626.971-1.079.312-2.054.506-2.891.673-.832.171-1.537.313-2.104.431-1.128.23-1.709.348-1.709.348s.553-.211 1.63-.616c.544-.204 1.212-.458 2.006-.758.793-.302 1.72-.622 2.736-1.074 4.12-1.651 10.024-4.443 16.996-8.735.433-.268.881-.531 1.321-.812.435-.295.873-.596 1.323-.901.888-.596 1.802-1.215 2.732-1.847.924-.652 1.833-1.36 2.778-2.059.943-.696 1.904-1.416 2.836-2.216 3.831-3.041 7.69-6.666 11.511-10.765 3.809-4.117 7.581-8.737 10.987-13.973 3.428-5.211 6.614-10.946 9.268-17.196 5.366-12.452 8.716-26.968 8.566-42.286-.009-.954-.025-1.913-.034-2.873-.054-.961-.115-1.921-.171-2.891-.061-1.93-.304-3.865-.512-5.809l-.155-1.46-.232-1.452c-.15-.975-.3-1.948-.457-2.925-.343-1.926-.763-3.735-1.159-5.658-.272-1.037-.546-2.077-.818-3.121l-.411-1.565-.101-.391-.048-.195c.073.314-.016-.016-.014.007l-.226-.72c-.626-1.915-1.146-3.873-1.896-5.764-.35-.952-.703-1.905-1.056-2.867-.372-.948-.795-1.877-1.188-2.82-.764-1.898-1.692-3.736-2.595-5.584-.433-.937-.936-1.837-1.441-2.738-.5-.906-.996-1.814-1.5-2.72-.544-.882-1.095-1.767-1.636-2.651-.543-.891-1.071-1.785-1.679-2.639-.593-.858-1.176-1.724-1.767-2.589-.576-.872-1.252-1.677-1.872-2.523-1.228-1.706-2.605-3.301-3.962-4.922-.655-.827-1.404-1.578-2.116-2.36-.728-.771-1.41-1.579-2.17-2.323-1.526-1.475-2.988-3.019-4.617-4.403-3.108-2.917-6.528-5.52-10.004-8.044-14.097-9.825-30.86-16.317-48.192-18.05-4.32-.426-8.673-.678-13.023-.523-4.338.045-8.689.537-12.946 1.14l-3.058.541c-.52.098-1 .16-1.556.284l-1.724.395-3.452.775-2.912.818c-2.105.527-4.12 1.291-6.173 1.952-1.027.33-2.013.768-3.017 1.148-1.002.408-2.023.743-2.988 1.208-1.954.898-3.934 1.72-5.814 2.742-.949.496-1.912.954-2.841 1.477l-2.781 1.596c-.936.504-1.832 1.079-2.72 1.655l-2.694 1.713-2.588 1.837-1.3.918-1.242.98c-6.684 5.16-12.68 11.081-17.8 17.55-2.622 3.194-4.883 6.612-7.086 10.035-2.065 3.493-4.07 7-5.733 10.633-3.403 7.226-5.915 14.704-7.527 22.183-1.638 7.477-2.365 14.952-2.388 22.204-.061 1.813.067 3.609.124 5.396.028 1.789.268 3.544.404 5.3l.119 1.312c.047.427.117.841.171 1.264.122.836.236 1.679.353 2.508l.173 1.249c.06.42.164.88.242 1.316.17.886.337 1.77.506 2.646l.246 1.308.066.328c.042.166-.018-.048 0 .03l.039.154.151.61c.2.818.396 1.631.592 2.44.2.812.397 1.614.589 2.414.241.789.479 1.573.716 2.354.887 3.144 2.033 6.12 3.113 9.048 2.284 5.812 5.071 11.075 7.92 15.907.74 1.188 1.474 2.367 2.186 3.519.762 1.125 1.542 2.21 2.289 3.294.383.538.759 1.072 1.135 1.6.393.51.79 1.015 1.177 1.518.784 1.004 1.549 1.986 2.299 2.952 3.16 3.738 6.213 7.082 9.201 9.881 5.949 5.629 11.165 9.563 14.841 12.024 1.827 1.271 3.314 2.136 4.278 2.775.968.616 1.47.94 1.47.94"/><path fill="#1C2D51" d="M388.044 632.755c-9.593 6.001-17.252 13.368-21.475 25.516 4.387-2.4 9.658-3.975 15.458-4.446 1.425-2.69 4.25-4.534 7.502-4.534 4.682 0 8.495 3.81 8.495 8.493 0 4.681-3.813 8.491-8.495 8.491-3.497 0-6.506-2.128-7.802-5.155-7.73.823-14.24 4.089-17.862 8.555-.422 2.937-.705 6.082-.825 9.48-.177 2.425-.175 4.968-.035 7.582 6.043-4.666 14.024-7.798 22.923-8.553 1.415-2.739 4.264-4.617 7.551-4.617 4.678 0 8.485 3.806 8.485 8.488 0 4.684-3.807 8.493-8.485 8.493-3.474 0-6.462-2.096-7.775-5.088-9.085.952-16.908 4.769-21.784 10.128.724 4.965 1.748 10.003 2.836 14.835 2.808-2.746 6.429-4.678 10.483-5.356 1.025-3.535 4.29-6.136 8.156-6.136 4.682 0 8.486 3.812 8.486 8.493 0 4.68-3.804 8.489-8.486 8.489-2.916 0-5.49-1.474-7.022-3.717-4.298.733-7.829 3.681-9.429 7.589 1.543 6.518 2.844 12.187 3.1 16.136.249 2.551.347 5.09.24 7.631 14.252-9.877 27.653-23.635 33.601-43.305 9.526-31.522-1.037-58.554-17.841-67.492"/><path fill="#1C2D51" d="M389.669 707.424c0-2.359-1.918-4.279-4.274-4.279-2.363 0-4.282 1.92-4.282 4.279 0 2.357 1.919 4.275 4.282 4.275 2.356 0 4.274-1.918 4.274-4.275zm8.082-25.369c0-2.356-1.919-4.275-4.272-4.275-2.36 0-4.28 1.919-4.28 4.275 0 2.36 1.92 4.278 4.28 4.278 2.353 0 4.272-1.918 4.272-4.278zm-3.943-24.271c0-2.361-1.919-4.28-4.279-4.28-2.357 0-4.277 1.919-4.277 4.28 0 2.359 1.92 4.276 4.277 4.276 2.36 0 4.279-1.917 4.279-4.276zm296.759 61.015h-14.674c-7.213 0-13.992-4.739-16.477-11.514l-34.652-94.424h-9.585v106.087h-25.851V603.171c0-8.91 7.248-16.154 16.159-16.154h25.073c7.212 0 13.987 4.728 16.477 11.495l34.652 94.433h3.087l34.648-94.426c2.492-6.774 9.265-11.502 16.479-11.502h25.078c8.903 0 16.151 7.244 16.151 16.154v115.777h-25.848V612.861h-9.585l-34.655 94.424c-2.483 6.775-9.261 11.514-16.477 11.514m259.874-52.891h-82.032v-25.851h82.032c3.092 0 5.611-2.517 5.611-5.616v-15.966c0-3.096-2.519-5.614-5.611-5.614h-110.23c-3.094 0-5.614 2.518-5.614 5.614v15.966h-25.846v-15.966c0-17.35 14.112-31.458 31.46-31.458h110.23c17.348 0 31.459 14.108 31.459 31.458v15.966c0 17.351-14.111 31.467-31.459 31.467"/><path fill="#1C2D51" d="M950.441 718.948h-110.23c-17.348 0-31.46-14.113-31.46-31.459v-15.965h25.846v15.965c0 3.095 2.52 5.614 5.614 5.614h110.23c3.092 0 5.611-2.519 5.611-5.614v-15.965c0-3.099-2.519-5.616-5.611-5.616h-82.032v-25.851h82.032c17.348 0 31.459 14.119 31.459 31.467v15.965c0 17.346-14.111 31.459-31.459 31.459"/></g></svg>