<svg xmlns="http://www.w3.org/2000/svg" role="img" viewBox="-11.12 -11.12 578.24 121.74"><title>US Bank (Adopter) logo</title><path fill="#D62A43" d="M0 0v77.628L65.75 100l65.749-22.372V0H0"/><path fill="#FFF" d="M65.71 75.188H45.607v-6.946h-.206c-3.892 5.475-9.475 8.314-17.79 8.314-9.783 0-18.735-5.999-18.735-18.525v-37.47h20.841v28.63c0 6.319.73 10.733 6.839 10.733 3.579 0 8.314-1.788 8.314-10.522v-28.84h20.84v54.626m38.843-38.728c-.104-1.792-1.048-3.16-2.417-4.107-1.265-1.052-2.953-1.579-4.631-1.579-2.955 0-6.32.635-6.32 4.212 0 1.582 1.265 2.315 2.422 2.837 3.475 1.476 11.366 1.896 18.314 4.208 6.947 2.212 13.052 6.318 13.052 15.267 0 15.15-14.523 19.259-27.788 19.259-12.841 0-26.946-5.155-27.257-19.259h19.886c.108 1.894.95 3.471 2.532 4.836 1.049.95 3.054 1.583 5.574 1.583 2.738 0 7.052-1.049 7.052-4.214 0-3.155-1.789-4.102-11.473-5.786-15.89-2.734-22.31-7.785-22.31-17.149 0-13.789 14.842-17.376 25.787-17.376 11.788 0 25.997 3.273 26.516 17.269h-18.939"/><path fill="#00458D" d="M138.978.04h20.839v26.525h.213c3.155-4.631 8.732-7.373 14.942-7.373 18.313 0 23.26 15.583 23.26 28.422 0 13.684-7.471 28.942-22.94 28.942-10.211 0-13.374-3.895-16-7.368h-.213v5.999h-20.101V.04m29.258 34.313c-7.473 0-9.158 7.052-9.158 13.473 0 6.525 1.686 13.574 9.158 13.574 7.474 0 9.156-7.049 9.156-13.574.001-6.422-1.682-13.473-9.156-13.473zm88.091 28.631c0 4.101.205 8.735 2.527 12.204h-21.26c-.524-1.471-.846-3.684-.739-5.159h-.208c-4.42 5.051-10.838 6.528-17.571 6.528-10.522 0-19.255-5.052-19.255-16.521 0-17.262 20.202-16.634 30.826-18.628 2.843-.526 5.685-1.372 5.685-4.84 0-3.685-3.471-5.052-6.839-5.052-6.416 0-7.681 3.26-7.788 5.57h-19.364c.634-15.359 15.159-17.89 28.097-17.89 26.095 0 25.89 10.842 25.89 21.367v22.421m-19.996-12.315c-2.53 1.257-5.367 1.996-8.203 2.631-4.632 1.053-7.052 2.21-7.052 5.891 0 2.526 2.733 5.05 6.522 5.05 4.735 0 8.418-2.842 8.733-8.525v-5.047zm27.46-30.105h20.095v6.95h.214c3.895-5.478 9.469-8.319 17.787-8.319 9.784 0 18.735 6 18.735 18.524V75.19h-20.836V46.56c0-6.31-.742-10.734-6.84-10.734-3.579 0-8.321 1.789-8.321 10.522V75.19h-20.833V20.564m98.3 20.737c-.202-2.216-.937-3.997-2.313-5.155-1.258-1.16-3.055-1.793-5.259-1.793-8.003 0-9.154 6.948-9.154 13.578 0 6.631 1.151 13.469 9.154 13.469 4.521 0 7.683-3.683 8.102-7.999h19.895c-2.001 14.842-13.681 23.156-28.424 23.156-16.413 0-29.566-11.372-29.566-28.626 0-17.263 13.153-28.739 29.566-28.739 14.32 0 26.524 7.056 27.792 22.109h-19.793m53.462 35.256c-20.521 0-29.781-13.577-29.781-28.731 0-15.161 9.26-28.633 29.781-28.633 20.522 0 29.79 13.472 29.79 28.633 0 15.154-9.268 28.731-29.79 28.731m0-42.204c-7.891 0-8.941 7.679-8.941 13.473 0 5.791 1.051 13.574 8.941 13.574 7.899 0 8.952-7.783 8.952-13.574 0-5.795-1.053-13.473-8.952-13.473zm34.412-13.789h19.998V29.3h.21c3.368-6.522 7.788-10.105 15.367-10.105 2.107 0 4.108.318 6.104.845v18.417c-2.097-.738-3.997-1.369-8.213-1.369-8.203 0-12.626 4.839-12.626 16.525V75.19h-20.841V20.564m46.931 0h20.105v6h.211c2.635-3.47 5.787-7.371 15.996-7.371 15.475 0 22.949 15.262 22.949 28.946 0 12.843-4.948 28.417-23.261 28.417-6.213 0-11.781-2.732-14.946-7.365h-.218v23.676h-20.837V20.564m29.259 40.835c7.482 0 9.168-7.049 9.168-13.471 0-6.521-1.686-13.576-9.168-13.576-7.471 0-9.152 7.055-9.152 13.576 0 6.423 1.682 13.471 9.152 13.471z"/></svg>