<svg xmlns="http://www.w3.org/2000/svg" role="img" xmlns:xlink="http://www.w3.org/1999/xlink" viewBox="-6.48 -4.98 622.96 502.96"><title>Vigiles logo</title><style>svg {enable-background:new 0 0 612 493.3}</style><style>.st0{fill:#005a85}.st2{fill:#81bd41}</style><path d="M144.6 25.4v117c0 57.5 26 111.9 70.9 147.9l94.6 74.9 94.6-74.9c44.8-36 70.9-90.4 70.9-147.9v-117h-331z" class="st0" id="SHEILD_blue_1_"/><g id="HELMET_2_"><defs><path id="SVGID_1_" d="M144.6 25.4v117c0 57.5 26 111.9 70.9 147.9l94.6 74.9 94.6-74.9c44.8-36 70.9-90.4 70.9-147.9v-117h-331z"/></defs><clipPath id="SVGID_2_"><use overflow="visible" xlink:href="#SVGID_1_"/></clipPath><g clip-path="url(#SVGID_2_)"><path d="M310.1 250.2l-12.5-11.7 1.1-50.8c-25-.5-48.5-1.6-65.5-3.6 6.7 45.4 28.4 47.9 34.6 57.1 6.2 9.2-11.1 46.4 15.7 69.8 6.3 4.4 11 10.8 13.2 18.2 1.4 6.3 0 12.9-3.9 18.1-8.6 9.4-23.8 8-36.9-2.4l-.6-.8c-.6-.3-1.1-.7-1.6-1.1-5.4-4.8-10.1-10.3-14.2-16.3-16.6-23.1-25-63-29.3-95.2h-25.3c-7.6 0-4.4-4.7-4.4-4.7 9.3-7.6 18.2-15.7 26.6-24.3 2.8-4.9 3.4-15-1.7-19.3-3.9-3.4-26.7-18.2-26.7-18.2s-3.7-3.7 4.7-3.8h14.8c.8-7.8 1.5-13.5 1.5-13.5H210c1.4-47.1 35.2-87 81.5-96V46c0-1.9 1.6-3.4 3.5-3.4h30.6c1.9 0 3.4 1.5 3.5 3.4v5.7c46.4 8.8 80.4 48.7 81.8 95.8h10.2s.7 5.7 1.5 13.5h14.9c8.4 0 4.6 3.8 4.6 3.8s-22.7 14.8-26.7 18.2c-4.5 5.5-5.1 13.1-1.7 19.3 8.4 8.6 17.2 16.7 26.5 24.3 0 0 3.5 4.6-4.4 4.7-7.9.1-16.4 0-25 0-4.2 32.1-12.5 72.1-29.3 95.2-4 6-8.8 11.5-14.2 16.3-.5.4-1 .8-1.5 1.1l-.9.8c-13 10.4-28.3 11.7-36.8 2.4-4-5.2-5.5-11.8-4.2-18.2 2.2-7.4 6.9-13.8 13.2-18.2 26.8-23.3 9.6-60.6 15.7-69.8 6.1-9.2 27.9-11.4 34.6-56.8-17 2-40.7 3.1-65.5 3.6l1.2 50.8-12.5 11.7h-.5zm27 83.2c0 4.3 3.5 7.9 7.9 7.9 4.3 0 7.9-3.5 7.9-7.9 0-4.3-3.5-7.9-7.9-7.9-4.3 0-7.8 3.4-7.9 7.7v.2zm31.8-46.6c-4.3 0-7.9 3.5-7.9 7.9s3.5 7.9 7.9 7.9c4.3 0 7.9-3.5 7.9-7.9s-3.5-7.9-7.9-7.9zm-4.8-35.8c0 4.3 3.5 7.9 7.9 7.9 4.3 0 7.9-3.5 7.9-7.9 0-4.3-3.5-7.9-7.9-7.9-4.3.1-7.8 3.6-7.9 7.9zm-120.3 43.7c0 4.3 3.5 7.9 7.9 7.9s7.9-3.5 7.9-7.9c0-4.3-3.5-7.9-7.9-7.9-4.3.1-7.8 3.6-7.9 7.9zm4.8-51.5c-4.4 0-8 3.5-8 7.9s3.5 8 7.9 8 8-3.5 8-7.9v-.1c0-4.4-3.5-7.9-7.9-7.9zm27.1 82.4c-4.3 0-7.9 3.5-7.9 7.9s3.5 7.9 7.9 7.9 7.9-3.5 7.9-7.9c.1-4.3-3.4-7.9-7.7-7.9h-.2z" class="st2"/></g></g><path fill="#fff" d="M310.1 382.4l-102.6-81.2c-47.6-38.2-75.3-96-75.3-157v-131H488v131.1c-.1 61.1-27.8 118.8-75.4 157l-102.5 81.1zm-165.5-357v117c0 57.5 26 111.9 70.9 147.9l94.6 74.9 94.6-74.9c44.8-36 70.9-90.4 70.9-147.9v-117h-331z" id="SHEILD_outline_1_"/><path d="M488 13.4v131.1c-.1 61-27.8 118.6-75.3 156.8l-102.6 81.2-102.6-81.2c-47.6-38.2-75.3-96-75.3-157V13.2H488m6.3-6.2H126v137.3c0 63.1 28.5 122.8 77.7 162.3l102.6 81.2 3.9 3.1 3.9-3.1 102.7-81.5c49-39.5 77.4-99.1 77.3-162L494.3 7z" class="st2" id="SHEILD_outline_positive_2_"/><path d="M67.8 472c8.5-13.8 28.1-49.8 31.4-57.2.7-1.5 1.3-3 1.3-3.9 0-.8-.4-1.9-1.9-2.4-1.8-.4-4-.4-5.6-.4-.9 0-1.6-.1-1.6-.6 0-.6.9-.8 3.2-.8 5.9 0 12.6.3 14.4.3.9 0 7.2-.3 11.4-.3 1.6 0 2.5.2 2.5.7 0 .5-.6.7-1.8.7-1 0-4.2 0-7 1.2-1.9.9-4.1 2.7-8.1 9.7-1.6 2.9-8.9 15.3-16.4 28-8.9 15.1-15.5 26.2-18.9 31.3-4.1 6.2-4.7 7.8-6.2 7.8-1.8 0-2.5-1.4-5.3-6.4l-35.9-63.2c-3.2-5.8-5.4-6.9-10.6-7.9-2.2-.4-4.7-.4-5.6-.4-.9 0-1.2-.3-1.2-.7 0-.6 1.5-.7 3.8-.7 7 0 15.4.3 17.1.3 1.5 0 8.1-.3 13.6-.3 2.6 0 4 .2 4 .7 0 .5-.4.7-1.5.7-1.6 0-4.2.1-5.6.5-1.6.5-1.9 1.3-1.9 2.1 0 1.3 1.8 4.5 4 8.6L67.8 472zm84.5-17.3c0 9.9 0 18.1.8 22.4.5 3 1.4 5.3 6 5.7 2.2.2 5.6.4 7 .4.9 0 1.2.3 1.2.6 0 .5-.8.8-2.5.8-8.5 0-18.3-.3-19-.3-.8 0-10.5.3-15.2.3-1.7 0-2.5-.2-2.5-.8 0-.3.3-.6 1.2-.6 1.4 0 3.2-.2 4.6-.4 3.1-.4 3.9-2.7 4.5-5.7.8-4.3.8-12.5.8-22.4v-18.2c0-16.1 0-19-.3-22.3-.3-3.5-1.9-5.3-5.3-5.8-1.7-.3-3.7-.4-4.8-.4-.6 0-1.2-.2-1.2-.6 0-.6.8-.8 2.5-.8 5.1 0 14.9.3 15.6.3.8 0 10.5-.3 15.2-.3 1.7 0 2.5.2 2.5.8 0 .4-.6.6-1.2.6-1.1 0-2 .1-3.9.3-4.2.5-5.4 2.3-5.7 5.9-.3 3.3-.3 6.2-.3 22.3v18.2zm105.1 3.6c0-8.4-.7-9.5-6.2-10.6-1.1-.2-3.5-.3-4.7-.3-.6 0-1.1-.2-1.1-.6 0-.6.7-.8 2.2-.8 6.2 0 14.9.3 15.6.3.7 0 9.4-.3 13.5-.3 1.5 0 2.2.2 2.2.8 0 .4-.6.6-1.1.6-1 0-1.8.1-3.5.3-3.7.5-4.8 2.3-5.1 5.9-.3 3.3-.3 6.4-.3 10.7v11.6c0 4.6-.1 4.8-1.8 5.6-8.8 3.5-21.3 4.6-29.3 4.6-10.5 0-30.1-1-45.4-11-8.4-5.5-16.4-16.5-16.4-29.4 0-16.5 10.8-28.2 23.1-33.9 12.4-5.8 26.1-6.5 36.7-6.5 8.7 0 18.5 1.3 21.1 1.8 2.9.5 7.7.9 11.2 1 1.4.1 1.7.5 1.7.9 0 1.4-1 4.3-1 14.6 0 1.7-.3 2.2-1.2 2.2-.7 0-.8-.6-1-1.5-.1-1.4-.8-4.3-2.9-6.8-3.5-3.9-14.6-8.4-32.5-8.4-8.7 0-19.1.6-29.6 6.8-8 4.7-13.7 14.1-13.7 26.2 0 14.5 9.8 25.1 14.6 28.6 10.9 7.9 23.5 11 36.2 11 5 0 12.2-.6 15.7-2.2 1.8-.7 2.8-1.9 2.8-3.6v-17.6zm60.6-3.6c0 9.9 0 18.1.7 22.4.4 3 1.3 5.3 5.7 5.7 2.1.2 5.3.4 6.6.4.9 0 1.2.3 1.2.6 0 .5-.7.8-2.3.8-8.1 0-17.3-.3-18-.3-.7 0-10 .3-14.4.3-1.6 0-2.3-.2-2.3-.8 0-.3.3-.6 1.2-.6 1.3 0 3.1-.2 4.4-.4 2.9-.4 3.7-2.7 4.3-5.7.7-4.3.7-12.5.7-22.4v-18.2c0-16.1 0-19-.3-22.3-.3-3.5-1.8-5.3-5-5.8-1.6-.3-3.5-.4-4.5-.4-.6 0-1.2-.2-1.2-.6 0-.6.7-.8 2.3-.8 4.8 0 14.1.3 14.8.3.7 0 10-.3 14.4-.3 1.6 0 2.3.2 2.3.8 0 .4-.6.6-1.2.6-1 0-1.9.1-3.7.3-4 .5-5.1 2.3-5.4 5.9-.3 3.3-.3 6.2-.3 22.3v18.2zm58.1.2c0 15.2.6 21.8 3.2 23.6 2.4 1.7 6.2 2.4 17.6 2.4 7.8 0 14.3-.1 17.8-3.1 1.9-1.7 3.4-4.2 3.8-6.2.1-.8.4-1.3 1.3-1.3.7 0 .9.4.9 1.5s-1 7.3-2.2 10.3c-1 2.4-1.5 2.8-9.3 2.8-10.6 0-18.2-.2-24.4-.3-6.2-.2-10.7-.3-15-.3-.6 0-3.1.1-6 .1-2.9.1-6.2.2-8.4.2-1.6 0-2.4-.2-2.4-.8 0-.3.3-.6 1.2-.6 1.3 0 3.1-.2 4.4-.4 2.9-.4 3.7-2.7 4.3-5.7.7-4.3.7-12.5.7-22.4v-18.2c0-16.1 0-19-.3-22.3-.3-3.5-1.5-5.2-6.3-5.9-1.2-.2-3.7-.3-5-.3-.6 0 .8-.2.8-.6 0-.6-1.3-.8.4-.8 6.6 0 15.9.3 16.6.3.7 0 11.5-.3 15.9-.3 1.6 0 2.4.2 2.4.8 0 .4-.6.6-1.2.6-1 0-3.1.1-4.9.3-4.3.5-5.4 2.3-5.7 5.9-.3 3.3-.3 6.2-.3 22.3v18.4zm66.2-18.4c0-16.1 0-19-.3-22.3-.3-3.5-1.5-5.2-6.5-5.9-1.2-.2-3.8-.3-5.1-.3-.6 0-1.2-.2-1.2-.6 0-.6.8-.8 2.4-.8 3.5 0 7.5 0 10.9.1l6.2.2c1.1 0 31 0 34.5-.1 2.9-.1 5.3-.3 6.5-.5.8-.1 1.4-.5 2.1-.5.5 0 .6.4.6.9 0 .7-.8 2-1.2 4.8-.2 1-.5 5.6-.8 6.8-.2.5-.5 1.1-1.1 1.1-.9 0-1.2-.5-1.2-1.3 0-.7-.2-2.5-.9-3.7-1.1-1.7-2.6-2.9-10.7-3.5-2.6-.2-19-.3-20.6-.3-.6 0-.9.3-.9 1v28.5c0 .7.2 1 .9 1 2 0 20.5 0 24-.2 3.6-.2 5.7-.4 7.1-1.4 1.1-.8 1.7-1.3 2.3-1.3.5 0 .8.2.8.8 0 .6-.8 2.4-1.2 5.8-.3 2.1-.6 5.9-.6 6.6 0 .8 0 2-1.1 2-.8 0-1.1-.4-1.1-.9 0-1 0-2.1-.6-3.4-.6-1.4-2-3.2-7.8-3.6-4.1-.3-19-.5-21.5-.5-.8 0-1.1.3-1.1.7v9.1c0 3.5-.2 15.5 0 17.6.5 7.1 2.7 8.5 17.5 8.5 3.9 0 10.5 0 14.5-1.1 3.9-1.1 5.7-3.2 6.8-7.4.3-1.1.6-1.5 1.4-1.5.9 0 .9.8.9 1.5 0 .8-1.2 7.8-2 10-1.1 2.7-2.3 2.7-8.1 2.7-11.3 0-19.6-.2-25.5-.3-5.9-.2-9.5-.3-11.8-.3-.3 0-2.9 0-6 .1-3 0-6.5.2-8.7.2-1.7 0-2.4-.2-2.4-.8 0-.3.3-.6 1.2-.6 1.4 0 3.2-.2 4.5-.4 3-.4 3.8-2.7 4.4-5.7.8-4.3.8-12.5.8-22.4v-18.4zm77.8 46.7c-2.1-.7-2.3-1.1-2.3-3.9 0-5.2.6-9.3.8-10.9.2-1.1.5-1.7 1.2-1.7.9 0 1.1.3 1.1 1.1 0 .9 0 2.4.5 3.8 2.3 7.6 12.2 10.5 22.3 10.5 14.5 0 21.6-7.1 21.6-13.7 0-7.1-4.4-11.2-17.3-18.6l-6.8-3.8c-16-9-19.6-15.4-19.6-22.4 0-11 12.1-18.6 31.2-18.6 5.9 0 10.3.4 14 1 2.9.4 4.1.5 5.3.5 1.2 0 1.5.2 1.5.7 0 .5-.6 3.9-.6 10.9 0 1.7-.3 2.4-1.1 2.4-.9 0-1.1-.5-1.2-1.3-.2-1.2-1.1-4-2-5.2-.9-1.1-5-5.5-18.8-5.5-10.4 0-18.5 4.4-18.5 12 0 5.9 3.9 9.6 18.4 17.3l4.2 2.3c17.8 9.6 22 16 22 24.2 0 4.2-2.4 12.1-12.8 17.1-6.5 3.1-14.6 4.3-22.8 4.3-7.2.3-14.1-.4-20.3-2.5z" class="st0"/><g><path d="M604.8 414.8c0 5.6-4.4 10-10.1 10-5.6 0-10.1-4.4-10.1-10 0-5.5 4.5-9.8 10.1-9.8 5.7 0 10.1 4.4 10.1 9.8zm-17.7 0c0 4.4 3.2 7.9 7.7 7.9 4.3 0 7.5-3.5 7.5-7.8 0-4.4-3.2-7.9-7.6-7.9s-7.6 3.5-7.6 7.8zm6.1 5.2h-2.3v-9.8c.9-.2 2.2-.3 3.8-.3 1.9 0 2.7.3 3.4.7.5.4 1 1.2 1 2.2 0 1.1-.8 1.9-2 2.3v.1c1 .4 1.5 1.1 1.8 2.4.3 1.5.5 2.1.7 2.5h-2.5c-.3-.4-.5-1.3-.8-2.4-.2-1.1-.8-1.6-2-1.6h-1.1v3.9zm0-5.6h1.1c1.3 0 2.3-.4 2.3-1.4 0-.9-.7-1.5-2.1-1.5-.6 0-1 .1-1.3.1v2.8z" class="st0"/></g></svg>