<svg xmlns="http://www.w3.org/2000/svg" role="img" viewBox="-22.30 -22.30 1159.60 335.60"><title>Vivo (Adopter) logo</title><g fill="#415fff" fill-opacity="1" fill-rule="evenodd" stroke="none" stroke-linecap="square" stroke-linejoin="bevel" stroke-width="1" transform="translate(72.125 -110.904) translate(-72.125 110.904) scale(.28515)"><path fill="#415fff" fill-opacity="1" fill-rule="nonzero" d="M3522.47 853.333h-336.44c-189.11 0-205.92-155.871-205.92-203.487 0-47.616 16.81-203.487 205.92-203.487h336.44c189.13 0 205.94 155.871 205.94 203.487 0 47.616-16.81 203.487-205.94 203.487m7.31-577.641h-337.92c-351.18 0-382.42 286.589-382.42 374.154S2840.68 1024 3191.86 1024h337.92c351.2 0 382.43-286.589 382.43-374.154s-31.23-374.154-382.43-374.154" vector-effect="none"/><path fill="#415fff" fill-opacity="1" fill-rule="nonzero" d="M2741.89 301.949h-109.55c-46.92 0-56.58 7.89-74.67 34.383-18.12 26.479-331.46 498.372-331.46 498.372-10.01 14.507-20.62 20.375-33.8 20.375-13.19 0-23.78-5.868-33.78-20.375 0 0-313.37-471.893-331.47-498.372-18.09-26.506-27.75-34.383-74.67-34.383h-109.56c-25.2 0-36.76 19.443-20.9 43.192l374.26 560.548C2054.36 989.945 2096.97 1024 2192.41 1024c95.45 0 138.06-34.055 196.14-118.311l374.24-560.548c15.86-23.749 4.34-43.192-20.9-43.192M1299.7 347.727c0-32.795 12.8-45.778 45.1-45.778h80.47c32.29 0 45.09 12.997 45.09 45.778v630.482c0 32.791-12.8 45.791-45.09 45.791h-80.47c-32.29 0-45.1-13-45.1-45.791V347.727m-6.73-199.772c-26.04-26.033-26.04-46.684 0-72.7304l55.68-55.6767c26.05-26.05951 46.7-26.05951 72.74-.0132l55.71 55.6768c26.03 26.0595 26.03 46.7105 0 72.7565l-55.71 55.677c-26.04 26.046-46.69 26.046-72.73 0l-55.69-55.677v-.013m-166.44 153.994H1017.1c-46.87 0-56.532 7.903-74.597 34.382-18.09 26.48-331.119 498.36-331.119 498.36-9.978 14.507-20.572 20.375-33.74 20.375-13.194 0-23.775-5.868-33.766-20.375 0 0-313.029-471.893-331.093-498.373-18.064-26.466-27.727-34.369-74.594-34.369H28.7539c-28.1206 0-36.71957 19.443-20.87382 43.192C23.6996 368.903 381.719 905.676 381.719 905.676 439.732 989.945 482.32 1024 577.644 1024c95.311 0 137.912-34.055 195.912-118.325l373.854-560.534c15.83-23.749 7.25-43.192-20.88-43.192" vector-effect="none"/></g></svg>