<svg xmlns="http://www.w3.org/2000/svg" role="img" viewBox="14.50 248.00 624.00 155.50"><title>Wayfair (Adopter) logo</title><style>svg {enable-background:new 0 0 652 652}</style><style>.st0{fill:#7f187f}.st1{fill:#82d170}.st2{fill:#f8cf1c}.st3{fill:#c6d636}.st4{fill:#d57dea}</style><path d="M237.6 292.1h-26.4c-2.4 0-4.3 2-4.4 4.4v5.9c0 1.6 1.3 2.8 2.9 2.8h4.4c.1 0 .3.1.3.2.1.1.1.3.1.5l-10.3 31c-.1.2-.3.3-.5.3s-.4-.1-.4-.3l-15.4-42c-.4-1-1.4-1.7-2.5-1.8h-9.3c-1.1.1-2.1.8-2.5 1.8l-15.5 42c0 .2-.2.3-.4.3s-.4-.1-.5-.3l-10.3-31c0-.2 0-.3.1-.5.1-.1.2-.2.3-.2h4.4c1.6 0 2.9-1.3 2.9-2.8v-5.9c0-2.4-2-4.4-4.4-4.4h-26.4c-.9 0-1.8.5-2.4 1.2-.5.7-.7 1.6-.4 2.4.4 1.1.8 2.4 1.3 3.7.5 1.3.9 2.6 1.3 3.7.4 1.2 1.5 2 2.7 2h4.4c.2 0 .4.1.5.4l20.5 60.4c.4 1.2 1.5 2 2.7 2h6.4c1.2 0 2.2-.7 2.7-1.8 5.7-16.3 16.4-47.5 16.9-48.5.1-.2.3-.4.5-.4s.4.1.5.4c.4 1.1 11.2 32.2 16.9 48.6.4 1.1 1.5 1.9 2.7 1.9h6.4c1.2 0 2.3-.8 2.7-2l20.5-60.4c.2-.4.4-.4.5-.4h4.4c1.2 0 2.3-.8 2.7-1.9.4-1.2.9-2.5 1.3-3.7.4-1.3.9-2.6 1.3-3.7.3-.8.1-1.7-.4-2.4-1-1-1.9-1.5-2.8-1.5zm309.2 63.6H542c-.7 0-1.3-.6-1.4-1.4v-59.5c0-1.1-.9-1.9-1.9-1.9h-14.1c-.6 0-1.2.3-1.5.7l-5.8 7.3c-.3.3-.4.8-.4 1.2 0 1 .8 1.9 1.9 2h1.8c.7 0 1.3.6 1.4 1.4v48.7c0 .4-.1.8-.4 1.1-1.5 2-4.9 6.2-6.5 8.3-.3.4-.5.8-.5 1.3 0 1.1.9 1.9 1.9 2H541c.5 0 1-.2 1.4-.5l5.7-7.2c1.2-1.6.3-3.5-1.3-3.5z" class="st0"/><circle cx="531.2" cy="274.4" r="10.5" class="st0"/><path d="M623.8 299.1c0-1-.5-2-1.9-2h-2.4v6.4h.9v-2.4h.8l1.6 2.4h1.1l-1.7-2.4c1.2-.1 1.6-1.1 1.6-2zm-3.4 1.2v-2.4h1.6c.6 0 1 .5 1 1.1v.1c.1.6-.4 1.1-1 1.2h-1.6z" class="st0"/><path d="M621.5 294.8c-3 0-5.5 2.5-5.5 5.5s2.5 5.5 5.5 5.5 5.5-2.5 5.5-5.5-2.5-5.5-5.5-5.5zm0 10.2c-2.6 0-4.7-2.1-4.7-4.7v-.1c0-2.5 2.1-4.6 4.6-4.6h.1c2.6 0 4.7 2.1 4.7 4.7s-2.2 4.7-4.7 4.7zm-315 51c-4.1.2-6.1-1.7-6.1-6.4v-33.4c0-14.6-12.3-23.9-26-23.9-21.4 0-29.1 10.2-30 21.5-.1 1.1.8 2 1.9 2.1h10.6c1 0 1.8-.8 1.9-1.8.5-5.9 4.5-10.3 11.2-10.3 7.4 0 11.8 3.7 11.8 12.2v7.3H278c-13.2 0-22.2 1.7-28.3 5.5-6.1 3.8-9.2 10.9-9.2 19.1 0 6.1 2.1 11.1 6.3 15.1s9.1 5.7 15.5 5.7c3.8 0 7.6-.9 11.1-2.5 3.4-1.5 6.6-3.5 9.3-6 .6-.5 1.4-.5 2 .1.1.1.2.2.2.3 3 5.3 6.3 7 12.5 7 5.6 0 8.3-5.3 10.8-8.4.9-1.3-.1-3.3-1.7-3.2zm-24.6-5.3c-.1.5-.8 1.1-1.1 1.4-1.7 1.4-3.6 2.7-5.6 3.6-1.8.8-3.8 1.2-5.8 1.1-2.9 0-5.8-1.1-7.7-3.2-1.9-2.1-3-4.9-2.9-7.8 0-4.4 1.6-7.3 4.9-9.4 3.3-2.2 8.6-3.2 15.1-3.2h3.2l-.1 17.5zm225.4 5.3c-4.1.2-6.1-1.7-6.1-6.4v-33.4c0-14.6-12.3-23.9-26-23.9-21.4 0-29.1 10.2-30 21.5-.1 1.1.8 2 1.9 2.1h10.6c1 0 1.8-.8 1.9-1.8.5-5.9 4.5-10.3 11.2-10.3 7.4 0 11.8 3.7 11.8 12.2v7.3h-3.8c-13.2 0-22.2 1.7-28.3 5.5-6.1 3.8-9.2 10.9-9.2 19.1 0 6.1 2.1 11.1 6.3 15.1 4.2 4 9.1 5.7 15.5 5.7 3.8 0 7.6-.9 11.1-2.5 3.4-1.5 6.6-3.5 9.3-6 .6-.5 1.4-.5 2 .1.1.1.2.2.2.3 3 5.3 6.3 7 12.5 7 5.6 0 8.3-5.3 10.8-8.4.8-1.3-.2-3.3-1.7-3.2zm-24.7-5.3c-.1.5-.8 1.1-1.1 1.4-1.7 1.4-3.6 2.7-5.6 3.6-1.8.8-3.8 1.2-5.8 1.1-2.9 0-5.8-1.1-7.7-3.2-1.9-2.1-3-4.9-2.9-7.8 0-4.4 1.6-7.3 4.9-9.4 3.3-2.2 8.6-3.2 15.1-3.2h3.2v17.5zm124.2-58c-1-.5-3.4-.8-5.5-.8-3.4 0-6.1.5-8.5 1.5l-.2.1c-.9.4-1.7.9-2.5 1.5-3 1.9-5.7 4.2-7.9 6.8-2.3 2.7-1 .8-1.2-.5v-6.6c0-1.1-.9-1.9-2-2h-14.1c-.6 0-1.1.3-1.4.7-.4.4-4.4 5.5-5.9 7.4-.9 1.1-.3 3.2 1.5 3.2h1.8c.8 0 1.4.6 1.4 1.4v48.9c0 .4-.1.8-.3 1.1-1.4 1.7-4.9 6.1-6.6 8.3-.3.3-.4.8-.4 1.2 0 1.1.9 1.9 1.9 2h30.3c1.1 0 2-.9 2-2v-7.3c0-1.1-.9-2-2-2h-4.8c-.8 0-1.4-.6-1.4-1.4v-28.5c.5-13.6 8.6-17.7 12.5-18.9l.6-.2h.2c1.1-.3 2.1-.4 3.2-.4 4.6 0 6.3.7 8.8 1.3 1 .3 2-.9 2-2v-11.1c-.1-.7-.8-1.4-1.5-1.7zm-165 .2h-22c-.8 0-1.4-.6-1.4-1.4v-10.9c0-5.3 2.7-10.5 8.3-10.5 6.4 0 7.4 5.4 7.6 9.4.1 1 .9 1.8 1.9 1.9h9.1c1 0 1.8-.9 1.8-1.9-.2-13.6-8.8-19.4-22.7-19.4-8.4 0-14 2.6-18.1 7.7-4.2 5.1-6.3 10.7-6.3 20.9v2.7c0 .7-.6 1.3-1.4 1.4l-37.5.1h-.1c-1.1 0-1.9.9-1.9 1.9v7.4c0 1.1.9 2 2 2h4c.8 0 1.4.6 1.4 1.4 0 .2 0 .4-.1.5-.1.2-10.3 24-14.5 33.7-.2.5-.7.8-1.3.8-.6 0-1-.3-1.3-.8-4.3-9.7-14.7-33.7-14.7-33.7-.1-.2-.1-.3-.1-.5 0-.8.6-1.4 1.4-1.4h2.8c1.1 0 2-.9 2-2v-7.4c0-1.1-.9-1.9-1.9-1.9h-34c-1.1 0-1.9.9-2 2 0 .3.1.6.2.9 1 1.8 3.3 6.1 3.9 7.4.3.6 1 1 1.6 1h6.5c.5 0 1 .3 1.3.8.2.5 24.1 54.2 25 56.1.9 2.4.9 5.1 0 7.5-1.1 4.4-8.5 12.4-12.6 10.9-2.8-1-3.2-6.1-6.6-6.7-.6-.1-1.3 0-1.8.2-.6.2-6.1 7.3-7.3 8.5-.6.8-.6 1.9 0 2.6 3 3.1 8.1 7.3 15.3 7.5 8.9.4 17.8-.8 25.9-16.4 0 0 26-63.5 29.1-70.4.3-.5.7-.7 1.3-.7h13.7c.8 0 1.4.6 1.4 1.4v48.8c0 .4-.1.8-.4 1.1-1.6 2.1-4.9 6.2-6.5 8.3-.3.3-.4.8-.4 1.2 0 1.1.9 1.9 1.9 1.9H425c1.1 0 2-.9 2-2v-7.3c0-1.1-.9-2-2-2h-5c-.7 0-1.3-.6-1.4-1.4v-48.8c0-.7.6-1.3 1.4-1.4h16.2c.6 0 1.2-.3 1.5-.7 1.4-1.8 4.2-5.4 5.6-7.4.3-.3.4-.8.4-1.2 0-.8-.8-1.6-1.9-1.7z" class="st0"/><path d="M110.8 316.4l-5.3-20c-.2-.7-.7-1.2-1.4-1.4l-20-5.3c-.7-.2-1.4 0-1.8.5L69 303.7l28 28 13.4-13.4c.4-.5.6-1.2.4-1.9z" class="st1"/><path d="M27.1 346.9l5.3 20c.2.7.7 1.2 1.4 1.4l20 5.3c.7.2 1.4 0 1.8-.5L69 359.7l-28-28-13.4 13.4c-.5.5-.7 1.2-.5 1.8z" class="st2"/><path d="M53.7 289.8l-20 5.3c-.7.2-1.2.7-1.4 1.4l-5.3 20c-.2.7 0 1.4.5 1.8L41 331.7l28-28-13.4-13.4c-.5-.5-1.2-.7-1.9-.5z" class="st3"/><path d="M110.2 344.9L97 331.7l-28 28 13.2 13.2c.6.6 1.5.8 2.3.6l19.4-5.2c.8-.2 1.5-.9 1.7-1.7l5.2-19.4c.2-.8 0-1.7-.6-2.3z" class="st4"/><path d="M69 303.7l-28 28 28 28 28-28-28-28z" class="st0"/><path d="M110.8 316.4l-5.3-20c-.2-.7-.7-1.2-1.4-1.4l-20-5.3c-.7-.2-1.4 0-1.8.5L69 303.7l28 28 13.4-13.4c.4-.5.6-1.2.4-1.9z" class="st1"/><path d="M27.1 346.9l5.3 20c.2.7.7 1.2 1.4 1.4l20 5.3c.7.2 1.4 0 1.8-.5L69 359.7l-28-28-13.4 13.4c-.5.5-.7 1.2-.5 1.8z" class="st2"/><path d="M53.7 289.8l-20 5.3c-.7.2-1.2.7-1.4 1.4l-5.3 20c-.2.7 0 1.4.5 1.8L41 331.7l28-28-13.4-13.4c-.5-.5-1.2-.7-1.9-.5z" class="st3"/><path d="M110.2 344.9L97 331.7l-28 28 13.2 13.2c.6.6 1.5.8 2.3.6l19.4-5.2c.8-.2 1.5-.9 1.7-1.7l5.2-19.4c.2-.8 0-1.7-.6-2.3z" class="st4"/><path d="M69 303.7l-28 28 28 28 28-28-28-28z" class="st0"/></svg>