<svg xmlns="http://www.w3.org/2000/svg" role="img" viewBox="19.55 17.55 322.40 164.40"><title>Western Digital (Member) logo</title><path fill="none" d="M0 0h361.4v192.98H0z"/><path d="M195 31.81h12.24v10.73h9.63v8.52h-9.63v20.87c0 3.7 2.21 6.26 5.92 6.26a18.54 18.54 0 0 0 3.45-.27v7.38a28.15 28.15 0 0 1-8.47 1.28c-10 0-13.14-6.38-13.14-14.48V31.81m113.14 10.73H295.9V85.3h12.33V59.58c0-5.13 2.74-8.53 7.62-8.53 5.51 0 7.72 4.05 7.72 8.53V85.3h12.33V56.71c0-8.83-4.92-15.44-15.32-15.44-8.47 0-11.44 5-12.26 6.47h-.18zm-16.43-1.28c-11.12 0-13.72 6.26-14.57 8.23H277v-7h-11V85.3h12.33V64.08c0-9.21 6.13-13 13.47-13zm-110.8 13.3l7.88-5.33c-1-1.72-5.22-8-17.49-8-9.17 0-16.78 4.72-16.78 13 0 7.77 5.63 11.47 11.84 13.38 1.85.56 3.69 1.1 5.34 1.62 3.32 1.06 5.89 2 5.89 4.55 0 2.28-2.55 3.9-7 3.9a10.63 10.63 0 0 1-9.35-5L153 77.44c.8 2 5.26 9.14 18.38 9.14 10 0 18.51-4.22 18.51-13.59 0-7.8-5.57-11.47-12.15-13.48l-4.8-1.51c-3-.9-6.13-1.71-6.13-4.55 0-2.08 2-3.4 5.62-3.4 5.7.04 7.64 3.32 8.48 4.51zM99.62 23.8L88.44 67.63 77.26 23.8H61.88l-11.5 45.09L38.89 23.8h-13l15.85 61.5h16.33l11.11-43.58L80.29 85.3h15.42l15.89-61.5zm39.52 48.5c-.58 1.06-2.66 5.45-9.36 5.45-5.39 0-9.2-4.21-9.58-10.08h30.24v-3.75c0-11.23-6.72-22.66-21.22-22.66-13 0-21.29 9.8-21.29 22.66 0 12.65 8.09 22.65 21.8 22.65 12 0 16.62-7.14 17.71-9.5zm-9.92-22.25c5.52 0 8.46 4 8.92 9.1H120.2c.49-4.8 3.14-9.1 9.02-9.1zM249 72.3c-.58 1.06-2.66 5.45-9.36 5.45-5.39 0-9.2-4.21-9.58-10.08h30.24v-3.75c0-11.23-6.72-22.66-21.22-22.66-13 0-21.28 9.8-21.28 22.66 0 12.65 8.08 22.65 21.79 22.65 12 0 16.62-7.14 17.71-9.5zm-9.92-22.25c5.53 0 8.46 4 8.92 9.1h-18c.53-4.8 3.18-9.1 9.06-9.1zm-62.68 55.53h12.24v10.73h9.64v8.52h-9.64v20.87c0 3.7 2.22 6.26 5.93 6.26a18.54 18.54 0 0 0 3.45-.27v7.38a27.82 27.82 0 0 1-8.48 1.28c-10 0-13.14-6.38-13.14-14.48v-40.29m-147.8-8h21c19.13 0 31.11 9.37 31.11 30.75s-11.57 30.74-31.11 30.74h-21zm13.21 51.27h7c16 0 18.33-10.73 18.33-20.52S64.67 107.8 48.8 107.8h-7zM247.6 97.58h12.64v61.49H247.6zM267.1 155a5.31 5.31 0 1 1 5.32 5.31 5.3 5.3 0 0 1-5.32-5.31zm9.68 0a4.38 4.38 0 1 0-4.36 4.38 4.36 4.36 0 0 0 4.36-4.38zm-5.33.43v2.61h-1.07v-6.23h1.95c1.25 0 2.24.49 2.24 1.72a1.38 1.38 0 0 1-1.18 1.45 1.24 1.24 0 0 1 1 1.22c.07.65.21 1.81.21 1.81h-1s-.08-.74-.13-1.11c-.13-1.11-.5-1.5-1.3-1.5zm.94-.88c.75 0 1.1-.45 1.1-.93a1 1 0 0 0-1.1-.95h-.94v1.88zm-137.11-38.23v4.59h-.17c-.74-1.32-3.78-5.87-11.72-5.87-13.09 0-17.86 10.69-17.86 21.59s4.77 21.59 17.86 21.59c8.09 0 11.09-4.73 11.72-5.88h.17v4.9c0 5.88-4.19 9.55-9.07 9.55a10.68 10.68 0 0 1-9.34-5.2c-1.1.57-8.26 4.85-8.26 4.85.87 1.8 4.55 9.5 18 9.5 14.15 0 20.92-9 20.92-21.69v-37.93zM127 149c-7 0-8.27-6.84-8.27-12.38 0-6.3 1.77-12.38 8.27-12.38s8.27 6.08 8.27 12.38c.01 5.55-1.43 12.38-8.27 12.38zm75-26.38c1.18-1.5 5.46-7.59 16.8-7.59 10.6 0 20.37 4.72 20.37 16.93v27.1h-12v-4.26h-.16c-.65.86-3.61 5.55-12.24 5.55-8 0-14-5.52-14-13.86 0-9.83 8.13-14.43 20.61-14.43h5.42v-.95c0-4.62-3.44-7.28-9-7.28a10.65 10.65 0 0 0-8.79 4.26zm11.11 23.13c0 3.57 2.65 5.76 6.22 5.76 5.34 0 7.53-4.42 7.54-9.45v-2.59H222c-6.42.01-8.88 2.71-8.88 6.29zm-126-29.44h12.7v42.75H87.16zm6.32-19.76a6.88 6.88 0 1 0 6.89 6.88 6.89 6.89 0 0 0-6.84-6.87zm62.32 19.76h12.65v42.75h-12.6zm6.32-19.76a6.88 6.88 0 1 0 6.89 6.88 6.88 6.88 0 0 0-6.84-6.87z"/></svg>