<svg xmlns="http://www.w3.org/2000/svg" role="img" viewBox="-5.72 59.03 297.18 56.68"><title>Windriver (Adopter) logo</title><defs><style>.cls-1{fill:#c00}</style></defs><path d="M111.1484 64.7332s-10.9579 28.3004-12.0091 30.9202c-1.0129-2.2566-12.067-30.9202-12.067-30.9202h-7.4311s-11.095 28.2643-12.103 30.6411c-.741-2.4682-10.7558-30.6411-10.7558-30.6411H.0012v3.9201h40.8027c6.8513 0 7.0535.7902 8.3622 5.1709l13.1518 36.345h7.6428s11.2899-28.998 12.1415-31.0043c.89251 1.9895 12.9137 31.0043 12.9137 31.0043h7.7198l16.2816-45.436zm14.2921 0l-.0241 3.9057h2.1026c7.0751 0 7.02209.9056 6.9933 4.9917v36.5386h10.9892v-45.436zm73.96979 0s-.05769 27.379-.05769 29.9026c-1.66479-1.9607-25.53149-29.9026-25.53149-29.9026H152.971v3.9525h1.25341c8.10229 0 8.1264 1.6238 8.1264 5.5018v35.9817h9.856s-.0312-29.9578-.0312-32.4934c1.6768 1.975 27.68449 32.4934 27.68449 32.4934h9.21381v-45.436zm38.15171 0h-21.2975l-.01931 4.0367h1.874c7.56829 0 7.5178 1.1643 7.5178 4.602v36.7973h11.54239c18.32891 0 36.21521-1.6959 36.21521-22.6398 0-20.9968-17.7035-22.79621-35.83258-22.79621m2.61969 40.2999c-3.55079 0-3.55079-.2502-3.55079-3.339V73.3719c0-3.2789 0-3.4064 4.9606-3.4064 13.6811 0 19.7794 5.4188 19.7794 17.5639 0 12.1054-6.53372 17.5037-21.18922 17.5037z" class="cls-1" id="WIND_outlines_" data-name="WIND outlines"/><path d="M275.44336 66.40527h-1.75195v-.93261h4.60644v.93261h-1.75244V71.294h-1.10205zm3.9707-.93261h1.68115l1.56836 4.46484h.04248l1.56836-4.46484h1.68164V71.294h-1.10253v-4.86041h-.02784l-1.6958 4.86036h-.89013l-1.69532-4.86036h-.02832V71.294h-1.10205z" class="cls-1" id="TM_outlines_" data-name="TM outlines"/></svg>