<svg xmlns="http://www.w3.org/2000/svg" role="img" viewBox="-3.62 -3.62 188.24 41.99"><title>Xilinx (Adopter) logo</title><style>svg {enable-background:new 0 0 181.2 34.8}</style><style>.st0{fill:#e01f27}.st1{fill:#801517}</style><path d="M0 8.7L7.6 0h11.1l-7.6 8.7z" class="st0"/><path d="M0 8.7l7.6 8.7h11.1l-7.6-8.7z" class="st1"/><path d="M0 26.1l7.6-8.7h11.1l-7.6 8.7z" class="st0"/><path d="M0 26.1l7.6 8.7h11.1l-7.6-8.7z" class="st1"/><path d="M33.8 0H18.7l7.6 8.7z" class="st0"/><path d="M33.8 34.8H18.7l7.6-8.7z" class="st1"/><path d="M69.4 34.8l-8.2-14.1L53 34.8h-4.7L58.9 17l-10-17h4.9l7.4 13.3L68.7 0h4.8l-10 17 10.8 17.8zM76.8 0H81v34.8h-4.2zm10 34.8V0H91v31h14.2v3.8zM108.7 0h4.2v34.8h-4.2zm32 34.8L122.9 7.9v26.9h-4.2V0h3.9l17.8 26.8V0h4.1v34.8zm27.5 0l-8.1-14.1-8.3 14.1h-4.7L157.7 17l-9.9-17h4.8l7.5 13.3L167.5 0h4.9l-10.1 17 10.8 17.8z"/><path fill="#171c2d" d="M177.9 28.3c1.7 0 3.2 1.4 3.2 3.2 0 1.7-1.5 3.2-3.2 3.2-1.9 0-3.2-1.4-3.2-3.2 0-1.8 1.5-3.2 3.2-3.2zm0 .7c-1.4 0-2.5 1.1-2.5 2.5s1.1 2.5 2.5 2.5 2.4-1.1 2.4-2.5c.1-1.4-1-2.5-2.4-2.5zm-.5 4.1h-.7V30c.2 0 .7-.1 1.2-.1.6 0 .9.1 1.1.2.2.1.4.4.4.6 0 .4-.2.6-.6.7.2.1.5.4.6.7.1.5.1.6.2.7h-.7c-.1-.1-.1-.4-.2-.7 0-.4-.2-.5-.6-.5h-.4V33h-.3zm0-1.8h.4c.4 0 .7-.1.7-.5 0-.2-.2-.5-.6-.5h-.4v1h-.1z"/></svg>