<svg xmlns="http://www.w3.org/2000/svg" role="img" xmlns:xlink="http://www.w3.org/1999/xlink" viewBox="-18.22 -17.72 921.44 197.44"><title>Zalando (Adopter) logo</title><defs><linearGradient id="b" x1="0" x2="1" y1="0" y2="0" gradientTransform="scale(-182.95837 182.95837) rotate(-60 .518 1.008)" gradientUnits="userSpaceOnUse" spreadMethod="pad"><stop offset="0" stop-color="#f47026"/><stop offset=".375" stop-color="#f47026"/><stop offset=".949" stop-color="#fbc195"/><stop offset=".949" stop-color="#fbc195"/><stop offset="1" stop-color="#fbc195"/></linearGradient><linearGradient id="d" x1="0" x2="1" y1="0" y2="0" gradientTransform="matrix(133.37162 0 0 -133.37162 .012 75.374)" gradientUnits="userSpaceOnUse" spreadMethod="pad"><stop offset="0" stop-color="#f57d34"/><stop offset=".534" stop-color="#f47026"/><stop offset=".534" stop-color="#f47026"/><stop offset="1" stop-color="#f47026"/></linearGradient><linearGradient id="a" x1="0" x2="1" y1="0" y2="0" gradientTransform="scale(-182.95837 182.95837) rotate(-60 .518 1.008)" gradientUnits="userSpaceOnUse" spreadMethod="pad"><stop offset="0" stop-color="#f47026"/><stop offset=".375" stop-color="#f47026"/><stop offset=".949" stop-color="#fbc195"/><stop offset=".949" stop-color="#fbc195"/><stop offset="1" stop-color="#fbc195"/></linearGradient><linearGradient id="c" x1="0" x2="1" y1="0" y2="0" gradientTransform="scale(-182.95837 182.95837) rotate(-60 .518 1.008)" gradientUnits="userSpaceOnUse" spreadMethod="pad" xlink:href="#a"/></defs><path fill="#231f20" d="M366.91543 43.10125c-6.71375-3.6925-16.695-5.48875-30.51625-5.49375-18.91125.007-36.46625 3.93-43.11 6.40625-1.5.48125-3.105 1.77625-3.13125 3.9925l.004.48875 1.86125 9.405.0462.175c.5825 1.915 2.1775 2.77375 3.63 2.77375h.007c.4675-.02.83125-.11 1.17-.19625l3.1475-.735c8.2375-2.0625 20.68875-5.1775 34.5925-5.1775 8.43375 0 14.10375.735 17.905 2.34 6.16625 2.335 6.205 6.32125 6.2675 12.92v9.87c-.70625-.0125-1.89875-.025-3.735-.025-6.81 0-20.2.31625-33.36875 2.4275-20.095 3.08625-36.7225 7.89625-36.6175 35.58375.007 35.1475 32.6075 35.21375 48.27375 35.24625h.002c10.635-.002 20.4475-1.5725 26.85625-2.8975 14.625-3.39625 18.35875-8.04 18.1625-22.5725v-58.445c.0213-8.91375.0475-20.0075-11.4475-26.08625m-8.02875 90.285c-7.78375 2.52625-16.3 3.805-25.32 3.805v.82125l-.0112-.82125c-14.4125-.11-28.4875-1.75875-28.505-20.1425.0925-14.62125 7.89375-16.36125 17.76875-18.56625l.685-.1525c8.785-1.8775 30.83625-2.23 35.385-2.2825l-.002 37.33875zM541.32713 69.1875v58.445c.19625 14.5325-3.53875 19.17625-18.1625 22.5725-6.40875 1.325-16.22125 2.895-26.8575 2.8975h-.001c-15.66625-.0325-48.26625-.0987-48.275-35.24625-.10375-27.6875 16.52375-32.4975 36.61875-35.58375 13.16875-2.11125 26.55875-2.4275 33.3675-2.4275 1.8375 0 3.02875.0125 3.73625.025V70c-.0625-6.59875-.10125-10.585-6.2675-12.92-3.80125-1.605-9.47125-2.34-17.905-2.34-13.905 0-26.355 3.115-34.5925 5.1775l-3.1475.735c-.33875.0863-.7025.17625-1.17125.19625h-.006c-1.4525 0-3.0475-.85875-3.63-2.77375l-.0463-.175-1.86125-9.405-.004-.48875c.0263-2.21625 1.63125-3.51125 3.13125-3.9925 6.6425-2.47625 24.19875-6.39875 43.11-6.40625 13.82125.005 23.8025 1.80125 30.51625 5.49375 11.49375 6.07875 11.46875 17.1725 11.4475 26.08625m-19.47375 26.86c-4.55.0525-26.60125.405-35.38625 2.2825l-.68375.1525c-9.875 2.205-17.67625 3.945-17.76875 18.56625.0175 18.38375 14.0925 20.0325 28.505 20.1425l.0113.82125v-.82125c9.02 0 17.53625-1.27875 25.32-3.805l.002-37.33875zm314.67375-58.44c-45.4.0612-49.25 29.89125-49.2925 57.85125.0425 27.8575 3.8925 57.5825 49.2925 57.64375h.003c45.365-.0613 49.2325-29.70625 49.29625-57.6475-.0475-29.2375-3.89625-57.78625-49.29875-57.8475m.001 99.17625c-27.53625-.12125-28.92-14.25625-29.1075-41.32.1875-27.2125 1.56875-41.41875 29.105-41.53875 27.5425.12 28.9225 14.32625 29.11 41.52625-.1875 27.07625-1.57125 41.21125-29.1075 41.3325m-81.4775 12.205l-1.18625.3c-6.34875 1.61-15.0475 3.81375-30.2925 3.81375h-.0335c-42.0175-.0613-50.26375-21.25625-50.31-57.8475.0513-41.96875 13.355-57.59125 49.08625-57.6475 12.605 0 21.29 1.63 27.52125 3.135l-.0375-33.80375c-.0525-1.4825.61875-3.42375 4.1275-4.0925L765.08668 0h.60875c2.56375.0638 3.47125 2.34875 3.47625 4.285v127.01375c.1725 8.02-.77125 14.90125-14.12 17.69M749.80918 57.01c-3.72625-.9475-14.1275-3.28875-25.84-3.28875-21.5125.1975-30.535 6.04125-30.76 41.74125.2525 39.2 11.925 41.31875 30.9525 41.525l.0113.82125v-.82125c11.8425 0 22.0025-2.46875 25.62625-3.4675l.01-76.51zm-100.2925 93.445h-9.98125c-2.67375-.004-4.69-2.02375-4.69625-4.69625V70.4075c-.18125-12.74625-3.99-16.29125-17.715-16.4825-15.52875 0-31.24625 3.89625-36.43 5.30875v86.5225c-.005 2.72-1.89375 4.695-4.49125 4.69875h-10.18375c-2.675-.004-4.69375-2.02375-4.6975-4.69625v-84.515c-.14875-7.8225.58625-13.23 11.71375-16.83125 10.6525-3.67875 31.04125-6.7975 44.5075-6.805 25.6675.0325 36.63125 9.2925 36.66625 30.96625v77.1825c-.004 2.675-2.0225 4.695-4.6925 4.69875m-226.07375 2.03625h.009c5.73625-.1125 9.97875-1.24625 11.64-3.11125.59-.66125.8625-1.425.78875-2.17875-.0387-.62-.0387-.62-1.6125-7.99125l-.0375-.17625c-.34125-1.9275-1.71625-2.80375-2.85-2.80375-.10625 0-.21.006-.15375.0138 0 0-1.44125-.07-2.86375-.07h-.0137c-4.08875-.13-7.4775-.725-7.5475-6.70875V4.2863c-.004-2.08755-1.2628-4.2288-3.67905-4.2863l-.7125.006-11.17875 2.865c-1.905.195-3.8875 1.54875-3.8025 4.065v122.9375c.0213 14.55875 7.835 22.59125 22.005 22.6175h.009zm-157.8875-2.03625h-80.0925c-2.67375-.004-4.6925-2.02375-4.6975-4.69625v-9.7775c-.055-2.39625.7125-3.46375 2.18875-5.2925l63.75-74.115h-62.4625c-2.675-.006-4.69375-2.025-4.6975-4.69625v-6.925c.004-2.6725 2.0225-4.69125 4.69625-4.69625h80.9075c2.6725.005 4.69125 2.02375 4.69625 4.695v9.98c.0387 1.80375-.58625 3.33375-2.02625 4.93875l-63.91125 74.265h61.6475c2.67375.008 4.6925 2.025 4.6975 4.6975v6.92375c-.005 2.675-2.02375 4.695-4.69625 4.69875"/><path fill="url(#b)" d="M20.28125 27.90625c-13.8425 0-20.96 37.79625-20.21875 73.28125-.01985-.005-.04266.005-.0625 0 .74 31.14625 7.6275 61 21.28125 61 52.39625 0 112.09375-49.4125 112.09375-67.125 0-4.43125-4.51375-12.9575-10.5625-19.6875-.008.0046-.0235-.0046-.0312 0-.4113-.4775-.84755-.95375-1.2813-1.4375-18.665-20.825-57.3875-46.03125-101.21875-46.03125z"/><path fill="url(#c)" d="M.05255 101.18625c39.3675 9.245 81.39625-1.1625 122.11375-25.43.205-.1225.41-.245.615-.36875-.41125-.4775-.8325-.95875-1.26625-1.4425-18.665-20.825-57.41125-46.03625-101.2425-46.03625-13.8425 0-20.96125 37.7925-20.22 73.2775M122.7813 75.3875c.009-.004.0162-.009.0237-.0137l-.0237.0137z"/><path fill="url(#d)" d="M.0113 101.1775c.74 31.14625 7.63 61.01125 21.28375 61.01125 52.39625 0 112.08875-49.39875 112.08875-67.11125 0-4.43125-4.53-12.97375-10.57875-19.70375C81.8763 99.9225 39.5988 110.4875.0113 101.1775"/></svg>