<svg id="Layer_1" data-name="Layer 1" xmlns="http://www.w3.org/2000/svg" viewBox="0 0 221.07795 127.66745"><defs><style>.cls-1{fill:#002e6d;}.cls-2{fill:none;}.cls-3{fill:#febe85;}.cls-4{fill:#4ac1e0;}.cls-5{fill:#2ed9c3;}</style></defs><path class="cls-1" d="M39.0522,121.49005H28.45067v-17.4774H31.357v14.95491H39.0522Z"/><path class="cls-1" d="M42.97785,121.49005l6.01784-17.4774h3.23923l6.01783,17.4774H55.18l-1.5493-4.83982h-6.133l-1.5493,4.83982Zm7.52875-14.45558-2.356,7.38778h4.82723l-2.34313-7.38778Z"/><path class="cls-1" d="M63.11321,121.49005v-17.4774h2.56087l8.15582,12.54791H73.958V104.01265h2.79118v17.4774h-2.548l-8.18163-12.5863H65.9044v12.5863Z"/><path class="cls-1" d="M89.3564,104.01265a8.42249,8.42249,0,0,1,4.32113,1.01158,6.21447,6.21447,0,0,1,2.57377,2.95117,13.68521,13.68521,0,0,1-.00645,9.52,6.27225,6.27225,0,0,1-2.58022,2.97666,8.3491,8.3491,0,0,1-4.30823,1.018H83.32567v-17.4774ZM86.232,119.04433h2.80408a5.95168,5.95168,0,0,0,2.25347-.3903,3.7956,3.7956,0,0,0,1.58123-1.178,5.36686,5.36686,0,0,0,.9348-1.95864,10.69471,10.69471,0,0,0,.31386-2.74667,9.7043,9.7043,0,0,0-.55063-3.50825,4.16647,4.16647,0,0,0-1.67735-2.10637,5.341,5.341,0,0,0-2.85538-.69772H86.232Z"/><path class="cls-1" d="M104.43421,116.89345a2.68844,2.68844,0,0,0,.41612,1.03093,2.94052,2.94052,0,0,0,.81932.80642,4.01439,4.01439,0,0,0,1.178.52514,5.53968,5.53968,0,0,0,1.479.1858,5.05705,5.05705,0,0,0,1.959-.33934,2.79047,2.79047,0,0,0,1.23544-.94771,2.41376,2.41376,0,0,0,.429-1.42769,1.96158,1.96158,0,0,0-.67869-1.56832,5.08095,5.08095,0,0,0-2.09992-.92835l-2.86795-.71707a7.2555,7.2555,0,0,1-2.29185-.94739,4.32154,4.32154,0,0,1-1.47252-1.5751,4.52993,4.52993,0,0,1-.51224-2.18927,4.6025,4.6025,0,0,1,.81319-2.70183,5.40607,5.40607,0,0,1,2.23411-1.818,8.56425,8.56425,0,0,1,6.49814-.0258,5.3916,5.3916,0,0,1,2.15088,1.70316,4.60884,4.60884,0,0,1,.89,2.41991h-2.81667a2.6814,2.6814,0,0,0-.59546-1.23576,3.06807,3.06807,0,0,0-1.18447-.83223,4.44985,4.44985,0,0,0-1.70284-.301,3.82164,3.82164,0,0,0-2.45184.73,2.31083,2.31083,0,0,0-.91577,1.89509,1.84755,1.84755,0,0,0,.6274,1.42736,4.03784,4.03784,0,0,0,1.79283.85158l2.85505.70417a9.16417,9.16417,0,0,1,2.50958.97319,4.30507,4.30507,0,0,1,1.58123,1.56219,4.58381,4.58381,0,0,1,.54418,2.31733A4.96962,4.96962,0,0,1,114.05,119.294a5.23531,5.23531,0,0,1-2.31766,1.87606,10.11373,10.11373,0,0,1-6.32524.29418,6.0538,6.0538,0,0,1-2.00992-1.04318,4.77444,4.77444,0,0,1-1.287-1.57478,5.13423,5.13423,0,0,1-.53127-1.95283Z"/><path class="cls-1" d="M122.78964,113.9613a7.69824,7.69824,0,0,0,.49289,2.91925,3.88448,3.88448,0,0,0,1.44059,1.83089,4.03013,4.03013,0,0,0,2.27894.62772,4.24927,4.24927,0,0,0,1.88864-.3974,3.32672,3.32672,0,0,0,1.29963-1.09415,3.43692,3.43692,0,0,0,.589-1.607h2.82957v.20451a5.34174,5.34174,0,0,1-.99222,2.79151,5.96178,5.96178,0,0,1-2.33669,1.90766A8.35754,8.35754,0,0,1,123.11,120.901a6.00172,6.00172,0,0,1-2.43281-2.69538,9.8607,9.8607,0,0,1-.83222-4.24436v-2.34313a9.87962,9.87962,0,0,1,.8448-4.25726,6.1725,6.1725,0,0,1,2.44571-2.73989,7.397,7.397,0,0,1,3.85405-.95384,7.79741,7.79741,0,0,1,2.55442.40321,6.26156,6.26156,0,0,1,2.05476,1.15867,5.7925,5.7925,0,0,1,1.40866,1.78606,5.73429,5.73429,0,0,1,.60159,2.27281v.19193h-2.82957a3.79242,3.79242,0,0,0-.59546-1.70929,3.41766,3.41766,0,0,0-1.31221-1.17157,4.02279,4.02279,0,0,0-1.86961-.42256,3.894,3.894,0,0,0-2.25991.64675,4.09708,4.09708,0,0,0-1.44672,1.86283,7.70151,7.70151,0,0,0-.50579,2.95795Z"/><path class="cls-1" d="M137.67552,121.49005l6.01816-17.4774h3.23859l6.01783,17.4774H149.878l-1.54962-4.83982h-6.133l-1.54929,4.83982Zm7.52907-14.45558-2.35636,7.38778h4.82723l-2.34313-7.38778Z"/><path class="cls-1" d="M167.59922,104.74907a5.06487,5.06487,0,0,1,1.97863,2.01025,6.40494,6.40494,0,0,1-.00645,5.8001,5.06782,5.06782,0,0,1-1.98508,2.0038,6.17136,6.17136,0,0,1-3.09214.72965h-3.77663v6.19718h-2.907v-17.4774H164.52A6.09942,6.09942,0,0,1,167.59922,104.74907Zm-1.14576,2.51572a3.2027,3.2027,0,0,0-2.369-.84481h-3.37987v6.49136h3.37987a3.61746,3.61746,0,0,0,1.729-.38418,2.61865,2.61865,0,0,0,1.1006-1.10737,3.71227,3.71227,0,0,0,.38451-1.76058A3.24,3.24,0,0,0,166.45346,107.26479Z"/><path class="cls-1" d="M186.40947,121.49005H175.50021v-17.4774h10.90926v2.44571h-8.01518v4.98078h7.54165V113.782h-7.54165v5.26237h8.01518Z"/><path class="cls-2" d="M172.22984,48.81367c-6.961,0-10.82459,5.21943-10.82459,11.85352,0,6.634,3.85828,11.78912,10.82459,11.78912,6.83233,0,10.82458-5.15509,10.82458-11.78912C183.05442,54.0331,179.06217,48.81367,172.22984,48.81367Z"/><path class="cls-2" d="M82.56785,20.809a5.57165,5.57165,0,0,0-.76093-.95386,5.73671,5.73671,0,0,0-.94317-.7663,5.7342,5.7342,0,0,1,.9378.777A5.56943,5.56943,0,0,1,82.56785,20.809Z"/><path class="cls-2" d="M121.53642,48.2939V61.95326l5.41229-.19293c4.4906-.19287,6.29651-3.017,6.30182-6.70374,0-4.31915-2.5025-6.76269-6.43042-6.76269Z"/><path class="cls-2" d="M40.39475,48.8083c-6.96093,0-10.82995,5.21942-10.82995,11.85352S33.42845,72.451,40.39475,72.451v.00531c6.827,0,10.82459-5.1604,10.82459-11.79449S47.22178,48.8083,40.39475,48.8083Z"/><path class="cls-1" d="M142.714,91.36189l-5.69092,5.69092a1.21107,1.21107,0,0,0,1.70941,1.70947l5.61054-5.61059a5.10173,5.10173,0,0,1-.72339-.60553A5.79437,5.79437,0,0,1,142.714,91.36189Z"/><path class="cls-1" d="M136.5944,24.86024h4.28693c0-.18219-.0268-.36438-.0268-.53588a5.92861,5.92861,0,0,1,.30011-1.85944h-4.71087A5.943,5.943,0,0,1,136.5944,24.86024Z"/><path class="cls-1" d="M83.51243,24.00813c.00043.08722-.00055.17377-.004.26068-.00537.1211-.0166.2417-.02954.36243-.01227.121-.02313.2417-.04278.36145l-.00019.00153a.76861.76861,0,0,0,.1554,0h12.8609a5.98636,5.98636,0,0,1,0-2.41681l-12.8609.03753a1.74843,1.74843,0,0,0-.24115,0,5.82829,5.82829,0,0,1,.12543.72876c.00573.04822.00811.09626.01263.14447C83.50382,23.66127,83.51237,23.83436,83.51243,24.00813Z"/><path class="cls-1" d="M57.055,42.89766c.58942.55194,1.14673,1.136,1.67725,1.74158l15.701-15.6742a5.73973,5.73973,0,0,1-.97-.7663,5.57027,5.57027,0,0,1-.7663-.94317Z"/><path class="cls-1" d="M82.56785,20.809l5.67291-5.67292-.00342-.002a5.56936,5.56936,0,0,1-.94311-.7663,5.73119,5.73119,0,0,1-.7663-.94311l-5.66418,5.66412a5.73671,5.73671,0,0,1,.94317.7663A5.57165,5.57165,0,0,1,82.56785,20.809Z"/><path class="cls-1" d="M108.13352,23.812l.00074.014a5.83208,5.83208,0,0,1-.134,1.23249h16.97107a5.92108,5.92108,0,0,1-.07849-.88507c-.00171-.07306-.005-.14509-.004-.21814a5.91722,5.91722,0,0,1,.08613-.90882c.01379-.08111.02862-.16095.04577-.24151.0116-.0542.01782-.10926.03095-.16321H108.02036a6.12691,6.12691,0,0,1,.1139,1.15747Z"/><path class="cls-1" d="M23.2844,77.95436,17.79173,83.447a5.73463,5.73463,0,0,1,.94311.76629,5.568,5.568,0,0,1,.7663.94318L25.09562,79.562A22.42336,22.42336,0,0,1,23.2844,77.95436Z"/><path class="cls-1" d="M155.83219,78.62959l-4.8175,4.81745a5.73422,5.73422,0,0,1,.94311.76629,5.56169,5.56169,0,0,1,.7663.94318l4.989-4.989Q156.73243,79.44414,155.83219,78.62959Z"/><path class="cls-1" d="M17.7971,38.24629,23.08079,43.53a23.53743,23.53743,0,0,1,1.78442-1.6344l-5.3587-5.3587A5.89521,5.89521,0,0,1,17.7971,38.24629Z"/><path class="cls-1" d="M206.79356,59.424H196.45121q.03213.61084.03217,1.23786c0,.39654,0,.78772-.0268,1.17889h10.337A5.7381,5.7381,0,0,1,206.79356,59.424Z"/><path class="cls-1" d="M134.00126,28.9709l18.053,18.05835a23.88562,23.88562,0,0,1,1.46289-1.9613L135.70481,27.25557a5.56391,5.56391,0,0,1-.76629.94317A5.7365,5.7365,0,0,1,134.00126,28.9709Z"/><path class="cls-1" d="M58.83946,84.208a5.72805,5.72805,0,0,1,.94311-.76629l-3.97613-3.9762-.493-.493-.4823-.48767a22.694,22.694,0,0,0,8.43457-17.82306,22.93512,22.93512,0,0,0-5.5141-15.03656,23.46909,23.46909,0,0,0-1.67725-1.74695A23.28162,23.28162,0,0,0,25.84049,42.887a22.25133,22.25133,0,0,0-1.78442,1.6076A23.17645,23.17645,0,0,0,24.25431,76.963a21.31773,21.31773,0,0,0,1.81128,1.6076,23.46041,23.46041,0,0,0,26.76673,1.33966l.493.493.50372.50373,4.24408,4.24414A5.56707,5.56707,0,0,1,58.83946,84.208ZM40.39475,72.45631V72.451c-6.9663,0-10.82995-5.15509-10.82995-11.78918s3.869-11.85352,10.83-11.85352c6.827,0,10.82459,5.21942,10.82459,11.85352S47.22178,72.45631,40.39475,72.45631Z"/><path class="cls-1" d="M84.856,74.71236a8.33221,8.33221,0,0,1-7.79694-5.21943c-.08032-.32147-.11249-.44476-.26257-.44476a1.80138,1.80138,0,0,0-.45014.12329l-7.92553,3.21521c-.45014.19293-.53583.53589-.25721,1.2218,2.19172,6.31787,7.66834,9.86,16.43518,9.86,10.11188,0,18.3-4.38342,18.3-14.30237,0-8.03808-4.76922-12.43756-13.01629-13.6004-.84131-.12866-1.54871-.25727-2.1435-.32154-5.80346-.96459-8.18274-2.19171-8.18274-5.15509,0-2.38464,1.41468-4.05657,5.9267-4.05657a8.03807,8.03807,0,0,1,7.2182,5.09082c.08575.21435.20361.34832.4126.34832a1.0022,1.0022,0,0,0,.35907-.09112l7.53967-3.02765c.38587-.12866.64307-.39124.45014-1.09857-1.67725-5.4123-6.96631-9.46881-15.54023-9.46881-11.37658.00537-17.11572,5.86779-17.11572,14.24346,0,7.98981,5.41766,12.37323,13.2146,13.1449.45007.06433,1.07172.1286,1.54327.19293,5.92676.70734,7.79694,2.38459,7.79694,5.02643C91.36149,73.35658,89.29838,74.71236,84.856,74.71236Z"/><path class="cls-1" d="M110.36881,38.691c-.225,0-.45007.04291-.45007.5788v42.516c0,.53589,0,.58411.33759.58411H120.9362c.53589,0,.5841-.06427.5841-.58411V71.42213s7.27716-.06433,9.14734-.25726c8.24707-.96454,14.50067-5.15509,14.50067-15.72247,0-9.92432-5.73382-16.75135-15.33661-16.75135Zm22.88172,16.36554c-.00531,3.68677-1.81122,6.51087-6.30182,6.70374l-5.41229.19293V48.2939h5.28369C130.748,48.2939,133.25053,50.73744,133.25053,55.05659Z"/><path class="cls-1" d="M172.22984,37.79085A22.47423,22.47423,0,0,0,153.06175,48.026a23.04222,23.04222,0,0,0-3.70826,12.6305,22.53868,22.53868,0,0,0,9.34559,18.51971,22.96768,22.96768,0,0,0,13.53076,4.287A22.56018,22.56018,0,0,0,195.074,61.83c0-.39123.03217-.78241.03217-1.179s0-.83057-.03217-1.23786A22.61367,22.61367,0,0,0,172.22984,37.79085Zm0,34.66546c-6.96631,0-10.82459-5.15509-10.82459-11.78912,0-6.63409,3.86359-11.85352,10.82459-11.85352,6.83233,0,10.82458,5.21943,10.82458,11.85352C183.05442,67.30122,179.06217,72.45631,172.22984,72.45631Z"/><path class="cls-1" d="M67.94389,91.603a5.5641,5.5641,0,0,1-.7663.94312,5.73463,5.73463,0,0,1-.94311.76629l5.44445,5.44983a1.21108,1.21108,0,0,0,1.70942-1.70947Z"/><path class="cls-3" d="M151.01469,83.447a5.8946,5.8946,0,0,0-8.30066,7.91485,5.79437,5.79437,0,0,0,.90564,1.18427,5.10173,5.10173,0,0,0,.72339.60553,5.89457,5.89457,0,0,0,8.381-7.99518,5.56169,5.56169,0,0,0-.7663-.94318A5.73422,5.73422,0,0,0,151.01469,83.447Z"/><path class="cls-3" d="M96.46836,25.03175A5.89926,5.89926,0,0,0,108.13352,23.812l.00074-.01282a6.12691,6.12691,0,0,0-.1139-1.15747l-.004-.0268a5.89958,5.89958,0,0,0-11.548,0A5.98422,5.98422,0,0,0,96.46836,25.03175Z"/><path class="cls-4" d="M140.90818,24.84419a5.89456,5.89456,0,1,0,5.89453-6.43048h-.02679a5.89459,5.89459,0,0,0-5.89459,5.89459A3.44364,3.44364,0,0,0,140.90818,24.84419Z"/><path class="cls-4" d="M17.79173,83.447a5.89468,5.89468,0,1,0,1.70941,1.70947,5.568,5.568,0,0,0-.7663-.94318A5.73463,5.73463,0,0,0,17.79173,83.447Z"/><path class="cls-4" d="M11.34208,38.24629a5.89459,5.89459,0,1,0-1.70941-8.15906A5.89463,5.89463,0,0,0,11.34208,38.24629Z"/><path class="cls-4" d="M124.88889,23.95528c-.001.07305.00226.14508.004.21814a5.88163,5.88163,0,0,0,9.10254,4.8023l.00586-.00482a5.7365,5.7365,0,0,0,.93726-.77216,5.56391,5.56391,0,0,0,.76629-.94317,5.82516,5.82516,0,0,0,.88959-2.39533,5.943,5.943,0,0,0-.15063-2.39532l-.00477-.02149a5.81934,5.81934,0,0,0-1.50048-2.57751,5.88093,5.88093,0,0,0-9.91773,2.939c-.01715.08056-.032.1604-.04577.24151A5.91722,5.91722,0,0,0,124.88889,23.95528Z"/><path class="cls-5" d="M88.23734,15.13417l.00342.002a5.89448,5.89448,0,1,0-.94653-9.11175v.00537a5.89451,5.89451,0,0,0-.7663,7.395,5.73119,5.73119,0,0,0,.7663.94311A5.56936,5.56936,0,0,0,88.23734,15.13417Z"/><path class="cls-5" d="M81.80155,28.19874a5.88821,5.88821,0,0,0,1.63459-3.20605c.01965-.11975.03051-.24042.04278-.36145.01294-.12073.02417-.24133.02954-.36243.00342-.08691.0044-.17346.004-.26068-.00006-.17377-.00861-.34686-.02417-.52-.00452-.04821-.0069-.09625-.01263-.14447a5.92957,5.92957,0,0,0-.90778-2.53466,5.56943,5.56943,0,0,0-.7663-.94312,5.7342,5.7342,0,0,0-.9378-.777,5.89461,5.89461,0,0,0-8.16132,8.156,5.57206,5.57206,0,0,0,.76093.95385,5.73973,5.73973,0,0,0,.97.7663A5.89464,5.89464,0,0,0,81.80155,28.19874Z"/><path class="cls-5" d="M218.33122,59.41859a5.89467,5.89467,0,0,0-5.77173-4.68353h-.0268a5.89453,5.89453,0,0,0-5.73913,4.6889,5.7381,5.7381,0,0,0,0,2.41675,5.89458,5.89458,0,0,0,11.53766-2.42212Z"/><path class="cls-5" d="M67.94389,91.603a5.8946,5.8946,0,0,0-8.16132-8.156,5.73422,5.73422,0,0,0-.94311.76629,5.56749,5.56749,0,0,0-.7663.94318,5.89457,5.89457,0,0,0,8.16132,8.15594,5.73463,5.73463,0,0,0,.94311-.76629A5.5641,5.5641,0,0,0,67.94389,91.603Z"/></svg>