<?xml version="1.0" encoding="utf-8"?><!DOCTYPE svg PUBLIC "-//W3C//DTD SVG 1.1//EN" "http://www.w3.org/Graphics/SVG/1.1/DTD/svg11.dtd"><svg version="1.1" id="Layer_1" xmlns="http://www.w3.org/2000/svg" xmlns:xlink="http://www.w3.org/1999/xlink" x="0px" y="0px"width="1155px" height="1155px" viewBox="0 0 1155 1155" enable-background="new 0 0 1155 1155" xml:space="preserve"><rect x="0" y="0" width="1155" height="1155" fill="rgb(255,255,255)" /><g transform="translate(70,70)"><g transform="translate(350,0) scale(0.35,0.35)"><g transform="" style="fill: rgb(0, 0, 0);"><rect width="100" height="100"/></g></g><g transform="translate(490,0) scale(0.35,0.35)"><g transform="" style="fill: rgb(0, 0, 0);"><rect width="100" height="100"/></g></g><g transform="translate(595,0) scale(0.35,0.35)"><g transform="" style="fill: rgb(0, 0, 0);"><rect width="100" height="100"/></g></g><g transform="translate(630,0) scale(0.35,0.35)"><g transform="" style="fill: rgb(0, 0, 0);"><rect width="100" height="100"/></g></g><g transform="translate(665,0) scale(0.35,0.35)"><g transform="" style="fill: rgb(0, 0, 0);"><rect width="100" height="100"/></g></g><g transform="translate(315,35) scale(0.35,0.35)"><g transform="" style="fill: rgb(0, 0, 0);"><rect width="100" height="100"/></g></g><g transform="translate(385,35) scale(0.35,0.35)"><g transform="" style="fill: rgb(0, 0, 0);"><rect width="100" height="100"/></g></g><g transform="translate(560,35) scale(0.35,0.35)"><g transform="" style="fill: rgb(0, 0, 0);"><rect width="100" height="100"/></g></g><g transform="translate(630,35) scale(0.35,0.35)"><g transform="" style="fill: rgb(0, 0, 0);"><rect width="100" height="100"/></g></g><g transform="translate(315,70) scale(0.35,0.35)"><g transform="" style="fill: rgb(0, 0, 0);"><rect width="100" height="100"/></g></g><g transform="translate(350,70) scale(0.35,0.35)"><g transform="" style="fill: rgb(0, 0, 0);"><rect width="100" height="100"/></g></g><g transform="translate(385,70) scale(0.35,0.35)"><g transform="" style="fill: rgb(0, 0, 0);"><rect width="100" height="100"/></g></g><g transform="translate(420,70) scale(0.35,0.35)"><g transform="" style="fill: rgb(0, 0, 0);"><rect width="100" height="100"/></g></g><g transform="translate(490,70) scale(0.35,0.35)"><g transform="" style="fill: rgb(0, 0, 0);"><rect width="100" height="100"/></g></g><g transform="translate(525,70) scale(0.35,0.35)"><g transform="" style="fill: rgb(0, 0, 0);"><rect width="100" height="100"/></g></g><g transform="translate(595,70) scale(0.35,0.35)"><g transform="" style="fill: rgb(0, 0, 0);"><rect width="100" height="100"/></g></g><g transform="translate(630,70) scale(0.35,0.35)"><g transform="" style="fill: rgb(0, 0, 0);"><rect width="100" height="100"/></g></g><g transform="translate(665,70) scale(0.35,0.35)"><g transform="" style="fill: rgb(0, 0, 0);"><rect width="100" height="100"/></g></g><g transform="translate(700,70) scale(0.35,0.35)"><g transform="" style="fill: rgb(0, 0, 0);"><rect width="100" height="100"/></g></g><g transform="translate(385,105) scale(0.35,0.35)"><g transform="" style="fill: rgb(0, 0, 0);"><rect width="100" height="100"/></g></g><g transform="translate(455,105) scale(0.35,0.35)"><g transform="" style="fill: rgb(0, 0, 0);"><rect width="100" height="100"/></g></g><g transform="translate(560,105) scale(0.35,0.35)"><g transform="" style="fill: rgb(0, 0, 0);"><rect width="100" height="100"/></g></g><g transform="translate(630,105) scale(0.35,0.35)"><g transform="" style="fill: rgb(0, 0, 0);"><rect width="100" height="100"/></g></g><g transform="translate(315,140) scale(0.35,0.35)"><g transform="" style="fill: rgb(0, 0, 0);"><rect width="100" height="100"/></g></g><g transform="translate(350,140) scale(0.35,0.35)"><g transform="" style="fill: rgb(0, 0, 0);"><rect width="100" height="100"/></g></g><g transform="translate(420,140) scale(0.35,0.35)"><g transform="" style="fill: rgb(0, 0, 0);"><rect width="100" height="100"/></g></g><g transform="translate(630,140) scale(0.35,0.35)"><g transform="" style="fill: rgb(0, 0, 0);"><rect width="100" height="100"/></g></g><g transform="translate(700,140) scale(0.35,0.35)"><g transform="" style="fill: rgb(0, 0, 0);"><rect width="100" height="100"/></g></g><g transform="translate(280,175) scale(0.35,0.35)"><g transform="" style="fill: rgb(0, 0, 0);"><rect width="100" height="100"/></g></g><g transform="translate(350,175) scale(0.35,0.35)"><g transform="" style="fill: rgb(0, 0, 0);"><rect width="100" height="100"/></g></g><g transform="translate(385,175) scale(0.35,0.35)"><g transform="" style="fill: rgb(0, 0, 0);"><rect width="100" height="100"/></g></g><g transform="translate(525,175) scale(0.35,0.35)"><g transform="" style="fill: rgb(0, 0, 0);"><rect width="100" height="100"/></g></g><g transform="translate(560,175) scale(0.35,0.35)"><g transform="" style="fill: rgb(0, 0, 0);"><rect width="100" height="100"/></g></g><g transform="translate(630,175) scale(0.35,0.35)"><g transform="" style="fill: rgb(0, 0, 0);"><rect width="100" height="100"/></g></g><g transform="translate(665,175) scale(0.35,0.35)"><g transform="" style="fill: rgb(0, 0, 0);"><rect width="100" height="100"/></g></g><g transform="translate(280,210) scale(0.35,0.35)"><g transform="" style="fill: rgb(0, 0, 0);"><rect width="100" height="100"/></g></g><g transform="translate(350,210) scale(0.35,0.35)"><g transform="" style="fill: rgb(0, 0, 0);"><rect width="100" height="100"/></g></g><g transform="translate(420,210) scale(0.35,0.35)"><g transform="" style="fill: rgb(0, 0, 0);"><rect width="100" height="100"/></g></g><g transform="translate(490,210) scale(0.35,0.35)"><g transform="" style="fill: rgb(0, 0, 0);"><rect width="100" height="100"/></g></g><g transform="translate(560,210) scale(0.35,0.35)"><g transform="" style="fill: rgb(0, 0, 0);"><rect width="100" height="100"/></g></g><g transform="translate(630,210) scale(0.35,0.35)"><g transform="" style="fill: rgb(0, 0, 0);"><rect width="100" height="100"/></g></g><g transform="translate(700,210) scale(0.35,0.35)"><g transform="" style="fill: rgb(0, 0, 0);"><rect width="100" height="100"/></g></g><g transform="translate(315,245) scale(0.35,0.35)"><g transform="" style="fill: rgb(0, 0, 0);"><rect width="100" height="100"/></g></g><g transform="translate(350,245) scale(0.35,0.35)"><g transform="" style="fill: rgb(0, 0, 0);"><rect width="100" height="100"/></g></g><g transform="translate(385,245) scale(0.35,0.35)"><g transform="" style="fill: rgb(0, 0, 0);"><rect width="100" height="100"/></g></g><g transform="translate(455,245) scale(0.35,0.35)"><g transform="" style="fill: rgb(0, 0, 0);"><rect width="100" height="100"/></g></g><g transform="translate(525,245) scale(0.35,0.35)"><g transform="" style="fill: rgb(0, 0, 0);"><rect width="100" height="100"/></g></g><g transform="translate(560,245) scale(0.35,0.35)"><g transform="" style="fill: rgb(0, 0, 0);"><rect width="100" height="100"/></g></g><g transform="translate(595,245) scale(0.35,0.35)"><g transform="" style="fill: rgb(0, 0, 0);"><rect width="100" height="100"/></g></g><g transform="translate(630,245) scale(0.35,0.35)"><g transform="" style="fill: rgb(0, 0, 0);"><rect width="100" height="100"/></g></g><g transform="translate(700,245) scale(0.35,0.35)"><g transform="" style="fill: rgb(0, 0, 0);"><rect width="100" height="100"/></g></g><g transform="translate(0,280) scale(0.35,0.35)"><g transform="" style="fill: rgb(0, 0, 0);"><rect width="100" height="100"/></g></g><g transform="translate(105,280) scale(0.35,0.35)"><g transform="" style="fill: rgb(0, 0, 0);"><rect width="100" height="100"/></g></g><g transform="translate(175,280) scale(0.35,0.35)"><g transform="" style="fill: rgb(0, 0, 0);"><rect width="100" height="100"/></g></g><g transform="translate(210,280) scale(0.35,0.35)"><g transform="" style="fill: rgb(0, 0, 0);"><rect width="100" height="100"/></g></g><g transform="translate(280,280) scale(0.35,0.35)"><g transform="" style="fill: rgb(0, 0, 0);"><rect width="100" height="100"/></g></g><g transform="translate(315,280) scale(0.35,0.35)"><g transform="" style="fill: rgb(0, 0, 0);"><rect width="100" height="100"/></g></g><g transform="translate(385,280) scale(0.35,0.35)"><g transform="" style="fill: rgb(0, 0, 0);"><rect width="100" height="100"/></g></g><g transform="translate(420,280) scale(0.35,0.35)"><g transform="" style="fill: rgb(0, 0, 0);"><rect width="100" height="100"/></g></g><g transform="translate(490,280) scale(0.35,0.35)"><g transform="" style="fill: rgb(0, 0, 0);"><rect width="100" height="100"/></g></g><g transform="translate(560,280) scale(0.35,0.35)"><g transform="" style="fill: rgb(0, 0, 0);"><rect width="100" height="100"/></g></g><g transform="translate(735,280) scale(0.35,0.35)"><g transform="" style="fill: rgb(0, 0, 0);"><rect width="100" height="100"/></g></g><g transform="translate(805,280) scale(0.35,0.35)"><g transform="" style="fill: rgb(0, 0, 0);"><rect width="100" height="100"/></g></g><g transform="translate(0,315) scale(0.35,0.35)"><g transform="" style="fill: rgb(0, 0, 0);"><rect width="100" height="100"/></g></g><g transform="translate(35,315) scale(0.35,0.35)"><g transform="" style="fill: rgb(0, 0, 0);"><rect width="100" height="100"/></g></g><g transform="translate(70,315) scale(0.35,0.35)"><g transform="" style="fill: rgb(0, 0, 0);"><rect width="100" height="100"/></g></g><g transform="translate(105,315) scale(0.35,0.35)"><g transform="" style="fill: rgb(0, 0, 0);"><rect width="100" height="100"/></g></g><g transform="translate(140,315) scale(0.35,0.35)"><g transform="" style="fill: rgb(0, 0, 0);"><rect width="100" height="100"/></g></g><g transform="translate(175,315) scale(0.35,0.35)"><g transform="" style="fill: rgb(0, 0, 0);"><rect width="100" height="100"/></g></g><g transform="translate(245,315) scale(0.35,0.35)"><g transform="" style="fill: rgb(0, 0, 0);"><rect width="100" height="100"/></g></g><g transform="translate(315,315) scale(0.35,0.35)"><g transform="" style="fill: rgb(0, 0, 0);"><rect width="100" height="100"/></g></g><g transform="translate(385,315) scale(0.35,0.35)"><g transform="" style="fill: rgb(0, 0, 0);"><rect width="100" height="100"/></g></g><g transform="translate(420,315) scale(0.35,0.35)"><g transform="" style="fill: rgb(0, 0, 0);"><rect width="100" height="100"/></g></g><g transform="translate(455,315) scale(0.35,0.35)"><g transform="" style="fill: rgb(0, 0, 0);"><rect width="100" height="100"/></g></g><g transform="translate(525,315) scale(0.35,0.35)"><g transform="" style="fill: rgb(0, 0, 0);"><rect width="100" height="100"/></g></g><g transform="translate(560,315) scale(0.35,0.35)"><g transform="" style="fill: rgb(0, 0, 0);"><rect width="100" height="100"/></g></g><g transform="translate(595,315) scale(0.35,0.35)"><g transform="" style="fill: rgb(0, 0, 0);"><rect width="100" height="100"/></g></g><g transform="translate(630,315) scale(0.35,0.35)"><g transform="" style="fill: rgb(0, 0, 0);"><rect width="100" height="100"/></g></g><g transform="translate(700,315) scale(0.35,0.35)"><g transform="" style="fill: rgb(0, 0, 0);"><rect width="100" height="100"/></g></g><g transform="translate(735,315) scale(0.35,0.35)"><g transform="" style="fill: rgb(0, 0, 0);"><rect width="100" height="100"/></g></g><g transform="translate(770,315) scale(0.35,0.35)"><g transform="" style="fill: rgb(0, 0, 0);"><rect width="100" height="100"/></g></g><g transform="translate(875,315) scale(0.35,0.35)"><g transform="" style="fill: rgb(0, 0, 0);"><rect width="100" height="100"/></g></g><g transform="translate(980,315) scale(0.35,0.35)"><g transform="" style="fill: rgb(0, 0, 0);"><rect width="100" height="100"/></g></g><g transform="translate(70,350) scale(0.35,0.35)"><g transform="" style="fill: rgb(0, 0, 0);"><rect width="100" height="100"/></g></g><g transform="translate(140,350) scale(0.35,0.35)"><g transform="" style="fill: rgb(0, 0, 0);"><rect width="100" height="100"/></g></g><g transform="translate(210,350) scale(0.35,0.35)"><g transform="" style="fill: rgb(0, 0, 0);"><rect width="100" height="100"/></g></g><g transform="translate(245,350) scale(0.35,0.35)"><g transform="" style="fill: rgb(0, 0, 0);"><rect width="100" height="100"/></g></g><g transform="translate(280,350) scale(0.35,0.35)"><g transform="" style="fill: rgb(0, 0, 0);"><rect width="100" height="100"/></g></g><g transform="translate(350,350) scale(0.35,0.35)"><g transform="" style="fill: rgb(0, 0, 0);"><rect width="100" height="100"/></g></g><g transform="translate(455,350) scale(0.35,0.35)"><g transform="" style="fill: rgb(0, 0, 0);"><rect width="100" height="100"/></g></g><g transform="translate(490,350) scale(0.35,0.35)"><g transform="" style="fill: rgb(0, 0, 0);"><rect width="100" height="100"/></g></g><g transform="translate(525,350) scale(0.35,0.35)"><g transform="" style="fill: rgb(0, 0, 0);"><rect width="100" height="100"/></g></g><g transform="translate(665,350) scale(0.35,0.35)"><g transform="" style="fill: rgb(0, 0, 0);"><rect width="100" height="100"/></g></g><g transform="translate(700,350) scale(0.35,0.35)"><g transform="" style="fill: rgb(0, 0, 0);"><rect width="100" height="100"/></g></g><g transform="translate(735,350) scale(0.35,0.35)"><g transform="" style="fill: rgb(0, 0, 0);"><rect width="100" height="100"/></g></g><g transform="translate(770,350) scale(0.35,0.35)"><g transform="" style="fill: rgb(0, 0, 0);"><rect width="100" height="100"/></g></g><g transform="translate(805,350) scale(0.35,0.35)"><g transform="" style="fill: rgb(0, 0, 0);"><rect width="100" height="100"/></g></g><g transform="translate(875,350) scale(0.35,0.35)"><g transform="" style="fill: rgb(0, 0, 0);"><rect width="100" height="100"/></g></g><g transform="translate(910,350) scale(0.35,0.35)"><g transform="" style="fill: rgb(0, 0, 0);"><rect width="100" height="100"/></g></g><g transform="translate(945,350) scale(0.35,0.35)"><g transform="" style="fill: rgb(0, 0, 0);"><rect width="100" height="100"/></g></g><g transform="translate(0,385) scale(0.35,0.35)"><g transform="" style="fill: rgb(0, 0, 0);"><rect width="100" height="100"/></g></g><g transform="translate(70,385) scale(0.35,0.35)"><g transform="" style="fill: rgb(0, 0, 0);"><rect width="100" height="100"/></g></g><g transform="translate(105,385) scale(0.35,0.35)"><g transform="" style="fill: rgb(0, 0, 0);"><rect width="100" height="100"/></g></g><g transform="translate(175,385) scale(0.35,0.35)"><g transform="" style="fill: rgb(0, 0, 0);"><rect width="100" height="100"/></g></g><g transform="translate(245,385) scale(0.35,0.35)"><g transform="" style="fill: rgb(0, 0, 0);"><rect width="100" height="100"/></g></g><g transform="translate(280,385) scale(0.35,0.35)"><g transform="" style="fill: rgb(0, 0, 0);"><rect width="100" height="100"/></g></g><g transform="translate(315,385) scale(0.35,0.35)"><g transform="" style="fill: rgb(0, 0, 0);"><rect width="100" height="100"/></g></g><g transform="translate(350,385) scale(0.35,0.35)"><g transform="" style="fill: rgb(0, 0, 0);"><rect width="100" height="100"/></g></g><g transform="translate(455,385) scale(0.35,0.35)"><g transform="" style="fill: rgb(0, 0, 0);"><rect width="100" height="100"/></g></g><g transform="translate(560,385) scale(0.35,0.35)"><g transform="" style="fill: rgb(0, 0, 0);"><rect width="100" height="100"/></g></g><g transform="translate(665,385) scale(0.35,0.35)"><g transform="" style="fill: rgb(0, 0, 0);"><rect width="100" height="100"/></g></g><g transform="translate(700,385) scale(0.35,0.35)"><g transform="" style="fill: rgb(0, 0, 0);"><rect width="100" height="100"/></g></g><g transform="translate(735,385) scale(0.35,0.35)"><g transform="" style="fill: rgb(0, 0, 0);"><rect width="100" height="100"/></g></g><g transform="translate(805,385) scale(0.35,0.35)"><g transform="" style="fill: rgb(0, 0, 0);"><rect width="100" height="100"/></g></g><g transform="translate(840,385) scale(0.35,0.35)"><g transform="" style="fill: rgb(0, 0, 0);"><rect width="100" height="100"/></g></g><g transform="translate(910,385) scale(0.35,0.35)"><g transform="" style="fill: rgb(0, 0, 0);"><rect width="100" height="100"/></g></g><g transform="translate(945,385) scale(0.35,0.35)"><g transform="" style="fill: rgb(0, 0, 0);"><rect width="100" height="100"/></g></g><g transform="translate(0,420) scale(0.35,0.35)"><g transform="" style="fill: rgb(0, 0, 0);"><rect width="100" height="100"/></g></g><g transform="translate(70,420) scale(0.35,0.35)"><g transform="" style="fill: rgb(0, 0, 0);"><rect width="100" height="100"/></g></g><g transform="translate(105,420) scale(0.35,0.35)"><g transform="" style="fill: rgb(0, 0, 0);"><rect width="100" height="100"/></g></g><g transform="translate(140,420) scale(0.35,0.35)"><g transform="" style="fill: rgb(0, 0, 0);"><rect width="100" height="100"/></g></g><g transform="translate(175,420) scale(0.35,0.35)"><g transform="" style="fill: rgb(0, 0, 0);"><rect width="100" height="100"/></g></g><g transform="translate(210,420) scale(0.35,0.35)"><g transform="" style="fill: rgb(0, 0, 0);"><rect width="100" height="100"/></g></g><g transform="translate(245,420) scale(0.35,0.35)"><g transform="" style="fill: rgb(0, 0, 0);"><rect width="100" height="100"/></g></g><g transform="translate(280,420) scale(0.35,0.35)"><g transform="" style="fill: rgb(0, 0, 0);"><rect width="100" height="100"/></g></g><g transform="translate(350,420) scale(0.35,0.35)"><g transform="" style="fill: rgb(0, 0, 0);"><rect width="100" height="100"/></g></g><g transform="translate(420,420) scale(0.35,0.35)"><g transform="" style="fill: rgb(0, 0, 0);"><rect width="100" height="100"/></g></g><g transform="translate(490,420) scale(0.35,0.35)"><g transform="" style="fill: rgb(0, 0, 0);"><rect width="100" height="100"/></g></g><g transform="translate(525,420) scale(0.35,0.35)"><g transform="" style="fill: rgb(0, 0, 0);"><rect width="100" height="100"/></g></g><g transform="translate(560,420) scale(0.35,0.35)"><g transform="" style="fill: rgb(0, 0, 0);"><rect width="100" height="100"/></g></g><g transform="translate(595,420) scale(0.35,0.35)"><g transform="" style="fill: rgb(0, 0, 0);"><rect width="100" height="100"/></g></g><g transform="translate(735,420) scale(0.35,0.35)"><g transform="" style="fill: rgb(0, 0, 0);"><rect width="100" height="100"/></g></g><g transform="translate(770,420) scale(0.35,0.35)"><g transform="" style="fill: rgb(0, 0, 0);"><rect width="100" height="100"/></g></g><g transform="translate(875,420) scale(0.35,0.35)"><g transform="" style="fill: rgb(0, 0, 0);"><rect width="100" height="100"/></g></g><g transform="translate(945,420) scale(0.35,0.35)"><g transform="" style="fill: rgb(0, 0, 0);"><rect width="100" height="100"/></g></g><g transform="translate(980,420) scale(0.35,0.35)"><g transform="" style="fill: rgb(0, 0, 0);"><rect width="100" height="100"/></g></g><g transform="translate(70,455) scale(0.35,0.35)"><g transform="" style="fill: rgb(0, 0, 0);"><rect width="100" height="100"/></g></g><g transform="translate(105,455) scale(0.35,0.35)"><g transform="" style="fill: rgb(0, 0, 0);"><rect width="100" height="100"/></g></g><g transform="translate(280,455) scale(0.35,0.35)"><g transform="" style="fill: rgb(0, 0, 0);"><rect width="100" height="100"/></g></g><g transform="translate(385,455) scale(0.35,0.35)"><g transform="" style="fill: rgb(0, 0, 0);"><rect width="100" height="100"/></g></g><g transform="translate(420,455) scale(0.35,0.35)"><g transform="" style="fill: rgb(0, 0, 0);"><rect width="100" height="100"/></g></g><g transform="translate(455,455) scale(0.35,0.35)"><g transform="" style="fill: rgb(0, 0, 0);"><rect width="100" height="100"/></g></g><g transform="translate(490,455) scale(0.35,0.35)"><g transform="" style="fill: rgb(0, 0, 0);"><rect width="100" height="100"/></g></g><g transform="translate(525,455) scale(0.35,0.35)"><g transform="" style="fill: rgb(0, 0, 0);"><rect width="100" height="100"/></g></g><g transform="translate(560,455) scale(0.35,0.35)"><g transform="" style="fill: rgb(0, 0, 0);"><rect width="100" height="100"/></g></g><g transform="translate(665,455) scale(0.35,0.35)"><g transform="" style="fill: rgb(0, 0, 0);"><rect width="100" height="100"/></g></g><g transform="translate(700,455) scale(0.35,0.35)"><g transform="" style="fill: rgb(0, 0, 0);"><rect width="100" height="100"/></g></g><g transform="translate(735,455) scale(0.35,0.35)"><g transform="" style="fill: rgb(0, 0, 0);"><rect width="100" height="100"/></g></g><g transform="translate(0,490) scale(0.35,0.35)"><g transform="" style="fill: rgb(0, 0, 0);"><rect width="100" height="100"/></g></g><g transform="translate(35,490) scale(0.35,0.35)"><g transform="" style="fill: rgb(0, 0, 0);"><rect width="100" height="100"/></g></g><g transform="translate(70,490) scale(0.35,0.35)"><g transform="" style="fill: rgb(0, 0, 0);"><rect width="100" height="100"/></g></g><g transform="translate(105,490) scale(0.35,0.35)"><g transform="" style="fill: rgb(0, 0, 0);"><rect width="100" height="100"/></g></g><g transform="translate(210,490) scale(0.35,0.35)"><g transform="" style="fill: rgb(0, 0, 0);"><rect width="100" height="100"/></g></g><g transform="translate(280,490) scale(0.35,0.35)"><g transform="" style="fill: rgb(0, 0, 0);"><rect width="100" height="100"/></g></g><g transform="translate(385,490) scale(0.35,0.35)"><g transform="" style="fill: rgb(0, 0, 0);"><rect width="100" height="100"/></g></g><g transform="translate(455,490) scale(0.35,0.35)"><g transform="" style="fill: rgb(0, 0, 0);"><rect width="100" height="100"/></g></g><g transform="translate(490,490) scale(0.35,0.35)"><g transform="" style="fill: rgb(0, 0, 0);"><rect width="100" height="100"/></g></g><g transform="translate(560,490) scale(0.35,0.35)"><g transform="" style="fill: rgb(0, 0, 0);"><rect width="100" height="100"/></g></g><g transform="translate(595,490) scale(0.35,0.35)"><g transform="" style="fill: rgb(0, 0, 0);"><rect width="100" height="100"/></g></g><g transform="translate(700,490) scale(0.35,0.35)"><g transform="" style="fill: rgb(0, 0, 0);"><rect width="100" height="100"/></g></g><g transform="translate(770,490) scale(0.35,0.35)"><g transform="" style="fill: rgb(0, 0, 0);"><rect width="100" height="100"/></g></g><g transform="translate(805,490) scale(0.35,0.35)"><g transform="" style="fill: rgb(0, 0, 0);"><rect width="100" height="100"/></g></g><g transform="translate(840,490) scale(0.35,0.35)"><g transform="" style="fill: rgb(0, 0, 0);"><rect width="100" height="100"/></g></g><g transform="translate(875,490) scale(0.35,0.35)"><g transform="" style="fill: rgb(0, 0, 0);"><rect width="100" height="100"/></g></g><g transform="translate(910,490) scale(0.35,0.35)"><g transform="" style="fill: rgb(0, 0, 0);"><rect width="100" height="100"/></g></g><g transform="translate(945,490) scale(0.35,0.35)"><g transform="" style="fill: rgb(0, 0, 0);"><rect width="100" height="100"/></g></g><g transform="translate(980,490) scale(0.35,0.35)"><g transform="" style="fill: rgb(0, 0, 0);"><rect width="100" height="100"/></g></g><g transform="translate(0,525) scale(0.35,0.35)"><g transform="" style="fill: rgb(0, 0, 0);"><rect width="100" height="100"/></g></g><g transform="translate(35,525) scale(0.35,0.35)"><g transform="" style="fill: rgb(0, 0, 0);"><rect width="100" height="100"/></g></g><g transform="translate(70,525) scale(0.35,0.35)"><g transform="" style="fill: rgb(0, 0, 0);"><rect width="100" height="100"/></g></g><g transform="translate(140,525) scale(0.35,0.35)"><g transform="" style="fill: rgb(0, 0, 0);"><rect width="100" height="100"/></g></g><g transform="translate(280,525) scale(0.35,0.35)"><g transform="" style="fill: rgb(0, 0, 0);"><rect width="100" height="100"/></g></g><g transform="translate(350,525) scale(0.35,0.35)"><g transform="" style="fill: rgb(0, 0, 0);"><rect width="100" height="100"/></g></g><g transform="translate(385,525) scale(0.35,0.35)"><g transform="" style="fill: rgb(0, 0, 0);"><rect width="100" height="100"/></g></g><g transform="translate(420,525) scale(0.35,0.35)"><g transform="" style="fill: rgb(0, 0, 0);"><rect width="100" height="100"/></g></g><g transform="translate(525,525) scale(0.35,0.35)"><g transform="" style="fill: rgb(0, 0, 0);"><rect width="100" height="100"/></g></g><g transform="translate(595,525) scale(0.35,0.35)"><g transform="" style="fill: rgb(0, 0, 0);"><rect width="100" height="100"/></g></g><g transform="translate(665,525) scale(0.35,0.35)"><g transform="" style="fill: rgb(0, 0, 0);"><rect width="100" height="100"/></g></g><g transform="translate(805,525) scale(0.35,0.35)"><g transform="" style="fill: rgb(0, 0, 0);"><rect width="100" height="100"/></g></g><g transform="translate(875,525) scale(0.35,0.35)"><g transform="" style="fill: rgb(0, 0, 0);"><rect width="100" height="100"/></g></g><g transform="translate(945,525) scale(0.35,0.35)"><g transform="" style="fill: rgb(0, 0, 0);"><rect width="100" height="100"/></g></g><g transform="translate(140,560) scale(0.35,0.35)"><g transform="" style="fill: rgb(0, 0, 0);"><rect width="100" height="100"/></g></g><g transform="translate(175,560) scale(0.35,0.35)"><g transform="" style="fill: rgb(0, 0, 0);"><rect width="100" height="100"/></g></g><g transform="translate(210,560) scale(0.35,0.35)"><g transform="" style="fill: rgb(0, 0, 0);"><rect width="100" height="100"/></g></g><g transform="translate(245,560) scale(0.35,0.35)"><g transform="" style="fill: rgb(0, 0, 0);"><rect width="100" height="100"/></g></g><g transform="translate(280,560) scale(0.35,0.35)"><g transform="" style="fill: rgb(0, 0, 0);"><rect width="100" height="100"/></g></g><g transform="translate(315,560) scale(0.35,0.35)"><g transform="" style="fill: rgb(0, 0, 0);"><rect width="100" height="100"/></g></g><g transform="translate(350,560) scale(0.35,0.35)"><g transform="" style="fill: rgb(0, 0, 0);"><rect width="100" height="100"/></g></g><g transform="translate(385,560) scale(0.35,0.35)"><g transform="" style="fill: rgb(0, 0, 0);"><rect width="100" height="100"/></g></g><g transform="translate(455,560) scale(0.35,0.35)"><g transform="" style="fill: rgb(0, 0, 0);"><rect width="100" height="100"/></g></g><g transform="translate(560,560) scale(0.35,0.35)"><g transform="" style="fill: rgb(0, 0, 0);"><rect width="100" height="100"/></g></g><g transform="translate(595,560) scale(0.35,0.35)"><g transform="" style="fill: rgb(0, 0, 0);"><rect width="100" height="100"/></g></g><g transform="translate(665,560) scale(0.35,0.35)"><g transform="" style="fill: rgb(0, 0, 0);"><rect width="100" height="100"/></g></g><g transform="translate(700,560) scale(0.35,0.35)"><g transform="" style="fill: rgb(0, 0, 0);"><rect width="100" height="100"/></g></g><g transform="translate(735,560) scale(0.35,0.35)"><g transform="" style="fill: rgb(0, 0, 0);"><rect width="100" height="100"/></g></g><g transform="translate(805,560) scale(0.35,0.35)"><g transform="" style="fill: rgb(0, 0, 0);"><rect width="100" height="100"/></g></g><g transform="translate(945,560) scale(0.35,0.35)"><g transform="" style="fill: rgb(0, 0, 0);"><rect width="100" height="100"/></g></g><g transform="translate(35,595) scale(0.35,0.35)"><g transform="" style="fill: rgb(0, 0, 0);"><rect width="100" height="100"/></g></g><g transform="translate(105,595) scale(0.35,0.35)"><g transform="" style="fill: rgb(0, 0, 0);"><rect width="100" height="100"/></g></g><g transform="translate(140,595) scale(0.35,0.35)"><g transform="" style="fill: rgb(0, 0, 0);"><rect width="100" height="100"/></g></g><g transform="translate(245,595) scale(0.35,0.35)"><g transform="" style="fill: rgb(0, 0, 0);"><rect width="100" height="100"/></g></g><g transform="translate(315,595) scale(0.35,0.35)"><g transform="" style="fill: rgb(0, 0, 0);"><rect width="100" height="100"/></g></g><g transform="translate(385,595) scale(0.35,0.35)"><g transform="" style="fill: rgb(0, 0, 0);"><rect width="100" height="100"/></g></g><g transform="translate(455,595) scale(0.35,0.35)"><g transform="" style="fill: rgb(0, 0, 0);"><rect width="100" height="100"/></g></g><g transform="translate(490,595) scale(0.35,0.35)"><g transform="" style="fill: rgb(0, 0, 0);"><rect width="100" height="100"/></g></g><g transform="translate(560,595) scale(0.35,0.35)"><g transform="" style="fill: rgb(0, 0, 0);"><rect width="100" height="100"/></g></g><g transform="translate(595,595) scale(0.35,0.35)"><g transform="" style="fill: rgb(0, 0, 0);"><rect width="100" height="100"/></g></g><g transform="translate(735,595) scale(0.35,0.35)"><g transform="" style="fill: rgb(0, 0, 0);"><rect width="100" height="100"/></g></g><g transform="translate(770,595) scale(0.35,0.35)"><g transform="" style="fill: rgb(0, 0, 0);"><rect width="100" height="100"/></g></g><g transform="translate(805,595) scale(0.35,0.35)"><g transform="" style="fill: rgb(0, 0, 0);"><rect width="100" height="100"/></g></g><g transform="translate(875,595) scale(0.35,0.35)"><g transform="" style="fill: rgb(0, 0, 0);"><rect width="100" height="100"/></g></g><g transform="translate(980,595) scale(0.35,0.35)"><g transform="" style="fill: rgb(0, 0, 0);"><rect width="100" height="100"/></g></g><g transform="translate(0,630) scale(0.35,0.35)"><g transform="" style="fill: rgb(0, 0, 0);"><rect width="100" height="100"/></g></g><g transform="translate(70,630) scale(0.35,0.35)"><g transform="" style="fill: rgb(0, 0, 0);"><rect width="100" height="100"/></g></g><g transform="translate(140,630) scale(0.35,0.35)"><g transform="" style="fill: rgb(0, 0, 0);"><rect width="100" height="100"/></g></g><g transform="translate(175,630) scale(0.35,0.35)"><g transform="" style="fill: rgb(0, 0, 0);"><rect width="100" height="100"/></g></g><g transform="translate(210,630) scale(0.35,0.35)"><g transform="" style="fill: rgb(0, 0, 0);"><rect width="100" height="100"/></g></g><g transform="translate(350,630) scale(0.35,0.35)"><g transform="" style="fill: rgb(0, 0, 0);"><rect width="100" height="100"/></g></g><g transform="translate(385,630) scale(0.35,0.35)"><g transform="" style="fill: rgb(0, 0, 0);"><rect width="100" height="100"/></g></g><g transform="translate(490,630) scale(0.35,0.35)"><g transform="" style="fill: rgb(0, 0, 0);"><rect width="100" height="100"/></g></g><g transform="translate(560,630) scale(0.35,0.35)"><g transform="" style="fill: rgb(0, 0, 0);"><rect width="100" height="100"/></g></g><g transform="translate(630,630) scale(0.35,0.35)"><g transform="" style="fill: rgb(0, 0, 0);"><rect width="100" height="100"/></g></g><g transform="translate(735,630) scale(0.35,0.35)"><g transform="" style="fill: rgb(0, 0, 0);"><rect width="100" height="100"/></g></g><g transform="translate(805,630) scale(0.35,0.35)"><g transform="" style="fill: rgb(0, 0, 0);"><rect width="100" height="100"/></g></g><g transform="translate(945,630) scale(0.35,0.35)"><g transform="" style="fill: rgb(0, 0, 0);"><rect width="100" height="100"/></g></g><g transform="translate(980,630) scale(0.35,0.35)"><g transform="" style="fill: rgb(0, 0, 0);"><rect width="100" height="100"/></g></g><g transform="translate(70,665) scale(0.35,0.35)"><g transform="" style="fill: rgb(0, 0, 0);"><rect width="100" height="100"/></g></g><g transform="translate(105,665) scale(0.35,0.35)"><g transform="" style="fill: rgb(0, 0, 0);"><rect width="100" height="100"/></g></g><g transform="translate(175,665) scale(0.35,0.35)"><g transform="" style="fill: rgb(0, 0, 0);"><rect width="100" height="100"/></g></g><g transform="translate(245,665) scale(0.35,0.35)"><g transform="" style="fill: rgb(0, 0, 0);"><rect width="100" height="100"/></g></g><g transform="translate(280,665) scale(0.35,0.35)"><g transform="" style="fill: rgb(0, 0, 0);"><rect width="100" height="100"/></g></g><g transform="translate(385,665) scale(0.35,0.35)"><g transform="" style="fill: rgb(0, 0, 0);"><rect width="100" height="100"/></g></g><g transform="translate(490,665) scale(0.35,0.35)"><g transform="" style="fill: rgb(0, 0, 0);"><rect width="100" height="100"/></g></g><g transform="translate(525,665) scale(0.35,0.35)"><g transform="" style="fill: rgb(0, 0, 0);"><rect width="100" height="100"/></g></g><g transform="translate(560,665) scale(0.35,0.35)"><g transform="" style="fill: rgb(0, 0, 0);"><rect width="100" height="100"/></g></g><g transform="translate(595,665) scale(0.35,0.35)"><g transform="" style="fill: rgb(0, 0, 0);"><rect width="100" height="100"/></g></g><g transform="translate(630,665) scale(0.35,0.35)"><g transform="" style="fill: rgb(0, 0, 0);"><rect width="100" height="100"/></g></g><g transform="translate(665,665) scale(0.35,0.35)"><g transform="" style="fill: rgb(0, 0, 0);"><rect width="100" height="100"/></g></g><g transform="translate(735,665) scale(0.35,0.35)"><g transform="" style="fill: rgb(0, 0, 0);"><rect width="100" height="100"/></g></g><g transform="translate(805,665) scale(0.35,0.35)"><g transform="" style="fill: rgb(0, 0, 0);"><rect width="100" height="100"/></g></g><g transform="translate(945,665) scale(0.35,0.35)"><g transform="" style="fill: rgb(0, 0, 0);"><rect width="100" height="100"/></g></g><g transform="translate(980,665) scale(0.35,0.35)"><g transform="" style="fill: rgb(0, 0, 0);"><rect width="100" height="100"/></g></g><g transform="translate(0,700) scale(0.35,0.35)"><g transform="" style="fill: rgb(0, 0, 0);"><rect width="100" height="100"/></g></g><g transform="translate(70,700) scale(0.35,0.35)"><g transform="" style="fill: rgb(0, 0, 0);"><rect width="100" height="100"/></g></g><g transform="translate(105,700) scale(0.35,0.35)"><g transform="" style="fill: rgb(0, 0, 0);"><rect width="100" height="100"/></g></g><g transform="translate(175,700) scale(0.35,0.35)"><g transform="" style="fill: rgb(0, 0, 0);"><rect width="100" height="100"/></g></g><g transform="translate(210,700) scale(0.35,0.35)"><g transform="" style="fill: rgb(0, 0, 0);"><rect width="100" height="100"/></g></g><g transform="translate(245,700) scale(0.35,0.35)"><g transform="" style="fill: rgb(0, 0, 0);"><rect width="100" height="100"/></g></g><g transform="translate(280,700) scale(0.35,0.35)"><g transform="" style="fill: rgb(0, 0, 0);"><rect width="100" height="100"/></g></g><g transform="translate(315,700) scale(0.35,0.35)"><g transform="" style="fill: rgb(0, 0, 0);"><rect width="100" height="100"/></g></g><g transform="translate(350,700) scale(0.35,0.35)"><g transform="" style="fill: rgb(0, 0, 0);"><rect width="100" height="100"/></g></g><g transform="translate(385,700) scale(0.35,0.35)"><g transform="" style="fill: rgb(0, 0, 0);"><rect width="100" height="100"/></g></g><g transform="translate(420,700) scale(0.35,0.35)"><g transform="" style="fill: rgb(0, 0, 0);"><rect width="100" height="100"/></g></g><g transform="translate(700,700) scale(0.35,0.35)"><g transform="" style="fill: rgb(0, 0, 0);"><rect width="100" height="100"/></g></g><g transform="translate(735,700) scale(0.35,0.35)"><g transform="" style="fill: rgb(0, 0, 0);"><rect width="100" height="100"/></g></g><g transform="translate(770,700) scale(0.35,0.35)"><g transform="" style="fill: rgb(0, 0, 0);"><rect width="100" height="100"/></g></g><g transform="translate(805,700) scale(0.35,0.35)"><g transform="" style="fill: rgb(0, 0, 0);"><rect width="100" height="100"/></g></g><g transform="translate(840,700) scale(0.35,0.35)"><g transform="" style="fill: rgb(0, 0, 0);"><rect width="100" height="100"/></g></g><g transform="translate(910,700) scale(0.35,0.35)"><g transform="" style="fill: rgb(0, 0, 0);"><rect width="100" height="100"/></g></g><g transform="translate(280,735) scale(0.35,0.35)"><g transform="" style="fill: rgb(0, 0, 0);"><rect width="100" height="100"/></g></g><g transform="translate(315,735) scale(0.35,0.35)"><g transform="" style="fill: rgb(0, 0, 0);"><rect width="100" height="100"/></g></g><g transform="translate(385,735) scale(0.35,0.35)"><g transform="" style="fill: rgb(0, 0, 0);"><rect width="100" height="100"/></g></g><g transform="translate(490,735) scale(0.35,0.35)"><g transform="" style="fill: rgb(0, 0, 0);"><rect width="100" height="100"/></g></g><g transform="translate(560,735) scale(0.35,0.35)"><g transform="" style="fill: rgb(0, 0, 0);"><rect width="100" height="100"/></g></g><g transform="translate(595,735) scale(0.35,0.35)"><g transform="" style="fill: rgb(0, 0, 0);"><rect width="100" height="100"/></g></g><g transform="translate(665,735) scale(0.35,0.35)"><g transform="" style="fill: rgb(0, 0, 0);"><rect width="100" height="100"/></g></g><g transform="translate(700,735) scale(0.35,0.35)"><g transform="" style="fill: rgb(0, 0, 0);"><rect width="100" height="100"/></g></g><g transform="translate(840,735) scale(0.35,0.35)"><g transform="" style="fill: rgb(0, 0, 0);"><rect width="100" height="100"/></g></g><g transform="translate(910,735) scale(0.35,0.35)"><g transform="" style="fill: rgb(0, 0, 0);"><rect width="100" height="100"/></g></g><g transform="translate(945,735) scale(0.35,0.35)"><g transform="" style="fill: rgb(0, 0, 0);"><rect width="100" height="100"/></g></g><g transform="translate(980,735) scale(0.35,0.35)"><g transform="" style="fill: rgb(0, 0, 0);"><rect width="100" height="100"/></g></g><g transform="translate(350,770) scale(0.35,0.35)"><g transform="" style="fill: rgb(0, 0, 0);"><rect width="100" height="100"/></g></g><g transform="translate(385,770) scale(0.35,0.35)"><g transform="" style="fill: rgb(0, 0, 0);"><rect width="100" height="100"/></g></g><g transform="translate(560,770) scale(0.35,0.35)"><g transform="" style="fill: rgb(0, 0, 0);"><rect width="100" height="100"/></g></g><g transform="translate(595,770) scale(0.35,0.35)"><g transform="" style="fill: rgb(0, 0, 0);"><rect width="100" height="100"/></g></g><g transform="translate(700,770) scale(0.35,0.35)"><g transform="" style="fill: rgb(0, 0, 0);"><rect width="100" height="100"/></g></g><g transform="translate(770,770) scale(0.35,0.35)"><g transform="" style="fill: rgb(0, 0, 0);"><rect width="100" height="100"/></g></g><g transform="translate(840,770) scale(0.35,0.35)"><g transform="" style="fill: rgb(0, 0, 0);"><rect width="100" height="100"/></g></g><g transform="translate(945,770) scale(0.35,0.35)"><g transform="" style="fill: rgb(0, 0, 0);"><rect width="100" height="100"/></g></g><g transform="translate(280,805) scale(0.35,0.35)"><g transform="" style="fill: rgb(0, 0, 0);"><rect width="100" height="100"/></g></g><g transform="translate(315,805) scale(0.35,0.35)"><g transform="" style="fill: rgb(0, 0, 0);"><rect width="100" height="100"/></g></g><g transform="translate(490,805) scale(0.35,0.35)"><g transform="" style="fill: rgb(0, 0, 0);"><rect width="100" height="100"/></g></g><g transform="translate(525,805) scale(0.35,0.35)"><g transform="" style="fill: rgb(0, 0, 0);"><rect width="100" height="100"/></g></g><g transform="translate(700,805) scale(0.35,0.35)"><g transform="" style="fill: rgb(0, 0, 0);"><rect width="100" height="100"/></g></g><g transform="translate(840,805) scale(0.35,0.35)"><g transform="" style="fill: rgb(0, 0, 0);"><rect width="100" height="100"/></g></g><g transform="translate(875,805) scale(0.35,0.35)"><g transform="" style="fill: rgb(0, 0, 0);"><rect width="100" height="100"/></g></g><g transform="translate(910,805) scale(0.35,0.35)"><g transform="" style="fill: rgb(0, 0, 0);"><rect width="100" height="100"/></g></g><g transform="translate(315,840) scale(0.35,0.35)"><g transform="" style="fill: rgb(0, 0, 0);"><rect width="100" height="100"/></g></g><g transform="translate(350,840) scale(0.35,0.35)"><g transform="" style="fill: rgb(0, 0, 0);"><rect width="100" height="100"/></g></g><g transform="translate(560,840) scale(0.35,0.35)"><g transform="" style="fill: rgb(0, 0, 0);"><rect width="100" height="100"/></g></g><g transform="translate(595,840) scale(0.35,0.35)"><g transform="" style="fill: rgb(0, 0, 0);"><rect width="100" height="100"/></g></g><g transform="translate(700,840) scale(0.35,0.35)"><g transform="" style="fill: rgb(0, 0, 0);"><rect width="100" height="100"/></g></g><g transform="translate(735,840) scale(0.35,0.35)"><g transform="" style="fill: rgb(0, 0, 0);"><rect width="100" height="100"/></g></g><g transform="translate(770,840) scale(0.35,0.35)"><g transform="" style="fill: rgb(0, 0, 0);"><rect width="100" height="100"/></g></g><g transform="translate(805,840) scale(0.35,0.35)"><g transform="" style="fill: rgb(0, 0, 0);"><rect width="100" height="100"/></g></g><g transform="translate(840,840) scale(0.35,0.35)"><g transform="" style="fill: rgb(0, 0, 0);"><rect width="100" height="100"/></g></g><g transform="translate(980,840) scale(0.35,0.35)"><g transform="" style="fill: rgb(0, 0, 0);"><rect width="100" height="100"/></g></g><g transform="translate(280,875) scale(0.35,0.35)"><g transform="" style="fill: rgb(0, 0, 0);"><rect width="100" height="100"/></g></g><g transform="translate(315,875) scale(0.35,0.35)"><g transform="" style="fill: rgb(0, 0, 0);"><rect width="100" height="100"/></g></g><g transform="translate(350,875) scale(0.35,0.35)"><g transform="" style="fill: rgb(0, 0, 0);"><rect width="100" height="100"/></g></g><g transform="translate(630,875) scale(0.35,0.35)"><g transform="" style="fill: rgb(0, 0, 0);"><rect width="100" height="100"/></g></g><g transform="translate(665,875) scale(0.35,0.35)"><g transform="" style="fill: rgb(0, 0, 0);"><rect width="100" height="100"/></g></g><g transform="translate(700,875) scale(0.35,0.35)"><g transform="" style="fill: rgb(0, 0, 0);"><rect width="100" height="100"/></g></g><g transform="translate(770,875) scale(0.35,0.35)"><g transform="" style="fill: rgb(0, 0, 0);"><rect width="100" height="100"/></g></g><g transform="translate(840,875) scale(0.35,0.35)"><g transform="" style="fill: rgb(0, 0, 0);"><rect width="100" height="100"/></g></g><g transform="translate(875,875) scale(0.35,0.35)"><g transform="" style="fill: rgb(0, 0, 0);"><rect width="100" height="100"/></g></g><g transform="translate(910,875) scale(0.35,0.35)"><g transform="" style="fill: rgb(0, 0, 0);"><rect width="100" height="100"/></g></g><g transform="translate(945,875) scale(0.35,0.35)"><g transform="" style="fill: rgb(0, 0, 0);"><rect width="100" height="100"/></g></g><g transform="translate(350,910) scale(0.35,0.35)"><g transform="" style="fill: rgb(0, 0, 0);"><rect width="100" height="100"/></g></g><g transform="translate(385,910) scale(0.35,0.35)"><g transform="" style="fill: rgb(0, 0, 0);"><rect width="100" height="100"/></g></g><g transform="translate(455,910) scale(0.35,0.35)"><g transform="" style="fill: rgb(0, 0, 0);"><rect width="100" height="100"/></g></g><g transform="translate(490,910) scale(0.35,0.35)"><g transform="" style="fill: rgb(0, 0, 0);"><rect width="100" height="100"/></g></g><g transform="translate(560,910) scale(0.35,0.35)"><g transform="" style="fill: rgb(0, 0, 0);"><rect width="100" height="100"/></g></g><g transform="translate(595,910) scale(0.35,0.35)"><g transform="" style="fill: rgb(0, 0, 0);"><rect width="100" height="100"/></g></g><g transform="translate(630,910) scale(0.35,0.35)"><g transform="" style="fill: rgb(0, 0, 0);"><rect width="100" height="100"/></g></g><g transform="translate(840,910) scale(0.35,0.35)"><g transform="" style="fill: rgb(0, 0, 0);"><rect width="100" height="100"/></g></g><g transform="translate(875,910) scale(0.35,0.35)"><g transform="" style="fill: rgb(0, 0, 0);"><rect width="100" height="100"/></g></g><g transform="translate(910,910) scale(0.35,0.35)"><g transform="" style="fill: rgb(0, 0, 0);"><rect width="100" height="100"/></g></g><g transform="translate(980,910) scale(0.35,0.35)"><g transform="" style="fill: rgb(0, 0, 0);"><rect width="100" height="100"/></g></g><g transform="translate(350,945) scale(0.35,0.35)"><g transform="" style="fill: rgb(0, 0, 0);"><rect width="100" height="100"/></g></g><g transform="translate(385,945) scale(0.35,0.35)"><g transform="" style="fill: rgb(0, 0, 0);"><rect width="100" height="100"/></g></g><g transform="translate(420,945) scale(0.35,0.35)"><g transform="" style="fill: rgb(0, 0, 0);"><rect width="100" height="100"/></g></g><g transform="translate(490,945) scale(0.35,0.35)"><g transform="" style="fill: rgb(0, 0, 0);"><rect width="100" height="100"/></g></g><g transform="translate(560,945) scale(0.35,0.35)"><g transform="" style="fill: rgb(0, 0, 0);"><rect width="100" height="100"/></g></g><g transform="translate(595,945) scale(0.35,0.35)"><g transform="" style="fill: rgb(0, 0, 0);"><rect width="100" height="100"/></g></g><g transform="translate(630,945) scale(0.35,0.35)"><g transform="" style="fill: rgb(0, 0, 0);"><rect width="100" height="100"/></g></g><g transform="translate(700,945) scale(0.35,0.35)"><g transform="" style="fill: rgb(0, 0, 0);"><rect width="100" height="100"/></g></g><g transform="translate(840,945) scale(0.35,0.35)"><g transform="" style="fill: rgb(0, 0, 0);"><rect width="100" height="100"/></g></g><g transform="translate(945,945) scale(0.35,0.35)"><g transform="" style="fill: rgb(0, 0, 0);"><rect width="100" height="100"/></g></g><g transform="translate(280,980) scale(0.35,0.35)"><g transform="" style="fill: rgb(0, 0, 0);"><rect width="100" height="100"/></g></g><g transform="translate(350,980) scale(0.35,0.35)"><g transform="" style="fill: rgb(0, 0, 0);"><rect width="100" height="100"/></g></g><g transform="translate(490,980) scale(0.35,0.35)"><g transform="" style="fill: rgb(0, 0, 0);"><rect width="100" height="100"/></g></g><g transform="translate(525,980) scale(0.35,0.35)"><g transform="" style="fill: rgb(0, 0, 0);"><rect width="100" height="100"/></g></g><g transform="translate(595,980) scale(0.35,0.35)"><g transform="" style="fill: rgb(0, 0, 0);"><rect width="100" height="100"/></g></g><g transform="translate(630,980) scale(0.35,0.35)"><g transform="" style="fill: rgb(0, 0, 0);"><rect width="100" height="100"/></g></g><g transform="translate(700,980) scale(0.35,0.35)"><g transform="" style="fill: rgb(0, 0, 0);"><rect width="100" height="100"/></g></g><g transform="translate(805,980) scale(0.35,0.35)"><g transform="" style="fill: rgb(0, 0, 0);"><rect width="100" height="100"/></g></g><g transform="translate(875,980) scale(0.35,0.35)"><g transform="" style="fill: rgb(0, 0, 0);"><rect width="100" height="100"/></g></g><g transform="translate(945,980) scale(0.35,0.35)"><g transform="" style="fill: rgb(0, 0, 0);"><rect width="100" height="100"/></g></g><g transform="translate(0,0) scale(2.45, 2.45)"><g transform="" style="fill: rgb(0, 0, 0);"><g>	<rect x="15" y="15" style="fill:none;" width="70" height="70"/>	<path d="M85,0H15H0v15v70v15h15h70h15V85V15V0H85z M85,85H15V15h70V85z"/></g></g></g><g transform="translate(770,0) scale(2.45, 2.45)"><g transform="" style="fill: rgb(0, 0, 0);"><g>	<rect x="15" y="15" style="fill:none;" width="70" height="70"/>	<path d="M85,0H15H0v15v70v15h15h70h15V85V15V0H85z M85,85H15V15h70V85z"/></g></g></g><g transform="translate(0,770) scale(2.45, 2.45)"><g transform="" style="fill: rgb(0, 0, 0);"><g>	<rect x="15" y="15" style="fill:none;" width="70" height="70"/>	<path d="M85,0H15H0v15v70v15h15h70h15V85V15V0H85z M85,85H15V15h70V85z"/></g></g></g><g transform="translate(70,70) scale(1.05, 1.05)"><g transform="" style="fill: rgb(0, 0, 0);"><rect width="100" height="100"/></g></g><g transform="translate(840,70) scale(1.05, 1.05)"><g transform="" style="fill: rgb(0, 0, 0);"><rect width="100" height="100"/></g></g><g transform="translate(70,840) scale(1.05, 1.05)"><g transform="" style="fill: rgb(0, 0, 0);"><rect width="100" height="100"/></g></g></g></svg>
